<svg width="1651" height="858" viewBox="0 0 1651 858" fill="none" xmlns="http://www.w3.org/2000/svg">
<g opacity="0.7">
<g opacity="0.5">
<rect x="1267" y="140.753" width="26.5197" height="26.5197" rx="5.94106" transform="rotate(-45 1267 140.753)" fill="url(#paint0_radial_596_994)"/>
<rect x="1316.39" y="140.752" width="26.5197" height="26.5197" rx="5.94106" transform="rotate(-45 1316.39 140.752)" fill="url(#paint1_radial_596_994)"/>
<rect x="1365.77" y="140.752" width="26.5197" height="26.5197" rx="5.94106" transform="rotate(-45 1365.77 140.752)" fill="url(#paint2_radial_596_994)"/>
<rect x="1415.17" y="140.752" width="26.5197" height="26.5197" rx="5.94106" transform="rotate(-45 1415.17 140.752)" fill="url(#paint3_radial_596_994)"/>
<rect x="1464.55" y="140.752" width="26.5197" height="26.5197" rx="5.94106" transform="rotate(-45 1464.55 140.752)" fill="url(#paint4_radial_596_994)"/>
<rect x="1513.94" y="140.752" width="26.5197" height="26.5197" rx="5.94106" transform="rotate(-45 1513.94 140.752)" fill="url(#paint5_radial_596_994)"/>
<rect x="1563.33" y="140.752" width="26.5197" height="26.5197" rx="5.94106" transform="rotate(-45 1563.33 140.752)" fill="url(#paint6_radial_596_994)"/>
<rect x="1612.71" y="140.752" width="26.5197" height="26.5197" rx="5.94106" transform="rotate(-45 1612.71 140.752)" fill="url(#paint7_radial_596_994)"/>
</g>
<g opacity="0.5">
<rect x="1267" y="241.751" width="26.5197" height="26.5197" rx="5.94106" transform="rotate(-45 1267 241.751)" fill="url(#paint8_radial_596_994)"/>
<rect x="1316.39" y="241.751" width="26.5197" height="26.5197" rx="5.94106" transform="rotate(-45 1316.39 241.751)" fill="url(#paint9_radial_596_994)"/>
<rect x="1365.77" y="241.751" width="26.5197" height="26.5197" rx="5.94106" transform="rotate(-45 1365.77 241.751)" fill="url(#paint10_radial_596_994)"/>
<rect x="1415.17" y="241.751" width="26.5197" height="26.5197" rx="5.94106" transform="rotate(-45 1415.17 241.751)" fill="url(#paint11_radial_596_994)"/>
<rect x="1464.55" y="241.751" width="26.5197" height="26.5197" rx="5.94106" transform="rotate(-45 1464.55 241.751)" fill="url(#paint12_radial_596_994)"/>
<rect x="1513.94" y="241.751" width="26.5197" height="26.5197" rx="5.94106" transform="rotate(-45 1513.94 241.751)" fill="url(#paint13_radial_596_994)"/>
<rect x="1563.33" y="241.751" width="26.5197" height="26.5197" rx="5.94106" transform="rotate(-45 1563.33 241.751)" fill="url(#paint14_radial_596_994)"/>
<rect x="1612.71" y="241.751" width="26.5197" height="26.5197" rx="5.94106" transform="rotate(-45 1612.71 241.751)" fill="url(#paint15_radial_596_994)"/>
</g>
<g opacity="0.5">
<rect x="1267" y="342.749" width="26.5197" height="26.5197" rx="5.94106" transform="rotate(-45 1267 342.749)" fill="url(#paint16_radial_596_994)"/>
<rect x="1316.39" y="342.749" width="26.5197" height="26.5197" rx="5.94106" transform="rotate(-45 1316.39 342.749)" fill="url(#paint17_radial_596_994)"/>
<rect x="1365.77" y="342.749" width="26.5197" height="26.5197" rx="5.94106" transform="rotate(-45 1365.77 342.749)" fill="url(#paint18_radial_596_994)"/>
<rect x="1415.17" y="342.749" width="26.5197" height="26.5197" rx="5.94106" transform="rotate(-45 1415.17 342.749)" fill="url(#paint19_radial_596_994)"/>
<rect x="1464.55" y="342.749" width="26.5197" height="26.5197" rx="5.94106" transform="rotate(-45 1464.55 342.749)" fill="url(#paint20_radial_596_994)"/>
<rect x="1513.94" y="342.749" width="26.5197" height="26.5197" rx="5.94106" transform="rotate(-45 1513.94 342.749)" fill="url(#paint21_radial_596_994)"/>
<rect x="1563.33" y="342.749" width="26.5197" height="26.5197" rx="5.94106" transform="rotate(-45 1563.33 342.749)" fill="url(#paint22_radial_596_994)"/>
<rect x="1612.71" y="342.749" width="26.5197" height="26.5197" rx="5.94106" transform="rotate(-45 1612.71 342.749)" fill="url(#paint23_radial_596_994)"/>
</g>
<g opacity="0.5">
<rect x="1267" y="191.252" width="26.5197" height="26.5197" rx="5.94106" transform="rotate(-45 1267 191.252)" fill="url(#paint24_radial_596_994)"/>
<rect x="1316.39" y="191.251" width="26.5197" height="26.5197" rx="5.94106" transform="rotate(-45 1316.39 191.251)" fill="url(#paint25_radial_596_994)"/>
<rect x="1365.77" y="191.251" width="26.5197" height="26.5197" rx="5.94106" transform="rotate(-45 1365.77 191.251)" fill="url(#paint26_radial_596_994)"/>
<rect x="1415.17" y="191.251" width="26.5197" height="26.5197" rx="5.94106" transform="rotate(-45 1415.17 191.251)" fill="url(#paint27_radial_596_994)"/>
<rect x="1464.55" y="191.251" width="26.5197" height="26.5197" rx="5.94106" transform="rotate(-45 1464.55 191.251)" fill="url(#paint28_radial_596_994)"/>
<rect x="1513.94" y="191.251" width="26.5197" height="26.5197" rx="5.94106" transform="rotate(-45 1513.94 191.251)" fill="url(#paint29_radial_596_994)"/>
<rect x="1563.33" y="191.251" width="26.5197" height="26.5197" rx="5.94106" transform="rotate(-45 1563.33 191.251)" fill="url(#paint30_radial_596_994)"/>
<rect x="1612.71" y="191.251" width="26.5197" height="26.5197" rx="5.94106" transform="rotate(-45 1612.71 191.251)" fill="url(#paint31_radial_596_994)"/>
</g>
<g opacity="0.5">
<rect x="1267" y="292.25" width="26.5197" height="26.5197" rx="5.94106" transform="rotate(-45 1267 292.25)" fill="url(#paint32_radial_596_994)"/>
<rect x="1316.39" y="292.25" width="26.5197" height="26.5197" rx="5.94106" transform="rotate(-45 1316.39 292.25)" fill="url(#paint33_radial_596_994)"/>
<rect x="1365.77" y="292.25" width="26.5197" height="26.5197" rx="5.94106" transform="rotate(-45 1365.77 292.25)" fill="url(#paint34_radial_596_994)"/>
<rect x="1415.17" y="292.25" width="26.5197" height="26.5197" rx="5.94106" transform="rotate(-45 1415.17 292.25)" fill="url(#paint35_radial_596_994)"/>
<rect x="1464.55" y="292.25" width="26.5197" height="26.5197" rx="5.94106" transform="rotate(-45 1464.55 292.25)" fill="url(#paint36_radial_596_994)"/>
<rect x="1513.94" y="292.25" width="26.5197" height="26.5197" rx="5.94106" transform="rotate(-45 1513.94 292.25)" fill="url(#paint37_radial_596_994)"/>
<rect x="1563.33" y="292.25" width="26.5197" height="26.5197" rx="5.94106" transform="rotate(-45 1563.33 292.25)" fill="url(#paint38_radial_596_994)"/>
<rect x="1612.71" y="292.25" width="26.5197" height="26.5197" rx="5.94106" transform="rotate(-45 1612.71 292.25)" fill="url(#paint39_radial_596_994)"/>
</g>
<g opacity="0.5">
<rect x="1267" y="393.248" width="26.5197" height="26.5197" rx="5.94106" transform="rotate(-45 1267 393.248)" fill="url(#paint40_radial_596_994)"/>
<rect x="1316.39" y="393.248" width="26.5197" height="26.5197" rx="5.94106" transform="rotate(-45 1316.39 393.248)" fill="url(#paint41_radial_596_994)"/>
<rect x="1365.77" y="393.248" width="26.5197" height="26.5197" rx="5.94106" transform="rotate(-45 1365.77 393.248)" fill="url(#paint42_radial_596_994)"/>
<rect x="1415.17" y="393.249" width="26.5197" height="26.5197" rx="5.94106" transform="rotate(-45 1415.17 393.249)" fill="url(#paint43_radial_596_994)"/>
<rect x="1464.55" y="393.248" width="26.5197" height="26.5197" rx="5.94106" transform="rotate(-45 1464.55 393.248)" fill="url(#paint44_radial_596_994)"/>
<rect x="1513.94" y="393.248" width="26.5197" height="26.5197" rx="5.94106" transform="rotate(-45 1513.94 393.248)" fill="url(#paint45_radial_596_994)"/>
<rect x="1563.33" y="393.248" width="26.5197" height="26.5197" rx="5.94106" transform="rotate(-45 1563.33 393.248)" fill="url(#paint46_radial_596_994)"/>
<rect x="1612.71" y="393.248" width="26.5197" height="26.5197" rx="5.94106" transform="rotate(-45 1612.71 393.248)" fill="url(#paint47_radial_596_994)"/>
</g>
</g>
<g opacity="0.7">
<g opacity="0.5">
<rect x="352" y="633.52" width="21.9473" height="21.9473" rx="4.91673" transform="rotate(-45 352 633.52)" fill="url(#paint48_radial_596_994)"/>
<rect x="392.872" y="633.519" width="21.9473" height="21.9473" rx="4.91673" transform="rotate(-45 392.872 633.519)" fill="url(#paint49_radial_596_994)"/>
<rect x="433.743" y="633.519" width="21.9473" height="21.9473" rx="4.91673" transform="rotate(-45 433.743 633.519)" fill="url(#paint50_radial_596_994)"/>
<rect x="474.622" y="633.519" width="21.9473" height="21.9473" rx="4.91673" transform="rotate(-45 474.622 633.519)" fill="url(#paint51_radial_596_994)"/>
<rect x="515.49" y="633.519" width="21.9473" height="21.9473" rx="4.91673" transform="rotate(-45 515.49 633.519)" fill="url(#paint52_radial_596_994)"/>
<rect x="556.365" y="633.519" width="21.9473" height="21.9473" rx="4.91673" transform="rotate(-45 556.365 633.519)" fill="url(#paint53_radial_596_994)"/>
<rect x="597.24" y="633.519" width="21.9473" height="21.9473" rx="4.91673" transform="rotate(-45 597.24 633.519)" fill="url(#paint54_radial_596_994)"/>
<rect x="638.105" y="633.519" width="21.9473" height="21.9473" rx="4.91673" transform="rotate(-45 638.105 633.519)" fill="url(#paint55_radial_596_994)"/>
</g>
<g opacity="0.5">
<rect x="352" y="717.104" width="21.9473" height="21.9473" rx="4.91673" transform="rotate(-45 352 717.104)" fill="url(#paint56_radial_596_994)"/>
<rect x="392.872" y="717.104" width="21.9473" height="21.9473" rx="4.91673" transform="rotate(-45 392.872 717.104)" fill="url(#paint57_radial_596_994)"/>
<rect x="433.743" y="717.104" width="21.9473" height="21.9473" rx="4.91673" transform="rotate(-45 433.743 717.104)" fill="url(#paint58_radial_596_994)"/>
<rect x="474.622" y="717.104" width="21.9473" height="21.9473" rx="4.91673" transform="rotate(-45 474.622 717.104)" fill="url(#paint59_radial_596_994)"/>
<rect x="515.49" y="717.104" width="21.9473" height="21.9473" rx="4.91673" transform="rotate(-45 515.49 717.104)" fill="url(#paint60_radial_596_994)"/>
<rect x="556.365" y="717.104" width="21.9473" height="21.9473" rx="4.91673" transform="rotate(-45 556.365 717.104)" fill="url(#paint61_radial_596_994)"/>
<rect x="597.24" y="717.104" width="21.9473" height="21.9473" rx="4.91673" transform="rotate(-45 597.24 717.104)" fill="url(#paint62_radial_596_994)"/>
<rect x="638.105" y="717.104" width="21.9473" height="21.9473" rx="4.91673" transform="rotate(-45 638.105 717.104)" fill="url(#paint63_radial_596_994)"/>
</g>
<g opacity="0.5">
<rect x="352" y="800.688" width="21.9473" height="21.9473" rx="4.91673" transform="rotate(-45 352 800.688)" fill="url(#paint64_radial_596_994)"/>
<rect x="392.872" y="800.688" width="21.9473" height="21.9473" rx="4.91673" transform="rotate(-45 392.872 800.688)" fill="url(#paint65_radial_596_994)"/>
<rect x="433.743" y="800.688" width="21.9473" height="21.9473" rx="4.91673" transform="rotate(-45 433.743 800.688)" fill="url(#paint66_radial_596_994)"/>
<rect x="474.622" y="800.688" width="21.9473" height="21.9473" rx="4.91673" transform="rotate(-45 474.622 800.688)" fill="url(#paint67_radial_596_994)"/>
<rect x="515.49" y="800.688" width="21.9473" height="21.9473" rx="4.91673" transform="rotate(-45 515.49 800.688)" fill="url(#paint68_radial_596_994)"/>
<rect x="556.365" y="800.688" width="21.9473" height="21.9473" rx="4.91673" transform="rotate(-45 556.365 800.688)" fill="url(#paint69_radial_596_994)"/>
<rect x="597.24" y="800.688" width="21.9473" height="21.9473" rx="4.91673" transform="rotate(-45 597.24 800.688)" fill="url(#paint70_radial_596_994)"/>
<rect x="638.105" y="800.688" width="21.9473" height="21.9473" rx="4.91673" transform="rotate(-45 638.105 800.688)" fill="url(#paint71_radial_596_994)"/>
</g>
<g opacity="0.5">
<rect x="352" y="675.312" width="21.9473" height="21.9473" rx="4.91673" transform="rotate(-45 352 675.312)" fill="url(#paint72_radial_596_994)"/>
<rect x="392.872" y="675.311" width="21.9473" height="21.9473" rx="4.91673" transform="rotate(-45 392.872 675.311)" fill="url(#paint73_radial_596_994)"/>
<rect x="433.743" y="675.311" width="21.9473" height="21.9473" rx="4.91673" transform="rotate(-45 433.743 675.311)" fill="url(#paint74_radial_596_994)"/>
<rect x="474.622" y="675.311" width="21.9473" height="21.9473" rx="4.91673" transform="rotate(-45 474.622 675.311)" fill="url(#paint75_radial_596_994)"/>
<rect x="515.49" y="675.311" width="21.9473" height="21.9473" rx="4.91673" transform="rotate(-45 515.49 675.311)" fill="url(#paint76_radial_596_994)"/>
<rect x="556.365" y="675.311" width="21.9473" height="21.9473" rx="4.91673" transform="rotate(-45 556.365 675.311)" fill="url(#paint77_radial_596_994)"/>
<rect x="597.24" y="675.311" width="21.9473" height="21.9473" rx="4.91673" transform="rotate(-45 597.24 675.311)" fill="url(#paint78_radial_596_994)"/>
<rect x="638.105" y="675.311" width="21.9473" height="21.9473" rx="4.91673" transform="rotate(-45 638.105 675.311)" fill="url(#paint79_radial_596_994)"/>
</g>
<g opacity="0.5">
<rect x="352" y="758.897" width="21.9473" height="21.9473" rx="4.91673" transform="rotate(-45 352 758.897)" fill="url(#paint80_radial_596_994)"/>
<rect x="392.872" y="758.897" width="21.9473" height="21.9473" rx="4.91673" transform="rotate(-45 392.872 758.897)" fill="url(#paint81_radial_596_994)"/>
<rect x="433.743" y="758.897" width="21.9473" height="21.9473" rx="4.91673" transform="rotate(-45 433.743 758.897)" fill="url(#paint82_radial_596_994)"/>
<rect x="474.622" y="758.897" width="21.9473" height="21.9473" rx="4.91673" transform="rotate(-45 474.622 758.897)" fill="url(#paint83_radial_596_994)"/>
<rect x="515.49" y="758.897" width="21.9473" height="21.9473" rx="4.91673" transform="rotate(-45 515.49 758.897)" fill="url(#paint84_radial_596_994)"/>
<rect x="556.365" y="758.897" width="21.9473" height="21.9473" rx="4.91673" transform="rotate(-45 556.365 758.897)" fill="url(#paint85_radial_596_994)"/>
<rect x="597.24" y="758.897" width="21.9473" height="21.9473" rx="4.91673" transform="rotate(-45 597.24 758.897)" fill="url(#paint86_radial_596_994)"/>
<rect x="638.105" y="758.897" width="21.9473" height="21.9473" rx="4.91673" transform="rotate(-45 638.105 758.897)" fill="url(#paint87_radial_596_994)"/>
</g>
<g opacity="0.5">
<rect x="352" y="842.481" width="21.9473" height="21.9473" rx="4.91673" transform="rotate(-45 352 842.481)" fill="url(#paint88_radial_596_994)"/>
<rect x="392.872" y="842.48" width="21.9473" height="21.9473" rx="4.91673" transform="rotate(-45 392.872 842.48)" fill="url(#paint89_radial_596_994)"/>
<rect x="433.743" y="842.48" width="21.9473" height="21.9473" rx="4.91673" transform="rotate(-45 433.743 842.48)" fill="url(#paint90_radial_596_994)"/>
<rect x="474.622" y="842.481" width="21.9473" height="21.9473" rx="4.91673" transform="rotate(-45 474.622 842.481)" fill="url(#paint91_radial_596_994)"/>
<rect x="515.49" y="842.48" width="21.9473" height="21.9473" rx="4.91673" transform="rotate(-45 515.49 842.48)" fill="url(#paint92_radial_596_994)"/>
<rect x="556.365" y="842.48" width="21.9473" height="21.9473" rx="4.91673" transform="rotate(-45 556.365 842.48)" fill="url(#paint93_radial_596_994)"/>
<rect x="597.24" y="842.48" width="21.9473" height="21.9473" rx="4.91673" transform="rotate(-45 597.24 842.48)" fill="url(#paint94_radial_596_994)"/>
<rect x="638.105" y="842.48" width="21.9473" height="21.9473" rx="4.91673" transform="rotate(-45 638.105 842.48)" fill="url(#paint95_radial_596_994)"/>
</g>
</g>
<rect opacity="0.15" x="-85" y="381.573" width="569.324" height="569.324" rx="52.9944" transform="rotate(-45 -85 381.573)" fill="url(#paint96_radial_596_994)"/>
<defs>
<radialGradient id="paint0_radial_596_994" cx="0" cy="0" r="1" gradientUnits="userSpaceOnUse" gradientTransform="translate(1280.26 154.013) rotate(85.3036) scale(25.4152)">
<stop stop-color="#F1F1F1"/>
<stop offset="1" stop-color="#FAFAFA"/>
</radialGradient>
<radialGradient id="paint1_radial_596_994" cx="0" cy="0" r="1" gradientUnits="userSpaceOnUse" gradientTransform="translate(1329.65 154.012) rotate(85.3036) scale(25.4152)">
<stop stop-color="#F1F1F1"/>
<stop offset="1" stop-color="#FAFAFA"/>
</radialGradient>
<radialGradient id="paint2_radial_596_994" cx="0" cy="0" r="1" gradientUnits="userSpaceOnUse" gradientTransform="translate(1379.03 154.012) rotate(85.3036) scale(25.4152)">
<stop stop-color="#F1F1F1"/>
<stop offset="1" stop-color="#FAFAFA"/>
</radialGradient>
<radialGradient id="paint3_radial_596_994" cx="0" cy="0" r="1" gradientUnits="userSpaceOnUse" gradientTransform="translate(1428.43 154.012) rotate(85.3036) scale(25.4152)">
<stop stop-color="#F1F1F1"/>
<stop offset="1" stop-color="#FAFAFA"/>
</radialGradient>
<radialGradient id="paint4_radial_596_994" cx="0" cy="0" r="1" gradientUnits="userSpaceOnUse" gradientTransform="translate(1477.81 154.012) rotate(85.3036) scale(25.4152)">
<stop stop-color="#F1F1F1"/>
<stop offset="1" stop-color="#FAFAFA"/>
</radialGradient>
<radialGradient id="paint5_radial_596_994" cx="0" cy="0" r="1" gradientUnits="userSpaceOnUse" gradientTransform="translate(1527.2 154.012) rotate(85.3036) scale(25.4152)">
<stop stop-color="#F1F1F1"/>
<stop offset="1" stop-color="#FAFAFA"/>
</radialGradient>
<radialGradient id="paint6_radial_596_994" cx="0" cy="0" r="1" gradientUnits="userSpaceOnUse" gradientTransform="translate(1576.59 154.012) rotate(85.3036) scale(25.4152)">
<stop stop-color="#F1F1F1"/>
<stop offset="1" stop-color="#FAFAFA"/>
</radialGradient>
<radialGradient id="paint7_radial_596_994" cx="0" cy="0" r="1" gradientUnits="userSpaceOnUse" gradientTransform="translate(1625.97 154.012) rotate(85.3036) scale(25.4152)">
<stop stop-color="#F1F1F1"/>
<stop offset="1" stop-color="#FAFAFA"/>
</radialGradient>
<radialGradient id="paint8_radial_596_994" cx="0" cy="0" r="1" gradientUnits="userSpaceOnUse" gradientTransform="translate(1280.26 255.011) rotate(85.3036) scale(25.4152)">
<stop stop-color="#F1F1F1"/>
<stop offset="1" stop-color="#FAFAFA"/>
</radialGradient>
<radialGradient id="paint9_radial_596_994" cx="0" cy="0" r="1" gradientUnits="userSpaceOnUse" gradientTransform="translate(1329.65 255.011) rotate(85.3036) scale(25.4152)">
<stop stop-color="#F1F1F1"/>
<stop offset="1" stop-color="#FAFAFA"/>
</radialGradient>
<radialGradient id="paint10_radial_596_994" cx="0" cy="0" r="1" gradientUnits="userSpaceOnUse" gradientTransform="translate(1379.03 255.011) rotate(85.3036) scale(25.4152)">
<stop stop-color="#F1F1F1"/>
<stop offset="1" stop-color="#FAFAFA"/>
</radialGradient>
<radialGradient id="paint11_radial_596_994" cx="0" cy="0" r="1" gradientUnits="userSpaceOnUse" gradientTransform="translate(1428.43 255.011) rotate(85.3036) scale(25.4152)">
<stop stop-color="#F1F1F1"/>
<stop offset="1" stop-color="#FAFAFA"/>
</radialGradient>
<radialGradient id="paint12_radial_596_994" cx="0" cy="0" r="1" gradientUnits="userSpaceOnUse" gradientTransform="translate(1477.81 255.011) rotate(85.3036) scale(25.4152)">
<stop stop-color="#F1F1F1"/>
<stop offset="1" stop-color="#FAFAFA"/>
</radialGradient>
<radialGradient id="paint13_radial_596_994" cx="0" cy="0" r="1" gradientUnits="userSpaceOnUse" gradientTransform="translate(1527.2 255.011) rotate(85.3036) scale(25.4152)">
<stop stop-color="#F1F1F1"/>
<stop offset="1" stop-color="#FAFAFA"/>
</radialGradient>
<radialGradient id="paint14_radial_596_994" cx="0" cy="0" r="1" gradientUnits="userSpaceOnUse" gradientTransform="translate(1576.59 255.011) rotate(85.3036) scale(25.4152)">
<stop stop-color="#F1F1F1"/>
<stop offset="1" stop-color="#FAFAFA"/>
</radialGradient>
<radialGradient id="paint15_radial_596_994" cx="0" cy="0" r="1" gradientUnits="userSpaceOnUse" gradientTransform="translate(1625.97 255.011) rotate(85.3036) scale(25.4152)">
<stop stop-color="#F1F1F1"/>
<stop offset="1" stop-color="#FAFAFA"/>
</radialGradient>
<radialGradient id="paint16_radial_596_994" cx="0" cy="0" r="1" gradientUnits="userSpaceOnUse" gradientTransform="translate(1280.26 356.009) rotate(85.3036) scale(25.4152)">
<stop stop-color="#F1F1F1"/>
<stop offset="1" stop-color="#FAFAFA"/>
</radialGradient>
<radialGradient id="paint17_radial_596_994" cx="0" cy="0" r="1" gradientUnits="userSpaceOnUse" gradientTransform="translate(1329.65 356.008) rotate(85.3036) scale(25.4152)">
<stop stop-color="#F1F1F1"/>
<stop offset="1" stop-color="#FAFAFA"/>
</radialGradient>
<radialGradient id="paint18_radial_596_994" cx="0" cy="0" r="1" gradientUnits="userSpaceOnUse" gradientTransform="translate(1379.03 356.008) rotate(85.3036) scale(25.4152)">
<stop stop-color="#F1F1F1"/>
<stop offset="1" stop-color="#FAFAFA"/>
</radialGradient>
<radialGradient id="paint19_radial_596_994" cx="0" cy="0" r="1" gradientUnits="userSpaceOnUse" gradientTransform="translate(1428.43 356.009) rotate(85.3036) scale(25.4152)">
<stop stop-color="#F1F1F1"/>
<stop offset="1" stop-color="#FAFAFA"/>
</radialGradient>
<radialGradient id="paint20_radial_596_994" cx="0" cy="0" r="1" gradientUnits="userSpaceOnUse" gradientTransform="translate(1477.81 356.008) rotate(85.3036) scale(25.4152)">
<stop stop-color="#F1F1F1"/>
<stop offset="1" stop-color="#FAFAFA"/>
</radialGradient>
<radialGradient id="paint21_radial_596_994" cx="0" cy="0" r="1" gradientUnits="userSpaceOnUse" gradientTransform="translate(1527.2 356.008) rotate(85.3036) scale(25.4152)">
<stop stop-color="#F1F1F1"/>
<stop offset="1" stop-color="#FAFAFA"/>
</radialGradient>
<radialGradient id="paint22_radial_596_994" cx="0" cy="0" r="1" gradientUnits="userSpaceOnUse" gradientTransform="translate(1576.59 356.008) rotate(85.3036) scale(25.4152)">
<stop stop-color="#F1F1F1"/>
<stop offset="1" stop-color="#FAFAFA"/>
</radialGradient>
<radialGradient id="paint23_radial_596_994" cx="0" cy="0" r="1" gradientUnits="userSpaceOnUse" gradientTransform="translate(1625.97 356.008) rotate(85.3036) scale(25.4152)">
<stop stop-color="#F1F1F1"/>
<stop offset="1" stop-color="#FAFAFA"/>
</radialGradient>
<radialGradient id="paint24_radial_596_994" cx="0" cy="0" r="1" gradientUnits="userSpaceOnUse" gradientTransform="translate(1280.26 204.512) rotate(85.3036) scale(25.4152)">
<stop stop-color="#F1F1F1"/>
<stop offset="1" stop-color="#FAFAFA"/>
</radialGradient>
<radialGradient id="paint25_radial_596_994" cx="0" cy="0" r="1" gradientUnits="userSpaceOnUse" gradientTransform="translate(1329.65 204.511) rotate(85.3036) scale(25.4152)">
<stop stop-color="#F1F1F1"/>
<stop offset="1" stop-color="#FAFAFA"/>
</radialGradient>
<radialGradient id="paint26_radial_596_994" cx="0" cy="0" r="1" gradientUnits="userSpaceOnUse" gradientTransform="translate(1379.03 204.511) rotate(85.3036) scale(25.4152)">
<stop stop-color="#F1F1F1"/>
<stop offset="1" stop-color="#FAFAFA"/>
</radialGradient>
<radialGradient id="paint27_radial_596_994" cx="0" cy="0" r="1" gradientUnits="userSpaceOnUse" gradientTransform="translate(1428.43 204.511) rotate(85.3036) scale(25.4152)">
<stop stop-color="#F1F1F1"/>
<stop offset="1" stop-color="#FAFAFA"/>
</radialGradient>
<radialGradient id="paint28_radial_596_994" cx="0" cy="0" r="1" gradientUnits="userSpaceOnUse" gradientTransform="translate(1477.81 204.511) rotate(85.3036) scale(25.4152)">
<stop stop-color="#F1F1F1"/>
<stop offset="1" stop-color="#FAFAFA"/>
</radialGradient>
<radialGradient id="paint29_radial_596_994" cx="0" cy="0" r="1" gradientUnits="userSpaceOnUse" gradientTransform="translate(1527.2 204.511) rotate(85.3036) scale(25.4152)">
<stop stop-color="#F1F1F1"/>
<stop offset="1" stop-color="#FAFAFA"/>
</radialGradient>
<radialGradient id="paint30_radial_596_994" cx="0" cy="0" r="1" gradientUnits="userSpaceOnUse" gradientTransform="translate(1576.59 204.511) rotate(85.3036) scale(25.4152)">
<stop stop-color="#F1F1F1"/>
<stop offset="1" stop-color="#FAFAFA"/>
</radialGradient>
<radialGradient id="paint31_radial_596_994" cx="0" cy="0" r="1" gradientUnits="userSpaceOnUse" gradientTransform="translate(1625.97 204.511) rotate(85.3036) scale(25.4152)">
<stop stop-color="#F1F1F1"/>
<stop offset="1" stop-color="#FAFAFA"/>
</radialGradient>
<radialGradient id="paint32_radial_596_994" cx="0" cy="0" r="1" gradientUnits="userSpaceOnUse" gradientTransform="translate(1280.26 305.51) rotate(85.3036) scale(25.4152)">
<stop stop-color="#F1F1F1"/>
<stop offset="1" stop-color="#FAFAFA"/>
</radialGradient>
<radialGradient id="paint33_radial_596_994" cx="0" cy="0" r="1" gradientUnits="userSpaceOnUse" gradientTransform="translate(1329.65 305.51) rotate(85.3036) scale(25.4152)">
<stop stop-color="#F1F1F1"/>
<stop offset="1" stop-color="#FAFAFA"/>
</radialGradient>
<radialGradient id="paint34_radial_596_994" cx="0" cy="0" r="1" gradientUnits="userSpaceOnUse" gradientTransform="translate(1379.03 305.51) rotate(85.3036) scale(25.4152)">
<stop stop-color="#F1F1F1"/>
<stop offset="1" stop-color="#FAFAFA"/>
</radialGradient>
<radialGradient id="paint35_radial_596_994" cx="0" cy="0" r="1" gradientUnits="userSpaceOnUse" gradientTransform="translate(1428.43 305.51) rotate(85.3036) scale(25.4152)">
<stop stop-color="#F1F1F1"/>
<stop offset="1" stop-color="#FAFAFA"/>
</radialGradient>
<radialGradient id="paint36_radial_596_994" cx="0" cy="0" r="1" gradientUnits="userSpaceOnUse" gradientTransform="translate(1477.81 305.51) rotate(85.3036) scale(25.4152)">
<stop stop-color="#F1F1F1"/>
<stop offset="1" stop-color="#FAFAFA"/>
</radialGradient>
<radialGradient id="paint37_radial_596_994" cx="0" cy="0" r="1" gradientUnits="userSpaceOnUse" gradientTransform="translate(1527.2 305.51) rotate(85.3036) scale(25.4152)">
<stop stop-color="#F1F1F1"/>
<stop offset="1" stop-color="#FAFAFA"/>
</radialGradient>
<radialGradient id="paint38_radial_596_994" cx="0" cy="0" r="1" gradientUnits="userSpaceOnUse" gradientTransform="translate(1576.59 305.51) rotate(85.3036) scale(25.4152)">
<stop stop-color="#F1F1F1"/>
<stop offset="1" stop-color="#FAFAFA"/>
</radialGradient>
<radialGradient id="paint39_radial_596_994" cx="0" cy="0" r="1" gradientUnits="userSpaceOnUse" gradientTransform="translate(1625.97 305.51) rotate(85.3036) scale(25.4152)">
<stop stop-color="#F1F1F1"/>
<stop offset="1" stop-color="#FAFAFA"/>
</radialGradient>
<radialGradient id="paint40_radial_596_994" cx="0" cy="0" r="1" gradientUnits="userSpaceOnUse" gradientTransform="translate(1280.26 406.508) rotate(85.3036) scale(25.4152)">
<stop stop-color="#F1F1F1"/>
<stop offset="1" stop-color="#FAFAFA"/>
</radialGradient>
<radialGradient id="paint41_radial_596_994" cx="0" cy="0" r="1" gradientUnits="userSpaceOnUse" gradientTransform="translate(1329.65 406.507) rotate(85.3036) scale(25.4152)">
<stop stop-color="#F1F1F1"/>
<stop offset="1" stop-color="#FAFAFA"/>
</radialGradient>
<radialGradient id="paint42_radial_596_994" cx="0" cy="0" r="1" gradientUnits="userSpaceOnUse" gradientTransform="translate(1379.03 406.507) rotate(85.3036) scale(25.4152)">
<stop stop-color="#F1F1F1"/>
<stop offset="1" stop-color="#FAFAFA"/>
</radialGradient>
<radialGradient id="paint43_radial_596_994" cx="0" cy="0" r="1" gradientUnits="userSpaceOnUse" gradientTransform="translate(1428.43 406.508) rotate(85.3036) scale(25.4152)">
<stop stop-color="#F1F1F1"/>
<stop offset="1" stop-color="#FAFAFA"/>
</radialGradient>
<radialGradient id="paint44_radial_596_994" cx="0" cy="0" r="1" gradientUnits="userSpaceOnUse" gradientTransform="translate(1477.81 406.507) rotate(85.3036) scale(25.4152)">
<stop stop-color="#F1F1F1"/>
<stop offset="1" stop-color="#FAFAFA"/>
</radialGradient>
<radialGradient id="paint45_radial_596_994" cx="0" cy="0" r="1" gradientUnits="userSpaceOnUse" gradientTransform="translate(1527.2 406.507) rotate(85.3036) scale(25.4152)">
<stop stop-color="#F1F1F1"/>
<stop offset="1" stop-color="#FAFAFA"/>
</radialGradient>
<radialGradient id="paint46_radial_596_994" cx="0" cy="0" r="1" gradientUnits="userSpaceOnUse" gradientTransform="translate(1576.59 406.507) rotate(85.3036) scale(25.4152)">
<stop stop-color="#F1F1F1"/>
<stop offset="1" stop-color="#FAFAFA"/>
</radialGradient>
<radialGradient id="paint47_radial_596_994" cx="0" cy="0" r="1" gradientUnits="userSpaceOnUse" gradientTransform="translate(1625.97 406.507) rotate(85.3036) scale(25.4152)">
<stop stop-color="#F1F1F1"/>
<stop offset="1" stop-color="#FAFAFA"/>
</radialGradient>
<radialGradient id="paint48_radial_596_994" cx="0" cy="0" r="1" gradientUnits="userSpaceOnUse" gradientTransform="translate(362.974 644.493) rotate(85.3036) scale(21.0333)">
<stop stop-color="#F1F1F1"/>
<stop offset="1" stop-color="#FAFAFA"/>
</radialGradient>
<radialGradient id="paint49_radial_596_994" cx="0" cy="0" r="1" gradientUnits="userSpaceOnUse" gradientTransform="translate(403.846 644.493) rotate(85.3036) scale(21.0333)">
<stop stop-color="#F1F1F1"/>
<stop offset="1" stop-color="#FAFAFA"/>
</radialGradient>
<radialGradient id="paint50_radial_596_994" cx="0" cy="0" r="1" gradientUnits="userSpaceOnUse" gradientTransform="translate(444.717 644.493) rotate(85.3036) scale(21.0333)">
<stop stop-color="#F1F1F1"/>
<stop offset="1" stop-color="#FAFAFA"/>
</radialGradient>
<radialGradient id="paint51_radial_596_994" cx="0" cy="0" r="1" gradientUnits="userSpaceOnUse" gradientTransform="translate(485.596 644.493) rotate(85.3036) scale(21.0333)">
<stop stop-color="#F1F1F1"/>
<stop offset="1" stop-color="#FAFAFA"/>
</radialGradient>
<radialGradient id="paint52_radial_596_994" cx="0" cy="0" r="1" gradientUnits="userSpaceOnUse" gradientTransform="translate(526.464 644.493) rotate(85.3036) scale(21.0333)">
<stop stop-color="#F1F1F1"/>
<stop offset="1" stop-color="#FAFAFA"/>
</radialGradient>
<radialGradient id="paint53_radial_596_994" cx="0" cy="0" r="1" gradientUnits="userSpaceOnUse" gradientTransform="translate(567.339 644.493) rotate(85.3036) scale(21.0333)">
<stop stop-color="#F1F1F1"/>
<stop offset="1" stop-color="#FAFAFA"/>
</radialGradient>
<radialGradient id="paint54_radial_596_994" cx="0" cy="0" r="1" gradientUnits="userSpaceOnUse" gradientTransform="translate(608.214 644.493) rotate(85.3036) scale(21.0333)">
<stop stop-color="#F1F1F1"/>
<stop offset="1" stop-color="#FAFAFA"/>
</radialGradient>
<radialGradient id="paint55_radial_596_994" cx="0" cy="0" r="1" gradientUnits="userSpaceOnUse" gradientTransform="translate(649.079 644.493) rotate(85.3036) scale(21.0333)">
<stop stop-color="#F1F1F1"/>
<stop offset="1" stop-color="#FAFAFA"/>
</radialGradient>
<radialGradient id="paint56_radial_596_994" cx="0" cy="0" r="1" gradientUnits="userSpaceOnUse" gradientTransform="translate(362.974 728.078) rotate(85.3036) scale(21.0333)">
<stop stop-color="#F1F1F1"/>
<stop offset="1" stop-color="#FAFAFA"/>
</radialGradient>
<radialGradient id="paint57_radial_596_994" cx="0" cy="0" r="1" gradientUnits="userSpaceOnUse" gradientTransform="translate(403.846 728.078) rotate(85.3036) scale(21.0333)">
<stop stop-color="#F1F1F1"/>
<stop offset="1" stop-color="#FAFAFA"/>
</radialGradient>
<radialGradient id="paint58_radial_596_994" cx="0" cy="0" r="1" gradientUnits="userSpaceOnUse" gradientTransform="translate(444.717 728.078) rotate(85.3036) scale(21.0333)">
<stop stop-color="#F1F1F1"/>
<stop offset="1" stop-color="#FAFAFA"/>
</radialGradient>
<radialGradient id="paint59_radial_596_994" cx="0" cy="0" r="1" gradientUnits="userSpaceOnUse" gradientTransform="translate(485.596 728.078) rotate(85.3036) scale(21.0333)">
<stop stop-color="#F1F1F1"/>
<stop offset="1" stop-color="#FAFAFA"/>
</radialGradient>
<radialGradient id="paint60_radial_596_994" cx="0" cy="0" r="1" gradientUnits="userSpaceOnUse" gradientTransform="translate(526.464 728.078) rotate(85.3036) scale(21.0333)">
<stop stop-color="#F1F1F1"/>
<stop offset="1" stop-color="#FAFAFA"/>
</radialGradient>
<radialGradient id="paint61_radial_596_994" cx="0" cy="0" r="1" gradientUnits="userSpaceOnUse" gradientTransform="translate(567.339 728.078) rotate(85.3036) scale(21.0333)">
<stop stop-color="#F1F1F1"/>
<stop offset="1" stop-color="#FAFAFA"/>
</radialGradient>
<radialGradient id="paint62_radial_596_994" cx="0" cy="0" r="1" gradientUnits="userSpaceOnUse" gradientTransform="translate(608.214 728.078) rotate(85.3036) scale(21.0333)">
<stop stop-color="#F1F1F1"/>
<stop offset="1" stop-color="#FAFAFA"/>
</radialGradient>
<radialGradient id="paint63_radial_596_994" cx="0" cy="0" r="1" gradientUnits="userSpaceOnUse" gradientTransform="translate(649.079 728.078) rotate(85.3036) scale(21.0333)">
<stop stop-color="#F1F1F1"/>
<stop offset="1" stop-color="#FAFAFA"/>
</radialGradient>
<radialGradient id="paint64_radial_596_994" cx="0" cy="0" r="1" gradientUnits="userSpaceOnUse" gradientTransform="translate(362.974 811.662) rotate(85.3036) scale(21.0333)">
<stop stop-color="#F1F1F1"/>
<stop offset="1" stop-color="#FAFAFA"/>
</radialGradient>
<radialGradient id="paint65_radial_596_994" cx="0" cy="0" r="1" gradientUnits="userSpaceOnUse" gradientTransform="translate(403.846 811.662) rotate(85.3036) scale(21.0333)">
<stop stop-color="#F1F1F1"/>
<stop offset="1" stop-color="#FAFAFA"/>
</radialGradient>
<radialGradient id="paint66_radial_596_994" cx="0" cy="0" r="1" gradientUnits="userSpaceOnUse" gradientTransform="translate(444.717 811.662) rotate(85.3036) scale(21.0333)">
<stop stop-color="#F1F1F1"/>
<stop offset="1" stop-color="#FAFAFA"/>
</radialGradient>
<radialGradient id="paint67_radial_596_994" cx="0" cy="0" r="1" gradientUnits="userSpaceOnUse" gradientTransform="translate(485.596 811.662) rotate(85.3036) scale(21.0333)">
<stop stop-color="#F1F1F1"/>
<stop offset="1" stop-color="#FAFAFA"/>
</radialGradient>
<radialGradient id="paint68_radial_596_994" cx="0" cy="0" r="1" gradientUnits="userSpaceOnUse" gradientTransform="translate(526.464 811.662) rotate(85.3036) scale(21.0333)">
<stop stop-color="#F1F1F1"/>
<stop offset="1" stop-color="#FAFAFA"/>
</radialGradient>
<radialGradient id="paint69_radial_596_994" cx="0" cy="0" r="1" gradientUnits="userSpaceOnUse" gradientTransform="translate(567.339 811.662) rotate(85.3036) scale(21.0333)">
<stop stop-color="#F1F1F1"/>
<stop offset="1" stop-color="#FAFAFA"/>
</radialGradient>
<radialGradient id="paint70_radial_596_994" cx="0" cy="0" r="1" gradientUnits="userSpaceOnUse" gradientTransform="translate(608.214 811.662) rotate(85.3036) scale(21.0333)">
<stop stop-color="#F1F1F1"/>
<stop offset="1" stop-color="#FAFAFA"/>
</radialGradient>
<radialGradient id="paint71_radial_596_994" cx="0" cy="0" r="1" gradientUnits="userSpaceOnUse" gradientTransform="translate(649.079 811.662) rotate(85.3036) scale(21.0333)">
<stop stop-color="#F1F1F1"/>
<stop offset="1" stop-color="#FAFAFA"/>
</radialGradient>
<radialGradient id="paint72_radial_596_994" cx="0" cy="0" r="1" gradientUnits="userSpaceOnUse" gradientTransform="translate(362.974 686.285) rotate(85.3036) scale(21.0333)">
<stop stop-color="#F1F1F1"/>
<stop offset="1" stop-color="#FAFAFA"/>
</radialGradient>
<radialGradient id="paint73_radial_596_994" cx="0" cy="0" r="1" gradientUnits="userSpaceOnUse" gradientTransform="translate(403.846 686.285) rotate(85.3036) scale(21.0333)">
<stop stop-color="#F1F1F1"/>
<stop offset="1" stop-color="#FAFAFA"/>
</radialGradient>
<radialGradient id="paint74_radial_596_994" cx="0" cy="0" r="1" gradientUnits="userSpaceOnUse" gradientTransform="translate(444.717 686.285) rotate(85.3036) scale(21.0333)">
<stop stop-color="#F1F1F1"/>
<stop offset="1" stop-color="#FAFAFA"/>
</radialGradient>
<radialGradient id="paint75_radial_596_994" cx="0" cy="0" r="1" gradientUnits="userSpaceOnUse" gradientTransform="translate(485.596 686.285) rotate(85.3036) scale(21.0333)">
<stop stop-color="#F1F1F1"/>
<stop offset="1" stop-color="#FAFAFA"/>
</radialGradient>
<radialGradient id="paint76_radial_596_994" cx="0" cy="0" r="1" gradientUnits="userSpaceOnUse" gradientTransform="translate(526.464 686.285) rotate(85.3036) scale(21.0333)">
<stop stop-color="#F1F1F1"/>
<stop offset="1" stop-color="#FAFAFA"/>
</radialGradient>
<radialGradient id="paint77_radial_596_994" cx="0" cy="0" r="1" gradientUnits="userSpaceOnUse" gradientTransform="translate(567.339 686.285) rotate(85.3036) scale(21.0333)">
<stop stop-color="#F1F1F1"/>
<stop offset="1" stop-color="#FAFAFA"/>
</radialGradient>
<radialGradient id="paint78_radial_596_994" cx="0" cy="0" r="1" gradientUnits="userSpaceOnUse" gradientTransform="translate(608.214 686.285) rotate(85.3036) scale(21.0333)">
<stop stop-color="#F1F1F1"/>
<stop offset="1" stop-color="#FAFAFA"/>
</radialGradient>
<radialGradient id="paint79_radial_596_994" cx="0" cy="0" r="1" gradientUnits="userSpaceOnUse" gradientTransform="translate(649.079 686.285) rotate(85.3036) scale(21.0333)">
<stop stop-color="#F1F1F1"/>
<stop offset="1" stop-color="#FAFAFA"/>
</radialGradient>
<radialGradient id="paint80_radial_596_994" cx="0" cy="0" r="1" gradientUnits="userSpaceOnUse" gradientTransform="translate(362.974 769.871) rotate(85.3036) scale(21.0333)">
<stop stop-color="#F1F1F1"/>
<stop offset="1" stop-color="#FAFAFA"/>
</radialGradient>
<radialGradient id="paint81_radial_596_994" cx="0" cy="0" r="1" gradientUnits="userSpaceOnUse" gradientTransform="translate(403.846 769.871) rotate(85.3036) scale(21.0333)">
<stop stop-color="#F1F1F1"/>
<stop offset="1" stop-color="#FAFAFA"/>
</radialGradient>
<radialGradient id="paint82_radial_596_994" cx="0" cy="0" r="1" gradientUnits="userSpaceOnUse" gradientTransform="translate(444.717 769.871) rotate(85.3036) scale(21.0333)">
<stop stop-color="#F1F1F1"/>
<stop offset="1" stop-color="#FAFAFA"/>
</radialGradient>
<radialGradient id="paint83_radial_596_994" cx="0" cy="0" r="1" gradientUnits="userSpaceOnUse" gradientTransform="translate(485.596 769.871) rotate(85.3036) scale(21.0333)">
<stop stop-color="#F1F1F1"/>
<stop offset="1" stop-color="#FAFAFA"/>
</radialGradient>
<radialGradient id="paint84_radial_596_994" cx="0" cy="0" r="1" gradientUnits="userSpaceOnUse" gradientTransform="translate(526.464 769.871) rotate(85.3036) scale(21.0333)">
<stop stop-color="#F1F1F1"/>
<stop offset="1" stop-color="#FAFAFA"/>
</radialGradient>
<radialGradient id="paint85_radial_596_994" cx="0" cy="0" r="1" gradientUnits="userSpaceOnUse" gradientTransform="translate(567.339 769.871) rotate(85.3036) scale(21.0333)">
<stop stop-color="#F1F1F1"/>
<stop offset="1" stop-color="#FAFAFA"/>
</radialGradient>
<radialGradient id="paint86_radial_596_994" cx="0" cy="0" r="1" gradientUnits="userSpaceOnUse" gradientTransform="translate(608.214 769.871) rotate(85.3036) scale(21.0333)">
<stop stop-color="#F1F1F1"/>
<stop offset="1" stop-color="#FAFAFA"/>
</radialGradient>
<radialGradient id="paint87_radial_596_994" cx="0" cy="0" r="1" gradientUnits="userSpaceOnUse" gradientTransform="translate(649.079 769.871) rotate(85.3036) scale(21.0333)">
<stop stop-color="#F1F1F1"/>
<stop offset="1" stop-color="#FAFAFA"/>
</radialGradient>
<radialGradient id="paint88_radial_596_994" cx="0" cy="0" r="1" gradientUnits="userSpaceOnUse" gradientTransform="translate(362.974 853.455) rotate(85.3036) scale(21.0333)">
<stop stop-color="#F1F1F1"/>
<stop offset="1" stop-color="#FAFAFA"/>
</radialGradient>
<radialGradient id="paint89_radial_596_994" cx="0" cy="0" r="1" gradientUnits="userSpaceOnUse" gradientTransform="translate(403.846 853.454) rotate(85.3036) scale(21.0333)">
<stop stop-color="#F1F1F1"/>
<stop offset="1" stop-color="#FAFAFA"/>
</radialGradient>
<radialGradient id="paint90_radial_596_994" cx="0" cy="0" r="1" gradientUnits="userSpaceOnUse" gradientTransform="translate(444.717 853.454) rotate(85.3036) scale(21.0333)">
<stop stop-color="#F1F1F1"/>
<stop offset="1" stop-color="#FAFAFA"/>
</radialGradient>
<radialGradient id="paint91_radial_596_994" cx="0" cy="0" r="1" gradientUnits="userSpaceOnUse" gradientTransform="translate(485.596 853.455) rotate(85.3036) scale(21.0333)">
<stop stop-color="#F1F1F1"/>
<stop offset="1" stop-color="#FAFAFA"/>
</radialGradient>
<radialGradient id="paint92_radial_596_994" cx="0" cy="0" r="1" gradientUnits="userSpaceOnUse" gradientTransform="translate(526.464 853.454) rotate(85.3036) scale(21.0333)">
<stop stop-color="#F1F1F1"/>
<stop offset="1" stop-color="#FAFAFA"/>
</radialGradient>
<radialGradient id="paint93_radial_596_994" cx="0" cy="0" r="1" gradientUnits="userSpaceOnUse" gradientTransform="translate(567.339 853.454) rotate(85.3036) scale(21.0333)">
<stop stop-color="#F1F1F1"/>
<stop offset="1" stop-color="#FAFAFA"/>
</radialGradient>
<radialGradient id="paint94_radial_596_994" cx="0" cy="0" r="1" gradientUnits="userSpaceOnUse" gradientTransform="translate(608.214 853.454) rotate(85.3036) scale(21.0333)">
<stop stop-color="#F1F1F1"/>
<stop offset="1" stop-color="#FAFAFA"/>
</radialGradient>
<radialGradient id="paint95_radial_596_994" cx="0" cy="0" r="1" gradientUnits="userSpaceOnUse" gradientTransform="translate(649.079 853.454) rotate(85.3036) scale(21.0333)">
<stop stop-color="#F1F1F1"/>
<stop offset="1" stop-color="#FAFAFA"/>
</radialGradient>
<radialGradient id="paint96_radial_596_994" cx="0" cy="0" r="1" gradientUnits="userSpaceOnUse" gradientTransform="translate(199.662 666.235) rotate(85.3036) scale(545.613)">
<stop stop-color="#DADADA"/>
<stop offset="1" stop-color="#FAFAFA"/>
</radialGradient>
</defs>
</svg>
