<svg width="1866" height="1044" viewBox="0 0 1866 1044" fill="none" xmlns="http://www.w3.org/2000/svg">
<path d="M1.18717e-05 385.414C-0.000161524 353.595 23.3751 326.608 54.8684 322.069L2285.55 0.500985L2285.55 669.5L72.8091 976.886C34.3312 982.231 0.00310133 952.342 0.00288963 913.495L1.18717e-05 385.414Z" fill="#F7F7F7"/>
<rect x="266.051" y="833.533" width="20.553" height="20.553" rx="4.60437" transform="rotate(-45 266.051 833.533)" fill="url(#paint0_radial_615_992)" fill-opacity="0.6"/>
<rect x="304.328" y="833.533" width="20.553" height="20.553" rx="4.60437" transform="rotate(-45 304.328 833.533)" fill="url(#paint1_radial_615_992)" fill-opacity="0.6"/>
<rect x="342.602" y="833.533" width="20.553" height="20.553" rx="4.60437" transform="rotate(-45 342.602 833.533)" fill="url(#paint2_radial_615_992)" fill-opacity="0.6"/>
<rect x="380.879" y="833.533" width="20.553" height="20.553" rx="4.60437" transform="rotate(-45 380.879 833.533)" fill="url(#paint3_radial_615_992)" fill-opacity="0.6"/>
<rect x="419.156" y="833.533" width="20.553" height="20.553" rx="4.60437" transform="rotate(-45 419.156 833.533)" fill="url(#paint4_radial_615_992)" fill-opacity="0.6"/>
<rect x="457.43" y="833.533" width="20.553" height="20.553" rx="4.60437" transform="rotate(-45 457.43 833.533)" fill="url(#paint5_radial_615_992)" fill-opacity="0.6"/>
<rect x="495.707" y="833.533" width="20.553" height="20.553" rx="4.60437" transform="rotate(-45 495.707 833.533)" fill="url(#paint6_radial_615_992)" fill-opacity="0.6"/>
<rect x="533.984" y="833.533" width="20.553" height="20.553" rx="4.60437" transform="rotate(-45 533.984 833.533)" fill="url(#paint7_radial_615_992)" fill-opacity="0.6"/>
<rect x="266.051" y="911.808" width="20.553" height="20.553" rx="4.60437" transform="rotate(-45 266.051 911.808)" fill="url(#paint8_radial_615_992)" fill-opacity="0.6"/>
<rect x="304.328" y="911.808" width="20.553" height="20.553" rx="4.60437" transform="rotate(-45 304.328 911.808)" fill="url(#paint9_radial_615_992)" fill-opacity="0.6"/>
<rect x="342.602" y="911.808" width="20.553" height="20.553" rx="4.60437" transform="rotate(-45 342.602 911.808)" fill="url(#paint10_radial_615_992)" fill-opacity="0.6"/>
<rect x="380.879" y="911.808" width="20.553" height="20.553" rx="4.60437" transform="rotate(-45 380.879 911.808)" fill="url(#paint11_radial_615_992)" fill-opacity="0.6"/>
<rect x="419.156" y="911.808" width="20.553" height="20.553" rx="4.60437" transform="rotate(-45 419.156 911.808)" fill="url(#paint12_radial_615_992)" fill-opacity="0.6"/>
<rect x="457.43" y="911.808" width="20.553" height="20.553" rx="4.60437" transform="rotate(-45 457.43 911.808)" fill="url(#paint13_radial_615_992)" fill-opacity="0.6"/>
<rect x="495.707" y="911.808" width="20.553" height="20.553" rx="4.60437" transform="rotate(-45 495.707 911.808)" fill="url(#paint14_radial_615_992)" fill-opacity="0.6"/>
<rect x="533.984" y="911.808" width="20.553" height="20.553" rx="4.60437" transform="rotate(-45 533.984 911.808)" fill="url(#paint15_radial_615_992)" fill-opacity="0.6"/>
<rect x="266.051" y="990.082" width="20.553" height="20.553" rx="4.60437" transform="rotate(-45 266.051 990.082)" fill="url(#paint16_radial_615_992)" fill-opacity="0.6"/>
<rect x="304.328" y="990.082" width="20.553" height="20.553" rx="4.60437" transform="rotate(-45 304.328 990.082)" fill="url(#paint17_radial_615_992)" fill-opacity="0.6"/>
<rect x="342.602" y="990.082" width="20.553" height="20.553" rx="4.60437" transform="rotate(-45 342.602 990.082)" fill="url(#paint18_radial_615_992)" fill-opacity="0.6"/>
<rect x="380.879" y="990.082" width="20.553" height="20.553" rx="4.60437" transform="rotate(-45 380.879 990.082)" fill="url(#paint19_radial_615_992)" fill-opacity="0.6"/>
<rect x="419.156" y="990.082" width="20.553" height="20.553" rx="4.60437" transform="rotate(-45 419.156 990.082)" fill="url(#paint20_radial_615_992)" fill-opacity="0.6"/>
<rect x="457.43" y="990.082" width="20.553" height="20.553" rx="4.60437" transform="rotate(-45 457.43 990.082)" fill="url(#paint21_radial_615_992)" fill-opacity="0.6"/>
<rect x="495.707" y="990.082" width="20.553" height="20.553" rx="4.60437" transform="rotate(-45 495.707 990.082)" fill="url(#paint22_radial_615_992)" fill-opacity="0.6"/>
<rect x="533.984" y="990.082" width="20.553" height="20.553" rx="4.60437" transform="rotate(-45 533.984 990.082)" fill="url(#paint23_radial_615_992)" fill-opacity="0.6"/>
<rect x="266.051" y="872.671" width="20.553" height="20.553" rx="4.60437" transform="rotate(-45 266.051 872.671)" fill="url(#paint24_radial_615_992)" fill-opacity="0.6"/>
<rect x="304.328" y="872.671" width="20.553" height="20.553" rx="4.60437" transform="rotate(-45 304.328 872.671)" fill="url(#paint25_radial_615_992)" fill-opacity="0.6"/>
<rect x="342.602" y="872.671" width="20.553" height="20.553" rx="4.60437" transform="rotate(-45 342.602 872.671)" fill="url(#paint26_radial_615_992)" fill-opacity="0.6"/>
<rect x="380.879" y="872.671" width="20.553" height="20.553" rx="4.60437" transform="rotate(-45 380.879 872.671)" fill="url(#paint27_radial_615_992)" fill-opacity="0.6"/>
<rect x="419.156" y="872.671" width="20.553" height="20.553" rx="4.60437" transform="rotate(-45 419.156 872.671)" fill="url(#paint28_radial_615_992)" fill-opacity="0.6"/>
<rect x="457.43" y="872.671" width="20.553" height="20.553" rx="4.60437" transform="rotate(-45 457.43 872.671)" fill="url(#paint29_radial_615_992)" fill-opacity="0.6"/>
<rect x="495.707" y="872.671" width="20.553" height="20.553" rx="4.60437" transform="rotate(-45 495.707 872.671)" fill="url(#paint30_radial_615_992)" fill-opacity="0.6"/>
<rect x="533.984" y="872.671" width="20.553" height="20.553" rx="4.60437" transform="rotate(-45 533.984 872.671)" fill="url(#paint31_radial_615_992)" fill-opacity="0.6"/>
<rect x="266.051" y="950.945" width="20.553" height="20.553" rx="4.60437" transform="rotate(-45 266.051 950.945)" fill="url(#paint32_radial_615_992)" fill-opacity="0.6"/>
<rect x="304.328" y="950.945" width="20.553" height="20.553" rx="4.60437" transform="rotate(-45 304.328 950.945)" fill="url(#paint33_radial_615_992)" fill-opacity="0.6"/>
<rect x="342.602" y="950.945" width="20.553" height="20.553" rx="4.60437" transform="rotate(-45 342.602 950.945)" fill="url(#paint34_radial_615_992)" fill-opacity="0.6"/>
<rect x="380.879" y="950.945" width="20.553" height="20.553" rx="4.60437" transform="rotate(-45 380.879 950.945)" fill="url(#paint35_radial_615_992)" fill-opacity="0.6"/>
<rect x="419.156" y="950.945" width="20.553" height="20.553" rx="4.60437" transform="rotate(-45 419.156 950.945)" fill="url(#paint36_radial_615_992)" fill-opacity="0.6"/>
<rect x="457.43" y="950.945" width="20.553" height="20.553" rx="4.60437" transform="rotate(-45 457.43 950.945)" fill="url(#paint37_radial_615_992)" fill-opacity="0.6"/>
<rect x="495.707" y="950.945" width="20.553" height="20.553" rx="4.60437" transform="rotate(-45 495.707 950.945)" fill="url(#paint38_radial_615_992)" fill-opacity="0.6"/>
<rect x="533.984" y="950.945" width="20.553" height="20.553" rx="4.60437" transform="rotate(-45 533.984 950.945)" fill="url(#paint39_radial_615_992)" fill-opacity="0.6"/>
<rect x="266.051" y="1029.22" width="20.553" height="20.553" rx="4.60437" transform="rotate(-45 266.051 1029.22)" fill="url(#paint40_radial_615_992)" fill-opacity="0.6"/>
<rect x="304.328" y="1029.22" width="20.553" height="20.553" rx="4.60437" transform="rotate(-45 304.328 1029.22)" fill="url(#paint41_radial_615_992)" fill-opacity="0.6"/>
<rect x="342.602" y="1029.22" width="20.553" height="20.553" rx="4.60437" transform="rotate(-45 342.602 1029.22)" fill="url(#paint42_radial_615_992)" fill-opacity="0.6"/>
<rect x="380.879" y="1029.22" width="20.553" height="20.553" rx="4.60437" transform="rotate(-45 380.879 1029.22)" fill="url(#paint43_radial_615_992)" fill-opacity="0.6"/>
<rect x="419.156" y="1029.22" width="20.553" height="20.553" rx="4.60437" transform="rotate(-45 419.156 1029.22)" fill="url(#paint44_radial_615_992)" fill-opacity="0.6"/>
<rect x="457.43" y="1029.22" width="20.553" height="20.553" rx="4.60437" transform="rotate(-45 457.43 1029.22)" fill="url(#paint45_radial_615_992)" fill-opacity="0.6"/>
<rect x="495.707" y="1029.22" width="20.553" height="20.553" rx="4.60437" transform="rotate(-45 495.707 1029.22)" fill="url(#paint46_radial_615_992)" fill-opacity="0.6"/>
<rect x="533.984" y="1029.22" width="20.553" height="20.553" rx="4.60437" transform="rotate(-45 533.984 1029.22)" fill="url(#paint47_radial_615_992)" fill-opacity="0.6"/>
<rect x="1374.05" y="669.415" width="17.5579" height="17.5579" rx="3.9334" transform="rotate(-45 1374.05 669.415)" fill="url(#paint48_radial_615_992)" fill-opacity="0.6"/>
<rect x="1406.75" y="669.415" width="17.5579" height="17.5579" rx="3.9334" transform="rotate(-45 1406.75 669.415)" fill="url(#paint49_radial_615_992)" fill-opacity="0.6"/>
<rect x="1439.45" y="669.415" width="17.5579" height="17.5579" rx="3.9334" transform="rotate(-45 1439.45 669.415)" fill="url(#paint50_radial_615_992)" fill-opacity="0.6"/>
<rect x="1472.14" y="669.415" width="17.5579" height="17.5579" rx="3.9334" transform="rotate(-45 1472.14 669.415)" fill="url(#paint51_radial_615_992)" fill-opacity="0.6"/>
<rect x="1504.85" y="669.415" width="17.5579" height="17.5579" rx="3.9334" transform="rotate(-45 1504.85 669.415)" fill="url(#paint52_radial_615_992)" fill-opacity="0.6"/>
<rect x="1537.54" y="669.415" width="17.5579" height="17.5579" rx="3.9334" transform="rotate(-45 1537.54 669.415)" fill="url(#paint53_radial_615_992)" fill-opacity="0.6"/>
<rect x="1570.24" y="669.415" width="17.5579" height="17.5579" rx="3.9334" transform="rotate(-45 1570.24 669.415)" fill="url(#paint54_radial_615_992)" fill-opacity="0.6"/>
<rect x="1602.94" y="669.415" width="17.5579" height="17.5579" rx="3.9334" transform="rotate(-45 1602.94 669.415)" fill="url(#paint55_radial_615_992)" fill-opacity="0.6"/>
<rect x="1374.05" y="736.283" width="17.5579" height="17.5579" rx="3.9334" transform="rotate(-45 1374.05 736.283)" fill="url(#paint56_radial_615_992)" fill-opacity="0.6"/>
<rect x="1406.75" y="736.283" width="17.5579" height="17.5579" rx="3.9334" transform="rotate(-45 1406.75 736.283)" fill="url(#paint57_radial_615_992)" fill-opacity="0.6"/>
<rect x="1439.45" y="736.283" width="17.5579" height="17.5579" rx="3.9334" transform="rotate(-45 1439.45 736.283)" fill="url(#paint58_radial_615_992)" fill-opacity="0.6"/>
<rect x="1472.14" y="736.283" width="17.5579" height="17.5579" rx="3.9334" transform="rotate(-45 1472.14 736.283)" fill="url(#paint59_radial_615_992)" fill-opacity="0.6"/>
<rect x="1504.85" y="736.283" width="17.5579" height="17.5579" rx="3.9334" transform="rotate(-45 1504.85 736.283)" fill="url(#paint60_radial_615_992)" fill-opacity="0.6"/>
<rect x="1537.54" y="736.283" width="17.5579" height="17.5579" rx="3.9334" transform="rotate(-45 1537.54 736.283)" fill="url(#paint61_radial_615_992)" fill-opacity="0.6"/>
<rect x="1570.24" y="736.283" width="17.5579" height="17.5579" rx="3.9334" transform="rotate(-45 1570.24 736.283)" fill="url(#paint62_radial_615_992)" fill-opacity="0.6"/>
<rect x="1602.94" y="736.283" width="17.5579" height="17.5579" rx="3.9334" transform="rotate(-45 1602.94 736.283)" fill="url(#paint63_radial_615_992)" fill-opacity="0.6"/>
<rect x="1374.05" y="803.151" width="17.5579" height="17.5579" rx="3.9334" transform="rotate(-45 1374.05 803.151)" fill="url(#paint64_radial_615_992)" fill-opacity="0.6"/>
<rect x="1406.75" y="803.151" width="17.5579" height="17.5579" rx="3.9334" transform="rotate(-45 1406.75 803.151)" fill="url(#paint65_radial_615_992)" fill-opacity="0.6"/>
<rect x="1439.45" y="803.151" width="17.5579" height="17.5579" rx="3.9334" transform="rotate(-45 1439.45 803.151)" fill="url(#paint66_radial_615_992)" fill-opacity="0.6"/>
<rect x="1472.14" y="803.151" width="17.5579" height="17.5579" rx="3.9334" transform="rotate(-45 1472.14 803.151)" fill="url(#paint67_radial_615_992)" fill-opacity="0.6"/>
<rect x="1504.85" y="803.151" width="17.5579" height="17.5579" rx="3.9334" transform="rotate(-45 1504.85 803.151)" fill="url(#paint68_radial_615_992)" fill-opacity="0.6"/>
<rect x="1537.54" y="803.151" width="17.5579" height="17.5579" rx="3.9334" transform="rotate(-45 1537.54 803.151)" fill="url(#paint69_radial_615_992)" fill-opacity="0.6"/>
<rect x="1570.24" y="803.151" width="17.5579" height="17.5579" rx="3.9334" transform="rotate(-45 1570.24 803.151)" fill="url(#paint70_radial_615_992)" fill-opacity="0.6"/>
<rect x="1602.94" y="803.151" width="17.5579" height="17.5579" rx="3.9334" transform="rotate(-45 1602.94 803.151)" fill="url(#paint71_radial_615_992)" fill-opacity="0.6"/>
<rect x="1374.05" y="702.849" width="17.5579" height="17.5579" rx="3.9334" transform="rotate(-45 1374.05 702.849)" fill="url(#paint72_radial_615_992)" fill-opacity="0.6"/>
<rect x="1406.75" y="702.849" width="17.5579" height="17.5579" rx="3.9334" transform="rotate(-45 1406.75 702.849)" fill="url(#paint73_radial_615_992)" fill-opacity="0.6"/>
<rect x="1439.45" y="702.849" width="17.5579" height="17.5579" rx="3.9334" transform="rotate(-45 1439.45 702.849)" fill="url(#paint74_radial_615_992)" fill-opacity="0.6"/>
<rect x="1472.14" y="702.849" width="17.5579" height="17.5579" rx="3.9334" transform="rotate(-45 1472.14 702.849)" fill="url(#paint75_radial_615_992)" fill-opacity="0.6"/>
<rect x="1504.85" y="702.849" width="17.5579" height="17.5579" rx="3.9334" transform="rotate(-45 1504.85 702.849)" fill="url(#paint76_radial_615_992)" fill-opacity="0.6"/>
<rect x="1537.54" y="702.849" width="17.5579" height="17.5579" rx="3.9334" transform="rotate(-45 1537.54 702.849)" fill="url(#paint77_radial_615_992)" fill-opacity="0.6"/>
<rect x="1570.24" y="702.849" width="17.5579" height="17.5579" rx="3.9334" transform="rotate(-45 1570.24 702.849)" fill="url(#paint78_radial_615_992)" fill-opacity="0.6"/>
<rect x="1602.94" y="702.849" width="17.5579" height="17.5579" rx="3.9334" transform="rotate(-45 1602.94 702.849)" fill="url(#paint79_radial_615_992)" fill-opacity="0.6"/>
<rect x="1374.05" y="769.717" width="17.5579" height="17.5579" rx="3.9334" transform="rotate(-45 1374.05 769.717)" fill="url(#paint80_radial_615_992)" fill-opacity="0.6"/>
<rect x="1406.75" y="769.717" width="17.5579" height="17.5579" rx="3.9334" transform="rotate(-45 1406.75 769.717)" fill="url(#paint81_radial_615_992)" fill-opacity="0.6"/>
<rect x="1439.45" y="769.717" width="17.5579" height="17.5579" rx="3.9334" transform="rotate(-45 1439.45 769.717)" fill="url(#paint82_radial_615_992)" fill-opacity="0.6"/>
<rect x="1472.14" y="769.717" width="17.5579" height="17.5579" rx="3.9334" transform="rotate(-45 1472.14 769.717)" fill="url(#paint83_radial_615_992)" fill-opacity="0.6"/>
<rect x="1504.85" y="769.717" width="17.5579" height="17.5579" rx="3.9334" transform="rotate(-45 1504.85 769.717)" fill="url(#paint84_radial_615_992)" fill-opacity="0.6"/>
<rect x="1537.54" y="769.717" width="17.5579" height="17.5579" rx="3.9334" transform="rotate(-45 1537.54 769.717)" fill="url(#paint85_radial_615_992)" fill-opacity="0.6"/>
<rect x="1570.24" y="769.717" width="17.5579" height="17.5579" rx="3.9334" transform="rotate(-45 1570.24 769.717)" fill="url(#paint86_radial_615_992)" fill-opacity="0.6"/>
<rect x="1602.94" y="769.717" width="17.5579" height="17.5579" rx="3.9334" transform="rotate(-45 1602.94 769.717)" fill="url(#paint87_radial_615_992)" fill-opacity="0.6"/>
<rect x="1374.05" y="836.585" width="17.5579" height="17.5579" rx="3.9334" transform="rotate(-45 1374.05 836.585)" fill="url(#paint88_radial_615_992)" fill-opacity="0.6"/>
<rect x="1406.75" y="836.585" width="17.5579" height="17.5579" rx="3.9334" transform="rotate(-45 1406.75 836.585)" fill="url(#paint89_radial_615_992)" fill-opacity="0.6"/>
<rect x="1439.45" y="836.585" width="17.5579" height="17.5579" rx="3.9334" transform="rotate(-45 1439.45 836.585)" fill="url(#paint90_radial_615_992)" fill-opacity="0.6"/>
<rect x="1472.14" y="836.585" width="17.5579" height="17.5579" rx="3.9334" transform="rotate(-45 1472.14 836.585)" fill="url(#paint91_radial_615_992)" fill-opacity="0.6"/>
<rect x="1504.85" y="836.585" width="17.5579" height="17.5579" rx="3.9334" transform="rotate(-45 1504.85 836.585)" fill="url(#paint92_radial_615_992)" fill-opacity="0.6"/>
<rect x="1537.54" y="836.585" width="17.5579" height="17.5579" rx="3.9334" transform="rotate(-45 1537.54 836.585)" fill="url(#paint93_radial_615_992)" fill-opacity="0.6"/>
<rect x="1570.24" y="836.585" width="17.5579" height="17.5579" rx="3.9334" transform="rotate(-45 1570.24 836.585)" fill="url(#paint94_radial_615_992)" fill-opacity="0.6"/>
<rect x="1602.94" y="836.585" width="17.5579" height="17.5579" rx="3.9334" transform="rotate(-45 1602.94 836.585)" fill="url(#paint95_radial_615_992)" fill-opacity="0.6"/>
<defs>
<radialGradient id="paint0_radial_615_992" cx="0" cy="0" r="1" gradientUnits="userSpaceOnUse" gradientTransform="translate(276.327 843.81) rotate(85.3036) scale(19.697)">
<stop stop-color="white"/>
<stop offset="1" stop-color="#FAFAFA"/>
</radialGradient>
<radialGradient id="paint1_radial_615_992" cx="0" cy="0" r="1" gradientUnits="userSpaceOnUse" gradientTransform="translate(314.605 843.81) rotate(85.3036) scale(19.697)">
<stop stop-color="white"/>
<stop offset="1" stop-color="#FAFAFA"/>
</radialGradient>
<radialGradient id="paint2_radial_615_992" cx="0" cy="0" r="1" gradientUnits="userSpaceOnUse" gradientTransform="translate(352.878 843.81) rotate(85.3036) scale(19.697)">
<stop stop-color="white"/>
<stop offset="1" stop-color="#FAFAFA"/>
</radialGradient>
<radialGradient id="paint3_radial_615_992" cx="0" cy="0" r="1" gradientUnits="userSpaceOnUse" gradientTransform="translate(391.155 843.81) rotate(85.3036) scale(19.697)">
<stop stop-color="white"/>
<stop offset="1" stop-color="#FAFAFA"/>
</radialGradient>
<radialGradient id="paint4_radial_615_992" cx="0" cy="0" r="1" gradientUnits="userSpaceOnUse" gradientTransform="translate(429.433 843.81) rotate(85.3036) scale(19.697)">
<stop stop-color="white"/>
<stop offset="1" stop-color="#FAFAFA"/>
</radialGradient>
<radialGradient id="paint5_radial_615_992" cx="0" cy="0" r="1" gradientUnits="userSpaceOnUse" gradientTransform="translate(467.706 843.81) rotate(85.3036) scale(19.697)">
<stop stop-color="white"/>
<stop offset="1" stop-color="#FAFAFA"/>
</radialGradient>
<radialGradient id="paint6_radial_615_992" cx="0" cy="0" r="1" gradientUnits="userSpaceOnUse" gradientTransform="translate(505.984 843.81) rotate(85.3036) scale(19.697)">
<stop stop-color="white"/>
<stop offset="1" stop-color="#FAFAFA"/>
</radialGradient>
<radialGradient id="paint7_radial_615_992" cx="0" cy="0" r="1" gradientUnits="userSpaceOnUse" gradientTransform="translate(544.261 843.81) rotate(85.3036) scale(19.697)">
<stop stop-color="white"/>
<stop offset="1" stop-color="#FAFAFA"/>
</radialGradient>
<radialGradient id="paint8_radial_615_992" cx="0" cy="0" r="1" gradientUnits="userSpaceOnUse" gradientTransform="translate(276.327 922.085) rotate(85.3036) scale(19.697)">
<stop stop-color="white"/>
<stop offset="1" stop-color="#FAFAFA"/>
</radialGradient>
<radialGradient id="paint9_radial_615_992" cx="0" cy="0" r="1" gradientUnits="userSpaceOnUse" gradientTransform="translate(314.605 922.085) rotate(85.3036) scale(19.697)">
<stop stop-color="white"/>
<stop offset="1" stop-color="#FAFAFA"/>
</radialGradient>
<radialGradient id="paint10_radial_615_992" cx="0" cy="0" r="1" gradientUnits="userSpaceOnUse" gradientTransform="translate(352.878 922.084) rotate(85.3036) scale(19.697)">
<stop stop-color="white"/>
<stop offset="1" stop-color="#FAFAFA"/>
</radialGradient>
<radialGradient id="paint11_radial_615_992" cx="0" cy="0" r="1" gradientUnits="userSpaceOnUse" gradientTransform="translate(391.155 922.085) rotate(85.3036) scale(19.697)">
<stop stop-color="white"/>
<stop offset="1" stop-color="#FAFAFA"/>
</radialGradient>
<radialGradient id="paint12_radial_615_992" cx="0" cy="0" r="1" gradientUnits="userSpaceOnUse" gradientTransform="translate(429.433 922.084) rotate(85.3036) scale(19.697)">
<stop stop-color="white"/>
<stop offset="1" stop-color="#FAFAFA"/>
</radialGradient>
<radialGradient id="paint13_radial_615_992" cx="0" cy="0" r="1" gradientUnits="userSpaceOnUse" gradientTransform="translate(467.706 922.085) rotate(85.3036) scale(19.697)">
<stop stop-color="white"/>
<stop offset="1" stop-color="#FAFAFA"/>
</radialGradient>
<radialGradient id="paint14_radial_615_992" cx="0" cy="0" r="1" gradientUnits="userSpaceOnUse" gradientTransform="translate(505.984 922.085) rotate(85.3036) scale(19.697)">
<stop stop-color="white"/>
<stop offset="1" stop-color="#FAFAFA"/>
</radialGradient>
<radialGradient id="paint15_radial_615_992" cx="0" cy="0" r="1" gradientUnits="userSpaceOnUse" gradientTransform="translate(544.261 922.085) rotate(85.3036) scale(19.697)">
<stop stop-color="white"/>
<stop offset="1" stop-color="#FAFAFA"/>
</radialGradient>
<radialGradient id="paint16_radial_615_992" cx="0" cy="0" r="1" gradientUnits="userSpaceOnUse" gradientTransform="translate(276.327 1000.36) rotate(85.3036) scale(19.697)">
<stop stop-color="white"/>
<stop offset="1" stop-color="#FAFAFA"/>
</radialGradient>
<radialGradient id="paint17_radial_615_992" cx="0" cy="0" r="1" gradientUnits="userSpaceOnUse" gradientTransform="translate(314.605 1000.36) rotate(85.3036) scale(19.697)">
<stop stop-color="white"/>
<stop offset="1" stop-color="#FAFAFA"/>
</radialGradient>
<radialGradient id="paint18_radial_615_992" cx="0" cy="0" r="1" gradientUnits="userSpaceOnUse" gradientTransform="translate(352.878 1000.36) rotate(85.3036) scale(19.697)">
<stop stop-color="white"/>
<stop offset="1" stop-color="#FAFAFA"/>
</radialGradient>
<radialGradient id="paint19_radial_615_992" cx="0" cy="0" r="1" gradientUnits="userSpaceOnUse" gradientTransform="translate(391.155 1000.36) rotate(85.3036) scale(19.697)">
<stop stop-color="white"/>
<stop offset="1" stop-color="#FAFAFA"/>
</radialGradient>
<radialGradient id="paint20_radial_615_992" cx="0" cy="0" r="1" gradientUnits="userSpaceOnUse" gradientTransform="translate(429.433 1000.36) rotate(85.3036) scale(19.697)">
<stop stop-color="white"/>
<stop offset="1" stop-color="#FAFAFA"/>
</radialGradient>
<radialGradient id="paint21_radial_615_992" cx="0" cy="0" r="1" gradientUnits="userSpaceOnUse" gradientTransform="translate(467.706 1000.36) rotate(85.3036) scale(19.697)">
<stop stop-color="white"/>
<stop offset="1" stop-color="#FAFAFA"/>
</radialGradient>
<radialGradient id="paint22_radial_615_992" cx="0" cy="0" r="1" gradientUnits="userSpaceOnUse" gradientTransform="translate(505.984 1000.36) rotate(85.3036) scale(19.697)">
<stop stop-color="white"/>
<stop offset="1" stop-color="#FAFAFA"/>
</radialGradient>
<radialGradient id="paint23_radial_615_992" cx="0" cy="0" r="1" gradientUnits="userSpaceOnUse" gradientTransform="translate(544.261 1000.36) rotate(85.3036) scale(19.697)">
<stop stop-color="white"/>
<stop offset="1" stop-color="#FAFAFA"/>
</radialGradient>
<radialGradient id="paint24_radial_615_992" cx="0" cy="0" r="1" gradientUnits="userSpaceOnUse" gradientTransform="translate(276.327 882.947) rotate(85.3036) scale(19.697)">
<stop stop-color="white"/>
<stop offset="1" stop-color="#FAFAFA"/>
</radialGradient>
<radialGradient id="paint25_radial_615_992" cx="0" cy="0" r="1" gradientUnits="userSpaceOnUse" gradientTransform="translate(314.605 882.947) rotate(85.3036) scale(19.697)">
<stop stop-color="white"/>
<stop offset="1" stop-color="#FAFAFA"/>
</radialGradient>
<radialGradient id="paint26_radial_615_992" cx="0" cy="0" r="1" gradientUnits="userSpaceOnUse" gradientTransform="translate(352.878 882.947) rotate(85.3036) scale(19.697)">
<stop stop-color="white"/>
<stop offset="1" stop-color="#FAFAFA"/>
</radialGradient>
<radialGradient id="paint27_radial_615_992" cx="0" cy="0" r="1" gradientUnits="userSpaceOnUse" gradientTransform="translate(391.155 882.947) rotate(85.3036) scale(19.697)">
<stop stop-color="white"/>
<stop offset="1" stop-color="#FAFAFA"/>
</radialGradient>
<radialGradient id="paint28_radial_615_992" cx="0" cy="0" r="1" gradientUnits="userSpaceOnUse" gradientTransform="translate(429.433 882.947) rotate(85.3036) scale(19.697)">
<stop stop-color="white"/>
<stop offset="1" stop-color="#FAFAFA"/>
</radialGradient>
<radialGradient id="paint29_radial_615_992" cx="0" cy="0" r="1" gradientUnits="userSpaceOnUse" gradientTransform="translate(467.706 882.947) rotate(85.3036) scale(19.697)">
<stop stop-color="white"/>
<stop offset="1" stop-color="#FAFAFA"/>
</radialGradient>
<radialGradient id="paint30_radial_615_992" cx="0" cy="0" r="1" gradientUnits="userSpaceOnUse" gradientTransform="translate(505.984 882.947) rotate(85.3036) scale(19.697)">
<stop stop-color="white"/>
<stop offset="1" stop-color="#FAFAFA"/>
</radialGradient>
<radialGradient id="paint31_radial_615_992" cx="0" cy="0" r="1" gradientUnits="userSpaceOnUse" gradientTransform="translate(544.261 882.947) rotate(85.3036) scale(19.697)">
<stop stop-color="white"/>
<stop offset="1" stop-color="#FAFAFA"/>
</radialGradient>
<radialGradient id="paint32_radial_615_992" cx="0" cy="0" r="1" gradientUnits="userSpaceOnUse" gradientTransform="translate(276.327 961.222) rotate(85.3036) scale(19.697)">
<stop stop-color="white"/>
<stop offset="1" stop-color="#FAFAFA"/>
</radialGradient>
<radialGradient id="paint33_radial_615_992" cx="0" cy="0" r="1" gradientUnits="userSpaceOnUse" gradientTransform="translate(314.605 961.222) rotate(85.3036) scale(19.697)">
<stop stop-color="white"/>
<stop offset="1" stop-color="#FAFAFA"/>
</radialGradient>
<radialGradient id="paint34_radial_615_992" cx="0" cy="0" r="1" gradientUnits="userSpaceOnUse" gradientTransform="translate(352.878 961.222) rotate(85.3036) scale(19.697)">
<stop stop-color="white"/>
<stop offset="1" stop-color="#FAFAFA"/>
</radialGradient>
<radialGradient id="paint35_radial_615_992" cx="0" cy="0" r="1" gradientUnits="userSpaceOnUse" gradientTransform="translate(391.155 961.222) rotate(85.3036) scale(19.697)">
<stop stop-color="white"/>
<stop offset="1" stop-color="#FAFAFA"/>
</radialGradient>
<radialGradient id="paint36_radial_615_992" cx="0" cy="0" r="1" gradientUnits="userSpaceOnUse" gradientTransform="translate(429.433 961.222) rotate(85.3036) scale(19.697)">
<stop stop-color="white"/>
<stop offset="1" stop-color="#FAFAFA"/>
</radialGradient>
<radialGradient id="paint37_radial_615_992" cx="0" cy="0" r="1" gradientUnits="userSpaceOnUse" gradientTransform="translate(467.706 961.222) rotate(85.3036) scale(19.697)">
<stop stop-color="white"/>
<stop offset="1" stop-color="#FAFAFA"/>
</radialGradient>
<radialGradient id="paint38_radial_615_992" cx="0" cy="0" r="1" gradientUnits="userSpaceOnUse" gradientTransform="translate(505.984 961.222) rotate(85.3036) scale(19.697)">
<stop stop-color="white"/>
<stop offset="1" stop-color="#FAFAFA"/>
</radialGradient>
<radialGradient id="paint39_radial_615_992" cx="0" cy="0" r="1" gradientUnits="userSpaceOnUse" gradientTransform="translate(544.261 961.222) rotate(85.3036) scale(19.697)">
<stop stop-color="white"/>
<stop offset="1" stop-color="#FAFAFA"/>
</radialGradient>
<radialGradient id="paint40_radial_615_992" cx="0" cy="0" r="1" gradientUnits="userSpaceOnUse" gradientTransform="translate(276.327 1039.5) rotate(85.3036) scale(19.697)">
<stop stop-color="white"/>
<stop offset="1" stop-color="#FAFAFA"/>
</radialGradient>
<radialGradient id="paint41_radial_615_992" cx="0" cy="0" r="1" gradientUnits="userSpaceOnUse" gradientTransform="translate(314.605 1039.5) rotate(85.3036) scale(19.697)">
<stop stop-color="white"/>
<stop offset="1" stop-color="#FAFAFA"/>
</radialGradient>
<radialGradient id="paint42_radial_615_992" cx="0" cy="0" r="1" gradientUnits="userSpaceOnUse" gradientTransform="translate(352.878 1039.5) rotate(85.3036) scale(19.697)">
<stop stop-color="white"/>
<stop offset="1" stop-color="#FAFAFA"/>
</radialGradient>
<radialGradient id="paint43_radial_615_992" cx="0" cy="0" r="1" gradientUnits="userSpaceOnUse" gradientTransform="translate(391.155 1039.5) rotate(85.3036) scale(19.697)">
<stop stop-color="white"/>
<stop offset="1" stop-color="#FAFAFA"/>
</radialGradient>
<radialGradient id="paint44_radial_615_992" cx="0" cy="0" r="1" gradientUnits="userSpaceOnUse" gradientTransform="translate(429.433 1039.5) rotate(85.3036) scale(19.697)">
<stop stop-color="white"/>
<stop offset="1" stop-color="#FAFAFA"/>
</radialGradient>
<radialGradient id="paint45_radial_615_992" cx="0" cy="0" r="1" gradientUnits="userSpaceOnUse" gradientTransform="translate(467.706 1039.5) rotate(85.3036) scale(19.697)">
<stop stop-color="white"/>
<stop offset="1" stop-color="#FAFAFA"/>
</radialGradient>
<radialGradient id="paint46_radial_615_992" cx="0" cy="0" r="1" gradientUnits="userSpaceOnUse" gradientTransform="translate(505.984 1039.5) rotate(85.3036) scale(19.697)">
<stop stop-color="white"/>
<stop offset="1" stop-color="#FAFAFA"/>
</radialGradient>
<radialGradient id="paint47_radial_615_992" cx="0" cy="0" r="1" gradientUnits="userSpaceOnUse" gradientTransform="translate(544.261 1039.5) rotate(85.3036) scale(19.697)">
<stop stop-color="white"/>
<stop offset="1" stop-color="#FAFAFA"/>
</radialGradient>
<radialGradient id="paint48_radial_615_992" cx="0" cy="0" r="1" gradientUnits="userSpaceOnUse" gradientTransform="translate(1382.83 678.194) rotate(85.3036) scale(16.8266)">
<stop stop-color="white"/>
<stop offset="1" stop-color="#FAFAFA"/>
</radialGradient>
<radialGradient id="paint49_radial_615_992" cx="0" cy="0" r="1" gradientUnits="userSpaceOnUse" gradientTransform="translate(1415.53 678.194) rotate(85.3036) scale(16.8266)">
<stop stop-color="white"/>
<stop offset="1" stop-color="#FAFAFA"/>
</radialGradient>
<radialGradient id="paint50_radial_615_992" cx="0" cy="0" r="1" gradientUnits="userSpaceOnUse" gradientTransform="translate(1448.23 678.194) rotate(85.3036) scale(16.8266)">
<stop stop-color="white"/>
<stop offset="1" stop-color="#FAFAFA"/>
</radialGradient>
<radialGradient id="paint51_radial_615_992" cx="0" cy="0" r="1" gradientUnits="userSpaceOnUse" gradientTransform="translate(1480.92 678.194) rotate(85.3036) scale(16.8266)">
<stop stop-color="white"/>
<stop offset="1" stop-color="#FAFAFA"/>
</radialGradient>
<radialGradient id="paint52_radial_615_992" cx="0" cy="0" r="1" gradientUnits="userSpaceOnUse" gradientTransform="translate(1513.63 678.194) rotate(85.3036) scale(16.8266)">
<stop stop-color="white"/>
<stop offset="1" stop-color="#FAFAFA"/>
</radialGradient>
<radialGradient id="paint53_radial_615_992" cx="0" cy="0" r="1" gradientUnits="userSpaceOnUse" gradientTransform="translate(1546.32 678.194) rotate(85.3036) scale(16.8266)">
<stop stop-color="white"/>
<stop offset="1" stop-color="#FAFAFA"/>
</radialGradient>
<radialGradient id="paint54_radial_615_992" cx="0" cy="0" r="1" gradientUnits="userSpaceOnUse" gradientTransform="translate(1579.02 678.194) rotate(85.3036) scale(16.8266)">
<stop stop-color="white"/>
<stop offset="1" stop-color="#FAFAFA"/>
</radialGradient>
<radialGradient id="paint55_radial_615_992" cx="0" cy="0" r="1" gradientUnits="userSpaceOnUse" gradientTransform="translate(1611.72 678.194) rotate(85.3036) scale(16.8266)">
<stop stop-color="white"/>
<stop offset="1" stop-color="#FAFAFA"/>
</radialGradient>
<radialGradient id="paint56_radial_615_992" cx="0" cy="0" r="1" gradientUnits="userSpaceOnUse" gradientTransform="translate(1382.83 745.062) rotate(85.3036) scale(16.8266)">
<stop stop-color="white"/>
<stop offset="1" stop-color="#FAFAFA"/>
</radialGradient>
<radialGradient id="paint57_radial_615_992" cx="0" cy="0" r="1" gradientUnits="userSpaceOnUse" gradientTransform="translate(1415.53 745.062) rotate(85.3036) scale(16.8266)">
<stop stop-color="white"/>
<stop offset="1" stop-color="#FAFAFA"/>
</radialGradient>
<radialGradient id="paint58_radial_615_992" cx="0" cy="0" r="1" gradientUnits="userSpaceOnUse" gradientTransform="translate(1448.23 745.062) rotate(85.3036) scale(16.8266)">
<stop stop-color="white"/>
<stop offset="1" stop-color="#FAFAFA"/>
</radialGradient>
<radialGradient id="paint59_radial_615_992" cx="0" cy="0" r="1" gradientUnits="userSpaceOnUse" gradientTransform="translate(1480.92 745.062) rotate(85.3036) scale(16.8266)">
<stop stop-color="white"/>
<stop offset="1" stop-color="#FAFAFA"/>
</radialGradient>
<radialGradient id="paint60_radial_615_992" cx="0" cy="0" r="1" gradientUnits="userSpaceOnUse" gradientTransform="translate(1513.63 745.062) rotate(85.3036) scale(16.8266)">
<stop stop-color="white"/>
<stop offset="1" stop-color="#FAFAFA"/>
</radialGradient>
<radialGradient id="paint61_radial_615_992" cx="0" cy="0" r="1" gradientUnits="userSpaceOnUse" gradientTransform="translate(1546.32 745.062) rotate(85.3036) scale(16.8266)">
<stop stop-color="white"/>
<stop offset="1" stop-color="#FAFAFA"/>
</radialGradient>
<radialGradient id="paint62_radial_615_992" cx="0" cy="0" r="1" gradientUnits="userSpaceOnUse" gradientTransform="translate(1579.02 745.062) rotate(85.3036) scale(16.8266)">
<stop stop-color="white"/>
<stop offset="1" stop-color="#FAFAFA"/>
</radialGradient>
<radialGradient id="paint63_radial_615_992" cx="0" cy="0" r="1" gradientUnits="userSpaceOnUse" gradientTransform="translate(1611.72 745.062) rotate(85.3036) scale(16.8266)">
<stop stop-color="white"/>
<stop offset="1" stop-color="#FAFAFA"/>
</radialGradient>
<radialGradient id="paint64_radial_615_992" cx="0" cy="0" r="1" gradientUnits="userSpaceOnUse" gradientTransform="translate(1382.83 811.93) rotate(85.3036) scale(16.8266)">
<stop stop-color="white"/>
<stop offset="1" stop-color="#FAFAFA"/>
</radialGradient>
<radialGradient id="paint65_radial_615_992" cx="0" cy="0" r="1" gradientUnits="userSpaceOnUse" gradientTransform="translate(1415.53 811.93) rotate(85.3036) scale(16.8266)">
<stop stop-color="white"/>
<stop offset="1" stop-color="#FAFAFA"/>
</radialGradient>
<radialGradient id="paint66_radial_615_992" cx="0" cy="0" r="1" gradientUnits="userSpaceOnUse" gradientTransform="translate(1448.23 811.93) rotate(85.3036) scale(16.8266)">
<stop stop-color="white"/>
<stop offset="1" stop-color="#FAFAFA"/>
</radialGradient>
<radialGradient id="paint67_radial_615_992" cx="0" cy="0" r="1" gradientUnits="userSpaceOnUse" gradientTransform="translate(1480.92 811.93) rotate(85.3036) scale(16.8266)">
<stop stop-color="white"/>
<stop offset="1" stop-color="#FAFAFA"/>
</radialGradient>
<radialGradient id="paint68_radial_615_992" cx="0" cy="0" r="1" gradientUnits="userSpaceOnUse" gradientTransform="translate(1513.63 811.93) rotate(85.3036) scale(16.8266)">
<stop stop-color="white"/>
<stop offset="1" stop-color="#FAFAFA"/>
</radialGradient>
<radialGradient id="paint69_radial_615_992" cx="0" cy="0" r="1" gradientUnits="userSpaceOnUse" gradientTransform="translate(1546.32 811.93) rotate(85.3036) scale(16.8266)">
<stop stop-color="white"/>
<stop offset="1" stop-color="#FAFAFA"/>
</radialGradient>
<radialGradient id="paint70_radial_615_992" cx="0" cy="0" r="1" gradientUnits="userSpaceOnUse" gradientTransform="translate(1579.02 811.93) rotate(85.3036) scale(16.8266)">
<stop stop-color="white"/>
<stop offset="1" stop-color="#FAFAFA"/>
</radialGradient>
<radialGradient id="paint71_radial_615_992" cx="0" cy="0" r="1" gradientUnits="userSpaceOnUse" gradientTransform="translate(1611.72 811.93) rotate(85.3036) scale(16.8266)">
<stop stop-color="white"/>
<stop offset="1" stop-color="#FAFAFA"/>
</radialGradient>
<radialGradient id="paint72_radial_615_992" cx="0" cy="0" r="1" gradientUnits="userSpaceOnUse" gradientTransform="translate(1382.83 711.628) rotate(85.3036) scale(16.8266)">
<stop stop-color="white"/>
<stop offset="1" stop-color="#FAFAFA"/>
</radialGradient>
<radialGradient id="paint73_radial_615_992" cx="0" cy="0" r="1" gradientUnits="userSpaceOnUse" gradientTransform="translate(1415.53 711.628) rotate(85.3036) scale(16.8266)">
<stop stop-color="white"/>
<stop offset="1" stop-color="#FAFAFA"/>
</radialGradient>
<radialGradient id="paint74_radial_615_992" cx="0" cy="0" r="1" gradientUnits="userSpaceOnUse" gradientTransform="translate(1448.23 711.628) rotate(85.3036) scale(16.8266)">
<stop stop-color="white"/>
<stop offset="1" stop-color="#FAFAFA"/>
</radialGradient>
<radialGradient id="paint75_radial_615_992" cx="0" cy="0" r="1" gradientUnits="userSpaceOnUse" gradientTransform="translate(1480.92 711.628) rotate(85.3036) scale(16.8266)">
<stop stop-color="white"/>
<stop offset="1" stop-color="#FAFAFA"/>
</radialGradient>
<radialGradient id="paint76_radial_615_992" cx="0" cy="0" r="1" gradientUnits="userSpaceOnUse" gradientTransform="translate(1513.63 711.628) rotate(85.3036) scale(16.8266)">
<stop stop-color="white"/>
<stop offset="1" stop-color="#FAFAFA"/>
</radialGradient>
<radialGradient id="paint77_radial_615_992" cx="0" cy="0" r="1" gradientUnits="userSpaceOnUse" gradientTransform="translate(1546.32 711.628) rotate(85.3036) scale(16.8266)">
<stop stop-color="white"/>
<stop offset="1" stop-color="#FAFAFA"/>
</radialGradient>
<radialGradient id="paint78_radial_615_992" cx="0" cy="0" r="1" gradientUnits="userSpaceOnUse" gradientTransform="translate(1579.02 711.628) rotate(85.3036) scale(16.8266)">
<stop stop-color="white"/>
<stop offset="1" stop-color="#FAFAFA"/>
</radialGradient>
<radialGradient id="paint79_radial_615_992" cx="0" cy="0" r="1" gradientUnits="userSpaceOnUse" gradientTransform="translate(1611.72 711.628) rotate(85.3036) scale(16.8266)">
<stop stop-color="white"/>
<stop offset="1" stop-color="#FAFAFA"/>
</radialGradient>
<radialGradient id="paint80_radial_615_992" cx="0" cy="0" r="1" gradientUnits="userSpaceOnUse" gradientTransform="translate(1382.83 778.496) rotate(85.3036) scale(16.8266)">
<stop stop-color="white"/>
<stop offset="1" stop-color="#FAFAFA"/>
</radialGradient>
<radialGradient id="paint81_radial_615_992" cx="0" cy="0" r="1" gradientUnits="userSpaceOnUse" gradientTransform="translate(1415.53 778.496) rotate(85.3036) scale(16.8266)">
<stop stop-color="white"/>
<stop offset="1" stop-color="#FAFAFA"/>
</radialGradient>
<radialGradient id="paint82_radial_615_992" cx="0" cy="0" r="1" gradientUnits="userSpaceOnUse" gradientTransform="translate(1448.23 778.496) rotate(85.3036) scale(16.8266)">
<stop stop-color="white"/>
<stop offset="1" stop-color="#FAFAFA"/>
</radialGradient>
<radialGradient id="paint83_radial_615_992" cx="0" cy="0" r="1" gradientUnits="userSpaceOnUse" gradientTransform="translate(1480.92 778.496) rotate(85.3036) scale(16.8266)">
<stop stop-color="white"/>
<stop offset="1" stop-color="#FAFAFA"/>
</radialGradient>
<radialGradient id="paint84_radial_615_992" cx="0" cy="0" r="1" gradientUnits="userSpaceOnUse" gradientTransform="translate(1513.63 778.496) rotate(85.3036) scale(16.8266)">
<stop stop-color="white"/>
<stop offset="1" stop-color="#FAFAFA"/>
</radialGradient>
<radialGradient id="paint85_radial_615_992" cx="0" cy="0" r="1" gradientUnits="userSpaceOnUse" gradientTransform="translate(1546.32 778.496) rotate(85.3036) scale(16.8266)">
<stop stop-color="white"/>
<stop offset="1" stop-color="#FAFAFA"/>
</radialGradient>
<radialGradient id="paint86_radial_615_992" cx="0" cy="0" r="1" gradientUnits="userSpaceOnUse" gradientTransform="translate(1579.02 778.496) rotate(85.3036) scale(16.8266)">
<stop stop-color="white"/>
<stop offset="1" stop-color="#FAFAFA"/>
</radialGradient>
<radialGradient id="paint87_radial_615_992" cx="0" cy="0" r="1" gradientUnits="userSpaceOnUse" gradientTransform="translate(1611.72 778.496) rotate(85.3036) scale(16.8266)">
<stop stop-color="white"/>
<stop offset="1" stop-color="#FAFAFA"/>
</radialGradient>
<radialGradient id="paint88_radial_615_992" cx="0" cy="0" r="1" gradientUnits="userSpaceOnUse" gradientTransform="translate(1382.83 845.364) rotate(85.3036) scale(16.8266)">
<stop stop-color="white"/>
<stop offset="1" stop-color="#FAFAFA"/>
</radialGradient>
<radialGradient id="paint89_radial_615_992" cx="0" cy="0" r="1" gradientUnits="userSpaceOnUse" gradientTransform="translate(1415.53 845.364) rotate(85.3036) scale(16.8266)">
<stop stop-color="white"/>
<stop offset="1" stop-color="#FAFAFA"/>
</radialGradient>
<radialGradient id="paint90_radial_615_992" cx="0" cy="0" r="1" gradientUnits="userSpaceOnUse" gradientTransform="translate(1448.23 845.364) rotate(85.3036) scale(16.8266)">
<stop stop-color="white"/>
<stop offset="1" stop-color="#FAFAFA"/>
</radialGradient>
<radialGradient id="paint91_radial_615_992" cx="0" cy="0" r="1" gradientUnits="userSpaceOnUse" gradientTransform="translate(1480.92 845.364) rotate(85.3036) scale(16.8266)">
<stop stop-color="white"/>
<stop offset="1" stop-color="#FAFAFA"/>
</radialGradient>
<radialGradient id="paint92_radial_615_992" cx="0" cy="0" r="1" gradientUnits="userSpaceOnUse" gradientTransform="translate(1513.63 845.364) rotate(85.3036) scale(16.8266)">
<stop stop-color="white"/>
<stop offset="1" stop-color="#FAFAFA"/>
</radialGradient>
<radialGradient id="paint93_radial_615_992" cx="0" cy="0" r="1" gradientUnits="userSpaceOnUse" gradientTransform="translate(1546.32 845.364) rotate(85.3036) scale(16.8266)">
<stop stop-color="white"/>
<stop offset="1" stop-color="#FAFAFA"/>
</radialGradient>
<radialGradient id="paint94_radial_615_992" cx="0" cy="0" r="1" gradientUnits="userSpaceOnUse" gradientTransform="translate(1579.02 845.364) rotate(85.3036) scale(16.8266)">
<stop stop-color="white"/>
<stop offset="1" stop-color="#FAFAFA"/>
</radialGradient>
<radialGradient id="paint95_radial_615_992" cx="0" cy="0" r="1" gradientUnits="userSpaceOnUse" gradientTransform="translate(1611.72 845.364) rotate(85.3036) scale(16.8266)">
<stop stop-color="white"/>
<stop offset="1" stop-color="#FAFAFA"/>
</radialGradient>
</defs>
</svg>
