<svg width="736" height="247" viewBox="0 0 736 247" fill="none" xmlns="http://www.w3.org/2000/svg">
<g opacity="0.5">
<rect x="32" y="4.12158" width="15.086" height="15.086" rx="2" transform="rotate(-45 32 4.12158)" fill="url(#paint0_radial_1095_516)" fill-opacity="0.3"/>
<rect x="60.0967" y="4.12158" width="15.086" height="15.086" rx="2" transform="rotate(-45 60.0967 4.12158)" fill="url(#paint1_radial_1095_516)" fill-opacity="0.3"/>
<rect x="88.1875" y="4.12158" width="15.086" height="15.086" rx="2" transform="rotate(-45 88.1875 4.12158)" fill="url(#paint2_radial_1095_516)" fill-opacity="0.3"/>
<rect x="116.284" y="4.12158" width="15.086" height="15.086" rx="2" transform="rotate(-45 116.284 4.12158)" fill="url(#paint3_radial_1095_516)" fill-opacity="0.3"/>
<rect x="144.382" y="4.12158" width="15.086" height="15.086" rx="2" transform="rotate(-45 144.382 4.12158)" fill="url(#paint4_radial_1095_516)" fill-opacity="0.3"/>
<rect x="172.475" y="4.12158" width="15.086" height="15.086" rx="2" transform="rotate(-45 172.475 4.12158)" fill="url(#paint5_radial_1095_516)" fill-opacity="0.3"/>
<rect x="200.568" y="4.12158" width="15.086" height="15.086" rx="2" transform="rotate(-45 200.568 4.12158)" fill="url(#paint6_radial_1095_516)" fill-opacity="0.3"/>
<rect x="228.665" y="4.12158" width="15.086" height="15.086" rx="2" transform="rotate(-45 228.665 4.12158)" fill="url(#paint7_radial_1095_516)" fill-opacity="0.3"/>
</g>
<g opacity="0.5">
<rect x="32" y="61.5757" width="15.086" height="15.086" rx="2" transform="rotate(-45 32 61.5757)" fill="url(#paint8_radial_1095_516)" fill-opacity="0.3"/>
<rect x="60.0967" y="61.5757" width="15.086" height="15.086" rx="2" transform="rotate(-45 60.0967 61.5757)" fill="url(#paint9_radial_1095_516)" fill-opacity="0.3"/>
<rect x="88.1875" y="61.5757" width="15.086" height="15.086" rx="2" transform="rotate(-45 88.1875 61.5757)" fill="url(#paint10_radial_1095_516)" fill-opacity="0.3"/>
<rect x="116.284" y="61.5757" width="15.086" height="15.086" rx="2" transform="rotate(-45 116.284 61.5757)" fill="url(#paint11_radial_1095_516)" fill-opacity="0.3"/>
<rect x="144.382" y="61.5757" width="15.086" height="15.086" rx="2" transform="rotate(-45 144.382 61.5757)" fill="url(#paint12_radial_1095_516)" fill-opacity="0.3"/>
<rect x="172.475" y="61.5757" width="15.086" height="15.086" rx="2" transform="rotate(-45 172.475 61.5757)" fill="url(#paint13_radial_1095_516)" fill-opacity="0.3"/>
<rect x="200.568" y="61.5757" width="15.086" height="15.086" rx="2" transform="rotate(-45 200.568 61.5757)" fill="url(#paint14_radial_1095_516)" fill-opacity="0.3"/>
<rect x="228.665" y="61.5757" width="15.086" height="15.086" rx="2" transform="rotate(-45 228.665 61.5757)" fill="url(#paint15_radial_1095_516)" fill-opacity="0.3"/>
</g>
<g opacity="0.5">
<rect width="15.086" height="15.086" rx="2" transform="matrix(0.707105 -0.707108 0.707105 0.707108 32 32.8481)" fill="url(#paint16_radial_1095_516)" fill-opacity="0.3"/>
<rect width="15.086" height="15.086" rx="2" transform="matrix(0.707105 -0.707108 0.707105 0.707108 60.0967 32.8481)" fill="url(#paint17_radial_1095_516)" fill-opacity="0.3"/>
<rect width="15.086" height="15.086" rx="2" transform="matrix(0.707105 -0.707108 0.707105 0.707108 88.1875 32.8481)" fill="url(#paint18_radial_1095_516)" fill-opacity="0.3"/>
<rect width="15.086" height="15.086" rx="2" transform="matrix(0.707105 -0.707108 0.707105 0.707108 116.284 32.8481)" fill="url(#paint19_radial_1095_516)" fill-opacity="0.3"/>
<rect width="15.086" height="15.086" rx="2" transform="matrix(0.707105 -0.707108 0.707105 0.707108 144.382 32.8481)" fill="url(#paint20_radial_1095_516)" fill-opacity="0.3"/>
<rect width="15.086" height="15.086" rx="2" transform="matrix(0.707105 -0.707108 0.707105 0.707108 172.475 32.8481)" fill="url(#paint21_radial_1095_516)" fill-opacity="0.3"/>
<rect width="15.086" height="15.086" rx="2" transform="matrix(0.707105 -0.707108 0.707105 0.707108 200.568 32.8481)" fill="url(#paint22_radial_1095_516)" fill-opacity="0.3"/>
<rect width="15.086" height="15.086" rx="2" transform="matrix(0.707105 -0.707108 0.707105 0.707108 228.665 32.8481)" fill="url(#paint23_radial_1095_516)" fill-opacity="0.3"/>
</g>
<g opacity="0.5">
<rect x="32" y="90.3022" width="15.086" height="15.086" rx="2" transform="rotate(-45 32 90.3022)" fill="url(#paint24_radial_1095_516)" fill-opacity="0.3"/>
<rect x="60.0967" y="90.3022" width="15.086" height="15.086" rx="2" transform="rotate(-45 60.0967 90.3022)" fill="url(#paint25_radial_1095_516)" fill-opacity="0.3"/>
<rect x="88.1875" y="90.3022" width="15.086" height="15.086" rx="2" transform="rotate(-45 88.1875 90.3022)" fill="url(#paint26_radial_1095_516)" fill-opacity="0.3"/>
<rect x="116.284" y="90.3022" width="15.086" height="15.086" rx="2" transform="rotate(-45 116.284 90.3022)" fill="url(#paint27_radial_1095_516)" fill-opacity="0.3"/>
<rect x="144.382" y="90.3022" width="15.086" height="15.086" rx="2" transform="rotate(-45 144.382 90.3022)" fill="url(#paint28_radial_1095_516)" fill-opacity="0.3"/>
<rect x="172.475" y="90.3022" width="15.086" height="15.086" rx="2" transform="rotate(-45 172.475 90.3022)" fill="url(#paint29_radial_1095_516)" fill-opacity="0.3"/>
<rect x="200.568" y="90.3022" width="15.086" height="15.086" rx="2" transform="rotate(-45 200.568 90.3022)" fill="url(#paint30_radial_1095_516)" fill-opacity="0.3"/>
<rect x="228.665" y="90.3022" width="15.086" height="15.086" rx="2" transform="rotate(-45 228.665 90.3022)" fill="url(#paint31_radial_1095_516)" fill-opacity="0.3"/>
</g>
<rect x="-232" y="72.7979" width="310.841" height="310.841" rx="32" transform="rotate(-45 -232 72.7979)" fill="url(#paint32_radial_1095_516)" fill-opacity="0.3"/>
<rect x="502" y="203.062" width="271.617" height="271.617" rx="36.3436" transform="rotate(-45 502 203.062)" fill="url(#paint33_radial_1095_516)" fill-opacity="0.3"/>
<defs>
<radialGradient id="paint0_radial_1095_516" cx="0" cy="0" r="1" gradientUnits="userSpaceOnUse" gradientTransform="translate(39.543 11.6646) rotate(85.3036) scale(14.4577)">
<stop stop-color="#D2D2D2"/>
<stop offset="1" stop-color="#FAFAFA"/>
</radialGradient>
<radialGradient id="paint1_radial_1095_516" cx="0" cy="0" r="1" gradientUnits="userSpaceOnUse" gradientTransform="translate(67.6397 11.6646) rotate(85.3036) scale(14.4577)">
<stop stop-color="#D2D2D2"/>
<stop offset="1" stop-color="#FAFAFA"/>
</radialGradient>
<radialGradient id="paint2_radial_1095_516" cx="0" cy="0" r="1" gradientUnits="userSpaceOnUse" gradientTransform="translate(95.7305 11.6646) rotate(85.3036) scale(14.4577)">
<stop stop-color="#D2D2D2"/>
<stop offset="1" stop-color="#FAFAFA"/>
</radialGradient>
<radialGradient id="paint3_radial_1095_516" cx="0" cy="0" r="1" gradientUnits="userSpaceOnUse" gradientTransform="translate(123.827 11.6646) rotate(85.3036) scale(14.4577)">
<stop stop-color="#D2D2D2"/>
<stop offset="1" stop-color="#FAFAFA"/>
</radialGradient>
<radialGradient id="paint4_radial_1095_516" cx="0" cy="0" r="1" gradientUnits="userSpaceOnUse" gradientTransform="translate(151.925 11.6646) rotate(85.3036) scale(14.4577)">
<stop stop-color="#D2D2D2"/>
<stop offset="1" stop-color="#FAFAFA"/>
</radialGradient>
<radialGradient id="paint5_radial_1095_516" cx="0" cy="0" r="1" gradientUnits="userSpaceOnUse" gradientTransform="translate(180.018 11.6646) rotate(85.3036) scale(14.4577)">
<stop stop-color="#D2D2D2"/>
<stop offset="1" stop-color="#FAFAFA"/>
</radialGradient>
<radialGradient id="paint6_radial_1095_516" cx="0" cy="0" r="1" gradientUnits="userSpaceOnUse" gradientTransform="translate(208.111 11.6646) rotate(85.3036) scale(14.4577)">
<stop stop-color="#D2D2D2"/>
<stop offset="1" stop-color="#FAFAFA"/>
</radialGradient>
<radialGradient id="paint7_radial_1095_516" cx="0" cy="0" r="1" gradientUnits="userSpaceOnUse" gradientTransform="translate(236.208 11.6646) rotate(85.3036) scale(14.4577)">
<stop stop-color="#D2D2D2"/>
<stop offset="1" stop-color="#FAFAFA"/>
</radialGradient>
<radialGradient id="paint8_radial_1095_516" cx="0" cy="0" r="1" gradientUnits="userSpaceOnUse" gradientTransform="translate(39.543 69.1187) rotate(85.3036) scale(14.4577)">
<stop stop-color="#D2D2D2"/>
<stop offset="1" stop-color="#FAFAFA"/>
</radialGradient>
<radialGradient id="paint9_radial_1095_516" cx="0" cy="0" r="1" gradientUnits="userSpaceOnUse" gradientTransform="translate(67.6397 69.1187) rotate(85.3036) scale(14.4577)">
<stop stop-color="#D2D2D2"/>
<stop offset="1" stop-color="#FAFAFA"/>
</radialGradient>
<radialGradient id="paint10_radial_1095_516" cx="0" cy="0" r="1" gradientUnits="userSpaceOnUse" gradientTransform="translate(95.7305 69.1187) rotate(85.3036) scale(14.4577)">
<stop stop-color="#D2D2D2"/>
<stop offset="1" stop-color="#FAFAFA"/>
</radialGradient>
<radialGradient id="paint11_radial_1095_516" cx="0" cy="0" r="1" gradientUnits="userSpaceOnUse" gradientTransform="translate(123.827 69.1187) rotate(85.3036) scale(14.4577)">
<stop stop-color="#D2D2D2"/>
<stop offset="1" stop-color="#FAFAFA"/>
</radialGradient>
<radialGradient id="paint12_radial_1095_516" cx="0" cy="0" r="1" gradientUnits="userSpaceOnUse" gradientTransform="translate(151.925 69.1187) rotate(85.3036) scale(14.4577)">
<stop stop-color="#D2D2D2"/>
<stop offset="1" stop-color="#FAFAFA"/>
</radialGradient>
<radialGradient id="paint13_radial_1095_516" cx="0" cy="0" r="1" gradientUnits="userSpaceOnUse" gradientTransform="translate(180.018 69.1187) rotate(85.3036) scale(14.4577)">
<stop stop-color="#D2D2D2"/>
<stop offset="1" stop-color="#FAFAFA"/>
</radialGradient>
<radialGradient id="paint14_radial_1095_516" cx="0" cy="0" r="1" gradientUnits="userSpaceOnUse" gradientTransform="translate(208.111 69.1187) rotate(85.3036) scale(14.4577)">
<stop stop-color="#D2D2D2"/>
<stop offset="1" stop-color="#FAFAFA"/>
</radialGradient>
<radialGradient id="paint15_radial_1095_516" cx="0" cy="0" r="1" gradientUnits="userSpaceOnUse" gradientTransform="translate(236.208 69.1187) rotate(85.3036) scale(14.4577)">
<stop stop-color="#D2D2D2"/>
<stop offset="1" stop-color="#FAFAFA"/>
</radialGradient>
<radialGradient id="paint16_radial_1095_516" cx="0" cy="0" r="1" gradientUnits="userSpaceOnUse" gradientTransform="translate(7.54302 7.54302) rotate(85.3036) scale(14.4577)">
<stop stop-color="#D2D2D2"/>
<stop offset="1" stop-color="#FAFAFA"/>
</radialGradient>
<radialGradient id="paint17_radial_1095_516" cx="0" cy="0" r="1" gradientUnits="userSpaceOnUse" gradientTransform="translate(7.54302 7.54302) rotate(85.3036) scale(14.4577)">
<stop stop-color="#D2D2D2"/>
<stop offset="1" stop-color="#FAFAFA"/>
</radialGradient>
<radialGradient id="paint18_radial_1095_516" cx="0" cy="0" r="1" gradientUnits="userSpaceOnUse" gradientTransform="translate(7.54302 7.54302) rotate(85.3036) scale(14.4577)">
<stop stop-color="#D2D2D2"/>
<stop offset="1" stop-color="#FAFAFA"/>
</radialGradient>
<radialGradient id="paint19_radial_1095_516" cx="0" cy="0" r="1" gradientUnits="userSpaceOnUse" gradientTransform="translate(7.54302 7.54302) rotate(85.3036) scale(14.4577)">
<stop stop-color="#D2D2D2"/>
<stop offset="1" stop-color="#FAFAFA"/>
</radialGradient>
<radialGradient id="paint20_radial_1095_516" cx="0" cy="0" r="1" gradientUnits="userSpaceOnUse" gradientTransform="translate(7.54302 7.54302) rotate(85.3036) scale(14.4577)">
<stop stop-color="#D2D2D2"/>
<stop offset="1" stop-color="#FAFAFA"/>
</radialGradient>
<radialGradient id="paint21_radial_1095_516" cx="0" cy="0" r="1" gradientUnits="userSpaceOnUse" gradientTransform="translate(7.54302 7.54302) rotate(85.3036) scale(14.4577)">
<stop stop-color="#D2D2D2"/>
<stop offset="1" stop-color="#FAFAFA"/>
</radialGradient>
<radialGradient id="paint22_radial_1095_516" cx="0" cy="0" r="1" gradientUnits="userSpaceOnUse" gradientTransform="translate(7.54302 7.54302) rotate(85.3036) scale(14.4577)">
<stop stop-color="#D2D2D2"/>
<stop offset="1" stop-color="#FAFAFA"/>
</radialGradient>
<radialGradient id="paint23_radial_1095_516" cx="0" cy="0" r="1" gradientUnits="userSpaceOnUse" gradientTransform="translate(7.54302 7.54302) rotate(85.3036) scale(14.4577)">
<stop stop-color="#D2D2D2"/>
<stop offset="1" stop-color="#FAFAFA"/>
</radialGradient>
<radialGradient id="paint24_radial_1095_516" cx="0" cy="0" r="1" gradientUnits="userSpaceOnUse" gradientTransform="translate(39.543 97.8453) rotate(85.3036) scale(14.4577)">
<stop stop-color="#D2D2D2"/>
<stop offset="1" stop-color="#FAFAFA"/>
</radialGradient>
<radialGradient id="paint25_radial_1095_516" cx="0" cy="0" r="1" gradientUnits="userSpaceOnUse" gradientTransform="translate(67.6397 97.8453) rotate(85.3036) scale(14.4577)">
<stop stop-color="#D2D2D2"/>
<stop offset="1" stop-color="#FAFAFA"/>
</radialGradient>
<radialGradient id="paint26_radial_1095_516" cx="0" cy="0" r="1" gradientUnits="userSpaceOnUse" gradientTransform="translate(95.7305 97.8453) rotate(85.3036) scale(14.4577)">
<stop stop-color="#D2D2D2"/>
<stop offset="1" stop-color="#FAFAFA"/>
</radialGradient>
<radialGradient id="paint27_radial_1095_516" cx="0" cy="0" r="1" gradientUnits="userSpaceOnUse" gradientTransform="translate(123.827 97.8453) rotate(85.3036) scale(14.4577)">
<stop stop-color="#D2D2D2"/>
<stop offset="1" stop-color="#FAFAFA"/>
</radialGradient>
<radialGradient id="paint28_radial_1095_516" cx="0" cy="0" r="1" gradientUnits="userSpaceOnUse" gradientTransform="translate(151.925 97.8453) rotate(85.3036) scale(14.4577)">
<stop stop-color="#D2D2D2"/>
<stop offset="1" stop-color="#FAFAFA"/>
</radialGradient>
<radialGradient id="paint29_radial_1095_516" cx="0" cy="0" r="1" gradientUnits="userSpaceOnUse" gradientTransform="translate(180.018 97.8453) rotate(85.3036) scale(14.4577)">
<stop stop-color="#D2D2D2"/>
<stop offset="1" stop-color="#FAFAFA"/>
</radialGradient>
<radialGradient id="paint30_radial_1095_516" cx="0" cy="0" r="1" gradientUnits="userSpaceOnUse" gradientTransform="translate(208.111 97.8453) rotate(85.3036) scale(14.4577)">
<stop stop-color="#D2D2D2"/>
<stop offset="1" stop-color="#FAFAFA"/>
</radialGradient>
<radialGradient id="paint31_radial_1095_516" cx="0" cy="0" r="1" gradientUnits="userSpaceOnUse" gradientTransform="translate(236.208 97.8453) rotate(85.3036) scale(14.4577)">
<stop stop-color="#D2D2D2"/>
<stop offset="1" stop-color="#FAFAFA"/>
</radialGradient>
<radialGradient id="paint32_radial_1095_516" cx="0" cy="0" r="1" gradientUnits="userSpaceOnUse" gradientTransform="translate(-76.5793 228.219) rotate(85.3036) scale(297.896)">
<stop stop-color="#D2D2D2"/>
<stop offset="1" stop-color="#FAFAFA"/>
</radialGradient>
<radialGradient id="paint33_radial_1095_516" cx="0" cy="0" r="1" gradientUnits="userSpaceOnUse" gradientTransform="translate(637.809 338.871) rotate(85.3036) scale(260.305)">
<stop stop-color="#D2D2D2"/>
<stop offset="1" stop-color="#FAFAFA"/>
</radialGradient>
</defs>
</svg>
