<svg width="711" height="620" viewBox="0 0 711 620" fill="none" xmlns="http://www.w3.org/2000/svg">
<g opacity="0.7">
<g opacity="0.5">
<rect x="450" y="20.8223" width="29.4458" height="29.4458" rx="6.59659" transform="rotate(-45 450 20.8223)" fill="url(#paint0_radial_596_994)"/>
<rect x="504.836" y="20.8213" width="29.4458" height="29.4458" rx="6.59659" transform="rotate(-45 504.836 20.8213)" fill="url(#paint1_radial_596_994)"/>
<rect x="559.672" y="20.8213" width="29.4458" height="29.4458" rx="6.59659" transform="rotate(-45 559.672 20.8213)" fill="url(#paint2_radial_596_994)"/>
<rect x="614.518" y="20.8213" width="29.4458" height="29.4458" rx="6.59659" transform="rotate(-45 614.518 20.8213)" fill="url(#paint3_radial_596_994)"/>
<rect x="669.349" y="20.8214" width="29.4458" height="29.4458" rx="6.59659" transform="rotate(-45 669.349 20.8214)" fill="url(#paint4_radial_596_994)"/>
</g>
<g opacity="0.5">
<rect x="450" y="132.964" width="29.4458" height="29.4458" rx="6.59659" transform="rotate(-45 450 132.964)" fill="url(#paint5_radial_596_994)"/>
<rect x="504.836" y="132.964" width="29.4458" height="29.4458" rx="6.59659" transform="rotate(-45 504.836 132.964)" fill="url(#paint6_radial_596_994)"/>
<rect x="559.672" y="132.964" width="29.4458" height="29.4458" rx="6.59659" transform="rotate(-45 559.672 132.964)" fill="url(#paint7_radial_596_994)"/>
<rect x="614.518" y="132.964" width="29.4458" height="29.4458" rx="6.59659" transform="rotate(-45 614.518 132.964)" fill="url(#paint8_radial_596_994)"/>
<rect x="669.349" y="132.964" width="29.4458" height="29.4458" rx="6.59659" transform="rotate(-45 669.349 132.964)" fill="url(#paint9_radial_596_994)"/>
</g>
<g opacity="0.5">
<rect x="450" y="245.107" width="29.4458" height="29.4458" rx="6.59659" transform="rotate(-45 450 245.107)" fill="url(#paint10_radial_596_994)"/>
<rect x="504.836" y="245.106" width="29.4458" height="29.4458" rx="6.59659" transform="rotate(-45 504.836 245.106)" fill="url(#paint11_radial_596_994)"/>
<rect x="559.672" y="245.106" width="29.4458" height="29.4458" rx="6.59659" transform="rotate(-45 559.672 245.106)" fill="url(#paint12_radial_596_994)"/>
<rect x="614.517" y="245.107" width="29.4458" height="29.4458" rx="6.59659" transform="rotate(-45 614.517 245.107)" fill="url(#paint13_radial_596_994)"/>
<rect x="669.349" y="245.106" width="29.4458" height="29.4458" rx="6.59659" transform="rotate(-45 669.349 245.106)" fill="url(#paint14_radial_596_994)"/>
</g>
<g opacity="0.5">
<rect x="450" y="76.8932" width="29.4458" height="29.4458" rx="6.59659" transform="rotate(-45 450 76.8932)" fill="url(#paint15_radial_596_994)"/>
<rect x="504.836" y="76.8922" width="29.4458" height="29.4458" rx="6.59659" transform="rotate(-45 504.836 76.8922)" fill="url(#paint16_radial_596_994)"/>
<rect x="559.672" y="76.8922" width="29.4458" height="29.4458" rx="6.59659" transform="rotate(-45 559.672 76.8922)" fill="url(#paint17_radial_596_994)"/>
<rect x="614.518" y="76.8922" width="29.4458" height="29.4458" rx="6.59659" transform="rotate(-45 614.518 76.8922)" fill="url(#paint18_radial_596_994)"/>
<rect x="669.349" y="76.8923" width="29.4458" height="29.4458" rx="6.59659" transform="rotate(-45 669.349 76.8923)" fill="url(#paint19_radial_596_994)"/>
</g>
<g opacity="0.5">
<rect x="450" y="189.036" width="29.4458" height="29.4458" rx="6.59659" transform="rotate(-45 450 189.036)" fill="url(#paint20_radial_596_994)"/>
<rect x="504.836" y="189.036" width="29.4458" height="29.4458" rx="6.59659" transform="rotate(-45 504.836 189.036)" fill="url(#paint21_radial_596_994)"/>
<rect x="559.672" y="189.036" width="29.4458" height="29.4458" rx="6.59659" transform="rotate(-45 559.672 189.036)" fill="url(#paint22_radial_596_994)"/>
<rect x="614.518" y="189.036" width="29.4458" height="29.4458" rx="6.59659" transform="rotate(-45 614.518 189.036)" fill="url(#paint23_radial_596_994)"/>
<rect x="669.349" y="189.036" width="29.4458" height="29.4458" rx="6.59659" transform="rotate(-45 669.349 189.036)" fill="url(#paint24_radial_596_994)"/>
</g>
<g opacity="0.5">
<rect x="450" y="301.178" width="29.4458" height="29.4458" rx="6.59659" transform="rotate(-45 450 301.178)" fill="url(#paint25_radial_596_994)"/>
<rect x="504.836" y="301.177" width="29.4458" height="29.4458" rx="6.59659" transform="rotate(-45 504.836 301.177)" fill="url(#paint26_radial_596_994)"/>
<rect x="559.672" y="301.177" width="29.4458" height="29.4458" rx="6.59659" transform="rotate(-45 559.672 301.177)" fill="url(#paint27_radial_596_994)"/>
<rect x="614.518" y="301.178" width="29.4458" height="29.4458" rx="6.59659" transform="rotate(-45 614.518 301.178)" fill="url(#paint28_radial_596_994)"/>
<rect x="669.349" y="301.177" width="29.4458" height="29.4458" rx="6.59659" transform="rotate(-45 669.349 301.177)" fill="url(#paint29_radial_596_994)"/>
</g>
</g>
<g opacity="0.7">
<g opacity="0.5">
<rect y="435.739" width="18.015" height="18.015" rx="4.0358" transform="rotate(-45 0 435.739)" fill="url(#paint30_radial_596_994)"/>
<rect x="33.5488" y="435.739" width="18.015" height="18.015" rx="4.0358" transform="rotate(-45 33.5488 435.739)" fill="url(#paint31_radial_596_994)"/>
<rect x="67.0977" y="435.739" width="18.015" height="18.015" rx="4.0358" transform="rotate(-45 67.0977 435.739)" fill="url(#paint32_radial_596_994)"/>
<rect x="100.652" y="435.739" width="18.015" height="18.015" rx="4.0358" transform="rotate(-45 100.652 435.739)" fill="url(#paint33_radial_596_994)"/>
<rect x="134.198" y="435.739" width="18.015" height="18.015" rx="4.0358" transform="rotate(-45 134.198 435.739)" fill="url(#paint34_radial_596_994)"/>
<rect x="167.749" y="435.739" width="18.015" height="18.015" rx="4.0358" transform="rotate(-45 167.749 435.739)" fill="url(#paint35_radial_596_994)"/>
<rect x="201.301" y="435.739" width="18.015" height="18.015" rx="4.0358" transform="rotate(-45 201.301 435.739)" fill="url(#paint36_radial_596_994)"/>
<rect x="234.844" y="435.739" width="18.015" height="18.015" rx="4.0358" transform="rotate(-45 234.844 435.739)" fill="url(#paint37_radial_596_994)"/>
</g>
<g opacity="0.5">
<rect y="504.348" width="18.015" height="18.015" rx="4.0358" transform="rotate(-45 0 504.348)" fill="url(#paint38_radial_596_994)"/>
<rect x="33.5488" y="504.348" width="18.015" height="18.015" rx="4.0358" transform="rotate(-45 33.5488 504.348)" fill="url(#paint39_radial_596_994)"/>
<rect x="67.0977" y="504.348" width="18.015" height="18.015" rx="4.0358" transform="rotate(-45 67.0977 504.348)" fill="url(#paint40_radial_596_994)"/>
<rect x="100.652" y="504.348" width="18.015" height="18.015" rx="4.0358" transform="rotate(-45 100.652 504.348)" fill="url(#paint41_radial_596_994)"/>
<rect x="134.198" y="504.348" width="18.015" height="18.015" rx="4.0358" transform="rotate(-45 134.198 504.348)" fill="url(#paint42_radial_596_994)"/>
<rect x="167.749" y="504.348" width="18.015" height="18.015" rx="4.0358" transform="rotate(-45 167.749 504.348)" fill="url(#paint43_radial_596_994)"/>
<rect x="201.301" y="504.348" width="18.015" height="18.015" rx="4.0358" transform="rotate(-45 201.301 504.348)" fill="url(#paint44_radial_596_994)"/>
<rect x="234.844" y="504.348" width="18.015" height="18.015" rx="4.0358" transform="rotate(-45 234.844 504.348)" fill="url(#paint45_radial_596_994)"/>
</g>
<g opacity="0.5">
<rect y="572.957" width="18.015" height="18.015" rx="4.0358" transform="rotate(-45 0 572.957)" fill="url(#paint46_radial_596_994)"/>
<rect x="33.5488" y="572.956" width="18.015" height="18.015" rx="4.0358" transform="rotate(-45 33.5488 572.956)" fill="url(#paint47_radial_596_994)"/>
<rect x="67.0977" y="572.956" width="18.015" height="18.015" rx="4.0358" transform="rotate(-45 67.0977 572.956)" fill="url(#paint48_radial_596_994)"/>
<rect x="100.651" y="572.957" width="18.015" height="18.015" rx="4.0358" transform="rotate(-45 100.651 572.957)" fill="url(#paint49_radial_596_994)"/>
<rect x="134.198" y="572.956" width="18.015" height="18.015" rx="4.0358" transform="rotate(-45 134.198 572.956)" fill="url(#paint50_radial_596_994)"/>
<rect x="167.749" y="572.956" width="18.015" height="18.015" rx="4.0358" transform="rotate(-45 167.749 572.956)" fill="url(#paint51_radial_596_994)"/>
<rect x="201.301" y="572.956" width="18.015" height="18.015" rx="4.0358" transform="rotate(-45 201.301 572.956)" fill="url(#paint52_radial_596_994)"/>
<rect x="234.844" y="572.956" width="18.015" height="18.015" rx="4.0358" transform="rotate(-45 234.844 572.956)" fill="url(#paint53_radial_596_994)"/>
</g>
<g opacity="0.5">
<rect y="470.043" width="18.015" height="18.015" rx="4.0358" transform="rotate(-45 0 470.043)" fill="url(#paint54_radial_596_994)"/>
<rect x="33.5488" y="470.043" width="18.015" height="18.015" rx="4.0358" transform="rotate(-45 33.5488 470.043)" fill="url(#paint55_radial_596_994)"/>
<rect x="67.0977" y="470.043" width="18.015" height="18.015" rx="4.0358" transform="rotate(-45 67.0977 470.043)" fill="url(#paint56_radial_596_994)"/>
<rect x="100.652" y="470.043" width="18.015" height="18.015" rx="4.0358" transform="rotate(-45 100.652 470.043)" fill="url(#paint57_radial_596_994)"/>
<rect x="134.198" y="470.043" width="18.015" height="18.015" rx="4.0358" transform="rotate(-45 134.198 470.043)" fill="url(#paint58_radial_596_994)"/>
<rect x="167.749" y="470.043" width="18.015" height="18.015" rx="4.0358" transform="rotate(-45 167.749 470.043)" fill="url(#paint59_radial_596_994)"/>
<rect x="201.301" y="470.043" width="18.015" height="18.015" rx="4.0358" transform="rotate(-45 201.301 470.043)" fill="url(#paint60_radial_596_994)"/>
<rect x="234.844" y="470.043" width="18.015" height="18.015" rx="4.0358" transform="rotate(-45 234.844 470.043)" fill="url(#paint61_radial_596_994)"/>
</g>
<g opacity="0.5">
<rect y="538.653" width="18.015" height="18.015" rx="4.0358" transform="rotate(-45 0 538.653)" fill="url(#paint62_radial_596_994)"/>
<rect x="33.5488" y="538.653" width="18.015" height="18.015" rx="4.0358" transform="rotate(-45 33.5488 538.653)" fill="url(#paint63_radial_596_994)"/>
<rect x="67.0977" y="538.653" width="18.015" height="18.015" rx="4.0358" transform="rotate(-45 67.0977 538.653)" fill="url(#paint64_radial_596_994)"/>
<rect x="100.652" y="538.653" width="18.015" height="18.015" rx="4.0358" transform="rotate(-45 100.652 538.653)" fill="url(#paint65_radial_596_994)"/>
<rect x="134.198" y="538.653" width="18.015" height="18.015" rx="4.0358" transform="rotate(-45 134.198 538.653)" fill="url(#paint66_radial_596_994)"/>
<rect x="167.749" y="538.653" width="18.015" height="18.015" rx="4.0358" transform="rotate(-45 167.749 538.653)" fill="url(#paint67_radial_596_994)"/>
<rect x="201.301" y="538.653" width="18.015" height="18.015" rx="4.0358" transform="rotate(-45 201.301 538.653)" fill="url(#paint68_radial_596_994)"/>
<rect x="234.844" y="538.653" width="18.015" height="18.015" rx="4.0358" transform="rotate(-45 234.844 538.653)" fill="url(#paint69_radial_596_994)"/>
</g>
<g opacity="0.5">
<rect y="607.261" width="18.015" height="18.015" rx="4.0358" transform="rotate(-45 0 607.261)" fill="url(#paint70_radial_596_994)"/>
<rect x="33.5488" y="607.261" width="18.015" height="18.015" rx="4.0358" transform="rotate(-45 33.5488 607.261)" fill="url(#paint71_radial_596_994)"/>
<rect x="67.0977" y="607.261" width="18.015" height="18.015" rx="4.0358" transform="rotate(-45 67.0977 607.261)" fill="url(#paint72_radial_596_994)"/>
<rect x="100.652" y="607.261" width="18.015" height="18.015" rx="4.0358" transform="rotate(-45 100.652 607.261)" fill="url(#paint73_radial_596_994)"/>
<rect x="134.198" y="607.261" width="18.015" height="18.015" rx="4.0358" transform="rotate(-45 134.198 607.261)" fill="url(#paint74_radial_596_994)"/>
<rect x="167.749" y="607.261" width="18.015" height="18.015" rx="4.0358" transform="rotate(-45 167.749 607.261)" fill="url(#paint75_radial_596_994)"/>
<rect x="201.301" y="607.261" width="18.015" height="18.015" rx="4.0358" transform="rotate(-45 201.301 607.261)" fill="url(#paint76_radial_596_994)"/>
<rect x="234.844" y="607.261" width="18.015" height="18.015" rx="4.0358" transform="rotate(-45 234.844 607.261)" fill="url(#paint77_radial_596_994)"/>
</g>
</g>
<defs>
<radialGradient id="paint0_radial_596_994" cx="0" cy="0" r="1" gradientUnits="userSpaceOnUse" gradientTransform="translate(464.723 35.5452) rotate(85.3036) scale(28.2195)">
<stop stop-color="#F1F1F1"/>
<stop offset="1" stop-color="#FAFAFA"/>
</radialGradient>
<radialGradient id="paint1_radial_596_994" cx="0" cy="0" r="1" gradientUnits="userSpaceOnUse" gradientTransform="translate(519.559 35.5442) rotate(85.3036) scale(28.2195)">
<stop stop-color="#F1F1F1"/>
<stop offset="1" stop-color="#FAFAFA"/>
</radialGradient>
<radialGradient id="paint2_radial_596_994" cx="0" cy="0" r="1" gradientUnits="userSpaceOnUse" gradientTransform="translate(574.395 35.5442) rotate(85.3036) scale(28.2195)">
<stop stop-color="#F1F1F1"/>
<stop offset="1" stop-color="#FAFAFA"/>
</radialGradient>
<radialGradient id="paint3_radial_596_994" cx="0" cy="0" r="1" gradientUnits="userSpaceOnUse" gradientTransform="translate(629.241 35.5442) rotate(85.3036) scale(28.2195)">
<stop stop-color="#F1F1F1"/>
<stop offset="1" stop-color="#FAFAFA"/>
</radialGradient>
<radialGradient id="paint4_radial_596_994" cx="0" cy="0" r="1" gradientUnits="userSpaceOnUse" gradientTransform="translate(684.072 35.5443) rotate(85.3036) scale(28.2195)">
<stop stop-color="#F1F1F1"/>
<stop offset="1" stop-color="#FAFAFA"/>
</radialGradient>
<radialGradient id="paint5_radial_596_994" cx="0" cy="0" r="1" gradientUnits="userSpaceOnUse" gradientTransform="translate(464.723 147.687) rotate(85.3036) scale(28.2195)">
<stop stop-color="#F1F1F1"/>
<stop offset="1" stop-color="#FAFAFA"/>
</radialGradient>
<radialGradient id="paint6_radial_596_994" cx="0" cy="0" r="1" gradientUnits="userSpaceOnUse" gradientTransform="translate(519.559 147.687) rotate(85.3036) scale(28.2195)">
<stop stop-color="#F1F1F1"/>
<stop offset="1" stop-color="#FAFAFA"/>
</radialGradient>
<radialGradient id="paint7_radial_596_994" cx="0" cy="0" r="1" gradientUnits="userSpaceOnUse" gradientTransform="translate(574.395 147.687) rotate(85.3036) scale(28.2195)">
<stop stop-color="#F1F1F1"/>
<stop offset="1" stop-color="#FAFAFA"/>
</radialGradient>
<radialGradient id="paint8_radial_596_994" cx="0" cy="0" r="1" gradientUnits="userSpaceOnUse" gradientTransform="translate(629.241 147.687) rotate(85.3036) scale(28.2195)">
<stop stop-color="#F1F1F1"/>
<stop offset="1" stop-color="#FAFAFA"/>
</radialGradient>
<radialGradient id="paint9_radial_596_994" cx="0" cy="0" r="1" gradientUnits="userSpaceOnUse" gradientTransform="translate(684.072 147.687) rotate(85.3036) scale(28.2195)">
<stop stop-color="#F1F1F1"/>
<stop offset="1" stop-color="#FAFAFA"/>
</radialGradient>
<radialGradient id="paint10_radial_596_994" cx="0" cy="0" r="1" gradientUnits="userSpaceOnUse" gradientTransform="translate(464.723 259.83) rotate(85.3036) scale(28.2195)">
<stop stop-color="#F1F1F1"/>
<stop offset="1" stop-color="#FAFAFA"/>
</radialGradient>
<radialGradient id="paint11_radial_596_994" cx="0" cy="0" r="1" gradientUnits="userSpaceOnUse" gradientTransform="translate(519.559 259.829) rotate(85.3036) scale(28.2195)">
<stop stop-color="#F1F1F1"/>
<stop offset="1" stop-color="#FAFAFA"/>
</radialGradient>
<radialGradient id="paint12_radial_596_994" cx="0" cy="0" r="1" gradientUnits="userSpaceOnUse" gradientTransform="translate(574.395 259.829) rotate(85.3036) scale(28.2195)">
<stop stop-color="#F1F1F1"/>
<stop offset="1" stop-color="#FAFAFA"/>
</radialGradient>
<radialGradient id="paint13_radial_596_994" cx="0" cy="0" r="1" gradientUnits="userSpaceOnUse" gradientTransform="translate(629.24 259.83) rotate(85.3036) scale(28.2195)">
<stop stop-color="#F1F1F1"/>
<stop offset="1" stop-color="#FAFAFA"/>
</radialGradient>
<radialGradient id="paint14_radial_596_994" cx="0" cy="0" r="1" gradientUnits="userSpaceOnUse" gradientTransform="translate(684.072 259.829) rotate(85.3036) scale(28.2195)">
<stop stop-color="#F1F1F1"/>
<stop offset="1" stop-color="#FAFAFA"/>
</radialGradient>
<radialGradient id="paint15_radial_596_994" cx="0" cy="0" r="1" gradientUnits="userSpaceOnUse" gradientTransform="translate(464.723 91.6161) rotate(85.3036) scale(28.2195)">
<stop stop-color="#F1F1F1"/>
<stop offset="1" stop-color="#FAFAFA"/>
</radialGradient>
<radialGradient id="paint16_radial_596_994" cx="0" cy="0" r="1" gradientUnits="userSpaceOnUse" gradientTransform="translate(519.559 91.6151) rotate(85.3036) scale(28.2195)">
<stop stop-color="#F1F1F1"/>
<stop offset="1" stop-color="#FAFAFA"/>
</radialGradient>
<radialGradient id="paint17_radial_596_994" cx="0" cy="0" r="1" gradientUnits="userSpaceOnUse" gradientTransform="translate(574.395 91.6151) rotate(85.3036) scale(28.2195)">
<stop stop-color="#F1F1F1"/>
<stop offset="1" stop-color="#FAFAFA"/>
</radialGradient>
<radialGradient id="paint18_radial_596_994" cx="0" cy="0" r="1" gradientUnits="userSpaceOnUse" gradientTransform="translate(629.241 91.6151) rotate(85.3036) scale(28.2195)">
<stop stop-color="#F1F1F1"/>
<stop offset="1" stop-color="#FAFAFA"/>
</radialGradient>
<radialGradient id="paint19_radial_596_994" cx="0" cy="0" r="1" gradientUnits="userSpaceOnUse" gradientTransform="translate(684.072 91.6153) rotate(85.3036) scale(28.2195)">
<stop stop-color="#F1F1F1"/>
<stop offset="1" stop-color="#FAFAFA"/>
</radialGradient>
<radialGradient id="paint20_radial_596_994" cx="0" cy="0" r="1" gradientUnits="userSpaceOnUse" gradientTransform="translate(464.723 203.759) rotate(85.3036) scale(28.2195)">
<stop stop-color="#F1F1F1"/>
<stop offset="1" stop-color="#FAFAFA"/>
</radialGradient>
<radialGradient id="paint21_radial_596_994" cx="0" cy="0" r="1" gradientUnits="userSpaceOnUse" gradientTransform="translate(519.559 203.759) rotate(85.3036) scale(28.2195)">
<stop stop-color="#F1F1F1"/>
<stop offset="1" stop-color="#FAFAFA"/>
</radialGradient>
<radialGradient id="paint22_radial_596_994" cx="0" cy="0" r="1" gradientUnits="userSpaceOnUse" gradientTransform="translate(574.395 203.759) rotate(85.3036) scale(28.2195)">
<stop stop-color="#F1F1F1"/>
<stop offset="1" stop-color="#FAFAFA"/>
</radialGradient>
<radialGradient id="paint23_radial_596_994" cx="0" cy="0" r="1" gradientUnits="userSpaceOnUse" gradientTransform="translate(629.241 203.759) rotate(85.3036) scale(28.2195)">
<stop stop-color="#F1F1F1"/>
<stop offset="1" stop-color="#FAFAFA"/>
</radialGradient>
<radialGradient id="paint24_radial_596_994" cx="0" cy="0" r="1" gradientUnits="userSpaceOnUse" gradientTransform="translate(684.072 203.759) rotate(85.3036) scale(28.2195)">
<stop stop-color="#F1F1F1"/>
<stop offset="1" stop-color="#FAFAFA"/>
</radialGradient>
<radialGradient id="paint25_radial_596_994" cx="0" cy="0" r="1" gradientUnits="userSpaceOnUse" gradientTransform="translate(464.723 315.901) rotate(85.3036) scale(28.2195)">
<stop stop-color="#F1F1F1"/>
<stop offset="1" stop-color="#FAFAFA"/>
</radialGradient>
<radialGradient id="paint26_radial_596_994" cx="0" cy="0" r="1" gradientUnits="userSpaceOnUse" gradientTransform="translate(519.559 315.9) rotate(85.3036) scale(28.2195)">
<stop stop-color="#F1F1F1"/>
<stop offset="1" stop-color="#FAFAFA"/>
</radialGradient>
<radialGradient id="paint27_radial_596_994" cx="0" cy="0" r="1" gradientUnits="userSpaceOnUse" gradientTransform="translate(574.395 315.9) rotate(85.3036) scale(28.2195)">
<stop stop-color="#F1F1F1"/>
<stop offset="1" stop-color="#FAFAFA"/>
</radialGradient>
<radialGradient id="paint28_radial_596_994" cx="0" cy="0" r="1" gradientUnits="userSpaceOnUse" gradientTransform="translate(629.241 315.901) rotate(85.3036) scale(28.2195)">
<stop stop-color="#F1F1F1"/>
<stop offset="1" stop-color="#FAFAFA"/>
</radialGradient>
<radialGradient id="paint29_radial_596_994" cx="0" cy="0" r="1" gradientUnits="userSpaceOnUse" gradientTransform="translate(684.072 315.9) rotate(85.3036) scale(28.2195)">
<stop stop-color="#F1F1F1"/>
<stop offset="1" stop-color="#FAFAFA"/>
</radialGradient>
<radialGradient id="paint30_radial_596_994" cx="0" cy="0" r="1" gradientUnits="userSpaceOnUse" gradientTransform="translate(9.0075 444.747) rotate(85.3036) scale(17.2647)">
<stop stop-color="#F1F1F1"/>
<stop offset="1" stop-color="#FAFAFA"/>
</radialGradient>
<radialGradient id="paint31_radial_596_994" cx="0" cy="0" r="1" gradientUnits="userSpaceOnUse" gradientTransform="translate(42.5563 444.746) rotate(85.3036) scale(17.2647)">
<stop stop-color="#F1F1F1"/>
<stop offset="1" stop-color="#FAFAFA"/>
</radialGradient>
<radialGradient id="paint32_radial_596_994" cx="0" cy="0" r="1" gradientUnits="userSpaceOnUse" gradientTransform="translate(76.1052 444.746) rotate(85.3036) scale(17.2647)">
<stop stop-color="#F1F1F1"/>
<stop offset="1" stop-color="#FAFAFA"/>
</radialGradient>
<radialGradient id="paint33_radial_596_994" cx="0" cy="0" r="1" gradientUnits="userSpaceOnUse" gradientTransform="translate(109.66 444.746) rotate(85.3036) scale(17.2647)">
<stop stop-color="#F1F1F1"/>
<stop offset="1" stop-color="#FAFAFA"/>
</radialGradient>
<radialGradient id="paint34_radial_596_994" cx="0" cy="0" r="1" gradientUnits="userSpaceOnUse" gradientTransform="translate(143.206 444.746) rotate(85.3036) scale(17.2647)">
<stop stop-color="#F1F1F1"/>
<stop offset="1" stop-color="#FAFAFA"/>
</radialGradient>
<radialGradient id="paint35_radial_596_994" cx="0" cy="0" r="1" gradientUnits="userSpaceOnUse" gradientTransform="translate(176.757 444.746) rotate(85.3036) scale(17.2647)">
<stop stop-color="#F1F1F1"/>
<stop offset="1" stop-color="#FAFAFA"/>
</radialGradient>
<radialGradient id="paint36_radial_596_994" cx="0" cy="0" r="1" gradientUnits="userSpaceOnUse" gradientTransform="translate(210.308 444.746) rotate(85.3036) scale(17.2647)">
<stop stop-color="#F1F1F1"/>
<stop offset="1" stop-color="#FAFAFA"/>
</radialGradient>
<radialGradient id="paint37_radial_596_994" cx="0" cy="0" r="1" gradientUnits="userSpaceOnUse" gradientTransform="translate(243.851 444.746) rotate(85.3036) scale(17.2647)">
<stop stop-color="#F1F1F1"/>
<stop offset="1" stop-color="#FAFAFA"/>
</radialGradient>
<radialGradient id="paint38_radial_596_994" cx="0" cy="0" r="1" gradientUnits="userSpaceOnUse" gradientTransform="translate(9.0075 513.355) rotate(85.3036) scale(17.2647)">
<stop stop-color="#F1F1F1"/>
<stop offset="1" stop-color="#FAFAFA"/>
</radialGradient>
<radialGradient id="paint39_radial_596_994" cx="0" cy="0" r="1" gradientUnits="userSpaceOnUse" gradientTransform="translate(42.5563 513.355) rotate(85.3036) scale(17.2647)">
<stop stop-color="#F1F1F1"/>
<stop offset="1" stop-color="#FAFAFA"/>
</radialGradient>
<radialGradient id="paint40_radial_596_994" cx="0" cy="0" r="1" gradientUnits="userSpaceOnUse" gradientTransform="translate(76.1052 513.355) rotate(85.3036) scale(17.2647)">
<stop stop-color="#F1F1F1"/>
<stop offset="1" stop-color="#FAFAFA"/>
</radialGradient>
<radialGradient id="paint41_radial_596_994" cx="0" cy="0" r="1" gradientUnits="userSpaceOnUse" gradientTransform="translate(109.66 513.355) rotate(85.3036) scale(17.2647)">
<stop stop-color="#F1F1F1"/>
<stop offset="1" stop-color="#FAFAFA"/>
</radialGradient>
<radialGradient id="paint42_radial_596_994" cx="0" cy="0" r="1" gradientUnits="userSpaceOnUse" gradientTransform="translate(143.206 513.355) rotate(85.3036) scale(17.2647)">
<stop stop-color="#F1F1F1"/>
<stop offset="1" stop-color="#FAFAFA"/>
</radialGradient>
<radialGradient id="paint43_radial_596_994" cx="0" cy="0" r="1" gradientUnits="userSpaceOnUse" gradientTransform="translate(176.757 513.355) rotate(85.3036) scale(17.2647)">
<stop stop-color="#F1F1F1"/>
<stop offset="1" stop-color="#FAFAFA"/>
</radialGradient>
<radialGradient id="paint44_radial_596_994" cx="0" cy="0" r="1" gradientUnits="userSpaceOnUse" gradientTransform="translate(210.308 513.355) rotate(85.3036) scale(17.2647)">
<stop stop-color="#F1F1F1"/>
<stop offset="1" stop-color="#FAFAFA"/>
</radialGradient>
<radialGradient id="paint45_radial_596_994" cx="0" cy="0" r="1" gradientUnits="userSpaceOnUse" gradientTransform="translate(243.851 513.355) rotate(85.3036) scale(17.2647)">
<stop stop-color="#F1F1F1"/>
<stop offset="1" stop-color="#FAFAFA"/>
</radialGradient>
<radialGradient id="paint46_radial_596_994" cx="0" cy="0" r="1" gradientUnits="userSpaceOnUse" gradientTransform="translate(9.0075 581.964) rotate(85.3036) scale(17.2647)">
<stop stop-color="#F1F1F1"/>
<stop offset="1" stop-color="#FAFAFA"/>
</radialGradient>
<radialGradient id="paint47_radial_596_994" cx="0" cy="0" r="1" gradientUnits="userSpaceOnUse" gradientTransform="translate(42.5563 581.964) rotate(85.3036) scale(17.2647)">
<stop stop-color="#F1F1F1"/>
<stop offset="1" stop-color="#FAFAFA"/>
</radialGradient>
<radialGradient id="paint48_radial_596_994" cx="0" cy="0" r="1" gradientUnits="userSpaceOnUse" gradientTransform="translate(76.1052 581.964) rotate(85.3036) scale(17.2647)">
<stop stop-color="#F1F1F1"/>
<stop offset="1" stop-color="#FAFAFA"/>
</radialGradient>
<radialGradient id="paint49_radial_596_994" cx="0" cy="0" r="1" gradientUnits="userSpaceOnUse" gradientTransform="translate(109.659 581.964) rotate(85.3036) scale(17.2647)">
<stop stop-color="#F1F1F1"/>
<stop offset="1" stop-color="#FAFAFA"/>
</radialGradient>
<radialGradient id="paint50_radial_596_994" cx="0" cy="0" r="1" gradientUnits="userSpaceOnUse" gradientTransform="translate(143.206 581.964) rotate(85.3036) scale(17.2647)">
<stop stop-color="#F1F1F1"/>
<stop offset="1" stop-color="#FAFAFA"/>
</radialGradient>
<radialGradient id="paint51_radial_596_994" cx="0" cy="0" r="1" gradientUnits="userSpaceOnUse" gradientTransform="translate(176.757 581.964) rotate(85.3036) scale(17.2647)">
<stop stop-color="#F1F1F1"/>
<stop offset="1" stop-color="#FAFAFA"/>
</radialGradient>
<radialGradient id="paint52_radial_596_994" cx="0" cy="0" r="1" gradientUnits="userSpaceOnUse" gradientTransform="translate(210.308 581.964) rotate(85.3036) scale(17.2647)">
<stop stop-color="#F1F1F1"/>
<stop offset="1" stop-color="#FAFAFA"/>
</radialGradient>
<radialGradient id="paint53_radial_596_994" cx="0" cy="0" r="1" gradientUnits="userSpaceOnUse" gradientTransform="translate(243.851 581.964) rotate(85.3036) scale(17.2647)">
<stop stop-color="#F1F1F1"/>
<stop offset="1" stop-color="#FAFAFA"/>
</radialGradient>
<radialGradient id="paint54_radial_596_994" cx="0" cy="0" r="1" gradientUnits="userSpaceOnUse" gradientTransform="translate(9.0075 479.051) rotate(85.3036) scale(17.2647)">
<stop stop-color="#F1F1F1"/>
<stop offset="1" stop-color="#FAFAFA"/>
</radialGradient>
<radialGradient id="paint55_radial_596_994" cx="0" cy="0" r="1" gradientUnits="userSpaceOnUse" gradientTransform="translate(42.5563 479.05) rotate(85.3036) scale(17.2647)">
<stop stop-color="#F1F1F1"/>
<stop offset="1" stop-color="#FAFAFA"/>
</radialGradient>
<radialGradient id="paint56_radial_596_994" cx="0" cy="0" r="1" gradientUnits="userSpaceOnUse" gradientTransform="translate(76.1052 479.05) rotate(85.3036) scale(17.2647)">
<stop stop-color="#F1F1F1"/>
<stop offset="1" stop-color="#FAFAFA"/>
</radialGradient>
<radialGradient id="paint57_radial_596_994" cx="0" cy="0" r="1" gradientUnits="userSpaceOnUse" gradientTransform="translate(109.66 479.05) rotate(85.3036) scale(17.2647)">
<stop stop-color="#F1F1F1"/>
<stop offset="1" stop-color="#FAFAFA"/>
</radialGradient>
<radialGradient id="paint58_radial_596_994" cx="0" cy="0" r="1" gradientUnits="userSpaceOnUse" gradientTransform="translate(143.206 479.05) rotate(85.3036) scale(17.2647)">
<stop stop-color="#F1F1F1"/>
<stop offset="1" stop-color="#FAFAFA"/>
</radialGradient>
<radialGradient id="paint59_radial_596_994" cx="0" cy="0" r="1" gradientUnits="userSpaceOnUse" gradientTransform="translate(176.757 479.05) rotate(85.3036) scale(17.2647)">
<stop stop-color="#F1F1F1"/>
<stop offset="1" stop-color="#FAFAFA"/>
</radialGradient>
<radialGradient id="paint60_radial_596_994" cx="0" cy="0" r="1" gradientUnits="userSpaceOnUse" gradientTransform="translate(210.308 479.05) rotate(85.3036) scale(17.2647)">
<stop stop-color="#F1F1F1"/>
<stop offset="1" stop-color="#FAFAFA"/>
</radialGradient>
<radialGradient id="paint61_radial_596_994" cx="0" cy="0" r="1" gradientUnits="userSpaceOnUse" gradientTransform="translate(243.851 479.05) rotate(85.3036) scale(17.2647)">
<stop stop-color="#F1F1F1"/>
<stop offset="1" stop-color="#FAFAFA"/>
</radialGradient>
<radialGradient id="paint62_radial_596_994" cx="0" cy="0" r="1" gradientUnits="userSpaceOnUse" gradientTransform="translate(9.0075 547.66) rotate(85.3036) scale(17.2647)">
<stop stop-color="#F1F1F1"/>
<stop offset="1" stop-color="#FAFAFA"/>
</radialGradient>
<radialGradient id="paint63_radial_596_994" cx="0" cy="0" r="1" gradientUnits="userSpaceOnUse" gradientTransform="translate(42.5563 547.66) rotate(85.3036) scale(17.2647)">
<stop stop-color="#F1F1F1"/>
<stop offset="1" stop-color="#FAFAFA"/>
</radialGradient>
<radialGradient id="paint64_radial_596_994" cx="0" cy="0" r="1" gradientUnits="userSpaceOnUse" gradientTransform="translate(76.1052 547.66) rotate(85.3036) scale(17.2647)">
<stop stop-color="#F1F1F1"/>
<stop offset="1" stop-color="#FAFAFA"/>
</radialGradient>
<radialGradient id="paint65_radial_596_994" cx="0" cy="0" r="1" gradientUnits="userSpaceOnUse" gradientTransform="translate(109.66 547.66) rotate(85.3036) scale(17.2647)">
<stop stop-color="#F1F1F1"/>
<stop offset="1" stop-color="#FAFAFA"/>
</radialGradient>
<radialGradient id="paint66_radial_596_994" cx="0" cy="0" r="1" gradientUnits="userSpaceOnUse" gradientTransform="translate(143.206 547.66) rotate(85.3036) scale(17.2647)">
<stop stop-color="#F1F1F1"/>
<stop offset="1" stop-color="#FAFAFA"/>
</radialGradient>
<radialGradient id="paint67_radial_596_994" cx="0" cy="0" r="1" gradientUnits="userSpaceOnUse" gradientTransform="translate(176.757 547.66) rotate(85.3036) scale(17.2647)">
<stop stop-color="#F1F1F1"/>
<stop offset="1" stop-color="#FAFAFA"/>
</radialGradient>
<radialGradient id="paint68_radial_596_994" cx="0" cy="0" r="1" gradientUnits="userSpaceOnUse" gradientTransform="translate(210.308 547.66) rotate(85.3036) scale(17.2647)">
<stop stop-color="#F1F1F1"/>
<stop offset="1" stop-color="#FAFAFA"/>
</radialGradient>
<radialGradient id="paint69_radial_596_994" cx="0" cy="0" r="1" gradientUnits="userSpaceOnUse" gradientTransform="translate(243.851 547.66) rotate(85.3036) scale(17.2647)">
<stop stop-color="#F1F1F1"/>
<stop offset="1" stop-color="#FAFAFA"/>
</radialGradient>
<radialGradient id="paint70_radial_596_994" cx="0" cy="0" r="1" gradientUnits="userSpaceOnUse" gradientTransform="translate(9.0075 616.269) rotate(85.3036) scale(17.2647)">
<stop stop-color="#F1F1F1"/>
<stop offset="1" stop-color="#FAFAFA"/>
</radialGradient>
<radialGradient id="paint71_radial_596_994" cx="0" cy="0" r="1" gradientUnits="userSpaceOnUse" gradientTransform="translate(42.5563 616.268) rotate(85.3036) scale(17.2647)">
<stop stop-color="#F1F1F1"/>
<stop offset="1" stop-color="#FAFAFA"/>
</radialGradient>
<radialGradient id="paint72_radial_596_994" cx="0" cy="0" r="1" gradientUnits="userSpaceOnUse" gradientTransform="translate(76.1052 616.268) rotate(85.3036) scale(17.2647)">
<stop stop-color="#F1F1F1"/>
<stop offset="1" stop-color="#FAFAFA"/>
</radialGradient>
<radialGradient id="paint73_radial_596_994" cx="0" cy="0" r="1" gradientUnits="userSpaceOnUse" gradientTransform="translate(109.66 616.269) rotate(85.3036) scale(17.2647)">
<stop stop-color="#F1F1F1"/>
<stop offset="1" stop-color="#FAFAFA"/>
</radialGradient>
<radialGradient id="paint74_radial_596_994" cx="0" cy="0" r="1" gradientUnits="userSpaceOnUse" gradientTransform="translate(143.206 616.268) rotate(85.3036) scale(17.2647)">
<stop stop-color="#F1F1F1"/>
<stop offset="1" stop-color="#FAFAFA"/>
</radialGradient>
<radialGradient id="paint75_radial_596_994" cx="0" cy="0" r="1" gradientUnits="userSpaceOnUse" gradientTransform="translate(176.757 616.268) rotate(85.3036) scale(17.2647)">
<stop stop-color="#F1F1F1"/>
<stop offset="1" stop-color="#FAFAFA"/>
</radialGradient>
<radialGradient id="paint76_radial_596_994" cx="0" cy="0" r="1" gradientUnits="userSpaceOnUse" gradientTransform="translate(210.308 616.268) rotate(85.3036) scale(17.2647)">
<stop stop-color="#F1F1F1"/>
<stop offset="1" stop-color="#FAFAFA"/>
</radialGradient>
<radialGradient id="paint77_radial_596_994" cx="0" cy="0" r="1" gradientUnits="userSpaceOnUse" gradientTransform="translate(243.851 616.268) rotate(85.3036) scale(17.2647)">
<stop stop-color="#F1F1F1"/>
<stop offset="1" stop-color="#FAFAFA"/>
</radialGradient>
</defs>
</svg>
