<svg width="1920" height="1742" viewBox="0 0 1920 1742" fill="none" xmlns="http://www.w3.org/2000/svg">
<rect opacity="0.15" x="-298" y="485.587" width="724.907" height="724.907" rx="67.4765" transform="rotate(-45 -298 485.587)" fill="url(#paint0_radial_1095_516)"/>
<g opacity="0.5">
<rect x="1328" y="752.057" width="26.9497" height="26.9497" rx="6.03738" transform="rotate(-45 1328 752.057)" fill="url(#paint1_radial_1095_516)"/>
<rect x="1378.19" y="752.056" width="26.9497" height="26.9497" rx="6.03738" transform="rotate(-45 1378.19 752.056)" fill="url(#paint2_radial_1095_516)"/>
<rect x="1428.37" y="752.056" width="26.9497" height="26.9497" rx="6.03738" transform="rotate(-45 1428.37 752.056)" fill="url(#paint3_radial_1095_516)"/>
<rect x="1478.57" y="752.056" width="26.9497" height="26.9497" rx="6.03738" transform="rotate(-45 1478.57 752.056)" fill="url(#paint4_radial_1095_516)"/>
<rect x="1528.75" y="752.056" width="26.9497" height="26.9497" rx="6.03738" transform="rotate(-45 1528.75 752.056)" fill="url(#paint5_radial_1095_516)"/>
<rect x="1578.95" y="752.056" width="26.9497" height="26.9497" rx="6.03738" transform="rotate(-45 1578.95 752.056)" fill="url(#paint6_radial_1095_516)"/>
<rect x="1629.14" y="752.056" width="26.9497" height="26.9497" rx="6.03738" transform="rotate(-45 1629.14 752.056)" fill="url(#paint7_radial_1095_516)"/>
<rect x="1679.32" y="752.056" width="26.9497" height="26.9497" rx="6.03738" transform="rotate(-45 1679.32 752.056)" fill="url(#paint8_radial_1095_516)"/>
</g>
<g opacity="0.5">
<rect x="1328" y="854.693" width="26.9497" height="26.9497" rx="6.03738" transform="rotate(-45 1328 854.693)" fill="url(#paint9_radial_1095_516)"/>
<rect x="1378.19" y="854.693" width="26.9497" height="26.9497" rx="6.03738" transform="rotate(-45 1378.19 854.693)" fill="url(#paint10_radial_1095_516)"/>
<rect x="1428.37" y="854.693" width="26.9497" height="26.9497" rx="6.03738" transform="rotate(-45 1428.37 854.693)" fill="url(#paint11_radial_1095_516)"/>
<rect x="1478.57" y="854.693" width="26.9497" height="26.9497" rx="6.03738" transform="rotate(-45 1478.57 854.693)" fill="url(#paint12_radial_1095_516)"/>
<rect x="1528.75" y="854.693" width="26.9497" height="26.9497" rx="6.03738" transform="rotate(-45 1528.75 854.693)" fill="url(#paint13_radial_1095_516)"/>
<rect x="1578.95" y="854.693" width="26.9497" height="26.9497" rx="6.03738" transform="rotate(-45 1578.95 854.693)" fill="url(#paint14_radial_1095_516)"/>
<rect x="1629.14" y="854.693" width="26.9497" height="26.9497" rx="6.03738" transform="rotate(-45 1629.14 854.693)" fill="url(#paint15_radial_1095_516)"/>
<rect x="1679.32" y="854.693" width="26.9497" height="26.9497" rx="6.03738" transform="rotate(-45 1679.32 854.693)" fill="url(#paint16_radial_1095_516)"/>
</g>
<g opacity="0.5">
<rect x="1328" y="957.328" width="26.9497" height="26.9497" rx="6.03738" transform="rotate(-45 1328 957.328)" fill="url(#paint17_radial_1095_516)"/>
<rect x="1378.19" y="957.328" width="26.9497" height="26.9497" rx="6.03738" transform="rotate(-45 1378.19 957.328)" fill="url(#paint18_radial_1095_516)"/>
<rect x="1428.37" y="957.328" width="26.9497" height="26.9497" rx="6.03738" transform="rotate(-45 1428.37 957.328)" fill="url(#paint19_radial_1095_516)"/>
<rect x="1478.57" y="957.328" width="26.9497" height="26.9497" rx="6.03738" transform="rotate(-45 1478.57 957.328)" fill="url(#paint20_radial_1095_516)"/>
<rect x="1528.75" y="957.328" width="26.9497" height="26.9497" rx="6.03738" transform="rotate(-45 1528.75 957.328)" fill="url(#paint21_radial_1095_516)"/>
<rect x="1578.95" y="957.328" width="26.9497" height="26.9497" rx="6.03738" transform="rotate(-45 1578.95 957.328)" fill="url(#paint22_radial_1095_516)"/>
<rect x="1629.14" y="957.328" width="26.9497" height="26.9497" rx="6.03738" transform="rotate(-45 1629.14 957.328)" fill="url(#paint23_radial_1095_516)"/>
<rect x="1679.32" y="957.328" width="26.9497" height="26.9497" rx="6.03738" transform="rotate(-45 1679.32 957.328)" fill="url(#paint24_radial_1095_516)"/>
</g>
<g opacity="0.5">
<rect x="1328" y="803.374" width="26.9497" height="26.9497" rx="6.03738" transform="rotate(-45 1328 803.374)" fill="url(#paint25_radial_1095_516)"/>
<rect x="1378.19" y="803.374" width="26.9497" height="26.9497" rx="6.03738" transform="rotate(-45 1378.19 803.374)" fill="url(#paint26_radial_1095_516)"/>
<rect x="1428.37" y="803.374" width="26.9497" height="26.9497" rx="6.03738" transform="rotate(-45 1428.37 803.374)" fill="url(#paint27_radial_1095_516)"/>
<rect x="1478.57" y="803.374" width="26.9497" height="26.9497" rx="6.03738" transform="rotate(-45 1478.57 803.374)" fill="url(#paint28_radial_1095_516)"/>
<rect x="1528.75" y="803.374" width="26.9497" height="26.9497" rx="6.03738" transform="rotate(-45 1528.75 803.374)" fill="url(#paint29_radial_1095_516)"/>
<rect x="1578.95" y="803.374" width="26.9497" height="26.9497" rx="6.03738" transform="rotate(-45 1578.95 803.374)" fill="url(#paint30_radial_1095_516)"/>
<rect x="1629.14" y="803.374" width="26.9497" height="26.9497" rx="6.03738" transform="rotate(-45 1629.14 803.374)" fill="url(#paint31_radial_1095_516)"/>
<rect x="1679.32" y="803.374" width="26.9497" height="26.9497" rx="6.03738" transform="rotate(-45 1679.32 803.374)" fill="url(#paint32_radial_1095_516)"/>
</g>
<g opacity="0.5">
<rect x="1328" y="906.011" width="26.9497" height="26.9497" rx="6.03738" transform="rotate(-45 1328 906.011)" fill="url(#paint33_radial_1095_516)"/>
<rect x="1378.19" y="906.011" width="26.9497" height="26.9497" rx="6.03738" transform="rotate(-45 1378.19 906.011)" fill="url(#paint34_radial_1095_516)"/>
<rect x="1428.38" y="906.011" width="26.9497" height="26.9497" rx="6.03738" transform="rotate(-45 1428.38 906.011)" fill="url(#paint35_radial_1095_516)"/>
<rect x="1478.57" y="906.011" width="26.9497" height="26.9497" rx="6.03738" transform="rotate(-45 1478.57 906.011)" fill="url(#paint36_radial_1095_516)"/>
<rect x="1528.75" y="906.011" width="26.9497" height="26.9497" rx="6.03738" transform="rotate(-45 1528.75 906.011)" fill="url(#paint37_radial_1095_516)"/>
<rect x="1578.95" y="906.011" width="26.9497" height="26.9497" rx="6.03738" transform="rotate(-45 1578.95 906.011)" fill="url(#paint38_radial_1095_516)"/>
<rect x="1629.14" y="906.011" width="26.9497" height="26.9497" rx="6.03738" transform="rotate(-45 1629.14 906.011)" fill="url(#paint39_radial_1095_516)"/>
<rect x="1679.32" y="906.011" width="26.9497" height="26.9497" rx="6.03738" transform="rotate(-45 1679.32 906.011)" fill="url(#paint40_radial_1095_516)"/>
</g>
<g opacity="0.5">
<rect x="1328" y="1008.65" width="26.9497" height="26.9497" rx="6.03738" transform="rotate(-45 1328 1008.65)" fill="url(#paint41_radial_1095_516)"/>
<rect x="1378.19" y="1008.65" width="26.9497" height="26.9497" rx="6.03738" transform="rotate(-45 1378.19 1008.65)" fill="url(#paint42_radial_1095_516)"/>
<rect x="1428.37" y="1008.65" width="26.9497" height="26.9497" rx="6.03738" transform="rotate(-45 1428.37 1008.65)" fill="url(#paint43_radial_1095_516)"/>
<rect x="1478.57" y="1008.65" width="26.9497" height="26.9497" rx="6.03738" transform="rotate(-45 1478.57 1008.65)" fill="url(#paint44_radial_1095_516)"/>
<rect x="1528.75" y="1008.65" width="26.9497" height="26.9497" rx="6.03738" transform="rotate(-45 1528.75 1008.65)" fill="url(#paint45_radial_1095_516)"/>
<rect x="1578.95" y="1008.65" width="26.9497" height="26.9497" rx="6.03738" transform="rotate(-45 1578.95 1008.65)" fill="url(#paint46_radial_1095_516)"/>
<rect x="1629.14" y="1008.65" width="26.9497" height="26.9497" rx="6.03738" transform="rotate(-45 1629.14 1008.65)" fill="url(#paint47_radial_1095_516)"/>
<rect x="1679.32" y="1008.65" width="26.9497" height="26.9497" rx="6.03738" transform="rotate(-45 1679.32 1008.65)" fill="url(#paint48_radial_1095_516)"/>
</g>
<rect opacity="0.15" x="1145" y="593.869" width="412.764" height="412.764" rx="38.4214" transform="rotate(-45 1145 593.869)" fill="url(#paint49_radial_1095_516)"/>
<g opacity="0.5">
<rect x="83" y="657.057" width="26.9497" height="26.9497" rx="6.03738" transform="rotate(-45 83 657.057)" fill="url(#paint50_radial_1095_516)" fill-opacity="0.6"/>
<rect x="133.188" y="657.056" width="26.9497" height="26.9497" rx="6.03738" transform="rotate(-45 133.188 657.056)" fill="url(#paint51_radial_1095_516)" fill-opacity="0.6"/>
<rect x="183.375" y="657.056" width="26.9497" height="26.9497" rx="6.03738" transform="rotate(-45 183.375 657.056)" fill="url(#paint52_radial_1095_516)" fill-opacity="0.6"/>
<rect x="233.57" y="657.056" width="26.9497" height="26.9497" rx="6.03738" transform="rotate(-45 233.57 657.056)" fill="url(#paint53_radial_1095_516)" fill-opacity="0.6"/>
<rect x="283.754" y="657.056" width="26.9497" height="26.9497" rx="6.03738" transform="rotate(-45 283.754 657.056)" fill="url(#paint54_radial_1095_516)" fill-opacity="0.6"/>
<rect x="333.945" y="657.056" width="26.9497" height="26.9497" rx="6.03738" transform="rotate(-45 333.945 657.056)" fill="url(#paint55_radial_1095_516)" fill-opacity="0.6"/>
<rect x="384.137" y="657.056" width="26.9497" height="26.9497" rx="6.03738" transform="rotate(-45 384.137 657.056)" fill="url(#paint56_radial_1095_516)" fill-opacity="0.6"/>
<rect x="434.316" y="657.056" width="26.9497" height="26.9497" rx="6.03738" transform="rotate(-45 434.316 657.056)" fill="url(#paint57_radial_1095_516)" fill-opacity="0.6"/>
</g>
<g opacity="0.5">
<rect x="83" y="759.693" width="26.9497" height="26.9497" rx="6.03738" transform="rotate(-45 83 759.693)" fill="url(#paint58_radial_1095_516)" fill-opacity="0.6"/>
<rect x="133.188" y="759.693" width="26.9497" height="26.9497" rx="6.03738" transform="rotate(-45 133.188 759.693)" fill="url(#paint59_radial_1095_516)" fill-opacity="0.6"/>
<rect x="183.375" y="759.693" width="26.9497" height="26.9497" rx="6.03738" transform="rotate(-45 183.375 759.693)" fill="url(#paint60_radial_1095_516)" fill-opacity="0.6"/>
<rect x="233.57" y="759.693" width="26.9497" height="26.9497" rx="6.03738" transform="rotate(-45 233.57 759.693)" fill="url(#paint61_radial_1095_516)" fill-opacity="0.6"/>
<rect x="283.754" y="759.693" width="26.9497" height="26.9497" rx="6.03738" transform="rotate(-45 283.754 759.693)" fill="url(#paint62_radial_1095_516)" fill-opacity="0.6"/>
<rect x="333.945" y="759.693" width="26.9497" height="26.9497" rx="6.03738" transform="rotate(-45 333.945 759.693)" fill="url(#paint63_radial_1095_516)" fill-opacity="0.6"/>
<rect x="384.137" y="759.693" width="26.9497" height="26.9497" rx="6.03738" transform="rotate(-45 384.137 759.693)" fill="url(#paint64_radial_1095_516)" fill-opacity="0.6"/>
<rect x="434.316" y="759.693" width="26.9497" height="26.9497" rx="6.03738" transform="rotate(-45 434.316 759.693)" fill="url(#paint65_radial_1095_516)" fill-opacity="0.6"/>
</g>
<g opacity="0.5">
<rect x="83" y="862.328" width="26.9497" height="26.9497" rx="6.03738" transform="rotate(-45 83 862.328)" fill="url(#paint66_radial_1095_516)" fill-opacity="0.6"/>
<rect x="133.188" y="862.328" width="26.9497" height="26.9497" rx="6.03738" transform="rotate(-45 133.188 862.328)" fill="url(#paint67_radial_1095_516)" fill-opacity="0.6"/>
<rect x="183.375" y="862.328" width="26.9497" height="26.9497" rx="6.03738" transform="rotate(-45 183.375 862.328)" fill="url(#paint68_radial_1095_516)" fill-opacity="0.6"/>
<rect x="233.57" y="862.328" width="26.9497" height="26.9497" rx="6.03738" transform="rotate(-45 233.57 862.328)" fill="url(#paint69_radial_1095_516)" fill-opacity="0.6"/>
<rect x="283.754" y="862.328" width="26.9497" height="26.9497" rx="6.03738" transform="rotate(-45 283.754 862.328)" fill="url(#paint70_radial_1095_516)" fill-opacity="0.6"/>
<rect x="333.945" y="862.328" width="26.9497" height="26.9497" rx="6.03738" transform="rotate(-45 333.945 862.328)" fill="url(#paint71_radial_1095_516)" fill-opacity="0.6"/>
<rect x="384.137" y="862.328" width="26.9497" height="26.9497" rx="6.03738" transform="rotate(-45 384.137 862.328)" fill="url(#paint72_radial_1095_516)" fill-opacity="0.6"/>
<rect x="434.316" y="862.328" width="26.9497" height="26.9497" rx="6.03738" transform="rotate(-45 434.316 862.328)" fill="url(#paint73_radial_1095_516)" fill-opacity="0.6"/>
</g>
<g opacity="0.5">
<rect x="83" y="708.374" width="26.9497" height="26.9497" rx="6.03738" transform="rotate(-45 83 708.374)" fill="url(#paint74_radial_1095_516)" fill-opacity="0.6"/>
<rect x="133.188" y="708.374" width="26.9497" height="26.9497" rx="6.03738" transform="rotate(-45 133.188 708.374)" fill="url(#paint75_radial_1095_516)" fill-opacity="0.6"/>
<rect x="183.375" y="708.374" width="26.9497" height="26.9497" rx="6.03738" transform="rotate(-45 183.375 708.374)" fill="url(#paint76_radial_1095_516)" fill-opacity="0.6"/>
<rect x="233.57" y="708.374" width="26.9497" height="26.9497" rx="6.03738" transform="rotate(-45 233.57 708.374)" fill="url(#paint77_radial_1095_516)" fill-opacity="0.6"/>
<rect x="283.754" y="708.374" width="26.9497" height="26.9497" rx="6.03738" transform="rotate(-45 283.754 708.374)" fill="url(#paint78_radial_1095_516)" fill-opacity="0.6"/>
<rect x="333.945" y="708.374" width="26.9497" height="26.9497" rx="6.03738" transform="rotate(-45 333.945 708.374)" fill="url(#paint79_radial_1095_516)" fill-opacity="0.6"/>
<rect x="384.137" y="708.374" width="26.9497" height="26.9497" rx="6.03738" transform="rotate(-45 384.137 708.374)" fill="url(#paint80_radial_1095_516)" fill-opacity="0.6"/>
<rect x="434.316" y="708.374" width="26.9497" height="26.9497" rx="6.03738" transform="rotate(-45 434.316 708.374)" fill="url(#paint81_radial_1095_516)" fill-opacity="0.6"/>
</g>
<g opacity="0.5">
<rect x="83" y="811.011" width="26.9497" height="26.9497" rx="6.03738" transform="rotate(-45 83 811.011)" fill="url(#paint82_radial_1095_516)" fill-opacity="0.6"/>
<rect x="133.188" y="811.011" width="26.9497" height="26.9497" rx="6.03738" transform="rotate(-45 133.188 811.011)" fill="url(#paint83_radial_1095_516)" fill-opacity="0.6"/>
<rect x="183.375" y="811.011" width="26.9497" height="26.9497" rx="6.03738" transform="rotate(-45 183.375 811.011)" fill="url(#paint84_radial_1095_516)" fill-opacity="0.6"/>
<rect x="233.57" y="811.011" width="26.9497" height="26.9497" rx="6.03738" transform="rotate(-45 233.57 811.011)" fill="url(#paint85_radial_1095_516)" fill-opacity="0.6"/>
<rect x="283.754" y="811.011" width="26.9497" height="26.9497" rx="6.03738" transform="rotate(-45 283.754 811.011)" fill="url(#paint86_radial_1095_516)" fill-opacity="0.6"/>
<rect x="333.945" y="811.011" width="26.9497" height="26.9497" rx="6.03738" transform="rotate(-45 333.945 811.011)" fill="url(#paint87_radial_1095_516)" fill-opacity="0.6"/>
<rect x="384.137" y="811.011" width="26.9497" height="26.9497" rx="6.03738" transform="rotate(-45 384.137 811.011)" fill="url(#paint88_radial_1095_516)" fill-opacity="0.6"/>
<rect x="434.316" y="811.011" width="26.9497" height="26.9497" rx="6.03738" transform="rotate(-45 434.316 811.011)" fill="url(#paint89_radial_1095_516)" fill-opacity="0.6"/>
</g>
<g opacity="0.5">
<rect x="83" y="913.646" width="26.9497" height="26.9497" rx="6.03738" transform="rotate(-45 83 913.646)" fill="url(#paint90_radial_1095_516)" fill-opacity="0.6"/>
<rect x="133.188" y="913.646" width="26.9497" height="26.9497" rx="6.03738" transform="rotate(-45 133.188 913.646)" fill="url(#paint91_radial_1095_516)" fill-opacity="0.6"/>
<rect x="183.375" y="913.646" width="26.9497" height="26.9497" rx="6.03738" transform="rotate(-45 183.375 913.646)" fill="url(#paint92_radial_1095_516)" fill-opacity="0.6"/>
<rect x="233.57" y="913.646" width="26.9497" height="26.9497" rx="6.03738" transform="rotate(-45 233.57 913.646)" fill="url(#paint93_radial_1095_516)" fill-opacity="0.6"/>
<rect x="283.754" y="913.646" width="26.9497" height="26.9497" rx="6.03738" transform="rotate(-45 283.754 913.646)" fill="url(#paint94_radial_1095_516)" fill-opacity="0.6"/>
<rect x="333.945" y="913.646" width="26.9497" height="26.9497" rx="6.03738" transform="rotate(-45 333.945 913.646)" fill="url(#paint95_radial_1095_516)" fill-opacity="0.6"/>
<rect x="384.137" y="913.646" width="26.9497" height="26.9497" rx="6.03738" transform="rotate(-45 384.137 913.646)" fill="url(#paint96_radial_1095_516)" fill-opacity="0.6"/>
<rect x="434.316" y="913.646" width="26.9497" height="26.9497" rx="6.03738" transform="rotate(-45 434.316 913.646)" fill="url(#paint97_radial_1095_516)" fill-opacity="0.6"/>
</g>
<rect opacity="0.15" x="1065" y="1256.59" width="724.907" height="724.907" rx="67.4765" transform="rotate(-45 1065 1256.59)" fill="url(#paint98_radial_1095_516)"/>
<defs>
<radialGradient id="paint0_radial_1095_516" cx="0" cy="0" r="1" gradientUnits="userSpaceOnUse" gradientTransform="translate(64.4537 848.041) rotate(85.3036) scale(694.717)">
<stop stop-color="#DADADA"/>
<stop offset="1" stop-color="#FAFAFA"/>
</radialGradient>
<radialGradient id="paint1_radial_1095_516" cx="0" cy="0" r="1" gradientUnits="userSpaceOnUse" gradientTransform="translate(1341.47 765.531) rotate(85.3036) scale(25.8273)">
<stop stop-color="#F1F1F1"/>
<stop offset="1" stop-color="#FAFAFA"/>
</radialGradient>
<radialGradient id="paint2_radial_1095_516" cx="0" cy="0" r="1" gradientUnits="userSpaceOnUse" gradientTransform="translate(1391.66 765.531) rotate(85.3036) scale(25.8273)">
<stop stop-color="#F1F1F1"/>
<stop offset="1" stop-color="#FAFAFA"/>
</radialGradient>
<radialGradient id="paint3_radial_1095_516" cx="0" cy="0" r="1" gradientUnits="userSpaceOnUse" gradientTransform="translate(1441.85 765.531) rotate(85.3036) scale(25.8273)">
<stop stop-color="#F1F1F1"/>
<stop offset="1" stop-color="#FAFAFA"/>
</radialGradient>
<radialGradient id="paint4_radial_1095_516" cx="0" cy="0" r="1" gradientUnits="userSpaceOnUse" gradientTransform="translate(1492.05 765.531) rotate(85.3036) scale(25.8273)">
<stop stop-color="#F1F1F1"/>
<stop offset="1" stop-color="#FAFAFA"/>
</radialGradient>
<radialGradient id="paint5_radial_1095_516" cx="0" cy="0" r="1" gradientUnits="userSpaceOnUse" gradientTransform="translate(1542.23 765.531) rotate(85.3036) scale(25.8273)">
<stop stop-color="#F1F1F1"/>
<stop offset="1" stop-color="#FAFAFA"/>
</radialGradient>
<radialGradient id="paint6_radial_1095_516" cx="0" cy="0" r="1" gradientUnits="userSpaceOnUse" gradientTransform="translate(1592.42 765.531) rotate(85.3036) scale(25.8273)">
<stop stop-color="#F1F1F1"/>
<stop offset="1" stop-color="#FAFAFA"/>
</radialGradient>
<radialGradient id="paint7_radial_1095_516" cx="0" cy="0" r="1" gradientUnits="userSpaceOnUse" gradientTransform="translate(1642.61 765.531) rotate(85.3036) scale(25.8273)">
<stop stop-color="#F1F1F1"/>
<stop offset="1" stop-color="#FAFAFA"/>
</radialGradient>
<radialGradient id="paint8_radial_1095_516" cx="0" cy="0" r="1" gradientUnits="userSpaceOnUse" gradientTransform="translate(1692.79 765.531) rotate(85.3036) scale(25.8273)">
<stop stop-color="#F1F1F1"/>
<stop offset="1" stop-color="#FAFAFA"/>
</radialGradient>
<radialGradient id="paint9_radial_1095_516" cx="0" cy="0" r="1" gradientUnits="userSpaceOnUse" gradientTransform="translate(1341.47 868.168) rotate(85.3036) scale(25.8273)">
<stop stop-color="#F1F1F1"/>
<stop offset="1" stop-color="#FAFAFA"/>
</radialGradient>
<radialGradient id="paint10_radial_1095_516" cx="0" cy="0" r="1" gradientUnits="userSpaceOnUse" gradientTransform="translate(1391.66 868.168) rotate(85.3036) scale(25.8273)">
<stop stop-color="#F1F1F1"/>
<stop offset="1" stop-color="#FAFAFA"/>
</radialGradient>
<radialGradient id="paint11_radial_1095_516" cx="0" cy="0" r="1" gradientUnits="userSpaceOnUse" gradientTransform="translate(1441.85 868.168) rotate(85.3036) scale(25.8273)">
<stop stop-color="#F1F1F1"/>
<stop offset="1" stop-color="#FAFAFA"/>
</radialGradient>
<radialGradient id="paint12_radial_1095_516" cx="0" cy="0" r="1" gradientUnits="userSpaceOnUse" gradientTransform="translate(1492.05 868.168) rotate(85.3036) scale(25.8273)">
<stop stop-color="#F1F1F1"/>
<stop offset="1" stop-color="#FAFAFA"/>
</radialGradient>
<radialGradient id="paint13_radial_1095_516" cx="0" cy="0" r="1" gradientUnits="userSpaceOnUse" gradientTransform="translate(1542.23 868.168) rotate(85.3036) scale(25.8273)">
<stop stop-color="#F1F1F1"/>
<stop offset="1" stop-color="#FAFAFA"/>
</radialGradient>
<radialGradient id="paint14_radial_1095_516" cx="0" cy="0" r="1" gradientUnits="userSpaceOnUse" gradientTransform="translate(1592.42 868.168) rotate(85.3036) scale(25.8273)">
<stop stop-color="#F1F1F1"/>
<stop offset="1" stop-color="#FAFAFA"/>
</radialGradient>
<radialGradient id="paint15_radial_1095_516" cx="0" cy="0" r="1" gradientUnits="userSpaceOnUse" gradientTransform="translate(1642.61 868.168) rotate(85.3036) scale(25.8273)">
<stop stop-color="#F1F1F1"/>
<stop offset="1" stop-color="#FAFAFA"/>
</radialGradient>
<radialGradient id="paint16_radial_1095_516" cx="0" cy="0" r="1" gradientUnits="userSpaceOnUse" gradientTransform="translate(1692.79 868.168) rotate(85.3036) scale(25.8273)">
<stop stop-color="#F1F1F1"/>
<stop offset="1" stop-color="#FAFAFA"/>
</radialGradient>
<radialGradient id="paint17_radial_1095_516" cx="0" cy="0" r="1" gradientUnits="userSpaceOnUse" gradientTransform="translate(1341.47 970.803) rotate(85.3036) scale(25.8273)">
<stop stop-color="#F1F1F1"/>
<stop offset="1" stop-color="#FAFAFA"/>
</radialGradient>
<radialGradient id="paint18_radial_1095_516" cx="0" cy="0" r="1" gradientUnits="userSpaceOnUse" gradientTransform="translate(1391.66 970.802) rotate(85.3036) scale(25.8273)">
<stop stop-color="#F1F1F1"/>
<stop offset="1" stop-color="#FAFAFA"/>
</radialGradient>
<radialGradient id="paint19_radial_1095_516" cx="0" cy="0" r="1" gradientUnits="userSpaceOnUse" gradientTransform="translate(1441.85 970.802) rotate(85.3036) scale(25.8273)">
<stop stop-color="#F1F1F1"/>
<stop offset="1" stop-color="#FAFAFA"/>
</radialGradient>
<radialGradient id="paint20_radial_1095_516" cx="0" cy="0" r="1" gradientUnits="userSpaceOnUse" gradientTransform="translate(1492.05 970.803) rotate(85.3036) scale(25.8273)">
<stop stop-color="#F1F1F1"/>
<stop offset="1" stop-color="#FAFAFA"/>
</radialGradient>
<radialGradient id="paint21_radial_1095_516" cx="0" cy="0" r="1" gradientUnits="userSpaceOnUse" gradientTransform="translate(1542.23 970.802) rotate(85.3036) scale(25.8273)">
<stop stop-color="#F1F1F1"/>
<stop offset="1" stop-color="#FAFAFA"/>
</radialGradient>
<radialGradient id="paint22_radial_1095_516" cx="0" cy="0" r="1" gradientUnits="userSpaceOnUse" gradientTransform="translate(1592.42 970.802) rotate(85.3036) scale(25.8273)">
<stop stop-color="#F1F1F1"/>
<stop offset="1" stop-color="#FAFAFA"/>
</radialGradient>
<radialGradient id="paint23_radial_1095_516" cx="0" cy="0" r="1" gradientUnits="userSpaceOnUse" gradientTransform="translate(1642.61 970.802) rotate(85.3036) scale(25.8273)">
<stop stop-color="#F1F1F1"/>
<stop offset="1" stop-color="#FAFAFA"/>
</radialGradient>
<radialGradient id="paint24_radial_1095_516" cx="0" cy="0" r="1" gradientUnits="userSpaceOnUse" gradientTransform="translate(1692.79 970.802) rotate(85.3036) scale(25.8273)">
<stop stop-color="#F1F1F1"/>
<stop offset="1" stop-color="#FAFAFA"/>
</radialGradient>
<radialGradient id="paint25_radial_1095_516" cx="0" cy="0" r="1" gradientUnits="userSpaceOnUse" gradientTransform="translate(1341.47 816.849) rotate(85.3036) scale(25.8273)">
<stop stop-color="#F1F1F1"/>
<stop offset="1" stop-color="#FAFAFA"/>
</radialGradient>
<radialGradient id="paint26_radial_1095_516" cx="0" cy="0" r="1" gradientUnits="userSpaceOnUse" gradientTransform="translate(1391.66 816.849) rotate(85.3036) scale(25.8273)">
<stop stop-color="#F1F1F1"/>
<stop offset="1" stop-color="#FAFAFA"/>
</radialGradient>
<radialGradient id="paint27_radial_1095_516" cx="0" cy="0" r="1" gradientUnits="userSpaceOnUse" gradientTransform="translate(1441.85 816.849) rotate(85.3036) scale(25.8273)">
<stop stop-color="#F1F1F1"/>
<stop offset="1" stop-color="#FAFAFA"/>
</radialGradient>
<radialGradient id="paint28_radial_1095_516" cx="0" cy="0" r="1" gradientUnits="userSpaceOnUse" gradientTransform="translate(1492.05 816.849) rotate(85.3036) scale(25.8273)">
<stop stop-color="#F1F1F1"/>
<stop offset="1" stop-color="#FAFAFA"/>
</radialGradient>
<radialGradient id="paint29_radial_1095_516" cx="0" cy="0" r="1" gradientUnits="userSpaceOnUse" gradientTransform="translate(1542.23 816.849) rotate(85.3036) scale(25.8273)">
<stop stop-color="#F1F1F1"/>
<stop offset="1" stop-color="#FAFAFA"/>
</radialGradient>
<radialGradient id="paint30_radial_1095_516" cx="0" cy="0" r="1" gradientUnits="userSpaceOnUse" gradientTransform="translate(1592.42 816.849) rotate(85.3036) scale(25.8273)">
<stop stop-color="#F1F1F1"/>
<stop offset="1" stop-color="#FAFAFA"/>
</radialGradient>
<radialGradient id="paint31_radial_1095_516" cx="0" cy="0" r="1" gradientUnits="userSpaceOnUse" gradientTransform="translate(1642.61 816.849) rotate(85.3036) scale(25.8273)">
<stop stop-color="#F1F1F1"/>
<stop offset="1" stop-color="#FAFAFA"/>
</radialGradient>
<radialGradient id="paint32_radial_1095_516" cx="0" cy="0" r="1" gradientUnits="userSpaceOnUse" gradientTransform="translate(1692.79 816.849) rotate(85.3036) scale(25.8273)">
<stop stop-color="#F1F1F1"/>
<stop offset="1" stop-color="#FAFAFA"/>
</radialGradient>
<radialGradient id="paint33_radial_1095_516" cx="0" cy="0" r="1" gradientUnits="userSpaceOnUse" gradientTransform="translate(1341.47 919.486) rotate(85.3036) scale(25.8273)">
<stop stop-color="#F1F1F1"/>
<stop offset="1" stop-color="#FAFAFA"/>
</radialGradient>
<radialGradient id="paint34_radial_1095_516" cx="0" cy="0" r="1" gradientUnits="userSpaceOnUse" gradientTransform="translate(1391.66 919.486) rotate(85.3036) scale(25.8273)">
<stop stop-color="#F1F1F1"/>
<stop offset="1" stop-color="#FAFAFA"/>
</radialGradient>
<radialGradient id="paint35_radial_1095_516" cx="0" cy="0" r="1" gradientUnits="userSpaceOnUse" gradientTransform="translate(1441.85 919.486) rotate(85.3036) scale(25.8273)">
<stop stop-color="#F1F1F1"/>
<stop offset="1" stop-color="#FAFAFA"/>
</radialGradient>
<radialGradient id="paint36_radial_1095_516" cx="0" cy="0" r="1" gradientUnits="userSpaceOnUse" gradientTransform="translate(1492.05 919.486) rotate(85.3036) scale(25.8273)">
<stop stop-color="#F1F1F1"/>
<stop offset="1" stop-color="#FAFAFA"/>
</radialGradient>
<radialGradient id="paint37_radial_1095_516" cx="0" cy="0" r="1" gradientUnits="userSpaceOnUse" gradientTransform="translate(1542.23 919.486) rotate(85.3036) scale(25.8273)">
<stop stop-color="#F1F1F1"/>
<stop offset="1" stop-color="#FAFAFA"/>
</radialGradient>
<radialGradient id="paint38_radial_1095_516" cx="0" cy="0" r="1" gradientUnits="userSpaceOnUse" gradientTransform="translate(1592.42 919.486) rotate(85.3036) scale(25.8273)">
<stop stop-color="#F1F1F1"/>
<stop offset="1" stop-color="#FAFAFA"/>
</radialGradient>
<radialGradient id="paint39_radial_1095_516" cx="0" cy="0" r="1" gradientUnits="userSpaceOnUse" gradientTransform="translate(1642.61 919.486) rotate(85.3036) scale(25.8273)">
<stop stop-color="#F1F1F1"/>
<stop offset="1" stop-color="#FAFAFA"/>
</radialGradient>
<radialGradient id="paint40_radial_1095_516" cx="0" cy="0" r="1" gradientUnits="userSpaceOnUse" gradientTransform="translate(1692.79 919.486) rotate(85.3036) scale(25.8273)">
<stop stop-color="#F1F1F1"/>
<stop offset="1" stop-color="#FAFAFA"/>
</radialGradient>
<radialGradient id="paint41_radial_1095_516" cx="0" cy="0" r="1" gradientUnits="userSpaceOnUse" gradientTransform="translate(1341.47 1022.12) rotate(85.3036) scale(25.8273)">
<stop stop-color="#F1F1F1"/>
<stop offset="1" stop-color="#FAFAFA"/>
</radialGradient>
<radialGradient id="paint42_radial_1095_516" cx="0" cy="0" r="1" gradientUnits="userSpaceOnUse" gradientTransform="translate(1391.66 1022.12) rotate(85.3036) scale(25.8273)">
<stop stop-color="#F1F1F1"/>
<stop offset="1" stop-color="#FAFAFA"/>
</radialGradient>
<radialGradient id="paint43_radial_1095_516" cx="0" cy="0" r="1" gradientUnits="userSpaceOnUse" gradientTransform="translate(1441.85 1022.12) rotate(85.3036) scale(25.8273)">
<stop stop-color="#F1F1F1"/>
<stop offset="1" stop-color="#FAFAFA"/>
</radialGradient>
<radialGradient id="paint44_radial_1095_516" cx="0" cy="0" r="1" gradientUnits="userSpaceOnUse" gradientTransform="translate(1492.05 1022.12) rotate(85.3036) scale(25.8273)">
<stop stop-color="#F1F1F1"/>
<stop offset="1" stop-color="#FAFAFA"/>
</radialGradient>
<radialGradient id="paint45_radial_1095_516" cx="0" cy="0" r="1" gradientUnits="userSpaceOnUse" gradientTransform="translate(1542.23 1022.12) rotate(85.3036) scale(25.8273)">
<stop stop-color="#F1F1F1"/>
<stop offset="1" stop-color="#FAFAFA"/>
</radialGradient>
<radialGradient id="paint46_radial_1095_516" cx="0" cy="0" r="1" gradientUnits="userSpaceOnUse" gradientTransform="translate(1592.42 1022.12) rotate(85.3036) scale(25.8273)">
<stop stop-color="#F1F1F1"/>
<stop offset="1" stop-color="#FAFAFA"/>
</radialGradient>
<radialGradient id="paint47_radial_1095_516" cx="0" cy="0" r="1" gradientUnits="userSpaceOnUse" gradientTransform="translate(1642.61 1022.12) rotate(85.3036) scale(25.8273)">
<stop stop-color="#F1F1F1"/>
<stop offset="1" stop-color="#FAFAFA"/>
</radialGradient>
<radialGradient id="paint48_radial_1095_516" cx="0" cy="0" r="1" gradientUnits="userSpaceOnUse" gradientTransform="translate(1692.79 1022.12) rotate(85.3036) scale(25.8273)">
<stop stop-color="#F1F1F1"/>
<stop offset="1" stop-color="#FAFAFA"/>
</radialGradient>
<radialGradient id="paint49_radial_1095_516" cx="0" cy="0" r="1" gradientUnits="userSpaceOnUse" gradientTransform="translate(1351.38 800.251) rotate(85.3036) scale(395.574)">
<stop stop-color="#DADADA"/>
<stop offset="1" stop-color="#FAFAFA"/>
</radialGradient>
<radialGradient id="paint50_radial_1095_516" cx="0" cy="0" r="1" gradientUnits="userSpaceOnUse" gradientTransform="translate(96.4748 670.531) rotate(85.3036) scale(25.8273)">
<stop stop-color="white"/>
<stop offset="1" stop-color="#FAFAFA"/>
</radialGradient>
<radialGradient id="paint51_radial_1095_516" cx="0" cy="0" r="1" gradientUnits="userSpaceOnUse" gradientTransform="translate(146.662 670.531) rotate(85.3036) scale(25.8273)">
<stop stop-color="white"/>
<stop offset="1" stop-color="#FAFAFA"/>
</radialGradient>
<radialGradient id="paint52_radial_1095_516" cx="0" cy="0" r="1" gradientUnits="userSpaceOnUse" gradientTransform="translate(196.85 670.531) rotate(85.3036) scale(25.8273)">
<stop stop-color="white"/>
<stop offset="1" stop-color="#FAFAFA"/>
</radialGradient>
<radialGradient id="paint53_radial_1095_516" cx="0" cy="0" r="1" gradientUnits="userSpaceOnUse" gradientTransform="translate(247.045 670.531) rotate(85.3036) scale(25.8273)">
<stop stop-color="white"/>
<stop offset="1" stop-color="#FAFAFA"/>
</radialGradient>
<radialGradient id="paint54_radial_1095_516" cx="0" cy="0" r="1" gradientUnits="userSpaceOnUse" gradientTransform="translate(297.229 670.531) rotate(85.3036) scale(25.8273)">
<stop stop-color="white"/>
<stop offset="1" stop-color="#FAFAFA"/>
</radialGradient>
<radialGradient id="paint55_radial_1095_516" cx="0" cy="0" r="1" gradientUnits="userSpaceOnUse" gradientTransform="translate(347.42 670.531) rotate(85.3036) scale(25.8273)">
<stop stop-color="white"/>
<stop offset="1" stop-color="#FAFAFA"/>
</radialGradient>
<radialGradient id="paint56_radial_1095_516" cx="0" cy="0" r="1" gradientUnits="userSpaceOnUse" gradientTransform="translate(397.612 670.531) rotate(85.3036) scale(25.8273)">
<stop stop-color="white"/>
<stop offset="1" stop-color="#FAFAFA"/>
</radialGradient>
<radialGradient id="paint57_radial_1095_516" cx="0" cy="0" r="1" gradientUnits="userSpaceOnUse" gradientTransform="translate(447.791 670.531) rotate(85.3036) scale(25.8273)">
<stop stop-color="white"/>
<stop offset="1" stop-color="#FAFAFA"/>
</radialGradient>
<radialGradient id="paint58_radial_1095_516" cx="0" cy="0" r="1" gradientUnits="userSpaceOnUse" gradientTransform="translate(96.4748 773.168) rotate(85.3036) scale(25.8273)">
<stop stop-color="white"/>
<stop offset="1" stop-color="#FAFAFA"/>
</radialGradient>
<radialGradient id="paint59_radial_1095_516" cx="0" cy="0" r="1" gradientUnits="userSpaceOnUse" gradientTransform="translate(146.662 773.168) rotate(85.3036) scale(25.8273)">
<stop stop-color="white"/>
<stop offset="1" stop-color="#FAFAFA"/>
</radialGradient>
<radialGradient id="paint60_radial_1095_516" cx="0" cy="0" r="1" gradientUnits="userSpaceOnUse" gradientTransform="translate(196.85 773.168) rotate(85.3036) scale(25.8273)">
<stop stop-color="white"/>
<stop offset="1" stop-color="#FAFAFA"/>
</radialGradient>
<radialGradient id="paint61_radial_1095_516" cx="0" cy="0" r="1" gradientUnits="userSpaceOnUse" gradientTransform="translate(247.045 773.168) rotate(85.3036) scale(25.8273)">
<stop stop-color="white"/>
<stop offset="1" stop-color="#FAFAFA"/>
</radialGradient>
<radialGradient id="paint62_radial_1095_516" cx="0" cy="0" r="1" gradientUnits="userSpaceOnUse" gradientTransform="translate(297.229 773.168) rotate(85.3036) scale(25.8273)">
<stop stop-color="white"/>
<stop offset="1" stop-color="#FAFAFA"/>
</radialGradient>
<radialGradient id="paint63_radial_1095_516" cx="0" cy="0" r="1" gradientUnits="userSpaceOnUse" gradientTransform="translate(347.42 773.168) rotate(85.3036) scale(25.8273)">
<stop stop-color="white"/>
<stop offset="1" stop-color="#FAFAFA"/>
</radialGradient>
<radialGradient id="paint64_radial_1095_516" cx="0" cy="0" r="1" gradientUnits="userSpaceOnUse" gradientTransform="translate(397.612 773.168) rotate(85.3036) scale(25.8273)">
<stop stop-color="white"/>
<stop offset="1" stop-color="#FAFAFA"/>
</radialGradient>
<radialGradient id="paint65_radial_1095_516" cx="0" cy="0" r="1" gradientUnits="userSpaceOnUse" gradientTransform="translate(447.791 773.168) rotate(85.3036) scale(25.8273)">
<stop stop-color="white"/>
<stop offset="1" stop-color="#FAFAFA"/>
</radialGradient>
<radialGradient id="paint66_radial_1095_516" cx="0" cy="0" r="1" gradientUnits="userSpaceOnUse" gradientTransform="translate(96.4748 875.803) rotate(85.3036) scale(25.8273)">
<stop stop-color="white"/>
<stop offset="1" stop-color="#FAFAFA"/>
</radialGradient>
<radialGradient id="paint67_radial_1095_516" cx="0" cy="0" r="1" gradientUnits="userSpaceOnUse" gradientTransform="translate(146.662 875.802) rotate(85.3036) scale(25.8273)">
<stop stop-color="white"/>
<stop offset="1" stop-color="#FAFAFA"/>
</radialGradient>
<radialGradient id="paint68_radial_1095_516" cx="0" cy="0" r="1" gradientUnits="userSpaceOnUse" gradientTransform="translate(196.85 875.802) rotate(85.3036) scale(25.8273)">
<stop stop-color="white"/>
<stop offset="1" stop-color="#FAFAFA"/>
</radialGradient>
<radialGradient id="paint69_radial_1095_516" cx="0" cy="0" r="1" gradientUnits="userSpaceOnUse" gradientTransform="translate(247.045 875.803) rotate(85.3036) scale(25.8273)">
<stop stop-color="white"/>
<stop offset="1" stop-color="#FAFAFA"/>
</radialGradient>
<radialGradient id="paint70_radial_1095_516" cx="0" cy="0" r="1" gradientUnits="userSpaceOnUse" gradientTransform="translate(297.229 875.802) rotate(85.3036) scale(25.8273)">
<stop stop-color="white"/>
<stop offset="1" stop-color="#FAFAFA"/>
</radialGradient>
<radialGradient id="paint71_radial_1095_516" cx="0" cy="0" r="1" gradientUnits="userSpaceOnUse" gradientTransform="translate(347.42 875.802) rotate(85.3036) scale(25.8273)">
<stop stop-color="white"/>
<stop offset="1" stop-color="#FAFAFA"/>
</radialGradient>
<radialGradient id="paint72_radial_1095_516" cx="0" cy="0" r="1" gradientUnits="userSpaceOnUse" gradientTransform="translate(397.612 875.802) rotate(85.3036) scale(25.8273)">
<stop stop-color="white"/>
<stop offset="1" stop-color="#FAFAFA"/>
</radialGradient>
<radialGradient id="paint73_radial_1095_516" cx="0" cy="0" r="1" gradientUnits="userSpaceOnUse" gradientTransform="translate(447.791 875.802) rotate(85.3036) scale(25.8273)">
<stop stop-color="white"/>
<stop offset="1" stop-color="#FAFAFA"/>
</radialGradient>
<radialGradient id="paint74_radial_1095_516" cx="0" cy="0" r="1" gradientUnits="userSpaceOnUse" gradientTransform="translate(96.4748 721.849) rotate(85.3036) scale(25.8273)">
<stop stop-color="white"/>
<stop offset="1" stop-color="#FAFAFA"/>
</radialGradient>
<radialGradient id="paint75_radial_1095_516" cx="0" cy="0" r="1" gradientUnits="userSpaceOnUse" gradientTransform="translate(146.662 721.849) rotate(85.3036) scale(25.8273)">
<stop stop-color="white"/>
<stop offset="1" stop-color="#FAFAFA"/>
</radialGradient>
<radialGradient id="paint76_radial_1095_516" cx="0" cy="0" r="1" gradientUnits="userSpaceOnUse" gradientTransform="translate(196.85 721.849) rotate(85.3036) scale(25.8273)">
<stop stop-color="white"/>
<stop offset="1" stop-color="#FAFAFA"/>
</radialGradient>
<radialGradient id="paint77_radial_1095_516" cx="0" cy="0" r="1" gradientUnits="userSpaceOnUse" gradientTransform="translate(247.045 721.849) rotate(85.3036) scale(25.8273)">
<stop stop-color="white"/>
<stop offset="1" stop-color="#FAFAFA"/>
</radialGradient>
<radialGradient id="paint78_radial_1095_516" cx="0" cy="0" r="1" gradientUnits="userSpaceOnUse" gradientTransform="translate(297.229 721.849) rotate(85.3036) scale(25.8273)">
<stop stop-color="white"/>
<stop offset="1" stop-color="#FAFAFA"/>
</radialGradient>
<radialGradient id="paint79_radial_1095_516" cx="0" cy="0" r="1" gradientUnits="userSpaceOnUse" gradientTransform="translate(347.42 721.849) rotate(85.3036) scale(25.8273)">
<stop stop-color="white"/>
<stop offset="1" stop-color="#FAFAFA"/>
</radialGradient>
<radialGradient id="paint80_radial_1095_516" cx="0" cy="0" r="1" gradientUnits="userSpaceOnUse" gradientTransform="translate(397.612 721.849) rotate(85.3036) scale(25.8273)">
<stop stop-color="white"/>
<stop offset="1" stop-color="#FAFAFA"/>
</radialGradient>
<radialGradient id="paint81_radial_1095_516" cx="0" cy="0" r="1" gradientUnits="userSpaceOnUse" gradientTransform="translate(447.791 721.849) rotate(85.3036) scale(25.8273)">
<stop stop-color="white"/>
<stop offset="1" stop-color="#FAFAFA"/>
</radialGradient>
<radialGradient id="paint82_radial_1095_516" cx="0" cy="0" r="1" gradientUnits="userSpaceOnUse" gradientTransform="translate(96.4748 824.486) rotate(85.3036) scale(25.8273)">
<stop stop-color="white"/>
<stop offset="1" stop-color="#FAFAFA"/>
</radialGradient>
<radialGradient id="paint83_radial_1095_516" cx="0" cy="0" r="1" gradientUnits="userSpaceOnUse" gradientTransform="translate(146.662 824.486) rotate(85.3036) scale(25.8273)">
<stop stop-color="white"/>
<stop offset="1" stop-color="#FAFAFA"/>
</radialGradient>
<radialGradient id="paint84_radial_1095_516" cx="0" cy="0" r="1" gradientUnits="userSpaceOnUse" gradientTransform="translate(196.85 824.486) rotate(85.3036) scale(25.8273)">
<stop stop-color="white"/>
<stop offset="1" stop-color="#FAFAFA"/>
</radialGradient>
<radialGradient id="paint85_radial_1095_516" cx="0" cy="0" r="1" gradientUnits="userSpaceOnUse" gradientTransform="translate(247.045 824.486) rotate(85.3036) scale(25.8273)">
<stop stop-color="white"/>
<stop offset="1" stop-color="#FAFAFA"/>
</radialGradient>
<radialGradient id="paint86_radial_1095_516" cx="0" cy="0" r="1" gradientUnits="userSpaceOnUse" gradientTransform="translate(297.229 824.486) rotate(85.3036) scale(25.8273)">
<stop stop-color="white"/>
<stop offset="1" stop-color="#FAFAFA"/>
</radialGradient>
<radialGradient id="paint87_radial_1095_516" cx="0" cy="0" r="1" gradientUnits="userSpaceOnUse" gradientTransform="translate(347.42 824.486) rotate(85.3036) scale(25.8273)">
<stop stop-color="white"/>
<stop offset="1" stop-color="#FAFAFA"/>
</radialGradient>
<radialGradient id="paint88_radial_1095_516" cx="0" cy="0" r="1" gradientUnits="userSpaceOnUse" gradientTransform="translate(397.612 824.486) rotate(85.3036) scale(25.8273)">
<stop stop-color="white"/>
<stop offset="1" stop-color="#FAFAFA"/>
</radialGradient>
<radialGradient id="paint89_radial_1095_516" cx="0" cy="0" r="1" gradientUnits="userSpaceOnUse" gradientTransform="translate(447.791 824.486) rotate(85.3036) scale(25.8273)">
<stop stop-color="white"/>
<stop offset="1" stop-color="#FAFAFA"/>
</radialGradient>
<radialGradient id="paint90_radial_1095_516" cx="0" cy="0" r="1" gradientUnits="userSpaceOnUse" gradientTransform="translate(96.4748 927.121) rotate(85.3036) scale(25.8273)">
<stop stop-color="white"/>
<stop offset="1" stop-color="#FAFAFA"/>
</radialGradient>
<radialGradient id="paint91_radial_1095_516" cx="0" cy="0" r="1" gradientUnits="userSpaceOnUse" gradientTransform="translate(146.662 927.12) rotate(85.3036) scale(25.8273)">
<stop stop-color="white"/>
<stop offset="1" stop-color="#FAFAFA"/>
</radialGradient>
<radialGradient id="paint92_radial_1095_516" cx="0" cy="0" r="1" gradientUnits="userSpaceOnUse" gradientTransform="translate(196.85 927.12) rotate(85.3036) scale(25.8273)">
<stop stop-color="white"/>
<stop offset="1" stop-color="#FAFAFA"/>
</radialGradient>
<radialGradient id="paint93_radial_1095_516" cx="0" cy="0" r="1" gradientUnits="userSpaceOnUse" gradientTransform="translate(247.045 927.121) rotate(85.3036) scale(25.8273)">
<stop stop-color="white"/>
<stop offset="1" stop-color="#FAFAFA"/>
</radialGradient>
<radialGradient id="paint94_radial_1095_516" cx="0" cy="0" r="1" gradientUnits="userSpaceOnUse" gradientTransform="translate(297.229 927.12) rotate(85.3036) scale(25.8273)">
<stop stop-color="white"/>
<stop offset="1" stop-color="#FAFAFA"/>
</radialGradient>
<radialGradient id="paint95_radial_1095_516" cx="0" cy="0" r="1" gradientUnits="userSpaceOnUse" gradientTransform="translate(347.42 927.12) rotate(85.3036) scale(25.8273)">
<stop stop-color="white"/>
<stop offset="1" stop-color="#FAFAFA"/>
</radialGradient>
<radialGradient id="paint96_radial_1095_516" cx="0" cy="0" r="1" gradientUnits="userSpaceOnUse" gradientTransform="translate(397.612 927.12) rotate(85.3036) scale(25.8273)">
<stop stop-color="white"/>
<stop offset="1" stop-color="#FAFAFA"/>
</radialGradient>
<radialGradient id="paint97_radial_1095_516" cx="0" cy="0" r="1" gradientUnits="userSpaceOnUse" gradientTransform="translate(447.791 927.12) rotate(85.3036) scale(25.8273)">
<stop stop-color="white"/>
<stop offset="1" stop-color="#FAFAFA"/>
</radialGradient>
<radialGradient id="paint98_radial_1095_516" cx="0" cy="0" r="1" gradientUnits="userSpaceOnUse" gradientTransform="translate(1427.45 1619.04) rotate(85.3036) scale(694.717)">
<stop stop-color="#DADADA"/>
<stop offset="1" stop-color="#FAFAFA"/>
</radialGradient>
</defs>
</svg>
