<svg width="402" height="188" viewBox="0 0 402 188" fill="none" xmlns="http://www.w3.org/2000/svg">
<g opacity="0.5">
<rect x="205" y="57.6348" width="13.6256" height="13.6256" rx="1.21167" transform="rotate(-45 205 57.6348)" fill="url(#paint0_radial_1095_516)" fill-opacity="0.3"/>
<rect x="230.376" y="57.6348" width="13.6256" height="13.6256" rx="1.21167" transform="rotate(-45 230.376 57.6348)" fill="url(#paint1_radial_1095_516)" fill-opacity="0.3"/>
<rect x="255.749" y="57.6348" width="13.6256" height="13.6256" rx="1.21167" transform="rotate(-45 255.749 57.6348)" fill="url(#paint2_radial_1095_516)" fill-opacity="0.3"/>
<rect x="281.125" y="57.6348" width="13.6256" height="13.6256" rx="1.21167" transform="rotate(-45 281.125 57.6348)" fill="url(#paint3_radial_1095_516)" fill-opacity="0.3"/>
<rect x="306.504" y="57.6348" width="13.6256" height="13.6256" rx="1.21167" transform="rotate(-45 306.504 57.6348)" fill="url(#paint4_radial_1095_516)" fill-opacity="0.3"/>
<rect x="331.876" y="57.6348" width="13.6256" height="13.6256" rx="1.21167" transform="rotate(-45 331.876 57.6348)" fill="url(#paint5_radial_1095_516)" fill-opacity="0.3"/>
<rect x="357.25" y="57.6348" width="13.6256" height="13.6256" rx="1.21167" transform="rotate(-45 357.25 57.6348)" fill="url(#paint6_radial_1095_516)" fill-opacity="0.3"/>
<rect x="382.627" y="57.6348" width="13.6256" height="13.6256" rx="1.21167" transform="rotate(-45 382.627 57.6348)" fill="url(#paint7_radial_1095_516)" fill-opacity="0.3"/>
</g>
<g opacity="0.5">
<rect x="205" y="109.527" width="13.6256" height="13.6256" rx="1.21167" transform="rotate(-45 205 109.527)" fill="url(#paint8_radial_1095_516)" fill-opacity="0.3"/>
<rect x="230.376" y="109.527" width="13.6256" height="13.6256" rx="1.21167" transform="rotate(-45 230.376 109.527)" fill="url(#paint9_radial_1095_516)" fill-opacity="0.3"/>
<rect x="255.749" y="109.527" width="13.6256" height="13.6256" rx="1.21167" transform="rotate(-45 255.749 109.527)" fill="url(#paint10_radial_1095_516)" fill-opacity="0.3"/>
<rect x="281.125" y="109.527" width="13.6256" height="13.6256" rx="1.21167" transform="rotate(-45 281.125 109.527)" fill="url(#paint11_radial_1095_516)" fill-opacity="0.3"/>
<rect x="306.503" y="109.527" width="13.6256" height="13.6256" rx="1.21167" transform="rotate(-45 306.503 109.527)" fill="url(#paint12_radial_1095_516)" fill-opacity="0.3"/>
<rect x="331.876" y="109.527" width="13.6256" height="13.6256" rx="1.21167" transform="rotate(-45 331.876 109.527)" fill="url(#paint13_radial_1095_516)" fill-opacity="0.3"/>
<rect x="357.25" y="109.527" width="13.6256" height="13.6256" rx="1.21167" transform="rotate(-45 357.25 109.527)" fill="url(#paint14_radial_1095_516)" fill-opacity="0.3"/>
<rect x="382.627" y="109.527" width="13.6256" height="13.6256" rx="1.21167" transform="rotate(-45 382.627 109.527)" fill="url(#paint15_radial_1095_516)" fill-opacity="0.3"/>
</g>
<g opacity="0.5">
<rect x="205" y="161.419" width="13.6256" height="13.6256" rx="1.21167" transform="rotate(-45 205 161.419)" fill="url(#paint16_radial_1095_516)" fill-opacity="0.3"/>
<rect x="230.376" y="161.419" width="13.6256" height="13.6256" rx="1.21167" transform="rotate(-45 230.376 161.419)" fill="url(#paint17_radial_1095_516)" fill-opacity="0.3"/>
<rect x="255.749" y="161.419" width="13.6256" height="13.6256" rx="1.21167" transform="rotate(-45 255.749 161.419)" fill="url(#paint18_radial_1095_516)" fill-opacity="0.3"/>
<rect x="281.125" y="161.419" width="13.6256" height="13.6256" rx="1.21167" transform="rotate(-45 281.125 161.419)" fill="url(#paint19_radial_1095_516)" fill-opacity="0.3"/>
<rect x="306.503" y="161.419" width="13.6256" height="13.6256" rx="1.21167" transform="rotate(-45 306.503 161.419)" fill="url(#paint20_radial_1095_516)" fill-opacity="0.3"/>
<rect x="331.876" y="161.419" width="13.6256" height="13.6256" rx="1.21167" transform="rotate(-45 331.876 161.419)" fill="url(#paint21_radial_1095_516)" fill-opacity="0.3"/>
<rect x="357.25" y="161.419" width="13.6256" height="13.6256" rx="1.21167" transform="rotate(-45 357.25 161.419)" fill="url(#paint22_radial_1095_516)" fill-opacity="0.3"/>
<rect x="382.627" y="161.419" width="13.6256" height="13.6256" rx="1.21167" transform="rotate(-45 382.627 161.419)" fill="url(#paint23_radial_1095_516)" fill-opacity="0.3"/>
</g>
<g opacity="0.5">
<rect x="205" y="83.5812" width="13.6256" height="13.6256" rx="1.21167" transform="rotate(-45 205 83.5812)" fill="url(#paint24_radial_1095_516)" fill-opacity="0.3"/>
<rect x="230.376" y="83.5812" width="13.6256" height="13.6256" rx="1.21167" transform="rotate(-45 230.376 83.5812)" fill="url(#paint25_radial_1095_516)" fill-opacity="0.3"/>
<rect x="255.749" y="83.5812" width="13.6256" height="13.6256" rx="1.21167" transform="rotate(-45 255.749 83.5812)" fill="url(#paint26_radial_1095_516)" fill-opacity="0.3"/>
<rect x="281.125" y="83.5812" width="13.6256" height="13.6256" rx="1.21167" transform="rotate(-45 281.125 83.5812)" fill="url(#paint27_radial_1095_516)" fill-opacity="0.3"/>
<rect x="306.503" y="83.5812" width="13.6256" height="13.6256" rx="1.21167" transform="rotate(-45 306.503 83.5812)" fill="url(#paint28_radial_1095_516)" fill-opacity="0.3"/>
<rect x="331.876" y="83.5812" width="13.6256" height="13.6256" rx="1.21167" transform="rotate(-45 331.876 83.5812)" fill="url(#paint29_radial_1095_516)" fill-opacity="0.3"/>
<rect x="357.25" y="83.5812" width="13.6256" height="13.6256" rx="1.21167" transform="rotate(-45 357.25 83.5812)" fill="url(#paint30_radial_1095_516)" fill-opacity="0.3"/>
<rect x="382.627" y="83.5812" width="13.6256" height="13.6256" rx="1.21167" transform="rotate(-45 382.627 83.5812)" fill="url(#paint31_radial_1095_516)" fill-opacity="0.3"/>
</g>
<g opacity="0.5">
<rect width="13.6256" height="13.6256" rx="1.21167" transform="matrix(0.707105 -0.707108 0.707105 0.707108 205 135.473)" fill="url(#paint32_radial_1095_516)" fill-opacity="0.3"/>
<rect width="13.6256" height="13.6256" rx="1.21167" transform="matrix(0.707105 -0.707108 0.707105 0.707108 230.376 135.473)" fill="url(#paint33_radial_1095_516)" fill-opacity="0.3"/>
<rect width="13.6256" height="13.6256" rx="1.21167" transform="matrix(0.707105 -0.707108 0.707105 0.707108 255.749 135.473)" fill="url(#paint34_radial_1095_516)" fill-opacity="0.3"/>
<rect width="13.6256" height="13.6256" rx="1.21167" transform="matrix(0.707105 -0.707108 0.707105 0.707108 281.125 135.473)" fill="url(#paint35_radial_1095_516)" fill-opacity="0.3"/>
<rect width="13.6256" height="13.6256" rx="1.21167" transform="matrix(0.707105 -0.707108 0.707105 0.707108 306.503 135.473)" fill="url(#paint36_radial_1095_516)" fill-opacity="0.3"/>
<rect width="13.6256" height="13.6256" rx="1.21167" transform="matrix(0.707105 -0.707108 0.707105 0.707108 331.876 135.473)" fill="url(#paint37_radial_1095_516)" fill-opacity="0.3"/>
<rect width="13.6256" height="13.6256" rx="1.21167" transform="matrix(0.707105 -0.707108 0.707105 0.707108 357.25 135.473)" fill="url(#paint38_radial_1095_516)" fill-opacity="0.3"/>
<rect width="13.6256" height="13.6256" rx="1.21167" transform="matrix(0.707105 -0.707108 0.707105 0.707108 382.627 135.473)" fill="url(#paint39_radial_1095_516)" fill-opacity="0.3"/>
</g>
<g opacity="0.5">
<rect x="205" y="187.365" width="13.6256" height="13.6256" rx="1.21167" transform="rotate(-45 205 187.365)" fill="url(#paint40_radial_1095_516)" fill-opacity="0.3"/>
<rect x="230.376" y="187.365" width="13.6256" height="13.6256" rx="1.21167" transform="rotate(-45 230.376 187.365)" fill="url(#paint41_radial_1095_516)" fill-opacity="0.3"/>
<rect x="255.749" y="187.365" width="13.6256" height="13.6256" rx="1.21167" transform="rotate(-45 255.749 187.365)" fill="url(#paint42_radial_1095_516)" fill-opacity="0.3"/>
<rect x="281.125" y="187.365" width="13.6256" height="13.6256" rx="1.21167" transform="rotate(-45 281.125 187.365)" fill="url(#paint43_radial_1095_516)" fill-opacity="0.3"/>
<rect x="306.503" y="187.365" width="13.6256" height="13.6256" rx="1.21167" transform="rotate(-45 306.503 187.365)" fill="url(#paint44_radial_1095_516)" fill-opacity="0.3"/>
<rect x="331.876" y="187.365" width="13.6256" height="13.6256" rx="1.21167" transform="rotate(-45 331.876 187.365)" fill="url(#paint45_radial_1095_516)" fill-opacity="0.3"/>
<rect x="357.25" y="187.365" width="13.6256" height="13.6256" rx="1.21167" transform="rotate(-45 357.25 187.365)" fill="url(#paint46_radial_1095_516)" fill-opacity="0.3"/>
<rect x="382.627" y="187.365" width="13.6256" height="13.6256" rx="1.21167" transform="rotate(-45 382.627 187.365)" fill="url(#paint47_radial_1095_516)" fill-opacity="0.3"/>
</g>
<rect x="-87" y="28.8557" width="166.673" height="166.673" rx="10.6872" transform="rotate(-45 -87 28.8557)" fill="url(#paint48_radial_1095_516)" fill-opacity="0.3"/>
<defs>
<radialGradient id="paint0_radial_1095_516" cx="0" cy="0" r="1" gradientUnits="userSpaceOnUse" gradientTransform="translate(211.813 64.4476) rotate(85.3036) scale(13.0582)">
<stop stop-color="#D2D2D2"/>
<stop offset="1" stop-color="#FAFAFA"/>
</radialGradient>
<radialGradient id="paint1_radial_1095_516" cx="0" cy="0" r="1" gradientUnits="userSpaceOnUse" gradientTransform="translate(237.189 64.4476) rotate(85.3036) scale(13.0582)">
<stop stop-color="#D2D2D2"/>
<stop offset="1" stop-color="#FAFAFA"/>
</radialGradient>
<radialGradient id="paint2_radial_1095_516" cx="0" cy="0" r="1" gradientUnits="userSpaceOnUse" gradientTransform="translate(262.561 64.4476) rotate(85.3036) scale(13.0582)">
<stop stop-color="#D2D2D2"/>
<stop offset="1" stop-color="#FAFAFA"/>
</radialGradient>
<radialGradient id="paint3_radial_1095_516" cx="0" cy="0" r="1" gradientUnits="userSpaceOnUse" gradientTransform="translate(287.938 64.4476) rotate(85.3036) scale(13.0582)">
<stop stop-color="#D2D2D2"/>
<stop offset="1" stop-color="#FAFAFA"/>
</radialGradient>
<radialGradient id="paint4_radial_1095_516" cx="0" cy="0" r="1" gradientUnits="userSpaceOnUse" gradientTransform="translate(313.317 64.4476) rotate(85.3036) scale(13.0582)">
<stop stop-color="#D2D2D2"/>
<stop offset="1" stop-color="#FAFAFA"/>
</radialGradient>
<radialGradient id="paint5_radial_1095_516" cx="0" cy="0" r="1" gradientUnits="userSpaceOnUse" gradientTransform="translate(338.689 64.4476) rotate(85.3036) scale(13.0582)">
<stop stop-color="#D2D2D2"/>
<stop offset="1" stop-color="#FAFAFA"/>
</radialGradient>
<radialGradient id="paint6_radial_1095_516" cx="0" cy="0" r="1" gradientUnits="userSpaceOnUse" gradientTransform="translate(364.063 64.4476) rotate(85.3036) scale(13.0582)">
<stop stop-color="#D2D2D2"/>
<stop offset="1" stop-color="#FAFAFA"/>
</radialGradient>
<radialGradient id="paint7_radial_1095_516" cx="0" cy="0" r="1" gradientUnits="userSpaceOnUse" gradientTransform="translate(389.44 64.4476) rotate(85.3036) scale(13.0582)">
<stop stop-color="#D2D2D2"/>
<stop offset="1" stop-color="#FAFAFA"/>
</radialGradient>
<radialGradient id="paint8_radial_1095_516" cx="0" cy="0" r="1" gradientUnits="userSpaceOnUse" gradientTransform="translate(211.813 116.34) rotate(85.3036) scale(13.0582)">
<stop stop-color="#D2D2D2"/>
<stop offset="1" stop-color="#FAFAFA"/>
</radialGradient>
<radialGradient id="paint9_radial_1095_516" cx="0" cy="0" r="1" gradientUnits="userSpaceOnUse" gradientTransform="translate(237.189 116.34) rotate(85.3036) scale(13.0582)">
<stop stop-color="#D2D2D2"/>
<stop offset="1" stop-color="#FAFAFA"/>
</radialGradient>
<radialGradient id="paint10_radial_1095_516" cx="0" cy="0" r="1" gradientUnits="userSpaceOnUse" gradientTransform="translate(262.561 116.34) rotate(85.3036) scale(13.0582)">
<stop stop-color="#D2D2D2"/>
<stop offset="1" stop-color="#FAFAFA"/>
</radialGradient>
<radialGradient id="paint11_radial_1095_516" cx="0" cy="0" r="1" gradientUnits="userSpaceOnUse" gradientTransform="translate(287.938 116.34) rotate(85.3036) scale(13.0582)">
<stop stop-color="#D2D2D2"/>
<stop offset="1" stop-color="#FAFAFA"/>
</radialGradient>
<radialGradient id="paint12_radial_1095_516" cx="0" cy="0" r="1" gradientUnits="userSpaceOnUse" gradientTransform="translate(313.316 116.34) rotate(85.3036) scale(13.0582)">
<stop stop-color="#D2D2D2"/>
<stop offset="1" stop-color="#FAFAFA"/>
</radialGradient>
<radialGradient id="paint13_radial_1095_516" cx="0" cy="0" r="1" gradientUnits="userSpaceOnUse" gradientTransform="translate(338.689 116.34) rotate(85.3036) scale(13.0582)">
<stop stop-color="#D2D2D2"/>
<stop offset="1" stop-color="#FAFAFA"/>
</radialGradient>
<radialGradient id="paint14_radial_1095_516" cx="0" cy="0" r="1" gradientUnits="userSpaceOnUse" gradientTransform="translate(364.063 116.34) rotate(85.3036) scale(13.0582)">
<stop stop-color="#D2D2D2"/>
<stop offset="1" stop-color="#FAFAFA"/>
</radialGradient>
<radialGradient id="paint15_radial_1095_516" cx="0" cy="0" r="1" gradientUnits="userSpaceOnUse" gradientTransform="translate(389.44 116.34) rotate(85.3036) scale(13.0582)">
<stop stop-color="#D2D2D2"/>
<stop offset="1" stop-color="#FAFAFA"/>
</radialGradient>
<radialGradient id="paint16_radial_1095_516" cx="0" cy="0" r="1" gradientUnits="userSpaceOnUse" gradientTransform="translate(211.813 168.232) rotate(85.3036) scale(13.0582)">
<stop stop-color="#D2D2D2"/>
<stop offset="1" stop-color="#FAFAFA"/>
</radialGradient>
<radialGradient id="paint17_radial_1095_516" cx="0" cy="0" r="1" gradientUnits="userSpaceOnUse" gradientTransform="translate(237.189 168.232) rotate(85.3036) scale(13.0582)">
<stop stop-color="#D2D2D2"/>
<stop offset="1" stop-color="#FAFAFA"/>
</radialGradient>
<radialGradient id="paint18_radial_1095_516" cx="0" cy="0" r="1" gradientUnits="userSpaceOnUse" gradientTransform="translate(262.561 168.232) rotate(85.3036) scale(13.0582)">
<stop stop-color="#D2D2D2"/>
<stop offset="1" stop-color="#FAFAFA"/>
</radialGradient>
<radialGradient id="paint19_radial_1095_516" cx="0" cy="0" r="1" gradientUnits="userSpaceOnUse" gradientTransform="translate(287.938 168.232) rotate(85.3036) scale(13.0582)">
<stop stop-color="#D2D2D2"/>
<stop offset="1" stop-color="#FAFAFA"/>
</radialGradient>
<radialGradient id="paint20_radial_1095_516" cx="0" cy="0" r="1" gradientUnits="userSpaceOnUse" gradientTransform="translate(313.316 168.232) rotate(85.3036) scale(13.0582)">
<stop stop-color="#D2D2D2"/>
<stop offset="1" stop-color="#FAFAFA"/>
</radialGradient>
<radialGradient id="paint21_radial_1095_516" cx="0" cy="0" r="1" gradientUnits="userSpaceOnUse" gradientTransform="translate(338.689 168.232) rotate(85.3036) scale(13.0582)">
<stop stop-color="#D2D2D2"/>
<stop offset="1" stop-color="#FAFAFA"/>
</radialGradient>
<radialGradient id="paint22_radial_1095_516" cx="0" cy="0" r="1" gradientUnits="userSpaceOnUse" gradientTransform="translate(364.063 168.232) rotate(85.3036) scale(13.0582)">
<stop stop-color="#D2D2D2"/>
<stop offset="1" stop-color="#FAFAFA"/>
</radialGradient>
<radialGradient id="paint23_radial_1095_516" cx="0" cy="0" r="1" gradientUnits="userSpaceOnUse" gradientTransform="translate(389.44 168.232) rotate(85.3036) scale(13.0582)">
<stop stop-color="#D2D2D2"/>
<stop offset="1" stop-color="#FAFAFA"/>
</radialGradient>
<radialGradient id="paint24_radial_1095_516" cx="0" cy="0" r="1" gradientUnits="userSpaceOnUse" gradientTransform="translate(211.813 90.394) rotate(85.3036) scale(13.0582)">
<stop stop-color="#D2D2D2"/>
<stop offset="1" stop-color="#FAFAFA"/>
</radialGradient>
<radialGradient id="paint25_radial_1095_516" cx="0" cy="0" r="1" gradientUnits="userSpaceOnUse" gradientTransform="translate(237.189 90.394) rotate(85.3036) scale(13.0582)">
<stop stop-color="#D2D2D2"/>
<stop offset="1" stop-color="#FAFAFA"/>
</radialGradient>
<radialGradient id="paint26_radial_1095_516" cx="0" cy="0" r="1" gradientUnits="userSpaceOnUse" gradientTransform="translate(262.561 90.394) rotate(85.3036) scale(13.0582)">
<stop stop-color="#D2D2D2"/>
<stop offset="1" stop-color="#FAFAFA"/>
</radialGradient>
<radialGradient id="paint27_radial_1095_516" cx="0" cy="0" r="1" gradientUnits="userSpaceOnUse" gradientTransform="translate(287.938 90.394) rotate(85.3036) scale(13.0582)">
<stop stop-color="#D2D2D2"/>
<stop offset="1" stop-color="#FAFAFA"/>
</radialGradient>
<radialGradient id="paint28_radial_1095_516" cx="0" cy="0" r="1" gradientUnits="userSpaceOnUse" gradientTransform="translate(313.316 90.394) rotate(85.3036) scale(13.0582)">
<stop stop-color="#D2D2D2"/>
<stop offset="1" stop-color="#FAFAFA"/>
</radialGradient>
<radialGradient id="paint29_radial_1095_516" cx="0" cy="0" r="1" gradientUnits="userSpaceOnUse" gradientTransform="translate(338.689 90.394) rotate(85.3036) scale(13.0582)">
<stop stop-color="#D2D2D2"/>
<stop offset="1" stop-color="#FAFAFA"/>
</radialGradient>
<radialGradient id="paint30_radial_1095_516" cx="0" cy="0" r="1" gradientUnits="userSpaceOnUse" gradientTransform="translate(364.063 90.394) rotate(85.3036) scale(13.0582)">
<stop stop-color="#D2D2D2"/>
<stop offset="1" stop-color="#FAFAFA"/>
</radialGradient>
<radialGradient id="paint31_radial_1095_516" cx="0" cy="0" r="1" gradientUnits="userSpaceOnUse" gradientTransform="translate(389.44 90.394) rotate(85.3036) scale(13.0582)">
<stop stop-color="#D2D2D2"/>
<stop offset="1" stop-color="#FAFAFA"/>
</radialGradient>
<radialGradient id="paint32_radial_1095_516" cx="0" cy="0" r="1" gradientUnits="userSpaceOnUse" gradientTransform="translate(6.81281 6.81281) rotate(85.3036) scale(13.0582)">
<stop stop-color="#D2D2D2"/>
<stop offset="1" stop-color="#FAFAFA"/>
</radialGradient>
<radialGradient id="paint33_radial_1095_516" cx="0" cy="0" r="1" gradientUnits="userSpaceOnUse" gradientTransform="translate(6.81281 6.81281) rotate(85.3036) scale(13.0582)">
<stop stop-color="#D2D2D2"/>
<stop offset="1" stop-color="#FAFAFA"/>
</radialGradient>
<radialGradient id="paint34_radial_1095_516" cx="0" cy="0" r="1" gradientUnits="userSpaceOnUse" gradientTransform="translate(6.81281 6.81281) rotate(85.3036) scale(13.0582)">
<stop stop-color="#D2D2D2"/>
<stop offset="1" stop-color="#FAFAFA"/>
</radialGradient>
<radialGradient id="paint35_radial_1095_516" cx="0" cy="0" r="1" gradientUnits="userSpaceOnUse" gradientTransform="translate(6.81281 6.81281) rotate(85.3036) scale(13.0582)">
<stop stop-color="#D2D2D2"/>
<stop offset="1" stop-color="#FAFAFA"/>
</radialGradient>
<radialGradient id="paint36_radial_1095_516" cx="0" cy="0" r="1" gradientUnits="userSpaceOnUse" gradientTransform="translate(6.81281 6.81281) rotate(85.3036) scale(13.0582)">
<stop stop-color="#D2D2D2"/>
<stop offset="1" stop-color="#FAFAFA"/>
</radialGradient>
<radialGradient id="paint37_radial_1095_516" cx="0" cy="0" r="1" gradientUnits="userSpaceOnUse" gradientTransform="translate(6.81281 6.81281) rotate(85.3036) scale(13.0582)">
<stop stop-color="#D2D2D2"/>
<stop offset="1" stop-color="#FAFAFA"/>
</radialGradient>
<radialGradient id="paint38_radial_1095_516" cx="0" cy="0" r="1" gradientUnits="userSpaceOnUse" gradientTransform="translate(6.81281 6.81281) rotate(85.3036) scale(13.0582)">
<stop stop-color="#D2D2D2"/>
<stop offset="1" stop-color="#FAFAFA"/>
</radialGradient>
<radialGradient id="paint39_radial_1095_516" cx="0" cy="0" r="1" gradientUnits="userSpaceOnUse" gradientTransform="translate(6.81281 6.81281) rotate(85.3036) scale(13.0582)">
<stop stop-color="#D2D2D2"/>
<stop offset="1" stop-color="#FAFAFA"/>
</radialGradient>
<radialGradient id="paint40_radial_1095_516" cx="0" cy="0" r="1" gradientUnits="userSpaceOnUse" gradientTransform="translate(211.813 194.178) rotate(85.3036) scale(13.0582)">
<stop stop-color="#D2D2D2"/>
<stop offset="1" stop-color="#FAFAFA"/>
</radialGradient>
<radialGradient id="paint41_radial_1095_516" cx="0" cy="0" r="1" gradientUnits="userSpaceOnUse" gradientTransform="translate(237.189 194.178) rotate(85.3036) scale(13.0582)">
<stop stop-color="#D2D2D2"/>
<stop offset="1" stop-color="#FAFAFA"/>
</radialGradient>
<radialGradient id="paint42_radial_1095_516" cx="0" cy="0" r="1" gradientUnits="userSpaceOnUse" gradientTransform="translate(262.561 194.178) rotate(85.3036) scale(13.0582)">
<stop stop-color="#D2D2D2"/>
<stop offset="1" stop-color="#FAFAFA"/>
</radialGradient>
<radialGradient id="paint43_radial_1095_516" cx="0" cy="0" r="1" gradientUnits="userSpaceOnUse" gradientTransform="translate(287.938 194.178) rotate(85.3036) scale(13.0582)">
<stop stop-color="#D2D2D2"/>
<stop offset="1" stop-color="#FAFAFA"/>
</radialGradient>
<radialGradient id="paint44_radial_1095_516" cx="0" cy="0" r="1" gradientUnits="userSpaceOnUse" gradientTransform="translate(313.316 194.178) rotate(85.3036) scale(13.0582)">
<stop stop-color="#D2D2D2"/>
<stop offset="1" stop-color="#FAFAFA"/>
</radialGradient>
<radialGradient id="paint45_radial_1095_516" cx="0" cy="0" r="1" gradientUnits="userSpaceOnUse" gradientTransform="translate(338.689 194.178) rotate(85.3036) scale(13.0582)">
<stop stop-color="#D2D2D2"/>
<stop offset="1" stop-color="#FAFAFA"/>
</radialGradient>
<radialGradient id="paint46_radial_1095_516" cx="0" cy="0" r="1" gradientUnits="userSpaceOnUse" gradientTransform="translate(364.063 194.178) rotate(85.3036) scale(13.0582)">
<stop stop-color="#D2D2D2"/>
<stop offset="1" stop-color="#FAFAFA"/>
</radialGradient>
<radialGradient id="paint47_radial_1095_516" cx="0" cy="0" r="1" gradientUnits="userSpaceOnUse" gradientTransform="translate(389.44 194.178) rotate(85.3036) scale(13.0582)">
<stop stop-color="#D2D2D2"/>
<stop offset="1" stop-color="#FAFAFA"/>
</radialGradient>
<radialGradient id="paint48_radial_1095_516" cx="0" cy="0" r="1" gradientUnits="userSpaceOnUse" gradientTransform="translate(-3.66341 112.192) rotate(85.3036) scale(159.732)">
<stop stop-color="#D2D2D2"/>
<stop offset="1" stop-color="#FAFAFA"/>
</radialGradient>
</defs>
</svg>
