<svg width="1920" height="1221" viewBox="0 0 1920 1221" fill="none" xmlns="http://www.w3.org/2000/svg">
<rect opacity="0.1" x="-54.9492" y="370.981" width="554.344" height="554.344" rx="51.6" transform="rotate(-45 -54.9492 370.981)" fill="url(#paint0_radial_615_992)"/>
<rect x="-119.949" y="708.98" width="554.344" height="554.344" rx="51.6" transform="rotate(-45 -119.949 708.98)" fill="url(#paint1_radial_615_992)" fill-opacity="0.15"/>
<rect x="1367.05" y="35.7695" width="40.6863" height="40.6863" rx="9.11472" transform="rotate(-45 1367.05 35.7695)" fill="url(#paint2_radial_615_992)" fill-opacity="0.5"/>
<rect x="1442.82" y="35.7695" width="40.6863" height="40.6863" rx="9.11472" transform="rotate(-45 1442.82 35.7695)" fill="url(#paint3_radial_615_992)" fill-opacity="0.5"/>
<rect x="1518.59" y="35.7695" width="40.6863" height="40.6863" rx="9.11472" transform="rotate(-45 1518.59 35.7695)" fill="url(#paint4_radial_615_992)" fill-opacity="0.5"/>
<rect x="1594.37" y="35.7695" width="40.6863" height="40.6863" rx="9.11472" transform="rotate(-45 1594.37 35.7695)" fill="url(#paint5_radial_615_992)" fill-opacity="0.5"/>
<rect x="1670.13" y="35.7695" width="40.6863" height="40.6863" rx="9.11472" transform="rotate(-45 1670.13 35.7695)" fill="url(#paint6_radial_615_992)" fill-opacity="0.5"/>
<rect x="1745.91" y="35.7695" width="40.6863" height="40.6863" rx="9.11472" transform="rotate(-45 1745.91 35.7695)" fill="url(#paint7_radial_615_992)" fill-opacity="0.5"/>
<rect x="1821.68" y="35.7695" width="40.6863" height="40.6863" rx="9.11472" transform="rotate(-45 1821.68 35.7695)" fill="url(#paint8_radial_615_992)" fill-opacity="0.5"/>
<rect x="1897.44" y="35.7695" width="40.6863" height="40.6863" rx="9.11472" transform="rotate(-45 1897.44 35.7695)" fill="url(#paint9_radial_615_992)" fill-opacity="0.5"/>
<rect x="1367.05" y="190.721" width="40.6863" height="40.6863" rx="9.11472" transform="rotate(-45 1367.05 190.721)" fill="url(#paint10_radial_615_992)" fill-opacity="0.5"/>
<rect x="1442.82" y="190.721" width="40.6863" height="40.6863" rx="9.11472" transform="rotate(-45 1442.82 190.721)" fill="url(#paint11_radial_615_992)" fill-opacity="0.5"/>
<rect x="1518.59" y="190.721" width="40.6863" height="40.6863" rx="9.11472" transform="rotate(-45 1518.59 190.721)" fill="url(#paint12_radial_615_992)" fill-opacity="0.5"/>
<rect x="1594.37" y="190.721" width="40.6863" height="40.6863" rx="9.11472" transform="rotate(-45 1594.37 190.721)" fill="url(#paint13_radial_615_992)" fill-opacity="0.5"/>
<rect x="1670.13" y="190.721" width="40.6863" height="40.6863" rx="9.11472" transform="rotate(-45 1670.13 190.721)" fill="url(#paint14_radial_615_992)" fill-opacity="0.5"/>
<rect x="1745.91" y="190.721" width="40.6863" height="40.6863" rx="9.11472" transform="rotate(-45 1745.91 190.721)" fill="url(#paint15_radial_615_992)" fill-opacity="0.5"/>
<rect x="1821.68" y="190.721" width="40.6863" height="40.6863" rx="9.11472" transform="rotate(-45 1821.68 190.721)" fill="url(#paint16_radial_615_992)" fill-opacity="0.5"/>
<rect x="1897.44" y="190.721" width="40.6863" height="40.6863" rx="9.11472" transform="rotate(-45 1897.44 190.721)" fill="url(#paint17_radial_615_992)" fill-opacity="0.5"/>
<rect x="1367.05" y="345.671" width="40.6863" height="40.6863" rx="9.11472" transform="rotate(-45 1367.05 345.671)" fill="url(#paint18_radial_615_992)" fill-opacity="0.5"/>
<rect x="1442.82" y="345.67" width="40.6863" height="40.6863" rx="9.11472" transform="rotate(-45 1442.82 345.67)" fill="url(#paint19_radial_615_992)" fill-opacity="0.5"/>
<rect x="1518.59" y="345.67" width="40.6863" height="40.6863" rx="9.11472" transform="rotate(-45 1518.59 345.67)" fill="url(#paint20_radial_615_992)" fill-opacity="0.5"/>
<rect x="1594.37" y="345.671" width="40.6863" height="40.6863" rx="9.11472" transform="rotate(-45 1594.37 345.671)" fill="url(#paint21_radial_615_992)" fill-opacity="0.5"/>
<rect x="1670.13" y="345.67" width="40.6863" height="40.6863" rx="9.11472" transform="rotate(-45 1670.13 345.67)" fill="url(#paint22_radial_615_992)" fill-opacity="0.5"/>
<rect x="1745.91" y="345.67" width="40.6863" height="40.6863" rx="9.11472" transform="rotate(-45 1745.91 345.67)" fill="url(#paint23_radial_615_992)" fill-opacity="0.5"/>
<rect x="1821.68" y="345.67" width="40.6863" height="40.6863" rx="9.11472" transform="rotate(-45 1821.68 345.67)" fill="url(#paint24_radial_615_992)" fill-opacity="0.5"/>
<rect x="1897.44" y="345.67" width="40.6863" height="40.6863" rx="9.11472" transform="rotate(-45 1897.44 345.67)" fill="url(#paint25_radial_615_992)" fill-opacity="0.5"/>
<rect x="1367.05" y="113.245" width="40.6863" height="40.6863" rx="9.11472" transform="rotate(-45 1367.05 113.245)" fill="url(#paint26_radial_615_992)" fill-opacity="0.5"/>
<rect x="1442.82" y="113.245" width="40.6863" height="40.6863" rx="9.11472" transform="rotate(-45 1442.82 113.245)" fill="url(#paint27_radial_615_992)" fill-opacity="0.5"/>
<rect x="1518.59" y="113.245" width="40.6863" height="40.6863" rx="9.11472" transform="rotate(-45 1518.59 113.245)" fill="url(#paint28_radial_615_992)" fill-opacity="0.5"/>
<rect x="1594.37" y="113.245" width="40.6863" height="40.6863" rx="9.11472" transform="rotate(-45 1594.37 113.245)" fill="url(#paint29_radial_615_992)" fill-opacity="0.5"/>
<rect x="1670.13" y="113.245" width="40.6863" height="40.6863" rx="9.11472" transform="rotate(-45 1670.13 113.245)" fill="url(#paint30_radial_615_992)" fill-opacity="0.5"/>
<rect x="1745.91" y="113.245" width="40.6863" height="40.6863" rx="9.11472" transform="rotate(-45 1745.91 113.245)" fill="url(#paint31_radial_615_992)" fill-opacity="0.5"/>
<rect x="1821.68" y="113.245" width="40.6863" height="40.6863" rx="9.11472" transform="rotate(-45 1821.68 113.245)" fill="url(#paint32_radial_615_992)" fill-opacity="0.5"/>
<rect x="1897.44" y="113.245" width="40.6863" height="40.6863" rx="9.11472" transform="rotate(-45 1897.44 113.245)" fill="url(#paint33_radial_615_992)" fill-opacity="0.5"/>
<rect x="1367.05" y="268.197" width="40.6863" height="40.6863" rx="9.11472" transform="rotate(-45 1367.05 268.197)" fill="url(#paint34_radial_615_992)" fill-opacity="0.5"/>
<rect x="1442.82" y="268.197" width="40.6863" height="40.6863" rx="9.11472" transform="rotate(-45 1442.82 268.197)" fill="url(#paint35_radial_615_992)" fill-opacity="0.5"/>
<rect x="1518.59" y="268.197" width="40.6863" height="40.6863" rx="9.11472" transform="rotate(-45 1518.59 268.197)" fill="url(#paint36_radial_615_992)" fill-opacity="0.5"/>
<rect x="1594.37" y="268.197" width="40.6863" height="40.6863" rx="9.11472" transform="rotate(-45 1594.37 268.197)" fill="url(#paint37_radial_615_992)" fill-opacity="0.5"/>
<rect x="1670.13" y="268.197" width="40.6863" height="40.6863" rx="9.11472" transform="rotate(-45 1670.13 268.197)" fill="url(#paint38_radial_615_992)" fill-opacity="0.5"/>
<rect x="1745.91" y="268.197" width="40.6863" height="40.6863" rx="9.11472" transform="rotate(-45 1745.91 268.197)" fill="url(#paint39_radial_615_992)" fill-opacity="0.5"/>
<rect x="1821.68" y="268.197" width="40.6863" height="40.6863" rx="9.11472" transform="rotate(-45 1821.68 268.197)" fill="url(#paint40_radial_615_992)" fill-opacity="0.5"/>
<rect x="1897.44" y="268.197" width="40.6863" height="40.6863" rx="9.11472" transform="rotate(-45 1897.44 268.197)" fill="url(#paint41_radial_615_992)" fill-opacity="0.5"/>
<rect x="1367.05" y="423.146" width="40.6863" height="40.6863" rx="9.11472" transform="rotate(-45 1367.05 423.146)" fill="url(#paint42_radial_615_992)" fill-opacity="0.5"/>
<rect x="1442.82" y="423.146" width="40.6863" height="40.6863" rx="9.11472" transform="rotate(-45 1442.82 423.146)" fill="url(#paint43_radial_615_992)" fill-opacity="0.5"/>
<rect x="1518.59" y="423.146" width="40.6863" height="40.6863" rx="9.11472" transform="rotate(-45 1518.59 423.146)" fill="url(#paint44_radial_615_992)" fill-opacity="0.5"/>
<rect x="1594.37" y="423.146" width="40.6863" height="40.6863" rx="9.11472" transform="rotate(-45 1594.37 423.146)" fill="url(#paint45_radial_615_992)" fill-opacity="0.5"/>
<rect x="1670.13" y="423.146" width="40.6863" height="40.6863" rx="9.11472" transform="rotate(-45 1670.13 423.146)" fill="url(#paint46_radial_615_992)" fill-opacity="0.5"/>
<rect x="1745.91" y="423.146" width="40.6863" height="40.6863" rx="9.11472" transform="rotate(-45 1745.91 423.146)" fill="url(#paint47_radial_615_992)" fill-opacity="0.5"/>
<rect x="1821.68" y="423.146" width="40.6863" height="40.6863" rx="9.11472" transform="rotate(-45 1821.68 423.146)" fill="url(#paint48_radial_615_992)" fill-opacity="0.5"/>
<rect x="1897.44" y="423.146" width="40.6863" height="40.6863" rx="9.11472" transform="rotate(-45 1897.44 423.146)" fill="url(#paint49_radial_615_992)" fill-opacity="0.5"/>
<rect x="234.051" y="949.752" width="26.5197" height="26.5197" rx="5.94106" transform="rotate(-45 234.051 949.752)" fill="url(#paint50_radial_615_992)" fill-opacity="0.5"/>
<rect x="283.438" y="949.752" width="26.5197" height="26.5197" rx="5.94106" transform="rotate(-45 283.438 949.752)" fill="url(#paint51_radial_615_992)" fill-opacity="0.5"/>
<rect x="332.824" y="949.752" width="26.5197" height="26.5197" rx="5.94106" transform="rotate(-45 332.824 949.752)" fill="url(#paint52_radial_615_992)" fill-opacity="0.5"/>
<rect x="382.219" y="949.752" width="26.5197" height="26.5197" rx="5.94106" transform="rotate(-45 382.219 949.752)" fill="url(#paint53_radial_615_992)" fill-opacity="0.5"/>
<rect x="431.602" y="949.752" width="26.5197" height="26.5197" rx="5.94106" transform="rotate(-45 431.602 949.752)" fill="url(#paint54_radial_615_992)" fill-opacity="0.5"/>
<rect x="480.992" y="949.752" width="26.5197" height="26.5197" rx="5.94106" transform="rotate(-45 480.992 949.752)" fill="url(#paint55_radial_615_992)" fill-opacity="0.5"/>
<rect x="530.383" y="949.752" width="26.5197" height="26.5197" rx="5.94106" transform="rotate(-45 530.383 949.752)" fill="url(#paint56_radial_615_992)" fill-opacity="0.5"/>
<rect x="579.762" y="949.752" width="26.5197" height="26.5197" rx="5.94106" transform="rotate(-45 579.762 949.752)" fill="url(#paint57_radial_615_992)" fill-opacity="0.5"/>
<rect x="234.051" y="1050.75" width="26.5197" height="26.5197" rx="5.94106" transform="rotate(-45 234.051 1050.75)" fill="url(#paint58_radial_615_992)" fill-opacity="0.5"/>
<rect x="283.438" y="1050.75" width="26.5197" height="26.5197" rx="5.94106" transform="rotate(-45 283.438 1050.75)" fill="url(#paint59_radial_615_992)" fill-opacity="0.5"/>
<rect x="332.824" y="1050.75" width="26.5197" height="26.5197" rx="5.94106" transform="rotate(-45 332.824 1050.75)" fill="url(#paint60_radial_615_992)" fill-opacity="0.5"/>
<rect x="382.219" y="1050.75" width="26.5197" height="26.5197" rx="5.94106" transform="rotate(-45 382.219 1050.75)" fill="url(#paint61_radial_615_992)" fill-opacity="0.5"/>
<rect x="431.602" y="1050.75" width="26.5197" height="26.5197" rx="5.94106" transform="rotate(-45 431.602 1050.75)" fill="url(#paint62_radial_615_992)" fill-opacity="0.5"/>
<rect x="480.992" y="1050.75" width="26.5197" height="26.5197" rx="5.94106" transform="rotate(-45 480.992 1050.75)" fill="url(#paint63_radial_615_992)" fill-opacity="0.5"/>
<rect x="530.383" y="1050.75" width="26.5197" height="26.5197" rx="5.94106" transform="rotate(-45 530.383 1050.75)" fill="url(#paint64_radial_615_992)" fill-opacity="0.5"/>
<rect x="579.762" y="1050.75" width="26.5197" height="26.5197" rx="5.94106" transform="rotate(-45 579.762 1050.75)" fill="url(#paint65_radial_615_992)" fill-opacity="0.5"/>
<rect x="234.051" y="1151.75" width="26.5197" height="26.5197" rx="5.94106" transform="rotate(-45 234.051 1151.75)" fill="url(#paint66_radial_615_992)" fill-opacity="0.5"/>
<rect x="283.438" y="1151.75" width="26.5197" height="26.5197" rx="5.94106" transform="rotate(-45 283.438 1151.75)" fill="url(#paint67_radial_615_992)" fill-opacity="0.5"/>
<rect x="332.824" y="1151.75" width="26.5197" height="26.5197" rx="5.94106" transform="rotate(-45 332.824 1151.75)" fill="url(#paint68_radial_615_992)" fill-opacity="0.5"/>
<rect x="382.219" y="1151.75" width="26.5197" height="26.5197" rx="5.94106" transform="rotate(-45 382.219 1151.75)" fill="url(#paint69_radial_615_992)" fill-opacity="0.5"/>
<rect x="431.602" y="1151.75" width="26.5197" height="26.5197" rx="5.94106" transform="rotate(-45 431.602 1151.75)" fill="url(#paint70_radial_615_992)" fill-opacity="0.5"/>
<rect x="480.992" y="1151.75" width="26.5197" height="26.5197" rx="5.94106" transform="rotate(-45 480.992 1151.75)" fill="url(#paint71_radial_615_992)" fill-opacity="0.5"/>
<rect x="530.383" y="1151.75" width="26.5197" height="26.5197" rx="5.94106" transform="rotate(-45 530.383 1151.75)" fill="url(#paint72_radial_615_992)" fill-opacity="0.5"/>
<rect x="579.762" y="1151.75" width="26.5197" height="26.5197" rx="5.94106" transform="rotate(-45 579.762 1151.75)" fill="url(#paint73_radial_615_992)" fill-opacity="0.5"/>
<rect x="234.051" y="1000.25" width="26.5197" height="26.5197" rx="5.94106" transform="rotate(-45 234.051 1000.25)" fill="url(#paint74_radial_615_992)" fill-opacity="0.5"/>
<rect x="283.438" y="1000.25" width="26.5197" height="26.5197" rx="5.94106" transform="rotate(-45 283.438 1000.25)" fill="url(#paint75_radial_615_992)" fill-opacity="0.5"/>
<rect x="332.824" y="1000.25" width="26.5197" height="26.5197" rx="5.94106" transform="rotate(-45 332.824 1000.25)" fill="url(#paint76_radial_615_992)" fill-opacity="0.5"/>
<rect x="382.219" y="1000.25" width="26.5197" height="26.5197" rx="5.94106" transform="rotate(-45 382.219 1000.25)" fill="url(#paint77_radial_615_992)" fill-opacity="0.5"/>
<rect x="431.602" y="1000.25" width="26.5197" height="26.5197" rx="5.94106" transform="rotate(-45 431.602 1000.25)" fill="url(#paint78_radial_615_992)" fill-opacity="0.5"/>
<rect x="480.992" y="1000.25" width="26.5197" height="26.5197" rx="5.94106" transform="rotate(-45 480.992 1000.25)" fill="url(#paint79_radial_615_992)" fill-opacity="0.5"/>
<rect x="530.383" y="1000.25" width="26.5197" height="26.5197" rx="5.94106" transform="rotate(-45 530.383 1000.25)" fill="url(#paint80_radial_615_992)" fill-opacity="0.5"/>
<rect x="579.762" y="1000.25" width="26.5197" height="26.5197" rx="5.94106" transform="rotate(-45 579.762 1000.25)" fill="url(#paint81_radial_615_992)" fill-opacity="0.5"/>
<rect x="234.051" y="1101.25" width="26.5197" height="26.5197" rx="5.94106" transform="rotate(-45 234.051 1101.25)" fill="url(#paint82_radial_615_992)" fill-opacity="0.5"/>
<rect x="283.438" y="1101.25" width="26.5197" height="26.5197" rx="5.94106" transform="rotate(-45 283.438 1101.25)" fill="url(#paint83_radial_615_992)" fill-opacity="0.5"/>
<rect x="332.824" y="1101.25" width="26.5197" height="26.5197" rx="5.94106" transform="rotate(-45 332.824 1101.25)" fill="url(#paint84_radial_615_992)" fill-opacity="0.5"/>
<rect x="382.219" y="1101.25" width="26.5197" height="26.5197" rx="5.94106" transform="rotate(-45 382.219 1101.25)" fill="url(#paint85_radial_615_992)" fill-opacity="0.5"/>
<rect x="431.602" y="1101.25" width="26.5197" height="26.5197" rx="5.94106" transform="rotate(-45 431.602 1101.25)" fill="url(#paint86_radial_615_992)" fill-opacity="0.5"/>
<rect x="480.992" y="1101.25" width="26.5197" height="26.5197" rx="5.94106" transform="rotate(-45 480.992 1101.25)" fill="url(#paint87_radial_615_992)" fill-opacity="0.5"/>
<rect x="530.383" y="1101.25" width="26.5197" height="26.5197" rx="5.94106" transform="rotate(-45 530.383 1101.25)" fill="url(#paint88_radial_615_992)" fill-opacity="0.5"/>
<rect x="579.762" y="1101.25" width="26.5197" height="26.5197" rx="5.94106" transform="rotate(-45 579.762 1101.25)" fill="url(#paint89_radial_615_992)" fill-opacity="0.5"/>
<rect x="234.051" y="1202.25" width="26.5197" height="26.5197" rx="5.94106" transform="rotate(-45 234.051 1202.25)" fill="url(#paint90_radial_615_992)" fill-opacity="0.5"/>
<rect x="283.438" y="1202.25" width="26.5197" height="26.5197" rx="5.94106" transform="rotate(-45 283.438 1202.25)" fill="url(#paint91_radial_615_992)" fill-opacity="0.5"/>
<rect x="332.824" y="1202.25" width="26.5197" height="26.5197" rx="5.94106" transform="rotate(-45 332.824 1202.25)" fill="url(#paint92_radial_615_992)" fill-opacity="0.5"/>
<rect x="382.219" y="1202.25" width="26.5197" height="26.5197" rx="5.94106" transform="rotate(-45 382.219 1202.25)" fill="url(#paint93_radial_615_992)" fill-opacity="0.5"/>
<rect x="431.602" y="1202.25" width="26.5197" height="26.5197" rx="5.94106" transform="rotate(-45 431.602 1202.25)" fill="url(#paint94_radial_615_992)" fill-opacity="0.5"/>
<rect x="480.992" y="1202.25" width="26.5197" height="26.5197" rx="5.94106" transform="rotate(-45 480.992 1202.25)" fill="url(#paint95_radial_615_992)" fill-opacity="0.5"/>
<rect x="530.383" y="1202.25" width="26.5197" height="26.5197" rx="5.94106" transform="rotate(-45 530.383 1202.25)" fill="url(#paint96_radial_615_992)" fill-opacity="0.5"/>
<rect x="579.762" y="1202.25" width="26.5197" height="26.5197" rx="5.94106" transform="rotate(-45 579.762 1202.25)" fill="url(#paint97_radial_615_992)" fill-opacity="0.5"/>
<rect x="1353" y="427.8" width="457.922" height="457.922" rx="42.6248" transform="rotate(-45 1353 427.8)" fill="url(#paint98_radial_615_992)" fill-opacity="0.15"/>
<defs>
<radialGradient id="paint0_radial_615_992" cx="0" cy="0" r="1" gradientUnits="userSpaceOnUse" gradientTransform="translate(222.223 648.153) rotate(85.3036) scale(531.257)">
<stop stop-color="#DADADA"/>
<stop offset="1" stop-color="#FAFAFA"/>
</radialGradient>
<radialGradient id="paint1_radial_615_992" cx="0" cy="0" r="1" gradientUnits="userSpaceOnUse" gradientTransform="translate(157.223 986.153) rotate(85.3036) scale(531.257)">
<stop stop-color="#DADADA"/>
<stop offset="1" stop-color="#FAFAFA"/>
</radialGradient>
<radialGradient id="paint2_radial_615_992" cx="0" cy="0" r="1" gradientUnits="userSpaceOnUse" gradientTransform="translate(1387.39 56.1127) rotate(85.3036) scale(38.9918)">
<stop stop-color="#F6F5F5"/>
<stop offset="1" stop-color="#FAFAFA"/>
</radialGradient>
<radialGradient id="paint3_radial_615_992" cx="0" cy="0" r="1" gradientUnits="userSpaceOnUse" gradientTransform="translate(1463.17 56.1127) rotate(85.3036) scale(38.9918)">
<stop stop-color="#F6F5F5"/>
<stop offset="1" stop-color="#FAFAFA"/>
</radialGradient>
<radialGradient id="paint4_radial_615_992" cx="0" cy="0" r="1" gradientUnits="userSpaceOnUse" gradientTransform="translate(1538.93 56.1127) rotate(85.3036) scale(38.9918)">
<stop stop-color="#F6F5F5"/>
<stop offset="1" stop-color="#FAFAFA"/>
</radialGradient>
<radialGradient id="paint5_radial_615_992" cx="0" cy="0" r="1" gradientUnits="userSpaceOnUse" gradientTransform="translate(1614.71 56.1127) rotate(85.3036) scale(38.9918)">
<stop stop-color="#F6F5F5"/>
<stop offset="1" stop-color="#FAFAFA"/>
</radialGradient>
<radialGradient id="paint6_radial_615_992" cx="0" cy="0" r="1" gradientUnits="userSpaceOnUse" gradientTransform="translate(1690.48 56.1127) rotate(85.3036) scale(38.9918)">
<stop stop-color="#F6F5F5"/>
<stop offset="1" stop-color="#FAFAFA"/>
</radialGradient>
<radialGradient id="paint7_radial_615_992" cx="0" cy="0" r="1" gradientUnits="userSpaceOnUse" gradientTransform="translate(1766.25 56.1127) rotate(85.3036) scale(38.9918)">
<stop stop-color="#F6F5F5"/>
<stop offset="1" stop-color="#FAFAFA"/>
</radialGradient>
<radialGradient id="paint8_radial_615_992" cx="0" cy="0" r="1" gradientUnits="userSpaceOnUse" gradientTransform="translate(1842.02 56.1127) rotate(85.3036) scale(38.9918)">
<stop stop-color="#F6F5F5"/>
<stop offset="1" stop-color="#FAFAFA"/>
</radialGradient>
<radialGradient id="paint9_radial_615_992" cx="0" cy="0" r="1" gradientUnits="userSpaceOnUse" gradientTransform="translate(1917.78 56.1127) rotate(85.3036) scale(38.9918)">
<stop stop-color="#F6F5F5"/>
<stop offset="1" stop-color="#FAFAFA"/>
</radialGradient>
<radialGradient id="paint10_radial_615_992" cx="0" cy="0" r="1" gradientUnits="userSpaceOnUse" gradientTransform="translate(1387.39 211.064) rotate(85.3036) scale(38.9918)">
<stop stop-color="#F6F5F5"/>
<stop offset="1" stop-color="#FAFAFA"/>
</radialGradient>
<radialGradient id="paint11_radial_615_992" cx="0" cy="0" r="1" gradientUnits="userSpaceOnUse" gradientTransform="translate(1463.17 211.064) rotate(85.3036) scale(38.9918)">
<stop stop-color="#F6F5F5"/>
<stop offset="1" stop-color="#FAFAFA"/>
</radialGradient>
<radialGradient id="paint12_radial_615_992" cx="0" cy="0" r="1" gradientUnits="userSpaceOnUse" gradientTransform="translate(1538.93 211.064) rotate(85.3036) scale(38.9918)">
<stop stop-color="#F6F5F5"/>
<stop offset="1" stop-color="#FAFAFA"/>
</radialGradient>
<radialGradient id="paint13_radial_615_992" cx="0" cy="0" r="1" gradientUnits="userSpaceOnUse" gradientTransform="translate(1614.71 211.064) rotate(85.3036) scale(38.9918)">
<stop stop-color="#F6F5F5"/>
<stop offset="1" stop-color="#FAFAFA"/>
</radialGradient>
<radialGradient id="paint14_radial_615_992" cx="0" cy="0" r="1" gradientUnits="userSpaceOnUse" gradientTransform="translate(1690.48 211.064) rotate(85.3036) scale(38.9918)">
<stop stop-color="#F6F5F5"/>
<stop offset="1" stop-color="#FAFAFA"/>
</radialGradient>
<radialGradient id="paint15_radial_615_992" cx="0" cy="0" r="1" gradientUnits="userSpaceOnUse" gradientTransform="translate(1766.25 211.064) rotate(85.3036) scale(38.9918)">
<stop stop-color="#F6F5F5"/>
<stop offset="1" stop-color="#FAFAFA"/>
</radialGradient>
<radialGradient id="paint16_radial_615_992" cx="0" cy="0" r="1" gradientUnits="userSpaceOnUse" gradientTransform="translate(1842.02 211.064) rotate(85.3036) scale(38.9918)">
<stop stop-color="#F6F5F5"/>
<stop offset="1" stop-color="#FAFAFA"/>
</radialGradient>
<radialGradient id="paint17_radial_615_992" cx="0" cy="0" r="1" gradientUnits="userSpaceOnUse" gradientTransform="translate(1917.78 211.064) rotate(85.3036) scale(38.9918)">
<stop stop-color="#F6F5F5"/>
<stop offset="1" stop-color="#FAFAFA"/>
</radialGradient>
<radialGradient id="paint18_radial_615_992" cx="0" cy="0" r="1" gradientUnits="userSpaceOnUse" gradientTransform="translate(1387.39 366.014) rotate(85.3036) scale(38.9918)">
<stop stop-color="#F6F5F5"/>
<stop offset="1" stop-color="#FAFAFA"/>
</radialGradient>
<radialGradient id="paint19_radial_615_992" cx="0" cy="0" r="1" gradientUnits="userSpaceOnUse" gradientTransform="translate(1463.17 366.013) rotate(85.3036) scale(38.9918)">
<stop stop-color="#F6F5F5"/>
<stop offset="1" stop-color="#FAFAFA"/>
</radialGradient>
<radialGradient id="paint20_radial_615_992" cx="0" cy="0" r="1" gradientUnits="userSpaceOnUse" gradientTransform="translate(1538.93 366.013) rotate(85.3036) scale(38.9918)">
<stop stop-color="#F6F5F5"/>
<stop offset="1" stop-color="#FAFAFA"/>
</radialGradient>
<radialGradient id="paint21_radial_615_992" cx="0" cy="0" r="1" gradientUnits="userSpaceOnUse" gradientTransform="translate(1614.71 366.014) rotate(85.3036) scale(38.9918)">
<stop stop-color="#F6F5F5"/>
<stop offset="1" stop-color="#FAFAFA"/>
</radialGradient>
<radialGradient id="paint22_radial_615_992" cx="0" cy="0" r="1" gradientUnits="userSpaceOnUse" gradientTransform="translate(1690.48 366.013) rotate(85.3036) scale(38.9918)">
<stop stop-color="#F6F5F5"/>
<stop offset="1" stop-color="#FAFAFA"/>
</radialGradient>
<radialGradient id="paint23_radial_615_992" cx="0" cy="0" r="1" gradientUnits="userSpaceOnUse" gradientTransform="translate(1766.25 366.013) rotate(85.3036) scale(38.9918)">
<stop stop-color="#F6F5F5"/>
<stop offset="1" stop-color="#FAFAFA"/>
</radialGradient>
<radialGradient id="paint24_radial_615_992" cx="0" cy="0" r="1" gradientUnits="userSpaceOnUse" gradientTransform="translate(1842.02 366.013) rotate(85.3036) scale(38.9918)">
<stop stop-color="#F6F5F5"/>
<stop offset="1" stop-color="#FAFAFA"/>
</radialGradient>
<radialGradient id="paint25_radial_615_992" cx="0" cy="0" r="1" gradientUnits="userSpaceOnUse" gradientTransform="translate(1917.78 366.013) rotate(85.3036) scale(38.9918)">
<stop stop-color="#F6F5F5"/>
<stop offset="1" stop-color="#FAFAFA"/>
</radialGradient>
<radialGradient id="paint26_radial_615_992" cx="0" cy="0" r="1" gradientUnits="userSpaceOnUse" gradientTransform="translate(1387.39 133.588) rotate(85.3036) scale(38.9918)">
<stop stop-color="#F6F5F5"/>
<stop offset="1" stop-color="#FAFAFA"/>
</radialGradient>
<radialGradient id="paint27_radial_615_992" cx="0" cy="0" r="1" gradientUnits="userSpaceOnUse" gradientTransform="translate(1463.17 133.588) rotate(85.3036) scale(38.9918)">
<stop stop-color="#F6F5F5"/>
<stop offset="1" stop-color="#FAFAFA"/>
</radialGradient>
<radialGradient id="paint28_radial_615_992" cx="0" cy="0" r="1" gradientUnits="userSpaceOnUse" gradientTransform="translate(1538.93 133.588) rotate(85.3036) scale(38.9918)">
<stop stop-color="#F6F5F5"/>
<stop offset="1" stop-color="#FAFAFA"/>
</radialGradient>
<radialGradient id="paint29_radial_615_992" cx="0" cy="0" r="1" gradientUnits="userSpaceOnUse" gradientTransform="translate(1614.71 133.588) rotate(85.3036) scale(38.9918)">
<stop stop-color="#F6F5F5"/>
<stop offset="1" stop-color="#FAFAFA"/>
</radialGradient>
<radialGradient id="paint30_radial_615_992" cx="0" cy="0" r="1" gradientUnits="userSpaceOnUse" gradientTransform="translate(1690.48 133.588) rotate(85.3036) scale(38.9918)">
<stop stop-color="#F6F5F5"/>
<stop offset="1" stop-color="#FAFAFA"/>
</radialGradient>
<radialGradient id="paint31_radial_615_992" cx="0" cy="0" r="1" gradientUnits="userSpaceOnUse" gradientTransform="translate(1766.25 133.588) rotate(85.3036) scale(38.9918)">
<stop stop-color="#F6F5F5"/>
<stop offset="1" stop-color="#FAFAFA"/>
</radialGradient>
<radialGradient id="paint32_radial_615_992" cx="0" cy="0" r="1" gradientUnits="userSpaceOnUse" gradientTransform="translate(1842.02 133.588) rotate(85.3036) scale(38.9918)">
<stop stop-color="#F6F5F5"/>
<stop offset="1" stop-color="#FAFAFA"/>
</radialGradient>
<radialGradient id="paint33_radial_615_992" cx="0" cy="0" r="1" gradientUnits="userSpaceOnUse" gradientTransform="translate(1917.78 133.588) rotate(85.3036) scale(38.9918)">
<stop stop-color="#F6F5F5"/>
<stop offset="1" stop-color="#FAFAFA"/>
</radialGradient>
<radialGradient id="paint34_radial_615_992" cx="0" cy="0" r="1" gradientUnits="userSpaceOnUse" gradientTransform="translate(1387.39 288.54) rotate(85.3036) scale(38.9918)">
<stop stop-color="#F6F5F5"/>
<stop offset="1" stop-color="#FAFAFA"/>
</radialGradient>
<radialGradient id="paint35_radial_615_992" cx="0" cy="0" r="1" gradientUnits="userSpaceOnUse" gradientTransform="translate(1463.17 288.54) rotate(85.3036) scale(38.9918)">
<stop stop-color="#F6F5F5"/>
<stop offset="1" stop-color="#FAFAFA"/>
</radialGradient>
<radialGradient id="paint36_radial_615_992" cx="0" cy="0" r="1" gradientUnits="userSpaceOnUse" gradientTransform="translate(1538.93 288.54) rotate(85.3036) scale(38.9918)">
<stop stop-color="#F6F5F5"/>
<stop offset="1" stop-color="#FAFAFA"/>
</radialGradient>
<radialGradient id="paint37_radial_615_992" cx="0" cy="0" r="1" gradientUnits="userSpaceOnUse" gradientTransform="translate(1614.71 288.54) rotate(85.3036) scale(38.9918)">
<stop stop-color="#F6F5F5"/>
<stop offset="1" stop-color="#FAFAFA"/>
</radialGradient>
<radialGradient id="paint38_radial_615_992" cx="0" cy="0" r="1" gradientUnits="userSpaceOnUse" gradientTransform="translate(1690.48 288.54) rotate(85.3036) scale(38.9918)">
<stop stop-color="#F6F5F5"/>
<stop offset="1" stop-color="#FAFAFA"/>
</radialGradient>
<radialGradient id="paint39_radial_615_992" cx="0" cy="0" r="1" gradientUnits="userSpaceOnUse" gradientTransform="translate(1766.25 288.54) rotate(85.3036) scale(38.9918)">
<stop stop-color="#F6F5F5"/>
<stop offset="1" stop-color="#FAFAFA"/>
</radialGradient>
<radialGradient id="paint40_radial_615_992" cx="0" cy="0" r="1" gradientUnits="userSpaceOnUse" gradientTransform="translate(1842.02 288.54) rotate(85.3036) scale(38.9918)">
<stop stop-color="#F6F5F5"/>
<stop offset="1" stop-color="#FAFAFA"/>
</radialGradient>
<radialGradient id="paint41_radial_615_992" cx="0" cy="0" r="1" gradientUnits="userSpaceOnUse" gradientTransform="translate(1917.78 288.54) rotate(85.3036) scale(38.9918)">
<stop stop-color="#F6F5F5"/>
<stop offset="1" stop-color="#FAFAFA"/>
</radialGradient>
<radialGradient id="paint42_radial_615_992" cx="0" cy="0" r="1" gradientUnits="userSpaceOnUse" gradientTransform="translate(1387.39 443.489) rotate(85.3036) scale(38.9918)">
<stop stop-color="#F6F5F5"/>
<stop offset="1" stop-color="#FAFAFA"/>
</radialGradient>
<radialGradient id="paint43_radial_615_992" cx="0" cy="0" r="1" gradientUnits="userSpaceOnUse" gradientTransform="translate(1463.17 443.489) rotate(85.3036) scale(38.9918)">
<stop stop-color="#F6F5F5"/>
<stop offset="1" stop-color="#FAFAFA"/>
</radialGradient>
<radialGradient id="paint44_radial_615_992" cx="0" cy="0" r="1" gradientUnits="userSpaceOnUse" gradientTransform="translate(1538.93 443.489) rotate(85.3036) scale(38.9918)">
<stop stop-color="#F6F5F5"/>
<stop offset="1" stop-color="#FAFAFA"/>
</radialGradient>
<radialGradient id="paint45_radial_615_992" cx="0" cy="0" r="1" gradientUnits="userSpaceOnUse" gradientTransform="translate(1614.71 443.489) rotate(85.3036) scale(38.9918)">
<stop stop-color="#F6F5F5"/>
<stop offset="1" stop-color="#FAFAFA"/>
</radialGradient>
<radialGradient id="paint46_radial_615_992" cx="0" cy="0" r="1" gradientUnits="userSpaceOnUse" gradientTransform="translate(1690.48 443.489) rotate(85.3036) scale(38.9918)">
<stop stop-color="#F6F5F5"/>
<stop offset="1" stop-color="#FAFAFA"/>
</radialGradient>
<radialGradient id="paint47_radial_615_992" cx="0" cy="0" r="1" gradientUnits="userSpaceOnUse" gradientTransform="translate(1766.25 443.489) rotate(85.3036) scale(38.9918)">
<stop stop-color="#F6F5F5"/>
<stop offset="1" stop-color="#FAFAFA"/>
</radialGradient>
<radialGradient id="paint48_radial_615_992" cx="0" cy="0" r="1" gradientUnits="userSpaceOnUse" gradientTransform="translate(1842.02 443.489) rotate(85.3036) scale(38.9918)">
<stop stop-color="#F6F5F5"/>
<stop offset="1" stop-color="#FAFAFA"/>
</radialGradient>
<radialGradient id="paint49_radial_615_992" cx="0" cy="0" r="1" gradientUnits="userSpaceOnUse" gradientTransform="translate(1917.78 443.489) rotate(85.3036) scale(38.9918)">
<stop stop-color="#F6F5F5"/>
<stop offset="1" stop-color="#FAFAFA"/>
</radialGradient>
<radialGradient id="paint50_radial_615_992" cx="0" cy="0" r="1" gradientUnits="userSpaceOnUse" gradientTransform="translate(247.311 963.012) rotate(85.3036) scale(25.4152)">
<stop stop-color="#F6F5F5"/>
<stop offset="1" stop-color="#FAFAFA"/>
</radialGradient>
<radialGradient id="paint51_radial_615_992" cx="0" cy="0" r="1" gradientUnits="userSpaceOnUse" gradientTransform="translate(296.697 963.012) rotate(85.3036) scale(25.4152)">
<stop stop-color="#F6F5F5"/>
<stop offset="1" stop-color="#FAFAFA"/>
</radialGradient>
<radialGradient id="paint52_radial_615_992" cx="0" cy="0" r="1" gradientUnits="userSpaceOnUse" gradientTransform="translate(346.084 963.012) rotate(85.3036) scale(25.4152)">
<stop stop-color="#F6F5F5"/>
<stop offset="1" stop-color="#FAFAFA"/>
</radialGradient>
<radialGradient id="paint53_radial_615_992" cx="0" cy="0" r="1" gradientUnits="userSpaceOnUse" gradientTransform="translate(395.479 963.012) rotate(85.3036) scale(25.4152)">
<stop stop-color="#F6F5F5"/>
<stop offset="1" stop-color="#FAFAFA"/>
</radialGradient>
<radialGradient id="paint54_radial_615_992" cx="0" cy="0" r="1" gradientUnits="userSpaceOnUse" gradientTransform="translate(444.861 963.012) rotate(85.3036) scale(25.4152)">
<stop stop-color="#F6F5F5"/>
<stop offset="1" stop-color="#FAFAFA"/>
</radialGradient>
<radialGradient id="paint55_radial_615_992" cx="0" cy="0" r="1" gradientUnits="userSpaceOnUse" gradientTransform="translate(494.252 963.012) rotate(85.3036) scale(25.4152)">
<stop stop-color="#F6F5F5"/>
<stop offset="1" stop-color="#FAFAFA"/>
</radialGradient>
<radialGradient id="paint56_radial_615_992" cx="0" cy="0" r="1" gradientUnits="userSpaceOnUse" gradientTransform="translate(543.643 963.012) rotate(85.3036) scale(25.4152)">
<stop stop-color="#F6F5F5"/>
<stop offset="1" stop-color="#FAFAFA"/>
</radialGradient>
<radialGradient id="paint57_radial_615_992" cx="0" cy="0" r="1" gradientUnits="userSpaceOnUse" gradientTransform="translate(593.022 963.012) rotate(85.3036) scale(25.4152)">
<stop stop-color="#F6F5F5"/>
<stop offset="1" stop-color="#FAFAFA"/>
</radialGradient>
<radialGradient id="paint58_radial_615_992" cx="0" cy="0" r="1" gradientUnits="userSpaceOnUse" gradientTransform="translate(247.311 1064.01) rotate(85.3036) scale(25.4152)">
<stop stop-color="#F6F5F5"/>
<stop offset="1" stop-color="#FAFAFA"/>
</radialGradient>
<radialGradient id="paint59_radial_615_992" cx="0" cy="0" r="1" gradientUnits="userSpaceOnUse" gradientTransform="translate(296.697 1064.01) rotate(85.3036) scale(25.4152)">
<stop stop-color="#F6F5F5"/>
<stop offset="1" stop-color="#FAFAFA"/>
</radialGradient>
<radialGradient id="paint60_radial_615_992" cx="0" cy="0" r="1" gradientUnits="userSpaceOnUse" gradientTransform="translate(346.084 1064.01) rotate(85.3036) scale(25.4152)">
<stop stop-color="#F6F5F5"/>
<stop offset="1" stop-color="#FAFAFA"/>
</radialGradient>
<radialGradient id="paint61_radial_615_992" cx="0" cy="0" r="1" gradientUnits="userSpaceOnUse" gradientTransform="translate(395.479 1064.01) rotate(85.3036) scale(25.4152)">
<stop stop-color="#F6F5F5"/>
<stop offset="1" stop-color="#FAFAFA"/>
</radialGradient>
<radialGradient id="paint62_radial_615_992" cx="0" cy="0" r="1" gradientUnits="userSpaceOnUse" gradientTransform="translate(444.861 1064.01) rotate(85.3036) scale(25.4152)">
<stop stop-color="#F6F5F5"/>
<stop offset="1" stop-color="#FAFAFA"/>
</radialGradient>
<radialGradient id="paint63_radial_615_992" cx="0" cy="0" r="1" gradientUnits="userSpaceOnUse" gradientTransform="translate(494.252 1064.01) rotate(85.3036) scale(25.4152)">
<stop stop-color="#F6F5F5"/>
<stop offset="1" stop-color="#FAFAFA"/>
</radialGradient>
<radialGradient id="paint64_radial_615_992" cx="0" cy="0" r="1" gradientUnits="userSpaceOnUse" gradientTransform="translate(543.643 1064.01) rotate(85.3036) scale(25.4152)">
<stop stop-color="#F6F5F5"/>
<stop offset="1" stop-color="#FAFAFA"/>
</radialGradient>
<radialGradient id="paint65_radial_615_992" cx="0" cy="0" r="1" gradientUnits="userSpaceOnUse" gradientTransform="translate(593.022 1064.01) rotate(85.3036) scale(25.4152)">
<stop stop-color="#F6F5F5"/>
<stop offset="1" stop-color="#FAFAFA"/>
</radialGradient>
<radialGradient id="paint66_radial_615_992" cx="0" cy="0" r="1" gradientUnits="userSpaceOnUse" gradientTransform="translate(247.311 1165.01) rotate(85.3036) scale(25.4152)">
<stop stop-color="#F6F5F5"/>
<stop offset="1" stop-color="#FAFAFA"/>
</radialGradient>
<radialGradient id="paint67_radial_615_992" cx="0" cy="0" r="1" gradientUnits="userSpaceOnUse" gradientTransform="translate(296.697 1165.01) rotate(85.3036) scale(25.4152)">
<stop stop-color="#F6F5F5"/>
<stop offset="1" stop-color="#FAFAFA"/>
</radialGradient>
<radialGradient id="paint68_radial_615_992" cx="0" cy="0" r="1" gradientUnits="userSpaceOnUse" gradientTransform="translate(346.084 1165.01) rotate(85.3036) scale(25.4152)">
<stop stop-color="#F6F5F5"/>
<stop offset="1" stop-color="#FAFAFA"/>
</radialGradient>
<radialGradient id="paint69_radial_615_992" cx="0" cy="0" r="1" gradientUnits="userSpaceOnUse" gradientTransform="translate(395.479 1165.01) rotate(85.3036) scale(25.4152)">
<stop stop-color="#F6F5F5"/>
<stop offset="1" stop-color="#FAFAFA"/>
</radialGradient>
<radialGradient id="paint70_radial_615_992" cx="0" cy="0" r="1" gradientUnits="userSpaceOnUse" gradientTransform="translate(444.861 1165.01) rotate(85.3036) scale(25.4152)">
<stop stop-color="#F6F5F5"/>
<stop offset="1" stop-color="#FAFAFA"/>
</radialGradient>
<radialGradient id="paint71_radial_615_992" cx="0" cy="0" r="1" gradientUnits="userSpaceOnUse" gradientTransform="translate(494.252 1165.01) rotate(85.3036) scale(25.4152)">
<stop stop-color="#F6F5F5"/>
<stop offset="1" stop-color="#FAFAFA"/>
</radialGradient>
<radialGradient id="paint72_radial_615_992" cx="0" cy="0" r="1" gradientUnits="userSpaceOnUse" gradientTransform="translate(543.643 1165.01) rotate(85.3036) scale(25.4152)">
<stop stop-color="#F6F5F5"/>
<stop offset="1" stop-color="#FAFAFA"/>
</radialGradient>
<radialGradient id="paint73_radial_615_992" cx="0" cy="0" r="1" gradientUnits="userSpaceOnUse" gradientTransform="translate(593.022 1165.01) rotate(85.3036) scale(25.4152)">
<stop stop-color="#F6F5F5"/>
<stop offset="1" stop-color="#FAFAFA"/>
</radialGradient>
<radialGradient id="paint74_radial_615_992" cx="0" cy="0" r="1" gradientUnits="userSpaceOnUse" gradientTransform="translate(247.311 1013.51) rotate(85.3036) scale(25.4152)">
<stop stop-color="#F6F5F5"/>
<stop offset="1" stop-color="#FAFAFA"/>
</radialGradient>
<radialGradient id="paint75_radial_615_992" cx="0" cy="0" r="1" gradientUnits="userSpaceOnUse" gradientTransform="translate(296.697 1013.51) rotate(85.3036) scale(25.4152)">
<stop stop-color="#F6F5F5"/>
<stop offset="1" stop-color="#FAFAFA"/>
</radialGradient>
<radialGradient id="paint76_radial_615_992" cx="0" cy="0" r="1" gradientUnits="userSpaceOnUse" gradientTransform="translate(346.084 1013.51) rotate(85.3036) scale(25.4152)">
<stop stop-color="#F6F5F5"/>
<stop offset="1" stop-color="#FAFAFA"/>
</radialGradient>
<radialGradient id="paint77_radial_615_992" cx="0" cy="0" r="1" gradientUnits="userSpaceOnUse" gradientTransform="translate(395.479 1013.51) rotate(85.3036) scale(25.4152)">
<stop stop-color="#F6F5F5"/>
<stop offset="1" stop-color="#FAFAFA"/>
</radialGradient>
<radialGradient id="paint78_radial_615_992" cx="0" cy="0" r="1" gradientUnits="userSpaceOnUse" gradientTransform="translate(444.861 1013.51) rotate(85.3036) scale(25.4152)">
<stop stop-color="#F6F5F5"/>
<stop offset="1" stop-color="#FAFAFA"/>
</radialGradient>
<radialGradient id="paint79_radial_615_992" cx="0" cy="0" r="1" gradientUnits="userSpaceOnUse" gradientTransform="translate(494.252 1013.51) rotate(85.3036) scale(25.4152)">
<stop stop-color="#F6F5F5"/>
<stop offset="1" stop-color="#FAFAFA"/>
</radialGradient>
<radialGradient id="paint80_radial_615_992" cx="0" cy="0" r="1" gradientUnits="userSpaceOnUse" gradientTransform="translate(543.643 1013.51) rotate(85.3036) scale(25.4152)">
<stop stop-color="#F6F5F5"/>
<stop offset="1" stop-color="#FAFAFA"/>
</radialGradient>
<radialGradient id="paint81_radial_615_992" cx="0" cy="0" r="1" gradientUnits="userSpaceOnUse" gradientTransform="translate(593.022 1013.51) rotate(85.3036) scale(25.4152)">
<stop stop-color="#F6F5F5"/>
<stop offset="1" stop-color="#FAFAFA"/>
</radialGradient>
<radialGradient id="paint82_radial_615_992" cx="0" cy="0" r="1" gradientUnits="userSpaceOnUse" gradientTransform="translate(247.311 1114.51) rotate(85.3036) scale(25.4152)">
<stop stop-color="#F6F5F5"/>
<stop offset="1" stop-color="#FAFAFA"/>
</radialGradient>
<radialGradient id="paint83_radial_615_992" cx="0" cy="0" r="1" gradientUnits="userSpaceOnUse" gradientTransform="translate(296.697 1114.51) rotate(85.3036) scale(25.4152)">
<stop stop-color="#F6F5F5"/>
<stop offset="1" stop-color="#FAFAFA"/>
</radialGradient>
<radialGradient id="paint84_radial_615_992" cx="0" cy="0" r="1" gradientUnits="userSpaceOnUse" gradientTransform="translate(346.084 1114.51) rotate(85.3036) scale(25.4152)">
<stop stop-color="#F6F5F5"/>
<stop offset="1" stop-color="#FAFAFA"/>
</radialGradient>
<radialGradient id="paint85_radial_615_992" cx="0" cy="0" r="1" gradientUnits="userSpaceOnUse" gradientTransform="translate(395.479 1114.51) rotate(85.3036) scale(25.4152)">
<stop stop-color="#F6F5F5"/>
<stop offset="1" stop-color="#FAFAFA"/>
</radialGradient>
<radialGradient id="paint86_radial_615_992" cx="0" cy="0" r="1" gradientUnits="userSpaceOnUse" gradientTransform="translate(444.861 1114.51) rotate(85.3036) scale(25.4152)">
<stop stop-color="#F6F5F5"/>
<stop offset="1" stop-color="#FAFAFA"/>
</radialGradient>
<radialGradient id="paint87_radial_615_992" cx="0" cy="0" r="1" gradientUnits="userSpaceOnUse" gradientTransform="translate(494.252 1114.51) rotate(85.3036) scale(25.4152)">
<stop stop-color="#F6F5F5"/>
<stop offset="1" stop-color="#FAFAFA"/>
</radialGradient>
<radialGradient id="paint88_radial_615_992" cx="0" cy="0" r="1" gradientUnits="userSpaceOnUse" gradientTransform="translate(543.643 1114.51) rotate(85.3036) scale(25.4152)">
<stop stop-color="#F6F5F5"/>
<stop offset="1" stop-color="#FAFAFA"/>
</radialGradient>
<radialGradient id="paint89_radial_615_992" cx="0" cy="0" r="1" gradientUnits="userSpaceOnUse" gradientTransform="translate(593.022 1114.51) rotate(85.3036) scale(25.4152)">
<stop stop-color="#F6F5F5"/>
<stop offset="1" stop-color="#FAFAFA"/>
</radialGradient>
<radialGradient id="paint90_radial_615_992" cx="0" cy="0" r="1" gradientUnits="userSpaceOnUse" gradientTransform="translate(247.311 1215.51) rotate(85.3036) scale(25.4152)">
<stop stop-color="#F6F5F5"/>
<stop offset="1" stop-color="#FAFAFA"/>
</radialGradient>
<radialGradient id="paint91_radial_615_992" cx="0" cy="0" r="1" gradientUnits="userSpaceOnUse" gradientTransform="translate(296.697 1215.51) rotate(85.3036) scale(25.4152)">
<stop stop-color="#F6F5F5"/>
<stop offset="1" stop-color="#FAFAFA"/>
</radialGradient>
<radialGradient id="paint92_radial_615_992" cx="0" cy="0" r="1" gradientUnits="userSpaceOnUse" gradientTransform="translate(346.084 1215.51) rotate(85.3036) scale(25.4152)">
<stop stop-color="#F6F5F5"/>
<stop offset="1" stop-color="#FAFAFA"/>
</radialGradient>
<radialGradient id="paint93_radial_615_992" cx="0" cy="0" r="1" gradientUnits="userSpaceOnUse" gradientTransform="translate(395.479 1215.51) rotate(85.3036) scale(25.4152)">
<stop stop-color="#F6F5F5"/>
<stop offset="1" stop-color="#FAFAFA"/>
</radialGradient>
<radialGradient id="paint94_radial_615_992" cx="0" cy="0" r="1" gradientUnits="userSpaceOnUse" gradientTransform="translate(444.861 1215.51) rotate(85.3036) scale(25.4152)">
<stop stop-color="#F6F5F5"/>
<stop offset="1" stop-color="#FAFAFA"/>
</radialGradient>
<radialGradient id="paint95_radial_615_992" cx="0" cy="0" r="1" gradientUnits="userSpaceOnUse" gradientTransform="translate(494.252 1215.51) rotate(85.3036) scale(25.4152)">
<stop stop-color="#F6F5F5"/>
<stop offset="1" stop-color="#FAFAFA"/>
</radialGradient>
<radialGradient id="paint96_radial_615_992" cx="0" cy="0" r="1" gradientUnits="userSpaceOnUse" gradientTransform="translate(543.643 1215.51) rotate(85.3036) scale(25.4152)">
<stop stop-color="#F6F5F5"/>
<stop offset="1" stop-color="#FAFAFA"/>
</radialGradient>
<radialGradient id="paint97_radial_615_992" cx="0" cy="0" r="1" gradientUnits="userSpaceOnUse" gradientTransform="translate(593.022 1215.51) rotate(85.3036) scale(25.4152)">
<stop stop-color="#F6F5F5"/>
<stop offset="1" stop-color="#FAFAFA"/>
</radialGradient>
<radialGradient id="paint98_radial_615_992" cx="0" cy="0" r="1" gradientUnits="userSpaceOnUse" gradientTransform="translate(1581.96 656.761) rotate(85.3036) scale(438.851)">
<stop stop-color="#DADADA"/>
<stop offset="1" stop-color="#FAFAFA"/>
</radialGradient>
</defs>
</svg>
