<svg width="1613" height="333" viewBox="0 0 1613 333" fill="none" xmlns="http://www.w3.org/2000/svg">
<rect x="1033" y="272.273" width="506.675" height="506.675" rx="42.989" transform="rotate(-45 1033 272.273)" fill="url(#paint0_radial_596_994)" fill-opacity="0.6"/>
<rect x="-15" y="127.333" width="479.889" height="479.889" rx="36.7977" transform="rotate(-45 -15 127.333)" fill="url(#paint1_radial_596_994)" fill-opacity="0.6"/>
<g opacity="0.5">
<rect x="341" y="212.302" width="25.8816" height="25.8816" rx="5.03638" transform="rotate(-45 341 212.302)" fill="url(#paint2_radial_596_994)" fill-opacity="0.5"/>
<rect x="389.203" y="212.301" width="25.8816" height="25.8816" rx="5.03638" transform="rotate(-45 389.203 212.301)" fill="url(#paint3_radial_596_994)" fill-opacity="0.5"/>
<rect x="437.397" y="212.301" width="25.8816" height="25.8816" rx="5.03638" transform="rotate(-45 437.397 212.301)" fill="url(#paint4_radial_596_994)" fill-opacity="0.5"/>
<rect x="485.598" y="212.301" width="25.8816" height="25.8816" rx="5.03638" transform="rotate(-45 485.598 212.301)" fill="url(#paint5_radial_596_994)" fill-opacity="0.5"/>
<rect x="533.804" y="212.302" width="25.8816" height="25.8816" rx="5.03638" transform="rotate(-45 533.804 212.302)" fill="url(#paint6_radial_596_994)" fill-opacity="0.5"/>
<rect x="581.998" y="212.301" width="25.8816" height="25.8816" rx="5.03638" transform="rotate(-45 581.998 212.301)" fill="url(#paint7_radial_596_994)" fill-opacity="0.5"/>
<rect x="630.198" y="212.301" width="25.8816" height="25.8816" rx="5.03638" transform="rotate(-45 630.198 212.301)" fill="url(#paint8_radial_596_994)" fill-opacity="0.5"/>
<rect x="678.397" y="212.301" width="25.8816" height="25.8816" rx="5.03638" transform="rotate(-45 678.397 212.301)" fill="url(#paint9_radial_596_994)" fill-opacity="0.5"/>
</g>
<g opacity="0.5">
<rect x="341" y="310.87" width="25.8816" height="25.8816" rx="5.03638" transform="rotate(-45 341 310.87)" fill="url(#paint10_radial_596_994)" fill-opacity="0.5"/>
<rect x="389.203" y="310.87" width="25.8816" height="25.8816" rx="5.03638" transform="rotate(-45 389.203 310.87)" fill="url(#paint11_radial_596_994)" fill-opacity="0.5"/>
<rect x="437.397" y="310.87" width="25.8816" height="25.8816" rx="5.03638" transform="rotate(-45 437.397 310.87)" fill="url(#paint12_radial_596_994)" fill-opacity="0.5"/>
<rect x="485.598" y="310.87" width="25.8816" height="25.8816" rx="5.03638" transform="rotate(-45 485.598 310.87)" fill="url(#paint13_radial_596_994)" fill-opacity="0.5"/>
<rect x="533.804" y="310.87" width="25.8816" height="25.8816" rx="5.03638" transform="rotate(-45 533.804 310.87)" fill="url(#paint14_radial_596_994)" fill-opacity="0.5"/>
<rect x="581.998" y="310.87" width="25.8816" height="25.8816" rx="5.03638" transform="rotate(-45 581.998 310.87)" fill="url(#paint15_radial_596_994)" fill-opacity="0.5"/>
<rect x="630.198" y="310.87" width="25.8816" height="25.8816" rx="5.03638" transform="rotate(-45 630.198 310.87)" fill="url(#paint16_radial_596_994)" fill-opacity="0.5"/>
<rect x="678.397" y="310.87" width="25.8816" height="25.8816" rx="5.03638" transform="rotate(-45 678.397 310.87)" fill="url(#paint17_radial_596_994)" fill-opacity="0.5"/>
</g>
<g opacity="0.5">
<rect x="341" y="261.585" width="25.8816" height="25.8816" rx="5.03638" transform="rotate(-45 341 261.585)" fill="url(#paint18_radial_596_994)" fill-opacity="0.5"/>
<rect x="389.203" y="261.585" width="25.8816" height="25.8816" rx="5.03638" transform="rotate(-45 389.203 261.585)" fill="url(#paint19_radial_596_994)" fill-opacity="0.5"/>
<rect x="437.398" y="261.585" width="25.8816" height="25.8816" rx="5.03638" transform="rotate(-45 437.398 261.585)" fill="url(#paint20_radial_596_994)" fill-opacity="0.5"/>
<rect width="25.8816" height="25.8816" rx="5.03638" transform="matrix(0.707103 -0.707111 0.707103 0.707111 485.598 261.585)" fill="url(#paint21_radial_596_994)" fill-opacity="0.5"/>
<rect x="533.804" y="261.585" width="25.8816" height="25.8816" rx="5.03638" transform="rotate(-45 533.804 261.585)" fill="url(#paint22_radial_596_994)" fill-opacity="0.5"/>
<rect x="581.998" y="261.585" width="25.8816" height="25.8816" rx="5.03638" transform="rotate(-45 581.998 261.585)" fill="url(#paint23_radial_596_994)" fill-opacity="0.5"/>
<rect x="630.198" y="261.585" width="25.8816" height="25.8816" rx="5.03638" transform="rotate(-45 630.198 261.585)" fill="url(#paint24_radial_596_994)" fill-opacity="0.5"/>
<rect x="678.397" y="261.585" width="25.8816" height="25.8816" rx="5.03638" transform="rotate(-45 678.397 261.585)" fill="url(#paint25_radial_596_994)" fill-opacity="0.5"/>
</g>
<g opacity="0.5">
<rect x="1181" y="55.1104" width="20.62" height="20.62" rx="4.29021" transform="rotate(-45 1181 55.1104)" fill="url(#paint26_radial_596_994)" fill-opacity="0.5"/>
<rect x="1219.4" y="55.1104" width="20.62" height="20.62" rx="4.29021" transform="rotate(-45 1219.4 55.1104)" fill="url(#paint27_radial_596_994)" fill-opacity="0.5"/>
<rect x="1257.8" y="55.1104" width="20.62" height="20.62" rx="4.29021" transform="rotate(-45 1257.8 55.1104)" fill="url(#paint28_radial_596_994)" fill-opacity="0.5"/>
<rect x="1296.2" y="55.1104" width="20.62" height="20.62" rx="4.29021" transform="rotate(-45 1296.2 55.1104)" fill="url(#paint29_radial_596_994)" fill-opacity="0.5"/>
<rect x="1334.61" y="55.1104" width="20.62" height="20.62" rx="4.29021" transform="rotate(-45 1334.61 55.1104)" fill="url(#paint30_radial_596_994)" fill-opacity="0.5"/>
<rect x="1373" y="55.1104" width="20.62" height="20.62" rx="4.29021" transform="rotate(-45 1373 55.1104)" fill="url(#paint31_radial_596_994)" fill-opacity="0.5"/>
<rect x="1411.41" y="55.1104" width="20.62" height="20.62" rx="4.29021" transform="rotate(-45 1411.41 55.1104)" fill="url(#paint32_radial_596_994)" fill-opacity="0.5"/>
<rect x="1449.81" y="55.1104" width="20.62" height="20.62" rx="4.29021" transform="rotate(-45 1449.81 55.1104)" fill="url(#paint33_radial_596_994)" fill-opacity="0.5"/>
</g>
<g opacity="0.5">
<rect x="1181" y="133.64" width="20.62" height="20.62" rx="4.29021" transform="rotate(-45 1181 133.64)" fill="url(#paint34_radial_596_994)" fill-opacity="0.5"/>
<rect x="1219.4" y="133.64" width="20.62" height="20.62" rx="4.29021" transform="rotate(-45 1219.4 133.64)" fill="url(#paint35_radial_596_994)" fill-opacity="0.5"/>
<rect x="1257.8" y="133.64" width="20.62" height="20.62" rx="4.29021" transform="rotate(-45 1257.8 133.64)" fill="url(#paint36_radial_596_994)" fill-opacity="0.5"/>
<rect x="1296.2" y="133.64" width="20.62" height="20.62" rx="4.29021" transform="rotate(-45 1296.2 133.64)" fill="url(#paint37_radial_596_994)" fill-opacity="0.5"/>
<rect x="1334.61" y="133.64" width="20.62" height="20.62" rx="4.29021" transform="rotate(-45 1334.61 133.64)" fill="url(#paint38_radial_596_994)" fill-opacity="0.5"/>
<rect x="1373" y="133.64" width="20.62" height="20.62" rx="4.29021" transform="rotate(-45 1373 133.64)" fill="url(#paint39_radial_596_994)" fill-opacity="0.5"/>
<rect x="1411.41" y="133.64" width="20.62" height="20.62" rx="4.29021" transform="rotate(-45 1411.41 133.64)" fill="url(#paint40_radial_596_994)" fill-opacity="0.5"/>
<rect x="1449.81" y="133.64" width="20.62" height="20.62" rx="4.29021" transform="rotate(-45 1449.81 133.64)" fill="url(#paint41_radial_596_994)" fill-opacity="0.5"/>
</g>
<g opacity="0.5">
<rect x="1181" y="15.8452" width="20.62" height="20.62" rx="4.29021" transform="rotate(-45 1181 15.8452)" fill="url(#paint42_radial_596_994)" fill-opacity="0.5"/>
<rect x="1219.4" y="15.8452" width="20.62" height="20.62" rx="4.29021" transform="rotate(-45 1219.4 15.8452)" fill="url(#paint43_radial_596_994)" fill-opacity="0.5"/>
<rect x="1257.8" y="15.8452" width="20.62" height="20.62" rx="4.29021" transform="rotate(-45 1257.8 15.8452)" fill="url(#paint44_radial_596_994)" fill-opacity="0.5"/>
<rect x="1296.2" y="15.8452" width="20.62" height="20.62" rx="4.29021" transform="rotate(-45 1296.2 15.8452)" fill="url(#paint45_radial_596_994)" fill-opacity="0.5"/>
<rect x="1334.61" y="15.8452" width="20.62" height="20.62" rx="4.29021" transform="rotate(-45 1334.61 15.8452)" fill="url(#paint46_radial_596_994)" fill-opacity="0.5"/>
<rect x="1373" y="15.8452" width="20.62" height="20.62" rx="4.29021" transform="rotate(-45 1373 15.8452)" fill="url(#paint47_radial_596_994)" fill-opacity="0.5"/>
<rect x="1411.41" y="15.8452" width="20.62" height="20.62" rx="4.29021" transform="rotate(-45 1411.41 15.8452)" fill="url(#paint48_radial_596_994)" fill-opacity="0.5"/>
<rect x="1449.81" y="15.8452" width="20.62" height="20.62" rx="4.29021" transform="rotate(-45 1449.81 15.8452)" fill="url(#paint49_radial_596_994)" fill-opacity="0.5"/>
</g>
<g opacity="0.5">
<rect width="20.62" height="20.62" rx="4.29021" transform="matrix(0.707105 -0.707108 0.707105 0.707108 1181 94.375)" fill="url(#paint50_radial_596_994)" fill-opacity="0.5"/>
<rect width="20.62" height="20.62" rx="4.29021" transform="matrix(0.707105 -0.707108 0.707105 0.707108 1219.4 94.3755)" fill="url(#paint51_radial_596_994)" fill-opacity="0.5"/>
<rect width="20.62" height="20.62" rx="4.29021" transform="matrix(0.707105 -0.707108 0.707105 0.707108 1257.8 94.3755)" fill="url(#paint52_radial_596_994)" fill-opacity="0.5"/>
<rect width="20.62" height="20.62" rx="4.29021" transform="matrix(0.707105 -0.707108 0.707105 0.707108 1296.2 94.375)" fill="url(#paint53_radial_596_994)" fill-opacity="0.5"/>
<rect width="20.62" height="20.62" rx="4.29021" transform="matrix(0.707105 -0.707108 0.707105 0.707108 1334.61 94.375)" fill="url(#paint54_radial_596_994)" fill-opacity="0.5"/>
<rect width="20.62" height="20.62" rx="4.29021" transform="matrix(0.707105 -0.707108 0.707105 0.707108 1373 94.3755)" fill="url(#paint55_radial_596_994)" fill-opacity="0.5"/>
<rect width="20.62" height="20.62" rx="4.29021" transform="matrix(0.707105 -0.707108 0.707105 0.707108 1411.41 94.375)" fill="url(#paint56_radial_596_994)" fill-opacity="0.5"/>
<rect width="20.62" height="20.62" rx="4.29021" transform="matrix(0.707105 -0.707108 0.707105 0.707108 1449.81 94.3755)" fill="url(#paint57_radial_596_994)" fill-opacity="0.5"/>
</g>
<g opacity="0.5">
<rect x="1181" y="172.906" width="20.62" height="20.62" rx="4.29021" transform="rotate(-45 1181 172.906)" fill="url(#paint58_radial_596_994)" fill-opacity="0.5"/>
<rect x="1219.4" y="172.906" width="20.62" height="20.62" rx="4.29021" transform="rotate(-45 1219.4 172.906)" fill="url(#paint59_radial_596_994)" fill-opacity="0.5"/>
<rect x="1257.8" y="172.906" width="20.62" height="20.62" rx="4.29021" transform="rotate(-45 1257.8 172.906)" fill="url(#paint60_radial_596_994)" fill-opacity="0.5"/>
<rect x="1296.2" y="172.906" width="20.62" height="20.62" rx="4.29021" transform="rotate(-45 1296.2 172.906)" fill="url(#paint61_radial_596_994)" fill-opacity="0.5"/>
<rect x="1334.61" y="172.906" width="20.62" height="20.62" rx="4.29021" transform="rotate(-45 1334.61 172.906)" fill="url(#paint62_radial_596_994)" fill-opacity="0.5"/>
<rect x="1373" y="172.906" width="20.62" height="20.62" rx="4.29021" transform="rotate(-45 1373 172.906)" fill="url(#paint63_radial_596_994)" fill-opacity="0.5"/>
<rect x="1411.41" y="172.906" width="20.62" height="20.62" rx="4.29021" transform="rotate(-45 1411.41 172.906)" fill="url(#paint64_radial_596_994)" fill-opacity="0.5"/>
<rect x="1449.81" y="172.906" width="20.62" height="20.62" rx="4.29021" transform="rotate(-45 1449.81 172.906)" fill="url(#paint65_radial_596_994)" fill-opacity="0.5"/>
</g>
<defs>
<radialGradient id="paint0_radial_596_994" cx="0" cy="0" r="1" gradientUnits="userSpaceOnUse" gradientTransform="translate(1286.34 525.611) rotate(85.3036) scale(485.574)">
<stop stop-color="white"/>
<stop offset="1" stop-color="#FAFAFA"/>
</radialGradient>
<radialGradient id="paint1_radial_596_994" cx="0" cy="0" r="1" gradientUnits="userSpaceOnUse" gradientTransform="translate(224.945 367.278) rotate(85.3036) scale(459.903)">
<stop stop-color="white"/>
<stop offset="1" stop-color="#FAFAFA"/>
</radialGradient>
<radialGradient id="paint2_radial_596_994" cx="0" cy="0" r="1" gradientUnits="userSpaceOnUse" gradientTransform="translate(353.941 225.243) rotate(85.3036) scale(24.8037)">
<stop stop-color="#D2D2D2"/>
<stop offset="1" stop-color="#FAFAFA"/>
</radialGradient>
<radialGradient id="paint3_radial_596_994" cx="0" cy="0" r="1" gradientUnits="userSpaceOnUse" gradientTransform="translate(402.144 225.242) rotate(85.3036) scale(24.8037)">
<stop stop-color="#D2D2D2"/>
<stop offset="1" stop-color="#FAFAFA"/>
</radialGradient>
<radialGradient id="paint4_radial_596_994" cx="0" cy="0" r="1" gradientUnits="userSpaceOnUse" gradientTransform="translate(450.338 225.242) rotate(85.3036) scale(24.8037)">
<stop stop-color="#D2D2D2"/>
<stop offset="1" stop-color="#FAFAFA"/>
</radialGradient>
<radialGradient id="paint5_radial_596_994" cx="0" cy="0" r="1" gradientUnits="userSpaceOnUse" gradientTransform="translate(498.538 225.242) rotate(85.3036) scale(24.8037)">
<stop stop-color="#D2D2D2"/>
<stop offset="1" stop-color="#FAFAFA"/>
</radialGradient>
<radialGradient id="paint6_radial_596_994" cx="0" cy="0" r="1" gradientUnits="userSpaceOnUse" gradientTransform="translate(546.745 225.243) rotate(85.3036) scale(24.8037)">
<stop stop-color="#D2D2D2"/>
<stop offset="1" stop-color="#FAFAFA"/>
</radialGradient>
<radialGradient id="paint7_radial_596_994" cx="0" cy="0" r="1" gradientUnits="userSpaceOnUse" gradientTransform="translate(594.939 225.242) rotate(85.3036) scale(24.8037)">
<stop stop-color="#D2D2D2"/>
<stop offset="1" stop-color="#FAFAFA"/>
</radialGradient>
<radialGradient id="paint8_radial_596_994" cx="0" cy="0" r="1" gradientUnits="userSpaceOnUse" gradientTransform="translate(643.139 225.242) rotate(85.3036) scale(24.8037)">
<stop stop-color="#D2D2D2"/>
<stop offset="1" stop-color="#FAFAFA"/>
</radialGradient>
<radialGradient id="paint9_radial_596_994" cx="0" cy="0" r="1" gradientUnits="userSpaceOnUse" gradientTransform="translate(691.338 225.242) rotate(85.3036) scale(24.8037)">
<stop stop-color="#D2D2D2"/>
<stop offset="1" stop-color="#FAFAFA"/>
</radialGradient>
<radialGradient id="paint10_radial_596_994" cx="0" cy="0" r="1" gradientUnits="userSpaceOnUse" gradientTransform="translate(353.941 323.81) rotate(85.3036) scale(24.8037)">
<stop stop-color="#D2D2D2"/>
<stop offset="1" stop-color="#FAFAFA"/>
</radialGradient>
<radialGradient id="paint11_radial_596_994" cx="0" cy="0" r="1" gradientUnits="userSpaceOnUse" gradientTransform="translate(402.144 323.81) rotate(85.3036) scale(24.8037)">
<stop stop-color="#D2D2D2"/>
<stop offset="1" stop-color="#FAFAFA"/>
</radialGradient>
<radialGradient id="paint12_radial_596_994" cx="0" cy="0" r="1" gradientUnits="userSpaceOnUse" gradientTransform="translate(450.338 323.81) rotate(85.3036) scale(24.8037)">
<stop stop-color="#D2D2D2"/>
<stop offset="1" stop-color="#FAFAFA"/>
</radialGradient>
<radialGradient id="paint13_radial_596_994" cx="0" cy="0" r="1" gradientUnits="userSpaceOnUse" gradientTransform="translate(498.538 323.81) rotate(85.3036) scale(24.8037)">
<stop stop-color="#D2D2D2"/>
<stop offset="1" stop-color="#FAFAFA"/>
</radialGradient>
<radialGradient id="paint14_radial_596_994" cx="0" cy="0" r="1" gradientUnits="userSpaceOnUse" gradientTransform="translate(546.745 323.81) rotate(85.3036) scale(24.8037)">
<stop stop-color="#D2D2D2"/>
<stop offset="1" stop-color="#FAFAFA"/>
</radialGradient>
<radialGradient id="paint15_radial_596_994" cx="0" cy="0" r="1" gradientUnits="userSpaceOnUse" gradientTransform="translate(594.939 323.81) rotate(85.3036) scale(24.8037)">
<stop stop-color="#D2D2D2"/>
<stop offset="1" stop-color="#FAFAFA"/>
</radialGradient>
<radialGradient id="paint16_radial_596_994" cx="0" cy="0" r="1" gradientUnits="userSpaceOnUse" gradientTransform="translate(643.139 323.81) rotate(85.3036) scale(24.8037)">
<stop stop-color="#D2D2D2"/>
<stop offset="1" stop-color="#FAFAFA"/>
</radialGradient>
<radialGradient id="paint17_radial_596_994" cx="0" cy="0" r="1" gradientUnits="userSpaceOnUse" gradientTransform="translate(691.338 323.81) rotate(85.3036) scale(24.8037)">
<stop stop-color="#D2D2D2"/>
<stop offset="1" stop-color="#FAFAFA"/>
</radialGradient>
<radialGradient id="paint18_radial_596_994" cx="0" cy="0" r="1" gradientUnits="userSpaceOnUse" gradientTransform="translate(353.941 274.526) rotate(85.3036) scale(24.8037)">
<stop stop-color="#D2D2D2"/>
<stop offset="1" stop-color="#FAFAFA"/>
</radialGradient>
<radialGradient id="paint19_radial_596_994" cx="0" cy="0" r="1" gradientUnits="userSpaceOnUse" gradientTransform="translate(402.144 274.526) rotate(85.3036) scale(24.8037)">
<stop stop-color="#D2D2D2"/>
<stop offset="1" stop-color="#FAFAFA"/>
</radialGradient>
<radialGradient id="paint20_radial_596_994" cx="0" cy="0" r="1" gradientUnits="userSpaceOnUse" gradientTransform="translate(450.339 274.526) rotate(85.3036) scale(24.8037)">
<stop stop-color="#D2D2D2"/>
<stop offset="1" stop-color="#FAFAFA"/>
</radialGradient>
<radialGradient id="paint21_radial_596_994" cx="0" cy="0" r="1" gradientUnits="userSpaceOnUse" gradientTransform="translate(12.9408 12.9408) rotate(85.3036) scale(24.8037)">
<stop stop-color="#D2D2D2"/>
<stop offset="1" stop-color="#FAFAFA"/>
</radialGradient>
<radialGradient id="paint22_radial_596_994" cx="0" cy="0" r="1" gradientUnits="userSpaceOnUse" gradientTransform="translate(546.745 274.526) rotate(85.3036) scale(24.8037)">
<stop stop-color="#D2D2D2"/>
<stop offset="1" stop-color="#FAFAFA"/>
</radialGradient>
<radialGradient id="paint23_radial_596_994" cx="0" cy="0" r="1" gradientUnits="userSpaceOnUse" gradientTransform="translate(594.939 274.526) rotate(85.3036) scale(24.8037)">
<stop stop-color="#D2D2D2"/>
<stop offset="1" stop-color="#FAFAFA"/>
</radialGradient>
<radialGradient id="paint24_radial_596_994" cx="0" cy="0" r="1" gradientUnits="userSpaceOnUse" gradientTransform="translate(643.139 274.526) rotate(85.3036) scale(24.8037)">
<stop stop-color="#D2D2D2"/>
<stop offset="1" stop-color="#FAFAFA"/>
</radialGradient>
<radialGradient id="paint25_radial_596_994" cx="0" cy="0" r="1" gradientUnits="userSpaceOnUse" gradientTransform="translate(691.338 274.526) rotate(85.3036) scale(24.8037)">
<stop stop-color="#D2D2D2"/>
<stop offset="1" stop-color="#FAFAFA"/>
</radialGradient>
<radialGradient id="paint26_radial_596_994" cx="0" cy="0" r="1" gradientUnits="userSpaceOnUse" gradientTransform="translate(1191.31 65.4204) rotate(85.3036) scale(19.7613)">
<stop stop-color="#D2D2D2"/>
<stop offset="1" stop-color="#FAFAFA"/>
</radialGradient>
<radialGradient id="paint27_radial_596_994" cx="0" cy="0" r="1" gradientUnits="userSpaceOnUse" gradientTransform="translate(1229.71 65.4204) rotate(85.3036) scale(19.7613)">
<stop stop-color="#D2D2D2"/>
<stop offset="1" stop-color="#FAFAFA"/>
</radialGradient>
<radialGradient id="paint28_radial_596_994" cx="0" cy="0" r="1" gradientUnits="userSpaceOnUse" gradientTransform="translate(1268.11 65.4204) rotate(85.3036) scale(19.7613)">
<stop stop-color="#D2D2D2"/>
<stop offset="1" stop-color="#FAFAFA"/>
</radialGradient>
<radialGradient id="paint29_radial_596_994" cx="0" cy="0" r="1" gradientUnits="userSpaceOnUse" gradientTransform="translate(1306.51 65.4204) rotate(85.3036) scale(19.7613)">
<stop stop-color="#D2D2D2"/>
<stop offset="1" stop-color="#FAFAFA"/>
</radialGradient>
<radialGradient id="paint30_radial_596_994" cx="0" cy="0" r="1" gradientUnits="userSpaceOnUse" gradientTransform="translate(1344.92 65.4204) rotate(85.3036) scale(19.7613)">
<stop stop-color="#D2D2D2"/>
<stop offset="1" stop-color="#FAFAFA"/>
</radialGradient>
<radialGradient id="paint31_radial_596_994" cx="0" cy="0" r="1" gradientUnits="userSpaceOnUse" gradientTransform="translate(1383.31 65.4204) rotate(85.3036) scale(19.7613)">
<stop stop-color="#D2D2D2"/>
<stop offset="1" stop-color="#FAFAFA"/>
</radialGradient>
<radialGradient id="paint32_radial_596_994" cx="0" cy="0" r="1" gradientUnits="userSpaceOnUse" gradientTransform="translate(1421.72 65.4204) rotate(85.3036) scale(19.7613)">
<stop stop-color="#D2D2D2"/>
<stop offset="1" stop-color="#FAFAFA"/>
</radialGradient>
<radialGradient id="paint33_radial_596_994" cx="0" cy="0" r="1" gradientUnits="userSpaceOnUse" gradientTransform="translate(1460.12 65.4204) rotate(85.3036) scale(19.7613)">
<stop stop-color="#D2D2D2"/>
<stop offset="1" stop-color="#FAFAFA"/>
</radialGradient>
<radialGradient id="paint34_radial_596_994" cx="0" cy="0" r="1" gradientUnits="userSpaceOnUse" gradientTransform="translate(1191.31 143.95) rotate(85.3036) scale(19.7613)">
<stop stop-color="#D2D2D2"/>
<stop offset="1" stop-color="#FAFAFA"/>
</radialGradient>
<radialGradient id="paint35_radial_596_994" cx="0" cy="0" r="1" gradientUnits="userSpaceOnUse" gradientTransform="translate(1229.71 143.95) rotate(85.3036) scale(19.7613)">
<stop stop-color="#D2D2D2"/>
<stop offset="1" stop-color="#FAFAFA"/>
</radialGradient>
<radialGradient id="paint36_radial_596_994" cx="0" cy="0" r="1" gradientUnits="userSpaceOnUse" gradientTransform="translate(1268.11 143.95) rotate(85.3036) scale(19.7613)">
<stop stop-color="#D2D2D2"/>
<stop offset="1" stop-color="#FAFAFA"/>
</radialGradient>
<radialGradient id="paint37_radial_596_994" cx="0" cy="0" r="1" gradientUnits="userSpaceOnUse" gradientTransform="translate(1306.51 143.95) rotate(85.3036) scale(19.7613)">
<stop stop-color="#D2D2D2"/>
<stop offset="1" stop-color="#FAFAFA"/>
</radialGradient>
<radialGradient id="paint38_radial_596_994" cx="0" cy="0" r="1" gradientUnits="userSpaceOnUse" gradientTransform="translate(1344.92 143.95) rotate(85.3036) scale(19.7613)">
<stop stop-color="#D2D2D2"/>
<stop offset="1" stop-color="#FAFAFA"/>
</radialGradient>
<radialGradient id="paint39_radial_596_994" cx="0" cy="0" r="1" gradientUnits="userSpaceOnUse" gradientTransform="translate(1383.31 143.95) rotate(85.3036) scale(19.7613)">
<stop stop-color="#D2D2D2"/>
<stop offset="1" stop-color="#FAFAFA"/>
</radialGradient>
<radialGradient id="paint40_radial_596_994" cx="0" cy="0" r="1" gradientUnits="userSpaceOnUse" gradientTransform="translate(1421.72 143.95) rotate(85.3036) scale(19.7613)">
<stop stop-color="#D2D2D2"/>
<stop offset="1" stop-color="#FAFAFA"/>
</radialGradient>
<radialGradient id="paint41_radial_596_994" cx="0" cy="0" r="1" gradientUnits="userSpaceOnUse" gradientTransform="translate(1460.12 143.95) rotate(85.3036) scale(19.7613)">
<stop stop-color="#D2D2D2"/>
<stop offset="1" stop-color="#FAFAFA"/>
</radialGradient>
<radialGradient id="paint42_radial_596_994" cx="0" cy="0" r="1" gradientUnits="userSpaceOnUse" gradientTransform="translate(1191.31 26.1552) rotate(85.3036) scale(19.7613)">
<stop stop-color="#D2D2D2"/>
<stop offset="1" stop-color="#FAFAFA"/>
</radialGradient>
<radialGradient id="paint43_radial_596_994" cx="0" cy="0" r="1" gradientUnits="userSpaceOnUse" gradientTransform="translate(1229.71 26.1552) rotate(85.3036) scale(19.7613)">
<stop stop-color="#D2D2D2"/>
<stop offset="1" stop-color="#FAFAFA"/>
</radialGradient>
<radialGradient id="paint44_radial_596_994" cx="0" cy="0" r="1" gradientUnits="userSpaceOnUse" gradientTransform="translate(1268.11 26.1552) rotate(85.3036) scale(19.7613)">
<stop stop-color="#D2D2D2"/>
<stop offset="1" stop-color="#FAFAFA"/>
</radialGradient>
<radialGradient id="paint45_radial_596_994" cx="0" cy="0" r="1" gradientUnits="userSpaceOnUse" gradientTransform="translate(1306.51 26.1552) rotate(85.3036) scale(19.7613)">
<stop stop-color="#D2D2D2"/>
<stop offset="1" stop-color="#FAFAFA"/>
</radialGradient>
<radialGradient id="paint46_radial_596_994" cx="0" cy="0" r="1" gradientUnits="userSpaceOnUse" gradientTransform="translate(1344.92 26.1552) rotate(85.3036) scale(19.7613)">
<stop stop-color="#D2D2D2"/>
<stop offset="1" stop-color="#FAFAFA"/>
</radialGradient>
<radialGradient id="paint47_radial_596_994" cx="0" cy="0" r="1" gradientUnits="userSpaceOnUse" gradientTransform="translate(1383.31 26.1552) rotate(85.3036) scale(19.7613)">
<stop stop-color="#D2D2D2"/>
<stop offset="1" stop-color="#FAFAFA"/>
</radialGradient>
<radialGradient id="paint48_radial_596_994" cx="0" cy="0" r="1" gradientUnits="userSpaceOnUse" gradientTransform="translate(1421.72 26.1552) rotate(85.3036) scale(19.7613)">
<stop stop-color="#D2D2D2"/>
<stop offset="1" stop-color="#FAFAFA"/>
</radialGradient>
<radialGradient id="paint49_radial_596_994" cx="0" cy="0" r="1" gradientUnits="userSpaceOnUse" gradientTransform="translate(1460.12 26.1552) rotate(85.3036) scale(19.7613)">
<stop stop-color="#D2D2D2"/>
<stop offset="1" stop-color="#FAFAFA"/>
</radialGradient>
<radialGradient id="paint50_radial_596_994" cx="0" cy="0" r="1" gradientUnits="userSpaceOnUse" gradientTransform="translate(10.31 10.31) rotate(85.3036) scale(19.7613)">
<stop stop-color="#D2D2D2"/>
<stop offset="1" stop-color="#FAFAFA"/>
</radialGradient>
<radialGradient id="paint51_radial_596_994" cx="0" cy="0" r="1" gradientUnits="userSpaceOnUse" gradientTransform="translate(10.31 10.31) rotate(85.3036) scale(19.7613)">
<stop stop-color="#D2D2D2"/>
<stop offset="1" stop-color="#FAFAFA"/>
</radialGradient>
<radialGradient id="paint52_radial_596_994" cx="0" cy="0" r="1" gradientUnits="userSpaceOnUse" gradientTransform="translate(10.31 10.31) rotate(85.3036) scale(19.7613)">
<stop stop-color="#D2D2D2"/>
<stop offset="1" stop-color="#FAFAFA"/>
</radialGradient>
<radialGradient id="paint53_radial_596_994" cx="0" cy="0" r="1" gradientUnits="userSpaceOnUse" gradientTransform="translate(10.31 10.31) rotate(85.3036) scale(19.7613)">
<stop stop-color="#D2D2D2"/>
<stop offset="1" stop-color="#FAFAFA"/>
</radialGradient>
<radialGradient id="paint54_radial_596_994" cx="0" cy="0" r="1" gradientUnits="userSpaceOnUse" gradientTransform="translate(10.31 10.31) rotate(85.3036) scale(19.7613)">
<stop stop-color="#D2D2D2"/>
<stop offset="1" stop-color="#FAFAFA"/>
</radialGradient>
<radialGradient id="paint55_radial_596_994" cx="0" cy="0" r="1" gradientUnits="userSpaceOnUse" gradientTransform="translate(10.31 10.31) rotate(85.3036) scale(19.7613)">
<stop stop-color="#D2D2D2"/>
<stop offset="1" stop-color="#FAFAFA"/>
</radialGradient>
<radialGradient id="paint56_radial_596_994" cx="0" cy="0" r="1" gradientUnits="userSpaceOnUse" gradientTransform="translate(10.31 10.31) rotate(85.3036) scale(19.7613)">
<stop stop-color="#D2D2D2"/>
<stop offset="1" stop-color="#FAFAFA"/>
</radialGradient>
<radialGradient id="paint57_radial_596_994" cx="0" cy="0" r="1" gradientUnits="userSpaceOnUse" gradientTransform="translate(10.31 10.31) rotate(85.3036) scale(19.7613)">
<stop stop-color="#D2D2D2"/>
<stop offset="1" stop-color="#FAFAFA"/>
</radialGradient>
<radialGradient id="paint58_radial_596_994" cx="0" cy="0" r="1" gradientUnits="userSpaceOnUse" gradientTransform="translate(1191.31 183.216) rotate(85.3036) scale(19.7613)">
<stop stop-color="#D2D2D2"/>
<stop offset="1" stop-color="#FAFAFA"/>
</radialGradient>
<radialGradient id="paint59_radial_596_994" cx="0" cy="0" r="1" gradientUnits="userSpaceOnUse" gradientTransform="translate(1229.71 183.216) rotate(85.3036) scale(19.7613)">
<stop stop-color="#D2D2D2"/>
<stop offset="1" stop-color="#FAFAFA"/>
</radialGradient>
<radialGradient id="paint60_radial_596_994" cx="0" cy="0" r="1" gradientUnits="userSpaceOnUse" gradientTransform="translate(1268.11 183.216) rotate(85.3036) scale(19.7613)">
<stop stop-color="#D2D2D2"/>
<stop offset="1" stop-color="#FAFAFA"/>
</radialGradient>
<radialGradient id="paint61_radial_596_994" cx="0" cy="0" r="1" gradientUnits="userSpaceOnUse" gradientTransform="translate(1306.51 183.216) rotate(85.3036) scale(19.7613)">
<stop stop-color="#D2D2D2"/>
<stop offset="1" stop-color="#FAFAFA"/>
</radialGradient>
<radialGradient id="paint62_radial_596_994" cx="0" cy="0" r="1" gradientUnits="userSpaceOnUse" gradientTransform="translate(1344.92 183.216) rotate(85.3036) scale(19.7613)">
<stop stop-color="#D2D2D2"/>
<stop offset="1" stop-color="#FAFAFA"/>
</radialGradient>
<radialGradient id="paint63_radial_596_994" cx="0" cy="0" r="1" gradientUnits="userSpaceOnUse" gradientTransform="translate(1383.31 183.216) rotate(85.3036) scale(19.7613)">
<stop stop-color="#D2D2D2"/>
<stop offset="1" stop-color="#FAFAFA"/>
</radialGradient>
<radialGradient id="paint64_radial_596_994" cx="0" cy="0" r="1" gradientUnits="userSpaceOnUse" gradientTransform="translate(1421.72 183.216) rotate(85.3036) scale(19.7613)">
<stop stop-color="#D2D2D2"/>
<stop offset="1" stop-color="#FAFAFA"/>
</radialGradient>
<radialGradient id="paint65_radial_596_994" cx="0" cy="0" r="1" gradientUnits="userSpaceOnUse" gradientTransform="translate(1460.12 183.216) rotate(85.3036) scale(19.7613)">
<stop stop-color="#D2D2D2"/>
<stop offset="1" stop-color="#FAFAFA"/>
</radialGradient>
</defs>
</svg>
