<svg width="421" height="310" viewBox="0 0 421 310" fill="none" xmlns="http://www.w3.org/2000/svg">
<rect opacity="0.2" x="184" y="305.507" width="235.912" height="235.912" rx="26.856" transform="rotate(-31.8548 184 305.507)" fill="url(#paint0_radial_1286_14872)"/>
<rect opacity="0.2" x="-165" y="52.2104" width="229.4" height="229.4" rx="26.856" transform="rotate(-45 -165 52.2104)" fill="url(#paint1_radial_1286_14872)"/>
<g opacity="0.2">
<g opacity="0.5">
<rect x="295" y="170.169" width="14.3808" height="14.3808" rx="4" transform="rotate(-45 295 170.169)" fill="url(#paint2_radial_1286_14872)"/>
<rect x="321.783" y="170.168" width="14.3808" height="14.3808" rx="4" transform="rotate(-45 321.783 170.168)" fill="url(#paint3_radial_1286_14872)"/>
<rect x="348.562" y="170.168" width="14.3808" height="14.3808" rx="4" transform="rotate(-45 348.562 170.168)" fill="url(#paint4_radial_1286_14872)"/>
<rect x="375.344" y="170.168" width="14.3808" height="14.3808" rx="4" transform="rotate(-45 375.344 170.168)" fill="url(#paint5_radial_1286_14872)"/>
<rect x="402.129" y="170.169" width="14.3808" height="14.3808" rx="4" transform="rotate(-45 402.129 170.169)" fill="url(#paint6_radial_1286_14872)"/>
</g>
<g opacity="0.5">
<rect x="295" y="224.937" width="14.3808" height="14.3808" rx="4" transform="rotate(-45 295 224.937)" fill="url(#paint7_radial_1286_14872)"/>
<rect x="321.783" y="224.937" width="14.3808" height="14.3808" rx="4" transform="rotate(-45 321.783 224.937)" fill="url(#paint8_radial_1286_14872)"/>
<rect x="348.562" y="224.937" width="14.3808" height="14.3808" rx="4" transform="rotate(-45 348.562 224.937)" fill="url(#paint9_radial_1286_14872)"/>
<rect x="375.344" y="224.937" width="14.3808" height="14.3808" rx="4" transform="rotate(-45 375.344 224.937)" fill="url(#paint10_radial_1286_14872)"/>
<rect x="402.129" y="224.937" width="14.3808" height="14.3808" rx="4" transform="rotate(-45 402.129 224.937)" fill="url(#paint11_radial_1286_14872)"/>
</g>
<g opacity="0.5">
<rect x="295" y="279.705" width="14.3808" height="14.3808" rx="4" transform="rotate(-45 295 279.705)" fill="url(#paint12_radial_1286_14872)"/>
<rect x="321.783" y="279.705" width="14.3808" height="14.3808" rx="4" transform="rotate(-45 321.783 279.705)" fill="url(#paint13_radial_1286_14872)"/>
<rect x="348.562" y="279.705" width="14.3808" height="14.3808" rx="4" transform="rotate(-45 348.562 279.705)" fill="url(#paint14_radial_1286_14872)"/>
<rect x="375.344" y="279.705" width="14.3808" height="14.3808" rx="4" transform="rotate(-45 375.344 279.705)" fill="url(#paint15_radial_1286_14872)"/>
<rect x="402.129" y="279.705" width="14.3808" height="14.3808" rx="4" transform="rotate(-45 402.129 279.705)" fill="url(#paint16_radial_1286_14872)"/>
</g>
<g opacity="0.5">
<rect x="295" y="197.552" width="14.3808" height="14.3808" rx="4" transform="rotate(-45 295 197.552)" fill="url(#paint17_radial_1286_14872)"/>
<rect x="321.783" y="197.552" width="14.3808" height="14.3808" rx="4" transform="rotate(-45 321.783 197.552)" fill="url(#paint18_radial_1286_14872)"/>
<rect x="348.562" y="197.552" width="14.3808" height="14.3808" rx="4" transform="rotate(-45 348.562 197.552)" fill="url(#paint19_radial_1286_14872)"/>
<rect x="375.344" y="197.552" width="14.3808" height="14.3808" rx="4" transform="rotate(-45 375.344 197.552)" fill="url(#paint20_radial_1286_14872)"/>
<rect x="402.129" y="197.552" width="14.3808" height="14.3808" rx="4" transform="rotate(-45 402.129 197.552)" fill="url(#paint21_radial_1286_14872)"/>
</g>
<g opacity="0.5">
<rect width="14.3808" height="14.3808" rx="4" transform="matrix(0.707105 -0.707108 0.707105 0.707108 295 252.321)" fill="url(#paint22_radial_1286_14872)"/>
<rect width="14.3808" height="14.3808" rx="4" transform="matrix(0.707105 -0.707108 0.707105 0.707108 321.783 252.321)" fill="url(#paint23_radial_1286_14872)"/>
<rect width="14.3808" height="14.3808" rx="4" transform="matrix(0.707105 -0.707108 0.707105 0.707108 348.562 252.321)" fill="url(#paint24_radial_1286_14872)"/>
<rect width="14.3808" height="14.3808" rx="4" transform="matrix(0.707105 -0.707108 0.707105 0.707108 375.344 252.321)" fill="url(#paint25_radial_1286_14872)"/>
<rect width="14.3808" height="14.3808" rx="4" transform="matrix(0.707105 -0.707108 0.707105 0.707108 402.129 252.321)" fill="url(#paint26_radial_1286_14872)"/>
</g>
<g opacity="0.5">
<rect x="295" y="307.089" width="14.3808" height="14.3808" rx="4" transform="rotate(-45 295 307.089)" fill="url(#paint27_radial_1286_14872)"/>
<rect x="321.783" y="307.089" width="14.3808" height="14.3808" rx="4" transform="rotate(-45 321.783 307.089)" fill="url(#paint28_radial_1286_14872)"/>
<rect x="348.562" y="307.089" width="14.3808" height="14.3808" rx="4" transform="rotate(-45 348.562 307.089)" fill="url(#paint29_radial_1286_14872)"/>
<rect x="375.344" y="307.089" width="14.3808" height="14.3808" rx="4" transform="rotate(-45 375.344 307.089)" fill="url(#paint30_radial_1286_14872)"/>
<rect x="402.129" y="307.089" width="14.3808" height="14.3808" rx="4" transform="rotate(-45 402.129 307.089)" fill="url(#paint31_radial_1286_14872)"/>
</g>
</g>
<defs>
<radialGradient id="paint0_radial_1286_14872" cx="0" cy="0" r="1" gradientUnits="userSpaceOnUse" gradientTransform="translate(301.956 423.463) rotate(85.3036) scale(226.087)">
<stop stop-color="#373737"/>
<stop offset="1" stop-color="#FAFAFA" stop-opacity="0"/>
</radialGradient>
<radialGradient id="paint1_radial_1286_14872" cx="0" cy="0" r="1" gradientUnits="userSpaceOnUse" gradientTransform="translate(-50.2999 166.911) rotate(85.3036) scale(219.846)">
<stop stop-color="#373737"/>
<stop offset="1" stop-color="#FAFAFA" stop-opacity="0"/>
</radialGradient>
<radialGradient id="paint2_radial_1286_14872" cx="0" cy="0" r="1" gradientUnits="userSpaceOnUse" gradientTransform="translate(302.19 177.359) rotate(85.3036) scale(13.7819)">
<stop stop-color="#373737"/>
<stop offset="1" stop-color="#FAFAFA" stop-opacity="0"/>
</radialGradient>
<radialGradient id="paint3_radial_1286_14872" cx="0" cy="0" r="1" gradientUnits="userSpaceOnUse" gradientTransform="translate(328.974 177.359) rotate(85.3036) scale(13.7819)">
<stop stop-color="#373737"/>
<stop offset="1" stop-color="#FAFAFA" stop-opacity="0"/>
</radialGradient>
<radialGradient id="paint4_radial_1286_14872" cx="0" cy="0" r="1" gradientUnits="userSpaceOnUse" gradientTransform="translate(355.753 177.359) rotate(85.3036) scale(13.7819)">
<stop stop-color="#373737"/>
<stop offset="1" stop-color="#FAFAFA" stop-opacity="0"/>
</radialGradient>
<radialGradient id="paint5_radial_1286_14872" cx="0" cy="0" r="1" gradientUnits="userSpaceOnUse" gradientTransform="translate(382.534 177.359) rotate(85.3036) scale(13.7819)">
<stop stop-color="#373737"/>
<stop offset="1" stop-color="#FAFAFA" stop-opacity="0"/>
</radialGradient>
<radialGradient id="paint6_radial_1286_14872" cx="0" cy="0" r="1" gradientUnits="userSpaceOnUse" gradientTransform="translate(409.319 177.359) rotate(85.3036) scale(13.7819)">
<stop stop-color="#373737"/>
<stop offset="1" stop-color="#FAFAFA" stop-opacity="0"/>
</radialGradient>
<radialGradient id="paint7_radial_1286_14872" cx="0" cy="0" r="1" gradientUnits="userSpaceOnUse" gradientTransform="translate(302.19 232.127) rotate(85.3036) scale(13.7819)">
<stop stop-color="#373737"/>
<stop offset="1" stop-color="#FAFAFA" stop-opacity="0"/>
</radialGradient>
<radialGradient id="paint8_radial_1286_14872" cx="0" cy="0" r="1" gradientUnits="userSpaceOnUse" gradientTransform="translate(328.974 232.127) rotate(85.3036) scale(13.7819)">
<stop stop-color="#373737"/>
<stop offset="1" stop-color="#FAFAFA" stop-opacity="0"/>
</radialGradient>
<radialGradient id="paint9_radial_1286_14872" cx="0" cy="0" r="1" gradientUnits="userSpaceOnUse" gradientTransform="translate(355.753 232.127) rotate(85.3036) scale(13.7819)">
<stop stop-color="#373737"/>
<stop offset="1" stop-color="#FAFAFA" stop-opacity="0"/>
</radialGradient>
<radialGradient id="paint10_radial_1286_14872" cx="0" cy="0" r="1" gradientUnits="userSpaceOnUse" gradientTransform="translate(382.534 232.127) rotate(85.3036) scale(13.7819)">
<stop stop-color="#373737"/>
<stop offset="1" stop-color="#FAFAFA" stop-opacity="0"/>
</radialGradient>
<radialGradient id="paint11_radial_1286_14872" cx="0" cy="0" r="1" gradientUnits="userSpaceOnUse" gradientTransform="translate(409.319 232.127) rotate(85.3036) scale(13.7819)">
<stop stop-color="#373737"/>
<stop offset="1" stop-color="#FAFAFA" stop-opacity="0"/>
</radialGradient>
<radialGradient id="paint12_radial_1286_14872" cx="0" cy="0" r="1" gradientUnits="userSpaceOnUse" gradientTransform="translate(302.19 286.895) rotate(85.3036) scale(13.7819)">
<stop stop-color="#373737"/>
<stop offset="1" stop-color="#FAFAFA" stop-opacity="0"/>
</radialGradient>
<radialGradient id="paint13_radial_1286_14872" cx="0" cy="0" r="1" gradientUnits="userSpaceOnUse" gradientTransform="translate(328.974 286.895) rotate(85.3036) scale(13.7819)">
<stop stop-color="#373737"/>
<stop offset="1" stop-color="#FAFAFA" stop-opacity="0"/>
</radialGradient>
<radialGradient id="paint14_radial_1286_14872" cx="0" cy="0" r="1" gradientUnits="userSpaceOnUse" gradientTransform="translate(355.753 286.895) rotate(85.3036) scale(13.7819)">
<stop stop-color="#373737"/>
<stop offset="1" stop-color="#FAFAFA" stop-opacity="0"/>
</radialGradient>
<radialGradient id="paint15_radial_1286_14872" cx="0" cy="0" r="1" gradientUnits="userSpaceOnUse" gradientTransform="translate(382.534 286.895) rotate(85.3036) scale(13.7819)">
<stop stop-color="#373737"/>
<stop offset="1" stop-color="#FAFAFA" stop-opacity="0"/>
</radialGradient>
<radialGradient id="paint16_radial_1286_14872" cx="0" cy="0" r="1" gradientUnits="userSpaceOnUse" gradientTransform="translate(409.319 286.895) rotate(85.3036) scale(13.7819)">
<stop stop-color="#373737"/>
<stop offset="1" stop-color="#FAFAFA" stop-opacity="0"/>
</radialGradient>
<radialGradient id="paint17_radial_1286_14872" cx="0" cy="0" r="1" gradientUnits="userSpaceOnUse" gradientTransform="translate(302.19 204.743) rotate(85.3036) scale(13.7819)">
<stop stop-color="#373737"/>
<stop offset="1" stop-color="#FAFAFA" stop-opacity="0"/>
</radialGradient>
<radialGradient id="paint18_radial_1286_14872" cx="0" cy="0" r="1" gradientUnits="userSpaceOnUse" gradientTransform="translate(328.974 204.743) rotate(85.3036) scale(13.7819)">
<stop stop-color="#373737"/>
<stop offset="1" stop-color="#FAFAFA" stop-opacity="0"/>
</radialGradient>
<radialGradient id="paint19_radial_1286_14872" cx="0" cy="0" r="1" gradientUnits="userSpaceOnUse" gradientTransform="translate(355.753 204.743) rotate(85.3036) scale(13.7819)">
<stop stop-color="#373737"/>
<stop offset="1" stop-color="#FAFAFA" stop-opacity="0"/>
</radialGradient>
<radialGradient id="paint20_radial_1286_14872" cx="0" cy="0" r="1" gradientUnits="userSpaceOnUse" gradientTransform="translate(382.534 204.743) rotate(85.3036) scale(13.7819)">
<stop stop-color="#373737"/>
<stop offset="1" stop-color="#FAFAFA" stop-opacity="0"/>
</radialGradient>
<radialGradient id="paint21_radial_1286_14872" cx="0" cy="0" r="1" gradientUnits="userSpaceOnUse" gradientTransform="translate(409.319 204.743) rotate(85.3036) scale(13.7819)">
<stop stop-color="#373737"/>
<stop offset="1" stop-color="#FAFAFA" stop-opacity="0"/>
</radialGradient>
<radialGradient id="paint22_radial_1286_14872" cx="0" cy="0" r="1" gradientUnits="userSpaceOnUse" gradientTransform="translate(7.1904 7.1904) rotate(85.3036) scale(13.7819)">
<stop stop-color="#373737"/>
<stop offset="1" stop-color="#FAFAFA" stop-opacity="0"/>
</radialGradient>
<radialGradient id="paint23_radial_1286_14872" cx="0" cy="0" r="1" gradientUnits="userSpaceOnUse" gradientTransform="translate(7.1904 7.1904) rotate(85.3036) scale(13.7819)">
<stop stop-color="#373737"/>
<stop offset="1" stop-color="#FAFAFA" stop-opacity="0"/>
</radialGradient>
<radialGradient id="paint24_radial_1286_14872" cx="0" cy="0" r="1" gradientUnits="userSpaceOnUse" gradientTransform="translate(7.1904 7.1904) rotate(85.3036) scale(13.7819)">
<stop stop-color="#373737"/>
<stop offset="1" stop-color="#FAFAFA" stop-opacity="0"/>
</radialGradient>
<radialGradient id="paint25_radial_1286_14872" cx="0" cy="0" r="1" gradientUnits="userSpaceOnUse" gradientTransform="translate(7.1904 7.1904) rotate(85.3036) scale(13.7819)">
<stop stop-color="#373737"/>
<stop offset="1" stop-color="#FAFAFA" stop-opacity="0"/>
</radialGradient>
<radialGradient id="paint26_radial_1286_14872" cx="0" cy="0" r="1" gradientUnits="userSpaceOnUse" gradientTransform="translate(7.1904 7.1904) rotate(85.3036) scale(13.7819)">
<stop stop-color="#373737"/>
<stop offset="1" stop-color="#FAFAFA" stop-opacity="0"/>
</radialGradient>
<radialGradient id="paint27_radial_1286_14872" cx="0" cy="0" r="1" gradientUnits="userSpaceOnUse" gradientTransform="translate(302.19 314.279) rotate(85.3036) scale(13.7819)">
<stop stop-color="#373737"/>
<stop offset="1" stop-color="#FAFAFA" stop-opacity="0"/>
</radialGradient>
<radialGradient id="paint28_radial_1286_14872" cx="0" cy="0" r="1" gradientUnits="userSpaceOnUse" gradientTransform="translate(328.974 314.279) rotate(85.3036) scale(13.7819)">
<stop stop-color="#373737"/>
<stop offset="1" stop-color="#FAFAFA" stop-opacity="0"/>
</radialGradient>
<radialGradient id="paint29_radial_1286_14872" cx="0" cy="0" r="1" gradientUnits="userSpaceOnUse" gradientTransform="translate(355.753 314.279) rotate(85.3036) scale(13.7819)">
<stop stop-color="#373737"/>
<stop offset="1" stop-color="#FAFAFA" stop-opacity="0"/>
</radialGradient>
<radialGradient id="paint30_radial_1286_14872" cx="0" cy="0" r="1" gradientUnits="userSpaceOnUse" gradientTransform="translate(382.534 314.279) rotate(85.3036) scale(13.7819)">
<stop stop-color="#373737"/>
<stop offset="1" stop-color="#FAFAFA" stop-opacity="0"/>
</radialGradient>
<radialGradient id="paint31_radial_1286_14872" cx="0" cy="0" r="1" gradientUnits="userSpaceOnUse" gradientTransform="translate(409.319 314.279) rotate(85.3036) scale(13.7819)">
<stop stop-color="#373737"/>
<stop offset="1" stop-color="#FAFAFA" stop-opacity="0"/>
</radialGradient>
</defs>
</svg>
