<svg width="1913" height="866" viewBox="0 0 1913 866" fill="none" xmlns="http://www.w3.org/2000/svg">
<g opacity="0.5">
<rect x="166" y="598.512" width="23.3511" height="23.3511" rx="5.23122" transform="rotate(-45 166 598.512)" fill="url(#paint0_radial_1095_516)"/>
<rect x="209.486" y="598.512" width="23.3511" height="23.3511" rx="5.23122" transform="rotate(-45 209.486 598.512)" fill="url(#paint1_radial_1095_516)"/>
<rect x="252.972" y="598.512" width="23.3511" height="23.3511" rx="5.23122" transform="rotate(-45 252.972 598.512)" fill="url(#paint2_radial_1095_516)"/>
<rect x="296.465" y="598.512" width="23.3511" height="23.3511" rx="5.23122" transform="rotate(-45 296.465 598.512)" fill="url(#paint3_radial_1095_516)"/>
<rect x="339.947" y="598.512" width="23.3511" height="23.3511" rx="5.23122" transform="rotate(-45 339.947 598.512)" fill="url(#paint4_radial_1095_516)"/>
<rect x="383.437" y="598.512" width="23.3511" height="23.3511" rx="5.23122" transform="rotate(-45 383.437 598.512)" fill="url(#paint5_radial_1095_516)"/>
<rect x="426.926" y="598.512" width="23.3511" height="23.3511" rx="5.23122" transform="rotate(-45 426.926 598.512)" fill="url(#paint6_radial_1095_516)"/>
<rect x="470.405" y="598.512" width="23.3511" height="23.3511" rx="5.23122" transform="rotate(-45 470.405 598.512)" fill="url(#paint7_radial_1095_516)"/>
</g>
<g opacity="0.5">
<rect x="166" y="687.443" width="23.3511" height="23.3511" rx="5.23122" transform="rotate(-45 166 687.443)" fill="url(#paint8_radial_1095_516)"/>
<rect x="209.486" y="687.443" width="23.3511" height="23.3511" rx="5.23122" transform="rotate(-45 209.486 687.443)" fill="url(#paint9_radial_1095_516)"/>
<rect x="252.972" y="687.443" width="23.3511" height="23.3511" rx="5.23122" transform="rotate(-45 252.972 687.443)" fill="url(#paint10_radial_1095_516)"/>
<rect x="296.465" y="687.443" width="23.3511" height="23.3511" rx="5.23122" transform="rotate(-45 296.465 687.443)" fill="url(#paint11_radial_1095_516)"/>
<rect x="339.947" y="687.443" width="23.3511" height="23.3511" rx="5.23122" transform="rotate(-45 339.947 687.443)" fill="url(#paint12_radial_1095_516)"/>
<rect x="383.437" y="687.443" width="23.3511" height="23.3511" rx="5.23122" transform="rotate(-45 383.437 687.443)" fill="url(#paint13_radial_1095_516)"/>
<rect x="426.926" y="687.443" width="23.3511" height="23.3511" rx="5.23122" transform="rotate(-45 426.926 687.443)" fill="url(#paint14_radial_1095_516)"/>
<rect x="470.405" y="687.443" width="23.3511" height="23.3511" rx="5.23122" transform="rotate(-45 470.405 687.443)" fill="url(#paint15_radial_1095_516)"/>
</g>
<g opacity="0.5">
<rect x="166" y="776.374" width="23.3511" height="23.3511" rx="5.23122" transform="rotate(-45 166 776.374)" fill="url(#paint16_radial_1095_516)"/>
<rect x="209.486" y="776.373" width="23.3511" height="23.3511" rx="5.23122" transform="rotate(-45 209.486 776.373)" fill="url(#paint17_radial_1095_516)"/>
<rect x="252.972" y="776.373" width="23.3511" height="23.3511" rx="5.23122" transform="rotate(-45 252.972 776.373)" fill="url(#paint18_radial_1095_516)"/>
<rect x="296.465" y="776.374" width="23.3511" height="23.3511" rx="5.23122" transform="rotate(-45 296.465 776.374)" fill="url(#paint19_radial_1095_516)"/>
<rect x="339.947" y="776.373" width="23.3511" height="23.3511" rx="5.23122" transform="rotate(-45 339.947 776.373)" fill="url(#paint20_radial_1095_516)"/>
<rect x="383.437" y="776.373" width="23.3511" height="23.3511" rx="5.23122" transform="rotate(-45 383.437 776.373)" fill="url(#paint21_radial_1095_516)"/>
<rect x="426.926" y="776.373" width="23.3511" height="23.3511" rx="5.23122" transform="rotate(-45 426.926 776.373)" fill="url(#paint22_radial_1095_516)"/>
<rect x="470.405" y="776.373" width="23.3511" height="23.3511" rx="5.23122" transform="rotate(-45 470.405 776.373)" fill="url(#paint23_radial_1095_516)"/>
</g>
<g opacity="0.5">
<rect x="166" y="642.977" width="23.3511" height="23.3511" rx="5.23122" transform="rotate(-45 166 642.977)" fill="url(#paint24_radial_1095_516)"/>
<rect x="209.486" y="642.977" width="23.3511" height="23.3511" rx="5.23122" transform="rotate(-45 209.486 642.977)" fill="url(#paint25_radial_1095_516)"/>
<rect x="252.972" y="642.977" width="23.3511" height="23.3511" rx="5.23122" transform="rotate(-45 252.972 642.977)" fill="url(#paint26_radial_1095_516)"/>
<rect x="296.465" y="642.977" width="23.3511" height="23.3511" rx="5.23122" transform="rotate(-45 296.465 642.977)" fill="url(#paint27_radial_1095_516)"/>
<rect x="339.947" y="642.977" width="23.3511" height="23.3511" rx="5.23122" transform="rotate(-45 339.947 642.977)" fill="url(#paint28_radial_1095_516)"/>
<rect x="383.437" y="642.977" width="23.3511" height="23.3511" rx="5.23122" transform="rotate(-45 383.437 642.977)" fill="url(#paint29_radial_1095_516)"/>
<rect x="426.926" y="642.977" width="23.3511" height="23.3511" rx="5.23122" transform="rotate(-45 426.926 642.977)" fill="url(#paint30_radial_1095_516)"/>
<rect x="470.405" y="642.977" width="23.3511" height="23.3511" rx="5.23122" transform="rotate(-45 470.405 642.977)" fill="url(#paint31_radial_1095_516)"/>
</g>
<g opacity="0.5">
<rect x="166" y="731.909" width="23.3511" height="23.3511" rx="5.23122" transform="rotate(-45 166 731.909)" fill="url(#paint32_radial_1095_516)"/>
<rect x="209.486" y="731.909" width="23.3511" height="23.3511" rx="5.23122" transform="rotate(-45 209.486 731.909)" fill="url(#paint33_radial_1095_516)"/>
<rect x="252.972" y="731.909" width="23.3511" height="23.3511" rx="5.23122" transform="rotate(-45 252.972 731.909)" fill="url(#paint34_radial_1095_516)"/>
<rect x="296.465" y="731.909" width="23.3511" height="23.3511" rx="5.23122" transform="rotate(-45 296.465 731.909)" fill="url(#paint35_radial_1095_516)"/>
<rect x="339.947" y="731.909" width="23.3511" height="23.3511" rx="5.23122" transform="rotate(-45 339.947 731.909)" fill="url(#paint36_radial_1095_516)"/>
<rect x="383.437" y="731.909" width="23.3511" height="23.3511" rx="5.23122" transform="rotate(-45 383.437 731.909)" fill="url(#paint37_radial_1095_516)"/>
<rect x="426.926" y="731.909" width="23.3511" height="23.3511" rx="5.23122" transform="rotate(-45 426.926 731.909)" fill="url(#paint38_radial_1095_516)"/>
<rect x="470.405" y="731.909" width="23.3511" height="23.3511" rx="5.23122" transform="rotate(-45 470.405 731.909)" fill="url(#paint39_radial_1095_516)"/>
</g>
<g opacity="0.5">
<rect x="166" y="820.839" width="23.3511" height="23.3511" rx="5.23122" transform="rotate(-45 166 820.839)" fill="url(#paint40_radial_1095_516)"/>
<rect x="209.486" y="820.838" width="23.3511" height="23.3511" rx="5.23122" transform="rotate(-45 209.486 820.838)" fill="url(#paint41_radial_1095_516)"/>
<rect x="252.972" y="820.838" width="23.3511" height="23.3511" rx="5.23122" transform="rotate(-45 252.972 820.838)" fill="url(#paint42_radial_1095_516)"/>
<rect x="296.465" y="820.839" width="23.3511" height="23.3511" rx="5.23122" transform="rotate(-45 296.465 820.839)" fill="url(#paint43_radial_1095_516)"/>
<rect x="339.947" y="820.838" width="23.3511" height="23.3511" rx="5.23122" transform="rotate(-45 339.947 820.838)" fill="url(#paint44_radial_1095_516)"/>
<rect x="383.437" y="820.838" width="23.3511" height="23.3511" rx="5.23122" transform="rotate(-45 383.437 820.838)" fill="url(#paint45_radial_1095_516)"/>
<rect x="426.926" y="820.838" width="23.3511" height="23.3511" rx="5.23122" transform="rotate(-45 426.926 820.838)" fill="url(#paint46_radial_1095_516)"/>
<rect x="470.405" y="820.838" width="23.3511" height="23.3511" rx="5.23122" transform="rotate(-45 470.405 820.838)" fill="url(#paint47_radial_1095_516)"/>
</g>
<rect opacity="0.15" x="1023" y="433.329" width="646.761" height="646.761" rx="60.2025" transform="rotate(-45 1023 433.329)" fill="url(#paint48_radial_1095_516)"/>
<rect opacity="0.15" x="-47" y="405.03" width="377.638" height="377.638" rx="35.1517" transform="rotate(-45 -47 405.03)" fill="url(#paint49_radial_1095_516)"/>
<defs>
<radialGradient id="paint0_radial_1095_516" cx="0" cy="0" r="1" gradientUnits="userSpaceOnUse" gradientTransform="translate(177.676 610.187) rotate(85.3036) scale(22.3786)">
<stop stop-color="#F1F1F1"/>
<stop offset="1" stop-color="#FAFAFA"/>
</radialGradient>
<radialGradient id="paint1_radial_1095_516" cx="0" cy="0" r="1" gradientUnits="userSpaceOnUse" gradientTransform="translate(221.162 610.187) rotate(85.3036) scale(22.3786)">
<stop stop-color="#F1F1F1"/>
<stop offset="1" stop-color="#FAFAFA"/>
</radialGradient>
<radialGradient id="paint2_radial_1095_516" cx="0" cy="0" r="1" gradientUnits="userSpaceOnUse" gradientTransform="translate(264.647 610.187) rotate(85.3036) scale(22.3786)">
<stop stop-color="#F1F1F1"/>
<stop offset="1" stop-color="#FAFAFA"/>
</radialGradient>
<radialGradient id="paint3_radial_1095_516" cx="0" cy="0" r="1" gradientUnits="userSpaceOnUse" gradientTransform="translate(308.14 610.187) rotate(85.3036) scale(22.3786)">
<stop stop-color="#F1F1F1"/>
<stop offset="1" stop-color="#FAFAFA"/>
</radialGradient>
<radialGradient id="paint4_radial_1095_516" cx="0" cy="0" r="1" gradientUnits="userSpaceOnUse" gradientTransform="translate(351.623 610.187) rotate(85.3036) scale(22.3786)">
<stop stop-color="#F1F1F1"/>
<stop offset="1" stop-color="#FAFAFA"/>
</radialGradient>
<radialGradient id="paint5_radial_1095_516" cx="0" cy="0" r="1" gradientUnits="userSpaceOnUse" gradientTransform="translate(395.112 610.187) rotate(85.3036) scale(22.3786)">
<stop stop-color="#F1F1F1"/>
<stop offset="1" stop-color="#FAFAFA"/>
</radialGradient>
<radialGradient id="paint6_radial_1095_516" cx="0" cy="0" r="1" gradientUnits="userSpaceOnUse" gradientTransform="translate(438.602 610.187) rotate(85.3036) scale(22.3786)">
<stop stop-color="#F1F1F1"/>
<stop offset="1" stop-color="#FAFAFA"/>
</radialGradient>
<radialGradient id="paint7_radial_1095_516" cx="0" cy="0" r="1" gradientUnits="userSpaceOnUse" gradientTransform="translate(482.081 610.187) rotate(85.3036) scale(22.3786)">
<stop stop-color="#F1F1F1"/>
<stop offset="1" stop-color="#FAFAFA"/>
</radialGradient>
<radialGradient id="paint8_radial_1095_516" cx="0" cy="0" r="1" gradientUnits="userSpaceOnUse" gradientTransform="translate(177.676 699.118) rotate(85.3036) scale(22.3786)">
<stop stop-color="#F1F1F1"/>
<stop offset="1" stop-color="#FAFAFA"/>
</radialGradient>
<radialGradient id="paint9_radial_1095_516" cx="0" cy="0" r="1" gradientUnits="userSpaceOnUse" gradientTransform="translate(221.161 699.118) rotate(85.3036) scale(22.3786)">
<stop stop-color="#F1F1F1"/>
<stop offset="1" stop-color="#FAFAFA"/>
</radialGradient>
<radialGradient id="paint10_radial_1095_516" cx="0" cy="0" r="1" gradientUnits="userSpaceOnUse" gradientTransform="translate(264.647 699.118) rotate(85.3036) scale(22.3786)">
<stop stop-color="#F1F1F1"/>
<stop offset="1" stop-color="#FAFAFA"/>
</radialGradient>
<radialGradient id="paint11_radial_1095_516" cx="0" cy="0" r="1" gradientUnits="userSpaceOnUse" gradientTransform="translate(308.14 699.118) rotate(85.3036) scale(22.3786)">
<stop stop-color="#F1F1F1"/>
<stop offset="1" stop-color="#FAFAFA"/>
</radialGradient>
<radialGradient id="paint12_radial_1095_516" cx="0" cy="0" r="1" gradientUnits="userSpaceOnUse" gradientTransform="translate(351.623 699.118) rotate(85.3036) scale(22.3786)">
<stop stop-color="#F1F1F1"/>
<stop offset="1" stop-color="#FAFAFA"/>
</radialGradient>
<radialGradient id="paint13_radial_1095_516" cx="0" cy="0" r="1" gradientUnits="userSpaceOnUse" gradientTransform="translate(395.113 699.118) rotate(85.3036) scale(22.3786)">
<stop stop-color="#F1F1F1"/>
<stop offset="1" stop-color="#FAFAFA"/>
</radialGradient>
<radialGradient id="paint14_radial_1095_516" cx="0" cy="0" r="1" gradientUnits="userSpaceOnUse" gradientTransform="translate(438.602 699.118) rotate(85.3036) scale(22.3786)">
<stop stop-color="#F1F1F1"/>
<stop offset="1" stop-color="#FAFAFA"/>
</radialGradient>
<radialGradient id="paint15_radial_1095_516" cx="0" cy="0" r="1" gradientUnits="userSpaceOnUse" gradientTransform="translate(482.081 699.118) rotate(85.3036) scale(22.3786)">
<stop stop-color="#F1F1F1"/>
<stop offset="1" stop-color="#FAFAFA"/>
</radialGradient>
<radialGradient id="paint16_radial_1095_516" cx="0" cy="0" r="1" gradientUnits="userSpaceOnUse" gradientTransform="translate(177.676 788.049) rotate(85.3036) scale(22.3786)">
<stop stop-color="#F1F1F1"/>
<stop offset="1" stop-color="#FAFAFA"/>
</radialGradient>
<radialGradient id="paint17_radial_1095_516" cx="0" cy="0" r="1" gradientUnits="userSpaceOnUse" gradientTransform="translate(221.162 788.048) rotate(85.3036) scale(22.3786)">
<stop stop-color="#F1F1F1"/>
<stop offset="1" stop-color="#FAFAFA"/>
</radialGradient>
<radialGradient id="paint18_radial_1095_516" cx="0" cy="0" r="1" gradientUnits="userSpaceOnUse" gradientTransform="translate(264.647 788.048) rotate(85.3036) scale(22.3786)">
<stop stop-color="#F1F1F1"/>
<stop offset="1" stop-color="#FAFAFA"/>
</radialGradient>
<radialGradient id="paint19_radial_1095_516" cx="0" cy="0" r="1" gradientUnits="userSpaceOnUse" gradientTransform="translate(308.14 788.049) rotate(85.3036) scale(22.3786)">
<stop stop-color="#F1F1F1"/>
<stop offset="1" stop-color="#FAFAFA"/>
</radialGradient>
<radialGradient id="paint20_radial_1095_516" cx="0" cy="0" r="1" gradientUnits="userSpaceOnUse" gradientTransform="translate(351.623 788.048) rotate(85.3036) scale(22.3786)">
<stop stop-color="#F1F1F1"/>
<stop offset="1" stop-color="#FAFAFA"/>
</radialGradient>
<radialGradient id="paint21_radial_1095_516" cx="0" cy="0" r="1" gradientUnits="userSpaceOnUse" gradientTransform="translate(395.112 788.048) rotate(85.3036) scale(22.3786)">
<stop stop-color="#F1F1F1"/>
<stop offset="1" stop-color="#FAFAFA"/>
</radialGradient>
<radialGradient id="paint22_radial_1095_516" cx="0" cy="0" r="1" gradientUnits="userSpaceOnUse" gradientTransform="translate(438.602 788.048) rotate(85.3036) scale(22.3786)">
<stop stop-color="#F1F1F1"/>
<stop offset="1" stop-color="#FAFAFA"/>
</radialGradient>
<radialGradient id="paint23_radial_1095_516" cx="0" cy="0" r="1" gradientUnits="userSpaceOnUse" gradientTransform="translate(482.081 788.048) rotate(85.3036) scale(22.3786)">
<stop stop-color="#F1F1F1"/>
<stop offset="1" stop-color="#FAFAFA"/>
</radialGradient>
<radialGradient id="paint24_radial_1095_516" cx="0" cy="0" r="1" gradientUnits="userSpaceOnUse" gradientTransform="translate(177.676 654.652) rotate(85.3036) scale(22.3786)">
<stop stop-color="#F1F1F1"/>
<stop offset="1" stop-color="#FAFAFA"/>
</radialGradient>
<radialGradient id="paint25_radial_1095_516" cx="0" cy="0" r="1" gradientUnits="userSpaceOnUse" gradientTransform="translate(221.162 654.652) rotate(85.3036) scale(22.3786)">
<stop stop-color="#F1F1F1"/>
<stop offset="1" stop-color="#FAFAFA"/>
</radialGradient>
<radialGradient id="paint26_radial_1095_516" cx="0" cy="0" r="1" gradientUnits="userSpaceOnUse" gradientTransform="translate(264.647 654.652) rotate(85.3036) scale(22.3786)">
<stop stop-color="#F1F1F1"/>
<stop offset="1" stop-color="#FAFAFA"/>
</radialGradient>
<radialGradient id="paint27_radial_1095_516" cx="0" cy="0" r="1" gradientUnits="userSpaceOnUse" gradientTransform="translate(308.14 654.652) rotate(85.3036) scale(22.3786)">
<stop stop-color="#F1F1F1"/>
<stop offset="1" stop-color="#FAFAFA"/>
</radialGradient>
<radialGradient id="paint28_radial_1095_516" cx="0" cy="0" r="1" gradientUnits="userSpaceOnUse" gradientTransform="translate(351.623 654.652) rotate(85.3036) scale(22.3786)">
<stop stop-color="#F1F1F1"/>
<stop offset="1" stop-color="#FAFAFA"/>
</radialGradient>
<radialGradient id="paint29_radial_1095_516" cx="0" cy="0" r="1" gradientUnits="userSpaceOnUse" gradientTransform="translate(395.112 654.652) rotate(85.3036) scale(22.3786)">
<stop stop-color="#F1F1F1"/>
<stop offset="1" stop-color="#FAFAFA"/>
</radialGradient>
<radialGradient id="paint30_radial_1095_516" cx="0" cy="0" r="1" gradientUnits="userSpaceOnUse" gradientTransform="translate(438.602 654.652) rotate(85.3036) scale(22.3786)">
<stop stop-color="#F1F1F1"/>
<stop offset="1" stop-color="#FAFAFA"/>
</radialGradient>
<radialGradient id="paint31_radial_1095_516" cx="0" cy="0" r="1" gradientUnits="userSpaceOnUse" gradientTransform="translate(482.081 654.652) rotate(85.3036) scale(22.3786)">
<stop stop-color="#F1F1F1"/>
<stop offset="1" stop-color="#FAFAFA"/>
</radialGradient>
<radialGradient id="paint32_radial_1095_516" cx="0" cy="0" r="1" gradientUnits="userSpaceOnUse" gradientTransform="translate(177.676 743.585) rotate(85.3036) scale(22.3786)">
<stop stop-color="#F1F1F1"/>
<stop offset="1" stop-color="#FAFAFA"/>
</radialGradient>
<radialGradient id="paint33_radial_1095_516" cx="0" cy="0" r="1" gradientUnits="userSpaceOnUse" gradientTransform="translate(221.162 743.585) rotate(85.3036) scale(22.3786)">
<stop stop-color="#F1F1F1"/>
<stop offset="1" stop-color="#FAFAFA"/>
</radialGradient>
<radialGradient id="paint34_radial_1095_516" cx="0" cy="0" r="1" gradientUnits="userSpaceOnUse" gradientTransform="translate(264.647 743.585) rotate(85.3036) scale(22.3786)">
<stop stop-color="#F1F1F1"/>
<stop offset="1" stop-color="#FAFAFA"/>
</radialGradient>
<radialGradient id="paint35_radial_1095_516" cx="0" cy="0" r="1" gradientUnits="userSpaceOnUse" gradientTransform="translate(308.14 743.585) rotate(85.3036) scale(22.3786)">
<stop stop-color="#F1F1F1"/>
<stop offset="1" stop-color="#FAFAFA"/>
</radialGradient>
<radialGradient id="paint36_radial_1095_516" cx="0" cy="0" r="1" gradientUnits="userSpaceOnUse" gradientTransform="translate(351.623 743.585) rotate(85.3036) scale(22.3786)">
<stop stop-color="#F1F1F1"/>
<stop offset="1" stop-color="#FAFAFA"/>
</radialGradient>
<radialGradient id="paint37_radial_1095_516" cx="0" cy="0" r="1" gradientUnits="userSpaceOnUse" gradientTransform="translate(395.112 743.585) rotate(85.3036) scale(22.3786)">
<stop stop-color="#F1F1F1"/>
<stop offset="1" stop-color="#FAFAFA"/>
</radialGradient>
<radialGradient id="paint38_radial_1095_516" cx="0" cy="0" r="1" gradientUnits="userSpaceOnUse" gradientTransform="translate(438.602 743.585) rotate(85.3036) scale(22.3786)">
<stop stop-color="#F1F1F1"/>
<stop offset="1" stop-color="#FAFAFA"/>
</radialGradient>
<radialGradient id="paint39_radial_1095_516" cx="0" cy="0" r="1" gradientUnits="userSpaceOnUse" gradientTransform="translate(482.081 743.585) rotate(85.3036) scale(22.3786)">
<stop stop-color="#F1F1F1"/>
<stop offset="1" stop-color="#FAFAFA"/>
</radialGradient>
<radialGradient id="paint40_radial_1095_516" cx="0" cy="0" r="1" gradientUnits="userSpaceOnUse" gradientTransform="translate(177.676 832.514) rotate(85.3036) scale(22.3786)">
<stop stop-color="#F1F1F1"/>
<stop offset="1" stop-color="#FAFAFA"/>
</radialGradient>
<radialGradient id="paint41_radial_1095_516" cx="0" cy="0" r="1" gradientUnits="userSpaceOnUse" gradientTransform="translate(221.162 832.514) rotate(85.3036) scale(22.3786)">
<stop stop-color="#F1F1F1"/>
<stop offset="1" stop-color="#FAFAFA"/>
</radialGradient>
<radialGradient id="paint42_radial_1095_516" cx="0" cy="0" r="1" gradientUnits="userSpaceOnUse" gradientTransform="translate(264.647 832.514) rotate(85.3036) scale(22.3786)">
<stop stop-color="#F1F1F1"/>
<stop offset="1" stop-color="#FAFAFA"/>
</radialGradient>
<radialGradient id="paint43_radial_1095_516" cx="0" cy="0" r="1" gradientUnits="userSpaceOnUse" gradientTransform="translate(308.14 832.515) rotate(85.3036) scale(22.3786)">
<stop stop-color="#F1F1F1"/>
<stop offset="1" stop-color="#FAFAFA"/>
</radialGradient>
<radialGradient id="paint44_radial_1095_516" cx="0" cy="0" r="1" gradientUnits="userSpaceOnUse" gradientTransform="translate(351.623 832.514) rotate(85.3036) scale(22.3786)">
<stop stop-color="#F1F1F1"/>
<stop offset="1" stop-color="#FAFAFA"/>
</radialGradient>
<radialGradient id="paint45_radial_1095_516" cx="0" cy="0" r="1" gradientUnits="userSpaceOnUse" gradientTransform="translate(395.112 832.514) rotate(85.3036) scale(22.3786)">
<stop stop-color="#F1F1F1"/>
<stop offset="1" stop-color="#FAFAFA"/>
</radialGradient>
<radialGradient id="paint46_radial_1095_516" cx="0" cy="0" r="1" gradientUnits="userSpaceOnUse" gradientTransform="translate(438.602 832.514) rotate(85.3036) scale(22.3786)">
<stop stop-color="#F1F1F1"/>
<stop offset="1" stop-color="#FAFAFA"/>
</radialGradient>
<radialGradient id="paint47_radial_1095_516" cx="0" cy="0" r="1" gradientUnits="userSpaceOnUse" gradientTransform="translate(482.081 832.514) rotate(85.3036) scale(22.3786)">
<stop stop-color="#F1F1F1"/>
<stop offset="1" stop-color="#FAFAFA"/>
</radialGradient>
<radialGradient id="paint48_radial_1095_516" cx="0" cy="0" r="1" gradientUnits="userSpaceOnUse" gradientTransform="translate(1346.38 756.71) rotate(85.3036) scale(619.825)">
<stop stop-color="#DADADA"/>
<stop offset="1" stop-color="#FAFAFA"/>
</radialGradient>
<radialGradient id="paint49_radial_1095_516" cx="0" cy="0" r="1" gradientUnits="userSpaceOnUse" gradientTransform="translate(141.819 593.849) rotate(85.3036) scale(361.91)">
<stop stop-color="#DADADA"/>
<stop offset="1" stop-color="#FAFAFA"/>
</radialGradient>
</defs>
</svg>
