<svg width="316" height="188" viewBox="0 0 316 188" fill="none" xmlns="http://www.w3.org/2000/svg">
<g opacity="0.5">
<rect x="174" y="31.3741" width="13.2598" height="13.2598" rx="1.17914" transform="rotate(-45 174 31.3741)" fill="url(#paint0_radial_1095_516)" fill-opacity="0.3"/>
<rect x="198.695" y="31.3741" width="13.2598" height="13.2598" rx="1.17914" transform="rotate(-45 198.695 31.3741)" fill="url(#paint1_radial_1095_516)" fill-opacity="0.3"/>
<rect x="223.386" y="31.3741" width="13.2598" height="13.2598" rx="1.17914" transform="rotate(-45 223.386 31.3741)" fill="url(#paint2_radial_1095_516)" fill-opacity="0.3"/>
<rect x="248.081" y="31.3741" width="13.2598" height="13.2598" rx="1.17914" transform="rotate(-45 248.081 31.3741)" fill="url(#paint3_radial_1095_516)" fill-opacity="0.3"/>
<rect x="272.778" y="31.3741" width="13.2598" height="13.2598" rx="1.17914" transform="rotate(-45 272.778 31.3741)" fill="url(#paint4_radial_1095_516)" fill-opacity="0.3"/>
<rect x="297.47" y="31.3741" width="13.2598" height="13.2598" rx="1.17914" transform="rotate(-45 297.47 31.3741)" fill="url(#paint5_radial_1095_516)" fill-opacity="0.3"/>
</g>
<g opacity="0.5">
<rect width="13.2598" height="13.2598" rx="1.17914" transform="matrix(0.707105 -0.707108 0.707105 0.707108 174 6.12488)" fill="url(#paint6_radial_1095_516)" fill-opacity="0.3"/>
<rect width="13.2598" height="13.2598" rx="1.17914" transform="matrix(0.707105 -0.707108 0.707105 0.707108 198.695 6.12488)" fill="url(#paint7_radial_1095_516)" fill-opacity="0.3"/>
<rect width="13.2598" height="13.2598" rx="1.17914" transform="matrix(0.707105 -0.707108 0.707105 0.707108 223.386 6.12488)" fill="url(#paint8_radial_1095_516)" fill-opacity="0.3"/>
<rect width="13.2598" height="13.2598" rx="1.17914" transform="matrix(0.707105 -0.707108 0.707105 0.707108 248.081 6.12476)" fill="url(#paint9_radial_1095_516)" fill-opacity="0.3"/>
<rect width="13.2598" height="13.2598" rx="1.17914" transform="matrix(0.707105 -0.707108 0.707105 0.707108 272.778 6.12488)" fill="url(#paint10_radial_1095_516)" fill-opacity="0.3"/>
<rect width="13.2598" height="13.2598" rx="1.17914" transform="matrix(0.707105 -0.707108 0.707105 0.707108 297.47 6.12488)" fill="url(#paint11_radial_1095_516)" fill-opacity="0.3"/>
</g>
<g opacity="0.5">
<rect x="174" y="56.6239" width="13.2598" height="13.2598" rx="1.17914" transform="rotate(-45 174 56.6239)" fill="url(#paint12_radial_1095_516)" fill-opacity="0.3"/>
<rect x="198.695" y="56.6239" width="13.2598" height="13.2598" rx="1.17914" transform="rotate(-45 198.695 56.6239)" fill="url(#paint13_radial_1095_516)" fill-opacity="0.3"/>
<rect x="223.386" y="56.6239" width="13.2598" height="13.2598" rx="1.17914" transform="rotate(-45 223.386 56.6239)" fill="url(#paint14_radial_1095_516)" fill-opacity="0.3"/>
<rect x="248.081" y="56.6239" width="13.2598" height="13.2598" rx="1.17914" transform="rotate(-45 248.081 56.6239)" fill="url(#paint15_radial_1095_516)" fill-opacity="0.3"/>
<rect x="272.778" y="56.6239" width="13.2598" height="13.2598" rx="1.17914" transform="rotate(-45 272.778 56.6239)" fill="url(#paint16_radial_1095_516)" fill-opacity="0.3"/>
<rect x="297.47" y="56.6239" width="13.2598" height="13.2598" rx="1.17914" transform="rotate(-45 297.47 56.6239)" fill="url(#paint17_radial_1095_516)" fill-opacity="0.3"/>
</g>
<rect x="36" y="212.775" width="194.843" height="194.843" rx="12.4935" transform="rotate(-45 36 212.775)" fill="url(#paint18_radial_1095_516)" fill-opacity="0.3"/>
<rect x="-192" y="118.812" width="186.41" height="186.41" rx="15.5221" transform="rotate(-45 -192 118.812)" fill="url(#paint19_radial_1095_516)" fill-opacity="0.3"/>
<defs>
<radialGradient id="paint0_radial_1095_516" cx="0" cy="0" r="1" gradientUnits="userSpaceOnUse" gradientTransform="translate(180.63 38.0041) rotate(85.3036) scale(12.7076)">
<stop stop-color="#D2D2D2"/>
<stop offset="1" stop-color="#FAFAFA"/>
</radialGradient>
<radialGradient id="paint1_radial_1095_516" cx="0" cy="0" r="1" gradientUnits="userSpaceOnUse" gradientTransform="translate(205.325 38.0041) rotate(85.3036) scale(12.7076)">
<stop stop-color="#D2D2D2"/>
<stop offset="1" stop-color="#FAFAFA"/>
</radialGradient>
<radialGradient id="paint2_radial_1095_516" cx="0" cy="0" r="1" gradientUnits="userSpaceOnUse" gradientTransform="translate(230.016 38.0041) rotate(85.3036) scale(12.7076)">
<stop stop-color="#D2D2D2"/>
<stop offset="1" stop-color="#FAFAFA"/>
</radialGradient>
<radialGradient id="paint3_radial_1095_516" cx="0" cy="0" r="1" gradientUnits="userSpaceOnUse" gradientTransform="translate(254.711 38.0041) rotate(85.3036) scale(12.7076)">
<stop stop-color="#D2D2D2"/>
<stop offset="1" stop-color="#FAFAFA"/>
</radialGradient>
<radialGradient id="paint4_radial_1095_516" cx="0" cy="0" r="1" gradientUnits="userSpaceOnUse" gradientTransform="translate(279.408 38.0041) rotate(85.3036) scale(12.7076)">
<stop stop-color="#D2D2D2"/>
<stop offset="1" stop-color="#FAFAFA"/>
</radialGradient>
<radialGradient id="paint5_radial_1095_516" cx="0" cy="0" r="1" gradientUnits="userSpaceOnUse" gradientTransform="translate(304.1 38.0041) rotate(85.3036) scale(12.7076)">
<stop stop-color="#D2D2D2"/>
<stop offset="1" stop-color="#FAFAFA"/>
</radialGradient>
<radialGradient id="paint6_radial_1095_516" cx="0" cy="0" r="1" gradientUnits="userSpaceOnUse" gradientTransform="translate(6.62992 6.62992) rotate(85.3036) scale(12.7076)">
<stop stop-color="#D2D2D2"/>
<stop offset="1" stop-color="#FAFAFA"/>
</radialGradient>
<radialGradient id="paint7_radial_1095_516" cx="0" cy="0" r="1" gradientUnits="userSpaceOnUse" gradientTransform="translate(6.62992 6.62992) rotate(85.3036) scale(12.7076)">
<stop stop-color="#D2D2D2"/>
<stop offset="1" stop-color="#FAFAFA"/>
</radialGradient>
<radialGradient id="paint8_radial_1095_516" cx="0" cy="0" r="1" gradientUnits="userSpaceOnUse" gradientTransform="translate(6.62992 6.62992) rotate(85.3036) scale(12.7076)">
<stop stop-color="#D2D2D2"/>
<stop offset="1" stop-color="#FAFAFA"/>
</radialGradient>
<radialGradient id="paint9_radial_1095_516" cx="0" cy="0" r="1" gradientUnits="userSpaceOnUse" gradientTransform="translate(6.62992 6.62992) rotate(85.3036) scale(12.7076)">
<stop stop-color="#D2D2D2"/>
<stop offset="1" stop-color="#FAFAFA"/>
</radialGradient>
<radialGradient id="paint10_radial_1095_516" cx="0" cy="0" r="1" gradientUnits="userSpaceOnUse" gradientTransform="translate(6.62992 6.62992) rotate(85.3036) scale(12.7076)">
<stop stop-color="#D2D2D2"/>
<stop offset="1" stop-color="#FAFAFA"/>
</radialGradient>
<radialGradient id="paint11_radial_1095_516" cx="0" cy="0" r="1" gradientUnits="userSpaceOnUse" gradientTransform="translate(6.62992 6.62992) rotate(85.3036) scale(12.7076)">
<stop stop-color="#D2D2D2"/>
<stop offset="1" stop-color="#FAFAFA"/>
</radialGradient>
<radialGradient id="paint12_radial_1095_516" cx="0" cy="0" r="1" gradientUnits="userSpaceOnUse" gradientTransform="translate(180.63 63.2538) rotate(85.3036) scale(12.7076)">
<stop stop-color="#D2D2D2"/>
<stop offset="1" stop-color="#FAFAFA"/>
</radialGradient>
<radialGradient id="paint13_radial_1095_516" cx="0" cy="0" r="1" gradientUnits="userSpaceOnUse" gradientTransform="translate(205.325 63.2538) rotate(85.3036) scale(12.7076)">
<stop stop-color="#D2D2D2"/>
<stop offset="1" stop-color="#FAFAFA"/>
</radialGradient>
<radialGradient id="paint14_radial_1095_516" cx="0" cy="0" r="1" gradientUnits="userSpaceOnUse" gradientTransform="translate(230.016 63.2538) rotate(85.3036) scale(12.7076)">
<stop stop-color="#D2D2D2"/>
<stop offset="1" stop-color="#FAFAFA"/>
</radialGradient>
<radialGradient id="paint15_radial_1095_516" cx="0" cy="0" r="1" gradientUnits="userSpaceOnUse" gradientTransform="translate(254.711 63.2538) rotate(85.3036) scale(12.7076)">
<stop stop-color="#D2D2D2"/>
<stop offset="1" stop-color="#FAFAFA"/>
</radialGradient>
<radialGradient id="paint16_radial_1095_516" cx="0" cy="0" r="1" gradientUnits="userSpaceOnUse" gradientTransform="translate(279.408 63.2538) rotate(85.3036) scale(12.7076)">
<stop stop-color="#D2D2D2"/>
<stop offset="1" stop-color="#FAFAFA"/>
</radialGradient>
<radialGradient id="paint17_radial_1095_516" cx="0" cy="0" r="1" gradientUnits="userSpaceOnUse" gradientTransform="translate(304.1 63.2538) rotate(85.3036) scale(12.7076)">
<stop stop-color="#D2D2D2"/>
<stop offset="1" stop-color="#FAFAFA"/>
</radialGradient>
<radialGradient id="paint18_radial_1095_516" cx="0" cy="0" r="1" gradientUnits="userSpaceOnUse" gradientTransform="translate(133.422 310.197) rotate(85.3036) scale(186.729)">
<stop stop-color="#D2D2D2"/>
<stop offset="1" stop-color="#FAFAFA"/>
</radialGradient>
<radialGradient id="paint19_radial_1095_516" cx="0" cy="0" r="1" gradientUnits="userSpaceOnUse" gradientTransform="translate(-98.795 212.017) rotate(85.3036) scale(178.646)">
<stop stop-color="#D2D2D2"/>
<stop offset="1" stop-color="#FAFAFA"/>
</radialGradient>
</defs>
</svg>
