<svg width="1913" height="1910" viewBox="0 0 1913 1910" fill="none" xmlns="http://www.w3.org/2000/svg">
<rect opacity="0.15" x="-358" y="485.587" width="724.907" height="724.907" rx="67.4765" transform="rotate(-45 -358 485.587)" fill="url(#paint0_radial_1095_516)"/>
<rect opacity="0.15" x="-358" y="485.587" width="724.907" height="724.907" rx="67.4765" transform="rotate(-45 -358 485.587)" fill="url(#paint1_radial_1095_516)"/>
<g opacity="0.5">
<rect x="1253" y="455.512" width="23.3511" height="23.3511" rx="5.23122" transform="rotate(-45 1253 455.512)" fill="url(#paint2_radial_1095_516)"/>
<rect x="1296.49" y="455.512" width="23.3511" height="23.3511" rx="5.23122" transform="rotate(-45 1296.49 455.512)" fill="url(#paint3_radial_1095_516)"/>
<rect x="1339.97" y="455.512" width="23.3511" height="23.3511" rx="5.23122" transform="rotate(-45 1339.97 455.512)" fill="url(#paint4_radial_1095_516)"/>
<rect x="1383.46" y="455.512" width="23.3511" height="23.3511" rx="5.23122" transform="rotate(-45 1383.46 455.512)" fill="url(#paint5_radial_1095_516)"/>
<rect x="1426.95" y="455.512" width="23.3511" height="23.3511" rx="5.23122" transform="rotate(-45 1426.95 455.512)" fill="url(#paint6_radial_1095_516)"/>
<rect x="1470.44" y="455.512" width="23.3511" height="23.3511" rx="5.23122" transform="rotate(-45 1470.44 455.512)" fill="url(#paint7_radial_1095_516)"/>
<rect x="1513.93" y="455.512" width="23.3511" height="23.3511" rx="5.23122" transform="rotate(-45 1513.93 455.512)" fill="url(#paint8_radial_1095_516)"/>
<rect x="1557.41" y="455.512" width="23.3511" height="23.3511" rx="5.23122" transform="rotate(-45 1557.41 455.512)" fill="url(#paint9_radial_1095_516)"/>
</g>
<g opacity="0.5">
<rect x="1253" y="544.443" width="23.3511" height="23.3511" rx="5.23122" transform="rotate(-45 1253 544.443)" fill="url(#paint10_radial_1095_516)"/>
<rect x="1296.49" y="544.443" width="23.3511" height="23.3511" rx="5.23122" transform="rotate(-45 1296.49 544.443)" fill="url(#paint11_radial_1095_516)"/>
<rect x="1339.97" y="544.443" width="23.3511" height="23.3511" rx="5.23122" transform="rotate(-45 1339.97 544.443)" fill="url(#paint12_radial_1095_516)"/>
<rect x="1383.46" y="544.443" width="23.3511" height="23.3511" rx="5.23122" transform="rotate(-45 1383.46 544.443)" fill="url(#paint13_radial_1095_516)"/>
<rect x="1426.95" y="544.443" width="23.3511" height="23.3511" rx="5.23122" transform="rotate(-45 1426.95 544.443)" fill="url(#paint14_radial_1095_516)"/>
<rect x="1470.44" y="544.443" width="23.3511" height="23.3511" rx="5.23122" transform="rotate(-45 1470.44 544.443)" fill="url(#paint15_radial_1095_516)"/>
<rect x="1513.93" y="544.443" width="23.3511" height="23.3511" rx="5.23122" transform="rotate(-45 1513.93 544.443)" fill="url(#paint16_radial_1095_516)"/>
<rect x="1557.41" y="544.443" width="23.3511" height="23.3511" rx="5.23122" transform="rotate(-45 1557.41 544.443)" fill="url(#paint17_radial_1095_516)"/>
</g>
<g opacity="0.5">
<rect x="1253" y="633.374" width="23.3511" height="23.3511" rx="5.23122" transform="rotate(-45 1253 633.374)" fill="url(#paint18_radial_1095_516)"/>
<rect x="1296.49" y="633.373" width="23.3511" height="23.3511" rx="5.23122" transform="rotate(-45 1296.49 633.373)" fill="url(#paint19_radial_1095_516)"/>
<rect x="1339.97" y="633.373" width="23.3511" height="23.3511" rx="5.23122" transform="rotate(-45 1339.97 633.373)" fill="url(#paint20_radial_1095_516)"/>
<rect x="1383.46" y="633.374" width="23.3511" height="23.3511" rx="5.23122" transform="rotate(-45 1383.46 633.374)" fill="url(#paint21_radial_1095_516)"/>
<rect x="1426.95" y="633.373" width="23.3511" height="23.3511" rx="5.23122" transform="rotate(-45 1426.95 633.373)" fill="url(#paint22_radial_1095_516)"/>
<rect x="1470.44" y="633.373" width="23.3511" height="23.3511" rx="5.23122" transform="rotate(-45 1470.44 633.373)" fill="url(#paint23_radial_1095_516)"/>
<rect x="1513.93" y="633.373" width="23.3511" height="23.3511" rx="5.23122" transform="rotate(-45 1513.93 633.373)" fill="url(#paint24_radial_1095_516)"/>
<rect x="1557.41" y="633.373" width="23.3511" height="23.3511" rx="5.23122" transform="rotate(-45 1557.41 633.373)" fill="url(#paint25_radial_1095_516)"/>
</g>
<g opacity="0.5">
<rect x="1253" y="499.977" width="23.3511" height="23.3511" rx="5.23122" transform="rotate(-45 1253 499.977)" fill="url(#paint26_radial_1095_516)"/>
<rect x="1296.49" y="499.977" width="23.3511" height="23.3511" rx="5.23122" transform="rotate(-45 1296.49 499.977)" fill="url(#paint27_radial_1095_516)"/>
<rect x="1339.97" y="499.977" width="23.3511" height="23.3511" rx="5.23122" transform="rotate(-45 1339.97 499.977)" fill="url(#paint28_radial_1095_516)"/>
<rect x="1383.46" y="499.977" width="23.3511" height="23.3511" rx="5.23122" transform="rotate(-45 1383.46 499.977)" fill="url(#paint29_radial_1095_516)"/>
<rect x="1426.95" y="499.977" width="23.3511" height="23.3511" rx="5.23122" transform="rotate(-45 1426.95 499.977)" fill="url(#paint30_radial_1095_516)"/>
<rect x="1470.44" y="499.977" width="23.3511" height="23.3511" rx="5.23122" transform="rotate(-45 1470.44 499.977)" fill="url(#paint31_radial_1095_516)"/>
<rect x="1513.93" y="499.977" width="23.3511" height="23.3511" rx="5.23122" transform="rotate(-45 1513.93 499.977)" fill="url(#paint32_radial_1095_516)"/>
<rect x="1557.41" y="499.977" width="23.3511" height="23.3511" rx="5.23122" transform="rotate(-45 1557.41 499.977)" fill="url(#paint33_radial_1095_516)"/>
</g>
<g opacity="0.5">
<rect x="1253" y="588.909" width="23.3511" height="23.3511" rx="5.23122" transform="rotate(-45 1253 588.909)" fill="url(#paint34_radial_1095_516)"/>
<rect x="1296.49" y="588.909" width="23.3511" height="23.3511" rx="5.23122" transform="rotate(-45 1296.49 588.909)" fill="url(#paint35_radial_1095_516)"/>
<rect x="1339.97" y="588.909" width="23.3511" height="23.3511" rx="5.23122" transform="rotate(-45 1339.97 588.909)" fill="url(#paint36_radial_1095_516)"/>
<rect x="1383.46" y="588.909" width="23.3511" height="23.3511" rx="5.23122" transform="rotate(-45 1383.46 588.909)" fill="url(#paint37_radial_1095_516)"/>
<rect x="1426.95" y="588.909" width="23.3511" height="23.3511" rx="5.23122" transform="rotate(-45 1426.95 588.909)" fill="url(#paint38_radial_1095_516)"/>
<rect x="1470.44" y="588.909" width="23.3511" height="23.3511" rx="5.23122" transform="rotate(-45 1470.44 588.909)" fill="url(#paint39_radial_1095_516)"/>
<rect x="1513.93" y="588.909" width="23.3511" height="23.3511" rx="5.23122" transform="rotate(-45 1513.93 588.909)" fill="url(#paint40_radial_1095_516)"/>
<rect x="1557.41" y="588.909" width="23.3511" height="23.3511" rx="5.23122" transform="rotate(-45 1557.41 588.909)" fill="url(#paint41_radial_1095_516)"/>
</g>
<g opacity="0.5">
<rect x="1253" y="677.839" width="23.3511" height="23.3511" rx="5.23122" transform="rotate(-45 1253 677.839)" fill="url(#paint42_radial_1095_516)"/>
<rect x="1296.49" y="677.838" width="23.3511" height="23.3511" rx="5.23122" transform="rotate(-45 1296.49 677.838)" fill="url(#paint43_radial_1095_516)"/>
<rect x="1339.97" y="677.838" width="23.3511" height="23.3511" rx="5.23122" transform="rotate(-45 1339.97 677.838)" fill="url(#paint44_radial_1095_516)"/>
<rect x="1383.46" y="677.839" width="23.3511" height="23.3511" rx="5.23122" transform="rotate(-45 1383.46 677.839)" fill="url(#paint45_radial_1095_516)"/>
<rect x="1426.95" y="677.838" width="23.3511" height="23.3511" rx="5.23122" transform="rotate(-45 1426.95 677.838)" fill="url(#paint46_radial_1095_516)"/>
<rect x="1470.44" y="677.838" width="23.3511" height="23.3511" rx="5.23122" transform="rotate(-45 1470.44 677.838)" fill="url(#paint47_radial_1095_516)"/>
<rect x="1513.93" y="677.838" width="23.3511" height="23.3511" rx="5.23122" transform="rotate(-45 1513.93 677.838)" fill="url(#paint48_radial_1095_516)"/>
<rect x="1557.41" y="677.838" width="23.3511" height="23.3511" rx="5.23122" transform="rotate(-45 1557.41 677.838)" fill="url(#paint49_radial_1095_516)"/>
</g>
<rect opacity="0.15" x="1023" y="1477.33" width="646.761" height="646.761" rx="60.2025" transform="rotate(-45 1023 1477.33)" fill="url(#paint50_radial_1095_516)"/>
<rect opacity="0.15" x="-47" y="1449.03" width="377.638" height="377.638" rx="35.1517" transform="rotate(-45 -47 1449.03)" fill="url(#paint51_radial_1095_516)"/>
<defs>
<radialGradient id="paint0_radial_1095_516" cx="0" cy="0" r="1" gradientUnits="userSpaceOnUse" gradientTransform="translate(4.45373 848.041) rotate(85.3036) scale(694.717)">
<stop stop-color="#DADADA"/>
<stop offset="1" stop-color="#FAFAFA"/>
</radialGradient>
<radialGradient id="paint1_radial_1095_516" cx="0" cy="0" r="1" gradientUnits="userSpaceOnUse" gradientTransform="translate(4.45373 848.041) rotate(85.3036) scale(694.717)">
<stop stop-color="#DADADA"/>
<stop offset="1" stop-color="#FAFAFA"/>
</radialGradient>
<radialGradient id="paint2_radial_1095_516" cx="0" cy="0" r="1" gradientUnits="userSpaceOnUse" gradientTransform="translate(1264.68 467.188) rotate(85.3036) scale(22.3786)">
<stop stop-color="#F1F1F1"/>
<stop offset="1" stop-color="#FAFAFA"/>
</radialGradient>
<radialGradient id="paint3_radial_1095_516" cx="0" cy="0" r="1" gradientUnits="userSpaceOnUse" gradientTransform="translate(1308.16 467.187) rotate(85.3036) scale(22.3786)">
<stop stop-color="#F1F1F1"/>
<stop offset="1" stop-color="#FAFAFA"/>
</radialGradient>
<radialGradient id="paint4_radial_1095_516" cx="0" cy="0" r="1" gradientUnits="userSpaceOnUse" gradientTransform="translate(1351.65 467.187) rotate(85.3036) scale(22.3786)">
<stop stop-color="#F1F1F1"/>
<stop offset="1" stop-color="#FAFAFA"/>
</radialGradient>
<radialGradient id="paint5_radial_1095_516" cx="0" cy="0" r="1" gradientUnits="userSpaceOnUse" gradientTransform="translate(1395.14 467.187) rotate(85.3036) scale(22.3786)">
<stop stop-color="#F1F1F1"/>
<stop offset="1" stop-color="#FAFAFA"/>
</radialGradient>
<radialGradient id="paint6_radial_1095_516" cx="0" cy="0" r="1" gradientUnits="userSpaceOnUse" gradientTransform="translate(1438.62 467.187) rotate(85.3036) scale(22.3786)">
<stop stop-color="#F1F1F1"/>
<stop offset="1" stop-color="#FAFAFA"/>
</radialGradient>
<radialGradient id="paint7_radial_1095_516" cx="0" cy="0" r="1" gradientUnits="userSpaceOnUse" gradientTransform="translate(1482.11 467.187) rotate(85.3036) scale(22.3786)">
<stop stop-color="#F1F1F1"/>
<stop offset="1" stop-color="#FAFAFA"/>
</radialGradient>
<radialGradient id="paint8_radial_1095_516" cx="0" cy="0" r="1" gradientUnits="userSpaceOnUse" gradientTransform="translate(1525.6 467.187) rotate(85.3036) scale(22.3786)">
<stop stop-color="#F1F1F1"/>
<stop offset="1" stop-color="#FAFAFA"/>
</radialGradient>
<radialGradient id="paint9_radial_1095_516" cx="0" cy="0" r="1" gradientUnits="userSpaceOnUse" gradientTransform="translate(1569.08 467.187) rotate(85.3036) scale(22.3786)">
<stop stop-color="#F1F1F1"/>
<stop offset="1" stop-color="#FAFAFA"/>
</radialGradient>
<radialGradient id="paint10_radial_1095_516" cx="0" cy="0" r="1" gradientUnits="userSpaceOnUse" gradientTransform="translate(1264.68 556.118) rotate(85.3036) scale(22.3786)">
<stop stop-color="#F1F1F1"/>
<stop offset="1" stop-color="#FAFAFA"/>
</radialGradient>
<radialGradient id="paint11_radial_1095_516" cx="0" cy="0" r="1" gradientUnits="userSpaceOnUse" gradientTransform="translate(1308.16 556.118) rotate(85.3036) scale(22.3786)">
<stop stop-color="#F1F1F1"/>
<stop offset="1" stop-color="#FAFAFA"/>
</radialGradient>
<radialGradient id="paint12_radial_1095_516" cx="0" cy="0" r="1" gradientUnits="userSpaceOnUse" gradientTransform="translate(1351.65 556.118) rotate(85.3036) scale(22.3786)">
<stop stop-color="#F1F1F1"/>
<stop offset="1" stop-color="#FAFAFA"/>
</radialGradient>
<radialGradient id="paint13_radial_1095_516" cx="0" cy="0" r="1" gradientUnits="userSpaceOnUse" gradientTransform="translate(1395.14 556.118) rotate(85.3036) scale(22.3786)">
<stop stop-color="#F1F1F1"/>
<stop offset="1" stop-color="#FAFAFA"/>
</radialGradient>
<radialGradient id="paint14_radial_1095_516" cx="0" cy="0" r="1" gradientUnits="userSpaceOnUse" gradientTransform="translate(1438.62 556.118) rotate(85.3036) scale(22.3786)">
<stop stop-color="#F1F1F1"/>
<stop offset="1" stop-color="#FAFAFA"/>
</radialGradient>
<radialGradient id="paint15_radial_1095_516" cx="0" cy="0" r="1" gradientUnits="userSpaceOnUse" gradientTransform="translate(1482.11 556.118) rotate(85.3036) scale(22.3786)">
<stop stop-color="#F1F1F1"/>
<stop offset="1" stop-color="#FAFAFA"/>
</radialGradient>
<radialGradient id="paint16_radial_1095_516" cx="0" cy="0" r="1" gradientUnits="userSpaceOnUse" gradientTransform="translate(1525.6 556.118) rotate(85.3036) scale(22.3786)">
<stop stop-color="#F1F1F1"/>
<stop offset="1" stop-color="#FAFAFA"/>
</radialGradient>
<radialGradient id="paint17_radial_1095_516" cx="0" cy="0" r="1" gradientUnits="userSpaceOnUse" gradientTransform="translate(1569.08 556.118) rotate(85.3036) scale(22.3786)">
<stop stop-color="#F1F1F1"/>
<stop offset="1" stop-color="#FAFAFA"/>
</radialGradient>
<radialGradient id="paint18_radial_1095_516" cx="0" cy="0" r="1" gradientUnits="userSpaceOnUse" gradientTransform="translate(1264.68 645.049) rotate(85.3036) scale(22.3786)">
<stop stop-color="#F1F1F1"/>
<stop offset="1" stop-color="#FAFAFA"/>
</radialGradient>
<radialGradient id="paint19_radial_1095_516" cx="0" cy="0" r="1" gradientUnits="userSpaceOnUse" gradientTransform="translate(1308.16 645.048) rotate(85.3036) scale(22.3786)">
<stop stop-color="#F1F1F1"/>
<stop offset="1" stop-color="#FAFAFA"/>
</radialGradient>
<radialGradient id="paint20_radial_1095_516" cx="0" cy="0" r="1" gradientUnits="userSpaceOnUse" gradientTransform="translate(1351.65 645.048) rotate(85.3036) scale(22.3786)">
<stop stop-color="#F1F1F1"/>
<stop offset="1" stop-color="#FAFAFA"/>
</radialGradient>
<radialGradient id="paint21_radial_1095_516" cx="0" cy="0" r="1" gradientUnits="userSpaceOnUse" gradientTransform="translate(1395.14 645.049) rotate(85.3036) scale(22.3786)">
<stop stop-color="#F1F1F1"/>
<stop offset="1" stop-color="#FAFAFA"/>
</radialGradient>
<radialGradient id="paint22_radial_1095_516" cx="0" cy="0" r="1" gradientUnits="userSpaceOnUse" gradientTransform="translate(1438.62 645.048) rotate(85.3036) scale(22.3786)">
<stop stop-color="#F1F1F1"/>
<stop offset="1" stop-color="#FAFAFA"/>
</radialGradient>
<radialGradient id="paint23_radial_1095_516" cx="0" cy="0" r="1" gradientUnits="userSpaceOnUse" gradientTransform="translate(1482.11 645.048) rotate(85.3036) scale(22.3786)">
<stop stop-color="#F1F1F1"/>
<stop offset="1" stop-color="#FAFAFA"/>
</radialGradient>
<radialGradient id="paint24_radial_1095_516" cx="0" cy="0" r="1" gradientUnits="userSpaceOnUse" gradientTransform="translate(1525.6 645.048) rotate(85.3036) scale(22.3786)">
<stop stop-color="#F1F1F1"/>
<stop offset="1" stop-color="#FAFAFA"/>
</radialGradient>
<radialGradient id="paint25_radial_1095_516" cx="0" cy="0" r="1" gradientUnits="userSpaceOnUse" gradientTransform="translate(1569.08 645.048) rotate(85.3036) scale(22.3786)">
<stop stop-color="#F1F1F1"/>
<stop offset="1" stop-color="#FAFAFA"/>
</radialGradient>
<radialGradient id="paint26_radial_1095_516" cx="0" cy="0" r="1" gradientUnits="userSpaceOnUse" gradientTransform="translate(1264.68 511.652) rotate(85.3036) scale(22.3786)">
<stop stop-color="#F1F1F1"/>
<stop offset="1" stop-color="#FAFAFA"/>
</radialGradient>
<radialGradient id="paint27_radial_1095_516" cx="0" cy="0" r="1" gradientUnits="userSpaceOnUse" gradientTransform="translate(1308.16 511.652) rotate(85.3036) scale(22.3786)">
<stop stop-color="#F1F1F1"/>
<stop offset="1" stop-color="#FAFAFA"/>
</radialGradient>
<radialGradient id="paint28_radial_1095_516" cx="0" cy="0" r="1" gradientUnits="userSpaceOnUse" gradientTransform="translate(1351.65 511.652) rotate(85.3036) scale(22.3786)">
<stop stop-color="#F1F1F1"/>
<stop offset="1" stop-color="#FAFAFA"/>
</radialGradient>
<radialGradient id="paint29_radial_1095_516" cx="0" cy="0" r="1" gradientUnits="userSpaceOnUse" gradientTransform="translate(1395.14 511.652) rotate(85.3036) scale(22.3786)">
<stop stop-color="#F1F1F1"/>
<stop offset="1" stop-color="#FAFAFA"/>
</radialGradient>
<radialGradient id="paint30_radial_1095_516" cx="0" cy="0" r="1" gradientUnits="userSpaceOnUse" gradientTransform="translate(1438.62 511.652) rotate(85.3036) scale(22.3786)">
<stop stop-color="#F1F1F1"/>
<stop offset="1" stop-color="#FAFAFA"/>
</radialGradient>
<radialGradient id="paint31_radial_1095_516" cx="0" cy="0" r="1" gradientUnits="userSpaceOnUse" gradientTransform="translate(1482.11 511.652) rotate(85.3036) scale(22.3786)">
<stop stop-color="#F1F1F1"/>
<stop offset="1" stop-color="#FAFAFA"/>
</radialGradient>
<radialGradient id="paint32_radial_1095_516" cx="0" cy="0" r="1" gradientUnits="userSpaceOnUse" gradientTransform="translate(1525.6 511.652) rotate(85.3036) scale(22.3786)">
<stop stop-color="#F1F1F1"/>
<stop offset="1" stop-color="#FAFAFA"/>
</radialGradient>
<radialGradient id="paint33_radial_1095_516" cx="0" cy="0" r="1" gradientUnits="userSpaceOnUse" gradientTransform="translate(1569.08 511.652) rotate(85.3036) scale(22.3786)">
<stop stop-color="#F1F1F1"/>
<stop offset="1" stop-color="#FAFAFA"/>
</radialGradient>
<radialGradient id="paint34_radial_1095_516" cx="0" cy="0" r="1" gradientUnits="userSpaceOnUse" gradientTransform="translate(1264.68 600.585) rotate(85.3036) scale(22.3786)">
<stop stop-color="#F1F1F1"/>
<stop offset="1" stop-color="#FAFAFA"/>
</radialGradient>
<radialGradient id="paint35_radial_1095_516" cx="0" cy="0" r="1" gradientUnits="userSpaceOnUse" gradientTransform="translate(1308.16 600.585) rotate(85.3036) scale(22.3786)">
<stop stop-color="#F1F1F1"/>
<stop offset="1" stop-color="#FAFAFA"/>
</radialGradient>
<radialGradient id="paint36_radial_1095_516" cx="0" cy="0" r="1" gradientUnits="userSpaceOnUse" gradientTransform="translate(1351.65 600.585) rotate(85.3036) scale(22.3786)">
<stop stop-color="#F1F1F1"/>
<stop offset="1" stop-color="#FAFAFA"/>
</radialGradient>
<radialGradient id="paint37_radial_1095_516" cx="0" cy="0" r="1" gradientUnits="userSpaceOnUse" gradientTransform="translate(1395.14 600.585) rotate(85.3036) scale(22.3786)">
<stop stop-color="#F1F1F1"/>
<stop offset="1" stop-color="#FAFAFA"/>
</radialGradient>
<radialGradient id="paint38_radial_1095_516" cx="0" cy="0" r="1" gradientUnits="userSpaceOnUse" gradientTransform="translate(1438.62 600.585) rotate(85.3036) scale(22.3786)">
<stop stop-color="#F1F1F1"/>
<stop offset="1" stop-color="#FAFAFA"/>
</radialGradient>
<radialGradient id="paint39_radial_1095_516" cx="0" cy="0" r="1" gradientUnits="userSpaceOnUse" gradientTransform="translate(1482.11 600.585) rotate(85.3036) scale(22.3786)">
<stop stop-color="#F1F1F1"/>
<stop offset="1" stop-color="#FAFAFA"/>
</radialGradient>
<radialGradient id="paint40_radial_1095_516" cx="0" cy="0" r="1" gradientUnits="userSpaceOnUse" gradientTransform="translate(1525.6 600.585) rotate(85.3036) scale(22.3786)">
<stop stop-color="#F1F1F1"/>
<stop offset="1" stop-color="#FAFAFA"/>
</radialGradient>
<radialGradient id="paint41_radial_1095_516" cx="0" cy="0" r="1" gradientUnits="userSpaceOnUse" gradientTransform="translate(1569.08 600.585) rotate(85.3036) scale(22.3786)">
<stop stop-color="#F1F1F1"/>
<stop offset="1" stop-color="#FAFAFA"/>
</radialGradient>
<radialGradient id="paint42_radial_1095_516" cx="0" cy="0" r="1" gradientUnits="userSpaceOnUse" gradientTransform="translate(1264.68 689.514) rotate(85.3036) scale(22.3786)">
<stop stop-color="#F1F1F1"/>
<stop offset="1" stop-color="#FAFAFA"/>
</radialGradient>
<radialGradient id="paint43_radial_1095_516" cx="0" cy="0" r="1" gradientUnits="userSpaceOnUse" gradientTransform="translate(1308.16 689.514) rotate(85.3036) scale(22.3786)">
<stop stop-color="#F1F1F1"/>
<stop offset="1" stop-color="#FAFAFA"/>
</radialGradient>
<radialGradient id="paint44_radial_1095_516" cx="0" cy="0" r="1" gradientUnits="userSpaceOnUse" gradientTransform="translate(1351.65 689.514) rotate(85.3036) scale(22.3786)">
<stop stop-color="#F1F1F1"/>
<stop offset="1" stop-color="#FAFAFA"/>
</radialGradient>
<radialGradient id="paint45_radial_1095_516" cx="0" cy="0" r="1" gradientUnits="userSpaceOnUse" gradientTransform="translate(1395.14 689.515) rotate(85.3036) scale(22.3786)">
<stop stop-color="#F1F1F1"/>
<stop offset="1" stop-color="#FAFAFA"/>
</radialGradient>
<radialGradient id="paint46_radial_1095_516" cx="0" cy="0" r="1" gradientUnits="userSpaceOnUse" gradientTransform="translate(1438.62 689.514) rotate(85.3036) scale(22.3786)">
<stop stop-color="#F1F1F1"/>
<stop offset="1" stop-color="#FAFAFA"/>
</radialGradient>
<radialGradient id="paint47_radial_1095_516" cx="0" cy="0" r="1" gradientUnits="userSpaceOnUse" gradientTransform="translate(1482.11 689.514) rotate(85.3036) scale(22.3786)">
<stop stop-color="#F1F1F1"/>
<stop offset="1" stop-color="#FAFAFA"/>
</radialGradient>
<radialGradient id="paint48_radial_1095_516" cx="0" cy="0" r="1" gradientUnits="userSpaceOnUse" gradientTransform="translate(1525.6 689.514) rotate(85.3036) scale(22.3786)">
<stop stop-color="#F1F1F1"/>
<stop offset="1" stop-color="#FAFAFA"/>
</radialGradient>
<radialGradient id="paint49_radial_1095_516" cx="0" cy="0" r="1" gradientUnits="userSpaceOnUse" gradientTransform="translate(1569.08 689.514) rotate(85.3036) scale(22.3786)">
<stop stop-color="#F1F1F1"/>
<stop offset="1" stop-color="#FAFAFA"/>
</radialGradient>
<radialGradient id="paint50_radial_1095_516" cx="0" cy="0" r="1" gradientUnits="userSpaceOnUse" gradientTransform="translate(1346.38 1800.71) rotate(85.3036) scale(619.825)">
<stop stop-color="#DADADA"/>
<stop offset="1" stop-color="#FAFAFA"/>
</radialGradient>
<radialGradient id="paint51_radial_1095_516" cx="0" cy="0" r="1" gradientUnits="userSpaceOnUse" gradientTransform="translate(141.819 1637.85) rotate(85.3036) scale(361.91)">
<stop stop-color="#DADADA"/>
<stop offset="1" stop-color="#FAFAFA"/>
</radialGradient>
</defs>
</svg>
