<svg width="1362" height="387" viewBox="0 0 1362 387" fill="none" xmlns="http://www.w3.org/2000/svg">
<rect x="0.0507812" y="176.533" width="20.553" height="20.553" rx="4.60437" transform="rotate(-45 0.0507812 176.533)" fill="url(#paint0_radial_615_992)" fill-opacity="0.6"/>
<rect x="38.3281" y="176.533" width="20.553" height="20.553" rx="4.60437" transform="rotate(-45 38.3281 176.533)" fill="url(#paint1_radial_615_992)" fill-opacity="0.6"/>
<rect x="76.6016" y="176.533" width="20.553" height="20.553" rx="4.60437" transform="rotate(-45 76.6016 176.533)" fill="url(#paint2_radial_615_992)" fill-opacity="0.6"/>
<rect x="114.879" y="176.533" width="20.553" height="20.553" rx="4.60437" transform="rotate(-45 114.879 176.533)" fill="url(#paint3_radial_615_992)" fill-opacity="0.6"/>
<rect x="153.156" y="176.533" width="20.553" height="20.553" rx="4.60437" transform="rotate(-45 153.156 176.533)" fill="url(#paint4_radial_615_992)" fill-opacity="0.6"/>
<rect x="191.43" y="176.533" width="20.553" height="20.553" rx="4.60437" transform="rotate(-45 191.43 176.533)" fill="url(#paint5_radial_615_992)" fill-opacity="0.6"/>
<rect x="229.707" y="176.533" width="20.553" height="20.553" rx="4.60437" transform="rotate(-45 229.707 176.533)" fill="url(#paint6_radial_615_992)" fill-opacity="0.6"/>
<rect x="267.984" y="176.533" width="20.553" height="20.553" rx="4.60437" transform="rotate(-45 267.984 176.533)" fill="url(#paint7_radial_615_992)" fill-opacity="0.6"/>
<rect x="0.0507812" y="254.808" width="20.553" height="20.553" rx="4.60437" transform="rotate(-45 0.0507812 254.808)" fill="url(#paint8_radial_615_992)" fill-opacity="0.6"/>
<rect x="38.3281" y="254.808" width="20.553" height="20.553" rx="4.60437" transform="rotate(-45 38.3281 254.808)" fill="url(#paint9_radial_615_992)" fill-opacity="0.6"/>
<rect x="76.6016" y="254.808" width="20.553" height="20.553" rx="4.60437" transform="rotate(-45 76.6016 254.808)" fill="url(#paint10_radial_615_992)" fill-opacity="0.6"/>
<rect x="114.879" y="254.808" width="20.553" height="20.553" rx="4.60437" transform="rotate(-45 114.879 254.808)" fill="url(#paint11_radial_615_992)" fill-opacity="0.6"/>
<rect x="153.156" y="254.808" width="20.553" height="20.553" rx="4.60437" transform="rotate(-45 153.156 254.808)" fill="url(#paint12_radial_615_992)" fill-opacity="0.6"/>
<rect x="191.43" y="254.808" width="20.553" height="20.553" rx="4.60437" transform="rotate(-45 191.43 254.808)" fill="url(#paint13_radial_615_992)" fill-opacity="0.6"/>
<rect x="229.707" y="254.808" width="20.553" height="20.553" rx="4.60437" transform="rotate(-45 229.707 254.808)" fill="url(#paint14_radial_615_992)" fill-opacity="0.6"/>
<rect x="267.984" y="254.808" width="20.553" height="20.553" rx="4.60437" transform="rotate(-45 267.984 254.808)" fill="url(#paint15_radial_615_992)" fill-opacity="0.6"/>
<rect x="0.0507812" y="333.082" width="20.553" height="20.553" rx="4.60437" transform="rotate(-45 0.0507812 333.082)" fill="url(#paint16_radial_615_992)" fill-opacity="0.6"/>
<rect x="38.3281" y="333.082" width="20.553" height="20.553" rx="4.60437" transform="rotate(-45 38.3281 333.082)" fill="url(#paint17_radial_615_992)" fill-opacity="0.6"/>
<rect x="76.6016" y="333.082" width="20.553" height="20.553" rx="4.60437" transform="rotate(-45 76.6016 333.082)" fill="url(#paint18_radial_615_992)" fill-opacity="0.6"/>
<rect x="114.879" y="333.082" width="20.553" height="20.553" rx="4.60437" transform="rotate(-45 114.879 333.082)" fill="url(#paint19_radial_615_992)" fill-opacity="0.6"/>
<rect x="153.156" y="333.082" width="20.553" height="20.553" rx="4.60437" transform="rotate(-45 153.156 333.082)" fill="url(#paint20_radial_615_992)" fill-opacity="0.6"/>
<rect x="191.43" y="333.082" width="20.553" height="20.553" rx="4.60437" transform="rotate(-45 191.43 333.082)" fill="url(#paint21_radial_615_992)" fill-opacity="0.6"/>
<rect x="229.707" y="333.082" width="20.553" height="20.553" rx="4.60437" transform="rotate(-45 229.707 333.082)" fill="url(#paint22_radial_615_992)" fill-opacity="0.6"/>
<rect x="267.984" y="333.082" width="20.553" height="20.553" rx="4.60437" transform="rotate(-45 267.984 333.082)" fill="url(#paint23_radial_615_992)" fill-opacity="0.6"/>
<rect x="0.0507812" y="215.671" width="20.553" height="20.553" rx="4.60437" transform="rotate(-45 0.0507812 215.671)" fill="url(#paint24_radial_615_992)" fill-opacity="0.6"/>
<rect x="38.3281" y="215.671" width="20.553" height="20.553" rx="4.60437" transform="rotate(-45 38.3281 215.671)" fill="url(#paint25_radial_615_992)" fill-opacity="0.6"/>
<rect x="76.6016" y="215.671" width="20.553" height="20.553" rx="4.60437" transform="rotate(-45 76.6016 215.671)" fill="url(#paint26_radial_615_992)" fill-opacity="0.6"/>
<rect x="114.879" y="215.671" width="20.553" height="20.553" rx="4.60437" transform="rotate(-45 114.879 215.671)" fill="url(#paint27_radial_615_992)" fill-opacity="0.6"/>
<rect x="153.156" y="215.671" width="20.553" height="20.553" rx="4.60437" transform="rotate(-45 153.156 215.671)" fill="url(#paint28_radial_615_992)" fill-opacity="0.6"/>
<rect x="191.43" y="215.671" width="20.553" height="20.553" rx="4.60437" transform="rotate(-45 191.43 215.671)" fill="url(#paint29_radial_615_992)" fill-opacity="0.6"/>
<rect x="229.707" y="215.671" width="20.553" height="20.553" rx="4.60437" transform="rotate(-45 229.707 215.671)" fill="url(#paint30_radial_615_992)" fill-opacity="0.6"/>
<rect x="267.984" y="215.671" width="20.553" height="20.553" rx="4.60437" transform="rotate(-45 267.984 215.671)" fill="url(#paint31_radial_615_992)" fill-opacity="0.6"/>
<rect x="0.0507812" y="293.945" width="20.553" height="20.553" rx="4.60437" transform="rotate(-45 0.0507812 293.945)" fill="url(#paint32_radial_615_992)" fill-opacity="0.6"/>
<rect x="38.3281" y="293.945" width="20.553" height="20.553" rx="4.60437" transform="rotate(-45 38.3281 293.945)" fill="url(#paint33_radial_615_992)" fill-opacity="0.6"/>
<rect x="76.6016" y="293.945" width="20.553" height="20.553" rx="4.60437" transform="rotate(-45 76.6016 293.945)" fill="url(#paint34_radial_615_992)" fill-opacity="0.6"/>
<rect x="114.879" y="293.945" width="20.553" height="20.553" rx="4.60437" transform="rotate(-45 114.879 293.945)" fill="url(#paint35_radial_615_992)" fill-opacity="0.6"/>
<rect x="153.156" y="293.945" width="20.553" height="20.553" rx="4.60437" transform="rotate(-45 153.156 293.945)" fill="url(#paint36_radial_615_992)" fill-opacity="0.6"/>
<rect x="191.43" y="293.945" width="20.553" height="20.553" rx="4.60437" transform="rotate(-45 191.43 293.945)" fill="url(#paint37_radial_615_992)" fill-opacity="0.6"/>
<rect x="229.707" y="293.945" width="20.553" height="20.553" rx="4.60437" transform="rotate(-45 229.707 293.945)" fill="url(#paint38_radial_615_992)" fill-opacity="0.6"/>
<rect x="267.984" y="293.945" width="20.553" height="20.553" rx="4.60437" transform="rotate(-45 267.984 293.945)" fill="url(#paint39_radial_615_992)" fill-opacity="0.6"/>
<rect x="0.0507812" y="372.219" width="20.553" height="20.553" rx="4.60437" transform="rotate(-45 0.0507812 372.219)" fill="url(#paint40_radial_615_992)" fill-opacity="0.6"/>
<rect x="38.3281" y="372.219" width="20.553" height="20.553" rx="4.60437" transform="rotate(-45 38.3281 372.219)" fill="url(#paint41_radial_615_992)" fill-opacity="0.6"/>
<rect x="76.6016" y="372.219" width="20.553" height="20.553" rx="4.60437" transform="rotate(-45 76.6016 372.219)" fill="url(#paint42_radial_615_992)" fill-opacity="0.6"/>
<rect x="114.879" y="372.219" width="20.553" height="20.553" rx="4.60437" transform="rotate(-45 114.879 372.219)" fill="url(#paint43_radial_615_992)" fill-opacity="0.6"/>
<rect x="153.156" y="372.219" width="20.553" height="20.553" rx="4.60437" transform="rotate(-45 153.156 372.219)" fill="url(#paint44_radial_615_992)" fill-opacity="0.6"/>
<rect x="191.43" y="372.219" width="20.553" height="20.553" rx="4.60437" transform="rotate(-45 191.43 372.219)" fill="url(#paint45_radial_615_992)" fill-opacity="0.6"/>
<rect x="229.707" y="372.219" width="20.553" height="20.553" rx="4.60437" transform="rotate(-45 229.707 372.219)" fill="url(#paint46_radial_615_992)" fill-opacity="0.6"/>
<rect x="267.984" y="372.219" width="20.553" height="20.553" rx="4.60437" transform="rotate(-45 267.984 372.219)" fill="url(#paint47_radial_615_992)" fill-opacity="0.6"/>
<rect x="1108.05" y="12.4153" width="17.5579" height="17.5579" rx="3.9334" transform="rotate(-45 1108.05 12.4153)" fill="url(#paint48_radial_615_992)" fill-opacity="0.6"/>
<rect x="1140.75" y="12.4153" width="17.5579" height="17.5579" rx="3.9334" transform="rotate(-45 1140.75 12.4153)" fill="url(#paint49_radial_615_992)" fill-opacity="0.6"/>
<rect x="1173.45" y="12.4153" width="17.5579" height="17.5579" rx="3.9334" transform="rotate(-45 1173.45 12.4153)" fill="url(#paint50_radial_615_992)" fill-opacity="0.6"/>
<rect x="1206.14" y="12.4153" width="17.5579" height="17.5579" rx="3.9334" transform="rotate(-45 1206.14 12.4153)" fill="url(#paint51_radial_615_992)" fill-opacity="0.6"/>
<rect x="1238.85" y="12.4153" width="17.5579" height="17.5579" rx="3.9334" transform="rotate(-45 1238.85 12.4153)" fill="url(#paint52_radial_615_992)" fill-opacity="0.6"/>
<rect x="1271.54" y="12.4153" width="17.5579" height="17.5579" rx="3.9334" transform="rotate(-45 1271.54 12.4153)" fill="url(#paint53_radial_615_992)" fill-opacity="0.6"/>
<rect x="1304.24" y="12.4153" width="17.5579" height="17.5579" rx="3.9334" transform="rotate(-45 1304.24 12.4153)" fill="url(#paint54_radial_615_992)" fill-opacity="0.6"/>
<rect x="1336.94" y="12.4153" width="17.5579" height="17.5579" rx="3.9334" transform="rotate(-45 1336.94 12.4153)" fill="url(#paint55_radial_615_992)" fill-opacity="0.6"/>
<rect x="1108.05" y="79.2832" width="17.5579" height="17.5579" rx="3.9334" transform="rotate(-45 1108.05 79.2832)" fill="url(#paint56_radial_615_992)" fill-opacity="0.6"/>
<rect x="1140.75" y="79.2832" width="17.5579" height="17.5579" rx="3.9334" transform="rotate(-45 1140.75 79.2832)" fill="url(#paint57_radial_615_992)" fill-opacity="0.6"/>
<rect x="1173.45" y="79.2832" width="17.5579" height="17.5579" rx="3.9334" transform="rotate(-45 1173.45 79.2832)" fill="url(#paint58_radial_615_992)" fill-opacity="0.6"/>
<rect x="1206.14" y="79.2832" width="17.5579" height="17.5579" rx="3.9334" transform="rotate(-45 1206.14 79.2832)" fill="url(#paint59_radial_615_992)" fill-opacity="0.6"/>
<rect x="1238.85" y="79.2832" width="17.5579" height="17.5579" rx="3.9334" transform="rotate(-45 1238.85 79.2832)" fill="url(#paint60_radial_615_992)" fill-opacity="0.6"/>
<rect x="1271.54" y="79.2832" width="17.5579" height="17.5579" rx="3.9334" transform="rotate(-45 1271.54 79.2832)" fill="url(#paint61_radial_615_992)" fill-opacity="0.6"/>
<rect x="1304.24" y="79.2832" width="17.5579" height="17.5579" rx="3.9334" transform="rotate(-45 1304.24 79.2832)" fill="url(#paint62_radial_615_992)" fill-opacity="0.6"/>
<rect x="1336.94" y="79.2832" width="17.5579" height="17.5579" rx="3.9334" transform="rotate(-45 1336.94 79.2832)" fill="url(#paint63_radial_615_992)" fill-opacity="0.6"/>
<rect x="1108.05" y="146.151" width="17.5579" height="17.5579" rx="3.9334" transform="rotate(-45 1108.05 146.151)" fill="url(#paint64_radial_615_992)" fill-opacity="0.6"/>
<rect x="1140.75" y="146.151" width="17.5579" height="17.5579" rx="3.9334" transform="rotate(-45 1140.75 146.151)" fill="url(#paint65_radial_615_992)" fill-opacity="0.6"/>
<rect x="1173.45" y="146.151" width="17.5579" height="17.5579" rx="3.9334" transform="rotate(-45 1173.45 146.151)" fill="url(#paint66_radial_615_992)" fill-opacity="0.6"/>
<rect x="1206.14" y="146.151" width="17.5579" height="17.5579" rx="3.9334" transform="rotate(-45 1206.14 146.151)" fill="url(#paint67_radial_615_992)" fill-opacity="0.6"/>
<rect x="1238.85" y="146.151" width="17.5579" height="17.5579" rx="3.9334" transform="rotate(-45 1238.85 146.151)" fill="url(#paint68_radial_615_992)" fill-opacity="0.6"/>
<rect x="1271.54" y="146.151" width="17.5579" height="17.5579" rx="3.9334" transform="rotate(-45 1271.54 146.151)" fill="url(#paint69_radial_615_992)" fill-opacity="0.6"/>
<rect x="1304.24" y="146.151" width="17.5579" height="17.5579" rx="3.9334" transform="rotate(-45 1304.24 146.151)" fill="url(#paint70_radial_615_992)" fill-opacity="0.6"/>
<rect x="1336.94" y="146.151" width="17.5579" height="17.5579" rx="3.9334" transform="rotate(-45 1336.94 146.151)" fill="url(#paint71_radial_615_992)" fill-opacity="0.6"/>
<rect x="1108.05" y="45.8492" width="17.5579" height="17.5579" rx="3.9334" transform="rotate(-45 1108.05 45.8492)" fill="url(#paint72_radial_615_992)" fill-opacity="0.6"/>
<rect x="1140.75" y="45.8492" width="17.5579" height="17.5579" rx="3.9334" transform="rotate(-45 1140.75 45.8492)" fill="url(#paint73_radial_615_992)" fill-opacity="0.6"/>
<rect x="1173.45" y="45.8492" width="17.5579" height="17.5579" rx="3.9334" transform="rotate(-45 1173.45 45.8492)" fill="url(#paint74_radial_615_992)" fill-opacity="0.6"/>
<rect x="1206.14" y="45.8492" width="17.5579" height="17.5579" rx="3.9334" transform="rotate(-45 1206.14 45.8492)" fill="url(#paint75_radial_615_992)" fill-opacity="0.6"/>
<rect x="1238.85" y="45.8492" width="17.5579" height="17.5579" rx="3.9334" transform="rotate(-45 1238.85 45.8492)" fill="url(#paint76_radial_615_992)" fill-opacity="0.6"/>
<rect x="1271.54" y="45.8492" width="17.5579" height="17.5579" rx="3.9334" transform="rotate(-45 1271.54 45.8492)" fill="url(#paint77_radial_615_992)" fill-opacity="0.6"/>
<rect x="1304.24" y="45.8492" width="17.5579" height="17.5579" rx="3.9334" transform="rotate(-45 1304.24 45.8492)" fill="url(#paint78_radial_615_992)" fill-opacity="0.6"/>
<rect x="1336.94" y="45.8492" width="17.5579" height="17.5579" rx="3.9334" transform="rotate(-45 1336.94 45.8492)" fill="url(#paint79_radial_615_992)" fill-opacity="0.6"/>
<rect x="1108.05" y="112.717" width="17.5579" height="17.5579" rx="3.9334" transform="rotate(-45 1108.05 112.717)" fill="url(#paint80_radial_615_992)" fill-opacity="0.6"/>
<rect x="1140.75" y="112.717" width="17.5579" height="17.5579" rx="3.9334" transform="rotate(-45 1140.75 112.717)" fill="url(#paint81_radial_615_992)" fill-opacity="0.6"/>
<rect x="1173.45" y="112.717" width="17.5579" height="17.5579" rx="3.9334" transform="rotate(-45 1173.45 112.717)" fill="url(#paint82_radial_615_992)" fill-opacity="0.6"/>
<rect x="1206.14" y="112.717" width="17.5579" height="17.5579" rx="3.9334" transform="rotate(-45 1206.14 112.717)" fill="url(#paint83_radial_615_992)" fill-opacity="0.6"/>
<rect x="1238.85" y="112.717" width="17.5579" height="17.5579" rx="3.9334" transform="rotate(-45 1238.85 112.717)" fill="url(#paint84_radial_615_992)" fill-opacity="0.6"/>
<rect x="1271.54" y="112.717" width="17.5579" height="17.5579" rx="3.9334" transform="rotate(-45 1271.54 112.717)" fill="url(#paint85_radial_615_992)" fill-opacity="0.6"/>
<rect x="1304.24" y="112.717" width="17.5579" height="17.5579" rx="3.9334" transform="rotate(-45 1304.24 112.717)" fill="url(#paint86_radial_615_992)" fill-opacity="0.6"/>
<rect x="1336.94" y="112.717" width="17.5579" height="17.5579" rx="3.9334" transform="rotate(-45 1336.94 112.717)" fill="url(#paint87_radial_615_992)" fill-opacity="0.6"/>
<rect x="1108.05" y="179.585" width="17.5579" height="17.5579" rx="3.9334" transform="rotate(-45 1108.05 179.585)" fill="url(#paint88_radial_615_992)" fill-opacity="0.6"/>
<rect x="1140.75" y="179.585" width="17.5579" height="17.5579" rx="3.9334" transform="rotate(-45 1140.75 179.585)" fill="url(#paint89_radial_615_992)" fill-opacity="0.6"/>
<rect x="1173.45" y="179.585" width="17.5579" height="17.5579" rx="3.9334" transform="rotate(-45 1173.45 179.585)" fill="url(#paint90_radial_615_992)" fill-opacity="0.6"/>
<rect x="1206.14" y="179.585" width="17.5579" height="17.5579" rx="3.9334" transform="rotate(-45 1206.14 179.585)" fill="url(#paint91_radial_615_992)" fill-opacity="0.6"/>
<rect x="1238.85" y="179.585" width="17.5579" height="17.5579" rx="3.9334" transform="rotate(-45 1238.85 179.585)" fill="url(#paint92_radial_615_992)" fill-opacity="0.6"/>
<rect x="1271.54" y="179.585" width="17.5579" height="17.5579" rx="3.9334" transform="rotate(-45 1271.54 179.585)" fill="url(#paint93_radial_615_992)" fill-opacity="0.6"/>
<rect x="1304.24" y="179.585" width="17.5579" height="17.5579" rx="3.9334" transform="rotate(-45 1304.24 179.585)" fill="url(#paint94_radial_615_992)" fill-opacity="0.6"/>
<rect x="1336.94" y="179.585" width="17.5579" height="17.5579" rx="3.9334" transform="rotate(-45 1336.94 179.585)" fill="url(#paint95_radial_615_992)" fill-opacity="0.6"/>
<defs>
<radialGradient id="paint0_radial_615_992" cx="0" cy="0" r="1" gradientUnits="userSpaceOnUse" gradientTransform="translate(10.3273 186.81) rotate(85.3036) scale(19.697)">
<stop stop-color="white"/>
<stop offset="1" stop-color="#FAFAFA"/>
</radialGradient>
<radialGradient id="paint1_radial_615_992" cx="0" cy="0" r="1" gradientUnits="userSpaceOnUse" gradientTransform="translate(48.6046 186.81) rotate(85.3036) scale(19.697)">
<stop stop-color="white"/>
<stop offset="1" stop-color="#FAFAFA"/>
</radialGradient>
<radialGradient id="paint2_radial_615_992" cx="0" cy="0" r="1" gradientUnits="userSpaceOnUse" gradientTransform="translate(86.8781 186.81) rotate(85.3036) scale(19.697)">
<stop stop-color="white"/>
<stop offset="1" stop-color="#FAFAFA"/>
</radialGradient>
<radialGradient id="paint3_radial_615_992" cx="0" cy="0" r="1" gradientUnits="userSpaceOnUse" gradientTransform="translate(125.155 186.81) rotate(85.3036) scale(19.697)">
<stop stop-color="white"/>
<stop offset="1" stop-color="#FAFAFA"/>
</radialGradient>
<radialGradient id="paint4_radial_615_992" cx="0" cy="0" r="1" gradientUnits="userSpaceOnUse" gradientTransform="translate(163.433 186.81) rotate(85.3036) scale(19.697)">
<stop stop-color="white"/>
<stop offset="1" stop-color="#FAFAFA"/>
</radialGradient>
<radialGradient id="paint5_radial_615_992" cx="0" cy="0" r="1" gradientUnits="userSpaceOnUse" gradientTransform="translate(201.706 186.81) rotate(85.3036) scale(19.697)">
<stop stop-color="white"/>
<stop offset="1" stop-color="#FAFAFA"/>
</radialGradient>
<radialGradient id="paint6_radial_615_992" cx="0" cy="0" r="1" gradientUnits="userSpaceOnUse" gradientTransform="translate(239.984 186.81) rotate(85.3036) scale(19.697)">
<stop stop-color="white"/>
<stop offset="1" stop-color="#FAFAFA"/>
</radialGradient>
<radialGradient id="paint7_radial_615_992" cx="0" cy="0" r="1" gradientUnits="userSpaceOnUse" gradientTransform="translate(278.261 186.81) rotate(85.3036) scale(19.697)">
<stop stop-color="white"/>
<stop offset="1" stop-color="#FAFAFA"/>
</radialGradient>
<radialGradient id="paint8_radial_615_992" cx="0" cy="0" r="1" gradientUnits="userSpaceOnUse" gradientTransform="translate(10.3273 265.085) rotate(85.3036) scale(19.697)">
<stop stop-color="white"/>
<stop offset="1" stop-color="#FAFAFA"/>
</radialGradient>
<radialGradient id="paint9_radial_615_992" cx="0" cy="0" r="1" gradientUnits="userSpaceOnUse" gradientTransform="translate(48.6046 265.085) rotate(85.3036) scale(19.697)">
<stop stop-color="white"/>
<stop offset="1" stop-color="#FAFAFA"/>
</radialGradient>
<radialGradient id="paint10_radial_615_992" cx="0" cy="0" r="1" gradientUnits="userSpaceOnUse" gradientTransform="translate(86.8781 265.084) rotate(85.3036) scale(19.697)">
<stop stop-color="white"/>
<stop offset="1" stop-color="#FAFAFA"/>
</radialGradient>
<radialGradient id="paint11_radial_615_992" cx="0" cy="0" r="1" gradientUnits="userSpaceOnUse" gradientTransform="translate(125.155 265.085) rotate(85.3036) scale(19.697)">
<stop stop-color="white"/>
<stop offset="1" stop-color="#FAFAFA"/>
</radialGradient>
<radialGradient id="paint12_radial_615_992" cx="0" cy="0" r="1" gradientUnits="userSpaceOnUse" gradientTransform="translate(163.433 265.084) rotate(85.3036) scale(19.697)">
<stop stop-color="white"/>
<stop offset="1" stop-color="#FAFAFA"/>
</radialGradient>
<radialGradient id="paint13_radial_615_992" cx="0" cy="0" r="1" gradientUnits="userSpaceOnUse" gradientTransform="translate(201.706 265.085) rotate(85.3036) scale(19.697)">
<stop stop-color="white"/>
<stop offset="1" stop-color="#FAFAFA"/>
</radialGradient>
<radialGradient id="paint14_radial_615_992" cx="0" cy="0" r="1" gradientUnits="userSpaceOnUse" gradientTransform="translate(239.984 265.085) rotate(85.3036) scale(19.697)">
<stop stop-color="white"/>
<stop offset="1" stop-color="#FAFAFA"/>
</radialGradient>
<radialGradient id="paint15_radial_615_992" cx="0" cy="0" r="1" gradientUnits="userSpaceOnUse" gradientTransform="translate(278.261 265.085) rotate(85.3036) scale(19.697)">
<stop stop-color="white"/>
<stop offset="1" stop-color="#FAFAFA"/>
</radialGradient>
<radialGradient id="paint16_radial_615_992" cx="0" cy="0" r="1" gradientUnits="userSpaceOnUse" gradientTransform="translate(10.3273 343.359) rotate(85.3036) scale(19.697)">
<stop stop-color="white"/>
<stop offset="1" stop-color="#FAFAFA"/>
</radialGradient>
<radialGradient id="paint17_radial_615_992" cx="0" cy="0" r="1" gradientUnits="userSpaceOnUse" gradientTransform="translate(48.6046 343.359) rotate(85.3036) scale(19.697)">
<stop stop-color="white"/>
<stop offset="1" stop-color="#FAFAFA"/>
</radialGradient>
<radialGradient id="paint18_radial_615_992" cx="0" cy="0" r="1" gradientUnits="userSpaceOnUse" gradientTransform="translate(86.8781 343.359) rotate(85.3036) scale(19.697)">
<stop stop-color="white"/>
<stop offset="1" stop-color="#FAFAFA"/>
</radialGradient>
<radialGradient id="paint19_radial_615_992" cx="0" cy="0" r="1" gradientUnits="userSpaceOnUse" gradientTransform="translate(125.155 343.359) rotate(85.3036) scale(19.697)">
<stop stop-color="white"/>
<stop offset="1" stop-color="#FAFAFA"/>
</radialGradient>
<radialGradient id="paint20_radial_615_992" cx="0" cy="0" r="1" gradientUnits="userSpaceOnUse" gradientTransform="translate(163.433 343.359) rotate(85.3036) scale(19.697)">
<stop stop-color="white"/>
<stop offset="1" stop-color="#FAFAFA"/>
</radialGradient>
<radialGradient id="paint21_radial_615_992" cx="0" cy="0" r="1" gradientUnits="userSpaceOnUse" gradientTransform="translate(201.706 343.359) rotate(85.3036) scale(19.697)">
<stop stop-color="white"/>
<stop offset="1" stop-color="#FAFAFA"/>
</radialGradient>
<radialGradient id="paint22_radial_615_992" cx="0" cy="0" r="1" gradientUnits="userSpaceOnUse" gradientTransform="translate(239.984 343.359) rotate(85.3036) scale(19.697)">
<stop stop-color="white"/>
<stop offset="1" stop-color="#FAFAFA"/>
</radialGradient>
<radialGradient id="paint23_radial_615_992" cx="0" cy="0" r="1" gradientUnits="userSpaceOnUse" gradientTransform="translate(278.261 343.359) rotate(85.3036) scale(19.697)">
<stop stop-color="white"/>
<stop offset="1" stop-color="#FAFAFA"/>
</radialGradient>
<radialGradient id="paint24_radial_615_992" cx="0" cy="0" r="1" gradientUnits="userSpaceOnUse" gradientTransform="translate(10.3273 225.947) rotate(85.3036) scale(19.697)">
<stop stop-color="white"/>
<stop offset="1" stop-color="#FAFAFA"/>
</radialGradient>
<radialGradient id="paint25_radial_615_992" cx="0" cy="0" r="1" gradientUnits="userSpaceOnUse" gradientTransform="translate(48.6046 225.947) rotate(85.3036) scale(19.697)">
<stop stop-color="white"/>
<stop offset="1" stop-color="#FAFAFA"/>
</radialGradient>
<radialGradient id="paint26_radial_615_992" cx="0" cy="0" r="1" gradientUnits="userSpaceOnUse" gradientTransform="translate(86.8781 225.947) rotate(85.3036) scale(19.697)">
<stop stop-color="white"/>
<stop offset="1" stop-color="#FAFAFA"/>
</radialGradient>
<radialGradient id="paint27_radial_615_992" cx="0" cy="0" r="1" gradientUnits="userSpaceOnUse" gradientTransform="translate(125.155 225.947) rotate(85.3036) scale(19.697)">
<stop stop-color="white"/>
<stop offset="1" stop-color="#FAFAFA"/>
</radialGradient>
<radialGradient id="paint28_radial_615_992" cx="0" cy="0" r="1" gradientUnits="userSpaceOnUse" gradientTransform="translate(163.433 225.947) rotate(85.3036) scale(19.697)">
<stop stop-color="white"/>
<stop offset="1" stop-color="#FAFAFA"/>
</radialGradient>
<radialGradient id="paint29_radial_615_992" cx="0" cy="0" r="1" gradientUnits="userSpaceOnUse" gradientTransform="translate(201.706 225.947) rotate(85.3036) scale(19.697)">
<stop stop-color="white"/>
<stop offset="1" stop-color="#FAFAFA"/>
</radialGradient>
<radialGradient id="paint30_radial_615_992" cx="0" cy="0" r="1" gradientUnits="userSpaceOnUse" gradientTransform="translate(239.984 225.947) rotate(85.3036) scale(19.697)">
<stop stop-color="white"/>
<stop offset="1" stop-color="#FAFAFA"/>
</radialGradient>
<radialGradient id="paint31_radial_615_992" cx="0" cy="0" r="1" gradientUnits="userSpaceOnUse" gradientTransform="translate(278.261 225.947) rotate(85.3036) scale(19.697)">
<stop stop-color="white"/>
<stop offset="1" stop-color="#FAFAFA"/>
</radialGradient>
<radialGradient id="paint32_radial_615_992" cx="0" cy="0" r="1" gradientUnits="userSpaceOnUse" gradientTransform="translate(10.3273 304.222) rotate(85.3036) scale(19.697)">
<stop stop-color="white"/>
<stop offset="1" stop-color="#FAFAFA"/>
</radialGradient>
<radialGradient id="paint33_radial_615_992" cx="0" cy="0" r="1" gradientUnits="userSpaceOnUse" gradientTransform="translate(48.6046 304.222) rotate(85.3036) scale(19.697)">
<stop stop-color="white"/>
<stop offset="1" stop-color="#FAFAFA"/>
</radialGradient>
<radialGradient id="paint34_radial_615_992" cx="0" cy="0" r="1" gradientUnits="userSpaceOnUse" gradientTransform="translate(86.8781 304.222) rotate(85.3036) scale(19.697)">
<stop stop-color="white"/>
<stop offset="1" stop-color="#FAFAFA"/>
</radialGradient>
<radialGradient id="paint35_radial_615_992" cx="0" cy="0" r="1" gradientUnits="userSpaceOnUse" gradientTransform="translate(125.155 304.222) rotate(85.3036) scale(19.697)">
<stop stop-color="white"/>
<stop offset="1" stop-color="#FAFAFA"/>
</radialGradient>
<radialGradient id="paint36_radial_615_992" cx="0" cy="0" r="1" gradientUnits="userSpaceOnUse" gradientTransform="translate(163.433 304.222) rotate(85.3036) scale(19.697)">
<stop stop-color="white"/>
<stop offset="1" stop-color="#FAFAFA"/>
</radialGradient>
<radialGradient id="paint37_radial_615_992" cx="0" cy="0" r="1" gradientUnits="userSpaceOnUse" gradientTransform="translate(201.706 304.222) rotate(85.3036) scale(19.697)">
<stop stop-color="white"/>
<stop offset="1" stop-color="#FAFAFA"/>
</radialGradient>
<radialGradient id="paint38_radial_615_992" cx="0" cy="0" r="1" gradientUnits="userSpaceOnUse" gradientTransform="translate(239.984 304.222) rotate(85.3036) scale(19.697)">
<stop stop-color="white"/>
<stop offset="1" stop-color="#FAFAFA"/>
</radialGradient>
<radialGradient id="paint39_radial_615_992" cx="0" cy="0" r="1" gradientUnits="userSpaceOnUse" gradientTransform="translate(278.261 304.222) rotate(85.3036) scale(19.697)">
<stop stop-color="white"/>
<stop offset="1" stop-color="#FAFAFA"/>
</radialGradient>
<radialGradient id="paint40_radial_615_992" cx="0" cy="0" r="1" gradientUnits="userSpaceOnUse" gradientTransform="translate(10.3273 382.496) rotate(85.3036) scale(19.697)">
<stop stop-color="white"/>
<stop offset="1" stop-color="#FAFAFA"/>
</radialGradient>
<radialGradient id="paint41_radial_615_992" cx="0" cy="0" r="1" gradientUnits="userSpaceOnUse" gradientTransform="translate(48.6046 382.496) rotate(85.3036) scale(19.697)">
<stop stop-color="white"/>
<stop offset="1" stop-color="#FAFAFA"/>
</radialGradient>
<radialGradient id="paint42_radial_615_992" cx="0" cy="0" r="1" gradientUnits="userSpaceOnUse" gradientTransform="translate(86.8781 382.496) rotate(85.3036) scale(19.697)">
<stop stop-color="white"/>
<stop offset="1" stop-color="#FAFAFA"/>
</radialGradient>
<radialGradient id="paint43_radial_615_992" cx="0" cy="0" r="1" gradientUnits="userSpaceOnUse" gradientTransform="translate(125.155 382.496) rotate(85.3036) scale(19.697)">
<stop stop-color="white"/>
<stop offset="1" stop-color="#FAFAFA"/>
</radialGradient>
<radialGradient id="paint44_radial_615_992" cx="0" cy="0" r="1" gradientUnits="userSpaceOnUse" gradientTransform="translate(163.433 382.496) rotate(85.3036) scale(19.697)">
<stop stop-color="white"/>
<stop offset="1" stop-color="#FAFAFA"/>
</radialGradient>
<radialGradient id="paint45_radial_615_992" cx="0" cy="0" r="1" gradientUnits="userSpaceOnUse" gradientTransform="translate(201.706 382.496) rotate(85.3036) scale(19.697)">
<stop stop-color="white"/>
<stop offset="1" stop-color="#FAFAFA"/>
</radialGradient>
<radialGradient id="paint46_radial_615_992" cx="0" cy="0" r="1" gradientUnits="userSpaceOnUse" gradientTransform="translate(239.984 382.496) rotate(85.3036) scale(19.697)">
<stop stop-color="white"/>
<stop offset="1" stop-color="#FAFAFA"/>
</radialGradient>
<radialGradient id="paint47_radial_615_992" cx="0" cy="0" r="1" gradientUnits="userSpaceOnUse" gradientTransform="translate(278.261 382.496) rotate(85.3036) scale(19.697)">
<stop stop-color="white"/>
<stop offset="1" stop-color="#FAFAFA"/>
</radialGradient>
<radialGradient id="paint48_radial_615_992" cx="0" cy="0" r="1" gradientUnits="userSpaceOnUse" gradientTransform="translate(1116.83 21.1942) rotate(85.3036) scale(16.8266)">
<stop stop-color="white"/>
<stop offset="1" stop-color="#FAFAFA"/>
</radialGradient>
<radialGradient id="paint49_radial_615_992" cx="0" cy="0" r="1" gradientUnits="userSpaceOnUse" gradientTransform="translate(1149.53 21.1942) rotate(85.3036) scale(16.8266)">
<stop stop-color="white"/>
<stop offset="1" stop-color="#FAFAFA"/>
</radialGradient>
<radialGradient id="paint50_radial_615_992" cx="0" cy="0" r="1" gradientUnits="userSpaceOnUse" gradientTransform="translate(1182.23 21.1942) rotate(85.3036) scale(16.8266)">
<stop stop-color="white"/>
<stop offset="1" stop-color="#FAFAFA"/>
</radialGradient>
<radialGradient id="paint51_radial_615_992" cx="0" cy="0" r="1" gradientUnits="userSpaceOnUse" gradientTransform="translate(1214.92 21.1942) rotate(85.3036) scale(16.8266)">
<stop stop-color="white"/>
<stop offset="1" stop-color="#FAFAFA"/>
</radialGradient>
<radialGradient id="paint52_radial_615_992" cx="0" cy="0" r="1" gradientUnits="userSpaceOnUse" gradientTransform="translate(1247.63 21.1942) rotate(85.3036) scale(16.8266)">
<stop stop-color="white"/>
<stop offset="1" stop-color="#FAFAFA"/>
</radialGradient>
<radialGradient id="paint53_radial_615_992" cx="0" cy="0" r="1" gradientUnits="userSpaceOnUse" gradientTransform="translate(1280.32 21.1942) rotate(85.3036) scale(16.8266)">
<stop stop-color="white"/>
<stop offset="1" stop-color="#FAFAFA"/>
</radialGradient>
<radialGradient id="paint54_radial_615_992" cx="0" cy="0" r="1" gradientUnits="userSpaceOnUse" gradientTransform="translate(1313.02 21.1942) rotate(85.3036) scale(16.8266)">
<stop stop-color="white"/>
<stop offset="1" stop-color="#FAFAFA"/>
</radialGradient>
<radialGradient id="paint55_radial_615_992" cx="0" cy="0" r="1" gradientUnits="userSpaceOnUse" gradientTransform="translate(1345.72 21.1942) rotate(85.3036) scale(16.8266)">
<stop stop-color="white"/>
<stop offset="1" stop-color="#FAFAFA"/>
</radialGradient>
<radialGradient id="paint56_radial_615_992" cx="0" cy="0" r="1" gradientUnits="userSpaceOnUse" gradientTransform="translate(1116.83 88.0621) rotate(85.3036) scale(16.8266)">
<stop stop-color="white"/>
<stop offset="1" stop-color="#FAFAFA"/>
</radialGradient>
<radialGradient id="paint57_radial_615_992" cx="0" cy="0" r="1" gradientUnits="userSpaceOnUse" gradientTransform="translate(1149.53 88.0621) rotate(85.3036) scale(16.8266)">
<stop stop-color="white"/>
<stop offset="1" stop-color="#FAFAFA"/>
</radialGradient>
<radialGradient id="paint58_radial_615_992" cx="0" cy="0" r="1" gradientUnits="userSpaceOnUse" gradientTransform="translate(1182.23 88.0621) rotate(85.3036) scale(16.8266)">
<stop stop-color="white"/>
<stop offset="1" stop-color="#FAFAFA"/>
</radialGradient>
<radialGradient id="paint59_radial_615_992" cx="0" cy="0" r="1" gradientUnits="userSpaceOnUse" gradientTransform="translate(1214.92 88.0621) rotate(85.3036) scale(16.8266)">
<stop stop-color="white"/>
<stop offset="1" stop-color="#FAFAFA"/>
</radialGradient>
<radialGradient id="paint60_radial_615_992" cx="0" cy="0" r="1" gradientUnits="userSpaceOnUse" gradientTransform="translate(1247.63 88.0621) rotate(85.3036) scale(16.8266)">
<stop stop-color="white"/>
<stop offset="1" stop-color="#FAFAFA"/>
</radialGradient>
<radialGradient id="paint61_radial_615_992" cx="0" cy="0" r="1" gradientUnits="userSpaceOnUse" gradientTransform="translate(1280.32 88.0621) rotate(85.3036) scale(16.8266)">
<stop stop-color="white"/>
<stop offset="1" stop-color="#FAFAFA"/>
</radialGradient>
<radialGradient id="paint62_radial_615_992" cx="0" cy="0" r="1" gradientUnits="userSpaceOnUse" gradientTransform="translate(1313.02 88.0621) rotate(85.3036) scale(16.8266)">
<stop stop-color="white"/>
<stop offset="1" stop-color="#FAFAFA"/>
</radialGradient>
<radialGradient id="paint63_radial_615_992" cx="0" cy="0" r="1" gradientUnits="userSpaceOnUse" gradientTransform="translate(1345.72 88.0621) rotate(85.3036) scale(16.8266)">
<stop stop-color="white"/>
<stop offset="1" stop-color="#FAFAFA"/>
</radialGradient>
<radialGradient id="paint64_radial_615_992" cx="0" cy="0" r="1" gradientUnits="userSpaceOnUse" gradientTransform="translate(1116.83 154.93) rotate(85.3036) scale(16.8266)">
<stop stop-color="white"/>
<stop offset="1" stop-color="#FAFAFA"/>
</radialGradient>
<radialGradient id="paint65_radial_615_992" cx="0" cy="0" r="1" gradientUnits="userSpaceOnUse" gradientTransform="translate(1149.53 154.93) rotate(85.3036) scale(16.8266)">
<stop stop-color="white"/>
<stop offset="1" stop-color="#FAFAFA"/>
</radialGradient>
<radialGradient id="paint66_radial_615_992" cx="0" cy="0" r="1" gradientUnits="userSpaceOnUse" gradientTransform="translate(1182.23 154.93) rotate(85.3036) scale(16.8266)">
<stop stop-color="white"/>
<stop offset="1" stop-color="#FAFAFA"/>
</radialGradient>
<radialGradient id="paint67_radial_615_992" cx="0" cy="0" r="1" gradientUnits="userSpaceOnUse" gradientTransform="translate(1214.92 154.93) rotate(85.3036) scale(16.8266)">
<stop stop-color="white"/>
<stop offset="1" stop-color="#FAFAFA"/>
</radialGradient>
<radialGradient id="paint68_radial_615_992" cx="0" cy="0" r="1" gradientUnits="userSpaceOnUse" gradientTransform="translate(1247.63 154.93) rotate(85.3036) scale(16.8266)">
<stop stop-color="white"/>
<stop offset="1" stop-color="#FAFAFA"/>
</radialGradient>
<radialGradient id="paint69_radial_615_992" cx="0" cy="0" r="1" gradientUnits="userSpaceOnUse" gradientTransform="translate(1280.32 154.93) rotate(85.3036) scale(16.8266)">
<stop stop-color="white"/>
<stop offset="1" stop-color="#FAFAFA"/>
</radialGradient>
<radialGradient id="paint70_radial_615_992" cx="0" cy="0" r="1" gradientUnits="userSpaceOnUse" gradientTransform="translate(1313.02 154.93) rotate(85.3036) scale(16.8266)">
<stop stop-color="white"/>
<stop offset="1" stop-color="#FAFAFA"/>
</radialGradient>
<radialGradient id="paint71_radial_615_992" cx="0" cy="0" r="1" gradientUnits="userSpaceOnUse" gradientTransform="translate(1345.72 154.93) rotate(85.3036) scale(16.8266)">
<stop stop-color="white"/>
<stop offset="1" stop-color="#FAFAFA"/>
</radialGradient>
<radialGradient id="paint72_radial_615_992" cx="0" cy="0" r="1" gradientUnits="userSpaceOnUse" gradientTransform="translate(1116.83 54.6282) rotate(85.3036) scale(16.8266)">
<stop stop-color="white"/>
<stop offset="1" stop-color="#FAFAFA"/>
</radialGradient>
<radialGradient id="paint73_radial_615_992" cx="0" cy="0" r="1" gradientUnits="userSpaceOnUse" gradientTransform="translate(1149.53 54.6282) rotate(85.3036) scale(16.8266)">
<stop stop-color="white"/>
<stop offset="1" stop-color="#FAFAFA"/>
</radialGradient>
<radialGradient id="paint74_radial_615_992" cx="0" cy="0" r="1" gradientUnits="userSpaceOnUse" gradientTransform="translate(1182.23 54.6282) rotate(85.3036) scale(16.8266)">
<stop stop-color="white"/>
<stop offset="1" stop-color="#FAFAFA"/>
</radialGradient>
<radialGradient id="paint75_radial_615_992" cx="0" cy="0" r="1" gradientUnits="userSpaceOnUse" gradientTransform="translate(1214.92 54.6282) rotate(85.3036) scale(16.8266)">
<stop stop-color="white"/>
<stop offset="1" stop-color="#FAFAFA"/>
</radialGradient>
<radialGradient id="paint76_radial_615_992" cx="0" cy="0" r="1" gradientUnits="userSpaceOnUse" gradientTransform="translate(1247.63 54.6282) rotate(85.3036) scale(16.8266)">
<stop stop-color="white"/>
<stop offset="1" stop-color="#FAFAFA"/>
</radialGradient>
<radialGradient id="paint77_radial_615_992" cx="0" cy="0" r="1" gradientUnits="userSpaceOnUse" gradientTransform="translate(1280.32 54.6282) rotate(85.3036) scale(16.8266)">
<stop stop-color="white"/>
<stop offset="1" stop-color="#FAFAFA"/>
</radialGradient>
<radialGradient id="paint78_radial_615_992" cx="0" cy="0" r="1" gradientUnits="userSpaceOnUse" gradientTransform="translate(1313.02 54.6282) rotate(85.3036) scale(16.8266)">
<stop stop-color="white"/>
<stop offset="1" stop-color="#FAFAFA"/>
</radialGradient>
<radialGradient id="paint79_radial_615_992" cx="0" cy="0" r="1" gradientUnits="userSpaceOnUse" gradientTransform="translate(1345.72 54.6282) rotate(85.3036) scale(16.8266)">
<stop stop-color="white"/>
<stop offset="1" stop-color="#FAFAFA"/>
</radialGradient>
<radialGradient id="paint80_radial_615_992" cx="0" cy="0" r="1" gradientUnits="userSpaceOnUse" gradientTransform="translate(1116.83 121.496) rotate(85.3036) scale(16.8266)">
<stop stop-color="white"/>
<stop offset="1" stop-color="#FAFAFA"/>
</radialGradient>
<radialGradient id="paint81_radial_615_992" cx="0" cy="0" r="1" gradientUnits="userSpaceOnUse" gradientTransform="translate(1149.53 121.496) rotate(85.3036) scale(16.8266)">
<stop stop-color="white"/>
<stop offset="1" stop-color="#FAFAFA"/>
</radialGradient>
<radialGradient id="paint82_radial_615_992" cx="0" cy="0" r="1" gradientUnits="userSpaceOnUse" gradientTransform="translate(1182.23 121.496) rotate(85.3036) scale(16.8266)">
<stop stop-color="white"/>
<stop offset="1" stop-color="#FAFAFA"/>
</radialGradient>
<radialGradient id="paint83_radial_615_992" cx="0" cy="0" r="1" gradientUnits="userSpaceOnUse" gradientTransform="translate(1214.92 121.496) rotate(85.3036) scale(16.8266)">
<stop stop-color="white"/>
<stop offset="1" stop-color="#FAFAFA"/>
</radialGradient>
<radialGradient id="paint84_radial_615_992" cx="0" cy="0" r="1" gradientUnits="userSpaceOnUse" gradientTransform="translate(1247.63 121.496) rotate(85.3036) scale(16.8266)">
<stop stop-color="white"/>
<stop offset="1" stop-color="#FAFAFA"/>
</radialGradient>
<radialGradient id="paint85_radial_615_992" cx="0" cy="0" r="1" gradientUnits="userSpaceOnUse" gradientTransform="translate(1280.32 121.496) rotate(85.3036) scale(16.8266)">
<stop stop-color="white"/>
<stop offset="1" stop-color="#FAFAFA"/>
</radialGradient>
<radialGradient id="paint86_radial_615_992" cx="0" cy="0" r="1" gradientUnits="userSpaceOnUse" gradientTransform="translate(1313.02 121.496) rotate(85.3036) scale(16.8266)">
<stop stop-color="white"/>
<stop offset="1" stop-color="#FAFAFA"/>
</radialGradient>
<radialGradient id="paint87_radial_615_992" cx="0" cy="0" r="1" gradientUnits="userSpaceOnUse" gradientTransform="translate(1345.72 121.496) rotate(85.3036) scale(16.8266)">
<stop stop-color="white"/>
<stop offset="1" stop-color="#FAFAFA"/>
</radialGradient>
<radialGradient id="paint88_radial_615_992" cx="0" cy="0" r="1" gradientUnits="userSpaceOnUse" gradientTransform="translate(1116.83 188.364) rotate(85.3036) scale(16.8266)">
<stop stop-color="white"/>
<stop offset="1" stop-color="#FAFAFA"/>
</radialGradient>
<radialGradient id="paint89_radial_615_992" cx="0" cy="0" r="1" gradientUnits="userSpaceOnUse" gradientTransform="translate(1149.53 188.364) rotate(85.3036) scale(16.8266)">
<stop stop-color="white"/>
<stop offset="1" stop-color="#FAFAFA"/>
</radialGradient>
<radialGradient id="paint90_radial_615_992" cx="0" cy="0" r="1" gradientUnits="userSpaceOnUse" gradientTransform="translate(1182.23 188.364) rotate(85.3036) scale(16.8266)">
<stop stop-color="white"/>
<stop offset="1" stop-color="#FAFAFA"/>
</radialGradient>
<radialGradient id="paint91_radial_615_992" cx="0" cy="0" r="1" gradientUnits="userSpaceOnUse" gradientTransform="translate(1214.92 188.364) rotate(85.3036) scale(16.8266)">
<stop stop-color="white"/>
<stop offset="1" stop-color="#FAFAFA"/>
</radialGradient>
<radialGradient id="paint92_radial_615_992" cx="0" cy="0" r="1" gradientUnits="userSpaceOnUse" gradientTransform="translate(1247.63 188.364) rotate(85.3036) scale(16.8266)">
<stop stop-color="white"/>
<stop offset="1" stop-color="#FAFAFA"/>
</radialGradient>
<radialGradient id="paint93_radial_615_992" cx="0" cy="0" r="1" gradientUnits="userSpaceOnUse" gradientTransform="translate(1280.32 188.364) rotate(85.3036) scale(16.8266)">
<stop stop-color="white"/>
<stop offset="1" stop-color="#FAFAFA"/>
</radialGradient>
<radialGradient id="paint94_radial_615_992" cx="0" cy="0" r="1" gradientUnits="userSpaceOnUse" gradientTransform="translate(1313.02 188.364) rotate(85.3036) scale(16.8266)">
<stop stop-color="white"/>
<stop offset="1" stop-color="#FAFAFA"/>
</radialGradient>
<radialGradient id="paint95_radial_615_992" cx="0" cy="0" r="1" gradientUnits="userSpaceOnUse" gradientTransform="translate(1345.72 188.364) rotate(85.3036) scale(16.8266)">
<stop stop-color="white"/>
<stop offset="1" stop-color="#FAFAFA"/>
</radialGradient>
</defs>
</svg>
