<svg width="263" height="201" viewBox="0 0 263 201" fill="none" xmlns="http://www.w3.org/2000/svg">
<rect width="18.2449" height="18.2449" rx="4" transform="matrix(0.705332 -0.708877 0.705332 0.708877 0 12.9333)" fill="url(#paint0_radial_1312_4084)" fill-opacity="0.6"/>
<rect width="18.2449" height="18.2449" rx="4" transform="matrix(0.705374 -0.708835 0.705374 0.708835 33.8945 12.9333)" fill="url(#paint1_radial_1312_4084)" fill-opacity="0.6"/>
<rect width="18.2449" height="18.2449" rx="4" transform="matrix(0.705374 -0.708835 0.705374 0.708835 67.7871 12.9333)" fill="url(#paint2_radial_1312_4084)" fill-opacity="0.6"/>
<rect width="18.2449" height="18.2449" rx="4" transform="matrix(0.705374 -0.708835 0.705374 0.708835 101.68 12.9333)" fill="url(#paint3_radial_1312_4084)" fill-opacity="0.6"/>
<rect width="18.2449" height="18.2449" rx="4" transform="matrix(0.705374 -0.708835 0.705374 0.708835 135.58 12.9333)" fill="url(#paint4_radial_1312_4084)" fill-opacity="0.6"/>
<rect width="18.2449" height="18.2449" rx="4" transform="matrix(0.705374 -0.708835 0.705374 0.708835 169.467 12.9333)" fill="url(#paint5_radial_1312_4084)" fill-opacity="0.6"/>
<rect width="18.2449" height="18.2449" rx="4" transform="matrix(0.705374 -0.708835 0.705374 0.708835 203.367 12.9333)" fill="url(#paint6_radial_1312_4084)" fill-opacity="0.6"/>
<rect width="18.2449" height="18.2449" rx="4" transform="matrix(0.705374 -0.708835 0.705374 0.708835 237.262 12.9333)" fill="url(#paint7_radial_1312_4084)" fill-opacity="0.6"/>
<rect width="18.2449" height="18.2449" rx="4" transform="matrix(0.705332 -0.708877 0.705332 0.708877 0 82.5874)" fill="url(#paint8_radial_1312_4084)" fill-opacity="0.6"/>
<rect width="18.2449" height="18.2449" rx="4" transform="matrix(0.705374 -0.708835 0.705374 0.708835 33.8945 82.5874)" fill="url(#paint9_radial_1312_4084)" fill-opacity="0.6"/>
<rect width="18.2449" height="18.2449" rx="4" transform="matrix(0.705374 -0.708835 0.705374 0.708835 67.7871 82.5874)" fill="url(#paint10_radial_1312_4084)" fill-opacity="0.6"/>
<rect width="18.2449" height="18.2449" rx="4" transform="matrix(0.705374 -0.708835 0.705374 0.708835 101.68 82.5874)" fill="url(#paint11_radial_1312_4084)" fill-opacity="0.6"/>
<rect width="18.2449" height="18.2449" rx="4" transform="matrix(0.705374 -0.708835 0.705374 0.708835 135.58 82.5874)" fill="url(#paint12_radial_1312_4084)" fill-opacity="0.6"/>
<rect width="18.2449" height="18.2449" rx="4" transform="matrix(0.705374 -0.708835 0.705374 0.708835 169.467 82.5874)" fill="url(#paint13_radial_1312_4084)" fill-opacity="0.6"/>
<rect width="18.2449" height="18.2449" rx="4" transform="matrix(0.705374 -0.708835 0.705374 0.708835 203.367 82.5874)" fill="url(#paint14_radial_1312_4084)" fill-opacity="0.6"/>
<rect width="18.2449" height="18.2449" rx="4" transform="matrix(0.705374 -0.708835 0.705374 0.708835 237.262 82.5874)" fill="url(#paint15_radial_1312_4084)" fill-opacity="0.6"/>
<rect width="18.2449" height="18.2449" rx="4" transform="matrix(0.705332 -0.708877 0.705332 0.708877 0 152.24)" fill="url(#paint16_radial_1312_4084)" fill-opacity="0.6"/>
<rect width="18.2449" height="18.2449" rx="4" transform="matrix(0.705374 -0.708835 0.705374 0.708835 33.8945 152.24)" fill="url(#paint17_radial_1312_4084)" fill-opacity="0.6"/>
<rect width="18.2449" height="18.2449" rx="4" transform="matrix(0.705374 -0.708835 0.705374 0.708835 67.7871 152.24)" fill="url(#paint18_radial_1312_4084)" fill-opacity="0.6"/>
<rect width="18.2449" height="18.2449" rx="4" transform="matrix(0.705374 -0.708835 0.705374 0.708835 101.68 152.24)" fill="url(#paint19_radial_1312_4084)" fill-opacity="0.6"/>
<rect width="18.2449" height="18.2449" rx="4" transform="matrix(0.705374 -0.708835 0.705374 0.708835 135.58 152.24)" fill="url(#paint20_radial_1312_4084)" fill-opacity="0.6"/>
<rect width="18.2449" height="18.2449" rx="4" transform="matrix(0.705374 -0.708835 0.705374 0.708835 169.467 152.24)" fill="url(#paint21_radial_1312_4084)" fill-opacity="0.6"/>
<rect width="18.2449" height="18.2449" rx="4" transform="matrix(0.705374 -0.708835 0.705374 0.708835 203.367 152.24)" fill="url(#paint22_radial_1312_4084)" fill-opacity="0.6"/>
<rect width="18.2449" height="18.2449" rx="4" transform="matrix(0.705374 -0.708835 0.705374 0.708835 237.262 152.24)" fill="url(#paint23_radial_1312_4084)" fill-opacity="0.6"/>
<rect width="18.2449" height="18.2449" rx="4" transform="matrix(0.705332 -0.708877 0.705332 0.708877 0 47.761)" fill="url(#paint24_radial_1312_4084)" fill-opacity="0.6"/>
<rect width="18.2449" height="18.2449" rx="4" transform="matrix(0.705374 -0.708835 0.705374 0.708835 33.8945 47.761)" fill="url(#paint25_radial_1312_4084)" fill-opacity="0.6"/>
<rect width="18.2449" height="18.2449" rx="4" transform="matrix(0.705374 -0.708835 0.705374 0.708835 67.7871 47.761)" fill="url(#paint26_radial_1312_4084)" fill-opacity="0.6"/>
<rect width="18.2449" height="18.2449" rx="4" transform="matrix(0.705374 -0.708835 0.705374 0.708835 101.68 47.761)" fill="url(#paint27_radial_1312_4084)" fill-opacity="0.6"/>
<rect width="18.2449" height="18.2449" rx="4" transform="matrix(0.705374 -0.708835 0.705374 0.708835 135.58 47.761)" fill="url(#paint28_radial_1312_4084)" fill-opacity="0.6"/>
<rect width="18.2449" height="18.2449" rx="4" transform="matrix(0.705374 -0.708835 0.705374 0.708835 169.467 47.761)" fill="url(#paint29_radial_1312_4084)" fill-opacity="0.6"/>
<rect width="18.2449" height="18.2449" rx="4" transform="matrix(0.705374 -0.708835 0.705374 0.708835 203.367 47.761)" fill="url(#paint30_radial_1312_4084)" fill-opacity="0.6"/>
<rect width="18.2449" height="18.2449" rx="4" transform="matrix(0.705374 -0.708835 0.705374 0.708835 237.262 47.761)" fill="url(#paint31_radial_1312_4084)" fill-opacity="0.6"/>
<rect width="18.2449" height="18.2449" rx="4" transform="matrix(0.705332 -0.708877 0.705332 0.708877 0 117.414)" fill="url(#paint32_radial_1312_4084)" fill-opacity="0.6"/>
<rect width="18.2449" height="18.2449" rx="4" transform="matrix(0.705374 -0.708835 0.705374 0.708835 33.8945 117.414)" fill="url(#paint33_radial_1312_4084)" fill-opacity="0.6"/>
<rect width="18.2449" height="18.2449" rx="4" transform="matrix(0.705374 -0.708835 0.705374 0.708835 67.7871 117.414)" fill="url(#paint34_radial_1312_4084)" fill-opacity="0.6"/>
<rect width="18.2449" height="18.2449" rx="4" transform="matrix(0.705374 -0.708835 0.705374 0.708835 101.68 117.414)" fill="url(#paint35_radial_1312_4084)" fill-opacity="0.6"/>
<rect width="18.2449" height="18.2449" rx="4" transform="matrix(0.705374 -0.708835 0.705374 0.708835 135.58 117.414)" fill="url(#paint36_radial_1312_4084)" fill-opacity="0.6"/>
<rect width="18.2449" height="18.2449" rx="4" transform="matrix(0.705374 -0.708835 0.705374 0.708835 169.467 117.414)" fill="url(#paint37_radial_1312_4084)" fill-opacity="0.6"/>
<rect width="18.2449" height="18.2449" rx="4" transform="matrix(0.705374 -0.708835 0.705374 0.708835 203.367 117.414)" fill="url(#paint38_radial_1312_4084)" fill-opacity="0.6"/>
<rect width="18.2449" height="18.2449" rx="4" transform="matrix(0.705374 -0.708835 0.705374 0.708835 237.262 117.414)" fill="url(#paint39_radial_1312_4084)" fill-opacity="0.6"/>
<rect width="18.2449" height="18.2449" rx="4" transform="matrix(0.705332 -0.708877 0.705332 0.708877 0 187.068)" fill="url(#paint40_radial_1312_4084)" fill-opacity="0.6"/>
<rect width="18.2449" height="18.2449" rx="4" transform="matrix(0.705374 -0.708835 0.705374 0.708835 33.8945 187.068)" fill="url(#paint41_radial_1312_4084)" fill-opacity="0.6"/>
<rect width="18.2449" height="18.2449" rx="4" transform="matrix(0.705374 -0.708835 0.705374 0.708835 67.7871 187.068)" fill="url(#paint42_radial_1312_4084)" fill-opacity="0.6"/>
<rect width="18.2449" height="18.2449" rx="4" transform="matrix(0.705374 -0.708835 0.705374 0.708835 101.68 187.068)" fill="url(#paint43_radial_1312_4084)" fill-opacity="0.6"/>
<rect width="18.2449" height="18.2449" rx="4" transform="matrix(0.705374 -0.708835 0.705374 0.708835 135.58 187.068)" fill="url(#paint44_radial_1312_4084)" fill-opacity="0.6"/>
<rect width="18.2449" height="18.2449" rx="4" transform="matrix(0.705374 -0.708835 0.705374 0.708835 169.467 187.068)" fill="url(#paint45_radial_1312_4084)" fill-opacity="0.6"/>
<rect width="18.2449" height="18.2449" rx="4" transform="matrix(0.705374 -0.708835 0.705374 0.708835 203.367 187.068)" fill="url(#paint46_radial_1312_4084)" fill-opacity="0.6"/>
<rect width="18.2449" height="18.2449" rx="4" transform="matrix(0.705374 -0.708835 0.705374 0.708835 237.262 187.068)" fill="url(#paint47_radial_1312_4084)" fill-opacity="0.6"/>
<defs>
<radialGradient id="paint0_radial_1312_4084" cx="0" cy="0" r="1" gradientUnits="userSpaceOnUse" gradientTransform="translate(9.12244 9.12244) rotate(85.3036) scale(17.485)">
<stop stop-color="white"/>
<stop offset="1" stop-color="#FAFAFA"/>
</radialGradient>
<radialGradient id="paint1_radial_1312_4084" cx="0" cy="0" r="1" gradientUnits="userSpaceOnUse" gradientTransform="translate(9.12244 9.12244) rotate(85.3036) scale(17.485)">
<stop stop-color="white"/>
<stop offset="1" stop-color="#FAFAFA"/>
</radialGradient>
<radialGradient id="paint2_radial_1312_4084" cx="0" cy="0" r="1" gradientUnits="userSpaceOnUse" gradientTransform="translate(9.12244 9.12244) rotate(85.3036) scale(17.485)">
<stop stop-color="white"/>
<stop offset="1" stop-color="#FAFAFA"/>
</radialGradient>
<radialGradient id="paint3_radial_1312_4084" cx="0" cy="0" r="1" gradientUnits="userSpaceOnUse" gradientTransform="translate(9.12244 9.12244) rotate(85.3036) scale(17.485)">
<stop stop-color="white"/>
<stop offset="1" stop-color="#FAFAFA"/>
</radialGradient>
<radialGradient id="paint4_radial_1312_4084" cx="0" cy="0" r="1" gradientUnits="userSpaceOnUse" gradientTransform="translate(9.12244 9.12244) rotate(85.3036) scale(17.485)">
<stop stop-color="white"/>
<stop offset="1" stop-color="#FAFAFA"/>
</radialGradient>
<radialGradient id="paint5_radial_1312_4084" cx="0" cy="0" r="1" gradientUnits="userSpaceOnUse" gradientTransform="translate(9.12244 9.12244) rotate(85.3036) scale(17.485)">
<stop stop-color="white"/>
<stop offset="1" stop-color="#FAFAFA"/>
</radialGradient>
<radialGradient id="paint6_radial_1312_4084" cx="0" cy="0" r="1" gradientUnits="userSpaceOnUse" gradientTransform="translate(9.12244 9.12244) rotate(85.3036) scale(17.485)">
<stop stop-color="white"/>
<stop offset="1" stop-color="#FAFAFA"/>
</radialGradient>
<radialGradient id="paint7_radial_1312_4084" cx="0" cy="0" r="1" gradientUnits="userSpaceOnUse" gradientTransform="translate(9.12244 9.12244) rotate(85.3036) scale(17.485)">
<stop stop-color="white"/>
<stop offset="1" stop-color="#FAFAFA"/>
</radialGradient>
<radialGradient id="paint8_radial_1312_4084" cx="0" cy="0" r="1" gradientUnits="userSpaceOnUse" gradientTransform="translate(9.12244 9.12244) rotate(85.3036) scale(17.485)">
<stop stop-color="white"/>
<stop offset="1" stop-color="#FAFAFA"/>
</radialGradient>
<radialGradient id="paint9_radial_1312_4084" cx="0" cy="0" r="1" gradientUnits="userSpaceOnUse" gradientTransform="translate(9.12244 9.12244) rotate(85.3036) scale(17.485)">
<stop stop-color="white"/>
<stop offset="1" stop-color="#FAFAFA"/>
</radialGradient>
<radialGradient id="paint10_radial_1312_4084" cx="0" cy="0" r="1" gradientUnits="userSpaceOnUse" gradientTransform="translate(9.12244 9.12244) rotate(85.3036) scale(17.485)">
<stop stop-color="white"/>
<stop offset="1" stop-color="#FAFAFA"/>
</radialGradient>
<radialGradient id="paint11_radial_1312_4084" cx="0" cy="0" r="1" gradientUnits="userSpaceOnUse" gradientTransform="translate(9.12244 9.12244) rotate(85.3036) scale(17.485)">
<stop stop-color="white"/>
<stop offset="1" stop-color="#FAFAFA"/>
</radialGradient>
<radialGradient id="paint12_radial_1312_4084" cx="0" cy="0" r="1" gradientUnits="userSpaceOnUse" gradientTransform="translate(9.12244 9.12244) rotate(85.3036) scale(17.485)">
<stop stop-color="white"/>
<stop offset="1" stop-color="#FAFAFA"/>
</radialGradient>
<radialGradient id="paint13_radial_1312_4084" cx="0" cy="0" r="1" gradientUnits="userSpaceOnUse" gradientTransform="translate(9.12244 9.12244) rotate(85.3036) scale(17.485)">
<stop stop-color="white"/>
<stop offset="1" stop-color="#FAFAFA"/>
</radialGradient>
<radialGradient id="paint14_radial_1312_4084" cx="0" cy="0" r="1" gradientUnits="userSpaceOnUse" gradientTransform="translate(9.12244 9.12244) rotate(85.3036) scale(17.485)">
<stop stop-color="white"/>
<stop offset="1" stop-color="#FAFAFA"/>
</radialGradient>
<radialGradient id="paint15_radial_1312_4084" cx="0" cy="0" r="1" gradientUnits="userSpaceOnUse" gradientTransform="translate(9.12244 9.12244) rotate(85.3036) scale(17.485)">
<stop stop-color="white"/>
<stop offset="1" stop-color="#FAFAFA"/>
</radialGradient>
<radialGradient id="paint16_radial_1312_4084" cx="0" cy="0" r="1" gradientUnits="userSpaceOnUse" gradientTransform="translate(9.12244 9.12244) rotate(85.3036) scale(17.485)">
<stop stop-color="white"/>
<stop offset="1" stop-color="#FAFAFA"/>
</radialGradient>
<radialGradient id="paint17_radial_1312_4084" cx="0" cy="0" r="1" gradientUnits="userSpaceOnUse" gradientTransform="translate(9.12244 9.12244) rotate(85.3036) scale(17.485)">
<stop stop-color="white"/>
<stop offset="1" stop-color="#FAFAFA"/>
</radialGradient>
<radialGradient id="paint18_radial_1312_4084" cx="0" cy="0" r="1" gradientUnits="userSpaceOnUse" gradientTransform="translate(9.12244 9.12244) rotate(85.3036) scale(17.485)">
<stop stop-color="white"/>
<stop offset="1" stop-color="#FAFAFA"/>
</radialGradient>
<radialGradient id="paint19_radial_1312_4084" cx="0" cy="0" r="1" gradientUnits="userSpaceOnUse" gradientTransform="translate(9.12244 9.12244) rotate(85.3036) scale(17.485)">
<stop stop-color="white"/>
<stop offset="1" stop-color="#FAFAFA"/>
</radialGradient>
<radialGradient id="paint20_radial_1312_4084" cx="0" cy="0" r="1" gradientUnits="userSpaceOnUse" gradientTransform="translate(9.12244 9.12244) rotate(85.3036) scale(17.485)">
<stop stop-color="white"/>
<stop offset="1" stop-color="#FAFAFA"/>
</radialGradient>
<radialGradient id="paint21_radial_1312_4084" cx="0" cy="0" r="1" gradientUnits="userSpaceOnUse" gradientTransform="translate(9.12244 9.12244) rotate(85.3036) scale(17.485)">
<stop stop-color="white"/>
<stop offset="1" stop-color="#FAFAFA"/>
</radialGradient>
<radialGradient id="paint22_radial_1312_4084" cx="0" cy="0" r="1" gradientUnits="userSpaceOnUse" gradientTransform="translate(9.12244 9.12244) rotate(85.3036) scale(17.485)">
<stop stop-color="white"/>
<stop offset="1" stop-color="#FAFAFA"/>
</radialGradient>
<radialGradient id="paint23_radial_1312_4084" cx="0" cy="0" r="1" gradientUnits="userSpaceOnUse" gradientTransform="translate(9.12244 9.12244) rotate(85.3036) scale(17.485)">
<stop stop-color="white"/>
<stop offset="1" stop-color="#FAFAFA"/>
</radialGradient>
<radialGradient id="paint24_radial_1312_4084" cx="0" cy="0" r="1" gradientUnits="userSpaceOnUse" gradientTransform="translate(9.12244 9.12244) rotate(85.3036) scale(17.485)">
<stop stop-color="white"/>
<stop offset="1" stop-color="#FAFAFA"/>
</radialGradient>
<radialGradient id="paint25_radial_1312_4084" cx="0" cy="0" r="1" gradientUnits="userSpaceOnUse" gradientTransform="translate(9.12244 9.12244) rotate(85.3036) scale(17.485)">
<stop stop-color="white"/>
<stop offset="1" stop-color="#FAFAFA"/>
</radialGradient>
<radialGradient id="paint26_radial_1312_4084" cx="0" cy="0" r="1" gradientUnits="userSpaceOnUse" gradientTransform="translate(9.12244 9.12244) rotate(85.3036) scale(17.485)">
<stop stop-color="white"/>
<stop offset="1" stop-color="#FAFAFA"/>
</radialGradient>
<radialGradient id="paint27_radial_1312_4084" cx="0" cy="0" r="1" gradientUnits="userSpaceOnUse" gradientTransform="translate(9.12244 9.12244) rotate(85.3036) scale(17.485)">
<stop stop-color="white"/>
<stop offset="1" stop-color="#FAFAFA"/>
</radialGradient>
<radialGradient id="paint28_radial_1312_4084" cx="0" cy="0" r="1" gradientUnits="userSpaceOnUse" gradientTransform="translate(9.12244 9.12244) rotate(85.3036) scale(17.485)">
<stop stop-color="white"/>
<stop offset="1" stop-color="#FAFAFA"/>
</radialGradient>
<radialGradient id="paint29_radial_1312_4084" cx="0" cy="0" r="1" gradientUnits="userSpaceOnUse" gradientTransform="translate(9.12244 9.12244) rotate(85.3036) scale(17.485)">
<stop stop-color="white"/>
<stop offset="1" stop-color="#FAFAFA"/>
</radialGradient>
<radialGradient id="paint30_radial_1312_4084" cx="0" cy="0" r="1" gradientUnits="userSpaceOnUse" gradientTransform="translate(9.12244 9.12244) rotate(85.3036) scale(17.485)">
<stop stop-color="white"/>
<stop offset="1" stop-color="#FAFAFA"/>
</radialGradient>
<radialGradient id="paint31_radial_1312_4084" cx="0" cy="0" r="1" gradientUnits="userSpaceOnUse" gradientTransform="translate(9.12244 9.12244) rotate(85.3036) scale(17.485)">
<stop stop-color="white"/>
<stop offset="1" stop-color="#FAFAFA"/>
</radialGradient>
<radialGradient id="paint32_radial_1312_4084" cx="0" cy="0" r="1" gradientUnits="userSpaceOnUse" gradientTransform="translate(9.12244 9.12244) rotate(85.3036) scale(17.485)">
<stop stop-color="white"/>
<stop offset="1" stop-color="#FAFAFA"/>
</radialGradient>
<radialGradient id="paint33_radial_1312_4084" cx="0" cy="0" r="1" gradientUnits="userSpaceOnUse" gradientTransform="translate(9.12244 9.12244) rotate(85.3036) scale(17.485)">
<stop stop-color="white"/>
<stop offset="1" stop-color="#FAFAFA"/>
</radialGradient>
<radialGradient id="paint34_radial_1312_4084" cx="0" cy="0" r="1" gradientUnits="userSpaceOnUse" gradientTransform="translate(9.12244 9.12244) rotate(85.3036) scale(17.485)">
<stop stop-color="white"/>
<stop offset="1" stop-color="#FAFAFA"/>
</radialGradient>
<radialGradient id="paint35_radial_1312_4084" cx="0" cy="0" r="1" gradientUnits="userSpaceOnUse" gradientTransform="translate(9.12244 9.12244) rotate(85.3036) scale(17.485)">
<stop stop-color="white"/>
<stop offset="1" stop-color="#FAFAFA"/>
</radialGradient>
<radialGradient id="paint36_radial_1312_4084" cx="0" cy="0" r="1" gradientUnits="userSpaceOnUse" gradientTransform="translate(9.12244 9.12244) rotate(85.3036) scale(17.485)">
<stop stop-color="white"/>
<stop offset="1" stop-color="#FAFAFA"/>
</radialGradient>
<radialGradient id="paint37_radial_1312_4084" cx="0" cy="0" r="1" gradientUnits="userSpaceOnUse" gradientTransform="translate(9.12244 9.12244) rotate(85.3036) scale(17.485)">
<stop stop-color="white"/>
<stop offset="1" stop-color="#FAFAFA"/>
</radialGradient>
<radialGradient id="paint38_radial_1312_4084" cx="0" cy="0" r="1" gradientUnits="userSpaceOnUse" gradientTransform="translate(9.12244 9.12244) rotate(85.3036) scale(17.485)">
<stop stop-color="white"/>
<stop offset="1" stop-color="#FAFAFA"/>
</radialGradient>
<radialGradient id="paint39_radial_1312_4084" cx="0" cy="0" r="1" gradientUnits="userSpaceOnUse" gradientTransform="translate(9.12244 9.12244) rotate(85.3036) scale(17.485)">
<stop stop-color="white"/>
<stop offset="1" stop-color="#FAFAFA"/>
</radialGradient>
<radialGradient id="paint40_radial_1312_4084" cx="0" cy="0" r="1" gradientUnits="userSpaceOnUse" gradientTransform="translate(9.12244 9.12244) rotate(85.3036) scale(17.485)">
<stop stop-color="white"/>
<stop offset="1" stop-color="#FAFAFA"/>
</radialGradient>
<radialGradient id="paint41_radial_1312_4084" cx="0" cy="0" r="1" gradientUnits="userSpaceOnUse" gradientTransform="translate(9.12244 9.12244) rotate(85.3036) scale(17.485)">
<stop stop-color="white"/>
<stop offset="1" stop-color="#FAFAFA"/>
</radialGradient>
<radialGradient id="paint42_radial_1312_4084" cx="0" cy="0" r="1" gradientUnits="userSpaceOnUse" gradientTransform="translate(9.12244 9.12244) rotate(85.3036) scale(17.485)">
<stop stop-color="white"/>
<stop offset="1" stop-color="#FAFAFA"/>
</radialGradient>
<radialGradient id="paint43_radial_1312_4084" cx="0" cy="0" r="1" gradientUnits="userSpaceOnUse" gradientTransform="translate(9.12244 9.12244) rotate(85.3036) scale(17.485)">
<stop stop-color="white"/>
<stop offset="1" stop-color="#FAFAFA"/>
</radialGradient>
<radialGradient id="paint44_radial_1312_4084" cx="0" cy="0" r="1" gradientUnits="userSpaceOnUse" gradientTransform="translate(9.12244 9.12244) rotate(85.3036) scale(17.485)">
<stop stop-color="white"/>
<stop offset="1" stop-color="#FAFAFA"/>
</radialGradient>
<radialGradient id="paint45_radial_1312_4084" cx="0" cy="0" r="1" gradientUnits="userSpaceOnUse" gradientTransform="translate(9.12244 9.12244) rotate(85.3036) scale(17.485)">
<stop stop-color="white"/>
<stop offset="1" stop-color="#FAFAFA"/>
</radialGradient>
<radialGradient id="paint46_radial_1312_4084" cx="0" cy="0" r="1" gradientUnits="userSpaceOnUse" gradientTransform="translate(9.12244 9.12244) rotate(85.3036) scale(17.485)">
<stop stop-color="white"/>
<stop offset="1" stop-color="#FAFAFA"/>
</radialGradient>
<radialGradient id="paint47_radial_1312_4084" cx="0" cy="0" r="1" gradientUnits="userSpaceOnUse" gradientTransform="translate(9.12244 9.12244) rotate(85.3036) scale(17.485)">
<stop stop-color="white"/>
<stop offset="1" stop-color="#FAFAFA"/>
</radialGradient>
</defs>
</svg>
