<svg width="133" height="133" viewBox="0 0 133 133" fill="none" xmlns="http://www.w3.org/2000/svg">
<rect x="-4" y="66.9333" width="100.282" height="100.282" rx="11.9999" transform="rotate(-45 -4 66.9333)" fill="url(#paint0_radial_615_992)" fill-opacity="0.8"/>
<path d="M82.7827 58.0097L84.6062 56.3636L82.4609 57.5708C82.4609 57.5708 82.9718 55.7285 83.8554 55.0467C84.9671 54.1889 87.395 54.6077 87.395 54.6077C87.395 54.6077 86.5791 56.5161 85.5716 57.2415C84.6397 57.9125 83.8554 58.0097 82.7827 58.0097Z" fill="#5C5C5C"/>
<path d="M34.8335 67.556L35.3698 67.8852C33.9754 71.5067 32.7401 73.1528 30.1793 73.1528C28.4165 73.1528 26.9412 72.5168 25.7536 71.2448C24.5845 69.9537 24 68.2925 24 66.2611C24 64.1157 24.5753 62.369 25.7258 61.0211C26.8763 59.6731 28.333 58.9991 30.0958 58.9991C31.8773 58.9991 33.2407 59.463 34.3546 60.9356C35.1935 62.0448 35.3698 62.9468 35.3698 64.3734H26.2525C26.2525 65.1139 26.1864 66.3987 26.3598 67.0073C26.7175 68.2634 26.8566 68.7161 27.7542 69.5313C28.6966 70.3873 29.1617 70.7385 30.7575 70.7385C32.5761 70.7385 33.7387 69.6634 34.8335 67.556ZM26.2525 63.4955H29.0413C29.7465 63.4955 32.2592 63.4955 32.2592 63.4955C32.2592 63.4955 32.2878 61.7108 31.7229 60.9356C31.1732 60.1813 30.6046 59.874 29.6849 59.874C28.6123 59.874 27.9461 60.1686 27.2179 60.9356C26.4881 61.7042 26.2525 62.5078 26.2525 63.4955Z" fill="#5C5C5C"/>
<path d="M41.2537 67.5141H42.1722C42.4492 69.6421 42.7981 70.3663 43.5218 71.0688C44.2455 71.7522 44.7644 71.909 45.4525 72.1662C46.2434 72.4617 47.0411 72.3834 47.5978 71.9467C48.173 71.491 48.4348 70.97 48.4607 70.2095C48.4993 69.0715 46.7397 67.8852 46.7397 67.8852L44.4872 66.5693C44.4872 66.5693 42.88 65.7882 42.3419 65.1427C41.8223 64.4972 41.4764 63.9638 41.4764 63.1285C41.4764 61.9893 41.8753 61.0116 42.6733 60.1952C43.4898 59.3598 44.566 58.9421 45.9021 58.9421C47.0526 58.9421 47.9196 59.2166 48.5743 59.5458L49.0474 58.9421H49.5285L49.632 63.4966H49.0995C48.7098 62.2055 48.8944 61.9763 48.2414 61.192C47.5443 60.3549 46.8392 59.9674 45.7629 59.9674C44.8722 59.9674 44.1671 60.1952 43.6475 60.6508C43.1465 61.0875 43.246 61.8504 43.3073 62.2894C43.4145 63.0576 47.5978 65.2524 47.5978 65.2524C47.5978 65.2524 49.1124 66.0149 49.6877 66.6983C50.2629 67.3818 50.5505 68.1887 50.5505 69.119C50.5505 70.3531 50.0959 71.3688 49.1866 72.1662C48.2774 72.9636 47.826 73.0152 46.8469 73.1539C46.0989 73.2598 45.6927 73.0878 44.9162 73.0441C44.0225 72.9939 42.6637 72.6117 42.6637 72.6117L42.1722 73.0441L41.5911 72.925L41.2537 67.5141Z" fill="#5C5C5C"/>
<path d="M67.1196 60.9894V59.9927C69.5866 58.9971 70.3206 58.2289 71.1955 55.0464H71.7123V59.6794H74.8425V60.9894H71.7123V69.5614C71.7123 70.2828 71.8793 70.8524 72.2133 71.2701C72.5474 71.6878 73.1263 71.6175 73.1263 71.6175C73.1263 71.6175 73.7674 71.6126 74.0916 71.398C74.5018 71.1265 74.7352 70.3006 74.7352 70.3006H75.6816C75.6816 70.3006 75.4394 71.4553 75.0064 72.0338C74.24 73.0576 73.4878 73.1884 72.3754 73.1539C71.5208 73.1273 70.9329 72.9693 70.3206 72.3808C69.7082 71.7922 69.402 70.9758 69.402 69.9316V60.9894H67.1196Z" fill="#5C5C5C"/>
<path d="M95.0078 54.0587L94.6861 53.4003L98.7826 51.9333V62.2425C100.156 60.4389 101.733 59.537 103.514 59.537C104.813 59.537 105.825 59.9832 106.549 60.8755C107.272 61.7678 107.634 63.0399 107.634 64.6916V71.0138C107.634 71.7922 108.052 72.1814 108.887 72.1814H110V73.2636H102.958V72.1814H103.765C104.804 72.1814 105.324 71.7922 105.324 71.0138V64.6916C105.324 63.6094 105.064 62.7551 104.544 62.1286C104.043 61.4831 103.347 61.1603 102.457 61.1603C101.492 61.1603 100.638 61.578 99.896 62.4134C99.1537 63.2487 98.7826 64.3024 98.7826 65.5744V70.8714C98.7826 71.365 98.8753 71.7068 99.0609 71.8966C99.2465 72.0865 99.5619 72.1814 100.007 72.1814H101.121V73.2636H94.2733V72.1814H95.0249C96.0083 72.1814 96.5001 71.7447 96.5001 70.8714L96.6168 55.0464C96.6168 55.0464 96.6392 54.1244 96.295 53.8393C95.899 53.5112 95.0078 54.0587 95.0078 54.0587Z" fill="#5C5C5C"/>
<path d="M90.0738 67.556L90.6101 67.8852C89.2157 71.5067 87.9804 73.1528 85.4196 73.1528C83.6567 73.1528 82.1815 72.5168 80.9938 71.2448C79.8248 69.9537 79.2402 68.2925 79.2402 66.2611C79.2402 64.1157 79.8155 62.369 80.966 61.0211C82.1165 59.6731 83.5732 58.9991 85.3361 58.9991C87.1175 58.9991 88.4809 59.463 89.5948 60.9356C90.4338 62.0448 90.6101 62.9468 90.6101 64.3734H81.4928C81.4928 65.1139 81.4267 66.3987 81.6 67.0073C81.9578 68.2634 82.0969 68.7161 82.9944 69.5313C83.9368 70.3873 84.4019 70.7385 85.9978 70.7385C87.8163 70.7385 88.9789 69.6634 90.0738 67.556ZM81.4928 63.4955H84.2816C84.9867 63.4955 87.4995 63.4955 87.4995 63.4955C87.4995 63.4955 87.528 61.7108 86.9632 60.9356C86.4134 60.1813 85.8448 59.874 84.9252 59.874C83.8525 59.874 83.1864 60.1686 82.4581 60.9356C81.7284 61.7042 81.4928 62.5078 81.4928 63.4955Z" fill="#5C5C5C"/>
<ellipse cx="58.9685" cy="66.1305" rx="2.14525" ry="2.19484" fill="#5C5C5C"/>
<path d="M43.3052 77.4447H43.8133V81.8001H43.3052V77.4447Z" fill="#5C5C5C"/>
<path d="M46.8149 77.3813H47.0318L49.6901 80.7794L49.7769 80.9379L49.7707 80.7604L49.7645 77.4383H50.2664V81.8001H50.0062L49.6468 81.4387L47.5337 78.8394L47.2921 78.5098L47.3231 78.9282V81.8001H46.8149V77.3813Z" fill="#5C5C5C"/>
<path d="M54.9201 77.413C55.3043 77.4383 55.6451 77.5482 55.9426 77.7426C56.2441 77.9371 56.4775 78.1991 56.6428 78.5288C56.808 78.8542 56.8906 79.2198 56.8906 79.6256C56.8906 80.0567 56.7977 80.4413 56.6118 80.7794C56.43 81.1175 56.176 81.3817 55.8496 81.5719C55.5233 81.7621 55.1515 81.8572 54.7342 81.8572H54.4244C54.3914 81.8572 54.3191 81.8572 54.2075 81.8572C54.096 81.8572 53.8977 81.8445 53.6127 81.8191L53.2657 81.7874V77.4066L54.9201 77.413ZM54.5359 81.3817C55.1308 81.3817 55.5873 81.2316 55.9054 80.9316C56.2235 80.6315 56.3825 80.2025 56.3825 79.6446C56.3825 79.1205 56.2462 78.7042 55.9735 78.3956C55.705 78.0871 55.3312 77.9202 54.852 77.8948H53.7738V81.35C54.0547 81.3711 54.3087 81.3817 54.5359 81.3817Z" fill="#5C5C5C"/>
<path d="M62.0114 81.9332C61.6024 81.929 61.2348 81.8318 60.9084 81.6416C60.5862 81.4472 60.3321 81.1852 60.1462 80.8555C59.9645 80.5216 59.8736 80.1454 59.8736 79.727V79.5431C59.8736 79.1416 59.9665 78.7739 60.1524 78.44C60.3425 78.1019 60.5986 77.8356 60.9208 77.6412C61.2472 77.4426 61.6024 77.3432 61.9866 77.3432C62.3749 77.3432 62.7302 77.4426 63.0524 77.6412C63.3747 77.8356 63.6308 78.1019 63.8208 78.44C64.0108 78.7739 64.1058 79.1416 64.1058 79.5431V79.727C64.1058 80.1454 64.0129 80.5237 63.827 80.8618C63.6452 81.1999 63.3953 81.4641 63.0772 81.6543C62.7591 81.8445 62.4039 81.9375 62.0114 81.9332ZM61.9928 81.4514C62.2944 81.4514 62.567 81.3775 62.8108 81.2295C63.0545 81.0774 63.2466 80.8703 63.387 80.6082C63.5275 80.3462 63.5977 80.0524 63.5977 79.727V79.5431C63.5977 79.2346 63.5254 78.9493 63.3809 78.6873C63.2363 78.421 63.04 78.2118 62.7922 78.0596C62.5484 77.9033 62.2779 77.8251 61.9804 77.8251C61.6871 77.8251 61.4186 77.9033 61.1749 78.0596C60.9311 78.2118 60.737 78.421 60.5924 78.6873C60.4519 78.9493 60.3817 79.2346 60.3817 79.5431V79.727C60.3817 80.0524 60.4519 80.3462 60.5924 80.6082C60.7329 80.8703 60.925 81.0774 61.1687 81.2295C61.4165 81.3775 61.6913 81.4514 61.9928 81.4514Z" fill="#5C5C5C"/>
<path d="M67.2057 77.3623H67.4225L70.0809 80.7604L70.1676 80.9189L70.1614 80.7414L70.1552 77.4193H70.6571V81.7811H70.3969L70.0375 81.4197L67.9245 78.8204L67.6828 78.4907L67.7138 78.9092V81.7811H67.2057V77.3623Z" fill="#5C5C5C"/>
<path d="M73.6605 77.4447H75.913V77.9265H74.1562V79.2515H75.8355V79.7333H74.1562V81.3183H75.913V81.8001H73.6605V77.4447Z" fill="#5C5C5C"/>
<path d="M80.4303 81.9268C80.1824 81.9268 79.949 81.8782 79.7301 81.781C79.5111 81.6838 79.4492 81.6183 79.2963 81.445C79.1476 81.2717 79.0505 81.0752 79.0051 80.8554L79.4636 80.6588C79.5297 80.9251 79.6681 81.1343 79.8788 81.2865C80.0895 81.4386 80.1907 81.445 80.4303 81.445C80.6864 81.445 80.9033 81.3647 81.0809 81.2041C81.2586 81.0392 81.3208 80.8581 81.3043 80.6101C81.2945 80.4618 81.2895 80.3674 81.1863 80.249C81.083 80.1307 80.9012 80.0081 80.641 79.8813C80.3105 79.7165 80.0585 79.5833 79.885 79.4819C79.7156 79.3762 79.5731 79.2473 79.4574 79.0952C79.3459 78.9388 79.2963 78.6174 79.2963 78.4019C79.2963 78.1948 79.35 78.0109 79.4574 77.8503C79.569 77.6855 79.7156 77.5587 79.8974 77.4699C80.0833 77.3769 80.2816 77.3305 80.4922 77.3305C80.6699 77.3305 80.8351 77.3685 80.988 77.4446C81.145 77.5164 81.2689 77.6136 81.3598 77.7362C81.4548 77.8588 81.5023 77.9898 81.5023 78.1293C81.5023 78.1504 81.4982 78.1863 81.4899 78.237L81.0066 78.2053C81.0231 78.1377 81.0045 78.0743 80.9508 78.0151C80.9012 77.9518 80.831 77.9031 80.7401 77.8693C80.6492 77.8313 80.5625 77.8123 80.4799 77.8123C80.2981 77.8123 80.139 77.8693 80.0027 77.9835C79.8705 78.0933 79.8044 78.2265 79.8044 78.3829C79.8044 78.5097 79.8416 78.7592 79.9284 78.8606C80.0192 78.962 80.1246 79.0508 80.2444 79.1269C80.3642 79.1987 80.5191 79.2833 80.7091 79.3805L80.9322 79.4946C81.2586 79.6763 81.492 79.8581 81.6324 80.0398C81.777 80.2215 81.8006 80.3804 81.8125 80.6165C81.8258 80.8802 81.7894 81.0667 81.6572 81.2738C81.5291 81.4809 81.3556 81.6415 81.1367 81.7556C80.9177 81.8697 80.6823 81.9268 80.4303 81.9268Z" fill="#5C5C5C"/>
<path d="M84.844 77.4447H85.3521V81.8001H84.844V77.4447Z" fill="#5C5C5C"/>
<path d="M90.2862 77.3242L92.2169 81.8001H91.6778L91.0954 80.399H89.4781L88.908 81.8001H88.3689L90.2862 77.3242ZM90.3704 78.5732L90.3208 78.4083L90.2836 78.2625L90.2402 78.402L90.1907 78.5732L89.6701 79.9299H90.8971L90.3704 78.5732Z" fill="#5C5C5C"/>
<defs>
<radialGradient id="paint0_radial_615_992" cx="0" cy="0" r="1" gradientUnits="userSpaceOnUse" gradientTransform="translate(46.141 117.074) rotate(85.3036) scale(96.1056)">
<stop stop-color="#DADADA"/>
<stop offset="1" stop-color="#FAFAFA"/>
</radialGradient>
</defs>
</svg>
