<svg width="733" height="734" viewBox="0 0 733 734" fill="none" xmlns="http://www.w3.org/2000/svg">
<rect x="19.2266" y="369.243" width="489.691" height="489.691" rx="72" transform="rotate(-45 19.2266 369.243)" fill="#FB242B"/>
<rect x="-29.7734" y="366.98" width="560" height="560" rx="72" transform="rotate(-45 -29.7734 366.98)" fill="#FB242B" fill-opacity="0.6"/>
<rect x="300.227" y="100.273" width="21.6284" height="21.6284" rx="4.84528" transform="rotate(-45 300.227 100.273)" fill="url(#paint0_radial_615_992)" fill-opacity="0.2"/>
<rect x="340.512" y="100.273" width="21.6284" height="21.6284" rx="4.84528" transform="rotate(-45 340.512 100.273)" fill="url(#paint1_radial_615_992)" fill-opacity="0.2"/>
<rect x="380.781" y="100.273" width="21.6284" height="21.6284" rx="4.84528" transform="rotate(-45 380.781 100.273)" fill="url(#paint2_radial_615_992)" fill-opacity="0.2"/>
<rect x="421.062" y="100.273" width="21.6284" height="21.6284" rx="4.84528" transform="rotate(-45 421.062 100.273)" fill="url(#paint3_radial_615_992)" fill-opacity="0.2"/>
<rect x="461.34" y="100.273" width="21.6284" height="21.6284" rx="4.84528" transform="rotate(-45 461.34 100.273)" fill="url(#paint4_radial_615_992)" fill-opacity="0.2"/>
<rect x="501.625" y="100.273" width="21.6284" height="21.6284" rx="4.84528" transform="rotate(-45 501.625 100.273)" fill="url(#paint5_radial_615_992)" fill-opacity="0.2"/>
<rect x="541.895" y="100.273" width="21.6284" height="21.6284" rx="4.84528" transform="rotate(-45 541.895 100.273)" fill="url(#paint6_radial_615_992)" fill-opacity="0.2"/>
<rect x="582.18" y="100.273" width="21.6284" height="21.6284" rx="4.84528" transform="rotate(-45 582.18 100.273)" fill="url(#paint7_radial_615_992)" fill-opacity="0.2"/>
<rect x="300.227" y="182.643" width="21.6284" height="21.6284" rx="4.84528" transform="rotate(-45 300.227 182.643)" fill="url(#paint8_radial_615_992)" fill-opacity="0.2"/>
<rect x="340.512" y="182.643" width="21.6284" height="21.6284" rx="4.84528" transform="rotate(-45 340.512 182.643)" fill="url(#paint9_radial_615_992)" fill-opacity="0.2"/>
<rect x="380.781" y="182.643" width="21.6284" height="21.6284" rx="4.84528" transform="rotate(-45 380.781 182.643)" fill="url(#paint10_radial_615_992)" fill-opacity="0.2"/>
<rect x="421.062" y="182.643" width="21.6284" height="21.6284" rx="4.84528" transform="rotate(-45 421.062 182.643)" fill="url(#paint11_radial_615_992)" fill-opacity="0.2"/>
<rect x="461.34" y="182.643" width="21.6284" height="21.6284" rx="4.84528" transform="rotate(-45 461.34 182.643)" fill="url(#paint12_radial_615_992)" fill-opacity="0.2"/>
<rect x="501.625" y="182.643" width="21.6284" height="21.6284" rx="4.84528" transform="rotate(-45 501.625 182.643)" fill="url(#paint13_radial_615_992)" fill-opacity="0.2"/>
<rect x="541.895" y="182.643" width="21.6284" height="21.6284" rx="4.84528" transform="rotate(-45 541.895 182.643)" fill="url(#paint14_radial_615_992)" fill-opacity="0.2"/>
<rect x="582.18" y="182.643" width="21.6284" height="21.6284" rx="4.84528" transform="rotate(-45 582.18 182.643)" fill="url(#paint15_radial_615_992)" fill-opacity="0.2"/>
<rect x="300.227" y="265.013" width="21.6284" height="21.6284" rx="4.84528" transform="rotate(-45 300.227 265.013)" fill="url(#paint16_radial_615_992)" fill-opacity="0.2"/>
<rect x="340.512" y="265.013" width="21.6284" height="21.6284" rx="4.84528" transform="rotate(-45 340.512 265.013)" fill="url(#paint17_radial_615_992)" fill-opacity="0.2"/>
<rect x="380.781" y="265.013" width="21.6284" height="21.6284" rx="4.84528" transform="rotate(-45 380.781 265.013)" fill="url(#paint18_radial_615_992)" fill-opacity="0.2"/>
<rect x="421.062" y="265.013" width="21.6284" height="21.6284" rx="4.84528" transform="rotate(-45 421.062 265.013)" fill="url(#paint19_radial_615_992)" fill-opacity="0.2"/>
<rect x="461.34" y="265.013" width="21.6284" height="21.6284" rx="4.84528" transform="rotate(-45 461.34 265.013)" fill="url(#paint20_radial_615_992)" fill-opacity="0.2"/>
<rect x="501.625" y="265.013" width="21.6284" height="21.6284" rx="4.84528" transform="rotate(-45 501.625 265.013)" fill="url(#paint21_radial_615_992)" fill-opacity="0.2"/>
<rect x="541.895" y="265.013" width="21.6284" height="21.6284" rx="4.84528" transform="rotate(-45 541.895 265.013)" fill="url(#paint22_radial_615_992)" fill-opacity="0.2"/>
<rect x="582.18" y="265.013" width="21.6284" height="21.6284" rx="4.84528" transform="rotate(-45 582.18 265.013)" fill="url(#paint23_radial_615_992)" fill-opacity="0.2"/>
<rect x="300.227" y="141.458" width="21.6284" height="21.6284" rx="4.84528" transform="rotate(-45 300.227 141.458)" fill="url(#paint24_radial_615_992)" fill-opacity="0.2"/>
<rect x="340.512" y="141.458" width="21.6284" height="21.6284" rx="4.84528" transform="rotate(-45 340.512 141.458)" fill="url(#paint25_radial_615_992)" fill-opacity="0.2"/>
<rect x="380.781" y="141.458" width="21.6284" height="21.6284" rx="4.84528" transform="rotate(-45 380.781 141.458)" fill="url(#paint26_radial_615_992)" fill-opacity="0.2"/>
<rect x="421.062" y="141.458" width="21.6284" height="21.6284" rx="4.84528" transform="rotate(-45 421.062 141.458)" fill="url(#paint27_radial_615_992)" fill-opacity="0.2"/>
<rect x="461.34" y="141.458" width="21.6284" height="21.6284" rx="4.84528" transform="rotate(-45 461.34 141.458)" fill="url(#paint28_radial_615_992)" fill-opacity="0.2"/>
<rect x="501.625" y="141.458" width="21.6284" height="21.6284" rx="4.84528" transform="rotate(-45 501.625 141.458)" fill="url(#paint29_radial_615_992)" fill-opacity="0.2"/>
<rect x="541.895" y="141.458" width="21.6284" height="21.6284" rx="4.84528" transform="rotate(-45 541.895 141.458)" fill="url(#paint30_radial_615_992)" fill-opacity="0.2"/>
<rect x="582.18" y="141.458" width="21.6284" height="21.6284" rx="4.84528" transform="rotate(-45 582.18 141.458)" fill="url(#paint31_radial_615_992)" fill-opacity="0.2"/>
<rect x="300.227" y="223.828" width="21.6284" height="21.6284" rx="4.84528" transform="rotate(-45 300.227 223.828)" fill="url(#paint32_radial_615_992)" fill-opacity="0.2"/>
<rect x="340.512" y="223.828" width="21.6284" height="21.6284" rx="4.84528" transform="rotate(-45 340.512 223.828)" fill="url(#paint33_radial_615_992)" fill-opacity="0.2"/>
<rect x="380.781" y="223.828" width="21.6284" height="21.6284" rx="4.84528" transform="rotate(-45 380.781 223.828)" fill="url(#paint34_radial_615_992)" fill-opacity="0.2"/>
<rect x="421.062" y="223.828" width="21.6284" height="21.6284" rx="4.84528" transform="rotate(-45 421.062 223.828)" fill="url(#paint35_radial_615_992)" fill-opacity="0.2"/>
<rect x="461.34" y="223.828" width="21.6284" height="21.6284" rx="4.84528" transform="rotate(-45 461.34 223.828)" fill="url(#paint36_radial_615_992)" fill-opacity="0.2"/>
<rect x="501.625" y="223.828" width="21.6284" height="21.6284" rx="4.84528" transform="rotate(-45 501.625 223.828)" fill="url(#paint37_radial_615_992)" fill-opacity="0.2"/>
<rect x="541.895" y="223.828" width="21.6284" height="21.6284" rx="4.84528" transform="rotate(-45 541.895 223.828)" fill="url(#paint38_radial_615_992)" fill-opacity="0.2"/>
<rect x="582.18" y="223.828" width="21.6284" height="21.6284" rx="4.84528" transform="rotate(-45 582.18 223.828)" fill="url(#paint39_radial_615_992)" fill-opacity="0.2"/>
<rect x="300.227" y="306.198" width="21.6284" height="21.6284" rx="4.84528" transform="rotate(-45 300.227 306.198)" fill="url(#paint40_radial_615_992)" fill-opacity="0.2"/>
<rect x="340.512" y="306.198" width="21.6284" height="21.6284" rx="4.84528" transform="rotate(-45 340.512 306.198)" fill="url(#paint41_radial_615_992)" fill-opacity="0.2"/>
<rect x="380.781" y="306.198" width="21.6284" height="21.6284" rx="4.84528" transform="rotate(-45 380.781 306.198)" fill="url(#paint42_radial_615_992)" fill-opacity="0.2"/>
<rect x="421.062" y="306.198" width="21.6284" height="21.6284" rx="4.84528" transform="rotate(-45 421.062 306.198)" fill="url(#paint43_radial_615_992)" fill-opacity="0.2"/>
<rect x="461.34" y="306.198" width="21.6284" height="21.6284" rx="4.84528" transform="rotate(-45 461.34 306.198)" fill="url(#paint44_radial_615_992)" fill-opacity="0.2"/>
<rect x="501.625" y="306.198" width="21.6284" height="21.6284" rx="4.84528" transform="rotate(-45 501.625 306.198)" fill="url(#paint45_radial_615_992)" fill-opacity="0.2"/>
<rect x="541.895" y="306.198" width="21.6284" height="21.6284" rx="4.84528" transform="rotate(-45 541.895 306.198)" fill="url(#paint46_radial_615_992)" fill-opacity="0.2"/>
<rect x="582.18" y="306.198" width="21.6284" height="21.6284" rx="4.84528" transform="rotate(-45 582.18 306.198)" fill="url(#paint47_radial_615_992)" fill-opacity="0.2"/>
<defs>
<radialGradient id="paint0_radial_615_992" cx="0" cy="0" r="1" gradientUnits="userSpaceOnUse" gradientTransform="translate(311.041 111.087) rotate(85.3036) scale(20.7276)">
<stop stop-color="white"/>
<stop offset="1" stop-color="#FAFAFA"/>
</radialGradient>
<radialGradient id="paint1_radial_615_992" cx="0" cy="0" r="1" gradientUnits="userSpaceOnUse" gradientTransform="translate(351.326 111.087) rotate(85.3036) scale(20.7276)">
<stop stop-color="white"/>
<stop offset="1" stop-color="#FAFAFA"/>
</radialGradient>
<radialGradient id="paint2_radial_615_992" cx="0" cy="0" r="1" gradientUnits="userSpaceOnUse" gradientTransform="translate(391.595 111.087) rotate(85.3036) scale(20.7276)">
<stop stop-color="white"/>
<stop offset="1" stop-color="#FAFAFA"/>
</radialGradient>
<radialGradient id="paint3_radial_615_992" cx="0" cy="0" r="1" gradientUnits="userSpaceOnUse" gradientTransform="translate(431.877 111.087) rotate(85.3036) scale(20.7276)">
<stop stop-color="white"/>
<stop offset="1" stop-color="#FAFAFA"/>
</radialGradient>
<radialGradient id="paint4_radial_615_992" cx="0" cy="0" r="1" gradientUnits="userSpaceOnUse" gradientTransform="translate(472.154 111.087) rotate(85.3036) scale(20.7276)">
<stop stop-color="white"/>
<stop offset="1" stop-color="#FAFAFA"/>
</radialGradient>
<radialGradient id="paint5_radial_615_992" cx="0" cy="0" r="1" gradientUnits="userSpaceOnUse" gradientTransform="translate(512.439 111.087) rotate(85.3036) scale(20.7276)">
<stop stop-color="white"/>
<stop offset="1" stop-color="#FAFAFA"/>
</radialGradient>
<radialGradient id="paint6_radial_615_992" cx="0" cy="0" r="1" gradientUnits="userSpaceOnUse" gradientTransform="translate(552.709 111.087) rotate(85.3036) scale(20.7276)">
<stop stop-color="white"/>
<stop offset="1" stop-color="#FAFAFA"/>
</radialGradient>
<radialGradient id="paint7_radial_615_992" cx="0" cy="0" r="1" gradientUnits="userSpaceOnUse" gradientTransform="translate(592.994 111.087) rotate(85.3036) scale(20.7276)">
<stop stop-color="white"/>
<stop offset="1" stop-color="#FAFAFA"/>
</radialGradient>
<radialGradient id="paint8_radial_615_992" cx="0" cy="0" r="1" gradientUnits="userSpaceOnUse" gradientTransform="translate(311.041 193.457) rotate(85.3036) scale(20.7276)">
<stop stop-color="white"/>
<stop offset="1" stop-color="#FAFAFA"/>
</radialGradient>
<radialGradient id="paint9_radial_615_992" cx="0" cy="0" r="1" gradientUnits="userSpaceOnUse" gradientTransform="translate(351.326 193.457) rotate(85.3036) scale(20.7276)">
<stop stop-color="white"/>
<stop offset="1" stop-color="#FAFAFA"/>
</radialGradient>
<radialGradient id="paint10_radial_615_992" cx="0" cy="0" r="1" gradientUnits="userSpaceOnUse" gradientTransform="translate(391.595 193.457) rotate(85.3036) scale(20.7276)">
<stop stop-color="white"/>
<stop offset="1" stop-color="#FAFAFA"/>
</radialGradient>
<radialGradient id="paint11_radial_615_992" cx="0" cy="0" r="1" gradientUnits="userSpaceOnUse" gradientTransform="translate(431.877 193.457) rotate(85.3036) scale(20.7276)">
<stop stop-color="white"/>
<stop offset="1" stop-color="#FAFAFA"/>
</radialGradient>
<radialGradient id="paint12_radial_615_992" cx="0" cy="0" r="1" gradientUnits="userSpaceOnUse" gradientTransform="translate(472.154 193.457) rotate(85.3036) scale(20.7276)">
<stop stop-color="white"/>
<stop offset="1" stop-color="#FAFAFA"/>
</radialGradient>
<radialGradient id="paint13_radial_615_992" cx="0" cy="0" r="1" gradientUnits="userSpaceOnUse" gradientTransform="translate(512.439 193.457) rotate(85.3036) scale(20.7276)">
<stop stop-color="white"/>
<stop offset="1" stop-color="#FAFAFA"/>
</radialGradient>
<radialGradient id="paint14_radial_615_992" cx="0" cy="0" r="1" gradientUnits="userSpaceOnUse" gradientTransform="translate(552.709 193.457) rotate(85.3036) scale(20.7276)">
<stop stop-color="white"/>
<stop offset="1" stop-color="#FAFAFA"/>
</radialGradient>
<radialGradient id="paint15_radial_615_992" cx="0" cy="0" r="1" gradientUnits="userSpaceOnUse" gradientTransform="translate(592.994 193.457) rotate(85.3036) scale(20.7276)">
<stop stop-color="white"/>
<stop offset="1" stop-color="#FAFAFA"/>
</radialGradient>
<radialGradient id="paint16_radial_615_992" cx="0" cy="0" r="1" gradientUnits="userSpaceOnUse" gradientTransform="translate(311.041 275.827) rotate(85.3036) scale(20.7276)">
<stop stop-color="white"/>
<stop offset="1" stop-color="#FAFAFA"/>
</radialGradient>
<radialGradient id="paint17_radial_615_992" cx="0" cy="0" r="1" gradientUnits="userSpaceOnUse" gradientTransform="translate(351.326 275.827) rotate(85.3036) scale(20.7276)">
<stop stop-color="white"/>
<stop offset="1" stop-color="#FAFAFA"/>
</radialGradient>
<radialGradient id="paint18_radial_615_992" cx="0" cy="0" r="1" gradientUnits="userSpaceOnUse" gradientTransform="translate(391.595 275.827) rotate(85.3036) scale(20.7276)">
<stop stop-color="white"/>
<stop offset="1" stop-color="#FAFAFA"/>
</radialGradient>
<radialGradient id="paint19_radial_615_992" cx="0" cy="0" r="1" gradientUnits="userSpaceOnUse" gradientTransform="translate(431.877 275.827) rotate(85.3036) scale(20.7276)">
<stop stop-color="white"/>
<stop offset="1" stop-color="#FAFAFA"/>
</radialGradient>
<radialGradient id="paint20_radial_615_992" cx="0" cy="0" r="1" gradientUnits="userSpaceOnUse" gradientTransform="translate(472.154 275.827) rotate(85.3036) scale(20.7276)">
<stop stop-color="white"/>
<stop offset="1" stop-color="#FAFAFA"/>
</radialGradient>
<radialGradient id="paint21_radial_615_992" cx="0" cy="0" r="1" gradientUnits="userSpaceOnUse" gradientTransform="translate(512.439 275.827) rotate(85.3036) scale(20.7276)">
<stop stop-color="white"/>
<stop offset="1" stop-color="#FAFAFA"/>
</radialGradient>
<radialGradient id="paint22_radial_615_992" cx="0" cy="0" r="1" gradientUnits="userSpaceOnUse" gradientTransform="translate(552.709 275.827) rotate(85.3036) scale(20.7276)">
<stop stop-color="white"/>
<stop offset="1" stop-color="#FAFAFA"/>
</radialGradient>
<radialGradient id="paint23_radial_615_992" cx="0" cy="0" r="1" gradientUnits="userSpaceOnUse" gradientTransform="translate(592.994 275.827) rotate(85.3036) scale(20.7276)">
<stop stop-color="white"/>
<stop offset="1" stop-color="#FAFAFA"/>
</radialGradient>
<radialGradient id="paint24_radial_615_992" cx="0" cy="0" r="1" gradientUnits="userSpaceOnUse" gradientTransform="translate(311.041 152.272) rotate(85.3036) scale(20.7276)">
<stop stop-color="white"/>
<stop offset="1" stop-color="#FAFAFA"/>
</radialGradient>
<radialGradient id="paint25_radial_615_992" cx="0" cy="0" r="1" gradientUnits="userSpaceOnUse" gradientTransform="translate(351.326 152.272) rotate(85.3036) scale(20.7276)">
<stop stop-color="white"/>
<stop offset="1" stop-color="#FAFAFA"/>
</radialGradient>
<radialGradient id="paint26_radial_615_992" cx="0" cy="0" r="1" gradientUnits="userSpaceOnUse" gradientTransform="translate(391.595 152.272) rotate(85.3036) scale(20.7276)">
<stop stop-color="white"/>
<stop offset="1" stop-color="#FAFAFA"/>
</radialGradient>
<radialGradient id="paint27_radial_615_992" cx="0" cy="0" r="1" gradientUnits="userSpaceOnUse" gradientTransform="translate(431.877 152.272) rotate(85.3036) scale(20.7276)">
<stop stop-color="white"/>
<stop offset="1" stop-color="#FAFAFA"/>
</radialGradient>
<radialGradient id="paint28_radial_615_992" cx="0" cy="0" r="1" gradientUnits="userSpaceOnUse" gradientTransform="translate(472.154 152.272) rotate(85.3036) scale(20.7276)">
<stop stop-color="white"/>
<stop offset="1" stop-color="#FAFAFA"/>
</radialGradient>
<radialGradient id="paint29_radial_615_992" cx="0" cy="0" r="1" gradientUnits="userSpaceOnUse" gradientTransform="translate(512.439 152.272) rotate(85.3036) scale(20.7276)">
<stop stop-color="white"/>
<stop offset="1" stop-color="#FAFAFA"/>
</radialGradient>
<radialGradient id="paint30_radial_615_992" cx="0" cy="0" r="1" gradientUnits="userSpaceOnUse" gradientTransform="translate(552.709 152.272) rotate(85.3036) scale(20.7276)">
<stop stop-color="white"/>
<stop offset="1" stop-color="#FAFAFA"/>
</radialGradient>
<radialGradient id="paint31_radial_615_992" cx="0" cy="0" r="1" gradientUnits="userSpaceOnUse" gradientTransform="translate(592.994 152.272) rotate(85.3036) scale(20.7276)">
<stop stop-color="white"/>
<stop offset="1" stop-color="#FAFAFA"/>
</radialGradient>
<radialGradient id="paint32_radial_615_992" cx="0" cy="0" r="1" gradientUnits="userSpaceOnUse" gradientTransform="translate(311.041 234.642) rotate(85.3036) scale(20.7276)">
<stop stop-color="white"/>
<stop offset="1" stop-color="#FAFAFA"/>
</radialGradient>
<radialGradient id="paint33_radial_615_992" cx="0" cy="0" r="1" gradientUnits="userSpaceOnUse" gradientTransform="translate(351.326 234.642) rotate(85.3036) scale(20.7276)">
<stop stop-color="white"/>
<stop offset="1" stop-color="#FAFAFA"/>
</radialGradient>
<radialGradient id="paint34_radial_615_992" cx="0" cy="0" r="1" gradientUnits="userSpaceOnUse" gradientTransform="translate(391.595 234.642) rotate(85.3036) scale(20.7276)">
<stop stop-color="white"/>
<stop offset="1" stop-color="#FAFAFA"/>
</radialGradient>
<radialGradient id="paint35_radial_615_992" cx="0" cy="0" r="1" gradientUnits="userSpaceOnUse" gradientTransform="translate(431.877 234.642) rotate(85.3036) scale(20.7276)">
<stop stop-color="white"/>
<stop offset="1" stop-color="#FAFAFA"/>
</radialGradient>
<radialGradient id="paint36_radial_615_992" cx="0" cy="0" r="1" gradientUnits="userSpaceOnUse" gradientTransform="translate(472.154 234.642) rotate(85.3036) scale(20.7276)">
<stop stop-color="white"/>
<stop offset="1" stop-color="#FAFAFA"/>
</radialGradient>
<radialGradient id="paint37_radial_615_992" cx="0" cy="0" r="1" gradientUnits="userSpaceOnUse" gradientTransform="translate(512.439 234.642) rotate(85.3036) scale(20.7276)">
<stop stop-color="white"/>
<stop offset="1" stop-color="#FAFAFA"/>
</radialGradient>
<radialGradient id="paint38_radial_615_992" cx="0" cy="0" r="1" gradientUnits="userSpaceOnUse" gradientTransform="translate(552.709 234.642) rotate(85.3036) scale(20.7276)">
<stop stop-color="white"/>
<stop offset="1" stop-color="#FAFAFA"/>
</radialGradient>
<radialGradient id="paint39_radial_615_992" cx="0" cy="0" r="1" gradientUnits="userSpaceOnUse" gradientTransform="translate(592.994 234.642) rotate(85.3036) scale(20.7276)">
<stop stop-color="white"/>
<stop offset="1" stop-color="#FAFAFA"/>
</radialGradient>
<radialGradient id="paint40_radial_615_992" cx="0" cy="0" r="1" gradientUnits="userSpaceOnUse" gradientTransform="translate(311.041 317.012) rotate(85.3036) scale(20.7276)">
<stop stop-color="white"/>
<stop offset="1" stop-color="#FAFAFA"/>
</radialGradient>
<radialGradient id="paint41_radial_615_992" cx="0" cy="0" r="1" gradientUnits="userSpaceOnUse" gradientTransform="translate(351.326 317.012) rotate(85.3036) scale(20.7276)">
<stop stop-color="white"/>
<stop offset="1" stop-color="#FAFAFA"/>
</radialGradient>
<radialGradient id="paint42_radial_615_992" cx="0" cy="0" r="1" gradientUnits="userSpaceOnUse" gradientTransform="translate(391.595 317.012) rotate(85.3036) scale(20.7276)">
<stop stop-color="white"/>
<stop offset="1" stop-color="#FAFAFA"/>
</radialGradient>
<radialGradient id="paint43_radial_615_992" cx="0" cy="0" r="1" gradientUnits="userSpaceOnUse" gradientTransform="translate(431.877 317.012) rotate(85.3036) scale(20.7276)">
<stop stop-color="white"/>
<stop offset="1" stop-color="#FAFAFA"/>
</radialGradient>
<radialGradient id="paint44_radial_615_992" cx="0" cy="0" r="1" gradientUnits="userSpaceOnUse" gradientTransform="translate(472.154 317.012) rotate(85.3036) scale(20.7276)">
<stop stop-color="white"/>
<stop offset="1" stop-color="#FAFAFA"/>
</radialGradient>
<radialGradient id="paint45_radial_615_992" cx="0" cy="0" r="1" gradientUnits="userSpaceOnUse" gradientTransform="translate(512.439 317.012) rotate(85.3036) scale(20.7276)">
<stop stop-color="white"/>
<stop offset="1" stop-color="#FAFAFA"/>
</radialGradient>
<radialGradient id="paint46_radial_615_992" cx="0" cy="0" r="1" gradientUnits="userSpaceOnUse" gradientTransform="translate(552.709 317.012) rotate(85.3036) scale(20.7276)">
<stop stop-color="white"/>
<stop offset="1" stop-color="#FAFAFA"/>
</radialGradient>
<radialGradient id="paint47_radial_615_992" cx="0" cy="0" r="1" gradientUnits="userSpaceOnUse" gradientTransform="translate(592.994 317.012) rotate(85.3036) scale(20.7276)">
<stop stop-color="white"/>
<stop offset="1" stop-color="#FAFAFA"/>
</radialGradient>
</defs>
</svg>
