<svg width="133" height="133" viewBox="0 0 133 133" fill="none" xmlns="http://www.w3.org/2000/svg">
<rect width="100.282" height="100.282" rx="11.9999" transform="matrix(-0.707107 -0.707107 -0.707107 0.707107 137.502 66.1912)" fill="url(#paint0_radial_615_992)" fill-opacity="0.8"/>
<path d="M76.3452 89.5739V97.9335H82.4063V98.9999H74.7827V89.5739H76.3452Z" fill="#5C5C5C"/>
<path d="M69.3531 95.3006V98.9999H67.785V95.3006L63.0293 89.5739H64.9592L68.5949 94.1684L72.11 89.5739H73.9882L69.3531 95.3006Z" fill="black"/>
<path d="M59.823 96.1694H54.7651L53.3723 98.9999H51.5947L56.2678 89.5739H58.4303L63.0301 98.9999H61.1792L59.823 96.1694ZM59.3466 95.1557L57.3307 90.8772L55.1866 95.1557H59.3466Z" fill="black"/>
<path d="M90.7928 96.1694H85.7348L84.3421 98.9999H82.5645L87.2376 89.5739H89.4L93.9998 98.9999H92.1489L90.7928 96.1694ZM90.3163 95.1557L88.3005 90.8772L86.1563 95.1557H90.3163Z" fill="#5C5C5C"/>
<path d="M50.8001 89.5739V98.9999H48.8294L41.6615 91.3511V98.9999H40V89.5739H41.9127L49.1385 97.2753V89.5739H50.8001Z" fill="black"/>
<path d="M88.2817 61.5137C88.2817 73.6173 78.3621 83.4292 66.1257 83.4292C53.8893 83.4292 43.9697 73.6173 43.9697 61.5137C43.9697 56.199 43.9699 33 43.9699 33L55.0874 42.5074C58.3373 40.6568 62.1065 39.5982 66.1257 39.5982C78.3621 39.5982 88.2817 49.4101 88.2817 61.5137Z" fill="#5C5C5C"/>
<path d="M59.8945 66.5968L55.6239 63.8348C55.6239 63.8348 53.6174 67.2887 53.7349 69.6837C53.8418 71.8609 56.5222 75.1996 56.6865 74.8463C57.1021 73.9527 58.9911 73.2581 58.9911 73.2581C58.9911 73.2581 57.2182 74.2174 57.1021 75.289C56.8558 77.5636 57.0916 81.6234 57.0916 81.6234C57.0916 81.6234 57.8583 81.9635 58.4112 82.1574C58.9535 82.3476 59.8945 82.608 59.8945 82.608V77.5636C59.8945 77.5636 66.7931 78.9446 69.4212 75.289C72.0492 71.6334 75.4164 66.5968 76.8947 63.8348C78.373 61.0728 80.2619 53.8428 73.0347 50.2685C65.8076 46.6942 60.88 54.574 60.88 54.574L65.8076 57.4172C65.8076 57.4172 66.3003 57.8235 65.8897 58.7171C65.4791 59.6106 64.4936 59.2856 64.4936 59.2856L59.7252 56.7308L58.9089 58.1484L63.9255 60.9103C63.9255 60.9103 64.5757 61.3977 64.0829 62.535C63.5902 63.6724 62.3583 63.0225 62.3583 63.0225L57.5949 60.423L56.7736 61.8041L61.3727 64.4848C61.3727 64.4848 62.3583 65.0532 61.7834 66.1094C61.2085 67.1655 59.8945 66.5968 59.8945 66.5968Z" fill="white"/>
<defs>
<radialGradient id="paint0_radial_615_992" cx="0" cy="0" r="1" gradientUnits="userSpaceOnUse" gradientTransform="translate(50.141 50.141) rotate(85.3036) scale(96.1056)">
<stop stop-color="#DADADA"/>
<stop offset="1" stop-color="#FAFAFA"/>
</radialGradient>
</defs>
</svg>
