<svg width="133" height="133" viewBox="0 0 133 133" fill="none" xmlns="http://www.w3.org/2000/svg">
<rect width="100.282" height="100.282" rx="11.9999" transform="matrix(-0.707107 -0.707107 -0.707107 0.707107 137.5 66.1912)" fill="url(#paint0_radial_615_992)" fill-opacity="0.8"/>
<path d="M50.8334 67.8426V62.0244L44.073 69.2062C44.073 69.2062 43.9829 69.3283 43.9829 69.4789C43.9829 69.6295 44.073 69.7516 44.073 69.7516L46.2364 71.9334C46.2364 71.9334 46.3589 72.0939 46.5068 72.1152C46.681 72.1404 46.8673 71.9334 46.8673 71.9334L50.8334 67.8426Z" fill="#868686"/>
<path d="M46.5072 59.9334C46.31 59.9618 46.1466 59.7516 46.1466 59.7516C46.1466 59.7516 43.1783 56.3473 41.189 54.8426C40.8285 54.5698 39.1158 53.6029 37.7638 54.8426C36.8618 55.6696 37.2229 57.2475 37.7638 57.8425C39.7468 60.0244 45.0649 65.388 45.0649 65.388C45.0649 65.388 45.3505 65.5747 45.3354 65.7516C45.3244 65.8791 45.1551 66.0243 45.1551 66.0243L43.0819 68.1152C43.0819 68.1152 42.9109 68.2923 42.7214 68.297C42.5763 68.3007 42.3608 68.1152 42.3608 68.1152L31.1831 56.9335C31.1831 56.9335 30.9735 56.7175 31.0028 56.5698C31.0223 56.4714 31.093 56.388 31.093 56.388C31.093 56.388 32.6253 55.0244 33.347 54.2971C33.3672 54.2768 33.5327 54.1811 33.707 54.2062C33.8548 54.2275 33.978 54.2971 33.978 54.2971L34.6089 54.8426C34.6089 54.8426 35.2713 51.883 36.6821 50.8426C38.3908 49.5825 40.7082 49.5699 42.0904 50.479C44.1636 51.8425 49.031 57.0244 49.031 57.0244C49.031 57.0244 49.1212 57.1465 49.1212 57.2971C49.1212 57.4477 49.031 57.5698 49.031 57.5698C49.031 57.5698 47.3184 59.388 46.7776 59.8425C46.692 59.9144 46.655 59.9121 46.5072 59.9334Z" fill="#5C5C5C"/>
<path d="M55.4298 45.3882L47.3174 53.6609L50.1117 56.4791C50.1117 56.4791 51.644 55.0246 52.7257 54.1154C53.1902 53.725 54.3919 53.7836 55.0693 54.4791C55.7223 55.1497 55.9071 56.3882 55.4298 56.9337C54.0777 58.4791 52.3651 60.479 52.3651 60.479H57.8635C58.6028 59.3785 59.2098 58.2972 59.5762 57.7518C59.9425 57.2064 60.3424 55.4791 59.2156 53.6609C58.0888 51.8427 54.889 51.6609 54.889 51.6609L58.4534 47.9804C58.4534 47.9804 58.5752 47.8617 58.5846 47.7519C58.5925 47.661 58.4044 47.4791 58.4044 47.4791L56.2411 45.3882C56.2411 45.3882 56.0784 45.2286 55.8805 45.2065C55.6565 45.1814 55.4298 45.3882 55.4298 45.3882Z" fill="#868686"/>
<ellipse cx="46.4166" cy="47.5699" rx="3.60552" ry="3.63634" fill="#5C5C5C"/>
<path d="M68.7103 62.1152V81.9333H64.5749L56.5729 69.4599H56.429V81.9333H52.2744V62.1152H56.7813L64.4022 74.5789H64.5749V62.1152H68.7103Z" fill="#5C5C5C"/>
<path d="M69.9644 81.9333V62.1152L84.5438 62.1152V65.5698L74.1189 65.5698V70.2921H83.8227V73.7467H74.1189V78.4787L85.0847 78.4787V81.9333L69.9644 81.9333Z" fill="#5C5C5C"/>
<path d="M90.4585 62.1152L94.4212 68.8696H93.9024L97.8843 62.1152H102.932L96.4846 72.0243L102.932 81.9333H98.2448L94.215 75.1692H94.4212L90.3914 81.9333H85.6324L91.7826 72.0243L85.7475 62.1152H90.4585Z" fill="#5C5C5C"/>
<path d="M55.1023 85.6175H53.0164V84.1805C53.0164 84.0422 52.9136 83.978 52.7814 83.978C52.6443 83.978 52.5464 84.0422 52.5464 84.1805V87.6817C52.5464 87.815 52.6443 87.8842 52.7814 87.8842C52.9136 87.8842 53.0164 87.815 53.0164 87.6817V86.0472H55.1023V87.6817C55.1023 87.815 55.2051 87.8842 55.3471 87.8842C55.4744 87.8842 55.5724 87.815 55.5724 87.6817V84.1805C55.5724 84.0422 55.4744 83.978 55.3471 83.978C55.2051 83.978 55.1023 84.0422 55.1023 84.1805V85.6175Z" fill="#5C5C5C"/>
<path d="M58.5952 86.0867H60.2649C60.3824 86.0867 60.4558 85.9928 60.4558 85.8793C60.4558 85.7558 60.3873 85.6669 60.2649 85.6669H58.5952V84.6447C58.5952 84.5262 58.6442 84.4719 58.7617 84.4719H60.4852C60.6125 84.4719 60.6811 84.378 60.6811 84.2546C60.6811 84.1311 60.6125 84.0422 60.4852 84.0422H58.6344C58.2867 84.0422 58.1349 84.1953 58.1349 84.5756V87.3607C58.1349 87.736 58.2867 87.8891 58.6344 87.8891H60.5293C60.6566 87.8891 60.7251 87.7904 60.7251 87.6718C60.7251 87.5484 60.6566 87.4595 60.5293 87.4595H58.7764C58.6687 87.4595 58.5952 87.415 58.5952 87.3015V86.0867Z" fill="#5C5C5C"/>
<path d="M63.7886 86.7089H65.4828L65.8696 87.7311C65.9039 87.8249 65.9822 87.8694 66.0703 87.8694C66.0997 87.8694 66.1291 87.8644 66.1585 87.8545C66.2564 87.8299 66.3348 87.7558 66.3348 87.657C66.3348 87.6274 66.3299 87.6027 66.3152 87.5731L64.9833 84.1904C64.9197 84.0225 64.7924 83.9583 64.6357 83.9583C64.4839 83.9583 64.3615 84.0225 64.2979 84.1904L62.966 87.5632C62.9562 87.5928 62.9513 87.6175 62.9513 87.6471C62.9513 87.741 63.0248 87.8249 63.1227 87.8496C63.157 87.8595 63.1864 87.8644 63.2206 87.8644C63.3039 87.8644 63.3773 87.8249 63.4116 87.7262L63.7886 86.7089ZM63.9355 86.2941L64.4888 84.862C64.5476 84.7138 64.5965 84.5558 64.6406 84.3879C64.6847 84.5558 64.7385 84.7138 64.7924 84.857L65.3359 86.2941H63.9355Z" fill="#5C5C5C"/>
<path d="M68.5344 87.3262C68.5344 87.8545 68.5344 87.8545 69.0339 87.8545H70.9141C71.0414 87.8545 71.1148 87.7459 71.1148 87.6274C71.1148 87.5039 71.0414 87.4101 70.9141 87.4101H69.1808C69.0045 87.4101 69.0045 87.4101 69.0045 87.2373V84.1854C69.0045 84.0422 68.9066 83.978 68.7695 83.978C68.6373 83.978 68.5344 84.0422 68.5344 84.1904V87.3262Z" fill="#5C5C5C"/>
<path d="M73.9245 84.4274V87.6669C73.9245 87.8002 74.0274 87.8694 74.1596 87.8694C74.2918 87.8694 74.3946 87.8002 74.3946 87.6669V84.4274H75.5061C75.6187 84.4274 75.6921 84.3287 75.6921 84.2151C75.6921 84.0966 75.6236 83.9929 75.5061 83.9929H72.8082C72.6907 83.9929 72.6221 84.0966 72.6221 84.2151C72.6221 84.3287 72.6907 84.4274 72.8131 84.4274H73.9245Z" fill="#5C5C5C"/>
<path d="M80.6561 85.6175H78.5702V84.1805C78.5702 84.0422 78.4674 83.978 78.3352 83.978C78.1981 83.978 78.1001 84.0422 78.1001 84.1805V87.6817C78.1001 87.815 78.1981 87.8842 78.3352 87.8842C78.4674 87.8842 78.5702 87.815 78.5702 87.6817V86.0472H80.6561V87.6817C80.6561 87.815 80.7589 87.8842 80.9009 87.8842C81.0282 87.8842 81.1261 87.815 81.1261 87.6817V84.1805C81.1261 84.0422 81.0282 83.978 80.9009 83.978C80.7589 83.978 80.6561 84.0422 80.6561 84.1805V85.6175Z" fill="#5C5C5C"/>
<path d="M85.4759 83.9336C84.4575 83.9336 83.7867 84.7287 83.7867 85.9286C83.7867 87.1583 84.4575 87.9336 85.5102 87.9336C86.3818 87.9336 87.0564 87.4007 87.2277 86.9118C87.2375 86.8822 87.2424 86.8575 87.2424 86.8278C87.2424 86.7241 87.1543 86.6501 87.071 86.6303C87.0368 86.6204 87.0025 86.6155 86.9731 86.6155C86.8801 86.6155 86.7919 86.6599 86.7528 86.7686C86.6255 87.1636 86.0831 87.499 85.4955 87.499C84.7611 87.499 84.2763 86.8867 84.2763 85.9336C84.2763 84.9607 84.7611 84.3632 85.4955 84.3632C86.0537 84.3632 86.5618 84.6748 86.7087 85.0303C86.7528 85.1242 86.8311 85.1587 86.9144 85.1587C86.9535 85.1587 86.9927 85.1538 87.0319 85.139C87.1053 85.1143 87.1837 85.0451 87.1837 84.9414C87.1837 84.9118 87.1788 84.8772 87.1641 84.8427C86.9878 84.4081 86.3377 83.9336 85.4759 83.9336Z" fill="#5C5C5C"/>
<path d="M90.2049 86.7583H91.899L92.2858 87.7805C92.3201 87.8743 92.3984 87.9187 92.4866 87.9187C92.5159 87.9187 92.5453 87.9138 92.5747 87.9039C92.6726 87.8792 92.751 87.8052 92.751 87.7064C92.751 87.6768 92.7461 87.6521 92.7314 87.6225L91.3996 84.2398C91.3359 84.0719 91.2086 84.0077 91.0519 84.0077C90.9001 84.0077 90.7777 84.0719 90.7141 84.2398L89.3823 87.6126C89.3725 87.6422 89.3676 87.6669 89.3676 87.6965C89.3676 87.7904 89.441 87.8743 89.5389 87.899C89.5732 87.9089 89.6026 87.9138 89.6369 87.9138C89.7201 87.9138 89.7936 87.8743 89.8278 87.7755L90.2049 86.7583ZM90.3517 86.3435L90.905 84.9114C90.9638 84.7632 91.0128 84.6052 91.0568 84.4373C91.1009 84.6052 91.1548 84.7632 91.2086 84.9064L91.7521 86.3435H90.3517Z" fill="#5C5C5C"/>
<path d="M97.7242 86.9331C97.7242 86.9331 97.5253 86.024 97.0583 85.9282C97.5137 85.8294 97.832 85.5331 97.832 84.9652C97.832 84.3578 97.4403 83.9776 96.7303 83.9776H95.5845C95.2369 83.9776 95.0851 84.1307 95.0851 84.5109V87.6418C95.0851 87.785 95.183 87.8541 95.3201 87.8541C95.4523 87.8541 95.5454 87.785 95.5454 87.6467V86.0961H96.4463C97.4256 86.0961 97.345 87.5695 97.4256 87.8047C97.4548 87.8902 97.5333 87.9331 97.6165 87.9331C97.6508 87.9331 97.69 87.9282 97.7242 87.9183C97.8222 87.8936 97.8858 87.8451 97.8858 87.7513C97.8858 87.7217 97.8809 87.6714 97.8711 87.6418L97.7242 86.9331ZM95.5454 85.6912V84.5603C95.5454 84.4418 95.6041 84.3875 95.7069 84.3875H96.7009C97.1367 84.3875 97.3619 84.6146 97.3619 85.0344C97.3619 85.4294 97.0877 85.6912 96.6715 85.6912H95.5454Z" fill="#5C5C5C"/>
<path d="M100.87 86.0521H102.54C102.657 86.0521 102.731 85.9583 102.731 85.8447C102.731 85.7212 102.662 85.6323 102.54 85.6323H100.87V84.6101C100.87 84.4916 100.919 84.4373 101.036 84.4373H102.76C102.887 84.4373 102.956 84.3435 102.956 84.22C102.956 84.0966 102.887 84.0077 102.76 84.0077H100.909C100.561 84.0077 100.41 84.1608 100.41 84.541V87.3262C100.41 87.7015 100.561 87.8545 100.909 87.8545H102.804C102.931 87.8545 103 87.7558 103 87.6373C103 87.5138 102.931 87.4249 102.804 87.4249H101.051C100.943 87.4249 100.87 87.3805 100.87 87.2669V86.0521Z" fill="#5C5C5C"/>
<defs>
<radialGradient id="paint0_radial_615_992" cx="0" cy="0" r="1" gradientUnits="userSpaceOnUse" gradientTransform="translate(50.141 50.141) rotate(85.3036) scale(96.1056)">
<stop stop-color="#DADADA"/>
<stop offset="1" stop-color="#FAFAFA"/>
</radialGradient>
</defs>
</svg>
