<svg width="768" height="654" viewBox="0 0 768 654" fill="none" xmlns="http://www.w3.org/2000/svg">
<rect x="-485" y="326.949" width="477.933" height="477.933" rx="28.2072" transform="rotate(-45 -485 326.949)" fill="url(#paint0_radial_615_992)" fill-opacity="0.15"/>
<rect x="616" y="365.896" width="16.8232" height="16.8232" rx="3.76881" transform="rotate(-45 616 365.896)" fill="url(#paint1_radial_615_992)" fill-opacity="0.5"/>
<rect x="647.331" y="365.896" width="16.8232" height="16.8232" rx="3.76881" transform="rotate(-45 647.331 365.896)" fill="url(#paint2_radial_615_992)" fill-opacity="0.5"/>
<rect x="678.659" y="365.896" width="16.8232" height="16.8232" rx="3.76881" transform="rotate(-45 678.659 365.896)" fill="url(#paint3_radial_615_992)" fill-opacity="0.5"/>
<rect x="709.994" y="365.896" width="16.8232" height="16.8232" rx="3.76881" transform="rotate(-45 709.994 365.896)" fill="url(#paint4_radial_615_992)" fill-opacity="0.5"/>
<rect x="741.32" y="365.896" width="16.8232" height="16.8232" rx="3.76881" transform="rotate(-45 741.32 365.896)" fill="url(#paint5_radial_615_992)" fill-opacity="0.5"/>
<rect x="616" y="429.966" width="16.8232" height="16.8232" rx="3.76881" transform="rotate(-45 616 429.966)" fill="url(#paint6_radial_615_992)" fill-opacity="0.5"/>
<rect x="647.331" y="429.966" width="16.8232" height="16.8232" rx="3.76881" transform="rotate(-45 647.331 429.966)" fill="url(#paint7_radial_615_992)" fill-opacity="0.5"/>
<rect x="678.659" y="429.966" width="16.8232" height="16.8232" rx="3.76881" transform="rotate(-45 678.659 429.966)" fill="url(#paint8_radial_615_992)" fill-opacity="0.5"/>
<rect x="709.994" y="429.966" width="16.8232" height="16.8232" rx="3.76881" transform="rotate(-45 709.994 429.966)" fill="url(#paint9_radial_615_992)" fill-opacity="0.5"/>
<rect x="741.32" y="429.966" width="16.8232" height="16.8232" rx="3.76881" transform="rotate(-45 741.32 429.966)" fill="url(#paint10_radial_615_992)" fill-opacity="0.5"/>
<rect x="616" y="494.035" width="16.8232" height="16.8232" rx="3.76881" transform="rotate(-45 616 494.035)" fill="url(#paint11_radial_615_992)" fill-opacity="0.5"/>
<rect x="647.331" y="494.035" width="16.8232" height="16.8232" rx="3.76881" transform="rotate(-45 647.331 494.035)" fill="url(#paint12_radial_615_992)" fill-opacity="0.5"/>
<rect x="678.659" y="494.035" width="16.8232" height="16.8232" rx="3.76881" transform="rotate(-45 678.659 494.035)" fill="url(#paint13_radial_615_992)" fill-opacity="0.5"/>
<rect x="709.994" y="494.035" width="16.8232" height="16.8232" rx="3.76881" transform="rotate(-45 709.994 494.035)" fill="url(#paint14_radial_615_992)" fill-opacity="0.5"/>
<rect x="741.32" y="494.035" width="16.8232" height="16.8232" rx="3.76881" transform="rotate(-45 741.32 494.035)" fill="url(#paint15_radial_615_992)" fill-opacity="0.5"/>
<rect x="616" y="397.931" width="16.8232" height="16.8232" rx="3.76881" transform="rotate(-45 616 397.931)" fill="url(#paint16_radial_615_992)" fill-opacity="0.5"/>
<rect x="647.331" y="397.931" width="16.8232" height="16.8232" rx="3.76881" transform="rotate(-45 647.331 397.931)" fill="url(#paint17_radial_615_992)" fill-opacity="0.5"/>
<rect x="678.659" y="397.931" width="16.8232" height="16.8232" rx="3.76881" transform="rotate(-45 678.659 397.931)" fill="url(#paint18_radial_615_992)" fill-opacity="0.5"/>
<rect x="709.994" y="397.931" width="16.8232" height="16.8232" rx="3.76881" transform="rotate(-45 709.994 397.931)" fill="url(#paint19_radial_615_992)" fill-opacity="0.5"/>
<rect x="741.32" y="397.931" width="16.8232" height="16.8232" rx="3.76881" transform="rotate(-45 741.32 397.931)" fill="url(#paint20_radial_615_992)" fill-opacity="0.5"/>
<rect x="616" y="462.001" width="16.8232" height="16.8232" rx="3.76881" transform="rotate(-45 616 462.001)" fill="url(#paint21_radial_615_992)" fill-opacity="0.5"/>
<rect x="647.331" y="462.001" width="16.8232" height="16.8232" rx="3.76881" transform="rotate(-45 647.331 462.001)" fill="url(#paint22_radial_615_992)" fill-opacity="0.5"/>
<rect x="678.659" y="462.001" width="16.8232" height="16.8232" rx="3.76881" transform="rotate(-45 678.659 462.001)" fill="url(#paint23_radial_615_992)" fill-opacity="0.5"/>
<rect x="709.994" y="462.001" width="16.8232" height="16.8232" rx="3.76881" transform="rotate(-45 709.994 462.001)" fill="url(#paint24_radial_615_992)" fill-opacity="0.5"/>
<rect x="741.32" y="462.001" width="16.8232" height="16.8232" rx="3.76881" transform="rotate(-45 741.32 462.001)" fill="url(#paint25_radial_615_992)" fill-opacity="0.5"/>
<rect x="616" y="526.071" width="16.8232" height="16.8232" rx="3.76881" transform="rotate(-45 616 526.071)" fill="url(#paint26_radial_615_992)" fill-opacity="0.5"/>
<rect x="647.331" y="526.07" width="16.8232" height="16.8232" rx="3.76881" transform="rotate(-45 647.331 526.07)" fill="url(#paint27_radial_615_992)" fill-opacity="0.5"/>
<rect x="678.659" y="526.07" width="16.8232" height="16.8232" rx="3.76881" transform="rotate(-45 678.659 526.07)" fill="url(#paint28_radial_615_992)" fill-opacity="0.5"/>
<rect x="709.994" y="526.071" width="16.8232" height="16.8232" rx="3.76881" transform="rotate(-45 709.994 526.071)" fill="url(#paint29_radial_615_992)" fill-opacity="0.5"/>
<rect x="741.32" y="526.07" width="16.8232" height="16.8232" rx="3.76881" transform="rotate(-45 741.32 526.07)" fill="url(#paint30_radial_615_992)" fill-opacity="0.5"/>
<defs>
<radialGradient id="paint0_radial_615_992" cx="0" cy="0" r="1" gradientUnits="userSpaceOnUse" gradientTransform="translate(-246.034 565.915) rotate(85.3036) scale(458.028)">
<stop stop-color="#DADADA"/>
<stop offset="1" stop-color="#FAFAFA"/>
</radialGradient>
<radialGradient id="paint1_radial_615_992" cx="0" cy="0" r="1" gradientUnits="userSpaceOnUse" gradientTransform="translate(624.412 374.307) rotate(85.3036) scale(16.1226)">
<stop stop-color="#F6F5F5"/>
<stop offset="1" stop-color="#FAFAFA"/>
</radialGradient>
<radialGradient id="paint2_radial_615_992" cx="0" cy="0" r="1" gradientUnits="userSpaceOnUse" gradientTransform="translate(655.743 374.307) rotate(85.3036) scale(16.1226)">
<stop stop-color="#F6F5F5"/>
<stop offset="1" stop-color="#FAFAFA"/>
</radialGradient>
<radialGradient id="paint3_radial_615_992" cx="0" cy="0" r="1" gradientUnits="userSpaceOnUse" gradientTransform="translate(687.071 374.307) rotate(85.3036) scale(16.1226)">
<stop stop-color="#F6F5F5"/>
<stop offset="1" stop-color="#FAFAFA"/>
</radialGradient>
<radialGradient id="paint4_radial_615_992" cx="0" cy="0" r="1" gradientUnits="userSpaceOnUse" gradientTransform="translate(718.406 374.307) rotate(85.3036) scale(16.1226)">
<stop stop-color="#F6F5F5"/>
<stop offset="1" stop-color="#FAFAFA"/>
</radialGradient>
<radialGradient id="paint5_radial_615_992" cx="0" cy="0" r="1" gradientUnits="userSpaceOnUse" gradientTransform="translate(749.732 374.307) rotate(85.3036) scale(16.1226)">
<stop stop-color="#F6F5F5"/>
<stop offset="1" stop-color="#FAFAFA"/>
</radialGradient>
<radialGradient id="paint6_radial_615_992" cx="0" cy="0" r="1" gradientUnits="userSpaceOnUse" gradientTransform="translate(624.412 438.378) rotate(85.3036) scale(16.1226)">
<stop stop-color="#F6F5F5"/>
<stop offset="1" stop-color="#FAFAFA"/>
</radialGradient>
<radialGradient id="paint7_radial_615_992" cx="0" cy="0" r="1" gradientUnits="userSpaceOnUse" gradientTransform="translate(655.743 438.378) rotate(85.3036) scale(16.1226)">
<stop stop-color="#F6F5F5"/>
<stop offset="1" stop-color="#FAFAFA"/>
</radialGradient>
<radialGradient id="paint8_radial_615_992" cx="0" cy="0" r="1" gradientUnits="userSpaceOnUse" gradientTransform="translate(687.071 438.378) rotate(85.3036) scale(16.1226)">
<stop stop-color="#F6F5F5"/>
<stop offset="1" stop-color="#FAFAFA"/>
</radialGradient>
<radialGradient id="paint9_radial_615_992" cx="0" cy="0" r="1" gradientUnits="userSpaceOnUse" gradientTransform="translate(718.406 438.378) rotate(85.3036) scale(16.1226)">
<stop stop-color="#F6F5F5"/>
<stop offset="1" stop-color="#FAFAFA"/>
</radialGradient>
<radialGradient id="paint10_radial_615_992" cx="0" cy="0" r="1" gradientUnits="userSpaceOnUse" gradientTransform="translate(749.732 438.378) rotate(85.3036) scale(16.1226)">
<stop stop-color="#F6F5F5"/>
<stop offset="1" stop-color="#FAFAFA"/>
</radialGradient>
<radialGradient id="paint11_radial_615_992" cx="0" cy="0" r="1" gradientUnits="userSpaceOnUse" gradientTransform="translate(624.412 502.447) rotate(85.3036) scale(16.1226)">
<stop stop-color="#F6F5F5"/>
<stop offset="1" stop-color="#FAFAFA"/>
</radialGradient>
<radialGradient id="paint12_radial_615_992" cx="0" cy="0" r="1" gradientUnits="userSpaceOnUse" gradientTransform="translate(655.743 502.447) rotate(85.3036) scale(16.1226)">
<stop stop-color="#F6F5F5"/>
<stop offset="1" stop-color="#FAFAFA"/>
</radialGradient>
<radialGradient id="paint13_radial_615_992" cx="0" cy="0" r="1" gradientUnits="userSpaceOnUse" gradientTransform="translate(687.071 502.447) rotate(85.3036) scale(16.1226)">
<stop stop-color="#F6F5F5"/>
<stop offset="1" stop-color="#FAFAFA"/>
</radialGradient>
<radialGradient id="paint14_radial_615_992" cx="0" cy="0" r="1" gradientUnits="userSpaceOnUse" gradientTransform="translate(718.406 502.447) rotate(85.3036) scale(16.1226)">
<stop stop-color="#F6F5F5"/>
<stop offset="1" stop-color="#FAFAFA"/>
</radialGradient>
<radialGradient id="paint15_radial_615_992" cx="0" cy="0" r="1" gradientUnits="userSpaceOnUse" gradientTransform="translate(749.732 502.447) rotate(85.3036) scale(16.1226)">
<stop stop-color="#F6F5F5"/>
<stop offset="1" stop-color="#FAFAFA"/>
</radialGradient>
<radialGradient id="paint16_radial_615_992" cx="0" cy="0" r="1" gradientUnits="userSpaceOnUse" gradientTransform="translate(624.412 406.343) rotate(85.3036) scale(16.1226)">
<stop stop-color="#F6F5F5"/>
<stop offset="1" stop-color="#FAFAFA"/>
</radialGradient>
<radialGradient id="paint17_radial_615_992" cx="0" cy="0" r="1" gradientUnits="userSpaceOnUse" gradientTransform="translate(655.743 406.343) rotate(85.3036) scale(16.1226)">
<stop stop-color="#F6F5F5"/>
<stop offset="1" stop-color="#FAFAFA"/>
</radialGradient>
<radialGradient id="paint18_radial_615_992" cx="0" cy="0" r="1" gradientUnits="userSpaceOnUse" gradientTransform="translate(687.071 406.343) rotate(85.3036) scale(16.1226)">
<stop stop-color="#F6F5F5"/>
<stop offset="1" stop-color="#FAFAFA"/>
</radialGradient>
<radialGradient id="paint19_radial_615_992" cx="0" cy="0" r="1" gradientUnits="userSpaceOnUse" gradientTransform="translate(718.406 406.343) rotate(85.3036) scale(16.1226)">
<stop stop-color="#F6F5F5"/>
<stop offset="1" stop-color="#FAFAFA"/>
</radialGradient>
<radialGradient id="paint20_radial_615_992" cx="0" cy="0" r="1" gradientUnits="userSpaceOnUse" gradientTransform="translate(749.732 406.343) rotate(85.3036) scale(16.1226)">
<stop stop-color="#F6F5F5"/>
<stop offset="1" stop-color="#FAFAFA"/>
</radialGradient>
<radialGradient id="paint21_radial_615_992" cx="0" cy="0" r="1" gradientUnits="userSpaceOnUse" gradientTransform="translate(624.412 470.413) rotate(85.3036) scale(16.1226)">
<stop stop-color="#F6F5F5"/>
<stop offset="1" stop-color="#FAFAFA"/>
</radialGradient>
<radialGradient id="paint22_radial_615_992" cx="0" cy="0" r="1" gradientUnits="userSpaceOnUse" gradientTransform="translate(655.743 470.413) rotate(85.3036) scale(16.1226)">
<stop stop-color="#F6F5F5"/>
<stop offset="1" stop-color="#FAFAFA"/>
</radialGradient>
<radialGradient id="paint23_radial_615_992" cx="0" cy="0" r="1" gradientUnits="userSpaceOnUse" gradientTransform="translate(687.071 470.413) rotate(85.3036) scale(16.1226)">
<stop stop-color="#F6F5F5"/>
<stop offset="1" stop-color="#FAFAFA"/>
</radialGradient>
<radialGradient id="paint24_radial_615_992" cx="0" cy="0" r="1" gradientUnits="userSpaceOnUse" gradientTransform="translate(718.406 470.413) rotate(85.3036) scale(16.1226)">
<stop stop-color="#F6F5F5"/>
<stop offset="1" stop-color="#FAFAFA"/>
</radialGradient>
<radialGradient id="paint25_radial_615_992" cx="0" cy="0" r="1" gradientUnits="userSpaceOnUse" gradientTransform="translate(749.732 470.413) rotate(85.3036) scale(16.1226)">
<stop stop-color="#F6F5F5"/>
<stop offset="1" stop-color="#FAFAFA"/>
</radialGradient>
<radialGradient id="paint26_radial_615_992" cx="0" cy="0" r="1" gradientUnits="userSpaceOnUse" gradientTransform="translate(624.412 534.482) rotate(85.3036) scale(16.1226)">
<stop stop-color="#F6F5F5"/>
<stop offset="1" stop-color="#FAFAFA"/>
</radialGradient>
<radialGradient id="paint27_radial_615_992" cx="0" cy="0" r="1" gradientUnits="userSpaceOnUse" gradientTransform="translate(655.743 534.482) rotate(85.3036) scale(16.1226)">
<stop stop-color="#F6F5F5"/>
<stop offset="1" stop-color="#FAFAFA"/>
</radialGradient>
<radialGradient id="paint28_radial_615_992" cx="0" cy="0" r="1" gradientUnits="userSpaceOnUse" gradientTransform="translate(687.071 534.482) rotate(85.3036) scale(16.1226)">
<stop stop-color="#F6F5F5"/>
<stop offset="1" stop-color="#FAFAFA"/>
</radialGradient>
<radialGradient id="paint29_radial_615_992" cx="0" cy="0" r="1" gradientUnits="userSpaceOnUse" gradientTransform="translate(718.406 534.482) rotate(85.3036) scale(16.1226)">
<stop stop-color="#F6F5F5"/>
<stop offset="1" stop-color="#FAFAFA"/>
</radialGradient>
<radialGradient id="paint30_radial_615_992" cx="0" cy="0" r="1" gradientUnits="userSpaceOnUse" gradientTransform="translate(749.732 534.482) rotate(85.3036) scale(16.1226)">
<stop stop-color="#F6F5F5"/>
<stop offset="1" stop-color="#FAFAFA"/>
</radialGradient>
</defs>
</svg>
