<svg width="752" height="541" viewBox="0 0 752 541" fill="none" xmlns="http://www.w3.org/2000/svg">
<rect y="11.9626" width="16.9178" height="16.9178" rx="3.78999" transform="rotate(-45 0 11.9626)" fill="url(#paint0_radial_615_992)" fill-opacity="0.6"/>
<rect x="31.5054" y="11.9626" width="16.9178" height="16.9178" rx="3.78999" transform="rotate(-45 31.5054 11.9626)" fill="url(#paint1_radial_615_992)" fill-opacity="0.6"/>
<rect x="63.0105" y="11.9626" width="16.9178" height="16.9178" rx="3.78999" transform="rotate(-45 63.0105 11.9626)" fill="url(#paint2_radial_615_992)" fill-opacity="0.6"/>
<rect x="94.5156" y="11.9626" width="16.9178" height="16.9178" rx="3.78999" transform="rotate(-45 94.5156 11.9626)" fill="url(#paint3_radial_615_992)" fill-opacity="0.6"/>
<rect x="126.027" y="11.9626" width="16.9178" height="16.9178" rx="3.78999" transform="rotate(-45 126.027 11.9626)" fill="url(#paint4_radial_615_992)" fill-opacity="0.6"/>
<rect x="157.526" y="11.9626" width="16.9178" height="16.9178" rx="3.78999" transform="rotate(-45 157.526 11.9626)" fill="url(#paint5_radial_615_992)" fill-opacity="0.6"/>
<rect x="189.038" y="11.9626" width="16.9178" height="16.9178" rx="3.78999" transform="rotate(-45 189.038 11.9626)" fill="url(#paint6_radial_615_992)" fill-opacity="0.6"/>
<rect x="220.543" y="11.9626" width="16.9178" height="16.9178" rx="3.78999" transform="rotate(-45 220.543 11.9626)" fill="url(#paint7_radial_615_992)" fill-opacity="0.6"/>
<rect y="76.3923" width="16.9178" height="16.9178" rx="3.78999" transform="rotate(-45 0 76.3923)" fill="url(#paint8_radial_615_992)" fill-opacity="0.6"/>
<rect x="31.5054" y="76.3923" width="16.9178" height="16.9178" rx="3.78999" transform="rotate(-45 31.5054 76.3923)" fill="url(#paint9_radial_615_992)" fill-opacity="0.6"/>
<rect x="63.0105" y="76.3923" width="16.9178" height="16.9178" rx="3.78999" transform="rotate(-45 63.0105 76.3923)" fill="url(#paint10_radial_615_992)" fill-opacity="0.6"/>
<rect x="94.5156" y="76.3923" width="16.9178" height="16.9178" rx="3.78999" transform="rotate(-45 94.5156 76.3923)" fill="url(#paint11_radial_615_992)" fill-opacity="0.6"/>
<rect x="126.027" y="76.3923" width="16.9178" height="16.9178" rx="3.78999" transform="rotate(-45 126.027 76.3923)" fill="url(#paint12_radial_615_992)" fill-opacity="0.6"/>
<rect x="157.526" y="76.3923" width="16.9178" height="16.9178" rx="3.78999" transform="rotate(-45 157.526 76.3923)" fill="url(#paint13_radial_615_992)" fill-opacity="0.6"/>
<rect x="189.038" y="76.3923" width="16.9178" height="16.9178" rx="3.78999" transform="rotate(-45 189.038 76.3923)" fill="url(#paint14_radial_615_992)" fill-opacity="0.6"/>
<rect x="220.543" y="76.3923" width="16.9178" height="16.9178" rx="3.78999" transform="rotate(-45 220.543 76.3923)" fill="url(#paint15_radial_615_992)" fill-opacity="0.6"/>
<rect y="140.822" width="16.9178" height="16.9178" rx="3.78999" transform="rotate(-45 0 140.822)" fill="url(#paint16_radial_615_992)" fill-opacity="0.6"/>
<rect x="31.5054" y="140.822" width="16.9178" height="16.9178" rx="3.78999" transform="rotate(-45 31.5054 140.822)" fill="url(#paint17_radial_615_992)" fill-opacity="0.6"/>
<rect x="63.0105" y="140.822" width="16.9178" height="16.9178" rx="3.78999" transform="rotate(-45 63.0105 140.822)" fill="url(#paint18_radial_615_992)" fill-opacity="0.6"/>
<rect x="94.5156" y="140.822" width="16.9178" height="16.9178" rx="3.78999" transform="rotate(-45 94.5156 140.822)" fill="url(#paint19_radial_615_992)" fill-opacity="0.6"/>
<rect x="126.027" y="140.822" width="16.9178" height="16.9178" rx="3.78999" transform="rotate(-45 126.027 140.822)" fill="url(#paint20_radial_615_992)" fill-opacity="0.6"/>
<rect x="157.526" y="140.822" width="16.9178" height="16.9178" rx="3.78999" transform="rotate(-45 157.526 140.822)" fill="url(#paint21_radial_615_992)" fill-opacity="0.6"/>
<rect x="189.038" y="140.822" width="16.9178" height="16.9178" rx="3.78999" transform="rotate(-45 189.038 140.822)" fill="url(#paint22_radial_615_992)" fill-opacity="0.6"/>
<rect x="220.543" y="140.822" width="16.9178" height="16.9178" rx="3.78999" transform="rotate(-45 220.543 140.822)" fill="url(#paint23_radial_615_992)" fill-opacity="0.6"/>
<rect y="44.1777" width="16.9178" height="16.9178" rx="3.78999" transform="rotate(-45 0 44.1777)" fill="url(#paint24_radial_615_992)" fill-opacity="0.6"/>
<rect x="31.5054" y="44.1777" width="16.9178" height="16.9178" rx="3.78999" transform="rotate(-45 31.5054 44.1777)" fill="url(#paint25_radial_615_992)" fill-opacity="0.6"/>
<rect x="63.0105" y="44.1777" width="16.9178" height="16.9178" rx="3.78999" transform="rotate(-45 63.0105 44.1777)" fill="url(#paint26_radial_615_992)" fill-opacity="0.6"/>
<rect x="94.5156" y="44.1777" width="16.9178" height="16.9178" rx="3.78999" transform="rotate(-45 94.5156 44.1777)" fill="url(#paint27_radial_615_992)" fill-opacity="0.6"/>
<rect x="126.027" y="44.1777" width="16.9178" height="16.9178" rx="3.78999" transform="rotate(-45 126.027 44.1777)" fill="url(#paint28_radial_615_992)" fill-opacity="0.6"/>
<rect x="157.526" y="44.1777" width="16.9178" height="16.9178" rx="3.78999" transform="rotate(-45 157.526 44.1777)" fill="url(#paint29_radial_615_992)" fill-opacity="0.6"/>
<rect x="189.038" y="44.1777" width="16.9178" height="16.9178" rx="3.78999" transform="rotate(-45 189.038 44.1777)" fill="url(#paint30_radial_615_992)" fill-opacity="0.6"/>
<rect x="220.543" y="44.1777" width="16.9178" height="16.9178" rx="3.78999" transform="rotate(-45 220.543 44.1777)" fill="url(#paint31_radial_615_992)" fill-opacity="0.6"/>
<rect y="108.607" width="16.9178" height="16.9178" rx="3.78999" transform="rotate(-45 0 108.607)" fill="url(#paint32_radial_615_992)" fill-opacity="0.6"/>
<rect x="31.5054" y="108.607" width="16.9178" height="16.9178" rx="3.78999" transform="rotate(-45 31.5054 108.607)" fill="url(#paint33_radial_615_992)" fill-opacity="0.6"/>
<rect x="63.0105" y="108.607" width="16.9178" height="16.9178" rx="3.78999" transform="rotate(-45 63.0105 108.607)" fill="url(#paint34_radial_615_992)" fill-opacity="0.6"/>
<rect x="94.5156" y="108.607" width="16.9178" height="16.9178" rx="3.78999" transform="rotate(-45 94.5156 108.607)" fill="url(#paint35_radial_615_992)" fill-opacity="0.6"/>
<rect x="126.027" y="108.607" width="16.9178" height="16.9178" rx="3.78999" transform="rotate(-45 126.027 108.607)" fill="url(#paint36_radial_615_992)" fill-opacity="0.6"/>
<rect x="157.526" y="108.607" width="16.9178" height="16.9178" rx="3.78999" transform="rotate(-45 157.526 108.607)" fill="url(#paint37_radial_615_992)" fill-opacity="0.6"/>
<rect x="189.038" y="108.607" width="16.9178" height="16.9178" rx="3.78999" transform="rotate(-45 189.038 108.607)" fill="url(#paint38_radial_615_992)" fill-opacity="0.6"/>
<rect x="220.543" y="108.607" width="16.9178" height="16.9178" rx="3.78999" transform="rotate(-45 220.543 108.607)" fill="url(#paint39_radial_615_992)" fill-opacity="0.6"/>
<rect y="173.038" width="16.9178" height="16.9178" rx="3.78999" transform="rotate(-45 0 173.038)" fill="url(#paint40_radial_615_992)" fill-opacity="0.6"/>
<rect x="31.5054" y="173.038" width="16.9178" height="16.9178" rx="3.78999" transform="rotate(-45 31.5054 173.038)" fill="url(#paint41_radial_615_992)" fill-opacity="0.6"/>
<rect x="63.0105" y="173.038" width="16.9178" height="16.9178" rx="3.78999" transform="rotate(-45 63.0105 173.038)" fill="url(#paint42_radial_615_992)" fill-opacity="0.6"/>
<rect x="94.5156" y="173.038" width="16.9178" height="16.9178" rx="3.78999" transform="rotate(-45 94.5156 173.038)" fill="url(#paint43_radial_615_992)" fill-opacity="0.6"/>
<rect x="126.027" y="173.038" width="16.9178" height="16.9178" rx="3.78999" transform="rotate(-45 126.027 173.038)" fill="url(#paint44_radial_615_992)" fill-opacity="0.6"/>
<rect x="157.526" y="173.038" width="16.9178" height="16.9178" rx="3.78999" transform="rotate(-45 157.526 173.038)" fill="url(#paint45_radial_615_992)" fill-opacity="0.6"/>
<rect x="189.038" y="173.038" width="16.9178" height="16.9178" rx="3.78999" transform="rotate(-45 189.038 173.038)" fill="url(#paint46_radial_615_992)" fill-opacity="0.6"/>
<rect x="220.543" y="173.038" width="16.9178" height="16.9178" rx="3.78999" transform="rotate(-45 220.543 173.038)" fill="url(#paint47_radial_615_992)" fill-opacity="0.6"/>
<rect x="434" y="217.373" width="31.6408" height="31.6408" rx="7.0883" transform="rotate(-45 434 217.373)" fill="url(#paint48_radial_615_992)" fill-opacity="0.6"/>
<rect x="492.934" y="217.373" width="31.6408" height="31.6408" rx="7.0883" transform="rotate(-45 492.934 217.373)" fill="url(#paint49_radial_615_992)" fill-opacity="0.6"/>
<rect x="551.854" y="217.373" width="31.6408" height="31.6408" rx="7.0883" transform="rotate(-45 551.854 217.373)" fill="url(#paint50_radial_615_992)" fill-opacity="0.6"/>
<rect x="610.773" y="217.373" width="31.6408" height="31.6408" rx="7.0883" transform="rotate(-45 610.773 217.373)" fill="url(#paint51_radial_615_992)" fill-opacity="0.6"/>
<rect x="669.707" y="217.373" width="31.6408" height="31.6408" rx="7.0883" transform="rotate(-45 669.707 217.373)" fill="url(#paint52_radial_615_992)" fill-opacity="0.6"/>
<rect x="728.626" y="217.373" width="31.6408" height="31.6408" rx="7.0883" transform="rotate(-45 728.626 217.373)" fill="url(#paint53_radial_615_992)" fill-opacity="0.6"/>
<rect x="434" y="337.875" width="31.6408" height="31.6408" rx="7.0883" transform="rotate(-45 434 337.875)" fill="url(#paint54_radial_615_992)" fill-opacity="0.6"/>
<rect x="492.934" y="337.875" width="31.6408" height="31.6408" rx="7.0883" transform="rotate(-45 492.934 337.875)" fill="url(#paint55_radial_615_992)" fill-opacity="0.6"/>
<rect x="551.854" y="337.875" width="31.6408" height="31.6408" rx="7.0883" transform="rotate(-45 551.854 337.875)" fill="url(#paint56_radial_615_992)" fill-opacity="0.6"/>
<rect x="610.773" y="337.875" width="31.6408" height="31.6408" rx="7.0883" transform="rotate(-45 610.773 337.875)" fill="url(#paint57_radial_615_992)" fill-opacity="0.6"/>
<rect x="669.707" y="337.875" width="31.6408" height="31.6408" rx="7.0883" transform="rotate(-45 669.707 337.875)" fill="url(#paint58_radial_615_992)" fill-opacity="0.6"/>
<rect x="728.626" y="337.875" width="31.6408" height="31.6408" rx="7.0883" transform="rotate(-45 728.626 337.875)" fill="url(#paint59_radial_615_992)" fill-opacity="0.6"/>
<rect x="434" y="458.376" width="31.6408" height="31.6408" rx="7.0883" transform="rotate(-45 434 458.376)" fill="url(#paint60_radial_615_992)" fill-opacity="0.6"/>
<rect x="492.934" y="458.375" width="31.6408" height="31.6408" rx="7.0883" transform="rotate(-45 492.934 458.375)" fill="url(#paint61_radial_615_992)" fill-opacity="0.6"/>
<rect x="551.854" y="458.375" width="31.6408" height="31.6408" rx="7.0883" transform="rotate(-45 551.854 458.375)" fill="url(#paint62_radial_615_992)" fill-opacity="0.6"/>
<rect x="610.773" y="458.375" width="31.6408" height="31.6408" rx="7.0883" transform="rotate(-45 610.773 458.375)" fill="url(#paint63_radial_615_992)" fill-opacity="0.6"/>
<rect x="669.707" y="458.375" width="31.6408" height="31.6408" rx="7.0883" transform="rotate(-45 669.707 458.375)" fill="url(#paint64_radial_615_992)" fill-opacity="0.6"/>
<rect x="728.626" y="458.376" width="31.6408" height="31.6408" rx="7.0883" transform="rotate(-45 728.626 458.376)" fill="url(#paint65_radial_615_992)" fill-opacity="0.6"/>
<rect x="434" y="277.624" width="31.6408" height="31.6408" rx="7.0883" transform="rotate(-45 434 277.624)" fill="url(#paint66_radial_615_992)" fill-opacity="0.6"/>
<rect x="492.934" y="277.624" width="31.6408" height="31.6408" rx="7.0883" transform="rotate(-45 492.934 277.624)" fill="url(#paint67_radial_615_992)" fill-opacity="0.6"/>
<rect x="551.854" y="277.624" width="31.6408" height="31.6408" rx="7.0883" transform="rotate(-45 551.854 277.624)" fill="url(#paint68_radial_615_992)" fill-opacity="0.6"/>
<rect x="610.773" y="277.624" width="31.6408" height="31.6408" rx="7.0883" transform="rotate(-45 610.773 277.624)" fill="url(#paint69_radial_615_992)" fill-opacity="0.6"/>
<rect x="669.707" y="277.624" width="31.6408" height="31.6408" rx="7.0883" transform="rotate(-45 669.707 277.624)" fill="url(#paint70_radial_615_992)" fill-opacity="0.6"/>
<rect x="728.626" y="277.624" width="31.6408" height="31.6408" rx="7.0883" transform="rotate(-45 728.626 277.624)" fill="url(#paint71_radial_615_992)" fill-opacity="0.6"/>
<rect x="434" y="398.126" width="31.6408" height="31.6408" rx="7.0883" transform="rotate(-45 434 398.126)" fill="url(#paint72_radial_615_992)" fill-opacity="0.6"/>
<rect x="492.934" y="398.125" width="31.6408" height="31.6408" rx="7.0883" transform="rotate(-45 492.934 398.125)" fill="url(#paint73_radial_615_992)" fill-opacity="0.6"/>
<rect x="551.854" y="398.125" width="31.6408" height="31.6408" rx="7.0883" transform="rotate(-45 551.854 398.125)" fill="url(#paint74_radial_615_992)" fill-opacity="0.6"/>
<rect x="610.773" y="398.125" width="31.6408" height="31.6408" rx="7.0883" transform="rotate(-45 610.773 398.125)" fill="url(#paint75_radial_615_992)" fill-opacity="0.6"/>
<rect x="669.707" y="398.125" width="31.6408" height="31.6408" rx="7.0883" transform="rotate(-45 669.707 398.125)" fill="url(#paint76_radial_615_992)" fill-opacity="0.6"/>
<rect x="728.626" y="398.126" width="31.6408" height="31.6408" rx="7.0883" transform="rotate(-45 728.626 398.126)" fill="url(#paint77_radial_615_992)" fill-opacity="0.6"/>
<rect x="434" y="518.627" width="31.6408" height="31.6408" rx="7.0883" transform="rotate(-45 434 518.627)" fill="url(#paint78_radial_615_992)" fill-opacity="0.6"/>
<rect x="492.934" y="518.627" width="31.6408" height="31.6408" rx="7.0883" transform="rotate(-45 492.934 518.627)" fill="url(#paint79_radial_615_992)" fill-opacity="0.6"/>
<rect x="551.854" y="518.627" width="31.6408" height="31.6408" rx="7.0883" transform="rotate(-45 551.854 518.627)" fill="url(#paint80_radial_615_992)" fill-opacity="0.6"/>
<rect x="610.773" y="518.627" width="31.6408" height="31.6408" rx="7.0883" transform="rotate(-45 610.773 518.627)" fill="url(#paint81_radial_615_992)" fill-opacity="0.6"/>
<rect x="669.707" y="518.627" width="31.6408" height="31.6408" rx="7.0883" transform="rotate(-45 669.707 518.627)" fill="url(#paint82_radial_615_992)" fill-opacity="0.6"/>
<rect x="728.626" y="518.627" width="31.6408" height="31.6408" rx="7.0883" transform="rotate(-45 728.626 518.627)" fill="url(#paint83_radial_615_992)" fill-opacity="0.6"/>
<defs>
<radialGradient id="paint0_radial_615_992" cx="0" cy="0" r="1" gradientUnits="userSpaceOnUse" gradientTransform="translate(8.45889 20.4215) rotate(85.3036) scale(16.2132)">
<stop stop-color="white"/>
<stop offset="1" stop-color="#FAFAFA"/>
</radialGradient>
<radialGradient id="paint1_radial_615_992" cx="0" cy="0" r="1" gradientUnits="userSpaceOnUse" gradientTransform="translate(39.9643 20.4215) rotate(85.3036) scale(16.2132)">
<stop stop-color="white"/>
<stop offset="1" stop-color="#FAFAFA"/>
</radialGradient>
<radialGradient id="paint2_radial_615_992" cx="0" cy="0" r="1" gradientUnits="userSpaceOnUse" gradientTransform="translate(71.4694 20.4215) rotate(85.3036) scale(16.2132)">
<stop stop-color="white"/>
<stop offset="1" stop-color="#FAFAFA"/>
</radialGradient>
<radialGradient id="paint3_radial_615_992" cx="0" cy="0" r="1" gradientUnits="userSpaceOnUse" gradientTransform="translate(102.975 20.4215) rotate(85.3036) scale(16.2132)">
<stop stop-color="white"/>
<stop offset="1" stop-color="#FAFAFA"/>
</radialGradient>
<radialGradient id="paint4_radial_615_992" cx="0" cy="0" r="1" gradientUnits="userSpaceOnUse" gradientTransform="translate(134.486 20.4215) rotate(85.3036) scale(16.2132)">
<stop stop-color="white"/>
<stop offset="1" stop-color="#FAFAFA"/>
</radialGradient>
<radialGradient id="paint5_radial_615_992" cx="0" cy="0" r="1" gradientUnits="userSpaceOnUse" gradientTransform="translate(165.985 20.4215) rotate(85.3036) scale(16.2132)">
<stop stop-color="white"/>
<stop offset="1" stop-color="#FAFAFA"/>
</radialGradient>
<radialGradient id="paint6_radial_615_992" cx="0" cy="0" r="1" gradientUnits="userSpaceOnUse" gradientTransform="translate(197.497 20.4215) rotate(85.3036) scale(16.2132)">
<stop stop-color="white"/>
<stop offset="1" stop-color="#FAFAFA"/>
</radialGradient>
<radialGradient id="paint7_radial_615_992" cx="0" cy="0" r="1" gradientUnits="userSpaceOnUse" gradientTransform="translate(229.002 20.4215) rotate(85.3036) scale(16.2132)">
<stop stop-color="white"/>
<stop offset="1" stop-color="#FAFAFA"/>
</radialGradient>
<radialGradient id="paint8_radial_615_992" cx="0" cy="0" r="1" gradientUnits="userSpaceOnUse" gradientTransform="translate(8.45889 84.8512) rotate(85.3036) scale(16.2132)">
<stop stop-color="white"/>
<stop offset="1" stop-color="#FAFAFA"/>
</radialGradient>
<radialGradient id="paint9_radial_615_992" cx="0" cy="0" r="1" gradientUnits="userSpaceOnUse" gradientTransform="translate(39.9643 84.8512) rotate(85.3036) scale(16.2132)">
<stop stop-color="white"/>
<stop offset="1" stop-color="#FAFAFA"/>
</radialGradient>
<radialGradient id="paint10_radial_615_992" cx="0" cy="0" r="1" gradientUnits="userSpaceOnUse" gradientTransform="translate(71.4694 84.8512) rotate(85.3036) scale(16.2132)">
<stop stop-color="white"/>
<stop offset="1" stop-color="#FAFAFA"/>
</radialGradient>
<radialGradient id="paint11_radial_615_992" cx="0" cy="0" r="1" gradientUnits="userSpaceOnUse" gradientTransform="translate(102.975 84.8512) rotate(85.3036) scale(16.2132)">
<stop stop-color="white"/>
<stop offset="1" stop-color="#FAFAFA"/>
</radialGradient>
<radialGradient id="paint12_radial_615_992" cx="0" cy="0" r="1" gradientUnits="userSpaceOnUse" gradientTransform="translate(134.486 84.8512) rotate(85.3036) scale(16.2132)">
<stop stop-color="white"/>
<stop offset="1" stop-color="#FAFAFA"/>
</radialGradient>
<radialGradient id="paint13_radial_615_992" cx="0" cy="0" r="1" gradientUnits="userSpaceOnUse" gradientTransform="translate(165.985 84.8512) rotate(85.3036) scale(16.2132)">
<stop stop-color="white"/>
<stop offset="1" stop-color="#FAFAFA"/>
</radialGradient>
<radialGradient id="paint14_radial_615_992" cx="0" cy="0" r="1" gradientUnits="userSpaceOnUse" gradientTransform="translate(197.497 84.8512) rotate(85.3036) scale(16.2132)">
<stop stop-color="white"/>
<stop offset="1" stop-color="#FAFAFA"/>
</radialGradient>
<radialGradient id="paint15_radial_615_992" cx="0" cy="0" r="1" gradientUnits="userSpaceOnUse" gradientTransform="translate(229.002 84.8512) rotate(85.3036) scale(16.2132)">
<stop stop-color="white"/>
<stop offset="1" stop-color="#FAFAFA"/>
</radialGradient>
<radialGradient id="paint16_radial_615_992" cx="0" cy="0" r="1" gradientUnits="userSpaceOnUse" gradientTransform="translate(8.45889 149.28) rotate(85.3036) scale(16.2132)">
<stop stop-color="white"/>
<stop offset="1" stop-color="#FAFAFA"/>
</radialGradient>
<radialGradient id="paint17_radial_615_992" cx="0" cy="0" r="1" gradientUnits="userSpaceOnUse" gradientTransform="translate(39.9643 149.28) rotate(85.3036) scale(16.2132)">
<stop stop-color="white"/>
<stop offset="1" stop-color="#FAFAFA"/>
</radialGradient>
<radialGradient id="paint18_radial_615_992" cx="0" cy="0" r="1" gradientUnits="userSpaceOnUse" gradientTransform="translate(71.4694 149.28) rotate(85.3036) scale(16.2132)">
<stop stop-color="white"/>
<stop offset="1" stop-color="#FAFAFA"/>
</radialGradient>
<radialGradient id="paint19_radial_615_992" cx="0" cy="0" r="1" gradientUnits="userSpaceOnUse" gradientTransform="translate(102.975 149.28) rotate(85.3036) scale(16.2132)">
<stop stop-color="white"/>
<stop offset="1" stop-color="#FAFAFA"/>
</radialGradient>
<radialGradient id="paint20_radial_615_992" cx="0" cy="0" r="1" gradientUnits="userSpaceOnUse" gradientTransform="translate(134.486 149.28) rotate(85.3036) scale(16.2132)">
<stop stop-color="white"/>
<stop offset="1" stop-color="#FAFAFA"/>
</radialGradient>
<radialGradient id="paint21_radial_615_992" cx="0" cy="0" r="1" gradientUnits="userSpaceOnUse" gradientTransform="translate(165.985 149.28) rotate(85.3036) scale(16.2132)">
<stop stop-color="white"/>
<stop offset="1" stop-color="#FAFAFA"/>
</radialGradient>
<radialGradient id="paint22_radial_615_992" cx="0" cy="0" r="1" gradientUnits="userSpaceOnUse" gradientTransform="translate(197.497 149.28) rotate(85.3036) scale(16.2132)">
<stop stop-color="white"/>
<stop offset="1" stop-color="#FAFAFA"/>
</radialGradient>
<radialGradient id="paint23_radial_615_992" cx="0" cy="0" r="1" gradientUnits="userSpaceOnUse" gradientTransform="translate(229.002 149.28) rotate(85.3036) scale(16.2132)">
<stop stop-color="white"/>
<stop offset="1" stop-color="#FAFAFA"/>
</radialGradient>
<radialGradient id="paint24_radial_615_992" cx="0" cy="0" r="1" gradientUnits="userSpaceOnUse" gradientTransform="translate(8.45889 52.6366) rotate(85.3036) scale(16.2132)">
<stop stop-color="white"/>
<stop offset="1" stop-color="#FAFAFA"/>
</radialGradient>
<radialGradient id="paint25_radial_615_992" cx="0" cy="0" r="1" gradientUnits="userSpaceOnUse" gradientTransform="translate(39.9643 52.6366) rotate(85.3036) scale(16.2132)">
<stop stop-color="white"/>
<stop offset="1" stop-color="#FAFAFA"/>
</radialGradient>
<radialGradient id="paint26_radial_615_992" cx="0" cy="0" r="1" gradientUnits="userSpaceOnUse" gradientTransform="translate(71.4694 52.6366) rotate(85.3036) scale(16.2132)">
<stop stop-color="white"/>
<stop offset="1" stop-color="#FAFAFA"/>
</radialGradient>
<radialGradient id="paint27_radial_615_992" cx="0" cy="0" r="1" gradientUnits="userSpaceOnUse" gradientTransform="translate(102.975 52.6366) rotate(85.3036) scale(16.2132)">
<stop stop-color="white"/>
<stop offset="1" stop-color="#FAFAFA"/>
</radialGradient>
<radialGradient id="paint28_radial_615_992" cx="0" cy="0" r="1" gradientUnits="userSpaceOnUse" gradientTransform="translate(134.486 52.6366) rotate(85.3036) scale(16.2132)">
<stop stop-color="white"/>
<stop offset="1" stop-color="#FAFAFA"/>
</radialGradient>
<radialGradient id="paint29_radial_615_992" cx="0" cy="0" r="1" gradientUnits="userSpaceOnUse" gradientTransform="translate(165.985 52.6366) rotate(85.3036) scale(16.2132)">
<stop stop-color="white"/>
<stop offset="1" stop-color="#FAFAFA"/>
</radialGradient>
<radialGradient id="paint30_radial_615_992" cx="0" cy="0" r="1" gradientUnits="userSpaceOnUse" gradientTransform="translate(197.497 52.6366) rotate(85.3036) scale(16.2132)">
<stop stop-color="white"/>
<stop offset="1" stop-color="#FAFAFA"/>
</radialGradient>
<radialGradient id="paint31_radial_615_992" cx="0" cy="0" r="1" gradientUnits="userSpaceOnUse" gradientTransform="translate(229.002 52.6366) rotate(85.3036) scale(16.2132)">
<stop stop-color="white"/>
<stop offset="1" stop-color="#FAFAFA"/>
</radialGradient>
<radialGradient id="paint32_radial_615_992" cx="0" cy="0" r="1" gradientUnits="userSpaceOnUse" gradientTransform="translate(8.45889 117.066) rotate(85.3036) scale(16.2132)">
<stop stop-color="white"/>
<stop offset="1" stop-color="#FAFAFA"/>
</radialGradient>
<radialGradient id="paint33_radial_615_992" cx="0" cy="0" r="1" gradientUnits="userSpaceOnUse" gradientTransform="translate(39.9643 117.066) rotate(85.3036) scale(16.2132)">
<stop stop-color="white"/>
<stop offset="1" stop-color="#FAFAFA"/>
</radialGradient>
<radialGradient id="paint34_radial_615_992" cx="0" cy="0" r="1" gradientUnits="userSpaceOnUse" gradientTransform="translate(71.4694 117.066) rotate(85.3036) scale(16.2132)">
<stop stop-color="white"/>
<stop offset="1" stop-color="#FAFAFA"/>
</radialGradient>
<radialGradient id="paint35_radial_615_992" cx="0" cy="0" r="1" gradientUnits="userSpaceOnUse" gradientTransform="translate(102.975 117.066) rotate(85.3036) scale(16.2132)">
<stop stop-color="white"/>
<stop offset="1" stop-color="#FAFAFA"/>
</radialGradient>
<radialGradient id="paint36_radial_615_992" cx="0" cy="0" r="1" gradientUnits="userSpaceOnUse" gradientTransform="translate(134.486 117.066) rotate(85.3036) scale(16.2132)">
<stop stop-color="white"/>
<stop offset="1" stop-color="#FAFAFA"/>
</radialGradient>
<radialGradient id="paint37_radial_615_992" cx="0" cy="0" r="1" gradientUnits="userSpaceOnUse" gradientTransform="translate(165.985 117.066) rotate(85.3036) scale(16.2132)">
<stop stop-color="white"/>
<stop offset="1" stop-color="#FAFAFA"/>
</radialGradient>
<radialGradient id="paint38_radial_615_992" cx="0" cy="0" r="1" gradientUnits="userSpaceOnUse" gradientTransform="translate(197.497 117.066) rotate(85.3036) scale(16.2132)">
<stop stop-color="white"/>
<stop offset="1" stop-color="#FAFAFA"/>
</radialGradient>
<radialGradient id="paint39_radial_615_992" cx="0" cy="0" r="1" gradientUnits="userSpaceOnUse" gradientTransform="translate(229.002 117.066) rotate(85.3036) scale(16.2132)">
<stop stop-color="white"/>
<stop offset="1" stop-color="#FAFAFA"/>
</radialGradient>
<radialGradient id="paint40_radial_615_992" cx="0" cy="0" r="1" gradientUnits="userSpaceOnUse" gradientTransform="translate(8.45889 181.496) rotate(85.3036) scale(16.2132)">
<stop stop-color="white"/>
<stop offset="1" stop-color="#FAFAFA"/>
</radialGradient>
<radialGradient id="paint41_radial_615_992" cx="0" cy="0" r="1" gradientUnits="userSpaceOnUse" gradientTransform="translate(39.9643 181.496) rotate(85.3036) scale(16.2132)">
<stop stop-color="white"/>
<stop offset="1" stop-color="#FAFAFA"/>
</radialGradient>
<radialGradient id="paint42_radial_615_992" cx="0" cy="0" r="1" gradientUnits="userSpaceOnUse" gradientTransform="translate(71.4694 181.496) rotate(85.3036) scale(16.2132)">
<stop stop-color="white"/>
<stop offset="1" stop-color="#FAFAFA"/>
</radialGradient>
<radialGradient id="paint43_radial_615_992" cx="0" cy="0" r="1" gradientUnits="userSpaceOnUse" gradientTransform="translate(102.975 181.496) rotate(85.3036) scale(16.2132)">
<stop stop-color="white"/>
<stop offset="1" stop-color="#FAFAFA"/>
</radialGradient>
<radialGradient id="paint44_radial_615_992" cx="0" cy="0" r="1" gradientUnits="userSpaceOnUse" gradientTransform="translate(134.486 181.496) rotate(85.3036) scale(16.2132)">
<stop stop-color="white"/>
<stop offset="1" stop-color="#FAFAFA"/>
</radialGradient>
<radialGradient id="paint45_radial_615_992" cx="0" cy="0" r="1" gradientUnits="userSpaceOnUse" gradientTransform="translate(165.985 181.496) rotate(85.3036) scale(16.2132)">
<stop stop-color="white"/>
<stop offset="1" stop-color="#FAFAFA"/>
</radialGradient>
<radialGradient id="paint46_radial_615_992" cx="0" cy="0" r="1" gradientUnits="userSpaceOnUse" gradientTransform="translate(197.497 181.496) rotate(85.3036) scale(16.2132)">
<stop stop-color="white"/>
<stop offset="1" stop-color="#FAFAFA"/>
</radialGradient>
<radialGradient id="paint47_radial_615_992" cx="0" cy="0" r="1" gradientUnits="userSpaceOnUse" gradientTransform="translate(229.002 181.496) rotate(85.3036) scale(16.2132)">
<stop stop-color="white"/>
<stop offset="1" stop-color="#FAFAFA"/>
</radialGradient>
<radialGradient id="paint48_radial_615_992" cx="0" cy="0" r="1" gradientUnits="userSpaceOnUse" gradientTransform="translate(449.82 233.194) rotate(85.3036) scale(30.323)">
<stop stop-color="white"/>
<stop offset="1" stop-color="#FAFAFA"/>
</radialGradient>
<radialGradient id="paint49_radial_615_992" cx="0" cy="0" r="1" gradientUnits="userSpaceOnUse" gradientTransform="translate(508.754 233.194) rotate(85.3036) scale(30.323)">
<stop stop-color="white"/>
<stop offset="1" stop-color="#FAFAFA"/>
</radialGradient>
<radialGradient id="paint50_radial_615_992" cx="0" cy="0" r="1" gradientUnits="userSpaceOnUse" gradientTransform="translate(567.674 233.194) rotate(85.3036) scale(30.323)">
<stop stop-color="white"/>
<stop offset="1" stop-color="#FAFAFA"/>
</radialGradient>
<radialGradient id="paint51_radial_615_992" cx="0" cy="0" r="1" gradientUnits="userSpaceOnUse" gradientTransform="translate(626.593 233.194) rotate(85.3036) scale(30.323)">
<stop stop-color="white"/>
<stop offset="1" stop-color="#FAFAFA"/>
</radialGradient>
<radialGradient id="paint52_radial_615_992" cx="0" cy="0" r="1" gradientUnits="userSpaceOnUse" gradientTransform="translate(685.527 233.194) rotate(85.3036) scale(30.323)">
<stop stop-color="white"/>
<stop offset="1" stop-color="#FAFAFA"/>
</radialGradient>
<radialGradient id="paint53_radial_615_992" cx="0" cy="0" r="1" gradientUnits="userSpaceOnUse" gradientTransform="translate(744.447 233.194) rotate(85.3036) scale(30.323)">
<stop stop-color="white"/>
<stop offset="1" stop-color="#FAFAFA"/>
</radialGradient>
<radialGradient id="paint54_radial_615_992" cx="0" cy="0" r="1" gradientUnits="userSpaceOnUse" gradientTransform="translate(449.82 353.695) rotate(85.3036) scale(30.323)">
<stop stop-color="white"/>
<stop offset="1" stop-color="#FAFAFA"/>
</radialGradient>
<radialGradient id="paint55_radial_615_992" cx="0" cy="0" r="1" gradientUnits="userSpaceOnUse" gradientTransform="translate(508.754 353.695) rotate(85.3036) scale(30.323)">
<stop stop-color="white"/>
<stop offset="1" stop-color="#FAFAFA"/>
</radialGradient>
<radialGradient id="paint56_radial_615_992" cx="0" cy="0" r="1" gradientUnits="userSpaceOnUse" gradientTransform="translate(567.674 353.695) rotate(85.3036) scale(30.323)">
<stop stop-color="white"/>
<stop offset="1" stop-color="#FAFAFA"/>
</radialGradient>
<radialGradient id="paint57_radial_615_992" cx="0" cy="0" r="1" gradientUnits="userSpaceOnUse" gradientTransform="translate(626.593 353.695) rotate(85.3036) scale(30.323)">
<stop stop-color="white"/>
<stop offset="1" stop-color="#FAFAFA"/>
</radialGradient>
<radialGradient id="paint58_radial_615_992" cx="0" cy="0" r="1" gradientUnits="userSpaceOnUse" gradientTransform="translate(685.527 353.695) rotate(85.3036) scale(30.323)">
<stop stop-color="white"/>
<stop offset="1" stop-color="#FAFAFA"/>
</radialGradient>
<radialGradient id="paint59_radial_615_992" cx="0" cy="0" r="1" gradientUnits="userSpaceOnUse" gradientTransform="translate(744.447 353.695) rotate(85.3036) scale(30.323)">
<stop stop-color="white"/>
<stop offset="1" stop-color="#FAFAFA"/>
</radialGradient>
<radialGradient id="paint60_radial_615_992" cx="0" cy="0" r="1" gradientUnits="userSpaceOnUse" gradientTransform="translate(449.82 474.197) rotate(85.3036) scale(30.323)">
<stop stop-color="white"/>
<stop offset="1" stop-color="#FAFAFA"/>
</radialGradient>
<radialGradient id="paint61_radial_615_992" cx="0" cy="0" r="1" gradientUnits="userSpaceOnUse" gradientTransform="translate(508.754 474.196) rotate(85.3036) scale(30.323)">
<stop stop-color="white"/>
<stop offset="1" stop-color="#FAFAFA"/>
</radialGradient>
<radialGradient id="paint62_radial_615_992" cx="0" cy="0" r="1" gradientUnits="userSpaceOnUse" gradientTransform="translate(567.674 474.196) rotate(85.3036) scale(30.323)">
<stop stop-color="white"/>
<stop offset="1" stop-color="#FAFAFA"/>
</radialGradient>
<radialGradient id="paint63_radial_615_992" cx="0" cy="0" r="1" gradientUnits="userSpaceOnUse" gradientTransform="translate(626.593 474.196) rotate(85.3036) scale(30.323)">
<stop stop-color="white"/>
<stop offset="1" stop-color="#FAFAFA"/>
</radialGradient>
<radialGradient id="paint64_radial_615_992" cx="0" cy="0" r="1" gradientUnits="userSpaceOnUse" gradientTransform="translate(685.527 474.196) rotate(85.3036) scale(30.323)">
<stop stop-color="white"/>
<stop offset="1" stop-color="#FAFAFA"/>
</radialGradient>
<radialGradient id="paint65_radial_615_992" cx="0" cy="0" r="1" gradientUnits="userSpaceOnUse" gradientTransform="translate(744.447 474.197) rotate(85.3036) scale(30.323)">
<stop stop-color="white"/>
<stop offset="1" stop-color="#FAFAFA"/>
</radialGradient>
<radialGradient id="paint66_radial_615_992" cx="0" cy="0" r="1" gradientUnits="userSpaceOnUse" gradientTransform="translate(449.82 293.445) rotate(85.3036) scale(30.323)">
<stop stop-color="white"/>
<stop offset="1" stop-color="#FAFAFA"/>
</radialGradient>
<radialGradient id="paint67_radial_615_992" cx="0" cy="0" r="1" gradientUnits="userSpaceOnUse" gradientTransform="translate(508.754 293.445) rotate(85.3036) scale(30.323)">
<stop stop-color="white"/>
<stop offset="1" stop-color="#FAFAFA"/>
</radialGradient>
<radialGradient id="paint68_radial_615_992" cx="0" cy="0" r="1" gradientUnits="userSpaceOnUse" gradientTransform="translate(567.674 293.445) rotate(85.3036) scale(30.323)">
<stop stop-color="white"/>
<stop offset="1" stop-color="#FAFAFA"/>
</radialGradient>
<radialGradient id="paint69_radial_615_992" cx="0" cy="0" r="1" gradientUnits="userSpaceOnUse" gradientTransform="translate(626.593 293.445) rotate(85.3036) scale(30.323)">
<stop stop-color="white"/>
<stop offset="1" stop-color="#FAFAFA"/>
</radialGradient>
<radialGradient id="paint70_radial_615_992" cx="0" cy="0" r="1" gradientUnits="userSpaceOnUse" gradientTransform="translate(685.527 293.445) rotate(85.3036) scale(30.323)">
<stop stop-color="white"/>
<stop offset="1" stop-color="#FAFAFA"/>
</radialGradient>
<radialGradient id="paint71_radial_615_992" cx="0" cy="0" r="1" gradientUnits="userSpaceOnUse" gradientTransform="translate(744.447 293.445) rotate(85.3036) scale(30.323)">
<stop stop-color="white"/>
<stop offset="1" stop-color="#FAFAFA"/>
</radialGradient>
<radialGradient id="paint72_radial_615_992" cx="0" cy="0" r="1" gradientUnits="userSpaceOnUse" gradientTransform="translate(449.82 413.946) rotate(85.3036) scale(30.323)">
<stop stop-color="white"/>
<stop offset="1" stop-color="#FAFAFA"/>
</radialGradient>
<radialGradient id="paint73_radial_615_992" cx="0" cy="0" r="1" gradientUnits="userSpaceOnUse" gradientTransform="translate(508.754 413.945) rotate(85.3036) scale(30.323)">
<stop stop-color="white"/>
<stop offset="1" stop-color="#FAFAFA"/>
</radialGradient>
<radialGradient id="paint74_radial_615_992" cx="0" cy="0" r="1" gradientUnits="userSpaceOnUse" gradientTransform="translate(567.674 413.945) rotate(85.3036) scale(30.323)">
<stop stop-color="white"/>
<stop offset="1" stop-color="#FAFAFA"/>
</radialGradient>
<radialGradient id="paint75_radial_615_992" cx="0" cy="0" r="1" gradientUnits="userSpaceOnUse" gradientTransform="translate(626.593 413.945) rotate(85.3036) scale(30.323)">
<stop stop-color="white"/>
<stop offset="1" stop-color="#FAFAFA"/>
</radialGradient>
<radialGradient id="paint76_radial_615_992" cx="0" cy="0" r="1" gradientUnits="userSpaceOnUse" gradientTransform="translate(685.527 413.945) rotate(85.3036) scale(30.323)">
<stop stop-color="white"/>
<stop offset="1" stop-color="#FAFAFA"/>
</radialGradient>
<radialGradient id="paint77_radial_615_992" cx="0" cy="0" r="1" gradientUnits="userSpaceOnUse" gradientTransform="translate(744.447 413.946) rotate(85.3036) scale(30.323)">
<stop stop-color="white"/>
<stop offset="1" stop-color="#FAFAFA"/>
</radialGradient>
<radialGradient id="paint78_radial_615_992" cx="0" cy="0" r="1" gradientUnits="userSpaceOnUse" gradientTransform="translate(449.82 534.448) rotate(85.3036) scale(30.323)">
<stop stop-color="white"/>
<stop offset="1" stop-color="#FAFAFA"/>
</radialGradient>
<radialGradient id="paint79_radial_615_992" cx="0" cy="0" r="1" gradientUnits="userSpaceOnUse" gradientTransform="translate(508.754 534.448) rotate(85.3036) scale(30.323)">
<stop stop-color="white"/>
<stop offset="1" stop-color="#FAFAFA"/>
</radialGradient>
<radialGradient id="paint80_radial_615_992" cx="0" cy="0" r="1" gradientUnits="userSpaceOnUse" gradientTransform="translate(567.674 534.448) rotate(85.3036) scale(30.323)">
<stop stop-color="white"/>
<stop offset="1" stop-color="#FAFAFA"/>
</radialGradient>
<radialGradient id="paint81_radial_615_992" cx="0" cy="0" r="1" gradientUnits="userSpaceOnUse" gradientTransform="translate(626.593 534.448) rotate(85.3036) scale(30.323)">
<stop stop-color="white"/>
<stop offset="1" stop-color="#FAFAFA"/>
</radialGradient>
<radialGradient id="paint82_radial_615_992" cx="0" cy="0" r="1" gradientUnits="userSpaceOnUse" gradientTransform="translate(685.527 534.448) rotate(85.3036) scale(30.323)">
<stop stop-color="white"/>
<stop offset="1" stop-color="#FAFAFA"/>
</radialGradient>
<radialGradient id="paint83_radial_615_992" cx="0" cy="0" r="1" gradientUnits="userSpaceOnUse" gradientTransform="translate(744.447 534.448) rotate(85.3036) scale(30.323)">
<stop stop-color="white"/>
<stop offset="1" stop-color="#FAFAFA"/>
</radialGradient>
</defs>
</svg>
