<svg width="708" height="380" viewBox="0 0 708 380" fill="none" xmlns="http://www.w3.org/2000/svg">
<g opacity="0.5">
<rect x="491" y="365.88" width="22.4906" height="22.4906" rx="2" transform="rotate(-45 491 365.88)" fill="url(#paint0_radial_1095_516)" fill-opacity="0.3"/>
<rect x="532.887" y="365.88" width="22.4906" height="22.4906" rx="2" transform="rotate(-45 532.887 365.88)" fill="url(#paint1_radial_1095_516)" fill-opacity="0.3"/>
<rect x="574.766" y="365.88" width="22.4906" height="22.4906" rx="2" transform="rotate(-45 574.766 365.88)" fill="url(#paint2_radial_1095_516)" fill-opacity="0.3"/>
<rect x="616.653" y="365.88" width="22.4906" height="22.4906" rx="2" transform="rotate(-45 616.653 365.88)" fill="url(#paint3_radial_1095_516)" fill-opacity="0.3"/>
<rect x="658.544" y="365.88" width="22.4906" height="22.4906" rx="2" transform="rotate(-45 658.544 365.88)" fill="url(#paint4_radial_1095_516)" fill-opacity="0.3"/>
<rect x="700.423" y="365.88" width="22.4906" height="22.4906" rx="2" transform="rotate(-45 700.423 365.88)" fill="url(#paint5_radial_1095_516)" fill-opacity="0.3"/>
</g>
<rect x="-292" y="3.86426" width="499.058" height="499.058" rx="32" transform="rotate(-45 -292 3.86426)" fill="url(#paint6_radial_1095_516)" fill-opacity="0.3"/>
<defs>
<radialGradient id="paint0_radial_1095_516" cx="0" cy="0" r="1" gradientUnits="userSpaceOnUse" gradientTransform="translate(502.245 377.126) rotate(85.3036) scale(21.554)">
<stop stop-color="#D2D2D2"/>
<stop offset="1" stop-color="#FAFAFA"/>
</radialGradient>
<radialGradient id="paint1_radial_1095_516" cx="0" cy="0" r="1" gradientUnits="userSpaceOnUse" gradientTransform="translate(544.132 377.126) rotate(85.3036) scale(21.554)">
<stop stop-color="#D2D2D2"/>
<stop offset="1" stop-color="#FAFAFA"/>
</radialGradient>
<radialGradient id="paint2_radial_1095_516" cx="0" cy="0" r="1" gradientUnits="userSpaceOnUse" gradientTransform="translate(586.012 377.126) rotate(85.3036) scale(21.554)">
<stop stop-color="#D2D2D2"/>
<stop offset="1" stop-color="#FAFAFA"/>
</radialGradient>
<radialGradient id="paint3_radial_1095_516" cx="0" cy="0" r="1" gradientUnits="userSpaceOnUse" gradientTransform="translate(627.898 377.126) rotate(85.3036) scale(21.554)">
<stop stop-color="#D2D2D2"/>
<stop offset="1" stop-color="#FAFAFA"/>
</radialGradient>
<radialGradient id="paint4_radial_1095_516" cx="0" cy="0" r="1" gradientUnits="userSpaceOnUse" gradientTransform="translate(669.789 377.126) rotate(85.3036) scale(21.554)">
<stop stop-color="#D2D2D2"/>
<stop offset="1" stop-color="#FAFAFA"/>
</radialGradient>
<radialGradient id="paint5_radial_1095_516" cx="0" cy="0" r="1" gradientUnits="userSpaceOnUse" gradientTransform="translate(711.669 377.126) rotate(85.3036) scale(21.554)">
<stop stop-color="#D2D2D2"/>
<stop offset="1" stop-color="#FAFAFA"/>
</radialGradient>
<radialGradient id="paint6_radial_1095_516" cx="0" cy="0" r="1" gradientUnits="userSpaceOnUse" gradientTransform="translate(-42.4711 253.393) rotate(85.3036) scale(478.273)">
<stop stop-color="#D2D2D2"/>
<stop offset="1" stop-color="#FAFAFA"/>
</radialGradient>
</defs>
</svg>
