<svg width="1671" height="612" viewBox="0 0 1671 612" fill="none" xmlns="http://www.w3.org/2000/svg">
<rect x="51.0508" y="309.87" width="29.5148" height="29.5148" rx="6.61204" transform="rotate(-45 51.0508 309.87)" fill="url(#paint0_radial_615_992)" fill-opacity="0.5"/>
<rect x="106.02" y="309.87" width="29.5148" height="29.5148" rx="6.61204" transform="rotate(-45 106.02 309.87)" fill="url(#paint1_radial_615_992)" fill-opacity="0.5"/>
<rect x="160.98" y="309.87" width="29.5148" height="29.5148" rx="6.61204" transform="rotate(-45 160.98 309.87)" fill="url(#paint2_radial_615_992)" fill-opacity="0.5"/>
<rect x="215.949" y="309.87" width="29.5148" height="29.5148" rx="6.61204" transform="rotate(-45 215.949 309.87)" fill="url(#paint3_radial_615_992)" fill-opacity="0.5"/>
<rect x="270.914" y="309.87" width="29.5148" height="29.5148" rx="6.61204" transform="rotate(-45 270.914 309.87)" fill="url(#paint4_radial_615_992)" fill-opacity="0.5"/>
<rect x="325.879" y="309.87" width="29.5148" height="29.5148" rx="6.61204" transform="rotate(-45 325.879 309.87)" fill="url(#paint5_radial_615_992)" fill-opacity="0.5"/>
<rect x="380.844" y="309.87" width="29.5148" height="29.5148" rx="6.61204" transform="rotate(-45 380.844 309.87)" fill="url(#paint6_radial_615_992)" fill-opacity="0.5"/>
<rect x="435.812" y="309.87" width="29.5148" height="29.5148" rx="6.61204" transform="rotate(-45 435.812 309.87)" fill="url(#paint7_radial_615_992)" fill-opacity="0.5"/>
<rect x="51.0508" y="422.275" width="29.5148" height="29.5148" rx="6.61204" transform="rotate(-45 51.0508 422.275)" fill="url(#paint8_radial_615_992)" fill-opacity="0.5"/>
<rect x="106.02" y="422.275" width="29.5148" height="29.5148" rx="6.61204" transform="rotate(-45 106.02 422.275)" fill="url(#paint9_radial_615_992)" fill-opacity="0.5"/>
<rect x="160.98" y="422.275" width="29.5148" height="29.5148" rx="6.61204" transform="rotate(-45 160.98 422.275)" fill="url(#paint10_radial_615_992)" fill-opacity="0.5"/>
<rect x="215.949" y="422.275" width="29.5148" height="29.5148" rx="6.61204" transform="rotate(-45 215.949 422.275)" fill="url(#paint11_radial_615_992)" fill-opacity="0.5"/>
<rect x="270.914" y="422.275" width="29.5148" height="29.5148" rx="6.61204" transform="rotate(-45 270.914 422.275)" fill="url(#paint12_radial_615_992)" fill-opacity="0.5"/>
<rect x="325.879" y="422.275" width="29.5148" height="29.5148" rx="6.61204" transform="rotate(-45 325.879 422.275)" fill="url(#paint13_radial_615_992)" fill-opacity="0.5"/>
<rect x="380.844" y="422.275" width="29.5148" height="29.5148" rx="6.61204" transform="rotate(-45 380.844 422.275)" fill="url(#paint14_radial_615_992)" fill-opacity="0.5"/>
<rect x="435.812" y="422.275" width="29.5148" height="29.5148" rx="6.61204" transform="rotate(-45 435.812 422.275)" fill="url(#paint15_radial_615_992)" fill-opacity="0.5"/>
<rect x="51.0508" y="534.68" width="29.5148" height="29.5148" rx="6.61204" transform="rotate(-45 51.0508 534.68)" fill="url(#paint16_radial_615_992)" fill-opacity="0.5"/>
<rect x="106.02" y="534.68" width="29.5148" height="29.5148" rx="6.61204" transform="rotate(-45 106.02 534.68)" fill="url(#paint17_radial_615_992)" fill-opacity="0.5"/>
<rect x="160.98" y="534.68" width="29.5148" height="29.5148" rx="6.61204" transform="rotate(-45 160.98 534.68)" fill="url(#paint18_radial_615_992)" fill-opacity="0.5"/>
<rect x="215.949" y="534.68" width="29.5148" height="29.5148" rx="6.61204" transform="rotate(-45 215.949 534.68)" fill="url(#paint19_radial_615_992)" fill-opacity="0.5"/>
<rect x="270.914" y="534.68" width="29.5148" height="29.5148" rx="6.61204" transform="rotate(-45 270.914 534.68)" fill="url(#paint20_radial_615_992)" fill-opacity="0.5"/>
<rect x="325.879" y="534.68" width="29.5148" height="29.5148" rx="6.61204" transform="rotate(-45 325.879 534.68)" fill="url(#paint21_radial_615_992)" fill-opacity="0.5"/>
<rect x="380.844" y="534.68" width="29.5148" height="29.5148" rx="6.61204" transform="rotate(-45 380.844 534.68)" fill="url(#paint22_radial_615_992)" fill-opacity="0.5"/>
<rect x="435.812" y="534.68" width="29.5148" height="29.5148" rx="6.61204" transform="rotate(-45 435.812 534.68)" fill="url(#paint23_radial_615_992)" fill-opacity="0.5"/>
<rect x="51.0508" y="366.073" width="29.5148" height="29.5148" rx="6.61204" transform="rotate(-45 51.0508 366.073)" fill="url(#paint24_radial_615_992)" fill-opacity="0.5"/>
<rect x="106.02" y="366.073" width="29.5148" height="29.5148" rx="6.61204" transform="rotate(-45 106.02 366.073)" fill="url(#paint25_radial_615_992)" fill-opacity="0.5"/>
<rect x="160.98" y="366.073" width="29.5148" height="29.5148" rx="6.61204" transform="rotate(-45 160.98 366.073)" fill="url(#paint26_radial_615_992)" fill-opacity="0.5"/>
<rect x="215.949" y="366.073" width="29.5148" height="29.5148" rx="6.61204" transform="rotate(-45 215.949 366.073)" fill="url(#paint27_radial_615_992)" fill-opacity="0.5"/>
<rect x="270.914" y="366.073" width="29.5148" height="29.5148" rx="6.61204" transform="rotate(-45 270.914 366.073)" fill="url(#paint28_radial_615_992)" fill-opacity="0.5"/>
<rect x="325.879" y="366.073" width="29.5148" height="29.5148" rx="6.61204" transform="rotate(-45 325.879 366.073)" fill="url(#paint29_radial_615_992)" fill-opacity="0.5"/>
<rect x="380.844" y="366.073" width="29.5148" height="29.5148" rx="6.61204" transform="rotate(-45 380.844 366.073)" fill="url(#paint30_radial_615_992)" fill-opacity="0.5"/>
<rect x="435.812" y="366.073" width="29.5148" height="29.5148" rx="6.61204" transform="rotate(-45 435.812 366.073)" fill="url(#paint31_radial_615_992)" fill-opacity="0.5"/>
<rect x="51.0508" y="478.478" width="29.5148" height="29.5148" rx="6.61204" transform="rotate(-45 51.0508 478.478)" fill="url(#paint32_radial_615_992)" fill-opacity="0.5"/>
<rect x="106.02" y="478.478" width="29.5148" height="29.5148" rx="6.61204" transform="rotate(-45 106.02 478.478)" fill="url(#paint33_radial_615_992)" fill-opacity="0.5"/>
<rect x="160.98" y="478.478" width="29.5148" height="29.5148" rx="6.61204" transform="rotate(-45 160.98 478.478)" fill="url(#paint34_radial_615_992)" fill-opacity="0.5"/>
<rect x="215.949" y="478.478" width="29.5148" height="29.5148" rx="6.61204" transform="rotate(-45 215.949 478.478)" fill="url(#paint35_radial_615_992)" fill-opacity="0.5"/>
<rect x="270.914" y="478.478" width="29.5148" height="29.5148" rx="6.61204" transform="rotate(-45 270.914 478.478)" fill="url(#paint36_radial_615_992)" fill-opacity="0.5"/>
<rect x="325.879" y="478.478" width="29.5148" height="29.5148" rx="6.61204" transform="rotate(-45 325.879 478.478)" fill="url(#paint37_radial_615_992)" fill-opacity="0.5"/>
<rect x="380.844" y="478.478" width="29.5148" height="29.5148" rx="6.61204" transform="rotate(-45 380.844 478.478)" fill="url(#paint38_radial_615_992)" fill-opacity="0.5"/>
<rect x="435.812" y="478.478" width="29.5148" height="29.5148" rx="6.61204" transform="rotate(-45 435.812 478.478)" fill="url(#paint39_radial_615_992)" fill-opacity="0.5"/>
<rect x="51.0508" y="590.882" width="29.5148" height="29.5148" rx="6.61204" transform="rotate(-45 51.0508 590.882)" fill="url(#paint40_radial_615_992)" fill-opacity="0.5"/>
<rect x="106.02" y="590.882" width="29.5148" height="29.5148" rx="6.61204" transform="rotate(-45 106.02 590.882)" fill="url(#paint41_radial_615_992)" fill-opacity="0.5"/>
<rect x="160.98" y="590.882" width="29.5148" height="29.5148" rx="6.61204" transform="rotate(-45 160.98 590.882)" fill="url(#paint42_radial_615_992)" fill-opacity="0.5"/>
<rect x="215.949" y="590.882" width="29.5148" height="29.5148" rx="6.61204" transform="rotate(-45 215.949 590.882)" fill="url(#paint43_radial_615_992)" fill-opacity="0.5"/>
<rect x="270.914" y="590.882" width="29.5148" height="29.5148" rx="6.61204" transform="rotate(-45 270.914 590.882)" fill="url(#paint44_radial_615_992)" fill-opacity="0.5"/>
<rect x="325.879" y="590.882" width="29.5148" height="29.5148" rx="6.61204" transform="rotate(-45 325.879 590.882)" fill="url(#paint45_radial_615_992)" fill-opacity="0.5"/>
<rect x="380.844" y="590.882" width="29.5148" height="29.5148" rx="6.61204" transform="rotate(-45 380.844 590.882)" fill="url(#paint46_radial_615_992)" fill-opacity="0.5"/>
<rect x="435.812" y="590.882" width="29.5148" height="29.5148" rx="6.61204" transform="rotate(-45 435.812 590.882)" fill="url(#paint47_radial_615_992)" fill-opacity="0.5"/>
<rect x="-38.9492" y="164.72" width="505.892" height="505.892" rx="94.9017" transform="rotate(-45 -38.9492 164.72)" fill="url(#paint48_radial_615_992)" fill-opacity="0.2"/>
<rect opacity="0.5" x="1006.05" y="-21.28" width="505.892" height="505.892" rx="94.9017" transform="rotate(-45 1006.05 -21.28)" fill="url(#paint49_radial_615_992)"/>
<rect x="916.051" y="20.6802" width="29.5148" height="29.5148" rx="6.61204" transform="rotate(-45 916.051 20.6802)" fill="url(#paint50_radial_615_992)" fill-opacity="0.6"/>
<rect x="971.02" y="20.6802" width="29.5148" height="29.5148" rx="6.61204" transform="rotate(-45 971.02 20.6802)" fill="url(#paint51_radial_615_992)" fill-opacity="0.6"/>
<rect x="1025.98" y="20.6802" width="29.5148" height="29.5148" rx="6.61204" transform="rotate(-45 1025.98 20.6802)" fill="url(#paint52_radial_615_992)" fill-opacity="0.6"/>
<rect x="1080.95" y="20.6802" width="29.5148" height="29.5148" rx="6.61204" transform="rotate(-45 1080.95 20.6802)" fill="url(#paint53_radial_615_992)" fill-opacity="0.6"/>
<rect x="1135.91" y="20.6802" width="29.5148" height="29.5148" rx="6.61204" transform="rotate(-45 1135.91 20.6802)" fill="url(#paint54_radial_615_992)" fill-opacity="0.6"/>
<rect x="1190.88" y="20.6802" width="29.5148" height="29.5148" rx="6.61204" transform="rotate(-45 1190.88 20.6802)" fill="url(#paint55_radial_615_992)" fill-opacity="0.6"/>
<rect x="1245.84" y="20.6802" width="29.5148" height="29.5148" rx="6.61204" transform="rotate(-45 1245.84 20.6802)" fill="url(#paint56_radial_615_992)" fill-opacity="0.6"/>
<rect x="1300.81" y="20.6802" width="29.5148" height="29.5148" rx="6.61204" transform="rotate(-45 1300.81 20.6802)" fill="url(#paint57_radial_615_992)" fill-opacity="0.6"/>
<rect x="916.051" y="76.8827" width="29.5148" height="29.5148" rx="6.61204" transform="rotate(-45 916.051 76.8827)" fill="url(#paint58_radial_615_992)" fill-opacity="0.6"/>
<rect x="971.02" y="76.8828" width="29.5148" height="29.5148" rx="6.61204" transform="rotate(-45 971.02 76.8828)" fill="url(#paint59_radial_615_992)" fill-opacity="0.6"/>
<rect x="1025.98" y="76.8828" width="29.5148" height="29.5148" rx="6.61204" transform="rotate(-45 1025.98 76.8828)" fill="url(#paint60_radial_615_992)" fill-opacity="0.6"/>
<rect x="1080.95" y="76.8828" width="29.5148" height="29.5148" rx="6.61204" transform="rotate(-45 1080.95 76.8828)" fill="url(#paint61_radial_615_992)" fill-opacity="0.6"/>
<rect x="1135.91" y="76.8828" width="29.5148" height="29.5148" rx="6.61204" transform="rotate(-45 1135.91 76.8828)" fill="url(#paint62_radial_615_992)" fill-opacity="0.6"/>
<rect x="1190.88" y="76.8828" width="29.5148" height="29.5148" rx="6.61204" transform="rotate(-45 1190.88 76.8828)" fill="url(#paint63_radial_615_992)" fill-opacity="0.6"/>
<rect x="1245.84" y="76.8828" width="29.5148" height="29.5148" rx="6.61204" transform="rotate(-45 1245.84 76.8828)" fill="url(#paint64_radial_615_992)" fill-opacity="0.6"/>
<rect x="1300.81" y="76.8828" width="29.5148" height="29.5148" rx="6.61204" transform="rotate(-45 1300.81 76.8828)" fill="url(#paint65_radial_615_992)" fill-opacity="0.6"/>
<defs>
<radialGradient id="paint0_radial_615_992" cx="0" cy="0" r="1" gradientUnits="userSpaceOnUse" gradientTransform="translate(65.8082 324.628) rotate(85.3036) scale(28.2856)">
<stop stop-color="#F6F5F5"/>
<stop offset="1" stop-color="#FAFAFA"/>
</radialGradient>
<radialGradient id="paint1_radial_615_992" cx="0" cy="0" r="1" gradientUnits="userSpaceOnUse" gradientTransform="translate(120.777 324.628) rotate(85.3036) scale(28.2856)">
<stop stop-color="#F6F5F5"/>
<stop offset="1" stop-color="#FAFAFA"/>
</radialGradient>
<radialGradient id="paint2_radial_615_992" cx="0" cy="0" r="1" gradientUnits="userSpaceOnUse" gradientTransform="translate(175.738 324.628) rotate(85.3036) scale(28.2856)">
<stop stop-color="#F6F5F5"/>
<stop offset="1" stop-color="#FAFAFA"/>
</radialGradient>
<radialGradient id="paint3_radial_615_992" cx="0" cy="0" r="1" gradientUnits="userSpaceOnUse" gradientTransform="translate(230.707 324.628) rotate(85.3036) scale(28.2856)">
<stop stop-color="#F6F5F5"/>
<stop offset="1" stop-color="#FAFAFA"/>
</radialGradient>
<radialGradient id="paint4_radial_615_992" cx="0" cy="0" r="1" gradientUnits="userSpaceOnUse" gradientTransform="translate(285.671 324.628) rotate(85.3036) scale(28.2856)">
<stop stop-color="#F6F5F5"/>
<stop offset="1" stop-color="#FAFAFA"/>
</radialGradient>
<radialGradient id="paint5_radial_615_992" cx="0" cy="0" r="1" gradientUnits="userSpaceOnUse" gradientTransform="translate(340.636 324.628) rotate(85.3036) scale(28.2856)">
<stop stop-color="#F6F5F5"/>
<stop offset="1" stop-color="#FAFAFA"/>
</radialGradient>
<radialGradient id="paint6_radial_615_992" cx="0" cy="0" r="1" gradientUnits="userSpaceOnUse" gradientTransform="translate(395.601 324.628) rotate(85.3036) scale(28.2856)">
<stop stop-color="#F6F5F5"/>
<stop offset="1" stop-color="#FAFAFA"/>
</radialGradient>
<radialGradient id="paint7_radial_615_992" cx="0" cy="0" r="1" gradientUnits="userSpaceOnUse" gradientTransform="translate(450.57 324.628) rotate(85.3036) scale(28.2856)">
<stop stop-color="#F6F5F5"/>
<stop offset="1" stop-color="#FAFAFA"/>
</radialGradient>
<radialGradient id="paint8_radial_615_992" cx="0" cy="0" r="1" gradientUnits="userSpaceOnUse" gradientTransform="translate(65.8082 437.033) rotate(85.3036) scale(28.2856)">
<stop stop-color="#F6F5F5"/>
<stop offset="1" stop-color="#FAFAFA"/>
</radialGradient>
<radialGradient id="paint9_radial_615_992" cx="0" cy="0" r="1" gradientUnits="userSpaceOnUse" gradientTransform="translate(120.777 437.033) rotate(85.3036) scale(28.2856)">
<stop stop-color="#F6F5F5"/>
<stop offset="1" stop-color="#FAFAFA"/>
</radialGradient>
<radialGradient id="paint10_radial_615_992" cx="0" cy="0" r="1" gradientUnits="userSpaceOnUse" gradientTransform="translate(175.738 437.033) rotate(85.3036) scale(28.2856)">
<stop stop-color="#F6F5F5"/>
<stop offset="1" stop-color="#FAFAFA"/>
</radialGradient>
<radialGradient id="paint11_radial_615_992" cx="0" cy="0" r="1" gradientUnits="userSpaceOnUse" gradientTransform="translate(230.707 437.033) rotate(85.3036) scale(28.2856)">
<stop stop-color="#F6F5F5"/>
<stop offset="1" stop-color="#FAFAFA"/>
</radialGradient>
<radialGradient id="paint12_radial_615_992" cx="0" cy="0" r="1" gradientUnits="userSpaceOnUse" gradientTransform="translate(285.671 437.033) rotate(85.3036) scale(28.2856)">
<stop stop-color="#F6F5F5"/>
<stop offset="1" stop-color="#FAFAFA"/>
</radialGradient>
<radialGradient id="paint13_radial_615_992" cx="0" cy="0" r="1" gradientUnits="userSpaceOnUse" gradientTransform="translate(340.636 437.033) rotate(85.3036) scale(28.2856)">
<stop stop-color="#F6F5F5"/>
<stop offset="1" stop-color="#FAFAFA"/>
</radialGradient>
<radialGradient id="paint14_radial_615_992" cx="0" cy="0" r="1" gradientUnits="userSpaceOnUse" gradientTransform="translate(395.601 437.033) rotate(85.3036) scale(28.2856)">
<stop stop-color="#F6F5F5"/>
<stop offset="1" stop-color="#FAFAFA"/>
</radialGradient>
<radialGradient id="paint15_radial_615_992" cx="0" cy="0" r="1" gradientUnits="userSpaceOnUse" gradientTransform="translate(450.57 437.033) rotate(85.3036) scale(28.2856)">
<stop stop-color="#F6F5F5"/>
<stop offset="1" stop-color="#FAFAFA"/>
</radialGradient>
<radialGradient id="paint16_radial_615_992" cx="0" cy="0" r="1" gradientUnits="userSpaceOnUse" gradientTransform="translate(65.8082 549.437) rotate(85.3036) scale(28.2856)">
<stop stop-color="#F6F5F5"/>
<stop offset="1" stop-color="#FAFAFA"/>
</radialGradient>
<radialGradient id="paint17_radial_615_992" cx="0" cy="0" r="1" gradientUnits="userSpaceOnUse" gradientTransform="translate(120.777 549.437) rotate(85.3036) scale(28.2856)">
<stop stop-color="#F6F5F5"/>
<stop offset="1" stop-color="#FAFAFA"/>
</radialGradient>
<radialGradient id="paint18_radial_615_992" cx="0" cy="0" r="1" gradientUnits="userSpaceOnUse" gradientTransform="translate(175.738 549.437) rotate(85.3036) scale(28.2856)">
<stop stop-color="#F6F5F5"/>
<stop offset="1" stop-color="#FAFAFA"/>
</radialGradient>
<radialGradient id="paint19_radial_615_992" cx="0" cy="0" r="1" gradientUnits="userSpaceOnUse" gradientTransform="translate(230.707 549.437) rotate(85.3036) scale(28.2856)">
<stop stop-color="#F6F5F5"/>
<stop offset="1" stop-color="#FAFAFA"/>
</radialGradient>
<radialGradient id="paint20_radial_615_992" cx="0" cy="0" r="1" gradientUnits="userSpaceOnUse" gradientTransform="translate(285.671 549.437) rotate(85.3036) scale(28.2856)">
<stop stop-color="#F6F5F5"/>
<stop offset="1" stop-color="#FAFAFA"/>
</radialGradient>
<radialGradient id="paint21_radial_615_992" cx="0" cy="0" r="1" gradientUnits="userSpaceOnUse" gradientTransform="translate(340.636 549.437) rotate(85.3036) scale(28.2856)">
<stop stop-color="#F6F5F5"/>
<stop offset="1" stop-color="#FAFAFA"/>
</radialGradient>
<radialGradient id="paint22_radial_615_992" cx="0" cy="0" r="1" gradientUnits="userSpaceOnUse" gradientTransform="translate(395.601 549.437) rotate(85.3036) scale(28.2856)">
<stop stop-color="#F6F5F5"/>
<stop offset="1" stop-color="#FAFAFA"/>
</radialGradient>
<radialGradient id="paint23_radial_615_992" cx="0" cy="0" r="1" gradientUnits="userSpaceOnUse" gradientTransform="translate(450.57 549.437) rotate(85.3036) scale(28.2856)">
<stop stop-color="#F6F5F5"/>
<stop offset="1" stop-color="#FAFAFA"/>
</radialGradient>
<radialGradient id="paint24_radial_615_992" cx="0" cy="0" r="1" gradientUnits="userSpaceOnUse" gradientTransform="translate(65.8082 380.83) rotate(85.3036) scale(28.2856)">
<stop stop-color="#F6F5F5"/>
<stop offset="1" stop-color="#FAFAFA"/>
</radialGradient>
<radialGradient id="paint25_radial_615_992" cx="0" cy="0" r="1" gradientUnits="userSpaceOnUse" gradientTransform="translate(120.777 380.83) rotate(85.3036) scale(28.2856)">
<stop stop-color="#F6F5F5"/>
<stop offset="1" stop-color="#FAFAFA"/>
</radialGradient>
<radialGradient id="paint26_radial_615_992" cx="0" cy="0" r="1" gradientUnits="userSpaceOnUse" gradientTransform="translate(175.738 380.83) rotate(85.3036) scale(28.2856)">
<stop stop-color="#F6F5F5"/>
<stop offset="1" stop-color="#FAFAFA"/>
</radialGradient>
<radialGradient id="paint27_radial_615_992" cx="0" cy="0" r="1" gradientUnits="userSpaceOnUse" gradientTransform="translate(230.707 380.83) rotate(85.3036) scale(28.2856)">
<stop stop-color="#F6F5F5"/>
<stop offset="1" stop-color="#FAFAFA"/>
</radialGradient>
<radialGradient id="paint28_radial_615_992" cx="0" cy="0" r="1" gradientUnits="userSpaceOnUse" gradientTransform="translate(285.671 380.83) rotate(85.3036) scale(28.2856)">
<stop stop-color="#F6F5F5"/>
<stop offset="1" stop-color="#FAFAFA"/>
</radialGradient>
<radialGradient id="paint29_radial_615_992" cx="0" cy="0" r="1" gradientUnits="userSpaceOnUse" gradientTransform="translate(340.636 380.83) rotate(85.3036) scale(28.2856)">
<stop stop-color="#F6F5F5"/>
<stop offset="1" stop-color="#FAFAFA"/>
</radialGradient>
<radialGradient id="paint30_radial_615_992" cx="0" cy="0" r="1" gradientUnits="userSpaceOnUse" gradientTransform="translate(395.601 380.83) rotate(85.3036) scale(28.2856)">
<stop stop-color="#F6F5F5"/>
<stop offset="1" stop-color="#FAFAFA"/>
</radialGradient>
<radialGradient id="paint31_radial_615_992" cx="0" cy="0" r="1" gradientUnits="userSpaceOnUse" gradientTransform="translate(450.57 380.83) rotate(85.3036) scale(28.2856)">
<stop stop-color="#F6F5F5"/>
<stop offset="1" stop-color="#FAFAFA"/>
</radialGradient>
<radialGradient id="paint32_radial_615_992" cx="0" cy="0" r="1" gradientUnits="userSpaceOnUse" gradientTransform="translate(65.8082 493.235) rotate(85.3036) scale(28.2856)">
<stop stop-color="#F6F5F5"/>
<stop offset="1" stop-color="#FAFAFA"/>
</radialGradient>
<radialGradient id="paint33_radial_615_992" cx="0" cy="0" r="1" gradientUnits="userSpaceOnUse" gradientTransform="translate(120.777 493.235) rotate(85.3036) scale(28.2856)">
<stop stop-color="#F6F5F5"/>
<stop offset="1" stop-color="#FAFAFA"/>
</radialGradient>
<radialGradient id="paint34_radial_615_992" cx="0" cy="0" r="1" gradientUnits="userSpaceOnUse" gradientTransform="translate(175.738 493.235) rotate(85.3036) scale(28.2856)">
<stop stop-color="#F6F5F5"/>
<stop offset="1" stop-color="#FAFAFA"/>
</radialGradient>
<radialGradient id="paint35_radial_615_992" cx="0" cy="0" r="1" gradientUnits="userSpaceOnUse" gradientTransform="translate(230.707 493.235) rotate(85.3036) scale(28.2856)">
<stop stop-color="#F6F5F5"/>
<stop offset="1" stop-color="#FAFAFA"/>
</radialGradient>
<radialGradient id="paint36_radial_615_992" cx="0" cy="0" r="1" gradientUnits="userSpaceOnUse" gradientTransform="translate(285.671 493.235) rotate(85.3036) scale(28.2856)">
<stop stop-color="#F6F5F5"/>
<stop offset="1" stop-color="#FAFAFA"/>
</radialGradient>
<radialGradient id="paint37_radial_615_992" cx="0" cy="0" r="1" gradientUnits="userSpaceOnUse" gradientTransform="translate(340.636 493.235) rotate(85.3036) scale(28.2856)">
<stop stop-color="#F6F5F5"/>
<stop offset="1" stop-color="#FAFAFA"/>
</radialGradient>
<radialGradient id="paint38_radial_615_992" cx="0" cy="0" r="1" gradientUnits="userSpaceOnUse" gradientTransform="translate(395.601 493.235) rotate(85.3036) scale(28.2856)">
<stop stop-color="#F6F5F5"/>
<stop offset="1" stop-color="#FAFAFA"/>
</radialGradient>
<radialGradient id="paint39_radial_615_992" cx="0" cy="0" r="1" gradientUnits="userSpaceOnUse" gradientTransform="translate(450.57 493.235) rotate(85.3036) scale(28.2856)">
<stop stop-color="#F6F5F5"/>
<stop offset="1" stop-color="#FAFAFA"/>
</radialGradient>
<radialGradient id="paint40_radial_615_992" cx="0" cy="0" r="1" gradientUnits="userSpaceOnUse" gradientTransform="translate(65.8082 605.64) rotate(85.3036) scale(28.2856)">
<stop stop-color="#F6F5F5"/>
<stop offset="1" stop-color="#FAFAFA"/>
</radialGradient>
<radialGradient id="paint41_radial_615_992" cx="0" cy="0" r="1" gradientUnits="userSpaceOnUse" gradientTransform="translate(120.777 605.64) rotate(85.3036) scale(28.2856)">
<stop stop-color="#F6F5F5"/>
<stop offset="1" stop-color="#FAFAFA"/>
</radialGradient>
<radialGradient id="paint42_radial_615_992" cx="0" cy="0" r="1" gradientUnits="userSpaceOnUse" gradientTransform="translate(175.738 605.64) rotate(85.3036) scale(28.2856)">
<stop stop-color="#F6F5F5"/>
<stop offset="1" stop-color="#FAFAFA"/>
</radialGradient>
<radialGradient id="paint43_radial_615_992" cx="0" cy="0" r="1" gradientUnits="userSpaceOnUse" gradientTransform="translate(230.707 605.64) rotate(85.3036) scale(28.2856)">
<stop stop-color="#F6F5F5"/>
<stop offset="1" stop-color="#FAFAFA"/>
</radialGradient>
<radialGradient id="paint44_radial_615_992" cx="0" cy="0" r="1" gradientUnits="userSpaceOnUse" gradientTransform="translate(285.671 605.64) rotate(85.3036) scale(28.2856)">
<stop stop-color="#F6F5F5"/>
<stop offset="1" stop-color="#FAFAFA"/>
</radialGradient>
<radialGradient id="paint45_radial_615_992" cx="0" cy="0" r="1" gradientUnits="userSpaceOnUse" gradientTransform="translate(340.636 605.64) rotate(85.3036) scale(28.2856)">
<stop stop-color="#F6F5F5"/>
<stop offset="1" stop-color="#FAFAFA"/>
</radialGradient>
<radialGradient id="paint46_radial_615_992" cx="0" cy="0" r="1" gradientUnits="userSpaceOnUse" gradientTransform="translate(395.601 605.64) rotate(85.3036) scale(28.2856)">
<stop stop-color="#F6F5F5"/>
<stop offset="1" stop-color="#FAFAFA"/>
</radialGradient>
<radialGradient id="paint47_radial_615_992" cx="0" cy="0" r="1" gradientUnits="userSpaceOnUse" gradientTransform="translate(450.57 605.64) rotate(85.3036) scale(28.2856)">
<stop stop-color="#F6F5F5"/>
<stop offset="1" stop-color="#FAFAFA"/>
</radialGradient>
<radialGradient id="paint48_radial_615_992" cx="0" cy="0" r="1" gradientUnits="userSpaceOnUse" gradientTransform="translate(213.997 417.666) rotate(85.3036) scale(484.823)">
<stop stop-color="white"/>
<stop offset="1" stop-color="#FAFAFA"/>
</radialGradient>
<radialGradient id="paint49_radial_615_992" cx="0" cy="0" r="1" gradientUnits="userSpaceOnUse" gradientTransform="translate(1259 231.666) rotate(85.3036) scale(484.823)">
<stop stop-color="white"/>
<stop offset="1" stop-color="#FAFAFA"/>
</radialGradient>
<radialGradient id="paint50_radial_615_992" cx="0" cy="0" r="1" gradientUnits="userSpaceOnUse" gradientTransform="translate(930.808 35.4377) rotate(85.3036) scale(28.2856)">
<stop stop-color="white"/>
<stop offset="1" stop-color="#FAFAFA"/>
</radialGradient>
<radialGradient id="paint51_radial_615_992" cx="0" cy="0" r="1" gradientUnits="userSpaceOnUse" gradientTransform="translate(985.777 35.4376) rotate(85.3036) scale(28.2856)">
<stop stop-color="white"/>
<stop offset="1" stop-color="#FAFAFA"/>
</radialGradient>
<radialGradient id="paint52_radial_615_992" cx="0" cy="0" r="1" gradientUnits="userSpaceOnUse" gradientTransform="translate(1040.74 35.4376) rotate(85.3036) scale(28.2856)">
<stop stop-color="white"/>
<stop offset="1" stop-color="#FAFAFA"/>
</radialGradient>
<radialGradient id="paint53_radial_615_992" cx="0" cy="0" r="1" gradientUnits="userSpaceOnUse" gradientTransform="translate(1095.71 35.4376) rotate(85.3036) scale(28.2856)">
<stop stop-color="white"/>
<stop offset="1" stop-color="#FAFAFA"/>
</radialGradient>
<radialGradient id="paint54_radial_615_992" cx="0" cy="0" r="1" gradientUnits="userSpaceOnUse" gradientTransform="translate(1150.67 35.4376) rotate(85.3036) scale(28.2856)">
<stop stop-color="white"/>
<stop offset="1" stop-color="#FAFAFA"/>
</radialGradient>
<radialGradient id="paint55_radial_615_992" cx="0" cy="0" r="1" gradientUnits="userSpaceOnUse" gradientTransform="translate(1205.64 35.4376) rotate(85.3036) scale(28.2856)">
<stop stop-color="white"/>
<stop offset="1" stop-color="#FAFAFA"/>
</radialGradient>
<radialGradient id="paint56_radial_615_992" cx="0" cy="0" r="1" gradientUnits="userSpaceOnUse" gradientTransform="translate(1260.6 35.4376) rotate(85.3036) scale(28.2856)">
<stop stop-color="white"/>
<stop offset="1" stop-color="#FAFAFA"/>
</radialGradient>
<radialGradient id="paint57_radial_615_992" cx="0" cy="0" r="1" gradientUnits="userSpaceOnUse" gradientTransform="translate(1315.57 35.4377) rotate(85.3036) scale(28.2856)">
<stop stop-color="white"/>
<stop offset="1" stop-color="#FAFAFA"/>
</radialGradient>
<radialGradient id="paint58_radial_615_992" cx="0" cy="0" r="1" gradientUnits="userSpaceOnUse" gradientTransform="translate(930.808 91.6402) rotate(85.3036) scale(28.2856)">
<stop stop-color="white"/>
<stop offset="1" stop-color="#FAFAFA"/>
</radialGradient>
<radialGradient id="paint59_radial_615_992" cx="0" cy="0" r="1" gradientUnits="userSpaceOnUse" gradientTransform="translate(985.777 91.6402) rotate(85.3036) scale(28.2856)">
<stop stop-color="white"/>
<stop offset="1" stop-color="#FAFAFA"/>
</radialGradient>
<radialGradient id="paint60_radial_615_992" cx="0" cy="0" r="1" gradientUnits="userSpaceOnUse" gradientTransform="translate(1040.74 91.6402) rotate(85.3036) scale(28.2856)">
<stop stop-color="white"/>
<stop offset="1" stop-color="#FAFAFA"/>
</radialGradient>
<radialGradient id="paint61_radial_615_992" cx="0" cy="0" r="1" gradientUnits="userSpaceOnUse" gradientTransform="translate(1095.71 91.6402) rotate(85.3036) scale(28.2856)">
<stop stop-color="white"/>
<stop offset="1" stop-color="#FAFAFA"/>
</radialGradient>
<radialGradient id="paint62_radial_615_992" cx="0" cy="0" r="1" gradientUnits="userSpaceOnUse" gradientTransform="translate(1150.67 91.6402) rotate(85.3036) scale(28.2856)">
<stop stop-color="white"/>
<stop offset="1" stop-color="#FAFAFA"/>
</radialGradient>
<radialGradient id="paint63_radial_615_992" cx="0" cy="0" r="1" gradientUnits="userSpaceOnUse" gradientTransform="translate(1205.64 91.6402) rotate(85.3036) scale(28.2856)">
<stop stop-color="white"/>
<stop offset="1" stop-color="#FAFAFA"/>
</radialGradient>
<radialGradient id="paint64_radial_615_992" cx="0" cy="0" r="1" gradientUnits="userSpaceOnUse" gradientTransform="translate(1260.6 91.6402) rotate(85.3036) scale(28.2856)">
<stop stop-color="white"/>
<stop offset="1" stop-color="#FAFAFA"/>
</radialGradient>
<radialGradient id="paint65_radial_615_992" cx="0" cy="0" r="1" gradientUnits="userSpaceOnUse" gradientTransform="translate(1315.57 91.6402) rotate(85.3036) scale(28.2856)">
<stop stop-color="white"/>
<stop offset="1" stop-color="#FAFAFA"/>
</radialGradient>
</defs>
</svg>
