<svg width="1920" height="927" viewBox="0 0 1920 927" fill="none" xmlns="http://www.w3.org/2000/svg">
<g opacity="0.7">
<g opacity="0.5">
<rect width="24.2334" height="24.2334" rx="5.42888" transform="matrix(0.707109 -0.707104 0.707109 0.707104 73 333.137)" fill="url(#paint0_radial_596_994)"/>
<rect width="24.2334" height="24.2334" rx="5.42888" transform="matrix(0.707109 -0.707104 0.707109 0.707104 118.129 333.136)" fill="url(#paint1_radial_596_994)"/>
<rect width="24.2334" height="24.2334" rx="5.42888" transform="matrix(0.707109 -0.707104 0.707109 0.707104 163.258 333.136)" fill="url(#paint2_radial_596_994)"/>
<rect width="24.2334" height="24.2334" rx="5.42888" transform="matrix(0.707104 -0.707109 0.707104 0.707109 208.395 333.136)" fill="url(#paint3_radial_596_994)"/>
<rect width="24.2334" height="24.2334" rx="5.42888" transform="matrix(0.707109 -0.707104 0.707109 0.707104 253.52 333.136)" fill="url(#paint4_radial_596_994)"/>
<rect width="24.2334" height="24.2334" rx="5.42888" transform="matrix(0.707109 -0.707104 0.707109 0.707104 298.652 333.136)" fill="url(#paint5_radial_596_994)"/>
<rect width="24.2334" height="24.2334" rx="5.42888" transform="matrix(0.707109 -0.707104 0.707109 0.707104 343.785 333.136)" fill="url(#paint6_radial_596_994)"/>
<rect width="24.2334" height="24.2334" rx="5.42888" transform="matrix(0.707104 -0.707109 0.707104 0.707109 388.907 333.136)" fill="url(#paint7_radial_596_994)"/>
</g>
<g opacity="0.5">
<rect x="73" y="425.427" width="24.2334" height="24.2334" rx="5.42888" transform="rotate(-45 73 425.427)" fill="url(#paint8_radial_596_994)"/>
<rect x="118.129" y="425.427" width="24.2334" height="24.2334" rx="5.42888" transform="rotate(-45 118.129 425.427)" fill="url(#paint9_radial_596_994)"/>
<rect x="163.258" y="425.427" width="24.2334" height="24.2334" rx="5.42888" transform="rotate(-45 163.258 425.427)" fill="url(#paint10_radial_596_994)"/>
<rect x="208.395" y="425.427" width="24.2334" height="24.2334" rx="5.42888" transform="rotate(-45 208.395 425.427)" fill="url(#paint11_radial_596_994)"/>
<rect x="253.52" y="425.427" width="24.2334" height="24.2334" rx="5.42888" transform="rotate(-45 253.52 425.427)" fill="url(#paint12_radial_596_994)"/>
<rect x="298.652" y="425.427" width="24.2334" height="24.2334" rx="5.42888" transform="rotate(-45 298.652 425.427)" fill="url(#paint13_radial_596_994)"/>
<rect x="343.785" y="425.427" width="24.2334" height="24.2334" rx="5.42888" transform="rotate(-45 343.785 425.427)" fill="url(#paint14_radial_596_994)"/>
<rect x="388.907" y="425.427" width="24.2334" height="24.2334" rx="5.42888" transform="rotate(-45 388.907 425.427)" fill="url(#paint15_radial_596_994)"/>
</g>
<g opacity="0.5">
<rect width="24.2334" height="24.2334" rx="5.42888" transform="matrix(0.707109 -0.707104 0.707109 0.707104 73.0001 517.718)" fill="url(#paint16_radial_596_994)"/>
<rect width="24.2334" height="24.2334" rx="5.42888" transform="matrix(0.707104 -0.707109 0.707104 0.707109 118.129 517.717)" fill="url(#paint17_radial_596_994)"/>
<rect width="24.2334" height="24.2334" rx="5.42888" transform="matrix(0.707104 -0.707109 0.707104 0.707109 163.258 517.717)" fill="url(#paint18_radial_596_994)"/>
<rect width="24.2334" height="24.2334" rx="5.42888" transform="matrix(0.707109 -0.707104 0.707109 0.707104 208.395 517.718)" fill="url(#paint19_radial_596_994)"/>
<rect width="24.2334" height="24.2334" rx="5.42888" transform="matrix(0.707104 -0.707109 0.707104 0.707109 253.52 517.717)" fill="url(#paint20_radial_596_994)"/>
<rect width="24.2334" height="24.2334" rx="5.42888" transform="matrix(0.707104 -0.707109 0.707104 0.707109 298.652 517.717)" fill="url(#paint21_radial_596_994)"/>
<rect width="24.2334" height="24.2334" rx="5.42888" transform="matrix(0.707109 -0.707104 0.707109 0.707104 343.785 517.717)" fill="url(#paint22_radial_596_994)"/>
<rect width="24.2334" height="24.2334" rx="5.42888" transform="matrix(0.707109 -0.707104 0.707109 0.707104 388.907 517.717)" fill="url(#paint23_radial_596_994)"/>
</g>
<g opacity="0.5">
<rect width="24.2334" height="24.2334" rx="5.42888" transform="matrix(0.707104 -0.707109 0.707104 0.707109 73 379.281)" fill="url(#paint24_radial_596_994)"/>
<rect width="24.2334" height="24.2334" rx="5.42888" transform="matrix(0.707109 -0.707104 0.707109 0.707104 118.129 379.28)" fill="url(#paint25_radial_596_994)"/>
<rect width="24.2334" height="24.2334" rx="5.42888" transform="matrix(0.707109 -0.707104 0.707109 0.707104 163.258 379.28)" fill="url(#paint26_radial_596_994)"/>
<rect width="24.2334" height="24.2334" rx="5.42888" transform="matrix(0.707109 -0.707104 0.707109 0.707104 208.395 379.28)" fill="url(#paint27_radial_596_994)"/>
<rect width="24.2334" height="24.2334" rx="5.42888" transform="matrix(0.707109 -0.707104 0.707109 0.707104 253.52 379.28)" fill="url(#paint28_radial_596_994)"/>
<rect width="24.2334" height="24.2334" rx="5.42888" transform="matrix(0.707109 -0.707104 0.707109 0.707104 298.652 379.28)" fill="url(#paint29_radial_596_994)"/>
<rect width="24.2334" height="24.2334" rx="5.42888" transform="matrix(0.707109 -0.707104 0.707109 0.707104 343.785 379.28)" fill="url(#paint30_radial_596_994)"/>
<rect width="24.2334" height="24.2334" rx="5.42888" transform="matrix(0.707109 -0.707104 0.707109 0.707104 388.907 379.28)" fill="url(#paint31_radial_596_994)"/>
</g>
<g opacity="0.5">
<rect x="73" y="471.573" width="24.2334" height="24.2334" rx="5.42888" transform="rotate(-45 73 471.573)" fill="url(#paint32_radial_596_994)"/>
<rect x="118.129" y="471.573" width="24.2334" height="24.2334" rx="5.42888" transform="rotate(-45 118.129 471.573)" fill="url(#paint33_radial_596_994)"/>
<rect x="163.258" y="471.573" width="24.2334" height="24.2334" rx="5.42888" transform="rotate(-45 163.258 471.573)" fill="url(#paint34_radial_596_994)"/>
<rect x="208.395" y="471.573" width="24.2334" height="24.2334" rx="5.42888" transform="rotate(-45 208.395 471.573)" fill="url(#paint35_radial_596_994)"/>
<rect x="253.52" y="471.573" width="24.2334" height="24.2334" rx="5.42888" transform="rotate(-45 253.52 471.573)" fill="url(#paint36_radial_596_994)"/>
<rect x="298.652" y="471.573" width="24.2334" height="24.2334" rx="5.42888" transform="rotate(-45 298.652 471.573)" fill="url(#paint37_radial_596_994)"/>
<rect x="343.785" y="471.573" width="24.2334" height="24.2334" rx="5.42888" transform="rotate(-45 343.785 471.573)" fill="url(#paint38_radial_596_994)"/>
<rect x="388.907" y="471.573" width="24.2334" height="24.2334" rx="5.42888" transform="rotate(-45 388.907 471.573)" fill="url(#paint39_radial_596_994)"/>
</g>
<g opacity="0.5">
<rect width="24.2334" height="24.2334" rx="5.42888" transform="matrix(0.707109 -0.707104 0.707109 0.707104 73.0001 563.864)" fill="url(#paint40_radial_596_994)"/>
<rect width="24.2334" height="24.2334" rx="5.42888" transform="matrix(0.707104 -0.707109 0.707104 0.707109 118.129 563.863)" fill="url(#paint41_radial_596_994)"/>
<rect width="24.2334" height="24.2334" rx="5.42888" transform="matrix(0.707104 -0.707109 0.707104 0.707109 163.258 563.863)" fill="url(#paint42_radial_596_994)"/>
<rect width="24.2334" height="24.2334" rx="5.42888" transform="matrix(0.707104 -0.707109 0.707104 0.707109 208.395 563.864)" fill="url(#paint43_radial_596_994)"/>
<rect width="24.2334" height="24.2334" rx="5.42888" transform="matrix(0.707104 -0.707109 0.707104 0.707109 253.52 563.863)" fill="url(#paint44_radial_596_994)"/>
<rect width="24.2334" height="24.2334" rx="5.42888" transform="matrix(0.707104 -0.707109 0.707104 0.707109 298.652 563.863)" fill="url(#paint45_radial_596_994)"/>
<rect width="24.2334" height="24.2334" rx="5.42888" transform="matrix(0.707104 -0.707109 0.707104 0.707109 343.785 563.863)" fill="url(#paint46_radial_596_994)"/>
<rect width="24.2334" height="24.2334" rx="5.42888" transform="matrix(0.707104 -0.707109 0.707104 0.707109 388.907 563.863)" fill="url(#paint47_radial_596_994)"/>
</g>
</g>
<rect x="1121" y="485.484" width="724.762" height="724.762" rx="67.463" transform="rotate(-45 1121 485.484)" fill="url(#paint48_radial_596_994)" fill-opacity="0.15"/>
<rect x="-202" y="702.484" width="724.762" height="724.762" rx="67.463" transform="rotate(-45 -202 702.484)" fill="url(#paint49_radial_596_994)" fill-opacity="0.15"/>
<g opacity="0.5">
<rect width="17.1621" height="17.1621" rx="4" transform="matrix(0.707105 -0.707109 0.707105 0.707109 1447 621.136)" fill="url(#paint50_radial_596_994)" fill-opacity="0.6"/>
<rect x="1478.96" y="621.136" width="17.1621" height="17.1621" rx="4" transform="rotate(-45 1478.96 621.136)" fill="url(#paint51_radial_596_994)" fill-opacity="0.6"/>
<rect x="1510.92" y="621.135" width="17.1621" height="17.1621" rx="4" transform="rotate(-45 1510.92 621.135)" fill="url(#paint52_radial_596_994)" fill-opacity="0.6"/>
<rect x="1542.88" y="621.136" width="17.1621" height="17.1621" rx="4" transform="rotate(-45 1542.88 621.136)" fill="url(#paint53_radial_596_994)" fill-opacity="0.6"/>
<rect x="1574.85" y="621.135" width="17.1621" height="17.1621" rx="4" transform="rotate(-45 1574.85 621.135)" fill="url(#paint54_radial_596_994)" fill-opacity="0.6"/>
<rect width="17.1621" height="17.1621" rx="4" transform="matrix(0.707105 -0.707109 0.707105 0.707109 1606.8 621.135)" fill="url(#paint55_radial_596_994)" fill-opacity="0.6"/>
<rect width="17.1621" height="17.1621" rx="4" transform="matrix(0.707105 -0.707109 0.707105 0.707109 1638.77 621.136)" fill="url(#paint56_radial_596_994)" fill-opacity="0.6"/>
<rect width="17.1621" height="17.1621" rx="4" transform="matrix(0.707105 -0.707109 0.707105 0.707109 1670.73 621.135)" fill="url(#paint57_radial_596_994)" fill-opacity="0.6"/>
</g>
<g opacity="0.5">
<rect width="17.1621" height="17.1621" rx="4" transform="matrix(0.707112 -0.707101 0.707112 0.707101 1447 686.497)" fill="url(#paint58_radial_596_994)" fill-opacity="0.6"/>
<rect width="17.1621" height="17.1621" rx="4" transform="matrix(0.707112 -0.707101 0.707112 0.707101 1478.96 686.497)" fill="url(#paint59_radial_596_994)" fill-opacity="0.6"/>
<rect width="17.1621" height="17.1621" rx="4" transform="matrix(0.707112 -0.707101 0.707112 0.707101 1510.92 686.497)" fill="url(#paint60_radial_596_994)" fill-opacity="0.6"/>
<rect width="17.1621" height="17.1621" rx="4" transform="matrix(0.707112 -0.707101 0.707112 0.707101 1542.88 686.497)" fill="url(#paint61_radial_596_994)" fill-opacity="0.6"/>
<rect width="17.1621" height="17.1621" rx="4" transform="matrix(0.707112 -0.707101 0.707112 0.707101 1574.85 686.497)" fill="url(#paint62_radial_596_994)" fill-opacity="0.6"/>
<rect width="17.1621" height="17.1621" rx="4" transform="matrix(0.707112 -0.707101 0.707112 0.707101 1606.8 686.497)" fill="url(#paint63_radial_596_994)" fill-opacity="0.6"/>
<rect width="17.1621" height="17.1621" rx="4" transform="matrix(0.707112 -0.707101 0.707112 0.707101 1638.77 686.497)" fill="url(#paint64_radial_596_994)" fill-opacity="0.6"/>
<rect width="17.1621" height="17.1621" rx="4" transform="matrix(0.707112 -0.707101 0.707112 0.707101 1670.73 686.497)" fill="url(#paint65_radial_596_994)" fill-opacity="0.6"/>
</g>
<g opacity="0.5">
<rect x="1447" y="751.857" width="17.1621" height="17.1621" rx="4" transform="rotate(-45 1447 751.857)" fill="url(#paint66_radial_596_994)" fill-opacity="0.6"/>
<rect x="1478.96" y="751.857" width="17.1621" height="17.1621" rx="4" transform="rotate(-45 1478.96 751.857)" fill="url(#paint67_radial_596_994)" fill-opacity="0.6"/>
<rect x="1510.92" y="751.857" width="17.1621" height="17.1621" rx="4" transform="rotate(-45 1510.92 751.857)" fill="url(#paint68_radial_596_994)" fill-opacity="0.6"/>
<rect x="1542.88" y="751.857" width="17.1621" height="17.1621" rx="4" transform="rotate(-45 1542.88 751.857)" fill="url(#paint69_radial_596_994)" fill-opacity="0.6"/>
<rect x="1574.85" y="751.857" width="17.1621" height="17.1621" rx="4" transform="rotate(-45 1574.85 751.857)" fill="url(#paint70_radial_596_994)" fill-opacity="0.6"/>
<rect x="1606.8" y="751.857" width="17.1621" height="17.1621" rx="4" transform="rotate(-45 1606.8 751.857)" fill="url(#paint71_radial_596_994)" fill-opacity="0.6"/>
<rect x="1638.77" y="751.857" width="17.1621" height="17.1621" rx="4" transform="rotate(-45 1638.77 751.857)" fill="url(#paint72_radial_596_994)" fill-opacity="0.6"/>
<rect x="1670.73" y="751.857" width="17.1621" height="17.1621" rx="4" transform="rotate(-45 1670.73 751.857)" fill="url(#paint73_radial_596_994)" fill-opacity="0.6"/>
</g>
<g opacity="0.5">
<rect x="1447" y="653.816" width="17.1621" height="17.1621" rx="4" transform="rotate(-45 1447 653.816)" fill="url(#paint74_radial_596_994)" fill-opacity="0.6"/>
<rect x="1478.96" y="653.817" width="17.1621" height="17.1621" rx="4" transform="rotate(-45 1478.96 653.817)" fill="url(#paint75_radial_596_994)" fill-opacity="0.6"/>
<rect x="1510.92" y="653.816" width="17.1621" height="17.1621" rx="4" transform="rotate(-45 1510.92 653.816)" fill="url(#paint76_radial_596_994)" fill-opacity="0.6"/>
<rect x="1542.88" y="653.817" width="17.1621" height="17.1621" rx="4" transform="rotate(-45 1542.88 653.817)" fill="url(#paint77_radial_596_994)" fill-opacity="0.6"/>
<rect x="1574.85" y="653.816" width="17.1621" height="17.1621" rx="4" transform="rotate(-45 1574.85 653.816)" fill="url(#paint78_radial_596_994)" fill-opacity="0.6"/>
<rect x="1606.8" y="653.816" width="17.1621" height="17.1621" rx="4" transform="rotate(-45 1606.8 653.816)" fill="url(#paint79_radial_596_994)" fill-opacity="0.6"/>
<rect x="1638.77" y="653.816" width="17.1621" height="17.1621" rx="4" transform="rotate(-45 1638.77 653.816)" fill="url(#paint80_radial_596_994)" fill-opacity="0.6"/>
<rect x="1670.73" y="653.816" width="17.1621" height="17.1621" rx="4" transform="rotate(-45 1670.73 653.816)" fill="url(#paint81_radial_596_994)" fill-opacity="0.6"/>
</g>
<g opacity="0.5">
<rect width="17.1621" height="17.1621" rx="4" transform="matrix(0.707105 -0.707109 0.707105 0.707109 1447 719.177)" fill="url(#paint82_radial_596_994)" fill-opacity="0.6"/>
<rect width="17.1621" height="17.1621" rx="4" transform="matrix(0.707112 -0.707101 0.707112 0.707101 1478.96 719.177)" fill="url(#paint83_radial_596_994)" fill-opacity="0.6"/>
<rect width="17.1621" height="17.1621" rx="4" transform="matrix(0.707105 -0.707109 0.707105 0.707109 1510.92 719.177)" fill="url(#paint84_radial_596_994)" fill-opacity="0.6"/>
<rect width="17.1621" height="17.1621" rx="4" transform="matrix(0.707112 -0.707101 0.707112 0.707101 1542.88 719.177)" fill="url(#paint85_radial_596_994)" fill-opacity="0.6"/>
<rect width="17.1621" height="17.1621" rx="4" transform="matrix(0.707105 -0.707109 0.707105 0.707109 1574.85 719.177)" fill="url(#paint86_radial_596_994)" fill-opacity="0.6"/>
<rect width="17.1621" height="17.1621" rx="4" transform="matrix(0.707105 -0.707109 0.707105 0.707109 1606.8 719.177)" fill="url(#paint87_radial_596_994)" fill-opacity="0.6"/>
<rect width="17.1621" height="17.1621" rx="4" transform="matrix(0.707105 -0.707109 0.707105 0.707109 1638.77 719.177)" fill="url(#paint88_radial_596_994)" fill-opacity="0.6"/>
<rect width="17.1621" height="17.1621" rx="4" transform="matrix(0.707112 -0.707101 0.707112 0.707101 1670.73 719.177)" fill="url(#paint89_radial_596_994)" fill-opacity="0.6"/>
</g>
<g opacity="0.5">
<rect x="1447" y="784.537" width="17.1621" height="17.1621" rx="4" transform="rotate(-45 1447 784.537)" fill="url(#paint90_radial_596_994)" fill-opacity="0.6"/>
<rect x="1478.96" y="784.537" width="17.1621" height="17.1621" rx="4" transform="rotate(-45 1478.96 784.537)" fill="url(#paint91_radial_596_994)" fill-opacity="0.6"/>
<rect x="1510.92" y="784.537" width="17.1621" height="17.1621" rx="4" transform="rotate(-45 1510.92 784.537)" fill="url(#paint92_radial_596_994)" fill-opacity="0.6"/>
<rect x="1542.88" y="784.537" width="17.1621" height="17.1621" rx="4" transform="rotate(-45 1542.88 784.537)" fill="url(#paint93_radial_596_994)" fill-opacity="0.6"/>
<rect x="1574.85" y="784.537" width="17.1621" height="17.1621" rx="4" transform="rotate(-45 1574.85 784.537)" fill="url(#paint94_radial_596_994)" fill-opacity="0.6"/>
<rect x="1606.8" y="784.537" width="17.1621" height="17.1621" rx="4" transform="rotate(-45 1606.8 784.537)" fill="url(#paint95_radial_596_994)" fill-opacity="0.6"/>
<rect x="1638.77" y="784.537" width="17.1621" height="17.1621" rx="4" transform="rotate(-45 1638.77 784.537)" fill="url(#paint96_radial_596_994)" fill-opacity="0.6"/>
<rect x="1670.73" y="784.537" width="17.1621" height="17.1621" rx="4" transform="rotate(-45 1670.73 784.537)" fill="url(#paint97_radial_596_994)" fill-opacity="0.6"/>
</g>
<defs>
<radialGradient id="paint0_radial_596_994" cx="0" cy="0" r="1" gradientUnits="userSpaceOnUse" gradientTransform="translate(12.1167 12.1167) rotate(85.3036) scale(23.2242)">
<stop stop-color="#F1F1F1"/>
<stop offset="1" stop-color="#FAFAFA"/>
</radialGradient>
<radialGradient id="paint1_radial_596_994" cx="0" cy="0" r="1" gradientUnits="userSpaceOnUse" gradientTransform="translate(12.1167 12.1167) rotate(85.3036) scale(23.2242)">
<stop stop-color="#F1F1F1"/>
<stop offset="1" stop-color="#FAFAFA"/>
</radialGradient>
<radialGradient id="paint2_radial_596_994" cx="0" cy="0" r="1" gradientUnits="userSpaceOnUse" gradientTransform="translate(12.1167 12.1167) rotate(85.3036) scale(23.2242)">
<stop stop-color="#F1F1F1"/>
<stop offset="1" stop-color="#FAFAFA"/>
</radialGradient>
<radialGradient id="paint3_radial_596_994" cx="0" cy="0" r="1" gradientUnits="userSpaceOnUse" gradientTransform="translate(12.1167 12.1167) rotate(85.3036) scale(23.2242)">
<stop stop-color="#F1F1F1"/>
<stop offset="1" stop-color="#FAFAFA"/>
</radialGradient>
<radialGradient id="paint4_radial_596_994" cx="0" cy="0" r="1" gradientUnits="userSpaceOnUse" gradientTransform="translate(12.1167 12.1167) rotate(85.3036) scale(23.2242)">
<stop stop-color="#F1F1F1"/>
<stop offset="1" stop-color="#FAFAFA"/>
</radialGradient>
<radialGradient id="paint5_radial_596_994" cx="0" cy="0" r="1" gradientUnits="userSpaceOnUse" gradientTransform="translate(12.1167 12.1167) rotate(85.3036) scale(23.2242)">
<stop stop-color="#F1F1F1"/>
<stop offset="1" stop-color="#FAFAFA"/>
</radialGradient>
<radialGradient id="paint6_radial_596_994" cx="0" cy="0" r="1" gradientUnits="userSpaceOnUse" gradientTransform="translate(12.1167 12.1167) rotate(85.3036) scale(23.2242)">
<stop stop-color="#F1F1F1"/>
<stop offset="1" stop-color="#FAFAFA"/>
</radialGradient>
<radialGradient id="paint7_radial_596_994" cx="0" cy="0" r="1" gradientUnits="userSpaceOnUse" gradientTransform="translate(12.1167 12.1167) rotate(85.3036) scale(23.2242)">
<stop stop-color="#F1F1F1"/>
<stop offset="1" stop-color="#FAFAFA"/>
</radialGradient>
<radialGradient id="paint8_radial_596_994" cx="0" cy="0" r="1" gradientUnits="userSpaceOnUse" gradientTransform="translate(85.1167 437.544) rotate(85.3036) scale(23.2242)">
<stop stop-color="#F1F1F1"/>
<stop offset="1" stop-color="#FAFAFA"/>
</radialGradient>
<radialGradient id="paint9_radial_596_994" cx="0" cy="0" r="1" gradientUnits="userSpaceOnUse" gradientTransform="translate(130.246 437.544) rotate(85.3036) scale(23.2242)">
<stop stop-color="#F1F1F1"/>
<stop offset="1" stop-color="#FAFAFA"/>
</radialGradient>
<radialGradient id="paint10_radial_596_994" cx="0" cy="0" r="1" gradientUnits="userSpaceOnUse" gradientTransform="translate(175.375 437.544) rotate(85.3036) scale(23.2242)">
<stop stop-color="#F1F1F1"/>
<stop offset="1" stop-color="#FAFAFA"/>
</radialGradient>
<radialGradient id="paint11_radial_596_994" cx="0" cy="0" r="1" gradientUnits="userSpaceOnUse" gradientTransform="translate(220.511 437.544) rotate(85.3036) scale(23.2242)">
<stop stop-color="#F1F1F1"/>
<stop offset="1" stop-color="#FAFAFA"/>
</radialGradient>
<radialGradient id="paint12_radial_596_994" cx="0" cy="0" r="1" gradientUnits="userSpaceOnUse" gradientTransform="translate(265.636 437.544) rotate(85.3036) scale(23.2242)">
<stop stop-color="#F1F1F1"/>
<stop offset="1" stop-color="#FAFAFA"/>
</radialGradient>
<radialGradient id="paint13_radial_596_994" cx="0" cy="0" r="1" gradientUnits="userSpaceOnUse" gradientTransform="translate(310.769 437.544) rotate(85.3036) scale(23.2242)">
<stop stop-color="#F1F1F1"/>
<stop offset="1" stop-color="#FAFAFA"/>
</radialGradient>
<radialGradient id="paint14_radial_596_994" cx="0" cy="0" r="1" gradientUnits="userSpaceOnUse" gradientTransform="translate(355.902 437.544) rotate(85.3036) scale(23.2242)">
<stop stop-color="#F1F1F1"/>
<stop offset="1" stop-color="#FAFAFA"/>
</radialGradient>
<radialGradient id="paint15_radial_596_994" cx="0" cy="0" r="1" gradientUnits="userSpaceOnUse" gradientTransform="translate(401.024 437.544) rotate(85.3036) scale(23.2242)">
<stop stop-color="#F1F1F1"/>
<stop offset="1" stop-color="#FAFAFA"/>
</radialGradient>
<radialGradient id="paint16_radial_596_994" cx="0" cy="0" r="1" gradientUnits="userSpaceOnUse" gradientTransform="translate(12.1167 12.1167) rotate(85.3036) scale(23.2242)">
<stop stop-color="#F1F1F1"/>
<stop offset="1" stop-color="#FAFAFA"/>
</radialGradient>
<radialGradient id="paint17_radial_596_994" cx="0" cy="0" r="1" gradientUnits="userSpaceOnUse" gradientTransform="translate(12.1167 12.1167) rotate(85.3036) scale(23.2242)">
<stop stop-color="#F1F1F1"/>
<stop offset="1" stop-color="#FAFAFA"/>
</radialGradient>
<radialGradient id="paint18_radial_596_994" cx="0" cy="0" r="1" gradientUnits="userSpaceOnUse" gradientTransform="translate(12.1167 12.1167) rotate(85.3036) scale(23.2242)">
<stop stop-color="#F1F1F1"/>
<stop offset="1" stop-color="#FAFAFA"/>
</radialGradient>
<radialGradient id="paint19_radial_596_994" cx="0" cy="0" r="1" gradientUnits="userSpaceOnUse" gradientTransform="translate(12.1167 12.1167) rotate(85.3036) scale(23.2242)">
<stop stop-color="#F1F1F1"/>
<stop offset="1" stop-color="#FAFAFA"/>
</radialGradient>
<radialGradient id="paint20_radial_596_994" cx="0" cy="0" r="1" gradientUnits="userSpaceOnUse" gradientTransform="translate(12.1167 12.1167) rotate(85.3036) scale(23.2242)">
<stop stop-color="#F1F1F1"/>
<stop offset="1" stop-color="#FAFAFA"/>
</radialGradient>
<radialGradient id="paint21_radial_596_994" cx="0" cy="0" r="1" gradientUnits="userSpaceOnUse" gradientTransform="translate(12.1167 12.1167) rotate(85.3036) scale(23.2242)">
<stop stop-color="#F1F1F1"/>
<stop offset="1" stop-color="#FAFAFA"/>
</radialGradient>
<radialGradient id="paint22_radial_596_994" cx="0" cy="0" r="1" gradientUnits="userSpaceOnUse" gradientTransform="translate(12.1167 12.1167) rotate(85.3036) scale(23.2242)">
<stop stop-color="#F1F1F1"/>
<stop offset="1" stop-color="#FAFAFA"/>
</radialGradient>
<radialGradient id="paint23_radial_596_994" cx="0" cy="0" r="1" gradientUnits="userSpaceOnUse" gradientTransform="translate(12.1167 12.1167) rotate(85.3036) scale(23.2242)">
<stop stop-color="#F1F1F1"/>
<stop offset="1" stop-color="#FAFAFA"/>
</radialGradient>
<radialGradient id="paint24_radial_596_994" cx="0" cy="0" r="1" gradientUnits="userSpaceOnUse" gradientTransform="translate(12.1167 12.1167) rotate(85.3036) scale(23.2242)">
<stop stop-color="#F1F1F1"/>
<stop offset="1" stop-color="#FAFAFA"/>
</radialGradient>
<radialGradient id="paint25_radial_596_994" cx="0" cy="0" r="1" gradientUnits="userSpaceOnUse" gradientTransform="translate(12.1167 12.1167) rotate(85.3036) scale(23.2242)">
<stop stop-color="#F1F1F1"/>
<stop offset="1" stop-color="#FAFAFA"/>
</radialGradient>
<radialGradient id="paint26_radial_596_994" cx="0" cy="0" r="1" gradientUnits="userSpaceOnUse" gradientTransform="translate(12.1167 12.1167) rotate(85.3036) scale(23.2242)">
<stop stop-color="#F1F1F1"/>
<stop offset="1" stop-color="#FAFAFA"/>
</radialGradient>
<radialGradient id="paint27_radial_596_994" cx="0" cy="0" r="1" gradientUnits="userSpaceOnUse" gradientTransform="translate(12.1167 12.1167) rotate(85.3036) scale(23.2242)">
<stop stop-color="#F1F1F1"/>
<stop offset="1" stop-color="#FAFAFA"/>
</radialGradient>
<radialGradient id="paint28_radial_596_994" cx="0" cy="0" r="1" gradientUnits="userSpaceOnUse" gradientTransform="translate(12.1167 12.1167) rotate(85.3036) scale(23.2242)">
<stop stop-color="#F1F1F1"/>
<stop offset="1" stop-color="#FAFAFA"/>
</radialGradient>
<radialGradient id="paint29_radial_596_994" cx="0" cy="0" r="1" gradientUnits="userSpaceOnUse" gradientTransform="translate(12.1167 12.1167) rotate(85.3036) scale(23.2242)">
<stop stop-color="#F1F1F1"/>
<stop offset="1" stop-color="#FAFAFA"/>
</radialGradient>
<radialGradient id="paint30_radial_596_994" cx="0" cy="0" r="1" gradientUnits="userSpaceOnUse" gradientTransform="translate(12.1167 12.1167) rotate(85.3036) scale(23.2242)">
<stop stop-color="#F1F1F1"/>
<stop offset="1" stop-color="#FAFAFA"/>
</radialGradient>
<radialGradient id="paint31_radial_596_994" cx="0" cy="0" r="1" gradientUnits="userSpaceOnUse" gradientTransform="translate(12.1167 12.1167) rotate(85.3036) scale(23.2242)">
<stop stop-color="#F1F1F1"/>
<stop offset="1" stop-color="#FAFAFA"/>
</radialGradient>
<radialGradient id="paint32_radial_596_994" cx="0" cy="0" r="1" gradientUnits="userSpaceOnUse" gradientTransform="translate(85.1167 483.69) rotate(85.3036) scale(23.2242)">
<stop stop-color="#F1F1F1"/>
<stop offset="1" stop-color="#FAFAFA"/>
</radialGradient>
<radialGradient id="paint33_radial_596_994" cx="0" cy="0" r="1" gradientUnits="userSpaceOnUse" gradientTransform="translate(130.246 483.69) rotate(85.3036) scale(23.2242)">
<stop stop-color="#F1F1F1"/>
<stop offset="1" stop-color="#FAFAFA"/>
</radialGradient>
<radialGradient id="paint34_radial_596_994" cx="0" cy="0" r="1" gradientUnits="userSpaceOnUse" gradientTransform="translate(175.375 483.69) rotate(85.3036) scale(23.2242)">
<stop stop-color="#F1F1F1"/>
<stop offset="1" stop-color="#FAFAFA"/>
</radialGradient>
<radialGradient id="paint35_radial_596_994" cx="0" cy="0" r="1" gradientUnits="userSpaceOnUse" gradientTransform="translate(220.511 483.69) rotate(85.3036) scale(23.2242)">
<stop stop-color="#F1F1F1"/>
<stop offset="1" stop-color="#FAFAFA"/>
</radialGradient>
<radialGradient id="paint36_radial_596_994" cx="0" cy="0" r="1" gradientUnits="userSpaceOnUse" gradientTransform="translate(265.636 483.69) rotate(85.3036) scale(23.2242)">
<stop stop-color="#F1F1F1"/>
<stop offset="1" stop-color="#FAFAFA"/>
</radialGradient>
<radialGradient id="paint37_radial_596_994" cx="0" cy="0" r="1" gradientUnits="userSpaceOnUse" gradientTransform="translate(310.769 483.69) rotate(85.3036) scale(23.2242)">
<stop stop-color="#F1F1F1"/>
<stop offset="1" stop-color="#FAFAFA"/>
</radialGradient>
<radialGradient id="paint38_radial_596_994" cx="0" cy="0" r="1" gradientUnits="userSpaceOnUse" gradientTransform="translate(355.902 483.69) rotate(85.3036) scale(23.2242)">
<stop stop-color="#F1F1F1"/>
<stop offset="1" stop-color="#FAFAFA"/>
</radialGradient>
<radialGradient id="paint39_radial_596_994" cx="0" cy="0" r="1" gradientUnits="userSpaceOnUse" gradientTransform="translate(401.024 483.69) rotate(85.3036) scale(23.2242)">
<stop stop-color="#F1F1F1"/>
<stop offset="1" stop-color="#FAFAFA"/>
</radialGradient>
<radialGradient id="paint40_radial_596_994" cx="0" cy="0" r="1" gradientUnits="userSpaceOnUse" gradientTransform="translate(12.1167 12.1167) rotate(85.3036) scale(23.2242)">
<stop stop-color="#F1F1F1"/>
<stop offset="1" stop-color="#FAFAFA"/>
</radialGradient>
<radialGradient id="paint41_radial_596_994" cx="0" cy="0" r="1" gradientUnits="userSpaceOnUse" gradientTransform="translate(12.1167 12.1167) rotate(85.3036) scale(23.2242)">
<stop stop-color="#F1F1F1"/>
<stop offset="1" stop-color="#FAFAFA"/>
</radialGradient>
<radialGradient id="paint42_radial_596_994" cx="0" cy="0" r="1" gradientUnits="userSpaceOnUse" gradientTransform="translate(12.1167 12.1167) rotate(85.3036) scale(23.2242)">
<stop stop-color="#F1F1F1"/>
<stop offset="1" stop-color="#FAFAFA"/>
</radialGradient>
<radialGradient id="paint43_radial_596_994" cx="0" cy="0" r="1" gradientUnits="userSpaceOnUse" gradientTransform="translate(12.1167 12.1167) rotate(85.3036) scale(23.2242)">
<stop stop-color="#F1F1F1"/>
<stop offset="1" stop-color="#FAFAFA"/>
</radialGradient>
<radialGradient id="paint44_radial_596_994" cx="0" cy="0" r="1" gradientUnits="userSpaceOnUse" gradientTransform="translate(12.1167 12.1167) rotate(85.3036) scale(23.2242)">
<stop stop-color="#F1F1F1"/>
<stop offset="1" stop-color="#FAFAFA"/>
</radialGradient>
<radialGradient id="paint45_radial_596_994" cx="0" cy="0" r="1" gradientUnits="userSpaceOnUse" gradientTransform="translate(12.1167 12.1167) rotate(85.3036) scale(23.2242)">
<stop stop-color="#F1F1F1"/>
<stop offset="1" stop-color="#FAFAFA"/>
</radialGradient>
<radialGradient id="paint46_radial_596_994" cx="0" cy="0" r="1" gradientUnits="userSpaceOnUse" gradientTransform="translate(12.1167 12.1167) rotate(85.3036) scale(23.2242)">
<stop stop-color="#F1F1F1"/>
<stop offset="1" stop-color="#FAFAFA"/>
</radialGradient>
<radialGradient id="paint47_radial_596_994" cx="0" cy="0" r="1" gradientUnits="userSpaceOnUse" gradientTransform="translate(12.1167 12.1167) rotate(85.3036) scale(23.2242)">
<stop stop-color="#F1F1F1"/>
<stop offset="1" stop-color="#FAFAFA"/>
</radialGradient>
<radialGradient id="paint48_radial_596_994" cx="0" cy="0" r="1" gradientUnits="userSpaceOnUse" gradientTransform="translate(1483.38 847.865) rotate(85.3036) scale(694.578)">
<stop stop-color="#DADADA"/>
<stop offset="1" stop-color="#FAFAFA"/>
</radialGradient>
<radialGradient id="paint49_radial_596_994" cx="0" cy="0" r="1" gradientUnits="userSpaceOnUse" gradientTransform="translate(160.381 1064.87) rotate(85.3036) scale(694.578)">
<stop stop-color="#DADADA"/>
<stop offset="1" stop-color="#FAFAFA"/>
</radialGradient>
<radialGradient id="paint50_radial_596_994" cx="0" cy="0" r="1" gradientUnits="userSpaceOnUse" gradientTransform="translate(8.58106 8.58106) rotate(85.3036) scale(16.4474)">
<stop stop-color="white"/>
<stop offset="1" stop-color="#FAFAFA"/>
</radialGradient>
<radialGradient id="paint51_radial_596_994" cx="0" cy="0" r="1" gradientUnits="userSpaceOnUse" gradientTransform="translate(1487.54 629.717) rotate(85.3036) scale(16.4474)">
<stop stop-color="white"/>
<stop offset="1" stop-color="#FAFAFA"/>
</radialGradient>
<radialGradient id="paint52_radial_596_994" cx="0" cy="0" r="1" gradientUnits="userSpaceOnUse" gradientTransform="translate(1519.5 629.717) rotate(85.3036) scale(16.4474)">
<stop stop-color="white"/>
<stop offset="1" stop-color="#FAFAFA"/>
</radialGradient>
<radialGradient id="paint53_radial_596_994" cx="0" cy="0" r="1" gradientUnits="userSpaceOnUse" gradientTransform="translate(1551.46 629.717) rotate(85.3036) scale(16.4474)">
<stop stop-color="white"/>
<stop offset="1" stop-color="#FAFAFA"/>
</radialGradient>
<radialGradient id="paint54_radial_596_994" cx="0" cy="0" r="1" gradientUnits="userSpaceOnUse" gradientTransform="translate(1583.43 629.717) rotate(85.3036) scale(16.4474)">
<stop stop-color="white"/>
<stop offset="1" stop-color="#FAFAFA"/>
</radialGradient>
<radialGradient id="paint55_radial_596_994" cx="0" cy="0" r="1" gradientUnits="userSpaceOnUse" gradientTransform="translate(8.58106 8.58106) rotate(85.3036) scale(16.4474)">
<stop stop-color="white"/>
<stop offset="1" stop-color="#FAFAFA"/>
</radialGradient>
<radialGradient id="paint56_radial_596_994" cx="0" cy="0" r="1" gradientUnits="userSpaceOnUse" gradientTransform="translate(8.58106 8.58106) rotate(85.3036) scale(16.4474)">
<stop stop-color="white"/>
<stop offset="1" stop-color="#FAFAFA"/>
</radialGradient>
<radialGradient id="paint57_radial_596_994" cx="0" cy="0" r="1" gradientUnits="userSpaceOnUse" gradientTransform="translate(8.58106 8.58106) rotate(85.3036) scale(16.4474)">
<stop stop-color="white"/>
<stop offset="1" stop-color="#FAFAFA"/>
</radialGradient>
<radialGradient id="paint58_radial_596_994" cx="0" cy="0" r="1" gradientUnits="userSpaceOnUse" gradientTransform="translate(8.58106 8.58106) rotate(85.3036) scale(16.4474)">
<stop stop-color="white"/>
<stop offset="1" stop-color="#FAFAFA"/>
</radialGradient>
<radialGradient id="paint59_radial_596_994" cx="0" cy="0" r="1" gradientUnits="userSpaceOnUse" gradientTransform="translate(8.58106 8.58106) rotate(85.3036) scale(16.4474)">
<stop stop-color="white"/>
<stop offset="1" stop-color="#FAFAFA"/>
</radialGradient>
<radialGradient id="paint60_radial_596_994" cx="0" cy="0" r="1" gradientUnits="userSpaceOnUse" gradientTransform="translate(8.58106 8.58106) rotate(85.3036) scale(16.4474)">
<stop stop-color="white"/>
<stop offset="1" stop-color="#FAFAFA"/>
</radialGradient>
<radialGradient id="paint61_radial_596_994" cx="0" cy="0" r="1" gradientUnits="userSpaceOnUse" gradientTransform="translate(8.58106 8.58106) rotate(85.3036) scale(16.4474)">
<stop stop-color="white"/>
<stop offset="1" stop-color="#FAFAFA"/>
</radialGradient>
<radialGradient id="paint62_radial_596_994" cx="0" cy="0" r="1" gradientUnits="userSpaceOnUse" gradientTransform="translate(8.58106 8.58106) rotate(85.3036) scale(16.4474)">
<stop stop-color="white"/>
<stop offset="1" stop-color="#FAFAFA"/>
</radialGradient>
<radialGradient id="paint63_radial_596_994" cx="0" cy="0" r="1" gradientUnits="userSpaceOnUse" gradientTransform="translate(8.58106 8.58106) rotate(85.3036) scale(16.4474)">
<stop stop-color="white"/>
<stop offset="1" stop-color="#FAFAFA"/>
</radialGradient>
<radialGradient id="paint64_radial_596_994" cx="0" cy="0" r="1" gradientUnits="userSpaceOnUse" gradientTransform="translate(8.58106 8.58106) rotate(85.3036) scale(16.4474)">
<stop stop-color="white"/>
<stop offset="1" stop-color="#FAFAFA"/>
</radialGradient>
<radialGradient id="paint65_radial_596_994" cx="0" cy="0" r="1" gradientUnits="userSpaceOnUse" gradientTransform="translate(8.58106 8.58106) rotate(85.3036) scale(16.4474)">
<stop stop-color="white"/>
<stop offset="1" stop-color="#FAFAFA"/>
</radialGradient>
<radialGradient id="paint66_radial_596_994" cx="0" cy="0" r="1" gradientUnits="userSpaceOnUse" gradientTransform="translate(1455.58 760.438) rotate(85.3036) scale(16.4474)">
<stop stop-color="white"/>
<stop offset="1" stop-color="#FAFAFA"/>
</radialGradient>
<radialGradient id="paint67_radial_596_994" cx="0" cy="0" r="1" gradientUnits="userSpaceOnUse" gradientTransform="translate(1487.54 760.438) rotate(85.3036) scale(16.4474)">
<stop stop-color="white"/>
<stop offset="1" stop-color="#FAFAFA"/>
</radialGradient>
<radialGradient id="paint68_radial_596_994" cx="0" cy="0" r="1" gradientUnits="userSpaceOnUse" gradientTransform="translate(1519.5 760.438) rotate(85.3036) scale(16.4474)">
<stop stop-color="white"/>
<stop offset="1" stop-color="#FAFAFA"/>
</radialGradient>
<radialGradient id="paint69_radial_596_994" cx="0" cy="0" r="1" gradientUnits="userSpaceOnUse" gradientTransform="translate(1551.46 760.438) rotate(85.3036) scale(16.4474)">
<stop stop-color="white"/>
<stop offset="1" stop-color="#FAFAFA"/>
</radialGradient>
<radialGradient id="paint70_radial_596_994" cx="0" cy="0" r="1" gradientUnits="userSpaceOnUse" gradientTransform="translate(1583.43 760.438) rotate(85.3036) scale(16.4474)">
<stop stop-color="white"/>
<stop offset="1" stop-color="#FAFAFA"/>
</radialGradient>
<radialGradient id="paint71_radial_596_994" cx="0" cy="0" r="1" gradientUnits="userSpaceOnUse" gradientTransform="translate(1615.39 760.438) rotate(85.3036) scale(16.4474)">
<stop stop-color="white"/>
<stop offset="1" stop-color="#FAFAFA"/>
</radialGradient>
<radialGradient id="paint72_radial_596_994" cx="0" cy="0" r="1" gradientUnits="userSpaceOnUse" gradientTransform="translate(1647.35 760.438) rotate(85.3036) scale(16.4474)">
<stop stop-color="white"/>
<stop offset="1" stop-color="#FAFAFA"/>
</radialGradient>
<radialGradient id="paint73_radial_596_994" cx="0" cy="0" r="1" gradientUnits="userSpaceOnUse" gradientTransform="translate(1679.31 760.438) rotate(85.3036) scale(16.4474)">
<stop stop-color="white"/>
<stop offset="1" stop-color="#FAFAFA"/>
</radialGradient>
<radialGradient id="paint74_radial_596_994" cx="0" cy="0" r="1" gradientUnits="userSpaceOnUse" gradientTransform="translate(1455.58 662.397) rotate(85.3036) scale(16.4474)">
<stop stop-color="white"/>
<stop offset="1" stop-color="#FAFAFA"/>
</radialGradient>
<radialGradient id="paint75_radial_596_994" cx="0" cy="0" r="1" gradientUnits="userSpaceOnUse" gradientTransform="translate(1487.54 662.398) rotate(85.3036) scale(16.4474)">
<stop stop-color="white"/>
<stop offset="1" stop-color="#FAFAFA"/>
</radialGradient>
<radialGradient id="paint76_radial_596_994" cx="0" cy="0" r="1" gradientUnits="userSpaceOnUse" gradientTransform="translate(1519.5 662.397) rotate(85.3036) scale(16.4474)">
<stop stop-color="white"/>
<stop offset="1" stop-color="#FAFAFA"/>
</radialGradient>
<radialGradient id="paint77_radial_596_994" cx="0" cy="0" r="1" gradientUnits="userSpaceOnUse" gradientTransform="translate(1551.46 662.398) rotate(85.3036) scale(16.4474)">
<stop stop-color="white"/>
<stop offset="1" stop-color="#FAFAFA"/>
</radialGradient>
<radialGradient id="paint78_radial_596_994" cx="0" cy="0" r="1" gradientUnits="userSpaceOnUse" gradientTransform="translate(1583.43 662.397) rotate(85.3036) scale(16.4474)">
<stop stop-color="white"/>
<stop offset="1" stop-color="#FAFAFA"/>
</radialGradient>
<radialGradient id="paint79_radial_596_994" cx="0" cy="0" r="1" gradientUnits="userSpaceOnUse" gradientTransform="translate(1615.39 662.397) rotate(85.3036) scale(16.4474)">
<stop stop-color="white"/>
<stop offset="1" stop-color="#FAFAFA"/>
</radialGradient>
<radialGradient id="paint80_radial_596_994" cx="0" cy="0" r="1" gradientUnits="userSpaceOnUse" gradientTransform="translate(1647.35 662.397) rotate(85.3036) scale(16.4474)">
<stop stop-color="white"/>
<stop offset="1" stop-color="#FAFAFA"/>
</radialGradient>
<radialGradient id="paint81_radial_596_994" cx="0" cy="0" r="1" gradientUnits="userSpaceOnUse" gradientTransform="translate(1679.31 662.397) rotate(85.3036) scale(16.4474)">
<stop stop-color="white"/>
<stop offset="1" stop-color="#FAFAFA"/>
</radialGradient>
<radialGradient id="paint82_radial_596_994" cx="0" cy="0" r="1" gradientUnits="userSpaceOnUse" gradientTransform="translate(8.58106 8.58106) rotate(85.3036) scale(16.4474)">
<stop stop-color="white"/>
<stop offset="1" stop-color="#FAFAFA"/>
</radialGradient>
<radialGradient id="paint83_radial_596_994" cx="0" cy="0" r="1" gradientUnits="userSpaceOnUse" gradientTransform="translate(8.58106 8.58106) rotate(85.3036) scale(16.4474)">
<stop stop-color="white"/>
<stop offset="1" stop-color="#FAFAFA"/>
</radialGradient>
<radialGradient id="paint84_radial_596_994" cx="0" cy="0" r="1" gradientUnits="userSpaceOnUse" gradientTransform="translate(8.58106 8.58106) rotate(85.3036) scale(16.4474)">
<stop stop-color="white"/>
<stop offset="1" stop-color="#FAFAFA"/>
</radialGradient>
<radialGradient id="paint85_radial_596_994" cx="0" cy="0" r="1" gradientUnits="userSpaceOnUse" gradientTransform="translate(8.58106 8.58106) rotate(85.3036) scale(16.4474)">
<stop stop-color="white"/>
<stop offset="1" stop-color="#FAFAFA"/>
</radialGradient>
<radialGradient id="paint86_radial_596_994" cx="0" cy="0" r="1" gradientUnits="userSpaceOnUse" gradientTransform="translate(8.58106 8.58106) rotate(85.3036) scale(16.4474)">
<stop stop-color="white"/>
<stop offset="1" stop-color="#FAFAFA"/>
</radialGradient>
<radialGradient id="paint87_radial_596_994" cx="0" cy="0" r="1" gradientUnits="userSpaceOnUse" gradientTransform="translate(8.58106 8.58106) rotate(85.3036) scale(16.4474)">
<stop stop-color="white"/>
<stop offset="1" stop-color="#FAFAFA"/>
</radialGradient>
<radialGradient id="paint88_radial_596_994" cx="0" cy="0" r="1" gradientUnits="userSpaceOnUse" gradientTransform="translate(8.58106 8.58106) rotate(85.3036) scale(16.4474)">
<stop stop-color="white"/>
<stop offset="1" stop-color="#FAFAFA"/>
</radialGradient>
<radialGradient id="paint89_radial_596_994" cx="0" cy="0" r="1" gradientUnits="userSpaceOnUse" gradientTransform="translate(8.58106 8.58106) rotate(85.3036) scale(16.4474)">
<stop stop-color="white"/>
<stop offset="1" stop-color="#FAFAFA"/>
</radialGradient>
<radialGradient id="paint90_radial_596_994" cx="0" cy="0" r="1" gradientUnits="userSpaceOnUse" gradientTransform="translate(1455.58 793.118) rotate(85.3036) scale(16.4474)">
<stop stop-color="white"/>
<stop offset="1" stop-color="#FAFAFA"/>
</radialGradient>
<radialGradient id="paint91_radial_596_994" cx="0" cy="0" r="1" gradientUnits="userSpaceOnUse" gradientTransform="translate(1487.54 793.118) rotate(85.3036) scale(16.4474)">
<stop stop-color="white"/>
<stop offset="1" stop-color="#FAFAFA"/>
</radialGradient>
<radialGradient id="paint92_radial_596_994" cx="0" cy="0" r="1" gradientUnits="userSpaceOnUse" gradientTransform="translate(1519.5 793.118) rotate(85.3036) scale(16.4474)">
<stop stop-color="white"/>
<stop offset="1" stop-color="#FAFAFA"/>
</radialGradient>
<radialGradient id="paint93_radial_596_994" cx="0" cy="0" r="1" gradientUnits="userSpaceOnUse" gradientTransform="translate(1551.46 793.118) rotate(85.3036) scale(16.4474)">
<stop stop-color="white"/>
<stop offset="1" stop-color="#FAFAFA"/>
</radialGradient>
<radialGradient id="paint94_radial_596_994" cx="0" cy="0" r="1" gradientUnits="userSpaceOnUse" gradientTransform="translate(1583.43 793.118) rotate(85.3036) scale(16.4474)">
<stop stop-color="white"/>
<stop offset="1" stop-color="#FAFAFA"/>
</radialGradient>
<radialGradient id="paint95_radial_596_994" cx="0" cy="0" r="1" gradientUnits="userSpaceOnUse" gradientTransform="translate(1615.39 793.118) rotate(85.3036) scale(16.4474)">
<stop stop-color="white"/>
<stop offset="1" stop-color="#FAFAFA"/>
</radialGradient>
<radialGradient id="paint96_radial_596_994" cx="0" cy="0" r="1" gradientUnits="userSpaceOnUse" gradientTransform="translate(1647.35 793.118) rotate(85.3036) scale(16.4474)">
<stop stop-color="white"/>
<stop offset="1" stop-color="#FAFAFA"/>
</radialGradient>
<radialGradient id="paint97_radial_596_994" cx="0" cy="0" r="1" gradientUnits="userSpaceOnUse" gradientTransform="translate(1679.31 793.118) rotate(85.3036) scale(16.4474)">
<stop stop-color="white"/>
<stop offset="1" stop-color="#FAFAFA"/>
</radialGradient>
</defs>
</svg>
