<svg width="714" height="481" viewBox="0 0 714 481" fill="none" xmlns="http://www.w3.org/2000/svg">
<g opacity="0.5">
<rect x="460" y="397.951" width="19.7299" height="19.7299" rx="5.03638" transform="rotate(-45 460 397.951)" fill="url(#paint0_radial_596_994)" fill-opacity="0.5"/>
<rect x="496.745" y="397.951" width="19.7299" height="19.7299" rx="5.03638" transform="rotate(-45 496.745 397.951)" fill="url(#paint1_radial_596_994)" fill-opacity="0.5"/>
<rect x="533.484" y="397.951" width="19.7299" height="19.7299" rx="5.03638" transform="rotate(-45 533.484 397.951)" fill="url(#paint2_radial_596_994)" fill-opacity="0.5"/>
<rect x="570.229" y="397.951" width="19.7299" height="19.7299" rx="5.03638" transform="rotate(-45 570.229 397.951)" fill="url(#paint3_radial_596_994)" fill-opacity="0.5"/>
<rect x="606.978" y="397.951" width="19.7299" height="19.7299" rx="5.03638" transform="rotate(-45 606.978 397.951)" fill="url(#paint4_radial_596_994)" fill-opacity="0.5"/>
<rect x="643.717" y="397.951" width="19.7299" height="19.7299" rx="5.03638" transform="rotate(-45 643.717 397.951)" fill="url(#paint5_radial_596_994)" fill-opacity="0.5"/>
<rect x="680.459" y="397.951" width="19.7299" height="19.7299" rx="5.03638" transform="rotate(-45 680.459 397.951)" fill="url(#paint6_radial_596_994)" fill-opacity="0.5"/>
</g>
<g opacity="0.5">
<rect x="460" y="473.091" width="19.7299" height="19.7299" rx="5.03638" transform="rotate(-45 460 473.091)" fill="url(#paint7_radial_596_994)" fill-opacity="0.5"/>
<rect x="496.745" y="473.091" width="19.7299" height="19.7299" rx="5.03638" transform="rotate(-45 496.745 473.091)" fill="url(#paint8_radial_596_994)" fill-opacity="0.5"/>
<rect x="533.484" y="473.091" width="19.7299" height="19.7299" rx="5.03638" transform="rotate(-45 533.484 473.091)" fill="url(#paint9_radial_596_994)" fill-opacity="0.5"/>
<rect x="570.229" y="473.091" width="19.7299" height="19.7299" rx="5.03638" transform="rotate(-45 570.229 473.091)" fill="url(#paint10_radial_596_994)" fill-opacity="0.5"/>
<rect x="606.977" y="473.091" width="19.7299" height="19.7299" rx="5.03638" transform="rotate(-45 606.977 473.091)" fill="url(#paint11_radial_596_994)" fill-opacity="0.5"/>
<rect x="643.717" y="473.091" width="19.7299" height="19.7299" rx="5.03638" transform="rotate(-45 643.717 473.091)" fill="url(#paint12_radial_596_994)" fill-opacity="0.5"/>
<rect x="680.459" y="473.091" width="19.7299" height="19.7299" rx="5.03638" transform="rotate(-45 680.459 473.091)" fill="url(#paint13_radial_596_994)" fill-opacity="0.5"/>
</g>
<g opacity="0.5">
<rect x="460" y="435.521" width="19.7299" height="19.7299" rx="5.03638" transform="rotate(-45 460 435.521)" fill="url(#paint14_radial_596_994)" fill-opacity="0.5"/>
<rect x="496.745" y="435.521" width="19.7299" height="19.7299" rx="5.03638" transform="rotate(-45 496.745 435.521)" fill="url(#paint15_radial_596_994)" fill-opacity="0.5"/>
<rect x="533.484" y="435.521" width="19.7299" height="19.7299" rx="5.03638" transform="rotate(-45 533.484 435.521)" fill="url(#paint16_radial_596_994)" fill-opacity="0.5"/>
<rect x="570.229" y="435.521" width="19.7299" height="19.7299" rx="5.03638" transform="rotate(-45 570.229 435.521)" fill="url(#paint17_radial_596_994)" fill-opacity="0.5"/>
<rect x="606.977" y="435.521" width="19.7299" height="19.7299" rx="5.03638" transform="rotate(-45 606.977 435.521)" fill="url(#paint18_radial_596_994)" fill-opacity="0.5"/>
<rect x="643.717" y="435.521" width="19.7299" height="19.7299" rx="5.03638" transform="rotate(-45 643.717 435.521)" fill="url(#paint19_radial_596_994)" fill-opacity="0.5"/>
<rect x="680.459" y="435.521" width="19.7299" height="19.7299" rx="5.03638" transform="rotate(-45 680.459 435.521)" fill="url(#paint20_radial_596_994)" fill-opacity="0.5"/>
</g>
<rect x="-88" y="223.447" width="364.085" height="364.085" rx="24" transform="rotate(-45 -88 223.447)" fill="url(#paint21_radial_596_994)" fill-opacity="0.3"/>
<rect x="558" y="176.295" width="229.52" height="229.52" rx="32" transform="rotate(-45 558 176.295)" fill="url(#paint22_radial_596_994)" fill-opacity="0.3"/>
<defs>
<radialGradient id="paint0_radial_596_994" cx="0" cy="0" r="1" gradientUnits="userSpaceOnUse" gradientTransform="translate(469.865 407.816) rotate(85.3036) scale(18.9082)">
<stop stop-color="#D2D2D2"/>
<stop offset="1" stop-color="#FAFAFA"/>
</radialGradient>
<radialGradient id="paint1_radial_596_994" cx="0" cy="0" r="1" gradientUnits="userSpaceOnUse" gradientTransform="translate(506.61 407.816) rotate(85.3036) scale(18.9082)">
<stop stop-color="#D2D2D2"/>
<stop offset="1" stop-color="#FAFAFA"/>
</radialGradient>
<radialGradient id="paint2_radial_596_994" cx="0" cy="0" r="1" gradientUnits="userSpaceOnUse" gradientTransform="translate(543.349 407.816) rotate(85.3036) scale(18.9082)">
<stop stop-color="#D2D2D2"/>
<stop offset="1" stop-color="#FAFAFA"/>
</radialGradient>
<radialGradient id="paint3_radial_596_994" cx="0" cy="0" r="1" gradientUnits="userSpaceOnUse" gradientTransform="translate(580.094 407.816) rotate(85.3036) scale(18.9082)">
<stop stop-color="#D2D2D2"/>
<stop offset="1" stop-color="#FAFAFA"/>
</radialGradient>
<radialGradient id="paint4_radial_596_994" cx="0" cy="0" r="1" gradientUnits="userSpaceOnUse" gradientTransform="translate(616.842 407.816) rotate(85.3036) scale(18.9082)">
<stop stop-color="#D2D2D2"/>
<stop offset="1" stop-color="#FAFAFA"/>
</radialGradient>
<radialGradient id="paint5_radial_596_994" cx="0" cy="0" r="1" gradientUnits="userSpaceOnUse" gradientTransform="translate(653.582 407.816) rotate(85.3036) scale(18.9082)">
<stop stop-color="#D2D2D2"/>
<stop offset="1" stop-color="#FAFAFA"/>
</radialGradient>
<radialGradient id="paint6_radial_596_994" cx="0" cy="0" r="1" gradientUnits="userSpaceOnUse" gradientTransform="translate(690.324 407.816) rotate(85.3036) scale(18.9082)">
<stop stop-color="#D2D2D2"/>
<stop offset="1" stop-color="#FAFAFA"/>
</radialGradient>
<radialGradient id="paint7_radial_596_994" cx="0" cy="0" r="1" gradientUnits="userSpaceOnUse" gradientTransform="translate(469.865 482.956) rotate(85.3036) scale(18.9082)">
<stop stop-color="#D2D2D2"/>
<stop offset="1" stop-color="#FAFAFA"/>
</radialGradient>
<radialGradient id="paint8_radial_596_994" cx="0" cy="0" r="1" gradientUnits="userSpaceOnUse" gradientTransform="translate(506.61 482.956) rotate(85.3036) scale(18.9082)">
<stop stop-color="#D2D2D2"/>
<stop offset="1" stop-color="#FAFAFA"/>
</radialGradient>
<radialGradient id="paint9_radial_596_994" cx="0" cy="0" r="1" gradientUnits="userSpaceOnUse" gradientTransform="translate(543.349 482.956) rotate(85.3036) scale(18.9082)">
<stop stop-color="#D2D2D2"/>
<stop offset="1" stop-color="#FAFAFA"/>
</radialGradient>
<radialGradient id="paint10_radial_596_994" cx="0" cy="0" r="1" gradientUnits="userSpaceOnUse" gradientTransform="translate(580.094 482.956) rotate(85.3036) scale(18.9082)">
<stop stop-color="#D2D2D2"/>
<stop offset="1" stop-color="#FAFAFA"/>
</radialGradient>
<radialGradient id="paint11_radial_596_994" cx="0" cy="0" r="1" gradientUnits="userSpaceOnUse" gradientTransform="translate(616.842 482.956) rotate(85.3036) scale(18.9082)">
<stop stop-color="#D2D2D2"/>
<stop offset="1" stop-color="#FAFAFA"/>
</radialGradient>
<radialGradient id="paint12_radial_596_994" cx="0" cy="0" r="1" gradientUnits="userSpaceOnUse" gradientTransform="translate(653.582 482.956) rotate(85.3036) scale(18.9082)">
<stop stop-color="#D2D2D2"/>
<stop offset="1" stop-color="#FAFAFA"/>
</radialGradient>
<radialGradient id="paint13_radial_596_994" cx="0" cy="0" r="1" gradientUnits="userSpaceOnUse" gradientTransform="translate(690.324 482.956) rotate(85.3036) scale(18.9082)">
<stop stop-color="#D2D2D2"/>
<stop offset="1" stop-color="#FAFAFA"/>
</radialGradient>
<radialGradient id="paint14_radial_596_994" cx="0" cy="0" r="1" gradientUnits="userSpaceOnUse" gradientTransform="translate(469.865 445.386) rotate(85.3036) scale(18.9082)">
<stop stop-color="#D2D2D2"/>
<stop offset="1" stop-color="#FAFAFA"/>
</radialGradient>
<radialGradient id="paint15_radial_596_994" cx="0" cy="0" r="1" gradientUnits="userSpaceOnUse" gradientTransform="translate(506.61 445.386) rotate(85.3036) scale(18.9082)">
<stop stop-color="#D2D2D2"/>
<stop offset="1" stop-color="#FAFAFA"/>
</radialGradient>
<radialGradient id="paint16_radial_596_994" cx="0" cy="0" r="1" gradientUnits="userSpaceOnUse" gradientTransform="translate(543.349 445.386) rotate(85.3036) scale(18.9082)">
<stop stop-color="#D2D2D2"/>
<stop offset="1" stop-color="#FAFAFA"/>
</radialGradient>
<radialGradient id="paint17_radial_596_994" cx="0" cy="0" r="1" gradientUnits="userSpaceOnUse" gradientTransform="translate(580.094 445.386) rotate(85.3036) scale(18.9082)">
<stop stop-color="#D2D2D2"/>
<stop offset="1" stop-color="#FAFAFA"/>
</radialGradient>
<radialGradient id="paint18_radial_596_994" cx="0" cy="0" r="1" gradientUnits="userSpaceOnUse" gradientTransform="translate(616.842 445.386) rotate(85.3036) scale(18.9082)">
<stop stop-color="#D2D2D2"/>
<stop offset="1" stop-color="#FAFAFA"/>
</radialGradient>
<radialGradient id="paint19_radial_596_994" cx="0" cy="0" r="1" gradientUnits="userSpaceOnUse" gradientTransform="translate(653.582 445.386) rotate(85.3036) scale(18.9082)">
<stop stop-color="#D2D2D2"/>
<stop offset="1" stop-color="#FAFAFA"/>
</radialGradient>
<radialGradient id="paint20_radial_596_994" cx="0" cy="0" r="1" gradientUnits="userSpaceOnUse" gradientTransform="translate(690.324 445.386) rotate(85.3036) scale(18.9082)">
<stop stop-color="#D2D2D2"/>
<stop offset="1" stop-color="#FAFAFA"/>
</radialGradient>
<radialGradient id="paint21_radial_596_994" cx="0" cy="0" r="1" gradientUnits="userSpaceOnUse" gradientTransform="translate(94.0425 405.489) rotate(85.3036) scale(348.922)">
<stop stop-color="#D2D2D2"/>
<stop offset="1" stop-color="#FAFAFA"/>
</radialGradient>
<radialGradient id="paint22_radial_596_994" cx="0" cy="0" r="1" gradientUnits="userSpaceOnUse" gradientTransform="translate(672.76 291.056) rotate(85.3036) scale(219.961)">
<stop stop-color="#D2D2D2"/>
<stop offset="1" stop-color="#FAFAFA"/>
</radialGradient>
</defs>
</svg>
