<svg width="392" height="229" viewBox="0 0 392 229" fill="none" xmlns="http://www.w3.org/2000/svg">
<rect x="153" y="227.012" width="178.208" height="178.208" rx="32" transform="rotate(-45 153 227.012)" fill="url(#paint0_radial_596_994)" fill-opacity="0.3"/>
<rect x="-210" y="-4.84375" width="339.632" height="339.632" rx="32" transform="rotate(-45 -210 -4.84375)" fill="url(#paint1_radial_596_994)" fill-opacity="0.3"/>
<g opacity="0.5">
<rect width="11.3394" height="11.3394" rx="0.788513" transform="matrix(0.707101 -0.707112 0.707101 0.707112 173 24.2036)" fill="url(#paint2_radial_596_994)" fill-opacity="0.6"/>
<rect width="11.3394" height="11.3394" rx="0.788513" transform="matrix(0.707101 -0.707112 0.707101 0.707112 194.119 24.2036)" fill="url(#paint3_radial_596_994)" fill-opacity="0.6"/>
<rect width="11.3394" height="11.3394" rx="0.788513" transform="matrix(0.707101 -0.707112 0.707101 0.707112 215.234 24.2036)" fill="url(#paint4_radial_596_994)" fill-opacity="0.6"/>
<rect width="11.3394" height="11.3394" rx="0.788513" transform="matrix(0.707101 -0.707112 0.707101 0.707112 236.352 24.2036)" fill="url(#paint5_radial_596_994)" fill-opacity="0.6"/>
<rect width="11.3394" height="11.3394" rx="0.788513" transform="matrix(0.707101 -0.707112 0.707101 0.707112 257.473 24.2036)" fill="url(#paint6_radial_596_994)" fill-opacity="0.6"/>
<rect width="11.3394" height="11.3394" rx="0.788513" transform="matrix(0.707101 -0.707112 0.707101 0.707112 278.588 24.2036)" fill="url(#paint7_radial_596_994)" fill-opacity="0.6"/>
<rect width="11.3394" height="11.3394" rx="0.788513" transform="matrix(0.707101 -0.707112 0.707101 0.707112 299.705 24.2036)" fill="url(#paint8_radial_596_994)" fill-opacity="0.6"/>
<rect width="11.3394" height="11.3394" rx="0.788513" transform="matrix(0.707101 -0.707112 0.707101 0.707112 320.823 24.2036)" fill="url(#paint9_radial_596_994)" fill-opacity="0.6"/>
</g>
<g opacity="0.5">
<rect width="11.3394" height="11.3394" rx="0.788513" transform="matrix(0.707101 -0.707112 0.707101 0.707112 173 67.3889)" fill="url(#paint10_radial_596_994)" fill-opacity="0.6"/>
<rect width="11.3394" height="11.3394" rx="0.788513" transform="matrix(0.707101 -0.707112 0.707101 0.707112 194.119 67.3889)" fill="url(#paint11_radial_596_994)" fill-opacity="0.6"/>
<rect width="11.3394" height="11.3394" rx="0.788513" transform="matrix(0.707101 -0.707112 0.707101 0.707112 215.234 67.3889)" fill="url(#paint12_radial_596_994)" fill-opacity="0.6"/>
<rect width="11.3394" height="11.3394" rx="0.788513" transform="matrix(0.707101 -0.707112 0.707101 0.707112 236.352 67.3889)" fill="url(#paint13_radial_596_994)" fill-opacity="0.6"/>
<rect width="11.3394" height="11.3394" rx="0.788513" transform="matrix(0.707101 -0.707112 0.707101 0.707112 257.473 67.3889)" fill="url(#paint14_radial_596_994)" fill-opacity="0.6"/>
<rect width="11.3394" height="11.3394" rx="0.788513" transform="matrix(0.707101 -0.707112 0.707101 0.707112 278.587 67.3889)" fill="url(#paint15_radial_596_994)" fill-opacity="0.6"/>
<rect width="11.3394" height="11.3394" rx="0.788513" transform="matrix(0.707101 -0.707112 0.707101 0.707112 299.705 67.3889)" fill="url(#paint16_radial_596_994)" fill-opacity="0.6"/>
<rect width="11.3394" height="11.3394" rx="0.788513" transform="matrix(0.707101 -0.707112 0.707101 0.707112 320.823 67.3889)" fill="url(#paint17_radial_596_994)" fill-opacity="0.6"/>
</g>
<g opacity="0.5">
<rect width="11.3394" height="11.3394" rx="0.788513" transform="matrix(0.707101 -0.707112 0.707101 0.707112 173 2.61084)" fill="url(#paint18_radial_596_994)" fill-opacity="0.6"/>
<rect width="11.3394" height="11.3394" rx="0.788513" transform="matrix(0.707101 -0.707112 0.707101 0.707112 194.119 2.61084)" fill="url(#paint19_radial_596_994)" fill-opacity="0.6"/>
<rect width="11.3394" height="11.3394" rx="0.788513" transform="matrix(0.707101 -0.707112 0.707101 0.707112 215.234 2.61084)" fill="url(#paint20_radial_596_994)" fill-opacity="0.6"/>
<rect width="11.3394" height="11.3394" rx="0.788513" transform="matrix(0.707101 -0.707112 0.707101 0.707112 236.352 2.61084)" fill="url(#paint21_radial_596_994)" fill-opacity="0.6"/>
<rect width="11.3394" height="11.3394" rx="0.788513" transform="matrix(0.707101 -0.707112 0.707101 0.707112 257.473 2.61084)" fill="url(#paint22_radial_596_994)" fill-opacity="0.6"/>
<rect width="11.3394" height="11.3394" rx="0.788513" transform="matrix(0.707101 -0.707112 0.707101 0.707112 278.587 2.61084)" fill="url(#paint23_radial_596_994)" fill-opacity="0.6"/>
<rect width="11.3394" height="11.3394" rx="0.788513" transform="matrix(0.707101 -0.707112 0.707101 0.707112 299.705 2.61084)" fill="url(#paint24_radial_596_994)" fill-opacity="0.6"/>
<rect width="11.3394" height="11.3394" rx="0.788513" transform="matrix(0.707101 -0.707112 0.707101 0.707112 320.823 2.61084)" fill="url(#paint25_radial_596_994)" fill-opacity="0.6"/>
</g>
<g opacity="0.5">
<rect width="11.3394" height="11.3394" rx="0.788513" transform="matrix(0.707105 -0.707108 0.707105 0.707108 173 45.7966)" fill="url(#paint26_radial_596_994)" fill-opacity="0.6"/>
<rect width="11.3394" height="11.3394" rx="0.788513" transform="matrix(0.707105 -0.707108 0.707105 0.707108 194.119 45.7966)" fill="url(#paint27_radial_596_994)" fill-opacity="0.6"/>
<rect width="11.3394" height="11.3394" rx="0.788513" transform="matrix(0.707105 -0.707108 0.707105 0.707108 215.234 45.7966)" fill="url(#paint28_radial_596_994)" fill-opacity="0.6"/>
<rect width="11.3394" height="11.3394" rx="0.788513" transform="matrix(0.707105 -0.707108 0.707105 0.707108 236.352 45.7966)" fill="url(#paint29_radial_596_994)" fill-opacity="0.6"/>
<rect width="11.3394" height="11.3394" rx="0.788513" transform="matrix(0.707105 -0.707108 0.707105 0.707108 257.473 45.7966)" fill="url(#paint30_radial_596_994)" fill-opacity="0.6"/>
<rect width="11.3394" height="11.3394" rx="0.788513" transform="matrix(0.707105 -0.707108 0.707105 0.707108 278.587 45.7966)" fill="url(#paint31_radial_596_994)" fill-opacity="0.6"/>
<rect width="11.3394" height="11.3394" rx="0.788513" transform="matrix(0.707105 -0.707108 0.707105 0.707108 299.705 45.7966)" fill="url(#paint32_radial_596_994)" fill-opacity="0.6"/>
<rect width="11.3394" height="11.3394" rx="0.788513" transform="matrix(0.707105 -0.707108 0.707105 0.707108 320.823 45.7966)" fill="url(#paint33_radial_596_994)" fill-opacity="0.6"/>
</g>
<g opacity="0.5">
<rect width="11.3394" height="11.3394" rx="0.788513" transform="matrix(0.707101 -0.707112 0.707101 0.707112 173 88.9819)" fill="url(#paint34_radial_596_994)" fill-opacity="0.6"/>
<rect width="11.3394" height="11.3394" rx="0.788513" transform="matrix(0.707101 -0.707112 0.707101 0.707112 194.119 88.9819)" fill="url(#paint35_radial_596_994)" fill-opacity="0.6"/>
<rect width="11.3394" height="11.3394" rx="0.788513" transform="matrix(0.707101 -0.707112 0.707101 0.707112 215.234 88.9819)" fill="url(#paint36_radial_596_994)" fill-opacity="0.6"/>
<rect width="11.3394" height="11.3394" rx="0.788513" transform="matrix(0.707101 -0.707112 0.707101 0.707112 236.352 88.9819)" fill="url(#paint37_radial_596_994)" fill-opacity="0.6"/>
<rect width="11.3394" height="11.3394" rx="0.788513" transform="matrix(0.707101 -0.707112 0.707101 0.707112 257.473 88.9819)" fill="url(#paint38_radial_596_994)" fill-opacity="0.6"/>
<rect width="11.3394" height="11.3394" rx="0.788513" transform="matrix(0.707101 -0.707112 0.707101 0.707112 278.588 88.9819)" fill="url(#paint39_radial_596_994)" fill-opacity="0.6"/>
<rect width="11.3394" height="11.3394" rx="0.788513" transform="matrix(0.707101 -0.707112 0.707101 0.707112 299.705 88.9819)" fill="url(#paint40_radial_596_994)" fill-opacity="0.6"/>
<rect width="11.3394" height="11.3394" rx="0.788513" transform="matrix(0.707101 -0.707112 0.707101 0.707112 320.823 88.9819)" fill="url(#paint41_radial_596_994)" fill-opacity="0.6"/>
</g>
<defs>
<radialGradient id="paint0_radial_596_994" cx="0" cy="0" r="1" gradientUnits="userSpaceOnUse" gradientTransform="translate(242.104 316.117) rotate(85.3036) scale(170.787)">
<stop stop-color="#D2D2D2"/>
<stop offset="1" stop-color="#FAFAFA"/>
</radialGradient>
<radialGradient id="paint1_radial_596_994" cx="0" cy="0" r="1" gradientUnits="userSpaceOnUse" gradientTransform="translate(-40.1839 164.972) rotate(85.3036) scale(325.487)">
<stop stop-color="#D2D2D2"/>
<stop offset="1" stop-color="#FAFAFA"/>
</radialGradient>
<radialGradient id="paint2_radial_596_994" cx="0" cy="0" r="1" gradientUnits="userSpaceOnUse" gradientTransform="translate(5.66972 5.66972) rotate(85.3036) scale(10.8672)">
<stop stop-color="white"/>
<stop offset="1" stop-color="#FAFAFA"/>
</radialGradient>
<radialGradient id="paint3_radial_596_994" cx="0" cy="0" r="1" gradientUnits="userSpaceOnUse" gradientTransform="translate(5.66972 5.66972) rotate(85.3036) scale(10.8672)">
<stop stop-color="white"/>
<stop offset="1" stop-color="#FAFAFA"/>
</radialGradient>
<radialGradient id="paint4_radial_596_994" cx="0" cy="0" r="1" gradientUnits="userSpaceOnUse" gradientTransform="translate(5.66972 5.66972) rotate(85.3036) scale(10.8672)">
<stop stop-color="white"/>
<stop offset="1" stop-color="#FAFAFA"/>
</radialGradient>
<radialGradient id="paint5_radial_596_994" cx="0" cy="0" r="1" gradientUnits="userSpaceOnUse" gradientTransform="translate(5.66972 5.66972) rotate(85.3036) scale(10.8672)">
<stop stop-color="white"/>
<stop offset="1" stop-color="#FAFAFA"/>
</radialGradient>
<radialGradient id="paint6_radial_596_994" cx="0" cy="0" r="1" gradientUnits="userSpaceOnUse" gradientTransform="translate(5.66972 5.66972) rotate(85.3036) scale(10.8672)">
<stop stop-color="white"/>
<stop offset="1" stop-color="#FAFAFA"/>
</radialGradient>
<radialGradient id="paint7_radial_596_994" cx="0" cy="0" r="1" gradientUnits="userSpaceOnUse" gradientTransform="translate(5.66972 5.66972) rotate(85.3036) scale(10.8672)">
<stop stop-color="white"/>
<stop offset="1" stop-color="#FAFAFA"/>
</radialGradient>
<radialGradient id="paint8_radial_596_994" cx="0" cy="0" r="1" gradientUnits="userSpaceOnUse" gradientTransform="translate(5.66972 5.66972) rotate(85.3036) scale(10.8672)">
<stop stop-color="white"/>
<stop offset="1" stop-color="#FAFAFA"/>
</radialGradient>
<radialGradient id="paint9_radial_596_994" cx="0" cy="0" r="1" gradientUnits="userSpaceOnUse" gradientTransform="translate(5.66972 5.66972) rotate(85.3036) scale(10.8672)">
<stop stop-color="white"/>
<stop offset="1" stop-color="#FAFAFA"/>
</radialGradient>
<radialGradient id="paint10_radial_596_994" cx="0" cy="0" r="1" gradientUnits="userSpaceOnUse" gradientTransform="translate(5.66972 5.66972) rotate(85.3036) scale(10.8672)">
<stop stop-color="white"/>
<stop offset="1" stop-color="#FAFAFA"/>
</radialGradient>
<radialGradient id="paint11_radial_596_994" cx="0" cy="0" r="1" gradientUnits="userSpaceOnUse" gradientTransform="translate(5.66972 5.66972) rotate(85.3036) scale(10.8672)">
<stop stop-color="white"/>
<stop offset="1" stop-color="#FAFAFA"/>
</radialGradient>
<radialGradient id="paint12_radial_596_994" cx="0" cy="0" r="1" gradientUnits="userSpaceOnUse" gradientTransform="translate(5.66972 5.66972) rotate(85.3036) scale(10.8672)">
<stop stop-color="white"/>
<stop offset="1" stop-color="#FAFAFA"/>
</radialGradient>
<radialGradient id="paint13_radial_596_994" cx="0" cy="0" r="1" gradientUnits="userSpaceOnUse" gradientTransform="translate(5.66972 5.66972) rotate(85.3036) scale(10.8672)">
<stop stop-color="white"/>
<stop offset="1" stop-color="#FAFAFA"/>
</radialGradient>
<radialGradient id="paint14_radial_596_994" cx="0" cy="0" r="1" gradientUnits="userSpaceOnUse" gradientTransform="translate(5.66972 5.66972) rotate(85.3036) scale(10.8672)">
<stop stop-color="white"/>
<stop offset="1" stop-color="#FAFAFA"/>
</radialGradient>
<radialGradient id="paint15_radial_596_994" cx="0" cy="0" r="1" gradientUnits="userSpaceOnUse" gradientTransform="translate(5.66972 5.66972) rotate(85.3036) scale(10.8672)">
<stop stop-color="white"/>
<stop offset="1" stop-color="#FAFAFA"/>
</radialGradient>
<radialGradient id="paint16_radial_596_994" cx="0" cy="0" r="1" gradientUnits="userSpaceOnUse" gradientTransform="translate(5.66972 5.66972) rotate(85.3036) scale(10.8672)">
<stop stop-color="white"/>
<stop offset="1" stop-color="#FAFAFA"/>
</radialGradient>
<radialGradient id="paint17_radial_596_994" cx="0" cy="0" r="1" gradientUnits="userSpaceOnUse" gradientTransform="translate(5.66972 5.66972) rotate(85.3036) scale(10.8672)">
<stop stop-color="white"/>
<stop offset="1" stop-color="#FAFAFA"/>
</radialGradient>
<radialGradient id="paint18_radial_596_994" cx="0" cy="0" r="1" gradientUnits="userSpaceOnUse" gradientTransform="translate(5.66972 5.66972) rotate(85.3036) scale(10.8672)">
<stop stop-color="white"/>
<stop offset="1" stop-color="#FAFAFA"/>
</radialGradient>
<radialGradient id="paint19_radial_596_994" cx="0" cy="0" r="1" gradientUnits="userSpaceOnUse" gradientTransform="translate(5.66972 5.66972) rotate(85.3036) scale(10.8672)">
<stop stop-color="white"/>
<stop offset="1" stop-color="#FAFAFA"/>
</radialGradient>
<radialGradient id="paint20_radial_596_994" cx="0" cy="0" r="1" gradientUnits="userSpaceOnUse" gradientTransform="translate(5.66972 5.66972) rotate(85.3036) scale(10.8672)">
<stop stop-color="white"/>
<stop offset="1" stop-color="#FAFAFA"/>
</radialGradient>
<radialGradient id="paint21_radial_596_994" cx="0" cy="0" r="1" gradientUnits="userSpaceOnUse" gradientTransform="translate(5.66972 5.66972) rotate(85.3036) scale(10.8672)">
<stop stop-color="white"/>
<stop offset="1" stop-color="#FAFAFA"/>
</radialGradient>
<radialGradient id="paint22_radial_596_994" cx="0" cy="0" r="1" gradientUnits="userSpaceOnUse" gradientTransform="translate(5.66972 5.66972) rotate(85.3036) scale(10.8672)">
<stop stop-color="white"/>
<stop offset="1" stop-color="#FAFAFA"/>
</radialGradient>
<radialGradient id="paint23_radial_596_994" cx="0" cy="0" r="1" gradientUnits="userSpaceOnUse" gradientTransform="translate(5.66972 5.66972) rotate(85.3036) scale(10.8672)">
<stop stop-color="white"/>
<stop offset="1" stop-color="#FAFAFA"/>
</radialGradient>
<radialGradient id="paint24_radial_596_994" cx="0" cy="0" r="1" gradientUnits="userSpaceOnUse" gradientTransform="translate(5.66972 5.66972) rotate(85.3036) scale(10.8672)">
<stop stop-color="white"/>
<stop offset="1" stop-color="#FAFAFA"/>
</radialGradient>
<radialGradient id="paint25_radial_596_994" cx="0" cy="0" r="1" gradientUnits="userSpaceOnUse" gradientTransform="translate(5.66972 5.66972) rotate(85.3036) scale(10.8672)">
<stop stop-color="white"/>
<stop offset="1" stop-color="#FAFAFA"/>
</radialGradient>
<radialGradient id="paint26_radial_596_994" cx="0" cy="0" r="1" gradientUnits="userSpaceOnUse" gradientTransform="translate(5.66972 5.66972) rotate(85.3036) scale(10.8672)">
<stop stop-color="white"/>
<stop offset="1" stop-color="#FAFAFA"/>
</radialGradient>
<radialGradient id="paint27_radial_596_994" cx="0" cy="0" r="1" gradientUnits="userSpaceOnUse" gradientTransform="translate(5.66972 5.66972) rotate(85.3036) scale(10.8672)">
<stop stop-color="white"/>
<stop offset="1" stop-color="#FAFAFA"/>
</radialGradient>
<radialGradient id="paint28_radial_596_994" cx="0" cy="0" r="1" gradientUnits="userSpaceOnUse" gradientTransform="translate(5.66972 5.66972) rotate(85.3036) scale(10.8672)">
<stop stop-color="white"/>
<stop offset="1" stop-color="#FAFAFA"/>
</radialGradient>
<radialGradient id="paint29_radial_596_994" cx="0" cy="0" r="1" gradientUnits="userSpaceOnUse" gradientTransform="translate(5.66972 5.66972) rotate(85.3036) scale(10.8672)">
<stop stop-color="white"/>
<stop offset="1" stop-color="#FAFAFA"/>
</radialGradient>
<radialGradient id="paint30_radial_596_994" cx="0" cy="0" r="1" gradientUnits="userSpaceOnUse" gradientTransform="translate(5.66972 5.66972) rotate(85.3036) scale(10.8672)">
<stop stop-color="white"/>
<stop offset="1" stop-color="#FAFAFA"/>
</radialGradient>
<radialGradient id="paint31_radial_596_994" cx="0" cy="0" r="1" gradientUnits="userSpaceOnUse" gradientTransform="translate(5.66972 5.66972) rotate(85.3036) scale(10.8672)">
<stop stop-color="white"/>
<stop offset="1" stop-color="#FAFAFA"/>
</radialGradient>
<radialGradient id="paint32_radial_596_994" cx="0" cy="0" r="1" gradientUnits="userSpaceOnUse" gradientTransform="translate(5.66972 5.66972) rotate(85.3036) scale(10.8672)">
<stop stop-color="white"/>
<stop offset="1" stop-color="#FAFAFA"/>
</radialGradient>
<radialGradient id="paint33_radial_596_994" cx="0" cy="0" r="1" gradientUnits="userSpaceOnUse" gradientTransform="translate(5.66972 5.66972) rotate(85.3036) scale(10.8672)">
<stop stop-color="white"/>
<stop offset="1" stop-color="#FAFAFA"/>
</radialGradient>
<radialGradient id="paint34_radial_596_994" cx="0" cy="0" r="1" gradientUnits="userSpaceOnUse" gradientTransform="translate(5.66972 5.66972) rotate(85.3036) scale(10.8672)">
<stop stop-color="white"/>
<stop offset="1" stop-color="#FAFAFA"/>
</radialGradient>
<radialGradient id="paint35_radial_596_994" cx="0" cy="0" r="1" gradientUnits="userSpaceOnUse" gradientTransform="translate(5.66972 5.66972) rotate(85.3036) scale(10.8672)">
<stop stop-color="white"/>
<stop offset="1" stop-color="#FAFAFA"/>
</radialGradient>
<radialGradient id="paint36_radial_596_994" cx="0" cy="0" r="1" gradientUnits="userSpaceOnUse" gradientTransform="translate(5.66972 5.66972) rotate(85.3036) scale(10.8672)">
<stop stop-color="white"/>
<stop offset="1" stop-color="#FAFAFA"/>
</radialGradient>
<radialGradient id="paint37_radial_596_994" cx="0" cy="0" r="1" gradientUnits="userSpaceOnUse" gradientTransform="translate(5.66972 5.66972) rotate(85.3036) scale(10.8672)">
<stop stop-color="white"/>
<stop offset="1" stop-color="#FAFAFA"/>
</radialGradient>
<radialGradient id="paint38_radial_596_994" cx="0" cy="0" r="1" gradientUnits="userSpaceOnUse" gradientTransform="translate(5.66972 5.66972) rotate(85.3036) scale(10.8672)">
<stop stop-color="white"/>
<stop offset="1" stop-color="#FAFAFA"/>
</radialGradient>
<radialGradient id="paint39_radial_596_994" cx="0" cy="0" r="1" gradientUnits="userSpaceOnUse" gradientTransform="translate(5.66972 5.66972) rotate(85.3036) scale(10.8672)">
<stop stop-color="white"/>
<stop offset="1" stop-color="#FAFAFA"/>
</radialGradient>
<radialGradient id="paint40_radial_596_994" cx="0" cy="0" r="1" gradientUnits="userSpaceOnUse" gradientTransform="translate(5.66972 5.66972) rotate(85.3036) scale(10.8672)">
<stop stop-color="white"/>
<stop offset="1" stop-color="#FAFAFA"/>
</radialGradient>
<radialGradient id="paint41_radial_596_994" cx="0" cy="0" r="1" gradientUnits="userSpaceOnUse" gradientTransform="translate(5.66972 5.66972) rotate(85.3036) scale(10.8672)">
<stop stop-color="white"/>
<stop offset="1" stop-color="#FAFAFA"/>
</radialGradient>
</defs>
</svg>
