<svg width="66" height="62" viewBox="0 0 66 62" fill="none" xmlns="http://www.w3.org/2000/svg">
<path d="M20.96 42.9272C18.9342 41.7379 16.3279 42.4161 15.1386 44.4418C13.9494 46.4676 14.6275 49.0739 16.6533 50.2632C18.6791 51.4524 21.2854 50.7743 22.4746 48.7485C23.6639 46.7227 22.9857 44.1164 20.96 42.9272Z" fill="#3897FF"/>
<path d="M58.2031 23.774L58.6219 31.1497L64.2014 35.9917L56.8257 36.4105L51.9836 41.99L51.5645 34.6145L45.9854 29.7722L53.3611 29.3535L58.2031 23.774Z" fill="#FFCC00"/>
<path d="M25.8759 10.7738L30.2896 16.6979L37.6136 17.6645L31.6891 22.0782L30.7229 29.4021L26.3092 23.4781L18.9853 22.5114L24.9091 18.0979L25.8759 10.7738Z" fill="#8E4DD5"/>
</svg>
