<svg width="768" height="1024" viewBox="0 0 768 1024" fill="none" xmlns="http://www.w3.org/2000/svg">
<rect x="454" y="140.794" width="537.109" height="537.109" rx="94.1447" transform="rotate(-45 454 140.794)" fill="url(#paint0_radial_615_992)" fill-opacity="0.15"/>
<rect x="-305" y="757.63" width="456.268" height="456.268" rx="42.4708" transform="rotate(-45 -305 757.63)" fill="url(#paint1_radial_615_992)" fill-opacity="0.15"/>
<rect x="0.105957" y="764.327" width="21.6761" height="21.6761" rx="4.85598" transform="rotate(-45 0.105957 764.327)" fill="url(#paint2_radial_615_992)" fill-opacity="0.6"/>
<rect x="40.4688" y="764.327" width="21.6761" height="21.6761" rx="4.85598" transform="rotate(-45 40.4688 764.327)" fill="url(#paint3_radial_615_992)" fill-opacity="0.6"/>
<rect x="80.8394" y="764.327" width="21.6761" height="21.6761" rx="4.85598" transform="rotate(-45 80.8394 764.327)" fill="url(#paint4_radial_615_992)" fill-opacity="0.6"/>
<rect x="121.21" y="764.327" width="21.6761" height="21.6761" rx="4.85598" transform="rotate(-45 121.21 764.327)" fill="url(#paint5_radial_615_992)" fill-opacity="0.6"/>
<rect x="161.574" y="764.327" width="21.6761" height="21.6761" rx="4.85598" transform="rotate(-45 161.574 764.327)" fill="url(#paint6_radial_615_992)" fill-opacity="0.6"/>
<rect x="0.10498" y="846.88" width="21.6761" height="21.6761" rx="4.85598" transform="rotate(-45 0.10498 846.88)" fill="url(#paint7_radial_615_992)" fill-opacity="0.6"/>
<rect x="40.4688" y="846.88" width="21.6761" height="21.6761" rx="4.85598" transform="rotate(-45 40.4688 846.88)" fill="url(#paint8_radial_615_992)" fill-opacity="0.6"/>
<rect x="80.8394" y="846.88" width="21.6761" height="21.6761" rx="4.85598" transform="rotate(-45 80.8394 846.88)" fill="url(#paint9_radial_615_992)" fill-opacity="0.6"/>
<rect x="121.21" y="846.88" width="21.6761" height="21.6761" rx="4.85598" transform="rotate(-45 121.21 846.88)" fill="url(#paint10_radial_615_992)" fill-opacity="0.6"/>
<rect x="161.574" y="846.88" width="21.6761" height="21.6761" rx="4.85598" transform="rotate(-45 161.574 846.88)" fill="url(#paint11_radial_615_992)" fill-opacity="0.6"/>
<rect x="0.105957" y="929.431" width="21.6761" height="21.6761" rx="4.85598" transform="rotate(-45 0.105957 929.431)" fill="url(#paint12_radial_615_992)" fill-opacity="0.6"/>
<rect x="40.4688" y="929.431" width="21.6761" height="21.6761" rx="4.85598" transform="rotate(-45 40.4688 929.431)" fill="url(#paint13_radial_615_992)" fill-opacity="0.6"/>
<rect x="80.8394" y="929.431" width="21.6761" height="21.6761" rx="4.85598" transform="rotate(-45 80.8394 929.431)" fill="url(#paint14_radial_615_992)" fill-opacity="0.6"/>
<rect x="121.21" y="929.431" width="21.6761" height="21.6761" rx="4.85598" transform="rotate(-45 121.21 929.431)" fill="url(#paint15_radial_615_992)" fill-opacity="0.6"/>
<rect x="161.574" y="929.431" width="21.6761" height="21.6761" rx="4.85598" transform="rotate(-45 161.574 929.431)" fill="url(#paint16_radial_615_992)" fill-opacity="0.6"/>
<rect x="0.10498" y="805.603" width="21.6761" height="21.6761" rx="4.85598" transform="rotate(-45 0.10498 805.603)" fill="url(#paint17_radial_615_992)" fill-opacity="0.6"/>
<rect x="40.4688" y="805.603" width="21.6761" height="21.6761" rx="4.85598" transform="rotate(-45 40.4688 805.603)" fill="url(#paint18_radial_615_992)" fill-opacity="0.6"/>
<rect x="80.8394" y="805.603" width="21.6761" height="21.6761" rx="4.85598" transform="rotate(-45 80.8394 805.603)" fill="url(#paint19_radial_615_992)" fill-opacity="0.6"/>
<rect x="121.21" y="805.603" width="21.6761" height="21.6761" rx="4.85598" transform="rotate(-45 121.21 805.603)" fill="url(#paint20_radial_615_992)" fill-opacity="0.6"/>
<rect x="161.574" y="805.603" width="21.6761" height="21.6761" rx="4.85598" transform="rotate(-45 161.574 805.603)" fill="url(#paint21_radial_615_992)" fill-opacity="0.6"/>
<rect x="0.10498" y="888.155" width="21.6761" height="21.6761" rx="4.85598" transform="rotate(-45 0.10498 888.155)" fill="url(#paint22_radial_615_992)" fill-opacity="0.6"/>
<rect x="40.4688" y="888.155" width="21.6761" height="21.6761" rx="4.85598" transform="rotate(-45 40.4688 888.155)" fill="url(#paint23_radial_615_992)" fill-opacity="0.6"/>
<rect x="80.8394" y="888.155" width="21.6761" height="21.6761" rx="4.85598" transform="rotate(-45 80.8394 888.155)" fill="url(#paint24_radial_615_992)" fill-opacity="0.6"/>
<rect x="121.21" y="888.155" width="21.6761" height="21.6761" rx="4.85598" transform="rotate(-45 121.21 888.155)" fill="url(#paint25_radial_615_992)" fill-opacity="0.6"/>
<rect x="161.574" y="888.155" width="21.6761" height="21.6761" rx="4.85598" transform="rotate(-45 161.574 888.155)" fill="url(#paint26_radial_615_992)" fill-opacity="0.6"/>
<rect x="0.105957" y="970.707" width="21.6761" height="21.6761" rx="4.85598" transform="rotate(-45 0.105957 970.707)" fill="url(#paint27_radial_615_992)" fill-opacity="0.6"/>
<rect x="40.4688" y="970.706" width="21.6761" height="21.6761" rx="4.85598" transform="rotate(-45 40.4688 970.706)" fill="url(#paint28_radial_615_992)" fill-opacity="0.6"/>
<rect x="80.8394" y="970.706" width="21.6761" height="21.6761" rx="4.85598" transform="rotate(-45 80.8394 970.706)" fill="url(#paint29_radial_615_992)" fill-opacity="0.6"/>
<rect x="121.21" y="970.706" width="21.6761" height="21.6761" rx="4.85598" transform="rotate(-45 121.21 970.706)" fill="url(#paint30_radial_615_992)" fill-opacity="0.6"/>
<rect x="161.574" y="970.706" width="21.6761" height="21.6761" rx="4.85598" transform="rotate(-45 161.574 970.706)" fill="url(#paint31_radial_615_992)" fill-opacity="0.6"/>
<rect x="601" y="654.647" width="26.3707" height="26.3707" rx="5.90769" transform="rotate(-45 601 654.647)" fill="url(#paint32_radial_615_992)" fill-opacity="0.5"/>
<rect x="650.112" y="654.647" width="26.3707" height="26.3707" rx="5.90769" transform="rotate(-45 650.112 654.647)" fill="url(#paint33_radial_615_992)" fill-opacity="0.5"/>
<rect x="699.22" y="654.647" width="26.3707" height="26.3707" rx="5.90769" transform="rotate(-45 699.22 654.647)" fill="url(#paint34_radial_615_992)" fill-opacity="0.5"/>
<rect x="748.337" y="654.647" width="26.3707" height="26.3707" rx="5.90769" transform="rotate(-45 748.337 654.647)" fill="url(#paint35_radial_615_992)" fill-opacity="0.5"/>
<rect x="601" y="755.079" width="26.3707" height="26.3707" rx="5.90769" transform="rotate(-45 601 755.079)" fill="url(#paint36_radial_615_992)" fill-opacity="0.5"/>
<rect x="650.112" y="755.079" width="26.3707" height="26.3707" rx="5.90769" transform="rotate(-45 650.112 755.079)" fill="url(#paint37_radial_615_992)" fill-opacity="0.5"/>
<rect x="699.22" y="755.079" width="26.3707" height="26.3707" rx="5.90769" transform="rotate(-45 699.22 755.079)" fill="url(#paint38_radial_615_992)" fill-opacity="0.5"/>
<rect x="748.337" y="755.079" width="26.3707" height="26.3707" rx="5.90769" transform="rotate(-45 748.337 755.079)" fill="url(#paint39_radial_615_992)" fill-opacity="0.5"/>
<rect x="601" y="855.509" width="26.3707" height="26.3707" rx="5.90769" transform="rotate(-45 601 855.509)" fill="url(#paint40_radial_615_992)" fill-opacity="0.5"/>
<rect x="650.112" y="855.508" width="26.3707" height="26.3707" rx="5.90769" transform="rotate(-45 650.112 855.508)" fill="url(#paint41_radial_615_992)" fill-opacity="0.5"/>
<rect x="699.22" y="855.508" width="26.3707" height="26.3707" rx="5.90769" transform="rotate(-45 699.22 855.508)" fill="url(#paint42_radial_615_992)" fill-opacity="0.5"/>
<rect x="748.337" y="855.509" width="26.3707" height="26.3707" rx="5.90769" transform="rotate(-45 748.337 855.509)" fill="url(#paint43_radial_615_992)" fill-opacity="0.5"/>
<rect x="601" y="704.863" width="26.3707" height="26.3707" rx="5.90769" transform="rotate(-45 601 704.863)" fill="url(#paint44_radial_615_992)" fill-opacity="0.5"/>
<rect x="650.112" y="704.863" width="26.3707" height="26.3707" rx="5.90769" transform="rotate(-45 650.112 704.863)" fill="url(#paint45_radial_615_992)" fill-opacity="0.5"/>
<rect x="699.22" y="704.863" width="26.3707" height="26.3707" rx="5.90769" transform="rotate(-45 699.22 704.863)" fill="url(#paint46_radial_615_992)" fill-opacity="0.5"/>
<rect x="748.337" y="704.863" width="26.3707" height="26.3707" rx="5.90769" transform="rotate(-45 748.337 704.863)" fill="url(#paint47_radial_615_992)" fill-opacity="0.5"/>
<rect x="601" y="805.295" width="26.3707" height="26.3707" rx="5.90769" transform="rotate(-45 601 805.295)" fill="url(#paint48_radial_615_992)" fill-opacity="0.5"/>
<rect x="650.112" y="805.295" width="26.3707" height="26.3707" rx="5.90769" transform="rotate(-45 650.112 805.295)" fill="url(#paint49_radial_615_992)" fill-opacity="0.5"/>
<rect x="699.22" y="805.295" width="26.3707" height="26.3707" rx="5.90769" transform="rotate(-45 699.22 805.295)" fill="url(#paint50_radial_615_992)" fill-opacity="0.5"/>
<rect x="748.337" y="805.295" width="26.3707" height="26.3707" rx="5.90769" transform="rotate(-45 748.337 805.295)" fill="url(#paint51_radial_615_992)" fill-opacity="0.5"/>
<rect x="601" y="905.725" width="26.3707" height="26.3707" rx="5.90769" transform="rotate(-45 601 905.725)" fill="url(#paint52_radial_615_992)" fill-opacity="0.5"/>
<rect x="650.112" y="905.724" width="26.3707" height="26.3707" rx="5.90769" transform="rotate(-45 650.112 905.724)" fill="url(#paint53_radial_615_992)" fill-opacity="0.5"/>
<rect x="699.22" y="905.724" width="26.3707" height="26.3707" rx="5.90769" transform="rotate(-45 699.22 905.724)" fill="url(#paint54_radial_615_992)" fill-opacity="0.5"/>
<rect x="748.337" y="905.724" width="26.3707" height="26.3707" rx="5.90769" transform="rotate(-45 748.337 905.724)" fill="url(#paint55_radial_615_992)" fill-opacity="0.5"/>
<defs>
<radialGradient id="paint0_radial_615_992" cx="0" cy="0" r="1" gradientUnits="userSpaceOnUse" gradientTransform="translate(722.555 409.348) rotate(85.3036) scale(514.74)">
<stop stop-color="#DADADA"/>
<stop offset="1" stop-color="#FAFAFA"/>
</radialGradient>
<radialGradient id="paint1_radial_615_992" cx="0" cy="0" r="1" gradientUnits="userSpaceOnUse" gradientTransform="translate(-76.8659 985.764) rotate(85.3036) scale(437.266)">
<stop stop-color="#DADADA"/>
<stop offset="1" stop-color="#FAFAFA"/>
</radialGradient>
<radialGradient id="paint2_radial_615_992" cx="0" cy="0" r="1" gradientUnits="userSpaceOnUse" gradientTransform="translate(10.944 775.165) rotate(85.3036) scale(20.7733)">
<stop stop-color="white"/>
<stop offset="1" stop-color="#FAFAFA"/>
</radialGradient>
<radialGradient id="paint3_radial_615_992" cx="0" cy="0" r="1" gradientUnits="userSpaceOnUse" gradientTransform="translate(51.3068 775.165) rotate(85.3036) scale(20.7733)">
<stop stop-color="white"/>
<stop offset="1" stop-color="#FAFAFA"/>
</radialGradient>
<radialGradient id="paint4_radial_615_992" cx="0" cy="0" r="1" gradientUnits="userSpaceOnUse" gradientTransform="translate(91.6774 775.165) rotate(85.3036) scale(20.7733)">
<stop stop-color="white"/>
<stop offset="1" stop-color="#FAFAFA"/>
</radialGradient>
<radialGradient id="paint5_radial_615_992" cx="0" cy="0" r="1" gradientUnits="userSpaceOnUse" gradientTransform="translate(132.048 775.165) rotate(85.3036) scale(20.7733)">
<stop stop-color="white"/>
<stop offset="1" stop-color="#FAFAFA"/>
</radialGradient>
<radialGradient id="paint6_radial_615_992" cx="0" cy="0" r="1" gradientUnits="userSpaceOnUse" gradientTransform="translate(172.412 775.165) rotate(85.3036) scale(20.7733)">
<stop stop-color="white"/>
<stop offset="1" stop-color="#FAFAFA"/>
</radialGradient>
<radialGradient id="paint7_radial_615_992" cx="0" cy="0" r="1" gradientUnits="userSpaceOnUse" gradientTransform="translate(10.943 857.718) rotate(85.3036) scale(20.7733)">
<stop stop-color="white"/>
<stop offset="1" stop-color="#FAFAFA"/>
</radialGradient>
<radialGradient id="paint8_radial_615_992" cx="0" cy="0" r="1" gradientUnits="userSpaceOnUse" gradientTransform="translate(51.3068 857.718) rotate(85.3036) scale(20.7733)">
<stop stop-color="white"/>
<stop offset="1" stop-color="#FAFAFA"/>
</radialGradient>
<radialGradient id="paint9_radial_615_992" cx="0" cy="0" r="1" gradientUnits="userSpaceOnUse" gradientTransform="translate(91.6774 857.718) rotate(85.3036) scale(20.7733)">
<stop stop-color="white"/>
<stop offset="1" stop-color="#FAFAFA"/>
</radialGradient>
<radialGradient id="paint10_radial_615_992" cx="0" cy="0" r="1" gradientUnits="userSpaceOnUse" gradientTransform="translate(132.048 857.718) rotate(85.3036) scale(20.7733)">
<stop stop-color="white"/>
<stop offset="1" stop-color="#FAFAFA"/>
</radialGradient>
<radialGradient id="paint11_radial_615_992" cx="0" cy="0" r="1" gradientUnits="userSpaceOnUse" gradientTransform="translate(172.412 857.718) rotate(85.3036) scale(20.7733)">
<stop stop-color="white"/>
<stop offset="1" stop-color="#FAFAFA"/>
</radialGradient>
<radialGradient id="paint12_radial_615_992" cx="0" cy="0" r="1" gradientUnits="userSpaceOnUse" gradientTransform="translate(10.944 940.269) rotate(85.3036) scale(20.7733)">
<stop stop-color="white"/>
<stop offset="1" stop-color="#FAFAFA"/>
</radialGradient>
<radialGradient id="paint13_radial_615_992" cx="0" cy="0" r="1" gradientUnits="userSpaceOnUse" gradientTransform="translate(51.3068 940.269) rotate(85.3036) scale(20.7733)">
<stop stop-color="white"/>
<stop offset="1" stop-color="#FAFAFA"/>
</radialGradient>
<radialGradient id="paint14_radial_615_992" cx="0" cy="0" r="1" gradientUnits="userSpaceOnUse" gradientTransform="translate(91.6774 940.269) rotate(85.3036) scale(20.7733)">
<stop stop-color="white"/>
<stop offset="1" stop-color="#FAFAFA"/>
</radialGradient>
<radialGradient id="paint15_radial_615_992" cx="0" cy="0" r="1" gradientUnits="userSpaceOnUse" gradientTransform="translate(132.048 940.269) rotate(85.3036) scale(20.7733)">
<stop stop-color="white"/>
<stop offset="1" stop-color="#FAFAFA"/>
</radialGradient>
<radialGradient id="paint16_radial_615_992" cx="0" cy="0" r="1" gradientUnits="userSpaceOnUse" gradientTransform="translate(172.412 940.269) rotate(85.3036) scale(20.7733)">
<stop stop-color="white"/>
<stop offset="1" stop-color="#FAFAFA"/>
</radialGradient>
<radialGradient id="paint17_radial_615_992" cx="0" cy="0" r="1" gradientUnits="userSpaceOnUse" gradientTransform="translate(10.943 816.441) rotate(85.3036) scale(20.7733)">
<stop stop-color="white"/>
<stop offset="1" stop-color="#FAFAFA"/>
</radialGradient>
<radialGradient id="paint18_radial_615_992" cx="0" cy="0" r="1" gradientUnits="userSpaceOnUse" gradientTransform="translate(51.3068 816.441) rotate(85.3036) scale(20.7733)">
<stop stop-color="white"/>
<stop offset="1" stop-color="#FAFAFA"/>
</radialGradient>
<radialGradient id="paint19_radial_615_992" cx="0" cy="0" r="1" gradientUnits="userSpaceOnUse" gradientTransform="translate(91.6774 816.441) rotate(85.3036) scale(20.7733)">
<stop stop-color="white"/>
<stop offset="1" stop-color="#FAFAFA"/>
</radialGradient>
<radialGradient id="paint20_radial_615_992" cx="0" cy="0" r="1" gradientUnits="userSpaceOnUse" gradientTransform="translate(132.048 816.441) rotate(85.3036) scale(20.7733)">
<stop stop-color="white"/>
<stop offset="1" stop-color="#FAFAFA"/>
</radialGradient>
<radialGradient id="paint21_radial_615_992" cx="0" cy="0" r="1" gradientUnits="userSpaceOnUse" gradientTransform="translate(172.412 816.441) rotate(85.3036) scale(20.7733)">
<stop stop-color="white"/>
<stop offset="1" stop-color="#FAFAFA"/>
</radialGradient>
<radialGradient id="paint22_radial_615_992" cx="0" cy="0" r="1" gradientUnits="userSpaceOnUse" gradientTransform="translate(10.943 898.993) rotate(85.3036) scale(20.7733)">
<stop stop-color="white"/>
<stop offset="1" stop-color="#FAFAFA"/>
</radialGradient>
<radialGradient id="paint23_radial_615_992" cx="0" cy="0" r="1" gradientUnits="userSpaceOnUse" gradientTransform="translate(51.3068 898.993) rotate(85.3036) scale(20.7733)">
<stop stop-color="white"/>
<stop offset="1" stop-color="#FAFAFA"/>
</radialGradient>
<radialGradient id="paint24_radial_615_992" cx="0" cy="0" r="1" gradientUnits="userSpaceOnUse" gradientTransform="translate(91.6774 898.993) rotate(85.3036) scale(20.7733)">
<stop stop-color="white"/>
<stop offset="1" stop-color="#FAFAFA"/>
</radialGradient>
<radialGradient id="paint25_radial_615_992" cx="0" cy="0" r="1" gradientUnits="userSpaceOnUse" gradientTransform="translate(132.048 898.993) rotate(85.3036) scale(20.7733)">
<stop stop-color="white"/>
<stop offset="1" stop-color="#FAFAFA"/>
</radialGradient>
<radialGradient id="paint26_radial_615_992" cx="0" cy="0" r="1" gradientUnits="userSpaceOnUse" gradientTransform="translate(172.412 898.993) rotate(85.3036) scale(20.7733)">
<stop stop-color="white"/>
<stop offset="1" stop-color="#FAFAFA"/>
</radialGradient>
<radialGradient id="paint27_radial_615_992" cx="0" cy="0" r="1" gradientUnits="userSpaceOnUse" gradientTransform="translate(10.944 981.545) rotate(85.3036) scale(20.7733)">
<stop stop-color="white"/>
<stop offset="1" stop-color="#FAFAFA"/>
</radialGradient>
<radialGradient id="paint28_radial_615_992" cx="0" cy="0" r="1" gradientUnits="userSpaceOnUse" gradientTransform="translate(51.3068 981.544) rotate(85.3036) scale(20.7733)">
<stop stop-color="white"/>
<stop offset="1" stop-color="#FAFAFA"/>
</radialGradient>
<radialGradient id="paint29_radial_615_992" cx="0" cy="0" r="1" gradientUnits="userSpaceOnUse" gradientTransform="translate(91.6774 981.544) rotate(85.3036) scale(20.7733)">
<stop stop-color="white"/>
<stop offset="1" stop-color="#FAFAFA"/>
</radialGradient>
<radialGradient id="paint30_radial_615_992" cx="0" cy="0" r="1" gradientUnits="userSpaceOnUse" gradientTransform="translate(132.048 981.544) rotate(85.3036) scale(20.7733)">
<stop stop-color="white"/>
<stop offset="1" stop-color="#FAFAFA"/>
</radialGradient>
<radialGradient id="paint31_radial_615_992" cx="0" cy="0" r="1" gradientUnits="userSpaceOnUse" gradientTransform="translate(172.412 981.544) rotate(85.3036) scale(20.7733)">
<stop stop-color="white"/>
<stop offset="1" stop-color="#FAFAFA"/>
</radialGradient>
<radialGradient id="paint32_radial_615_992" cx="0" cy="0" r="1" gradientUnits="userSpaceOnUse" gradientTransform="translate(614.185 667.832) rotate(85.3036) scale(25.2725)">
<stop stop-color="#F6F5F5"/>
<stop offset="1" stop-color="#FAFAFA"/>
</radialGradient>
<radialGradient id="paint33_radial_615_992" cx="0" cy="0" r="1" gradientUnits="userSpaceOnUse" gradientTransform="translate(663.298 667.832) rotate(85.3036) scale(25.2725)">
<stop stop-color="#F6F5F5"/>
<stop offset="1" stop-color="#FAFAFA"/>
</radialGradient>
<radialGradient id="paint34_radial_615_992" cx="0" cy="0" r="1" gradientUnits="userSpaceOnUse" gradientTransform="translate(712.405 667.832) rotate(85.3036) scale(25.2725)">
<stop stop-color="#F6F5F5"/>
<stop offset="1" stop-color="#FAFAFA"/>
</radialGradient>
<radialGradient id="paint35_radial_615_992" cx="0" cy="0" r="1" gradientUnits="userSpaceOnUse" gradientTransform="translate(761.523 667.832) rotate(85.3036) scale(25.2725)">
<stop stop-color="#F6F5F5"/>
<stop offset="1" stop-color="#FAFAFA"/>
</radialGradient>
<radialGradient id="paint36_radial_615_992" cx="0" cy="0" r="1" gradientUnits="userSpaceOnUse" gradientTransform="translate(614.185 768.264) rotate(85.3036) scale(25.2725)">
<stop stop-color="#F6F5F5"/>
<stop offset="1" stop-color="#FAFAFA"/>
</radialGradient>
<radialGradient id="paint37_radial_615_992" cx="0" cy="0" r="1" gradientUnits="userSpaceOnUse" gradientTransform="translate(663.298 768.264) rotate(85.3036) scale(25.2725)">
<stop stop-color="#F6F5F5"/>
<stop offset="1" stop-color="#FAFAFA"/>
</radialGradient>
<radialGradient id="paint38_radial_615_992" cx="0" cy="0" r="1" gradientUnits="userSpaceOnUse" gradientTransform="translate(712.405 768.264) rotate(85.3036) scale(25.2725)">
<stop stop-color="#F6F5F5"/>
<stop offset="1" stop-color="#FAFAFA"/>
</radialGradient>
<radialGradient id="paint39_radial_615_992" cx="0" cy="0" r="1" gradientUnits="userSpaceOnUse" gradientTransform="translate(761.523 768.264) rotate(85.3036) scale(25.2725)">
<stop stop-color="#F6F5F5"/>
<stop offset="1" stop-color="#FAFAFA"/>
</radialGradient>
<radialGradient id="paint40_radial_615_992" cx="0" cy="0" r="1" gradientUnits="userSpaceOnUse" gradientTransform="translate(614.185 868.694) rotate(85.3036) scale(25.2725)">
<stop stop-color="#F6F5F5"/>
<stop offset="1" stop-color="#FAFAFA"/>
</radialGradient>
<radialGradient id="paint41_radial_615_992" cx="0" cy="0" r="1" gradientUnits="userSpaceOnUse" gradientTransform="translate(663.298 868.694) rotate(85.3036) scale(25.2725)">
<stop stop-color="#F6F5F5"/>
<stop offset="1" stop-color="#FAFAFA"/>
</radialGradient>
<radialGradient id="paint42_radial_615_992" cx="0" cy="0" r="1" gradientUnits="userSpaceOnUse" gradientTransform="translate(712.405 868.694) rotate(85.3036) scale(25.2725)">
<stop stop-color="#F6F5F5"/>
<stop offset="1" stop-color="#FAFAFA"/>
</radialGradient>
<radialGradient id="paint43_radial_615_992" cx="0" cy="0" r="1" gradientUnits="userSpaceOnUse" gradientTransform="translate(761.523 868.694) rotate(85.3036) scale(25.2725)">
<stop stop-color="#F6F5F5"/>
<stop offset="1" stop-color="#FAFAFA"/>
</radialGradient>
<radialGradient id="paint44_radial_615_992" cx="0" cy="0" r="1" gradientUnits="userSpaceOnUse" gradientTransform="translate(614.185 718.048) rotate(85.3036) scale(25.2725)">
<stop stop-color="#F6F5F5"/>
<stop offset="1" stop-color="#FAFAFA"/>
</radialGradient>
<radialGradient id="paint45_radial_615_992" cx="0" cy="0" r="1" gradientUnits="userSpaceOnUse" gradientTransform="translate(663.298 718.048) rotate(85.3036) scale(25.2725)">
<stop stop-color="#F6F5F5"/>
<stop offset="1" stop-color="#FAFAFA"/>
</radialGradient>
<radialGradient id="paint46_radial_615_992" cx="0" cy="0" r="1" gradientUnits="userSpaceOnUse" gradientTransform="translate(712.405 718.048) rotate(85.3036) scale(25.2725)">
<stop stop-color="#F6F5F5"/>
<stop offset="1" stop-color="#FAFAFA"/>
</radialGradient>
<radialGradient id="paint47_radial_615_992" cx="0" cy="0" r="1" gradientUnits="userSpaceOnUse" gradientTransform="translate(761.523 718.048) rotate(85.3036) scale(25.2725)">
<stop stop-color="#F6F5F5"/>
<stop offset="1" stop-color="#FAFAFA"/>
</radialGradient>
<radialGradient id="paint48_radial_615_992" cx="0" cy="0" r="1" gradientUnits="userSpaceOnUse" gradientTransform="translate(614.185 818.48) rotate(85.3036) scale(25.2725)">
<stop stop-color="#F6F5F5"/>
<stop offset="1" stop-color="#FAFAFA"/>
</radialGradient>
<radialGradient id="paint49_radial_615_992" cx="0" cy="0" r="1" gradientUnits="userSpaceOnUse" gradientTransform="translate(663.298 818.48) rotate(85.3036) scale(25.2725)">
<stop stop-color="#F6F5F5"/>
<stop offset="1" stop-color="#FAFAFA"/>
</radialGradient>
<radialGradient id="paint50_radial_615_992" cx="0" cy="0" r="1" gradientUnits="userSpaceOnUse" gradientTransform="translate(712.405 818.48) rotate(85.3036) scale(25.2725)">
<stop stop-color="#F6F5F5"/>
<stop offset="1" stop-color="#FAFAFA"/>
</radialGradient>
<radialGradient id="paint51_radial_615_992" cx="0" cy="0" r="1" gradientUnits="userSpaceOnUse" gradientTransform="translate(761.523 818.48) rotate(85.3036) scale(25.2725)">
<stop stop-color="#F6F5F5"/>
<stop offset="1" stop-color="#FAFAFA"/>
</radialGradient>
<radialGradient id="paint52_radial_615_992" cx="0" cy="0" r="1" gradientUnits="userSpaceOnUse" gradientTransform="translate(614.185 918.91) rotate(85.3036) scale(25.2725)">
<stop stop-color="#F6F5F5"/>
<stop offset="1" stop-color="#FAFAFA"/>
</radialGradient>
<radialGradient id="paint53_radial_615_992" cx="0" cy="0" r="1" gradientUnits="userSpaceOnUse" gradientTransform="translate(663.298 918.909) rotate(85.3036) scale(25.2725)">
<stop stop-color="#F6F5F5"/>
<stop offset="1" stop-color="#FAFAFA"/>
</radialGradient>
<radialGradient id="paint54_radial_615_992" cx="0" cy="0" r="1" gradientUnits="userSpaceOnUse" gradientTransform="translate(712.405 918.909) rotate(85.3036) scale(25.2725)">
<stop stop-color="#F6F5F5"/>
<stop offset="1" stop-color="#FAFAFA"/>
</radialGradient>
<radialGradient id="paint55_radial_615_992" cx="0" cy="0" r="1" gradientUnits="userSpaceOnUse" gradientTransform="translate(761.523 918.91) rotate(85.3036) scale(25.2725)">
<stop stop-color="#F6F5F5"/>
<stop offset="1" stop-color="#FAFAFA"/>
</radialGradient>
</defs>
</svg>
