<svg width="768" height="641" viewBox="0 0 768 641" fill="none" xmlns="http://www.w3.org/2000/svg">
<rect x="-9.29443" y="14.5331" width="20.553" height="20.553" rx="4.60437" transform="rotate(-45 -9.29443 14.5331)" fill="url(#paint0_radial_615_992)" fill-opacity="0.6"/>
<rect x="28.9829" y="14.5331" width="20.553" height="20.553" rx="4.60437" transform="rotate(-45 28.9829 14.5331)" fill="url(#paint1_radial_615_992)" fill-opacity="0.6"/>
<rect x="67.2603" y="14.5331" width="20.553" height="20.553" rx="4.60437" transform="rotate(-45 67.2603 14.5331)" fill="url(#paint2_radial_615_992)" fill-opacity="0.6"/>
<rect x="105.534" y="14.5331" width="20.553" height="20.553" rx="4.60437" transform="rotate(-45 105.534 14.5331)" fill="url(#paint3_radial_615_992)" fill-opacity="0.6"/>
<rect x="143.811" y="14.5331" width="20.553" height="20.553" rx="4.60437" transform="rotate(-45 143.811 14.5331)" fill="url(#paint4_radial_615_992)" fill-opacity="0.6"/>
<rect x="182.088" y="14.5331" width="20.553" height="20.553" rx="4.60437" transform="rotate(-45 182.088 14.5331)" fill="url(#paint5_radial_615_992)" fill-opacity="0.6"/>
<rect x="-9.29443" y="92.8076" width="20.553" height="20.553" rx="4.60437" transform="rotate(-45 -9.29443 92.8076)" fill="url(#paint6_radial_615_992)" fill-opacity="0.6"/>
<rect x="28.9829" y="92.8077" width="20.553" height="20.553" rx="4.60437" transform="rotate(-45 28.9829 92.8077)" fill="url(#paint7_radial_615_992)" fill-opacity="0.6"/>
<rect x="67.2603" y="92.8076" width="20.553" height="20.553" rx="4.60437" transform="rotate(-45 67.2603 92.8076)" fill="url(#paint8_radial_615_992)" fill-opacity="0.6"/>
<rect x="105.534" y="92.8077" width="20.553" height="20.553" rx="4.60437" transform="rotate(-45 105.534 92.8077)" fill="url(#paint9_radial_615_992)" fill-opacity="0.6"/>
<rect x="143.811" y="92.8077" width="20.553" height="20.553" rx="4.60437" transform="rotate(-45 143.811 92.8077)" fill="url(#paint10_radial_615_992)" fill-opacity="0.6"/>
<rect x="182.088" y="92.8077" width="20.553" height="20.553" rx="4.60437" transform="rotate(-45 182.088 92.8077)" fill="url(#paint11_radial_615_992)" fill-opacity="0.6"/>
<rect x="-9.29443" y="171.082" width="20.553" height="20.553" rx="4.60437" transform="rotate(-45 -9.29443 171.082)" fill="url(#paint12_radial_615_992)" fill-opacity="0.6"/>
<rect x="28.9829" y="171.082" width="20.553" height="20.553" rx="4.60437" transform="rotate(-45 28.9829 171.082)" fill="url(#paint13_radial_615_992)" fill-opacity="0.6"/>
<rect x="67.2603" y="171.082" width="20.553" height="20.553" rx="4.60437" transform="rotate(-45 67.2603 171.082)" fill="url(#paint14_radial_615_992)" fill-opacity="0.6"/>
<rect x="105.534" y="171.082" width="20.553" height="20.553" rx="4.60437" transform="rotate(-45 105.534 171.082)" fill="url(#paint15_radial_615_992)" fill-opacity="0.6"/>
<rect x="143.811" y="171.082" width="20.553" height="20.553" rx="4.60437" transform="rotate(-45 143.811 171.082)" fill="url(#paint16_radial_615_992)" fill-opacity="0.6"/>
<rect x="182.088" y="171.082" width="20.553" height="20.553" rx="4.60437" transform="rotate(-45 182.088 171.082)" fill="url(#paint17_radial_615_992)" fill-opacity="0.6"/>
<rect x="-9.29443" y="53.6704" width="20.553" height="20.553" rx="4.60437" transform="rotate(-45 -9.29443 53.6704)" fill="url(#paint18_radial_615_992)" fill-opacity="0.6"/>
<rect x="28.9829" y="53.6704" width="20.553" height="20.553" rx="4.60437" transform="rotate(-45 28.9829 53.6704)" fill="url(#paint19_radial_615_992)" fill-opacity="0.6"/>
<rect x="67.2603" y="53.6704" width="20.553" height="20.553" rx="4.60437" transform="rotate(-45 67.2603 53.6704)" fill="url(#paint20_radial_615_992)" fill-opacity="0.6"/>
<rect x="105.534" y="53.6704" width="20.553" height="20.553" rx="4.60437" transform="rotate(-45 105.534 53.6704)" fill="url(#paint21_radial_615_992)" fill-opacity="0.6"/>
<rect x="143.811" y="53.6704" width="20.553" height="20.553" rx="4.60437" transform="rotate(-45 143.811 53.6704)" fill="url(#paint22_radial_615_992)" fill-opacity="0.6"/>
<rect x="182.088" y="53.6704" width="20.553" height="20.553" rx="4.60437" transform="rotate(-45 182.088 53.6704)" fill="url(#paint23_radial_615_992)" fill-opacity="0.6"/>
<rect x="-9.29443" y="131.945" width="20.553" height="20.553" rx="4.60437" transform="rotate(-45 -9.29443 131.945)" fill="url(#paint24_radial_615_992)" fill-opacity="0.6"/>
<rect x="28.9829" y="131.945" width="20.553" height="20.553" rx="4.60437" transform="rotate(-45 28.9829 131.945)" fill="url(#paint25_radial_615_992)" fill-opacity="0.6"/>
<rect x="67.2603" y="131.945" width="20.553" height="20.553" rx="4.60437" transform="rotate(-45 67.2603 131.945)" fill="url(#paint26_radial_615_992)" fill-opacity="0.6"/>
<rect x="105.534" y="131.945" width="20.553" height="20.553" rx="4.60437" transform="rotate(-45 105.534 131.945)" fill="url(#paint27_radial_615_992)" fill-opacity="0.6"/>
<rect x="143.811" y="131.945" width="20.553" height="20.553" rx="4.60437" transform="rotate(-45 143.811 131.945)" fill="url(#paint28_radial_615_992)" fill-opacity="0.6"/>
<rect x="182.088" y="131.945" width="20.553" height="20.553" rx="4.60437" transform="rotate(-45 182.088 131.945)" fill="url(#paint29_radial_615_992)" fill-opacity="0.6"/>
<rect x="-9.29443" y="210.219" width="20.553" height="20.553" rx="4.60437" transform="rotate(-45 -9.29443 210.219)" fill="url(#paint30_radial_615_992)" fill-opacity="0.6"/>
<rect x="28.9829" y="210.219" width="20.553" height="20.553" rx="4.60437" transform="rotate(-45 28.9829 210.219)" fill="url(#paint31_radial_615_992)" fill-opacity="0.6"/>
<rect x="67.2603" y="210.219" width="20.553" height="20.553" rx="4.60437" transform="rotate(-45 67.2603 210.219)" fill="url(#paint32_radial_615_992)" fill-opacity="0.6"/>
<rect x="105.534" y="210.219" width="20.553" height="20.553" rx="4.60437" transform="rotate(-45 105.534 210.219)" fill="url(#paint33_radial_615_992)" fill-opacity="0.6"/>
<rect x="143.811" y="210.219" width="20.553" height="20.553" rx="4.60437" transform="rotate(-45 143.811 210.219)" fill="url(#paint34_radial_615_992)" fill-opacity="0.6"/>
<rect x="182.088" y="210.219" width="20.553" height="20.553" rx="4.60437" transform="rotate(-45 182.088 210.219)" fill="url(#paint35_radial_615_992)" fill-opacity="0.6"/>
<rect x="599" y="429.614" width="20.6671" height="20.6671" rx="4.62993" transform="rotate(-45 599 429.614)" fill="url(#paint36_radial_615_992)" fill-opacity="0.6"/>
<rect x="637.494" y="429.614" width="20.6671" height="20.6671" rx="4.62993" transform="rotate(-45 637.494 429.614)" fill="url(#paint37_radial_615_992)" fill-opacity="0.6"/>
<rect x="675.979" y="429.614" width="20.6671" height="20.6671" rx="4.62993" transform="rotate(-45 675.979 429.614)" fill="url(#paint38_radial_615_992)" fill-opacity="0.6"/>
<rect x="714.464" y="429.614" width="20.6671" height="20.6671" rx="4.62993" transform="rotate(-45 714.464 429.614)" fill="url(#paint39_radial_615_992)" fill-opacity="0.6"/>
<rect x="752.959" y="429.614" width="20.6671" height="20.6671" rx="4.62993" transform="rotate(-45 752.959 429.614)" fill="url(#paint40_radial_615_992)" fill-opacity="0.6"/>
<rect x="599" y="508.323" width="20.6671" height="20.6671" rx="4.62993" transform="rotate(-45 599 508.323)" fill="url(#paint41_radial_615_992)" fill-opacity="0.6"/>
<rect x="637.494" y="508.323" width="20.6671" height="20.6671" rx="4.62993" transform="rotate(-45 637.494 508.323)" fill="url(#paint42_radial_615_992)" fill-opacity="0.6"/>
<rect x="675.979" y="508.323" width="20.6671" height="20.6671" rx="4.62993" transform="rotate(-45 675.979 508.323)" fill="url(#paint43_radial_615_992)" fill-opacity="0.6"/>
<rect x="714.464" y="508.323" width="20.6671" height="20.6671" rx="4.62993" transform="rotate(-45 714.464 508.323)" fill="url(#paint44_radial_615_992)" fill-opacity="0.6"/>
<rect x="752.959" y="508.323" width="20.6671" height="20.6671" rx="4.62993" transform="rotate(-45 752.959 508.323)" fill="url(#paint45_radial_615_992)" fill-opacity="0.6"/>
<rect x="599" y="587.032" width="20.6671" height="20.6671" rx="4.62993" transform="rotate(-45 599 587.032)" fill="url(#paint46_radial_615_992)" fill-opacity="0.6"/>
<rect x="637.494" y="587.032" width="20.6671" height="20.6671" rx="4.62993" transform="rotate(-45 637.494 587.032)" fill="url(#paint47_radial_615_992)" fill-opacity="0.6"/>
<rect x="675.979" y="587.032" width="20.6671" height="20.6671" rx="4.62993" transform="rotate(-45 675.979 587.032)" fill="url(#paint48_radial_615_992)" fill-opacity="0.6"/>
<rect x="714.464" y="587.032" width="20.6671" height="20.6671" rx="4.62993" transform="rotate(-45 714.464 587.032)" fill="url(#paint49_radial_615_992)" fill-opacity="0.6"/>
<rect x="752.959" y="587.032" width="20.6671" height="20.6671" rx="4.62993" transform="rotate(-45 752.959 587.032)" fill="url(#paint50_radial_615_992)" fill-opacity="0.6"/>
<rect x="599" y="468.968" width="20.6671" height="20.6671" rx="4.62993" transform="rotate(-45 599 468.968)" fill="url(#paint51_radial_615_992)" fill-opacity="0.6"/>
<rect x="637.494" y="468.968" width="20.6671" height="20.6671" rx="4.62993" transform="rotate(-45 637.494 468.968)" fill="url(#paint52_radial_615_992)" fill-opacity="0.6"/>
<rect x="675.979" y="468.968" width="20.6671" height="20.6671" rx="4.62993" transform="rotate(-45 675.979 468.968)" fill="url(#paint53_radial_615_992)" fill-opacity="0.6"/>
<rect x="714.464" y="468.968" width="20.6671" height="20.6671" rx="4.62993" transform="rotate(-45 714.464 468.968)" fill="url(#paint54_radial_615_992)" fill-opacity="0.6"/>
<rect x="752.959" y="468.968" width="20.6671" height="20.6671" rx="4.62993" transform="rotate(-45 752.959 468.968)" fill="url(#paint55_radial_615_992)" fill-opacity="0.6"/>
<rect x="599" y="547.677" width="20.6671" height="20.6671" rx="4.62993" transform="rotate(-45 599 547.677)" fill="url(#paint56_radial_615_992)" fill-opacity="0.6"/>
<rect x="637.494" y="547.677" width="20.6671" height="20.6671" rx="4.62993" transform="rotate(-45 637.494 547.677)" fill="url(#paint57_radial_615_992)" fill-opacity="0.6"/>
<rect x="675.979" y="547.677" width="20.6671" height="20.6671" rx="4.62993" transform="rotate(-45 675.979 547.677)" fill="url(#paint58_radial_615_992)" fill-opacity="0.6"/>
<rect x="714.464" y="547.677" width="20.6671" height="20.6671" rx="4.62993" transform="rotate(-45 714.464 547.677)" fill="url(#paint59_radial_615_992)" fill-opacity="0.6"/>
<rect x="752.959" y="547.677" width="20.6671" height="20.6671" rx="4.62993" transform="rotate(-45 752.959 547.677)" fill="url(#paint60_radial_615_992)" fill-opacity="0.6"/>
<rect x="599" y="626.386" width="20.6671" height="20.6671" rx="4.62993" transform="rotate(-45 599 626.386)" fill="url(#paint61_radial_615_992)" fill-opacity="0.6"/>
<rect x="637.494" y="626.386" width="20.6671" height="20.6671" rx="4.62993" transform="rotate(-45 637.494 626.386)" fill="url(#paint62_radial_615_992)" fill-opacity="0.6"/>
<rect x="675.979" y="626.386" width="20.6671" height="20.6671" rx="4.62993" transform="rotate(-45 675.979 626.386)" fill="url(#paint63_radial_615_992)" fill-opacity="0.6"/>
<rect x="714.464" y="626.386" width="20.6671" height="20.6671" rx="4.62993" transform="rotate(-45 714.464 626.386)" fill="url(#paint64_radial_615_992)" fill-opacity="0.6"/>
<rect x="752.959" y="626.386" width="20.6671" height="20.6671" rx="4.62993" transform="rotate(-45 752.959 626.386)" fill="url(#paint65_radial_615_992)" fill-opacity="0.6"/>
<defs>
<radialGradient id="paint0_radial_615_992" cx="0" cy="0" r="1" gradientUnits="userSpaceOnUse" gradientTransform="translate(0.982066 24.8096) rotate(85.3036) scale(19.697)">
<stop stop-color="white"/>
<stop offset="1" stop-color="#FAFAFA"/>
</radialGradient>
<radialGradient id="paint1_radial_615_992" cx="0" cy="0" r="1" gradientUnits="userSpaceOnUse" gradientTransform="translate(39.2594 24.8096) rotate(85.3036) scale(19.697)">
<stop stop-color="white"/>
<stop offset="1" stop-color="#FAFAFA"/>
</radialGradient>
<radialGradient id="paint2_radial_615_992" cx="0" cy="0" r="1" gradientUnits="userSpaceOnUse" gradientTransform="translate(77.5368 24.8096) rotate(85.3036) scale(19.697)">
<stop stop-color="white"/>
<stop offset="1" stop-color="#FAFAFA"/>
</radialGradient>
<radialGradient id="paint3_radial_615_992" cx="0" cy="0" r="1" gradientUnits="userSpaceOnUse" gradientTransform="translate(115.81 24.8096) rotate(85.3036) scale(19.697)">
<stop stop-color="white"/>
<stop offset="1" stop-color="#FAFAFA"/>
</radialGradient>
<radialGradient id="paint4_radial_615_992" cx="0" cy="0" r="1" gradientUnits="userSpaceOnUse" gradientTransform="translate(154.088 24.8096) rotate(85.3036) scale(19.697)">
<stop stop-color="white"/>
<stop offset="1" stop-color="#FAFAFA"/>
</radialGradient>
<radialGradient id="paint5_radial_615_992" cx="0" cy="0" r="1" gradientUnits="userSpaceOnUse" gradientTransform="translate(192.365 24.8096) rotate(85.3036) scale(19.697)">
<stop stop-color="white"/>
<stop offset="1" stop-color="#FAFAFA"/>
</radialGradient>
<radialGradient id="paint6_radial_615_992" cx="0" cy="0" r="1" gradientUnits="userSpaceOnUse" gradientTransform="translate(0.982066 103.084) rotate(85.3036) scale(19.697)">
<stop stop-color="white"/>
<stop offset="1" stop-color="#FAFAFA"/>
</radialGradient>
<radialGradient id="paint7_radial_615_992" cx="0" cy="0" r="1" gradientUnits="userSpaceOnUse" gradientTransform="translate(39.2594 103.084) rotate(85.3036) scale(19.697)">
<stop stop-color="white"/>
<stop offset="1" stop-color="#FAFAFA"/>
</radialGradient>
<radialGradient id="paint8_radial_615_992" cx="0" cy="0" r="1" gradientUnits="userSpaceOnUse" gradientTransform="translate(77.5368 103.084) rotate(85.3036) scale(19.697)">
<stop stop-color="white"/>
<stop offset="1" stop-color="#FAFAFA"/>
</radialGradient>
<radialGradient id="paint9_radial_615_992" cx="0" cy="0" r="1" gradientUnits="userSpaceOnUse" gradientTransform="translate(115.81 103.084) rotate(85.3036) scale(19.697)">
<stop stop-color="white"/>
<stop offset="1" stop-color="#FAFAFA"/>
</radialGradient>
<radialGradient id="paint10_radial_615_992" cx="0" cy="0" r="1" gradientUnits="userSpaceOnUse" gradientTransform="translate(154.088 103.084) rotate(85.3036) scale(19.697)">
<stop stop-color="white"/>
<stop offset="1" stop-color="#FAFAFA"/>
</radialGradient>
<radialGradient id="paint11_radial_615_992" cx="0" cy="0" r="1" gradientUnits="userSpaceOnUse" gradientTransform="translate(192.365 103.084) rotate(85.3036) scale(19.697)">
<stop stop-color="white"/>
<stop offset="1" stop-color="#FAFAFA"/>
</radialGradient>
<radialGradient id="paint12_radial_615_992" cx="0" cy="0" r="1" gradientUnits="userSpaceOnUse" gradientTransform="translate(0.982066 181.358) rotate(85.3036) scale(19.697)">
<stop stop-color="white"/>
<stop offset="1" stop-color="#FAFAFA"/>
</radialGradient>
<radialGradient id="paint13_radial_615_992" cx="0" cy="0" r="1" gradientUnits="userSpaceOnUse" gradientTransform="translate(39.2594 181.358) rotate(85.3036) scale(19.697)">
<stop stop-color="white"/>
<stop offset="1" stop-color="#FAFAFA"/>
</radialGradient>
<radialGradient id="paint14_radial_615_992" cx="0" cy="0" r="1" gradientUnits="userSpaceOnUse" gradientTransform="translate(77.5368 181.358) rotate(85.3036) scale(19.697)">
<stop stop-color="white"/>
<stop offset="1" stop-color="#FAFAFA"/>
</radialGradient>
<radialGradient id="paint15_radial_615_992" cx="0" cy="0" r="1" gradientUnits="userSpaceOnUse" gradientTransform="translate(115.81 181.358) rotate(85.3036) scale(19.697)">
<stop stop-color="white"/>
<stop offset="1" stop-color="#FAFAFA"/>
</radialGradient>
<radialGradient id="paint16_radial_615_992" cx="0" cy="0" r="1" gradientUnits="userSpaceOnUse" gradientTransform="translate(154.088 181.358) rotate(85.3036) scale(19.697)">
<stop stop-color="white"/>
<stop offset="1" stop-color="#FAFAFA"/>
</radialGradient>
<radialGradient id="paint17_radial_615_992" cx="0" cy="0" r="1" gradientUnits="userSpaceOnUse" gradientTransform="translate(192.365 181.358) rotate(85.3036) scale(19.697)">
<stop stop-color="white"/>
<stop offset="1" stop-color="#FAFAFA"/>
</radialGradient>
<radialGradient id="paint18_radial_615_992" cx="0" cy="0" r="1" gradientUnits="userSpaceOnUse" gradientTransform="translate(0.982066 63.9469) rotate(85.3036) scale(19.697)">
<stop stop-color="white"/>
<stop offset="1" stop-color="#FAFAFA"/>
</radialGradient>
<radialGradient id="paint19_radial_615_992" cx="0" cy="0" r="1" gradientUnits="userSpaceOnUse" gradientTransform="translate(39.2594 63.9469) rotate(85.3036) scale(19.697)">
<stop stop-color="white"/>
<stop offset="1" stop-color="#FAFAFA"/>
</radialGradient>
<radialGradient id="paint20_radial_615_992" cx="0" cy="0" r="1" gradientUnits="userSpaceOnUse" gradientTransform="translate(77.5368 63.9469) rotate(85.3036) scale(19.697)">
<stop stop-color="white"/>
<stop offset="1" stop-color="#FAFAFA"/>
</radialGradient>
<radialGradient id="paint21_radial_615_992" cx="0" cy="0" r="1" gradientUnits="userSpaceOnUse" gradientTransform="translate(115.81 63.9469) rotate(85.3036) scale(19.697)">
<stop stop-color="white"/>
<stop offset="1" stop-color="#FAFAFA"/>
</radialGradient>
<radialGradient id="paint22_radial_615_992" cx="0" cy="0" r="1" gradientUnits="userSpaceOnUse" gradientTransform="translate(154.088 63.9469) rotate(85.3036) scale(19.697)">
<stop stop-color="white"/>
<stop offset="1" stop-color="#FAFAFA"/>
</radialGradient>
<radialGradient id="paint23_radial_615_992" cx="0" cy="0" r="1" gradientUnits="userSpaceOnUse" gradientTransform="translate(192.365 63.9469) rotate(85.3036) scale(19.697)">
<stop stop-color="white"/>
<stop offset="1" stop-color="#FAFAFA"/>
</radialGradient>
<radialGradient id="paint24_radial_615_992" cx="0" cy="0" r="1" gradientUnits="userSpaceOnUse" gradientTransform="translate(0.982066 142.221) rotate(85.3036) scale(19.697)">
<stop stop-color="white"/>
<stop offset="1" stop-color="#FAFAFA"/>
</radialGradient>
<radialGradient id="paint25_radial_615_992" cx="0" cy="0" r="1" gradientUnits="userSpaceOnUse" gradientTransform="translate(39.2594 142.221) rotate(85.3036) scale(19.697)">
<stop stop-color="white"/>
<stop offset="1" stop-color="#FAFAFA"/>
</radialGradient>
<radialGradient id="paint26_radial_615_992" cx="0" cy="0" r="1" gradientUnits="userSpaceOnUse" gradientTransform="translate(77.5368 142.221) rotate(85.3036) scale(19.697)">
<stop stop-color="white"/>
<stop offset="1" stop-color="#FAFAFA"/>
</radialGradient>
<radialGradient id="paint27_radial_615_992" cx="0" cy="0" r="1" gradientUnits="userSpaceOnUse" gradientTransform="translate(115.81 142.221) rotate(85.3036) scale(19.697)">
<stop stop-color="white"/>
<stop offset="1" stop-color="#FAFAFA"/>
</radialGradient>
<radialGradient id="paint28_radial_615_992" cx="0" cy="0" r="1" gradientUnits="userSpaceOnUse" gradientTransform="translate(154.088 142.221) rotate(85.3036) scale(19.697)">
<stop stop-color="white"/>
<stop offset="1" stop-color="#FAFAFA"/>
</radialGradient>
<radialGradient id="paint29_radial_615_992" cx="0" cy="0" r="1" gradientUnits="userSpaceOnUse" gradientTransform="translate(192.365 142.221) rotate(85.3036) scale(19.697)">
<stop stop-color="white"/>
<stop offset="1" stop-color="#FAFAFA"/>
</radialGradient>
<radialGradient id="paint30_radial_615_992" cx="0" cy="0" r="1" gradientUnits="userSpaceOnUse" gradientTransform="translate(0.982066 220.496) rotate(85.3036) scale(19.697)">
<stop stop-color="white"/>
<stop offset="1" stop-color="#FAFAFA"/>
</radialGradient>
<radialGradient id="paint31_radial_615_992" cx="0" cy="0" r="1" gradientUnits="userSpaceOnUse" gradientTransform="translate(39.2594 220.496) rotate(85.3036) scale(19.697)">
<stop stop-color="white"/>
<stop offset="1" stop-color="#FAFAFA"/>
</radialGradient>
<radialGradient id="paint32_radial_615_992" cx="0" cy="0" r="1" gradientUnits="userSpaceOnUse" gradientTransform="translate(77.5368 220.496) rotate(85.3036) scale(19.697)">
<stop stop-color="white"/>
<stop offset="1" stop-color="#FAFAFA"/>
</radialGradient>
<radialGradient id="paint33_radial_615_992" cx="0" cy="0" r="1" gradientUnits="userSpaceOnUse" gradientTransform="translate(115.81 220.496) rotate(85.3036) scale(19.697)">
<stop stop-color="white"/>
<stop offset="1" stop-color="#FAFAFA"/>
</radialGradient>
<radialGradient id="paint34_radial_615_992" cx="0" cy="0" r="1" gradientUnits="userSpaceOnUse" gradientTransform="translate(154.088 220.496) rotate(85.3036) scale(19.697)">
<stop stop-color="white"/>
<stop offset="1" stop-color="#FAFAFA"/>
</radialGradient>
<radialGradient id="paint35_radial_615_992" cx="0" cy="0" r="1" gradientUnits="userSpaceOnUse" gradientTransform="translate(192.365 220.496) rotate(85.3036) scale(19.697)">
<stop stop-color="white"/>
<stop offset="1" stop-color="#FAFAFA"/>
</radialGradient>
<radialGradient id="paint36_radial_615_992" cx="0" cy="0" r="1" gradientUnits="userSpaceOnUse" gradientTransform="translate(609.334 439.947) rotate(85.3036) scale(19.8064)">
<stop stop-color="white"/>
<stop offset="1" stop-color="#FAFAFA"/>
</radialGradient>
<radialGradient id="paint37_radial_615_992" cx="0" cy="0" r="1" gradientUnits="userSpaceOnUse" gradientTransform="translate(647.828 439.947) rotate(85.3036) scale(19.8064)">
<stop stop-color="white"/>
<stop offset="1" stop-color="#FAFAFA"/>
</radialGradient>
<radialGradient id="paint38_radial_615_992" cx="0" cy="0" r="1" gradientUnits="userSpaceOnUse" gradientTransform="translate(686.313 439.947) rotate(85.3036) scale(19.8064)">
<stop stop-color="white"/>
<stop offset="1" stop-color="#FAFAFA"/>
</radialGradient>
<radialGradient id="paint39_radial_615_992" cx="0" cy="0" r="1" gradientUnits="userSpaceOnUse" gradientTransform="translate(724.798 439.947) rotate(85.3036) scale(19.8064)">
<stop stop-color="white"/>
<stop offset="1" stop-color="#FAFAFA"/>
</radialGradient>
<radialGradient id="paint40_radial_615_992" cx="0" cy="0" r="1" gradientUnits="userSpaceOnUse" gradientTransform="translate(763.293 439.947) rotate(85.3036) scale(19.8064)">
<stop stop-color="white"/>
<stop offset="1" stop-color="#FAFAFA"/>
</radialGradient>
<radialGradient id="paint41_radial_615_992" cx="0" cy="0" r="1" gradientUnits="userSpaceOnUse" gradientTransform="translate(609.334 518.656) rotate(85.3036) scale(19.8064)">
<stop stop-color="white"/>
<stop offset="1" stop-color="#FAFAFA"/>
</radialGradient>
<radialGradient id="paint42_radial_615_992" cx="0" cy="0" r="1" gradientUnits="userSpaceOnUse" gradientTransform="translate(647.828 518.656) rotate(85.3036) scale(19.8064)">
<stop stop-color="white"/>
<stop offset="1" stop-color="#FAFAFA"/>
</radialGradient>
<radialGradient id="paint43_radial_615_992" cx="0" cy="0" r="1" gradientUnits="userSpaceOnUse" gradientTransform="translate(686.313 518.656) rotate(85.3036) scale(19.8064)">
<stop stop-color="white"/>
<stop offset="1" stop-color="#FAFAFA"/>
</radialGradient>
<radialGradient id="paint44_radial_615_992" cx="0" cy="0" r="1" gradientUnits="userSpaceOnUse" gradientTransform="translate(724.798 518.656) rotate(85.3036) scale(19.8064)">
<stop stop-color="white"/>
<stop offset="1" stop-color="#FAFAFA"/>
</radialGradient>
<radialGradient id="paint45_radial_615_992" cx="0" cy="0" r="1" gradientUnits="userSpaceOnUse" gradientTransform="translate(763.293 518.656) rotate(85.3036) scale(19.8064)">
<stop stop-color="white"/>
<stop offset="1" stop-color="#FAFAFA"/>
</radialGradient>
<radialGradient id="paint46_radial_615_992" cx="0" cy="0" r="1" gradientUnits="userSpaceOnUse" gradientTransform="translate(609.334 597.365) rotate(85.3036) scale(19.8064)">
<stop stop-color="white"/>
<stop offset="1" stop-color="#FAFAFA"/>
</radialGradient>
<radialGradient id="paint47_radial_615_992" cx="0" cy="0" r="1" gradientUnits="userSpaceOnUse" gradientTransform="translate(647.828 597.365) rotate(85.3036) scale(19.8064)">
<stop stop-color="white"/>
<stop offset="1" stop-color="#FAFAFA"/>
</radialGradient>
<radialGradient id="paint48_radial_615_992" cx="0" cy="0" r="1" gradientUnits="userSpaceOnUse" gradientTransform="translate(686.313 597.365) rotate(85.3036) scale(19.8064)">
<stop stop-color="white"/>
<stop offset="1" stop-color="#FAFAFA"/>
</radialGradient>
<radialGradient id="paint49_radial_615_992" cx="0" cy="0" r="1" gradientUnits="userSpaceOnUse" gradientTransform="translate(724.798 597.365) rotate(85.3036) scale(19.8064)">
<stop stop-color="white"/>
<stop offset="1" stop-color="#FAFAFA"/>
</radialGradient>
<radialGradient id="paint50_radial_615_992" cx="0" cy="0" r="1" gradientUnits="userSpaceOnUse" gradientTransform="translate(763.293 597.365) rotate(85.3036) scale(19.8064)">
<stop stop-color="white"/>
<stop offset="1" stop-color="#FAFAFA"/>
</radialGradient>
<radialGradient id="paint51_radial_615_992" cx="0" cy="0" r="1" gradientUnits="userSpaceOnUse" gradientTransform="translate(609.334 479.302) rotate(85.3036) scale(19.8064)">
<stop stop-color="white"/>
<stop offset="1" stop-color="#FAFAFA"/>
</radialGradient>
<radialGradient id="paint52_radial_615_992" cx="0" cy="0" r="1" gradientUnits="userSpaceOnUse" gradientTransform="translate(647.828 479.302) rotate(85.3036) scale(19.8064)">
<stop stop-color="white"/>
<stop offset="1" stop-color="#FAFAFA"/>
</radialGradient>
<radialGradient id="paint53_radial_615_992" cx="0" cy="0" r="1" gradientUnits="userSpaceOnUse" gradientTransform="translate(686.313 479.302) rotate(85.3036) scale(19.8064)">
<stop stop-color="white"/>
<stop offset="1" stop-color="#FAFAFA"/>
</radialGradient>
<radialGradient id="paint54_radial_615_992" cx="0" cy="0" r="1" gradientUnits="userSpaceOnUse" gradientTransform="translate(724.798 479.302) rotate(85.3036) scale(19.8064)">
<stop stop-color="white"/>
<stop offset="1" stop-color="#FAFAFA"/>
</radialGradient>
<radialGradient id="paint55_radial_615_992" cx="0" cy="0" r="1" gradientUnits="userSpaceOnUse" gradientTransform="translate(763.293 479.302) rotate(85.3036) scale(19.8064)">
<stop stop-color="white"/>
<stop offset="1" stop-color="#FAFAFA"/>
</radialGradient>
<radialGradient id="paint56_radial_615_992" cx="0" cy="0" r="1" gradientUnits="userSpaceOnUse" gradientTransform="translate(609.334 558.011) rotate(85.3036) scale(19.8064)">
<stop stop-color="white"/>
<stop offset="1" stop-color="#FAFAFA"/>
</radialGradient>
<radialGradient id="paint57_radial_615_992" cx="0" cy="0" r="1" gradientUnits="userSpaceOnUse" gradientTransform="translate(647.828 558.011) rotate(85.3036) scale(19.8064)">
<stop stop-color="white"/>
<stop offset="1" stop-color="#FAFAFA"/>
</radialGradient>
<radialGradient id="paint58_radial_615_992" cx="0" cy="0" r="1" gradientUnits="userSpaceOnUse" gradientTransform="translate(686.313 558.011) rotate(85.3036) scale(19.8064)">
<stop stop-color="white"/>
<stop offset="1" stop-color="#FAFAFA"/>
</radialGradient>
<radialGradient id="paint59_radial_615_992" cx="0" cy="0" r="1" gradientUnits="userSpaceOnUse" gradientTransform="translate(724.798 558.011) rotate(85.3036) scale(19.8064)">
<stop stop-color="white"/>
<stop offset="1" stop-color="#FAFAFA"/>
</radialGradient>
<radialGradient id="paint60_radial_615_992" cx="0" cy="0" r="1" gradientUnits="userSpaceOnUse" gradientTransform="translate(763.293 558.011) rotate(85.3036) scale(19.8064)">
<stop stop-color="white"/>
<stop offset="1" stop-color="#FAFAFA"/>
</radialGradient>
<radialGradient id="paint61_radial_615_992" cx="0" cy="0" r="1" gradientUnits="userSpaceOnUse" gradientTransform="translate(609.334 636.72) rotate(85.3036) scale(19.8064)">
<stop stop-color="white"/>
<stop offset="1" stop-color="#FAFAFA"/>
</radialGradient>
<radialGradient id="paint62_radial_615_992" cx="0" cy="0" r="1" gradientUnits="userSpaceOnUse" gradientTransform="translate(647.828 636.72) rotate(85.3036) scale(19.8064)">
<stop stop-color="white"/>
<stop offset="1" stop-color="#FAFAFA"/>
</radialGradient>
<radialGradient id="paint63_radial_615_992" cx="0" cy="0" r="1" gradientUnits="userSpaceOnUse" gradientTransform="translate(686.313 636.72) rotate(85.3036) scale(19.8064)">
<stop stop-color="white"/>
<stop offset="1" stop-color="#FAFAFA"/>
</radialGradient>
<radialGradient id="paint64_radial_615_992" cx="0" cy="0" r="1" gradientUnits="userSpaceOnUse" gradientTransform="translate(724.798 636.72) rotate(85.3036) scale(19.8064)">
<stop stop-color="white"/>
<stop offset="1" stop-color="#FAFAFA"/>
</radialGradient>
<radialGradient id="paint65_radial_615_992" cx="0" cy="0" r="1" gradientUnits="userSpaceOnUse" gradientTransform="translate(763.293 636.72) rotate(85.3036) scale(19.8064)">
<stop stop-color="white"/>
<stop offset="1" stop-color="#FAFAFA"/>
</radialGradient>
</defs>
</svg>
