<svg width="764" height="811" viewBox="0 0 764 811" fill="none" xmlns="http://www.w3.org/2000/svg">
<rect x="-12.9492" y="581.089" width="343.779" height="343.779" rx="32" transform="rotate(-45 -12.9492 581.089)" fill="url(#paint0_radial_615_992)" fill-opacity="0.15"/>
<rect x="419.051" y="-34.4536" width="256.745" height="256.745" rx="45.0024" transform="rotate(-45 419.051 -34.4536)" fill="url(#paint1_radial_615_992)" fill-opacity="0.15"/>
<rect x="84.0508" y="586.964" width="11.2628" height="11.2628" rx="2.52315" transform="rotate(-45 84.0508 586.964)" fill="url(#paint2_radial_615_992)" fill-opacity="0.6"/>
<rect x="105.027" y="586.964" width="11.2628" height="11.2628" rx="2.52315" transform="rotate(-45 105.027 586.964)" fill="url(#paint3_radial_615_992)" fill-opacity="0.6"/>
<rect x="126" y="586.964" width="11.2628" height="11.2628" rx="2.52315" transform="rotate(-45 126 586.964)" fill="url(#paint4_radial_615_992)" fill-opacity="0.6"/>
<rect x="146.977" y="586.964" width="11.2628" height="11.2628" rx="2.52315" transform="rotate(-45 146.977 586.964)" fill="url(#paint5_radial_615_992)" fill-opacity="0.6"/>
<rect x="167.949" y="586.964" width="11.2628" height="11.2628" rx="2.52315" transform="rotate(-45 167.949 586.964)" fill="url(#paint6_radial_615_992)" fill-opacity="0.6"/>
<rect x="188.926" y="586.964" width="11.2628" height="11.2628" rx="2.52315" transform="rotate(-45 188.926 586.964)" fill="url(#paint7_radial_615_992)" fill-opacity="0.6"/>
<rect x="209.902" y="586.964" width="11.2628" height="11.2628" rx="2.52315" transform="rotate(-45 209.902 586.964)" fill="url(#paint8_radial_615_992)" fill-opacity="0.6"/>
<rect x="230.875" y="586.964" width="11.2628" height="11.2628" rx="2.52315" transform="rotate(-45 230.875 586.964)" fill="url(#paint9_radial_615_992)" fill-opacity="0.6"/>
<rect x="84.0508" y="629.858" width="11.2628" height="11.2628" rx="2.52315" transform="rotate(-45 84.0508 629.858)" fill="url(#paint10_radial_615_992)" fill-opacity="0.6"/>
<rect x="105.027" y="629.858" width="11.2628" height="11.2628" rx="2.52315" transform="rotate(-45 105.027 629.858)" fill="url(#paint11_radial_615_992)" fill-opacity="0.6"/>
<rect x="126" y="629.858" width="11.2628" height="11.2628" rx="2.52315" transform="rotate(-45 126 629.858)" fill="url(#paint12_radial_615_992)" fill-opacity="0.6"/>
<rect x="146.977" y="629.858" width="11.2628" height="11.2628" rx="2.52315" transform="rotate(-45 146.977 629.858)" fill="url(#paint13_radial_615_992)" fill-opacity="0.6"/>
<rect x="167.949" y="629.858" width="11.2628" height="11.2628" rx="2.52315" transform="rotate(-45 167.949 629.858)" fill="url(#paint14_radial_615_992)" fill-opacity="0.6"/>
<rect x="188.926" y="629.858" width="11.2628" height="11.2628" rx="2.52315" transform="rotate(-45 188.926 629.858)" fill="url(#paint15_radial_615_992)" fill-opacity="0.6"/>
<rect x="209.902" y="629.858" width="11.2628" height="11.2628" rx="2.52315" transform="rotate(-45 209.902 629.858)" fill="url(#paint16_radial_615_992)" fill-opacity="0.6"/>
<rect x="230.875" y="629.858" width="11.2628" height="11.2628" rx="2.52315" transform="rotate(-45 230.875 629.858)" fill="url(#paint17_radial_615_992)" fill-opacity="0.6"/>
<rect x="84.0508" y="672.751" width="11.2628" height="11.2628" rx="2.52315" transform="rotate(-45 84.0508 672.751)" fill="url(#paint18_radial_615_992)" fill-opacity="0.6"/>
<rect x="105.027" y="672.751" width="11.2628" height="11.2628" rx="2.52315" transform="rotate(-45 105.027 672.751)" fill="url(#paint19_radial_615_992)" fill-opacity="0.6"/>
<rect x="126" y="672.751" width="11.2628" height="11.2628" rx="2.52315" transform="rotate(-45 126 672.751)" fill="url(#paint20_radial_615_992)" fill-opacity="0.6"/>
<rect x="146.977" y="672.751" width="11.2628" height="11.2628" rx="2.52315" transform="rotate(-45 146.977 672.751)" fill="url(#paint21_radial_615_992)" fill-opacity="0.6"/>
<rect x="167.949" y="672.751" width="11.2628" height="11.2628" rx="2.52315" transform="rotate(-45 167.949 672.751)" fill="url(#paint22_radial_615_992)" fill-opacity="0.6"/>
<rect x="188.926" y="672.751" width="11.2628" height="11.2628" rx="2.52315" transform="rotate(-45 188.926 672.751)" fill="url(#paint23_radial_615_992)" fill-opacity="0.6"/>
<rect x="209.902" y="672.751" width="11.2628" height="11.2628" rx="2.52315" transform="rotate(-45 209.902 672.751)" fill="url(#paint24_radial_615_992)" fill-opacity="0.6"/>
<rect x="230.875" y="672.751" width="11.2628" height="11.2628" rx="2.52315" transform="rotate(-45 230.875 672.751)" fill="url(#paint25_radial_615_992)" fill-opacity="0.6"/>
<rect x="84.0508" y="608.411" width="11.2628" height="11.2628" rx="2.52315" transform="rotate(-45 84.0508 608.411)" fill="url(#paint26_radial_615_992)" fill-opacity="0.6"/>
<rect x="105.027" y="608.411" width="11.2628" height="11.2628" rx="2.52315" transform="rotate(-45 105.027 608.411)" fill="url(#paint27_radial_615_992)" fill-opacity="0.6"/>
<rect x="126" y="608.411" width="11.2628" height="11.2628" rx="2.52315" transform="rotate(-45 126 608.411)" fill="url(#paint28_radial_615_992)" fill-opacity="0.6"/>
<rect x="146.977" y="608.411" width="11.2628" height="11.2628" rx="2.52315" transform="rotate(-45 146.977 608.411)" fill="url(#paint29_radial_615_992)" fill-opacity="0.6"/>
<rect x="167.949" y="608.411" width="11.2628" height="11.2628" rx="2.52315" transform="rotate(-45 167.949 608.411)" fill="url(#paint30_radial_615_992)" fill-opacity="0.6"/>
<rect x="188.926" y="608.411" width="11.2628" height="11.2628" rx="2.52315" transform="rotate(-45 188.926 608.411)" fill="url(#paint31_radial_615_992)" fill-opacity="0.6"/>
<rect x="209.902" y="608.411" width="11.2628" height="11.2628" rx="2.52315" transform="rotate(-45 209.902 608.411)" fill="url(#paint32_radial_615_992)" fill-opacity="0.6"/>
<rect x="230.875" y="608.411" width="11.2628" height="11.2628" rx="2.52315" transform="rotate(-45 230.875 608.411)" fill="url(#paint33_radial_615_992)" fill-opacity="0.6"/>
<rect x="84.0508" y="651.304" width="11.2628" height="11.2628" rx="2.52315" transform="rotate(-45 84.0508 651.304)" fill="url(#paint34_radial_615_992)" fill-opacity="0.6"/>
<rect x="105.027" y="651.304" width="11.2628" height="11.2628" rx="2.52315" transform="rotate(-45 105.027 651.304)" fill="url(#paint35_radial_615_992)" fill-opacity="0.6"/>
<rect x="126" y="651.304" width="11.2628" height="11.2628" rx="2.52315" transform="rotate(-45 126 651.304)" fill="url(#paint36_radial_615_992)" fill-opacity="0.6"/>
<rect x="146.977" y="651.304" width="11.2628" height="11.2628" rx="2.52315" transform="rotate(-45 146.977 651.304)" fill="url(#paint37_radial_615_992)" fill-opacity="0.6"/>
<rect x="167.949" y="651.304" width="11.2628" height="11.2628" rx="2.52315" transform="rotate(-45 167.949 651.304)" fill="url(#paint38_radial_615_992)" fill-opacity="0.6"/>
<rect x="188.926" y="651.304" width="11.2628" height="11.2628" rx="2.52315" transform="rotate(-45 188.926 651.304)" fill="url(#paint39_radial_615_992)" fill-opacity="0.6"/>
<rect x="209.902" y="651.304" width="11.2628" height="11.2628" rx="2.52315" transform="rotate(-45 209.902 651.304)" fill="url(#paint40_radial_615_992)" fill-opacity="0.6"/>
<rect x="230.875" y="651.304" width="11.2628" height="11.2628" rx="2.52315" transform="rotate(-45 230.875 651.304)" fill="url(#paint41_radial_615_992)" fill-opacity="0.6"/>
<rect x="84.0508" y="694.198" width="11.2628" height="11.2628" rx="2.52315" transform="rotate(-45 84.0508 694.198)" fill="url(#paint42_radial_615_992)" fill-opacity="0.6"/>
<rect x="105.027" y="694.198" width="11.2628" height="11.2628" rx="2.52315" transform="rotate(-45 105.027 694.198)" fill="url(#paint43_radial_615_992)" fill-opacity="0.6"/>
<rect x="126" y="694.198" width="11.2628" height="11.2628" rx="2.52315" transform="rotate(-45 126 694.198)" fill="url(#paint44_radial_615_992)" fill-opacity="0.6"/>
<rect x="146.977" y="694.198" width="11.2628" height="11.2628" rx="2.52315" transform="rotate(-45 146.977 694.198)" fill="url(#paint45_radial_615_992)" fill-opacity="0.6"/>
<rect x="167.949" y="694.198" width="11.2628" height="11.2628" rx="2.52315" transform="rotate(-45 167.949 694.198)" fill="url(#paint46_radial_615_992)" fill-opacity="0.6"/>
<rect x="188.926" y="694.198" width="11.2628" height="11.2628" rx="2.52315" transform="rotate(-45 188.926 694.198)" fill="url(#paint47_radial_615_992)" fill-opacity="0.6"/>
<rect x="209.902" y="694.198" width="11.2628" height="11.2628" rx="2.52315" transform="rotate(-45 209.902 694.198)" fill="url(#paint48_radial_615_992)" fill-opacity="0.6"/>
<rect x="230.875" y="694.198" width="11.2628" height="11.2628" rx="2.52315" transform="rotate(-45 230.875 694.198)" fill="url(#paint49_radial_615_992)" fill-opacity="0.6"/>
<defs>
<radialGradient id="paint0_radial_615_992" cx="0" cy="0" r="1" gradientUnits="userSpaceOnUse" gradientTransform="translate(158.94 752.978) rotate(85.3036) scale(329.462)">
<stop stop-color="#DADADA"/>
<stop offset="1" stop-color="#FAFAFA"/>
</radialGradient>
<radialGradient id="paint1_radial_615_992" cx="0" cy="0" r="1" gradientUnits="userSpaceOnUse" gradientTransform="translate(547.423 93.9191) rotate(85.3036) scale(246.053)">
<stop stop-color="#DADADA"/>
<stop offset="1" stop-color="#FAFAFA"/>
</radialGradient>
<radialGradient id="paint2_radial_615_992" cx="0" cy="0" r="1" gradientUnits="userSpaceOnUse" gradientTransform="translate(89.6822 592.595) rotate(85.3036) scale(10.7938)">
<stop stop-color="white"/>
<stop offset="1" stop-color="#FAFAFA"/>
</radialGradient>
<radialGradient id="paint3_radial_615_992" cx="0" cy="0" r="1" gradientUnits="userSpaceOnUse" gradientTransform="translate(110.659 592.595) rotate(85.3036) scale(10.7938)">
<stop stop-color="white"/>
<stop offset="1" stop-color="#FAFAFA"/>
</radialGradient>
<radialGradient id="paint4_radial_615_992" cx="0" cy="0" r="1" gradientUnits="userSpaceOnUse" gradientTransform="translate(131.631 592.595) rotate(85.3036) scale(10.7938)">
<stop stop-color="white"/>
<stop offset="1" stop-color="#FAFAFA"/>
</radialGradient>
<radialGradient id="paint5_radial_615_992" cx="0" cy="0" r="1" gradientUnits="userSpaceOnUse" gradientTransform="translate(152.608 592.595) rotate(85.3036) scale(10.7938)">
<stop stop-color="white"/>
<stop offset="1" stop-color="#FAFAFA"/>
</radialGradient>
<radialGradient id="paint6_radial_615_992" cx="0" cy="0" r="1" gradientUnits="userSpaceOnUse" gradientTransform="translate(173.581 592.595) rotate(85.3036) scale(10.7938)">
<stop stop-color="white"/>
<stop offset="1" stop-color="#FAFAFA"/>
</radialGradient>
<radialGradient id="paint7_radial_615_992" cx="0" cy="0" r="1" gradientUnits="userSpaceOnUse" gradientTransform="translate(194.557 592.595) rotate(85.3036) scale(10.7938)">
<stop stop-color="white"/>
<stop offset="1" stop-color="#FAFAFA"/>
</radialGradient>
<radialGradient id="paint8_radial_615_992" cx="0" cy="0" r="1" gradientUnits="userSpaceOnUse" gradientTransform="translate(215.534 592.595) rotate(85.3036) scale(10.7938)">
<stop stop-color="white"/>
<stop offset="1" stop-color="#FAFAFA"/>
</radialGradient>
<radialGradient id="paint9_radial_615_992" cx="0" cy="0" r="1" gradientUnits="userSpaceOnUse" gradientTransform="translate(236.506 592.595) rotate(85.3036) scale(10.7938)">
<stop stop-color="white"/>
<stop offset="1" stop-color="#FAFAFA"/>
</radialGradient>
<radialGradient id="paint10_radial_615_992" cx="0" cy="0" r="1" gradientUnits="userSpaceOnUse" gradientTransform="translate(89.6822 635.489) rotate(85.3036) scale(10.7938)">
<stop stop-color="white"/>
<stop offset="1" stop-color="#FAFAFA"/>
</radialGradient>
<radialGradient id="paint11_radial_615_992" cx="0" cy="0" r="1" gradientUnits="userSpaceOnUse" gradientTransform="translate(110.659 635.489) rotate(85.3036) scale(10.7938)">
<stop stop-color="white"/>
<stop offset="1" stop-color="#FAFAFA"/>
</radialGradient>
<radialGradient id="paint12_radial_615_992" cx="0" cy="0" r="1" gradientUnits="userSpaceOnUse" gradientTransform="translate(131.631 635.489) rotate(85.3036) scale(10.7938)">
<stop stop-color="white"/>
<stop offset="1" stop-color="#FAFAFA"/>
</radialGradient>
<radialGradient id="paint13_radial_615_992" cx="0" cy="0" r="1" gradientUnits="userSpaceOnUse" gradientTransform="translate(152.608 635.489) rotate(85.3036) scale(10.7938)">
<stop stop-color="white"/>
<stop offset="1" stop-color="#FAFAFA"/>
</radialGradient>
<radialGradient id="paint14_radial_615_992" cx="0" cy="0" r="1" gradientUnits="userSpaceOnUse" gradientTransform="translate(173.581 635.489) rotate(85.3036) scale(10.7938)">
<stop stop-color="white"/>
<stop offset="1" stop-color="#FAFAFA"/>
</radialGradient>
<radialGradient id="paint15_radial_615_992" cx="0" cy="0" r="1" gradientUnits="userSpaceOnUse" gradientTransform="translate(194.557 635.489) rotate(85.3036) scale(10.7938)">
<stop stop-color="white"/>
<stop offset="1" stop-color="#FAFAFA"/>
</radialGradient>
<radialGradient id="paint16_radial_615_992" cx="0" cy="0" r="1" gradientUnits="userSpaceOnUse" gradientTransform="translate(215.534 635.489) rotate(85.3036) scale(10.7938)">
<stop stop-color="white"/>
<stop offset="1" stop-color="#FAFAFA"/>
</radialGradient>
<radialGradient id="paint17_radial_615_992" cx="0" cy="0" r="1" gradientUnits="userSpaceOnUse" gradientTransform="translate(236.506 635.489) rotate(85.3036) scale(10.7938)">
<stop stop-color="white"/>
<stop offset="1" stop-color="#FAFAFA"/>
</radialGradient>
<radialGradient id="paint18_radial_615_992" cx="0" cy="0" r="1" gradientUnits="userSpaceOnUse" gradientTransform="translate(89.6822 678.383) rotate(85.3036) scale(10.7938)">
<stop stop-color="white"/>
<stop offset="1" stop-color="#FAFAFA"/>
</radialGradient>
<radialGradient id="paint19_radial_615_992" cx="0" cy="0" r="1" gradientUnits="userSpaceOnUse" gradientTransform="translate(110.659 678.383) rotate(85.3036) scale(10.7938)">
<stop stop-color="white"/>
<stop offset="1" stop-color="#FAFAFA"/>
</radialGradient>
<radialGradient id="paint20_radial_615_992" cx="0" cy="0" r="1" gradientUnits="userSpaceOnUse" gradientTransform="translate(131.631 678.383) rotate(85.3036) scale(10.7938)">
<stop stop-color="white"/>
<stop offset="1" stop-color="#FAFAFA"/>
</radialGradient>
<radialGradient id="paint21_radial_615_992" cx="0" cy="0" r="1" gradientUnits="userSpaceOnUse" gradientTransform="translate(152.608 678.383) rotate(85.3036) scale(10.7938)">
<stop stop-color="white"/>
<stop offset="1" stop-color="#FAFAFA"/>
</radialGradient>
<radialGradient id="paint22_radial_615_992" cx="0" cy="0" r="1" gradientUnits="userSpaceOnUse" gradientTransform="translate(173.581 678.383) rotate(85.3036) scale(10.7938)">
<stop stop-color="white"/>
<stop offset="1" stop-color="#FAFAFA"/>
</radialGradient>
<radialGradient id="paint23_radial_615_992" cx="0" cy="0" r="1" gradientUnits="userSpaceOnUse" gradientTransform="translate(194.557 678.383) rotate(85.3036) scale(10.7938)">
<stop stop-color="white"/>
<stop offset="1" stop-color="#FAFAFA"/>
</radialGradient>
<radialGradient id="paint24_radial_615_992" cx="0" cy="0" r="1" gradientUnits="userSpaceOnUse" gradientTransform="translate(215.534 678.383) rotate(85.3036) scale(10.7938)">
<stop stop-color="white"/>
<stop offset="1" stop-color="#FAFAFA"/>
</radialGradient>
<radialGradient id="paint25_radial_615_992" cx="0" cy="0" r="1" gradientUnits="userSpaceOnUse" gradientTransform="translate(236.506 678.383) rotate(85.3036) scale(10.7938)">
<stop stop-color="white"/>
<stop offset="1" stop-color="#FAFAFA"/>
</radialGradient>
<radialGradient id="paint26_radial_615_992" cx="0" cy="0" r="1" gradientUnits="userSpaceOnUse" gradientTransform="translate(89.6822 614.042) rotate(85.3036) scale(10.7938)">
<stop stop-color="white"/>
<stop offset="1" stop-color="#FAFAFA"/>
</radialGradient>
<radialGradient id="paint27_radial_615_992" cx="0" cy="0" r="1" gradientUnits="userSpaceOnUse" gradientTransform="translate(110.659 614.042) rotate(85.3036) scale(10.7938)">
<stop stop-color="white"/>
<stop offset="1" stop-color="#FAFAFA"/>
</radialGradient>
<radialGradient id="paint28_radial_615_992" cx="0" cy="0" r="1" gradientUnits="userSpaceOnUse" gradientTransform="translate(131.631 614.042) rotate(85.3036) scale(10.7938)">
<stop stop-color="white"/>
<stop offset="1" stop-color="#FAFAFA"/>
</radialGradient>
<radialGradient id="paint29_radial_615_992" cx="0" cy="0" r="1" gradientUnits="userSpaceOnUse" gradientTransform="translate(152.608 614.042) rotate(85.3036) scale(10.7938)">
<stop stop-color="white"/>
<stop offset="1" stop-color="#FAFAFA"/>
</radialGradient>
<radialGradient id="paint30_radial_615_992" cx="0" cy="0" r="1" gradientUnits="userSpaceOnUse" gradientTransform="translate(173.581 614.042) rotate(85.3036) scale(10.7938)">
<stop stop-color="white"/>
<stop offset="1" stop-color="#FAFAFA"/>
</radialGradient>
<radialGradient id="paint31_radial_615_992" cx="0" cy="0" r="1" gradientUnits="userSpaceOnUse" gradientTransform="translate(194.557 614.042) rotate(85.3036) scale(10.7938)">
<stop stop-color="white"/>
<stop offset="1" stop-color="#FAFAFA"/>
</radialGradient>
<radialGradient id="paint32_radial_615_992" cx="0" cy="0" r="1" gradientUnits="userSpaceOnUse" gradientTransform="translate(215.534 614.042) rotate(85.3036) scale(10.7938)">
<stop stop-color="white"/>
<stop offset="1" stop-color="#FAFAFA"/>
</radialGradient>
<radialGradient id="paint33_radial_615_992" cx="0" cy="0" r="1" gradientUnits="userSpaceOnUse" gradientTransform="translate(236.506 614.042) rotate(85.3036) scale(10.7938)">
<stop stop-color="white"/>
<stop offset="1" stop-color="#FAFAFA"/>
</radialGradient>
<radialGradient id="paint34_radial_615_992" cx="0" cy="0" r="1" gradientUnits="userSpaceOnUse" gradientTransform="translate(89.6822 656.936) rotate(85.3036) scale(10.7938)">
<stop stop-color="white"/>
<stop offset="1" stop-color="#FAFAFA"/>
</radialGradient>
<radialGradient id="paint35_radial_615_992" cx="0" cy="0" r="1" gradientUnits="userSpaceOnUse" gradientTransform="translate(110.659 656.936) rotate(85.3036) scale(10.7938)">
<stop stop-color="white"/>
<stop offset="1" stop-color="#FAFAFA"/>
</radialGradient>
<radialGradient id="paint36_radial_615_992" cx="0" cy="0" r="1" gradientUnits="userSpaceOnUse" gradientTransform="translate(131.631 656.936) rotate(85.3036) scale(10.7938)">
<stop stop-color="white"/>
<stop offset="1" stop-color="#FAFAFA"/>
</radialGradient>
<radialGradient id="paint37_radial_615_992" cx="0" cy="0" r="1" gradientUnits="userSpaceOnUse" gradientTransform="translate(152.608 656.936) rotate(85.3036) scale(10.7938)">
<stop stop-color="white"/>
<stop offset="1" stop-color="#FAFAFA"/>
</radialGradient>
<radialGradient id="paint38_radial_615_992" cx="0" cy="0" r="1" gradientUnits="userSpaceOnUse" gradientTransform="translate(173.581 656.936) rotate(85.3036) scale(10.7938)">
<stop stop-color="white"/>
<stop offset="1" stop-color="#FAFAFA"/>
</radialGradient>
<radialGradient id="paint39_radial_615_992" cx="0" cy="0" r="1" gradientUnits="userSpaceOnUse" gradientTransform="translate(194.557 656.936) rotate(85.3036) scale(10.7938)">
<stop stop-color="white"/>
<stop offset="1" stop-color="#FAFAFA"/>
</radialGradient>
<radialGradient id="paint40_radial_615_992" cx="0" cy="0" r="1" gradientUnits="userSpaceOnUse" gradientTransform="translate(215.534 656.936) rotate(85.3036) scale(10.7938)">
<stop stop-color="white"/>
<stop offset="1" stop-color="#FAFAFA"/>
</radialGradient>
<radialGradient id="paint41_radial_615_992" cx="0" cy="0" r="1" gradientUnits="userSpaceOnUse" gradientTransform="translate(236.506 656.936) rotate(85.3036) scale(10.7938)">
<stop stop-color="white"/>
<stop offset="1" stop-color="#FAFAFA"/>
</radialGradient>
<radialGradient id="paint42_radial_615_992" cx="0" cy="0" r="1" gradientUnits="userSpaceOnUse" gradientTransform="translate(89.6822 699.83) rotate(85.3036) scale(10.7938)">
<stop stop-color="white"/>
<stop offset="1" stop-color="#FAFAFA"/>
</radialGradient>
<radialGradient id="paint43_radial_615_992" cx="0" cy="0" r="1" gradientUnits="userSpaceOnUse" gradientTransform="translate(110.659 699.83) rotate(85.3036) scale(10.7938)">
<stop stop-color="white"/>
<stop offset="1" stop-color="#FAFAFA"/>
</radialGradient>
<radialGradient id="paint44_radial_615_992" cx="0" cy="0" r="1" gradientUnits="userSpaceOnUse" gradientTransform="translate(131.631 699.83) rotate(85.3036) scale(10.7938)">
<stop stop-color="white"/>
<stop offset="1" stop-color="#FAFAFA"/>
</radialGradient>
<radialGradient id="paint45_radial_615_992" cx="0" cy="0" r="1" gradientUnits="userSpaceOnUse" gradientTransform="translate(152.608 699.83) rotate(85.3036) scale(10.7938)">
<stop stop-color="white"/>
<stop offset="1" stop-color="#FAFAFA"/>
</radialGradient>
<radialGradient id="paint46_radial_615_992" cx="0" cy="0" r="1" gradientUnits="userSpaceOnUse" gradientTransform="translate(173.581 699.83) rotate(85.3036) scale(10.7938)">
<stop stop-color="white"/>
<stop offset="1" stop-color="#FAFAFA"/>
</radialGradient>
<radialGradient id="paint47_radial_615_992" cx="0" cy="0" r="1" gradientUnits="userSpaceOnUse" gradientTransform="translate(194.557 699.83) rotate(85.3036) scale(10.7938)">
<stop stop-color="white"/>
<stop offset="1" stop-color="#FAFAFA"/>
</radialGradient>
<radialGradient id="paint48_radial_615_992" cx="0" cy="0" r="1" gradientUnits="userSpaceOnUse" gradientTransform="translate(215.534 699.83) rotate(85.3036) scale(10.7938)">
<stop stop-color="white"/>
<stop offset="1" stop-color="#FAFAFA"/>
</radialGradient>
<radialGradient id="paint49_radial_615_992" cx="0" cy="0" r="1" gradientUnits="userSpaceOnUse" gradientTransform="translate(236.506 699.83) rotate(85.3036) scale(10.7938)">
<stop stop-color="white"/>
<stop offset="1" stop-color="#FAFAFA"/>
</radialGradient>
</defs>
</svg>
