<svg width="736" height="247" viewBox="0 0 736 247" fill="none" xmlns="http://www.w3.org/2000/svg">
<g opacity="0.5">
<rect x="-9.71582" y="4.12158" width="15.086" height="15.086" rx="2" transform="rotate(-45 -9.71582 4.12158)" fill="url(#paint0_radial_1095_516)" fill-opacity="0.3"/>
<rect x="18.3818" y="4.12158" width="15.086" height="15.086" rx="2" transform="rotate(-45 18.3818 4.12158)" fill="url(#paint1_radial_1095_516)" fill-opacity="0.3"/>
<rect x="46.4746" y="4.12158" width="15.086" height="15.086" rx="2" transform="rotate(-45 46.4746 4.12158)" fill="url(#paint2_radial_1095_516)" fill-opacity="0.3"/>
<rect x="74.5684" y="4.12158" width="15.086" height="15.086" rx="2" transform="rotate(-45 74.5684 4.12158)" fill="url(#paint3_radial_1095_516)" fill-opacity="0.3"/>
<rect x="102.665" y="4.12158" width="15.086" height="15.086" rx="2" transform="rotate(-45 102.665 4.12158)" fill="url(#paint4_radial_1095_516)" fill-opacity="0.3"/>
</g>
<g opacity="0.5">
<rect x="-9.71582" y="61.5757" width="15.086" height="15.086" rx="2" transform="rotate(-45 -9.71582 61.5757)" fill="url(#paint5_radial_1095_516)" fill-opacity="0.3"/>
<rect x="18.3818" y="61.5757" width="15.086" height="15.086" rx="2" transform="rotate(-45 18.3818 61.5757)" fill="url(#paint6_radial_1095_516)" fill-opacity="0.3"/>
<rect x="46.4746" y="61.5757" width="15.086" height="15.086" rx="2" transform="rotate(-45 46.4746 61.5757)" fill="url(#paint7_radial_1095_516)" fill-opacity="0.3"/>
<rect x="74.5684" y="61.5757" width="15.086" height="15.086" rx="2" transform="rotate(-45 74.5684 61.5757)" fill="url(#paint8_radial_1095_516)" fill-opacity="0.3"/>
<rect x="102.665" y="61.5757" width="15.086" height="15.086" rx="2" transform="rotate(-45 102.665 61.5757)" fill="url(#paint9_radial_1095_516)" fill-opacity="0.3"/>
</g>
<g opacity="0.5">
<rect width="15.086" height="15.086" rx="2" transform="matrix(0.707105 -0.707108 0.707105 0.707108 -9.71582 32.8481)" fill="url(#paint10_radial_1095_516)" fill-opacity="0.3"/>
<rect width="15.086" height="15.086" rx="2" transform="matrix(0.707105 -0.707108 0.707105 0.707108 18.3818 32.8481)" fill="url(#paint11_radial_1095_516)" fill-opacity="0.3"/>
<rect width="15.086" height="15.086" rx="2" transform="matrix(0.707105 -0.707108 0.707105 0.707108 46.4746 32.8481)" fill="url(#paint12_radial_1095_516)" fill-opacity="0.3"/>
<rect width="15.086" height="15.086" rx="2" transform="matrix(0.707105 -0.707108 0.707105 0.707108 74.5684 32.8481)" fill="url(#paint13_radial_1095_516)" fill-opacity="0.3"/>
<rect width="15.086" height="15.086" rx="2" transform="matrix(0.707105 -0.707108 0.707105 0.707108 102.665 32.8481)" fill="url(#paint14_radial_1095_516)" fill-opacity="0.3"/>
</g>
<g opacity="0.5">
<rect x="-9.71582" y="90.3022" width="15.086" height="15.086" rx="2" transform="rotate(-45 -9.71582 90.3022)" fill="url(#paint15_radial_1095_516)" fill-opacity="0.3"/>
<rect x="18.3818" y="90.3022" width="15.086" height="15.086" rx="2" transform="rotate(-45 18.3818 90.3022)" fill="url(#paint16_radial_1095_516)" fill-opacity="0.3"/>
<rect x="46.4746" y="90.3022" width="15.086" height="15.086" rx="2" transform="rotate(-45 46.4746 90.3022)" fill="url(#paint17_radial_1095_516)" fill-opacity="0.3"/>
<rect x="74.5684" y="90.3022" width="15.086" height="15.086" rx="2" transform="rotate(-45 74.5684 90.3022)" fill="url(#paint18_radial_1095_516)" fill-opacity="0.3"/>
<rect x="102.665" y="90.3022" width="15.086" height="15.086" rx="2" transform="rotate(-45 102.665 90.3022)" fill="url(#paint19_radial_1095_516)" fill-opacity="0.3"/>
</g>
<rect x="398" y="47.7979" width="310.841" height="310.841" rx="32" transform="rotate(-45 398 47.7979)" fill="url(#paint20_radial_1095_516)" fill-opacity="0.3"/>
<rect x="-36" y="252.108" width="239.154" height="239.154" rx="32" transform="rotate(-45 -36 252.108)" fill="url(#paint21_radial_1095_516)" fill-opacity="0.3"/>
<defs>
<radialGradient id="paint0_radial_1095_516" cx="0" cy="0" r="1" gradientUnits="userSpaceOnUse" gradientTransform="translate(-2.1728 11.6646) rotate(85.3036) scale(14.4577)">
<stop stop-color="#D2D2D2"/>
<stop offset="1" stop-color="#FAFAFA"/>
</radialGradient>
<radialGradient id="paint1_radial_1095_516" cx="0" cy="0" r="1" gradientUnits="userSpaceOnUse" gradientTransform="translate(25.9249 11.6646) rotate(85.3036) scale(14.4577)">
<stop stop-color="#D2D2D2"/>
<stop offset="1" stop-color="#FAFAFA"/>
</radialGradient>
<radialGradient id="paint2_radial_1095_516" cx="0" cy="0" r="1" gradientUnits="userSpaceOnUse" gradientTransform="translate(54.0176 11.6646) rotate(85.3036) scale(14.4577)">
<stop stop-color="#D2D2D2"/>
<stop offset="1" stop-color="#FAFAFA"/>
</radialGradient>
<radialGradient id="paint3_radial_1095_516" cx="0" cy="0" r="1" gradientUnits="userSpaceOnUse" gradientTransform="translate(82.1114 11.6646) rotate(85.3036) scale(14.4577)">
<stop stop-color="#D2D2D2"/>
<stop offset="1" stop-color="#FAFAFA"/>
</radialGradient>
<radialGradient id="paint4_radial_1095_516" cx="0" cy="0" r="1" gradientUnits="userSpaceOnUse" gradientTransform="translate(110.208 11.6646) rotate(85.3036) scale(14.4577)">
<stop stop-color="#D2D2D2"/>
<stop offset="1" stop-color="#FAFAFA"/>
</radialGradient>
<radialGradient id="paint5_radial_1095_516" cx="0" cy="0" r="1" gradientUnits="userSpaceOnUse" gradientTransform="translate(-2.1728 69.1187) rotate(85.3036) scale(14.4577)">
<stop stop-color="#D2D2D2"/>
<stop offset="1" stop-color="#FAFAFA"/>
</radialGradient>
<radialGradient id="paint6_radial_1095_516" cx="0" cy="0" r="1" gradientUnits="userSpaceOnUse" gradientTransform="translate(25.9249 69.1187) rotate(85.3036) scale(14.4577)">
<stop stop-color="#D2D2D2"/>
<stop offset="1" stop-color="#FAFAFA"/>
</radialGradient>
<radialGradient id="paint7_radial_1095_516" cx="0" cy="0" r="1" gradientUnits="userSpaceOnUse" gradientTransform="translate(54.0176 69.1187) rotate(85.3036) scale(14.4577)">
<stop stop-color="#D2D2D2"/>
<stop offset="1" stop-color="#FAFAFA"/>
</radialGradient>
<radialGradient id="paint8_radial_1095_516" cx="0" cy="0" r="1" gradientUnits="userSpaceOnUse" gradientTransform="translate(82.1114 69.1187) rotate(85.3036) scale(14.4577)">
<stop stop-color="#D2D2D2"/>
<stop offset="1" stop-color="#FAFAFA"/>
</radialGradient>
<radialGradient id="paint9_radial_1095_516" cx="0" cy="0" r="1" gradientUnits="userSpaceOnUse" gradientTransform="translate(110.208 69.1187) rotate(85.3036) scale(14.4577)">
<stop stop-color="#D2D2D2"/>
<stop offset="1" stop-color="#FAFAFA"/>
</radialGradient>
<radialGradient id="paint10_radial_1095_516" cx="0" cy="0" r="1" gradientUnits="userSpaceOnUse" gradientTransform="translate(7.54302 7.54302) rotate(85.3036) scale(14.4577)">
<stop stop-color="#D2D2D2"/>
<stop offset="1" stop-color="#FAFAFA"/>
</radialGradient>
<radialGradient id="paint11_radial_1095_516" cx="0" cy="0" r="1" gradientUnits="userSpaceOnUse" gradientTransform="translate(7.54302 7.54302) rotate(85.3036) scale(14.4577)">
<stop stop-color="#D2D2D2"/>
<stop offset="1" stop-color="#FAFAFA"/>
</radialGradient>
<radialGradient id="paint12_radial_1095_516" cx="0" cy="0" r="1" gradientUnits="userSpaceOnUse" gradientTransform="translate(7.54302 7.54302) rotate(85.3036) scale(14.4577)">
<stop stop-color="#D2D2D2"/>
<stop offset="1" stop-color="#FAFAFA"/>
</radialGradient>
<radialGradient id="paint13_radial_1095_516" cx="0" cy="0" r="1" gradientUnits="userSpaceOnUse" gradientTransform="translate(7.54302 7.54302) rotate(85.3036) scale(14.4577)">
<stop stop-color="#D2D2D2"/>
<stop offset="1" stop-color="#FAFAFA"/>
</radialGradient>
<radialGradient id="paint14_radial_1095_516" cx="0" cy="0" r="1" gradientUnits="userSpaceOnUse" gradientTransform="translate(7.54302 7.54302) rotate(85.3036) scale(14.4577)">
<stop stop-color="#D2D2D2"/>
<stop offset="1" stop-color="#FAFAFA"/>
</radialGradient>
<radialGradient id="paint15_radial_1095_516" cx="0" cy="0" r="1" gradientUnits="userSpaceOnUse" gradientTransform="translate(-2.1728 97.8453) rotate(85.3036) scale(14.4577)">
<stop stop-color="#D2D2D2"/>
<stop offset="1" stop-color="#FAFAFA"/>
</radialGradient>
<radialGradient id="paint16_radial_1095_516" cx="0" cy="0" r="1" gradientUnits="userSpaceOnUse" gradientTransform="translate(25.9249 97.8453) rotate(85.3036) scale(14.4577)">
<stop stop-color="#D2D2D2"/>
<stop offset="1" stop-color="#FAFAFA"/>
</radialGradient>
<radialGradient id="paint17_radial_1095_516" cx="0" cy="0" r="1" gradientUnits="userSpaceOnUse" gradientTransform="translate(54.0176 97.8453) rotate(85.3036) scale(14.4577)">
<stop stop-color="#D2D2D2"/>
<stop offset="1" stop-color="#FAFAFA"/>
</radialGradient>
<radialGradient id="paint18_radial_1095_516" cx="0" cy="0" r="1" gradientUnits="userSpaceOnUse" gradientTransform="translate(82.1114 97.8453) rotate(85.3036) scale(14.4577)">
<stop stop-color="#D2D2D2"/>
<stop offset="1" stop-color="#FAFAFA"/>
</radialGradient>
<radialGradient id="paint19_radial_1095_516" cx="0" cy="0" r="1" gradientUnits="userSpaceOnUse" gradientTransform="translate(110.208 97.8453) rotate(85.3036) scale(14.4577)">
<stop stop-color="#D2D2D2"/>
<stop offset="1" stop-color="#FAFAFA"/>
</radialGradient>
<radialGradient id="paint20_radial_1095_516" cx="0" cy="0" r="1" gradientUnits="userSpaceOnUse" gradientTransform="translate(553.421 203.219) rotate(85.3036) scale(297.896)">
<stop stop-color="#D2D2D2"/>
<stop offset="1" stop-color="#FAFAFA"/>
</radialGradient>
<radialGradient id="paint21_radial_1095_516" cx="0" cy="0" r="1" gradientUnits="userSpaceOnUse" gradientTransform="translate(83.5773 371.685) rotate(85.3036) scale(229.194)">
<stop stop-color="#D2D2D2"/>
<stop offset="1" stop-color="#FAFAFA"/>
</radialGradient>
</defs>
</svg>
