<svg width="316" height="188" viewBox="0 0 316 188" fill="none" xmlns="http://www.w3.org/2000/svg">
<g opacity="0.5">
<rect x="168" y="2.52722" width="13.6256" height="13.6256" rx="1.21167" transform="rotate(-45 168 2.52722)" fill="url(#paint0_radial_1095_516)" fill-opacity="0.3"/>
<rect x="193.376" y="2.52722" width="13.6256" height="13.6256" rx="1.21167" transform="rotate(-45 193.376 2.52722)" fill="url(#paint1_radial_1095_516)" fill-opacity="0.3"/>
<rect x="218.749" y="2.52722" width="13.6256" height="13.6256" rx="1.21167" transform="rotate(-45 218.749 2.52722)" fill="url(#paint2_radial_1095_516)" fill-opacity="0.3"/>
<rect x="244.125" y="2.52722" width="13.6256" height="13.6256" rx="1.21167" transform="rotate(-45 244.125 2.52722)" fill="url(#paint3_radial_1095_516)" fill-opacity="0.3"/>
<rect x="269.503" y="2.52722" width="13.6256" height="13.6256" rx="1.21167" transform="rotate(-45 269.503 2.52722)" fill="url(#paint4_radial_1095_516)" fill-opacity="0.3"/>
<rect x="294.876" y="2.52722" width="13.6256" height="13.6256" rx="1.21167" transform="rotate(-45 294.876 2.52722)" fill="url(#paint5_radial_1095_516)" fill-opacity="0.3"/>
</g>
<g opacity="0.5">
<rect x="168" y="54.4189" width="13.6256" height="13.6256" rx="1.21167" transform="rotate(-45 168 54.4189)" fill="url(#paint6_radial_1095_516)" fill-opacity="0.3"/>
<rect x="193.376" y="54.4189" width="13.6256" height="13.6256" rx="1.21167" transform="rotate(-45 193.376 54.4189)" fill="url(#paint7_radial_1095_516)" fill-opacity="0.3"/>
<rect x="218.749" y="54.4189" width="13.6256" height="13.6256" rx="1.21167" transform="rotate(-45 218.749 54.4189)" fill="url(#paint8_radial_1095_516)" fill-opacity="0.3"/>
<rect x="244.125" y="54.4189" width="13.6256" height="13.6256" rx="1.21167" transform="rotate(-45 244.125 54.4189)" fill="url(#paint9_radial_1095_516)" fill-opacity="0.3"/>
<rect x="269.503" y="54.4189" width="13.6256" height="13.6256" rx="1.21167" transform="rotate(-45 269.503 54.4189)" fill="url(#paint10_radial_1095_516)" fill-opacity="0.3"/>
<rect x="294.876" y="54.4189" width="13.6256" height="13.6256" rx="1.21167" transform="rotate(-45 294.876 54.4189)" fill="url(#paint11_radial_1095_516)" fill-opacity="0.3"/>
</g>
<g opacity="0.5">
<rect width="13.6256" height="13.6256" rx="1.21167" transform="matrix(0.707105 -0.707108 0.707105 0.707108 168 28.4731)" fill="url(#paint12_radial_1095_516)" fill-opacity="0.3"/>
<rect width="13.6256" height="13.6256" rx="1.21167" transform="matrix(0.707105 -0.707108 0.707105 0.707108 193.376 28.4731)" fill="url(#paint13_radial_1095_516)" fill-opacity="0.3"/>
<rect width="13.6256" height="13.6256" rx="1.21167" transform="matrix(0.707105 -0.707108 0.707105 0.707108 218.749 28.4731)" fill="url(#paint14_radial_1095_516)" fill-opacity="0.3"/>
<rect width="13.6256" height="13.6256" rx="1.21167" transform="matrix(0.707105 -0.707108 0.707105 0.707108 244.125 28.473)" fill="url(#paint15_radial_1095_516)" fill-opacity="0.3"/>
<rect width="13.6256" height="13.6256" rx="1.21167" transform="matrix(0.707105 -0.707108 0.707105 0.707108 269.503 28.4731)" fill="url(#paint16_radial_1095_516)" fill-opacity="0.3"/>
<rect width="13.6256" height="13.6256" rx="1.21167" transform="matrix(0.707105 -0.707108 0.707105 0.707108 294.876 28.4731)" fill="url(#paint17_radial_1095_516)" fill-opacity="0.3"/>
</g>
<g opacity="0.5">
<rect x="168" y="80.3654" width="13.6256" height="13.6256" rx="1.21167" transform="rotate(-45 168 80.3654)" fill="url(#paint18_radial_1095_516)" fill-opacity="0.3"/>
<rect x="193.376" y="80.3654" width="13.6256" height="13.6256" rx="1.21167" transform="rotate(-45 193.376 80.3654)" fill="url(#paint19_radial_1095_516)" fill-opacity="0.3"/>
<rect x="218.749" y="80.3654" width="13.6256" height="13.6256" rx="1.21167" transform="rotate(-45 218.749 80.3654)" fill="url(#paint20_radial_1095_516)" fill-opacity="0.3"/>
<rect x="244.125" y="80.3654" width="13.6256" height="13.6256" rx="1.21167" transform="rotate(-45 244.125 80.3654)" fill="url(#paint21_radial_1095_516)" fill-opacity="0.3"/>
<rect x="269.503" y="80.3654" width="13.6256" height="13.6256" rx="1.21167" transform="rotate(-45 269.503 80.3654)" fill="url(#paint22_radial_1095_516)" fill-opacity="0.3"/>
<rect x="294.876" y="80.3654" width="13.6256" height="13.6256" rx="1.21167" transform="rotate(-45 294.876 80.3654)" fill="url(#paint23_radial_1095_516)" fill-opacity="0.3"/>
</g>
<rect x="-74" y="178.866" width="136.989" height="136.989" rx="8.78386" transform="rotate(-45 -74 178.866)" fill="url(#paint24_radial_1095_516)" fill-opacity="0.3"/>
<defs>
<radialGradient id="paint0_radial_1095_516" cx="0" cy="0" r="1" gradientUnits="userSpaceOnUse" gradientTransform="translate(174.813 9.34003) rotate(85.3036) scale(13.0582)">
<stop stop-color="#D2D2D2"/>
<stop offset="1" stop-color="#FAFAFA"/>
</radialGradient>
<radialGradient id="paint1_radial_1095_516" cx="0" cy="0" r="1" gradientUnits="userSpaceOnUse" gradientTransform="translate(200.189 9.34003) rotate(85.3036) scale(13.0582)">
<stop stop-color="#D2D2D2"/>
<stop offset="1" stop-color="#FAFAFA"/>
</radialGradient>
<radialGradient id="paint2_radial_1095_516" cx="0" cy="0" r="1" gradientUnits="userSpaceOnUse" gradientTransform="translate(225.561 9.34003) rotate(85.3036) scale(13.0582)">
<stop stop-color="#D2D2D2"/>
<stop offset="1" stop-color="#FAFAFA"/>
</radialGradient>
<radialGradient id="paint3_radial_1095_516" cx="0" cy="0" r="1" gradientUnits="userSpaceOnUse" gradientTransform="translate(250.938 9.34003) rotate(85.3036) scale(13.0582)">
<stop stop-color="#D2D2D2"/>
<stop offset="1" stop-color="#FAFAFA"/>
</radialGradient>
<radialGradient id="paint4_radial_1095_516" cx="0" cy="0" r="1" gradientUnits="userSpaceOnUse" gradientTransform="translate(276.316 9.34003) rotate(85.3036) scale(13.0582)">
<stop stop-color="#D2D2D2"/>
<stop offset="1" stop-color="#FAFAFA"/>
</radialGradient>
<radialGradient id="paint5_radial_1095_516" cx="0" cy="0" r="1" gradientUnits="userSpaceOnUse" gradientTransform="translate(301.689 9.34003) rotate(85.3036) scale(13.0582)">
<stop stop-color="#D2D2D2"/>
<stop offset="1" stop-color="#FAFAFA"/>
</radialGradient>
<radialGradient id="paint6_radial_1095_516" cx="0" cy="0" r="1" gradientUnits="userSpaceOnUse" gradientTransform="translate(174.813 61.2318) rotate(85.3036) scale(13.0582)">
<stop stop-color="#D2D2D2"/>
<stop offset="1" stop-color="#FAFAFA"/>
</radialGradient>
<radialGradient id="paint7_radial_1095_516" cx="0" cy="0" r="1" gradientUnits="userSpaceOnUse" gradientTransform="translate(200.189 61.2318) rotate(85.3036) scale(13.0582)">
<stop stop-color="#D2D2D2"/>
<stop offset="1" stop-color="#FAFAFA"/>
</radialGradient>
<radialGradient id="paint8_radial_1095_516" cx="0" cy="0" r="1" gradientUnits="userSpaceOnUse" gradientTransform="translate(225.561 61.2318) rotate(85.3036) scale(13.0582)">
<stop stop-color="#D2D2D2"/>
<stop offset="1" stop-color="#FAFAFA"/>
</radialGradient>
<radialGradient id="paint9_radial_1095_516" cx="0" cy="0" r="1" gradientUnits="userSpaceOnUse" gradientTransform="translate(250.938 61.2318) rotate(85.3036) scale(13.0582)">
<stop stop-color="#D2D2D2"/>
<stop offset="1" stop-color="#FAFAFA"/>
</radialGradient>
<radialGradient id="paint10_radial_1095_516" cx="0" cy="0" r="1" gradientUnits="userSpaceOnUse" gradientTransform="translate(276.316 61.2318) rotate(85.3036) scale(13.0582)">
<stop stop-color="#D2D2D2"/>
<stop offset="1" stop-color="#FAFAFA"/>
</radialGradient>
<radialGradient id="paint11_radial_1095_516" cx="0" cy="0" r="1" gradientUnits="userSpaceOnUse" gradientTransform="translate(301.689 61.2318) rotate(85.3036) scale(13.0582)">
<stop stop-color="#D2D2D2"/>
<stop offset="1" stop-color="#FAFAFA"/>
</radialGradient>
<radialGradient id="paint12_radial_1095_516" cx="0" cy="0" r="1" gradientUnits="userSpaceOnUse" gradientTransform="translate(6.81281 6.81281) rotate(85.3036) scale(13.0582)">
<stop stop-color="#D2D2D2"/>
<stop offset="1" stop-color="#FAFAFA"/>
</radialGradient>
<radialGradient id="paint13_radial_1095_516" cx="0" cy="0" r="1" gradientUnits="userSpaceOnUse" gradientTransform="translate(6.81281 6.81281) rotate(85.3036) scale(13.0582)">
<stop stop-color="#D2D2D2"/>
<stop offset="1" stop-color="#FAFAFA"/>
</radialGradient>
<radialGradient id="paint14_radial_1095_516" cx="0" cy="0" r="1" gradientUnits="userSpaceOnUse" gradientTransform="translate(6.81281 6.81281) rotate(85.3036) scale(13.0582)">
<stop stop-color="#D2D2D2"/>
<stop offset="1" stop-color="#FAFAFA"/>
</radialGradient>
<radialGradient id="paint15_radial_1095_516" cx="0" cy="0" r="1" gradientUnits="userSpaceOnUse" gradientTransform="translate(6.81281 6.81281) rotate(85.3036) scale(13.0582)">
<stop stop-color="#D2D2D2"/>
<stop offset="1" stop-color="#FAFAFA"/>
</radialGradient>
<radialGradient id="paint16_radial_1095_516" cx="0" cy="0" r="1" gradientUnits="userSpaceOnUse" gradientTransform="translate(6.81281 6.81281) rotate(85.3036) scale(13.0582)">
<stop stop-color="#D2D2D2"/>
<stop offset="1" stop-color="#FAFAFA"/>
</radialGradient>
<radialGradient id="paint17_radial_1095_516" cx="0" cy="0" r="1" gradientUnits="userSpaceOnUse" gradientTransform="translate(6.81281 6.81281) rotate(85.3036) scale(13.0582)">
<stop stop-color="#D2D2D2"/>
<stop offset="1" stop-color="#FAFAFA"/>
</radialGradient>
<radialGradient id="paint18_radial_1095_516" cx="0" cy="0" r="1" gradientUnits="userSpaceOnUse" gradientTransform="translate(174.813 87.1782) rotate(85.3036) scale(13.0582)">
<stop stop-color="#D2D2D2"/>
<stop offset="1" stop-color="#FAFAFA"/>
</radialGradient>
<radialGradient id="paint19_radial_1095_516" cx="0" cy="0" r="1" gradientUnits="userSpaceOnUse" gradientTransform="translate(200.189 87.1782) rotate(85.3036) scale(13.0582)">
<stop stop-color="#D2D2D2"/>
<stop offset="1" stop-color="#FAFAFA"/>
</radialGradient>
<radialGradient id="paint20_radial_1095_516" cx="0" cy="0" r="1" gradientUnits="userSpaceOnUse" gradientTransform="translate(225.561 87.1782) rotate(85.3036) scale(13.0582)">
<stop stop-color="#D2D2D2"/>
<stop offset="1" stop-color="#FAFAFA"/>
</radialGradient>
<radialGradient id="paint21_radial_1095_516" cx="0" cy="0" r="1" gradientUnits="userSpaceOnUse" gradientTransform="translate(250.938 87.1782) rotate(85.3036) scale(13.0582)">
<stop stop-color="#D2D2D2"/>
<stop offset="1" stop-color="#FAFAFA"/>
</radialGradient>
<radialGradient id="paint22_radial_1095_516" cx="0" cy="0" r="1" gradientUnits="userSpaceOnUse" gradientTransform="translate(276.316 87.1782) rotate(85.3036) scale(13.0582)">
<stop stop-color="#D2D2D2"/>
<stop offset="1" stop-color="#FAFAFA"/>
</radialGradient>
<radialGradient id="paint23_radial_1095_516" cx="0" cy="0" r="1" gradientUnits="userSpaceOnUse" gradientTransform="translate(301.689 87.1782) rotate(85.3036) scale(13.0582)">
<stop stop-color="#D2D2D2"/>
<stop offset="1" stop-color="#FAFAFA"/>
</radialGradient>
<radialGradient id="paint24_radial_1095_516" cx="0" cy="0" r="1" gradientUnits="userSpaceOnUse" gradientTransform="translate(-5.5054 247.361) rotate(85.3036) scale(131.284)">
<stop stop-color="#D2D2D2"/>
<stop offset="1" stop-color="#FAFAFA"/>
</radialGradient>
</defs>
</svg>
