<svg width="692" height="310" viewBox="0 0 692 310" fill="none" xmlns="http://www.w3.org/2000/svg">
<g opacity="0.5">
<rect x="367" y="84.8802" width="22.4906" height="22.4906" rx="2" transform="rotate(-45 367 84.8802)" fill="url(#paint0_radial_1095_516)" fill-opacity="0.3"/>
<rect x="408.887" y="84.8802" width="22.4906" height="22.4906" rx="2" transform="rotate(-45 408.887 84.8802)" fill="url(#paint1_radial_1095_516)" fill-opacity="0.3"/>
<rect x="450.766" y="84.8802" width="22.4906" height="22.4906" rx="2" transform="rotate(-45 450.766 84.8802)" fill="url(#paint2_radial_1095_516)" fill-opacity="0.3"/>
<rect x="492.653" y="84.8804" width="22.4906" height="22.4906" rx="2" transform="rotate(-45 492.653 84.8804)" fill="url(#paint3_radial_1095_516)" fill-opacity="0.3"/>
<rect x="534.544" y="84.8802" width="22.4906" height="22.4906" rx="2" transform="rotate(-45 534.544 84.8802)" fill="url(#paint4_radial_1095_516)" fill-opacity="0.3"/>
<rect x="576.423" y="84.8802" width="22.4906" height="22.4906" rx="2" transform="rotate(-45 576.423 84.8802)" fill="url(#paint5_radial_1095_516)" fill-opacity="0.3"/>
<rect x="618.306" y="84.8802" width="22.4906" height="22.4906" rx="2" transform="rotate(-45 618.306 84.8802)" fill="url(#paint6_radial_1095_516)" fill-opacity="0.3"/>
<rect x="660.193" y="84.8802" width="22.4906" height="22.4906" rx="2" transform="rotate(-45 660.193 84.8802)" fill="url(#paint7_radial_1095_516)" fill-opacity="0.3"/>
</g>
<g opacity="0.5">
<rect x="367" y="170.535" width="22.4906" height="22.4906" rx="2" transform="rotate(-45 367 170.535)" fill="url(#paint8_radial_1095_516)" fill-opacity="0.3"/>
<rect x="408.887" y="170.535" width="22.4906" height="22.4906" rx="2" transform="rotate(-45 408.887 170.535)" fill="url(#paint9_radial_1095_516)" fill-opacity="0.3"/>
<rect x="450.766" y="170.535" width="22.4906" height="22.4906" rx="2" transform="rotate(-45 450.766 170.535)" fill="url(#paint10_radial_1095_516)" fill-opacity="0.3"/>
<rect x="492.653" y="170.535" width="22.4906" height="22.4906" rx="2" transform="rotate(-45 492.653 170.535)" fill="url(#paint11_radial_1095_516)" fill-opacity="0.3"/>
<rect x="534.542" y="170.535" width="22.4906" height="22.4906" rx="2" transform="rotate(-45 534.542 170.535)" fill="url(#paint12_radial_1095_516)" fill-opacity="0.3"/>
<rect x="576.423" y="170.535" width="22.4906" height="22.4906" rx="2" transform="rotate(-45 576.423 170.535)" fill="url(#paint13_radial_1095_516)" fill-opacity="0.3"/>
<rect x="618.306" y="170.535" width="22.4906" height="22.4906" rx="2" transform="rotate(-45 618.306 170.535)" fill="url(#paint14_radial_1095_516)" fill-opacity="0.3"/>
<rect x="660.193" y="170.535" width="22.4906" height="22.4906" rx="2" transform="rotate(-45 660.193 170.535)" fill="url(#paint15_radial_1095_516)" fill-opacity="0.3"/>
</g>
<g opacity="0.5">
<rect x="367" y="256.188" width="22.4906" height="22.4906" rx="2" transform="rotate(-45 367 256.188)" fill="url(#paint16_radial_1095_516)" fill-opacity="0.3"/>
<rect x="408.887" y="256.188" width="22.4906" height="22.4906" rx="2" transform="rotate(-45 408.887 256.188)" fill="url(#paint17_radial_1095_516)" fill-opacity="0.3"/>
<rect x="450.766" y="256.188" width="22.4906" height="22.4906" rx="2" transform="rotate(-45 450.766 256.188)" fill="url(#paint18_radial_1095_516)" fill-opacity="0.3"/>
<rect x="492.653" y="256.188" width="22.4906" height="22.4906" rx="2" transform="rotate(-45 492.653 256.188)" fill="url(#paint19_radial_1095_516)" fill-opacity="0.3"/>
<rect x="534.542" y="256.188" width="22.4906" height="22.4906" rx="2" transform="rotate(-45 534.542 256.188)" fill="url(#paint20_radial_1095_516)" fill-opacity="0.3"/>
<rect x="576.423" y="256.188" width="22.4906" height="22.4906" rx="2" transform="rotate(-45 576.423 256.188)" fill="url(#paint21_radial_1095_516)" fill-opacity="0.3"/>
<rect x="618.306" y="256.188" width="22.4906" height="22.4906" rx="2" transform="rotate(-45 618.306 256.188)" fill="url(#paint22_radial_1095_516)" fill-opacity="0.3"/>
<rect x="660.193" y="256.188" width="22.4906" height="22.4906" rx="2" transform="rotate(-45 660.193 256.188)" fill="url(#paint23_radial_1095_516)" fill-opacity="0.3"/>
</g>
<g opacity="0.5">
<rect x="367" y="127.708" width="22.4906" height="22.4906" rx="2" transform="rotate(-45 367 127.708)" fill="url(#paint24_radial_1095_516)" fill-opacity="0.3"/>
<rect x="408.887" y="127.708" width="22.4906" height="22.4906" rx="2" transform="rotate(-45 408.887 127.708)" fill="url(#paint25_radial_1095_516)" fill-opacity="0.3"/>
<rect x="450.766" y="127.708" width="22.4906" height="22.4906" rx="2" transform="rotate(-45 450.766 127.708)" fill="url(#paint26_radial_1095_516)" fill-opacity="0.3"/>
<rect x="492.653" y="127.708" width="22.4906" height="22.4906" rx="2" transform="rotate(-45 492.653 127.708)" fill="url(#paint27_radial_1095_516)" fill-opacity="0.3"/>
<rect x="534.542" y="127.708" width="22.4906" height="22.4906" rx="2" transform="rotate(-45 534.542 127.708)" fill="url(#paint28_radial_1095_516)" fill-opacity="0.3"/>
<rect x="576.423" y="127.708" width="22.4906" height="22.4906" rx="2" transform="rotate(-45 576.423 127.708)" fill="url(#paint29_radial_1095_516)" fill-opacity="0.3"/>
<rect x="618.306" y="127.708" width="22.4906" height="22.4906" rx="2" transform="rotate(-45 618.306 127.708)" fill="url(#paint30_radial_1095_516)" fill-opacity="0.3"/>
<rect x="660.193" y="127.708" width="22.4906" height="22.4906" rx="2" transform="rotate(-45 660.193 127.708)" fill="url(#paint31_radial_1095_516)" fill-opacity="0.3"/>
</g>
<g opacity="0.5">
<rect width="22.4906" height="22.4906" rx="2" transform="matrix(0.707105 -0.707108 0.707105 0.707108 367 213.361)" fill="url(#paint32_radial_1095_516)" fill-opacity="0.3"/>
<rect width="22.4906" height="22.4906" rx="2" transform="matrix(0.707105 -0.707108 0.707105 0.707108 408.887 213.361)" fill="url(#paint33_radial_1095_516)" fill-opacity="0.3"/>
<rect width="22.4906" height="22.4906" rx="2" transform="matrix(0.707105 -0.707108 0.707105 0.707108 450.766 213.361)" fill="url(#paint34_radial_1095_516)" fill-opacity="0.3"/>
<rect width="22.4906" height="22.4906" rx="2" transform="matrix(0.707105 -0.707108 0.707105 0.707108 492.653 213.361)" fill="url(#paint35_radial_1095_516)" fill-opacity="0.3"/>
<rect width="22.4906" height="22.4906" rx="2" transform="matrix(0.707105 -0.707108 0.707105 0.707108 534.542 213.361)" fill="url(#paint36_radial_1095_516)" fill-opacity="0.3"/>
<rect width="22.4906" height="22.4906" rx="2" transform="matrix(0.707105 -0.707108 0.707105 0.707108 576.423 213.361)" fill="url(#paint37_radial_1095_516)" fill-opacity="0.3"/>
<rect width="22.4906" height="22.4906" rx="2" transform="matrix(0.707105 -0.707108 0.707105 0.707108 618.306 213.361)" fill="url(#paint38_radial_1095_516)" fill-opacity="0.3"/>
<rect width="22.4906" height="22.4906" rx="2" transform="matrix(0.707105 -0.707108 0.707105 0.707108 660.193 213.361)" fill="url(#paint39_radial_1095_516)" fill-opacity="0.3"/>
</g>
<g opacity="0.5">
<rect x="367" y="299.015" width="22.4906" height="22.4906" rx="2" transform="rotate(-45 367 299.015)" fill="url(#paint40_radial_1095_516)" fill-opacity="0.3"/>
<rect x="408.887" y="299.015" width="22.4906" height="22.4906" rx="2" transform="rotate(-45 408.887 299.015)" fill="url(#paint41_radial_1095_516)" fill-opacity="0.3"/>
<rect x="450.766" y="299.015" width="22.4906" height="22.4906" rx="2" transform="rotate(-45 450.766 299.015)" fill="url(#paint42_radial_1095_516)" fill-opacity="0.3"/>
<rect x="492.653" y="299.015" width="22.4906" height="22.4906" rx="2" transform="rotate(-45 492.653 299.015)" fill="url(#paint43_radial_1095_516)" fill-opacity="0.3"/>
<rect x="534.542" y="299.015" width="22.4906" height="22.4906" rx="2" transform="rotate(-45 534.542 299.015)" fill="url(#paint44_radial_1095_516)" fill-opacity="0.3"/>
<rect x="576.423" y="299.015" width="22.4906" height="22.4906" rx="2" transform="rotate(-45 576.423 299.015)" fill="url(#paint45_radial_1095_516)" fill-opacity="0.3"/>
<rect x="618.306" y="299.015" width="22.4906" height="22.4906" rx="2" transform="rotate(-45 618.306 299.015)" fill="url(#paint46_radial_1095_516)" fill-opacity="0.3"/>
<rect x="660.193" y="299.015" width="22.4906" height="22.4906" rx="2" transform="rotate(-45 660.193 299.015)" fill="url(#paint47_radial_1095_516)" fill-opacity="0.3"/>
</g>
<rect x="187" y="41.0111" width="312.557" height="312.557" rx="20.0414" transform="rotate(-45 187 41.0111)" fill="url(#paint48_radial_1095_516)" fill-opacity="0.3"/>
<rect x="-170" y="360.135" width="280.205" height="280.205" rx="23.3322" transform="rotate(-45 -170 360.135)" fill="url(#paint49_radial_1095_516)" fill-opacity="0.3"/>
<defs>
<radialGradient id="paint0_radial_1095_516" cx="0" cy="0" r="1" gradientUnits="userSpaceOnUse" gradientTransform="translate(378.245 96.1256) rotate(85.3036) scale(21.554)">
<stop stop-color="#D2D2D2"/>
<stop offset="1" stop-color="#FAFAFA"/>
</radialGradient>
<radialGradient id="paint1_radial_1095_516" cx="0" cy="0" r="1" gradientUnits="userSpaceOnUse" gradientTransform="translate(420.132 96.1256) rotate(85.3036) scale(21.554)">
<stop stop-color="#D2D2D2"/>
<stop offset="1" stop-color="#FAFAFA"/>
</radialGradient>
<radialGradient id="paint2_radial_1095_516" cx="0" cy="0" r="1" gradientUnits="userSpaceOnUse" gradientTransform="translate(462.011 96.1256) rotate(85.3036) scale(21.554)">
<stop stop-color="#D2D2D2"/>
<stop offset="1" stop-color="#FAFAFA"/>
</radialGradient>
<radialGradient id="paint3_radial_1095_516" cx="0" cy="0" r="1" gradientUnits="userSpaceOnUse" gradientTransform="translate(503.899 96.1257) rotate(85.3036) scale(21.554)">
<stop stop-color="#D2D2D2"/>
<stop offset="1" stop-color="#FAFAFA"/>
</radialGradient>
<radialGradient id="paint4_radial_1095_516" cx="0" cy="0" r="1" gradientUnits="userSpaceOnUse" gradientTransform="translate(545.789 96.1256) rotate(85.3036) scale(21.554)">
<stop stop-color="#D2D2D2"/>
<stop offset="1" stop-color="#FAFAFA"/>
</radialGradient>
<radialGradient id="paint5_radial_1095_516" cx="0" cy="0" r="1" gradientUnits="userSpaceOnUse" gradientTransform="translate(587.669 96.1256) rotate(85.3036) scale(21.554)">
<stop stop-color="#D2D2D2"/>
<stop offset="1" stop-color="#FAFAFA"/>
</radialGradient>
<radialGradient id="paint6_radial_1095_516" cx="0" cy="0" r="1" gradientUnits="userSpaceOnUse" gradientTransform="translate(629.551 96.1256) rotate(85.3036) scale(21.554)">
<stop stop-color="#D2D2D2"/>
<stop offset="1" stop-color="#FAFAFA"/>
</radialGradient>
<radialGradient id="paint7_radial_1095_516" cx="0" cy="0" r="1" gradientUnits="userSpaceOnUse" gradientTransform="translate(671.439 96.1256) rotate(85.3036) scale(21.554)">
<stop stop-color="#D2D2D2"/>
<stop offset="1" stop-color="#FAFAFA"/>
</radialGradient>
<radialGradient id="paint8_radial_1095_516" cx="0" cy="0" r="1" gradientUnits="userSpaceOnUse" gradientTransform="translate(378.245 181.78) rotate(85.3036) scale(21.554)">
<stop stop-color="#D2D2D2"/>
<stop offset="1" stop-color="#FAFAFA"/>
</radialGradient>
<radialGradient id="paint9_radial_1095_516" cx="0" cy="0" r="1" gradientUnits="userSpaceOnUse" gradientTransform="translate(420.132 181.78) rotate(85.3036) scale(21.554)">
<stop stop-color="#D2D2D2"/>
<stop offset="1" stop-color="#FAFAFA"/>
</radialGradient>
<radialGradient id="paint10_radial_1095_516" cx="0" cy="0" r="1" gradientUnits="userSpaceOnUse" gradientTransform="translate(462.011 181.78) rotate(85.3036) scale(21.554)">
<stop stop-color="#D2D2D2"/>
<stop offset="1" stop-color="#FAFAFA"/>
</radialGradient>
<radialGradient id="paint11_radial_1095_516" cx="0" cy="0" r="1" gradientUnits="userSpaceOnUse" gradientTransform="translate(503.899 181.78) rotate(85.3036) scale(21.554)">
<stop stop-color="#D2D2D2"/>
<stop offset="1" stop-color="#FAFAFA"/>
</radialGradient>
<radialGradient id="paint12_radial_1095_516" cx="0" cy="0" r="1" gradientUnits="userSpaceOnUse" gradientTransform="translate(545.787 181.78) rotate(85.3036) scale(21.554)">
<stop stop-color="#D2D2D2"/>
<stop offset="1" stop-color="#FAFAFA"/>
</radialGradient>
<radialGradient id="paint13_radial_1095_516" cx="0" cy="0" r="1" gradientUnits="userSpaceOnUse" gradientTransform="translate(587.669 181.78) rotate(85.3036) scale(21.554)">
<stop stop-color="#D2D2D2"/>
<stop offset="1" stop-color="#FAFAFA"/>
</radialGradient>
<radialGradient id="paint14_radial_1095_516" cx="0" cy="0" r="1" gradientUnits="userSpaceOnUse" gradientTransform="translate(629.551 181.78) rotate(85.3036) scale(21.554)">
<stop stop-color="#D2D2D2"/>
<stop offset="1" stop-color="#FAFAFA"/>
</radialGradient>
<radialGradient id="paint15_radial_1095_516" cx="0" cy="0" r="1" gradientUnits="userSpaceOnUse" gradientTransform="translate(671.439 181.78) rotate(85.3036) scale(21.554)">
<stop stop-color="#D2D2D2"/>
<stop offset="1" stop-color="#FAFAFA"/>
</radialGradient>
<radialGradient id="paint16_radial_1095_516" cx="0" cy="0" r="1" gradientUnits="userSpaceOnUse" gradientTransform="translate(378.245 267.433) rotate(85.3036) scale(21.554)">
<stop stop-color="#D2D2D2"/>
<stop offset="1" stop-color="#FAFAFA"/>
</radialGradient>
<radialGradient id="paint17_radial_1095_516" cx="0" cy="0" r="1" gradientUnits="userSpaceOnUse" gradientTransform="translate(420.132 267.433) rotate(85.3036) scale(21.554)">
<stop stop-color="#D2D2D2"/>
<stop offset="1" stop-color="#FAFAFA"/>
</radialGradient>
<radialGradient id="paint18_radial_1095_516" cx="0" cy="0" r="1" gradientUnits="userSpaceOnUse" gradientTransform="translate(462.011 267.433) rotate(85.3036) scale(21.554)">
<stop stop-color="#D2D2D2"/>
<stop offset="1" stop-color="#FAFAFA"/>
</radialGradient>
<radialGradient id="paint19_radial_1095_516" cx="0" cy="0" r="1" gradientUnits="userSpaceOnUse" gradientTransform="translate(503.899 267.433) rotate(85.3036) scale(21.554)">
<stop stop-color="#D2D2D2"/>
<stop offset="1" stop-color="#FAFAFA"/>
</radialGradient>
<radialGradient id="paint20_radial_1095_516" cx="0" cy="0" r="1" gradientUnits="userSpaceOnUse" gradientTransform="translate(545.787 267.433) rotate(85.3036) scale(21.554)">
<stop stop-color="#D2D2D2"/>
<stop offset="1" stop-color="#FAFAFA"/>
</radialGradient>
<radialGradient id="paint21_radial_1095_516" cx="0" cy="0" r="1" gradientUnits="userSpaceOnUse" gradientTransform="translate(587.669 267.433) rotate(85.3036) scale(21.554)">
<stop stop-color="#D2D2D2"/>
<stop offset="1" stop-color="#FAFAFA"/>
</radialGradient>
<radialGradient id="paint22_radial_1095_516" cx="0" cy="0" r="1" gradientUnits="userSpaceOnUse" gradientTransform="translate(629.551 267.433) rotate(85.3036) scale(21.554)">
<stop stop-color="#D2D2D2"/>
<stop offset="1" stop-color="#FAFAFA"/>
</radialGradient>
<radialGradient id="paint23_radial_1095_516" cx="0" cy="0" r="1" gradientUnits="userSpaceOnUse" gradientTransform="translate(671.439 267.433) rotate(85.3036) scale(21.554)">
<stop stop-color="#D2D2D2"/>
<stop offset="1" stop-color="#FAFAFA"/>
</radialGradient>
<radialGradient id="paint24_radial_1095_516" cx="0" cy="0" r="1" gradientUnits="userSpaceOnUse" gradientTransform="translate(378.245 138.953) rotate(85.3036) scale(21.554)">
<stop stop-color="#D2D2D2"/>
<stop offset="1" stop-color="#FAFAFA"/>
</radialGradient>
<radialGradient id="paint25_radial_1095_516" cx="0" cy="0" r="1" gradientUnits="userSpaceOnUse" gradientTransform="translate(420.132 138.953) rotate(85.3036) scale(21.554)">
<stop stop-color="#D2D2D2"/>
<stop offset="1" stop-color="#FAFAFA"/>
</radialGradient>
<radialGradient id="paint26_radial_1095_516" cx="0" cy="0" r="1" gradientUnits="userSpaceOnUse" gradientTransform="translate(462.011 138.953) rotate(85.3036) scale(21.554)">
<stop stop-color="#D2D2D2"/>
<stop offset="1" stop-color="#FAFAFA"/>
</radialGradient>
<radialGradient id="paint27_radial_1095_516" cx="0" cy="0" r="1" gradientUnits="userSpaceOnUse" gradientTransform="translate(503.899 138.953) rotate(85.3036) scale(21.554)">
<stop stop-color="#D2D2D2"/>
<stop offset="1" stop-color="#FAFAFA"/>
</radialGradient>
<radialGradient id="paint28_radial_1095_516" cx="0" cy="0" r="1" gradientUnits="userSpaceOnUse" gradientTransform="translate(545.787 138.953) rotate(85.3036) scale(21.554)">
<stop stop-color="#D2D2D2"/>
<stop offset="1" stop-color="#FAFAFA"/>
</radialGradient>
<radialGradient id="paint29_radial_1095_516" cx="0" cy="0" r="1" gradientUnits="userSpaceOnUse" gradientTransform="translate(587.669 138.953) rotate(85.3036) scale(21.554)">
<stop stop-color="#D2D2D2"/>
<stop offset="1" stop-color="#FAFAFA"/>
</radialGradient>
<radialGradient id="paint30_radial_1095_516" cx="0" cy="0" r="1" gradientUnits="userSpaceOnUse" gradientTransform="translate(629.551 138.953) rotate(85.3036) scale(21.554)">
<stop stop-color="#D2D2D2"/>
<stop offset="1" stop-color="#FAFAFA"/>
</radialGradient>
<radialGradient id="paint31_radial_1095_516" cx="0" cy="0" r="1" gradientUnits="userSpaceOnUse" gradientTransform="translate(671.439 138.953) rotate(85.3036) scale(21.554)">
<stop stop-color="#D2D2D2"/>
<stop offset="1" stop-color="#FAFAFA"/>
</radialGradient>
<radialGradient id="paint32_radial_1095_516" cx="0" cy="0" r="1" gradientUnits="userSpaceOnUse" gradientTransform="translate(11.2453 11.2453) rotate(85.3036) scale(21.554)">
<stop stop-color="#D2D2D2"/>
<stop offset="1" stop-color="#FAFAFA"/>
</radialGradient>
<radialGradient id="paint33_radial_1095_516" cx="0" cy="0" r="1" gradientUnits="userSpaceOnUse" gradientTransform="translate(11.2453 11.2453) rotate(85.3036) scale(21.554)">
<stop stop-color="#D2D2D2"/>
<stop offset="1" stop-color="#FAFAFA"/>
</radialGradient>
<radialGradient id="paint34_radial_1095_516" cx="0" cy="0" r="1" gradientUnits="userSpaceOnUse" gradientTransform="translate(11.2453 11.2453) rotate(85.3036) scale(21.554)">
<stop stop-color="#D2D2D2"/>
<stop offset="1" stop-color="#FAFAFA"/>
</radialGradient>
<radialGradient id="paint35_radial_1095_516" cx="0" cy="0" r="1" gradientUnits="userSpaceOnUse" gradientTransform="translate(11.2453 11.2453) rotate(85.3036) scale(21.554)">
<stop stop-color="#D2D2D2"/>
<stop offset="1" stop-color="#FAFAFA"/>
</radialGradient>
<radialGradient id="paint36_radial_1095_516" cx="0" cy="0" r="1" gradientUnits="userSpaceOnUse" gradientTransform="translate(11.2453 11.2453) rotate(85.3036) scale(21.554)">
<stop stop-color="#D2D2D2"/>
<stop offset="1" stop-color="#FAFAFA"/>
</radialGradient>
<radialGradient id="paint37_radial_1095_516" cx="0" cy="0" r="1" gradientUnits="userSpaceOnUse" gradientTransform="translate(11.2453 11.2453) rotate(85.3036) scale(21.554)">
<stop stop-color="#D2D2D2"/>
<stop offset="1" stop-color="#FAFAFA"/>
</radialGradient>
<radialGradient id="paint38_radial_1095_516" cx="0" cy="0" r="1" gradientUnits="userSpaceOnUse" gradientTransform="translate(11.2453 11.2453) rotate(85.3036) scale(21.554)">
<stop stop-color="#D2D2D2"/>
<stop offset="1" stop-color="#FAFAFA"/>
</radialGradient>
<radialGradient id="paint39_radial_1095_516" cx="0" cy="0" r="1" gradientUnits="userSpaceOnUse" gradientTransform="translate(11.2453 11.2453) rotate(85.3036) scale(21.554)">
<stop stop-color="#D2D2D2"/>
<stop offset="1" stop-color="#FAFAFA"/>
</radialGradient>
<radialGradient id="paint40_radial_1095_516" cx="0" cy="0" r="1" gradientUnits="userSpaceOnUse" gradientTransform="translate(378.245 310.261) rotate(85.3036) scale(21.554)">
<stop stop-color="#D2D2D2"/>
<stop offset="1" stop-color="#FAFAFA"/>
</radialGradient>
<radialGradient id="paint41_radial_1095_516" cx="0" cy="0" r="1" gradientUnits="userSpaceOnUse" gradientTransform="translate(420.132 310.261) rotate(85.3036) scale(21.554)">
<stop stop-color="#D2D2D2"/>
<stop offset="1" stop-color="#FAFAFA"/>
</radialGradient>
<radialGradient id="paint42_radial_1095_516" cx="0" cy="0" r="1" gradientUnits="userSpaceOnUse" gradientTransform="translate(462.011 310.261) rotate(85.3036) scale(21.554)">
<stop stop-color="#D2D2D2"/>
<stop offset="1" stop-color="#FAFAFA"/>
</radialGradient>
<radialGradient id="paint43_radial_1095_516" cx="0" cy="0" r="1" gradientUnits="userSpaceOnUse" gradientTransform="translate(503.899 310.261) rotate(85.3036) scale(21.554)">
<stop stop-color="#D2D2D2"/>
<stop offset="1" stop-color="#FAFAFA"/>
</radialGradient>
<radialGradient id="paint44_radial_1095_516" cx="0" cy="0" r="1" gradientUnits="userSpaceOnUse" gradientTransform="translate(545.787 310.261) rotate(85.3036) scale(21.554)">
<stop stop-color="#D2D2D2"/>
<stop offset="1" stop-color="#FAFAFA"/>
</radialGradient>
<radialGradient id="paint45_radial_1095_516" cx="0" cy="0" r="1" gradientUnits="userSpaceOnUse" gradientTransform="translate(587.669 310.261) rotate(85.3036) scale(21.554)">
<stop stop-color="#D2D2D2"/>
<stop offset="1" stop-color="#FAFAFA"/>
</radialGradient>
<radialGradient id="paint46_radial_1095_516" cx="0" cy="0" r="1" gradientUnits="userSpaceOnUse" gradientTransform="translate(629.551 310.261) rotate(85.3036) scale(21.554)">
<stop stop-color="#D2D2D2"/>
<stop offset="1" stop-color="#FAFAFA"/>
</radialGradient>
<radialGradient id="paint47_radial_1095_516" cx="0" cy="0" r="1" gradientUnits="userSpaceOnUse" gradientTransform="translate(671.439 310.261) rotate(85.3036) scale(21.554)">
<stop stop-color="#D2D2D2"/>
<stop offset="1" stop-color="#FAFAFA"/>
</radialGradient>
<radialGradient id="paint48_radial_1095_516" cx="0" cy="0" r="1" gradientUnits="userSpaceOnUse" gradientTransform="translate(343.278 197.29) rotate(85.3036) scale(299.54)">
<stop stop-color="#D2D2D2"/>
<stop offset="1" stop-color="#FAFAFA"/>
</radialGradient>
<radialGradient id="paint49_radial_1095_516" cx="0" cy="0" r="1" gradientUnits="userSpaceOnUse" gradientTransform="translate(-29.8975 500.237) rotate(85.3036) scale(268.535)">
<stop stop-color="#D2D2D2"/>
<stop offset="1" stop-color="#FAFAFA"/>
</radialGradient>
</defs>
</svg>
