<svg width="617" height="763" viewBox="0 0 617 763" fill="none" xmlns="http://www.w3.org/2000/svg">
<rect opacity="0.15" x="-167" y="381.573" width="569.324" height="569.324" rx="52.9944" transform="rotate(-45 -167 381.573)" fill="url(#paint0_radial_596_994)"/>
<g opacity="0.5">
<rect x="177" y="188.028" width="17.1621" height="17.1621" rx="4.95672" transform="rotate(-45 177 188.028)" fill="url(#paint1_radial_596_994)" fill-opacity="0.6"/>
<rect x="208.962" y="188.028" width="17.1621" height="17.1621" rx="4.95672" transform="rotate(-45 208.962 188.028)" fill="url(#paint2_radial_596_994)" fill-opacity="0.6"/>
<rect x="240.921" y="188.028" width="17.1621" height="17.1621" rx="4.95672" transform="rotate(-45 240.921 188.028)" fill="url(#paint3_radial_596_994)" fill-opacity="0.6"/>
<rect x="272.884" y="188.028" width="17.1621" height="17.1621" rx="4.95672" transform="rotate(-45 272.884 188.028)" fill="url(#paint4_radial_596_994)" fill-opacity="0.6"/>
<rect x="304.846" y="188.028" width="17.1621" height="17.1621" rx="4.95672" transform="rotate(-45 304.846 188.028)" fill="url(#paint5_radial_596_994)" fill-opacity="0.6"/>
<rect x="336.805" y="188.028" width="17.1621" height="17.1621" rx="4.95672" transform="rotate(-45 336.805 188.028)" fill="url(#paint6_radial_596_994)" fill-opacity="0.6"/>
<rect x="368.767" y="188.028" width="17.1621" height="17.1621" rx="4.95672" transform="rotate(-45 368.767 188.028)" fill="url(#paint7_radial_596_994)" fill-opacity="0.6"/>
<rect x="400.729" y="188.028" width="17.1621" height="17.1621" rx="4.95672" transform="rotate(-45 400.729 188.028)" fill="url(#paint8_radial_596_994)" fill-opacity="0.6"/>
</g>
<g opacity="0.5">
<rect x="177" y="253.389" width="17.1621" height="17.1621" rx="4.95672" transform="rotate(-45 177 253.389)" fill="url(#paint9_radial_596_994)" fill-opacity="0.6"/>
<rect x="208.962" y="253.389" width="17.1621" height="17.1621" rx="4.95672" transform="rotate(-45 208.962 253.389)" fill="url(#paint10_radial_596_994)" fill-opacity="0.6"/>
<rect x="240.921" y="253.389" width="17.1621" height="17.1621" rx="4.95672" transform="rotate(-45 240.921 253.389)" fill="url(#paint11_radial_596_994)" fill-opacity="0.6"/>
<rect x="272.884" y="253.389" width="17.1621" height="17.1621" rx="4.95672" transform="rotate(-45 272.884 253.389)" fill="url(#paint12_radial_596_994)" fill-opacity="0.6"/>
<rect x="304.846" y="253.389" width="17.1621" height="17.1621" rx="4.95672" transform="rotate(-45 304.846 253.389)" fill="url(#paint13_radial_596_994)" fill-opacity="0.6"/>
<rect x="336.805" y="253.389" width="17.1621" height="17.1621" rx="4.95672" transform="rotate(-45 336.805 253.389)" fill="url(#paint14_radial_596_994)" fill-opacity="0.6"/>
<rect x="368.767" y="253.389" width="17.1621" height="17.1621" rx="4.95672" transform="rotate(-45 368.767 253.389)" fill="url(#paint15_radial_596_994)" fill-opacity="0.6"/>
<rect x="400.729" y="253.389" width="17.1621" height="17.1621" rx="4.95672" transform="rotate(-45 400.729 253.389)" fill="url(#paint16_radial_596_994)" fill-opacity="0.6"/>
</g>
<g opacity="0.5">
<rect x="177" y="318.749" width="17.1621" height="17.1621" rx="4.95672" transform="rotate(-45 177 318.749)" fill="url(#paint17_radial_596_994)" fill-opacity="0.6"/>
<rect x="208.962" y="318.749" width="17.1621" height="17.1621" rx="4.95672" transform="rotate(-45 208.962 318.749)" fill="url(#paint18_radial_596_994)" fill-opacity="0.6"/>
<rect x="240.921" y="318.749" width="17.1621" height="17.1621" rx="4.95672" transform="rotate(-45 240.921 318.749)" fill="url(#paint19_radial_596_994)" fill-opacity="0.6"/>
<rect x="272.884" y="318.749" width="17.1621" height="17.1621" rx="4.95672" transform="rotate(-45 272.884 318.749)" fill="url(#paint20_radial_596_994)" fill-opacity="0.6"/>
<rect x="304.846" y="318.749" width="17.1621" height="17.1621" rx="4.95672" transform="rotate(-45 304.846 318.749)" fill="url(#paint21_radial_596_994)" fill-opacity="0.6"/>
<rect x="336.805" y="318.749" width="17.1621" height="17.1621" rx="4.95672" transform="rotate(-45 336.805 318.749)" fill="url(#paint22_radial_596_994)" fill-opacity="0.6"/>
<rect x="368.767" y="318.749" width="17.1621" height="17.1621" rx="4.95672" transform="rotate(-45 368.767 318.749)" fill="url(#paint23_radial_596_994)" fill-opacity="0.6"/>
<rect x="400.729" y="318.749" width="17.1621" height="17.1621" rx="4.95672" transform="rotate(-45 400.729 318.749)" fill="url(#paint24_radial_596_994)" fill-opacity="0.6"/>
</g>
<g opacity="0.5">
<rect x="177" y="220.708" width="17.1621" height="17.1621" rx="4.95672" transform="rotate(-45 177 220.708)" fill="url(#paint25_radial_596_994)" fill-opacity="0.6"/>
<rect x="208.962" y="220.708" width="17.1621" height="17.1621" rx="4.95672" transform="rotate(-45 208.962 220.708)" fill="url(#paint26_radial_596_994)" fill-opacity="0.6"/>
<rect x="240.921" y="220.708" width="17.1621" height="17.1621" rx="4.95672" transform="rotate(-45 240.921 220.708)" fill="url(#paint27_radial_596_994)" fill-opacity="0.6"/>
<rect x="272.884" y="220.708" width="17.1621" height="17.1621" rx="4.95672" transform="rotate(-45 272.884 220.708)" fill="url(#paint28_radial_596_994)" fill-opacity="0.6"/>
<rect x="304.846" y="220.708" width="17.1621" height="17.1621" rx="4.95672" transform="rotate(-45 304.846 220.708)" fill="url(#paint29_radial_596_994)" fill-opacity="0.6"/>
<rect x="336.805" y="220.708" width="17.1621" height="17.1621" rx="4.95672" transform="rotate(-45 336.805 220.708)" fill="url(#paint30_radial_596_994)" fill-opacity="0.6"/>
<rect x="368.767" y="220.708" width="17.1621" height="17.1621" rx="4.95672" transform="rotate(-45 368.767 220.708)" fill="url(#paint31_radial_596_994)" fill-opacity="0.6"/>
<rect x="400.729" y="220.708" width="17.1621" height="17.1621" rx="4.95672" transform="rotate(-45 400.729 220.708)" fill="url(#paint32_radial_596_994)" fill-opacity="0.6"/>
</g>
<g opacity="0.5">
<rect x="177" y="286.069" width="17.1621" height="17.1621" rx="4.95672" transform="rotate(-45 177 286.069)" fill="url(#paint33_radial_596_994)" fill-opacity="0.6"/>
<rect x="208.962" y="286.069" width="17.1621" height="17.1621" rx="4.95672" transform="rotate(-45 208.962 286.069)" fill="url(#paint34_radial_596_994)" fill-opacity="0.6"/>
<rect x="240.921" y="286.069" width="17.1621" height="17.1621" rx="4.95672" transform="rotate(-45 240.921 286.069)" fill="url(#paint35_radial_596_994)" fill-opacity="0.6"/>
<rect x="272.884" y="286.069" width="17.1621" height="17.1621" rx="4.95672" transform="rotate(-45 272.884 286.069)" fill="url(#paint36_radial_596_994)" fill-opacity="0.6"/>
<rect x="304.846" y="286.069" width="17.1621" height="17.1621" rx="4.95672" transform="rotate(-45 304.846 286.069)" fill="url(#paint37_radial_596_994)" fill-opacity="0.6"/>
<rect x="336.805" y="286.069" width="17.1621" height="17.1621" rx="4.95672" transform="rotate(-45 336.805 286.069)" fill="url(#paint38_radial_596_994)" fill-opacity="0.6"/>
<rect x="368.767" y="286.069" width="17.1621" height="17.1621" rx="4.95672" transform="rotate(-45 368.767 286.069)" fill="url(#paint39_radial_596_994)" fill-opacity="0.6"/>
<rect x="400.729" y="286.069" width="17.1621" height="17.1621" rx="4.95672" transform="rotate(-45 400.729 286.069)" fill="url(#paint40_radial_596_994)" fill-opacity="0.6"/>
</g>
<g opacity="0.5">
<rect x="177" y="351.429" width="17.1621" height="17.1621" rx="4.95672" transform="rotate(-45 177 351.429)" fill="url(#paint41_radial_596_994)" fill-opacity="0.6"/>
<rect x="208.962" y="351.429" width="17.1621" height="17.1621" rx="4.95672" transform="rotate(-45 208.962 351.429)" fill="url(#paint42_radial_596_994)" fill-opacity="0.6"/>
<rect x="240.921" y="351.429" width="17.1621" height="17.1621" rx="4.95672" transform="rotate(-45 240.921 351.429)" fill="url(#paint43_radial_596_994)" fill-opacity="0.6"/>
<rect x="272.884" y="351.429" width="17.1621" height="17.1621" rx="4.95672" transform="rotate(-45 272.884 351.429)" fill="url(#paint44_radial_596_994)" fill-opacity="0.6"/>
<rect x="304.846" y="351.429" width="17.1621" height="17.1621" rx="4.95672" transform="rotate(-45 304.846 351.429)" fill="url(#paint45_radial_596_994)" fill-opacity="0.6"/>
<rect x="336.805" y="351.429" width="17.1621" height="17.1621" rx="4.95672" transform="rotate(-45 336.805 351.429)" fill="url(#paint46_radial_596_994)" fill-opacity="0.6"/>
<rect x="368.767" y="351.429" width="17.1621" height="17.1621" rx="4.95672" transform="rotate(-45 368.767 351.429)" fill="url(#paint47_radial_596_994)" fill-opacity="0.6"/>
<rect x="400.729" y="351.429" width="17.1621" height="17.1621" rx="4.95672" transform="rotate(-45 400.729 351.429)" fill="url(#paint48_radial_596_994)" fill-opacity="0.6"/>
</g>
<defs>
<radialGradient id="paint0_radial_596_994" cx="0" cy="0" r="1" gradientUnits="userSpaceOnUse" gradientTransform="translate(117.662 666.235) rotate(85.3036) scale(545.613)">
<stop stop-color="#DADADA"/>
<stop offset="1" stop-color="#FAFAFA"/>
</radialGradient>
<radialGradient id="paint1_radial_596_994" cx="0" cy="0" r="1" gradientUnits="userSpaceOnUse" gradientTransform="translate(185.581 196.609) rotate(85.3036) scale(16.4474)">
<stop stop-color="white"/>
<stop offset="1" stop-color="#FAFAFA"/>
</radialGradient>
<radialGradient id="paint2_radial_596_994" cx="0" cy="0" r="1" gradientUnits="userSpaceOnUse" gradientTransform="translate(217.543 196.609) rotate(85.3036) scale(16.4474)">
<stop stop-color="white"/>
<stop offset="1" stop-color="#FAFAFA"/>
</radialGradient>
<radialGradient id="paint3_radial_596_994" cx="0" cy="0" r="1" gradientUnits="userSpaceOnUse" gradientTransform="translate(249.502 196.609) rotate(85.3036) scale(16.4474)">
<stop stop-color="white"/>
<stop offset="1" stop-color="#FAFAFA"/>
</radialGradient>
<radialGradient id="paint4_radial_596_994" cx="0" cy="0" r="1" gradientUnits="userSpaceOnUse" gradientTransform="translate(281.465 196.609) rotate(85.3036) scale(16.4474)">
<stop stop-color="white"/>
<stop offset="1" stop-color="#FAFAFA"/>
</radialGradient>
<radialGradient id="paint5_radial_596_994" cx="0" cy="0" r="1" gradientUnits="userSpaceOnUse" gradientTransform="translate(313.427 196.609) rotate(85.3036) scale(16.4474)">
<stop stop-color="white"/>
<stop offset="1" stop-color="#FAFAFA"/>
</radialGradient>
<radialGradient id="paint6_radial_596_994" cx="0" cy="0" r="1" gradientUnits="userSpaceOnUse" gradientTransform="translate(345.386 196.609) rotate(85.3036) scale(16.4474)">
<stop stop-color="white"/>
<stop offset="1" stop-color="#FAFAFA"/>
</radialGradient>
<radialGradient id="paint7_radial_596_994" cx="0" cy="0" r="1" gradientUnits="userSpaceOnUse" gradientTransform="translate(377.348 196.609) rotate(85.3036) scale(16.4474)">
<stop stop-color="white"/>
<stop offset="1" stop-color="#FAFAFA"/>
</radialGradient>
<radialGradient id="paint8_radial_596_994" cx="0" cy="0" r="1" gradientUnits="userSpaceOnUse" gradientTransform="translate(409.31 196.609) rotate(85.3036) scale(16.4474)">
<stop stop-color="white"/>
<stop offset="1" stop-color="#FAFAFA"/>
</radialGradient>
<radialGradient id="paint9_radial_596_994" cx="0" cy="0" r="1" gradientUnits="userSpaceOnUse" gradientTransform="translate(185.581 261.97) rotate(85.3036) scale(16.4474)">
<stop stop-color="white"/>
<stop offset="1" stop-color="#FAFAFA"/>
</radialGradient>
<radialGradient id="paint10_radial_596_994" cx="0" cy="0" r="1" gradientUnits="userSpaceOnUse" gradientTransform="translate(217.543 261.97) rotate(85.3036) scale(16.4474)">
<stop stop-color="white"/>
<stop offset="1" stop-color="#FAFAFA"/>
</radialGradient>
<radialGradient id="paint11_radial_596_994" cx="0" cy="0" r="1" gradientUnits="userSpaceOnUse" gradientTransform="translate(249.502 261.97) rotate(85.3036) scale(16.4474)">
<stop stop-color="white"/>
<stop offset="1" stop-color="#FAFAFA"/>
</radialGradient>
<radialGradient id="paint12_radial_596_994" cx="0" cy="0" r="1" gradientUnits="userSpaceOnUse" gradientTransform="translate(281.465 261.97) rotate(85.3036) scale(16.4474)">
<stop stop-color="white"/>
<stop offset="1" stop-color="#FAFAFA"/>
</radialGradient>
<radialGradient id="paint13_radial_596_994" cx="0" cy="0" r="1" gradientUnits="userSpaceOnUse" gradientTransform="translate(313.427 261.97) rotate(85.3036) scale(16.4474)">
<stop stop-color="white"/>
<stop offset="1" stop-color="#FAFAFA"/>
</radialGradient>
<radialGradient id="paint14_radial_596_994" cx="0" cy="0" r="1" gradientUnits="userSpaceOnUse" gradientTransform="translate(345.386 261.97) rotate(85.3036) scale(16.4474)">
<stop stop-color="white"/>
<stop offset="1" stop-color="#FAFAFA"/>
</radialGradient>
<radialGradient id="paint15_radial_596_994" cx="0" cy="0" r="1" gradientUnits="userSpaceOnUse" gradientTransform="translate(377.348 261.97) rotate(85.3036) scale(16.4474)">
<stop stop-color="white"/>
<stop offset="1" stop-color="#FAFAFA"/>
</radialGradient>
<radialGradient id="paint16_radial_596_994" cx="0" cy="0" r="1" gradientUnits="userSpaceOnUse" gradientTransform="translate(409.31 261.97) rotate(85.3036) scale(16.4474)">
<stop stop-color="white"/>
<stop offset="1" stop-color="#FAFAFA"/>
</radialGradient>
<radialGradient id="paint17_radial_596_994" cx="0" cy="0" r="1" gradientUnits="userSpaceOnUse" gradientTransform="translate(185.581 327.33) rotate(85.3036) scale(16.4474)">
<stop stop-color="white"/>
<stop offset="1" stop-color="#FAFAFA"/>
</radialGradient>
<radialGradient id="paint18_radial_596_994" cx="0" cy="0" r="1" gradientUnits="userSpaceOnUse" gradientTransform="translate(217.543 327.33) rotate(85.3036) scale(16.4474)">
<stop stop-color="white"/>
<stop offset="1" stop-color="#FAFAFA"/>
</radialGradient>
<radialGradient id="paint19_radial_596_994" cx="0" cy="0" r="1" gradientUnits="userSpaceOnUse" gradientTransform="translate(249.502 327.33) rotate(85.3036) scale(16.4474)">
<stop stop-color="white"/>
<stop offset="1" stop-color="#FAFAFA"/>
</radialGradient>
<radialGradient id="paint20_radial_596_994" cx="0" cy="0" r="1" gradientUnits="userSpaceOnUse" gradientTransform="translate(281.465 327.33) rotate(85.3036) scale(16.4474)">
<stop stop-color="white"/>
<stop offset="1" stop-color="#FAFAFA"/>
</radialGradient>
<radialGradient id="paint21_radial_596_994" cx="0" cy="0" r="1" gradientUnits="userSpaceOnUse" gradientTransform="translate(313.427 327.33) rotate(85.3036) scale(16.4474)">
<stop stop-color="white"/>
<stop offset="1" stop-color="#FAFAFA"/>
</radialGradient>
<radialGradient id="paint22_radial_596_994" cx="0" cy="0" r="1" gradientUnits="userSpaceOnUse" gradientTransform="translate(345.386 327.33) rotate(85.3036) scale(16.4474)">
<stop stop-color="white"/>
<stop offset="1" stop-color="#FAFAFA"/>
</radialGradient>
<radialGradient id="paint23_radial_596_994" cx="0" cy="0" r="1" gradientUnits="userSpaceOnUse" gradientTransform="translate(377.348 327.33) rotate(85.3036) scale(16.4474)">
<stop stop-color="white"/>
<stop offset="1" stop-color="#FAFAFA"/>
</radialGradient>
<radialGradient id="paint24_radial_596_994" cx="0" cy="0" r="1" gradientUnits="userSpaceOnUse" gradientTransform="translate(409.31 327.33) rotate(85.3036) scale(16.4474)">
<stop stop-color="white"/>
<stop offset="1" stop-color="#FAFAFA"/>
</radialGradient>
<radialGradient id="paint25_radial_596_994" cx="0" cy="0" r="1" gradientUnits="userSpaceOnUse" gradientTransform="translate(185.581 229.289) rotate(85.3036) scale(16.4474)">
<stop stop-color="white"/>
<stop offset="1" stop-color="#FAFAFA"/>
</radialGradient>
<radialGradient id="paint26_radial_596_994" cx="0" cy="0" r="1" gradientUnits="userSpaceOnUse" gradientTransform="translate(217.543 229.289) rotate(85.3036) scale(16.4474)">
<stop stop-color="white"/>
<stop offset="1" stop-color="#FAFAFA"/>
</radialGradient>
<radialGradient id="paint27_radial_596_994" cx="0" cy="0" r="1" gradientUnits="userSpaceOnUse" gradientTransform="translate(249.502 229.289) rotate(85.3036) scale(16.4474)">
<stop stop-color="white"/>
<stop offset="1" stop-color="#FAFAFA"/>
</radialGradient>
<radialGradient id="paint28_radial_596_994" cx="0" cy="0" r="1" gradientUnits="userSpaceOnUse" gradientTransform="translate(281.465 229.289) rotate(85.3036) scale(16.4474)">
<stop stop-color="white"/>
<stop offset="1" stop-color="#FAFAFA"/>
</radialGradient>
<radialGradient id="paint29_radial_596_994" cx="0" cy="0" r="1" gradientUnits="userSpaceOnUse" gradientTransform="translate(313.427 229.289) rotate(85.3036) scale(16.4474)">
<stop stop-color="white"/>
<stop offset="1" stop-color="#FAFAFA"/>
</radialGradient>
<radialGradient id="paint30_radial_596_994" cx="0" cy="0" r="1" gradientUnits="userSpaceOnUse" gradientTransform="translate(345.386 229.289) rotate(85.3036) scale(16.4474)">
<stop stop-color="white"/>
<stop offset="1" stop-color="#FAFAFA"/>
</radialGradient>
<radialGradient id="paint31_radial_596_994" cx="0" cy="0" r="1" gradientUnits="userSpaceOnUse" gradientTransform="translate(377.348 229.289) rotate(85.3036) scale(16.4474)">
<stop stop-color="white"/>
<stop offset="1" stop-color="#FAFAFA"/>
</radialGradient>
<radialGradient id="paint32_radial_596_994" cx="0" cy="0" r="1" gradientUnits="userSpaceOnUse" gradientTransform="translate(409.31 229.289) rotate(85.3036) scale(16.4474)">
<stop stop-color="white"/>
<stop offset="1" stop-color="#FAFAFA"/>
</radialGradient>
<radialGradient id="paint33_radial_596_994" cx="0" cy="0" r="1" gradientUnits="userSpaceOnUse" gradientTransform="translate(185.581 294.65) rotate(85.3036) scale(16.4474)">
<stop stop-color="white"/>
<stop offset="1" stop-color="#FAFAFA"/>
</radialGradient>
<radialGradient id="paint34_radial_596_994" cx="0" cy="0" r="1" gradientUnits="userSpaceOnUse" gradientTransform="translate(217.543 294.65) rotate(85.3036) scale(16.4474)">
<stop stop-color="white"/>
<stop offset="1" stop-color="#FAFAFA"/>
</radialGradient>
<radialGradient id="paint35_radial_596_994" cx="0" cy="0" r="1" gradientUnits="userSpaceOnUse" gradientTransform="translate(249.502 294.65) rotate(85.3036) scale(16.4474)">
<stop stop-color="white"/>
<stop offset="1" stop-color="#FAFAFA"/>
</radialGradient>
<radialGradient id="paint36_radial_596_994" cx="0" cy="0" r="1" gradientUnits="userSpaceOnUse" gradientTransform="translate(281.465 294.65) rotate(85.3036) scale(16.4474)">
<stop stop-color="white"/>
<stop offset="1" stop-color="#FAFAFA"/>
</radialGradient>
<radialGradient id="paint37_radial_596_994" cx="0" cy="0" r="1" gradientUnits="userSpaceOnUse" gradientTransform="translate(313.427 294.65) rotate(85.3036) scale(16.4474)">
<stop stop-color="white"/>
<stop offset="1" stop-color="#FAFAFA"/>
</radialGradient>
<radialGradient id="paint38_radial_596_994" cx="0" cy="0" r="1" gradientUnits="userSpaceOnUse" gradientTransform="translate(345.386 294.65) rotate(85.3036) scale(16.4474)">
<stop stop-color="white"/>
<stop offset="1" stop-color="#FAFAFA"/>
</radialGradient>
<radialGradient id="paint39_radial_596_994" cx="0" cy="0" r="1" gradientUnits="userSpaceOnUse" gradientTransform="translate(377.348 294.65) rotate(85.3036) scale(16.4474)">
<stop stop-color="white"/>
<stop offset="1" stop-color="#FAFAFA"/>
</radialGradient>
<radialGradient id="paint40_radial_596_994" cx="0" cy="0" r="1" gradientUnits="userSpaceOnUse" gradientTransform="translate(409.31 294.65) rotate(85.3036) scale(16.4474)">
<stop stop-color="white"/>
<stop offset="1" stop-color="#FAFAFA"/>
</radialGradient>
<radialGradient id="paint41_radial_596_994" cx="0" cy="0" r="1" gradientUnits="userSpaceOnUse" gradientTransform="translate(185.581 360.01) rotate(85.3036) scale(16.4474)">
<stop stop-color="white"/>
<stop offset="1" stop-color="#FAFAFA"/>
</radialGradient>
<radialGradient id="paint42_radial_596_994" cx="0" cy="0" r="1" gradientUnits="userSpaceOnUse" gradientTransform="translate(217.543 360.01) rotate(85.3036) scale(16.4474)">
<stop stop-color="white"/>
<stop offset="1" stop-color="#FAFAFA"/>
</radialGradient>
<radialGradient id="paint43_radial_596_994" cx="0" cy="0" r="1" gradientUnits="userSpaceOnUse" gradientTransform="translate(249.502 360.01) rotate(85.3036) scale(16.4474)">
<stop stop-color="white"/>
<stop offset="1" stop-color="#FAFAFA"/>
</radialGradient>
<radialGradient id="paint44_radial_596_994" cx="0" cy="0" r="1" gradientUnits="userSpaceOnUse" gradientTransform="translate(281.465 360.01) rotate(85.3036) scale(16.4474)">
<stop stop-color="white"/>
<stop offset="1" stop-color="#FAFAFA"/>
</radialGradient>
<radialGradient id="paint45_radial_596_994" cx="0" cy="0" r="1" gradientUnits="userSpaceOnUse" gradientTransform="translate(313.427 360.01) rotate(85.3036) scale(16.4474)">
<stop stop-color="white"/>
<stop offset="1" stop-color="#FAFAFA"/>
</radialGradient>
<radialGradient id="paint46_radial_596_994" cx="0" cy="0" r="1" gradientUnits="userSpaceOnUse" gradientTransform="translate(345.386 360.01) rotate(85.3036) scale(16.4474)">
<stop stop-color="white"/>
<stop offset="1" stop-color="#FAFAFA"/>
</radialGradient>
<radialGradient id="paint47_radial_596_994" cx="0" cy="0" r="1" gradientUnits="userSpaceOnUse" gradientTransform="translate(377.348 360.01) rotate(85.3036) scale(16.4474)">
<stop stop-color="white"/>
<stop offset="1" stop-color="#FAFAFA"/>
</radialGradient>
<radialGradient id="paint48_radial_596_994" cx="0" cy="0" r="1" gradientUnits="userSpaceOnUse" gradientTransform="translate(409.31 360.01) rotate(85.3036) scale(16.4474)">
<stop stop-color="white"/>
<stop offset="1" stop-color="#FAFAFA"/>
</radialGradient>
</defs>
</svg>
