<svg width="494" height="493" viewBox="0 0 494 493" fill="none" xmlns="http://www.w3.org/2000/svg">
<rect x="0.476562" y="246.475" width="348.569" height="348.569" rx="25.5029" transform="rotate(-45 0.476562 246.475)" fill="#FB242B" fill-opacity="0.3"/>
<rect x="28.1045" y="246.475" width="309" height="309" rx="25.5029" transform="rotate(-45 28.1045 246.475)" fill="#FB242B" fill-opacity="0.4"/>
<rect x="63.1709" y="246.475" width="260.624" height="260.624" rx="25.5029" transform="rotate(-45 63.1709 246.475)" fill="#FB242B"/>
<path d="M147.118 269.925C147.118 269.925 171.558 343.777 245.41 343.245C319.262 342.714 344.234 269.925 344.234 269.925" stroke="white" stroke-width="4.25048"/>
<path d="M201.286 188.337H204.102C206.236 188.337 208.038 188.977 209.51 190.257C210.982 191.516 211.718 193.265 211.718 195.505C211.718 197.745 210.961 199.505 209.446 200.785C207.953 202.065 206.097 202.705 203.878 202.705C202.065 202.705 200.486 202.289 199.142 201.457C197.798 200.625 196.838 199.441 196.262 197.905L199.43 196.081C200.049 198.108 201.532 199.121 203.878 199.121C205.137 199.121 206.14 198.801 206.886 198.161C207.654 197.5 208.038 196.614 208.038 195.505C208.038 194.417 207.665 193.553 206.918 192.913C206.172 192.252 205.18 191.921 203.942 191.921H197.414L198.278 179.889H210.758V183.345H201.67L201.286 188.337ZM228.784 199.537C227.248 201.649 225.093 202.705 222.32 202.705C219.568 202.705 217.402 201.649 215.824 199.537C214.288 197.425 213.52 194.609 213.52 191.089C213.52 187.569 214.288 184.753 215.824 182.641C217.402 180.529 219.568 179.473 222.32 179.473C225.093 179.473 227.248 180.529 228.784 182.641C230.341 184.732 231.12 187.548 231.12 191.089C231.12 194.63 230.341 197.446 228.784 199.537ZM222.32 199.121C223.984 199.121 225.253 198.428 226.128 197.041C227.002 195.654 227.44 193.67 227.44 191.089C227.44 188.508 227.002 186.524 226.128 185.137C225.253 183.75 223.984 183.057 222.32 183.057C220.677 183.057 219.408 183.75 218.512 185.137C217.637 186.524 217.2 188.508 217.2 191.089C217.2 193.67 217.637 195.654 218.512 197.041C219.408 198.428 220.677 199.121 222.32 199.121ZM248.94 199.537C247.404 201.649 245.249 202.705 242.476 202.705C239.724 202.705 237.559 201.649 235.98 199.537C234.444 197.425 233.676 194.609 233.676 191.089C233.676 187.569 234.444 184.753 235.98 182.641C237.559 180.529 239.724 179.473 242.476 179.473C245.249 179.473 247.404 180.529 248.94 182.641C250.497 184.732 251.276 187.548 251.276 191.089C251.276 194.63 250.497 197.446 248.94 199.537ZM242.476 199.121C244.14 199.121 245.409 198.428 246.284 197.041C247.159 195.654 247.596 193.67 247.596 191.089C247.596 188.508 247.159 186.524 246.284 185.137C245.409 183.75 244.14 183.057 242.476 183.057C240.833 183.057 239.564 183.75 238.668 185.137C237.793 186.524 237.356 188.508 237.356 191.089C237.356 193.67 237.793 195.654 238.668 197.041C239.564 198.428 240.833 199.121 242.476 199.121ZM269.096 199.537C267.56 201.649 265.406 202.705 262.632 202.705C259.88 202.705 257.715 201.649 256.136 199.537C254.6 197.425 253.832 194.609 253.832 191.089C253.832 187.569 254.6 184.753 256.136 182.641C257.715 180.529 259.88 179.473 262.632 179.473C265.406 179.473 267.56 180.529 269.096 182.641C270.654 184.732 271.432 187.548 271.432 191.089C271.432 194.63 270.654 197.446 269.096 199.537ZM262.632 199.121C264.296 199.121 265.566 198.428 266.44 197.041C267.315 195.654 267.752 193.67 267.752 191.089C267.752 188.508 267.315 186.524 266.44 185.137C265.566 183.75 264.296 183.057 262.632 183.057C260.99 183.057 259.72 183.75 258.824 185.137C257.95 186.524 257.512 188.508 257.512 191.089C257.512 193.67 257.95 195.654 258.824 197.041C259.72 198.428 260.99 199.121 262.632 199.121ZM283.14 189.457H288.548V192.721H283.14V198.129H279.876V192.721H274.468V189.457H279.876V184.049H283.14V189.457ZM127.094 224.873C128.95 224.873 130.432 225.47 131.542 226.665C132.672 227.838 133.238 229.438 133.238 231.465V241.289H129.782V231.817C129.782 230.622 129.462 229.705 128.822 229.065C128.182 228.425 127.307 228.105 126.198 228.105C124.939 228.105 123.947 228.5 123.222 229.289C122.496 230.057 122.134 231.198 122.134 232.713V241.289H118.678V218.889H122.134V227.337C123.2 225.694 124.854 224.873 127.094 224.873ZM149.631 227.561V225.289H153.087V241.289H149.631V238.985C148.33 240.798 146.463 241.705 144.031 241.705C141.834 241.705 139.956 240.894 138.399 239.273C136.842 237.652 136.063 235.657 136.063 233.289C136.063 230.921 136.842 228.926 138.399 227.305C139.956 225.684 141.834 224.873 144.031 224.873C146.463 224.873 148.33 225.769 149.631 227.561ZM140.959 236.969C141.919 237.929 143.124 238.409 144.575 238.409C146.026 238.409 147.231 237.929 148.191 236.969C149.151 235.988 149.631 234.761 149.631 233.289C149.631 231.817 149.151 230.601 148.191 229.641C147.231 228.66 146.026 228.169 144.575 228.169C143.124 228.169 141.919 228.66 140.959 229.641C139.999 230.601 139.519 231.817 139.519 233.289C139.519 234.74 139.999 235.966 140.959 236.969ZM166.171 224.873C168.347 224.873 170.224 225.694 171.803 227.337C173.36 228.958 174.139 230.942 174.139 233.289C174.139 235.657 173.36 237.652 171.803 239.273C170.246 240.894 168.368 241.705 166.171 241.705C163.76 241.705 161.894 240.809 160.571 239.017V247.689H157.115V225.289H160.571V227.593C161.872 225.78 163.739 224.873 166.171 224.873ZM162.011 236.969C162.971 237.929 164.176 238.409 165.627 238.409C167.078 238.409 168.283 237.929 169.243 236.969C170.203 235.988 170.683 234.761 170.683 233.289C170.683 231.817 170.203 230.601 169.243 229.641C168.283 228.66 167.078 228.169 165.627 228.169C164.176 228.169 162.971 228.66 162.011 229.641C161.051 230.601 160.571 231.817 160.571 233.289C160.571 234.74 161.051 235.966 162.011 236.969ZM186.327 224.873C188.503 224.873 190.381 225.694 191.959 227.337C193.517 228.958 194.295 230.942 194.295 233.289C194.295 235.657 193.517 237.652 191.959 239.273C190.402 240.894 188.525 241.705 186.327 241.705C183.917 241.705 182.05 240.809 180.727 239.017V247.689H177.271V225.289H180.727V227.593C182.029 225.78 183.895 224.873 186.327 224.873ZM182.167 236.969C183.127 237.929 184.333 238.409 185.783 238.409C187.234 238.409 188.439 237.929 189.399 236.969C190.359 235.988 190.839 234.761 190.839 233.289C190.839 231.817 190.359 230.601 189.399 229.641C188.439 228.66 187.234 228.169 185.783 228.169C184.333 228.169 183.127 228.66 182.167 229.641C181.207 230.601 180.727 231.817 180.727 233.289C180.727 234.74 181.207 235.966 182.167 236.969ZM203.491 236.905L207.587 225.289H211.267L205.123 241.801C203.587 245.94 200.984 247.902 197.315 247.689V244.457C198.381 244.521 199.245 244.297 199.907 243.785C200.568 243.273 201.123 242.452 201.571 241.321L201.731 241.001L194.947 225.289H198.723L203.491 236.905ZM230.484 224.873C232.681 224.873 234.558 225.684 236.116 227.305C237.673 228.926 238.452 230.921 238.452 233.289C238.452 235.657 237.673 237.652 236.116 239.273C234.558 240.894 232.681 241.705 230.484 241.705C228.052 241.705 226.185 240.798 224.884 238.985V241.289H221.428V218.889H224.884V227.561C226.206 225.769 228.073 224.873 230.484 224.873ZM226.324 236.969C227.284 237.929 228.489 238.409 229.94 238.409C231.39 238.409 232.596 237.929 233.556 236.969C234.516 235.988 234.996 234.761 234.996 233.289C234.996 231.817 234.516 230.601 233.556 229.641C232.596 228.66 231.39 228.169 229.94 228.169C228.489 228.169 227.284 228.66 226.324 229.641C225.364 230.601 224.884 231.817 224.884 233.289C224.884 234.74 225.364 235.966 226.324 236.969ZM252.368 233.865V225.289H255.824V241.289H252.368V239.241C251.301 240.884 249.648 241.705 247.408 241.705C245.552 241.705 244.059 241.118 242.928 239.945C241.819 238.75 241.264 237.14 241.264 235.113V225.289H244.72V234.761C244.72 235.956 245.04 236.873 245.68 237.513C246.32 238.153 247.195 238.473 248.304 238.473C249.563 238.473 250.555 238.089 251.28 237.321C252.005 236.532 252.368 235.38 252.368 233.865ZM262.875 229.705C262.875 230.196 263.131 230.601 263.643 230.921C264.155 231.22 264.902 231.508 265.883 231.785C266.63 231.956 267.281 232.137 267.835 232.329C268.39 232.521 268.977 232.809 269.595 233.193C270.214 233.556 270.683 234.046 271.003 234.665C271.345 235.262 271.505 235.966 271.483 236.777C271.483 238.313 270.886 239.518 269.691 240.393C268.497 241.268 267.014 241.705 265.243 241.705C263.665 241.705 262.31 241.374 261.179 240.713C260.049 240.052 259.227 239.134 258.715 237.961L261.691 236.233C262.225 237.769 263.409 238.537 265.243 238.537C267.057 238.537 267.963 237.94 267.963 236.745C267.963 235.87 266.95 235.188 264.923 234.697C264.155 234.505 263.505 234.313 262.971 234.121C262.459 233.929 261.883 233.652 261.243 233.289C260.625 232.926 260.145 232.446 259.803 231.849C259.483 231.252 259.334 230.558 259.355 229.769C259.355 228.297 259.91 227.113 261.019 226.217C262.15 225.321 263.547 224.873 265.211 224.873C266.534 224.873 267.707 225.172 268.731 225.769C269.777 226.345 270.577 227.156 271.131 228.201L268.219 229.833C267.686 228.617 266.683 228.009 265.211 228.009C264.529 228.009 263.963 228.158 263.515 228.457C263.089 228.756 262.875 229.172 262.875 229.705ZM277.598 222.249C277.171 222.676 276.659 222.889 276.062 222.889C275.465 222.889 274.942 222.676 274.494 222.249C274.067 221.801 273.854 221.278 273.854 220.681C273.854 220.084 274.067 219.572 274.494 219.145C274.921 218.697 275.443 218.473 276.062 218.473C276.681 218.473 277.203 218.697 277.63 219.145C278.057 219.572 278.27 220.084 278.27 220.681C278.27 221.278 278.046 221.801 277.598 222.249ZM277.79 241.289H274.334V225.289H277.79V241.289ZM290.219 224.873C292.075 224.873 293.557 225.47 294.667 226.665C295.797 227.838 296.363 229.438 296.363 231.465V241.289H292.907V231.817C292.907 230.622 292.587 229.705 291.947 229.065C291.307 228.425 290.432 228.105 289.323 228.105C288.064 228.105 287.072 228.5 286.347 229.289C285.621 230.057 285.259 231.198 285.259 232.713V241.289H281.803V225.289H285.259V227.337C286.325 225.694 287.979 224.873 290.219 224.873ZM315.54 234.761H302.804C303.06 235.956 303.636 236.884 304.532 237.545C305.449 238.206 306.58 238.537 307.924 238.537C309.737 238.537 311.113 237.876 312.052 236.553L314.9 238.217C313.343 240.542 311.007 241.705 307.892 241.705C305.311 241.705 303.209 240.916 301.588 239.337C299.988 237.737 299.188 235.721 299.188 233.289C299.188 230.921 299.977 228.926 301.556 227.305C303.113 225.684 305.14 224.873 307.636 224.873C309.961 224.873 311.881 225.694 313.396 227.337C314.911 228.98 315.668 230.974 315.668 233.321C315.668 233.748 315.625 234.228 315.54 234.761ZM302.772 231.945H312.18C311.945 230.686 311.412 229.716 310.58 229.033C309.769 228.35 308.777 228.009 307.604 228.009C306.324 228.009 305.257 228.361 304.404 229.065C303.551 229.769 303.007 230.729 302.772 231.945ZM321.188 229.705C321.188 230.196 321.444 230.601 321.956 230.921C322.468 231.22 323.215 231.508 324.196 231.785C324.943 231.956 325.593 232.137 326.148 232.329C326.703 232.521 327.289 232.809 327.908 233.193C328.527 233.556 328.996 234.046 329.316 234.665C329.657 235.262 329.817 235.966 329.796 236.777C329.796 238.313 329.199 239.518 328.004 240.393C326.809 241.268 325.327 241.705 323.556 241.705C321.977 241.705 320.623 241.374 319.492 240.713C318.361 240.052 317.54 239.134 317.028 237.961L320.004 236.233C320.537 237.769 321.721 238.537 323.556 238.537C325.369 238.537 326.276 237.94 326.276 236.745C326.276 235.87 325.263 235.188 323.236 234.697C322.468 234.505 321.817 234.313 321.284 234.121C320.772 233.929 320.196 233.652 319.556 233.289C318.937 232.926 318.457 232.446 318.116 231.849C317.796 231.252 317.647 230.558 317.668 229.769C317.668 228.297 318.223 227.113 319.332 226.217C320.463 225.321 321.86 224.873 323.524 224.873C324.847 224.873 326.02 225.172 327.044 225.769C328.089 226.345 328.889 227.156 329.444 228.201L326.532 229.833C325.999 228.617 324.996 228.009 323.524 228.009C322.841 228.009 322.276 228.158 321.828 228.457C321.401 228.756 321.188 229.172 321.188 229.705ZM334.969 229.705C334.969 230.196 335.225 230.601 335.737 230.921C336.249 231.22 336.996 231.508 337.977 231.785C338.724 231.956 339.374 232.137 339.929 232.329C340.484 232.521 341.07 232.809 341.689 233.193C342.308 233.556 342.777 234.046 343.097 234.665C343.438 235.262 343.598 235.966 343.577 236.777C343.577 238.313 342.98 239.518 341.785 240.393C340.59 241.268 339.108 241.705 337.337 241.705C335.758 241.705 334.404 241.374 333.273 240.713C332.142 240.052 331.321 239.134 330.809 237.961L333.785 236.233C334.318 237.769 335.502 238.537 337.337 238.537C339.15 238.537 340.057 237.94 340.057 236.745C340.057 235.87 339.044 235.188 337.017 234.697C336.249 234.505 335.598 234.313 335.065 234.121C334.553 233.929 333.977 233.652 333.337 233.289C332.718 232.926 332.238 232.446 331.897 231.849C331.577 231.252 331.428 230.558 331.449 229.769C331.449 228.297 332.004 227.113 333.113 226.217C334.244 225.321 335.641 224.873 337.305 224.873C338.628 224.873 339.801 225.172 340.825 225.769C341.87 226.345 342.67 227.156 343.225 228.201L340.313 229.833C339.78 228.617 338.777 228.009 337.305 228.009C336.622 228.009 336.057 228.158 335.609 228.457C335.182 228.756 334.969 229.172 334.969 229.705ZM361.665 234.761H348.929C349.185 235.956 349.761 236.884 350.657 237.545C351.574 238.206 352.705 238.537 354.049 238.537C355.862 238.537 357.238 237.876 358.177 236.553L361.025 238.217C359.468 240.542 357.132 241.705 354.017 241.705C351.436 241.705 349.334 240.916 347.713 239.337C346.113 237.737 345.313 235.721 345.313 233.289C345.313 230.921 346.102 228.926 347.681 227.305C349.238 225.684 351.265 224.873 353.761 224.873C356.086 224.873 358.006 225.694 359.521 227.337C361.036 228.98 361.793 230.974 361.793 233.321C361.793 233.748 361.75 234.228 361.665 234.761ZM348.897 231.945H358.305C358.07 230.686 357.537 229.716 356.705 229.033C355.894 228.35 354.902 228.009 353.729 228.009C352.449 228.009 351.382 228.361 350.529 229.065C349.676 229.769 349.132 230.729 348.897 231.945ZM367.313 229.705C367.313 230.196 367.569 230.601 368.081 230.921C368.593 231.22 369.34 231.508 370.321 231.785C371.068 231.956 371.718 232.137 372.273 232.329C372.828 232.521 373.414 232.809 374.033 233.193C374.652 233.556 375.121 234.046 375.441 234.665C375.782 235.262 375.942 235.966 375.921 236.777C375.921 238.313 375.324 239.518 374.129 240.393C372.934 241.268 371.452 241.705 369.681 241.705C368.102 241.705 366.748 241.374 365.617 240.713C364.486 240.052 363.665 239.134 363.153 237.961L366.129 236.233C366.662 237.769 367.846 238.537 369.681 238.537C371.494 238.537 372.401 237.94 372.401 236.745C372.401 235.87 371.388 235.188 369.361 234.697C368.593 234.505 367.942 234.313 367.409 234.121C366.897 233.929 366.321 233.652 365.681 233.289C365.062 232.926 364.582 232.446 364.241 231.849C363.921 231.252 363.772 230.558 363.793 229.769C363.793 228.297 364.348 227.113 365.457 226.217C366.588 225.321 367.985 224.873 369.649 224.873C370.972 224.873 372.145 225.172 373.169 225.769C374.214 226.345 375.014 227.156 375.569 228.201L372.657 229.833C372.124 228.617 371.121 228.009 369.649 228.009C368.966 228.009 368.401 228.158 367.953 228.457C367.526 228.756 367.313 229.172 367.313 229.705Z" fill="white"/>
</svg>
