<svg width="113" height="40" viewBox="0 0 113 40" fill="none" xmlns="http://www.w3.org/2000/svg">
<rect opacity="0.88" width="113" height="40" rx="8" fill="url(#paint0_radial_702_976)"/>
<path fill-rule="evenodd" clip-rule="evenodd" d="M8.35156 13.0663C8.35156 10.4317 10.4874 8.2959 13.122 8.2959H27.1352C29.7698 8.2959 31.9057 10.4317 31.9057 13.0663V26.9329C31.9057 29.5675 29.7698 31.7033 27.1352 31.7033H13.122C10.4874 31.7033 8.35156 29.5675 8.35156 26.9329V13.0663ZM17.1763 13.2552C16.6397 12.9604 16.0097 12.9673 15.4766 13.2594L21.7251 18.9878L23.8242 16.9017L17.1763 13.2552ZM14.6133 14.6774C14.6133 14.3767 14.7007 14.0931 14.8533 13.8452L21.1207 19.5906L14.837 25.8352C14.693 25.5924 14.6133 25.3147 14.6133 25.0234V14.6774ZM26.6077 18.4281L24.6055 17.3301L22.3555 19.5652L25.1129 22.0925L26.6086 21.2722C27.1469 20.9758 27.4692 20.4443 27.4692 19.8497C27.4683 19.2551 27.1469 18.7236 26.6077 18.4281ZM15.4453 26.4296L21.7461 20.168L24.3193 22.5266L17.1733 26.4457C16.905 26.5931 16.6119 26.6664 16.3205 26.6664C16.0187 26.6664 15.7187 26.5846 15.4453 26.4296Z" fill="white"/>
<path d="M39.8985 15.296H39.2378L41.1487 10.0918H41.7992L43.7101 15.296H43.0494L41.4943 10.9151H41.4536L39.8985 15.296ZM40.1424 13.2631H42.8055V13.8221H40.1424V13.2631Z" fill="white"/>
<path d="M47.1418 11.3929L45.6985 15.296H45.0886L43.6453 11.3929H44.2958L45.3732 14.5031H45.4139L46.4913 11.3929H47.1418Z" fill="white"/>
<path d="M48.9631 15.3874C48.7158 15.3874 48.4913 15.3408 48.2897 15.2477C48.0882 15.1528 47.9281 15.0164 47.8095 14.8386C47.6909 14.659 47.6316 14.4422 47.6316 14.188C47.6316 13.9644 47.6757 13.7832 47.7637 13.6443C47.8518 13.5036 47.9696 13.3935 48.117 13.3139C48.2643 13.2343 48.427 13.175 48.6048 13.136C48.7844 13.0954 48.9648 13.0632 49.1461 13.0395C49.3833 13.009 49.5755 12.9861 49.7229 12.9709C49.872 12.9539 49.9804 12.926 50.0482 12.887C50.1176 12.848 50.1524 12.7803 50.1524 12.6837V12.6634C50.1524 12.4127 50.0837 12.2179 49.9465 12.079C49.811 11.94 49.6052 11.8706 49.329 11.8706C49.0428 11.8706 48.8183 11.9333 48.6557 12.0586C48.493 12.184 48.3787 12.3178 48.3126 12.4601L47.7434 12.2568C47.8451 12.0197 47.9806 11.835 48.15 11.7029C48.3211 11.569 48.5074 11.4759 48.709 11.4234C48.9123 11.3691 49.1122 11.342 49.3087 11.342C49.4341 11.342 49.5781 11.3573 49.7407 11.3878C49.905 11.4166 50.0634 11.4767 50.2159 11.5682C50.37 11.6597 50.4979 11.7977 50.5996 11.9824C50.7012 12.167 50.752 12.4144 50.752 12.7244V15.296H50.1524V14.7674H50.1219C50.0812 14.8521 50.0134 14.9427 49.9186 15.0393C49.8237 15.1359 49.6975 15.218 49.54 15.2858C49.3824 15.3536 49.1901 15.3874 48.9631 15.3874ZM49.0546 14.8487C49.2918 14.8487 49.4917 14.8021 49.6543 14.709C49.8186 14.6158 49.9423 14.4955 50.0253 14.3481C50.11 14.2007 50.1524 14.0457 50.1524 13.8831V13.3342C50.1269 13.3647 50.071 13.3927 49.9846 13.4181C49.8999 13.4418 49.8017 13.463 49.6899 13.4816C49.5798 13.4986 49.4722 13.5138 49.3672 13.5274C49.2638 13.5392 49.18 13.5494 49.1156 13.5579C48.9597 13.5782 48.8141 13.6112 48.6785 13.657C48.5447 13.701 48.4363 13.7679 48.3533 13.8577C48.272 13.9458 48.2313 14.0661 48.2313 14.2185C48.2313 14.4269 48.3084 14.5845 48.4625 14.6912C48.6184 14.7962 48.8157 14.8487 49.0546 14.8487Z" fill="white"/>
<path d="M51.8466 15.296V11.3929H52.4463V15.296H51.8466ZM52.1515 10.7423C52.0347 10.7423 51.9339 10.7025 51.8492 10.6229C51.7661 10.5433 51.7246 10.4476 51.7246 10.3358C51.7246 10.224 51.7661 10.1283 51.8492 10.0486C51.9339 9.96901 52.0347 9.9292 52.1515 9.9292C52.2684 9.9292 52.3684 9.96901 52.4514 10.0486C52.5361 10.1283 52.5784 10.224 52.5784 10.3358C52.5784 10.4476 52.5361 10.5433 52.4514 10.6229C52.3684 10.7025 52.2684 10.7423 52.1515 10.7423Z" fill="white"/>
<path d="M54.1444 10.0918V15.296H53.5447V10.0918H54.1444Z" fill="white"/>
<path d="M56.3913 15.3874C56.144 15.3874 55.9195 15.3408 55.7179 15.2477C55.5164 15.1528 55.3563 15.0164 55.2377 14.8386C55.1191 14.659 55.0598 14.4422 55.0598 14.188C55.0598 13.9644 55.1039 13.7832 55.1919 13.6443C55.28 13.5036 55.3978 13.3935 55.5452 13.3139C55.6925 13.2343 55.8552 13.175 56.033 13.136C56.2126 13.0954 56.393 13.0632 56.5743 13.0395C56.8115 13.009 57.0037 12.9861 57.1511 12.9709C57.3002 12.9539 57.4086 12.926 57.4764 12.887C57.5458 12.848 57.5806 12.7803 57.5806 12.6837V12.6634C57.5806 12.4127 57.5119 12.2179 57.3747 12.079C57.2392 11.94 57.0334 11.8706 56.7572 11.8706C56.471 11.8706 56.2465 11.9333 56.0839 12.0586C55.9212 12.184 55.8069 12.3178 55.7408 12.4601L55.1716 12.2568C55.2733 12.0197 55.4088 11.835 55.5782 11.7029C55.7493 11.569 55.9356 11.4759 56.1372 11.4234C56.3405 11.3691 56.5404 11.342 56.7369 11.342C56.8623 11.342 57.0063 11.3573 57.1689 11.3878C57.3332 11.4166 57.4916 11.4767 57.6441 11.5682C57.7982 11.6597 57.9261 11.7977 58.0278 11.9824C58.1294 12.167 58.1803 12.4144 58.1803 12.7244V15.296H57.5806V14.7674H57.5501C57.5094 14.8521 57.4416 14.9427 57.3468 15.0393C57.2519 15.1359 57.1257 15.218 56.9682 15.2858C56.8106 15.3536 56.6183 15.3874 56.3913 15.3874ZM56.4828 14.8487C56.72 14.8487 56.9199 14.8021 57.0825 14.709C57.2468 14.6158 57.3705 14.4955 57.4535 14.3481C57.5382 14.2007 57.5806 14.0457 57.5806 13.8831V13.3342C57.5551 13.3647 57.4992 13.3927 57.4128 13.4181C57.3281 13.4418 57.2299 13.463 57.1181 13.4816C57.008 13.4986 56.9004 13.5138 56.7954 13.5274C56.692 13.5392 56.6082 13.5494 56.5438 13.5579C56.3879 13.5782 56.2423 13.6112 56.1067 13.657C55.9729 13.701 55.8645 13.7679 55.7815 13.8577C55.7002 13.9458 55.6595 14.0661 55.6595 14.2185C55.6595 14.4269 55.7366 14.5845 55.8907 14.6912C56.0466 14.7962 56.244 14.8487 56.4828 14.8487Z" fill="white"/>
<path d="M59.3561 15.296V10.0918H59.9558V12.0129H60.0067C60.0507 11.9451 60.1117 11.8587 60.1896 11.7537C60.2692 11.647 60.3827 11.5521 60.5301 11.4691C60.6792 11.3844 60.8808 11.342 61.1349 11.342C61.4635 11.342 61.7532 11.4242 62.0039 11.5885C62.2547 11.7528 62.4503 11.9858 62.5909 12.2873C62.7315 12.5889 62.8018 12.9446 62.8018 13.3546C62.8018 13.7679 62.7315 14.1262 62.5909 14.4294C62.4503 14.731 62.2555 14.9648 62.0065 15.1308C61.7575 15.2951 61.4703 15.3773 61.1451 15.3773C60.8943 15.3773 60.6936 15.3358 60.5428 15.2528C60.392 15.1681 60.276 15.0723 60.1947 14.9656C60.1134 14.8572 60.0507 14.7674 60.0067 14.6963H59.9355V15.296H59.3561ZM59.9457 13.3444C59.9457 13.6392 59.9889 13.8992 60.0753 14.1245C60.1617 14.3481 60.2879 14.5235 60.4539 14.6505C60.6199 14.7759 60.8232 14.8386 61.0637 14.8386C61.3145 14.8386 61.5237 14.7725 61.6914 14.6404C61.8608 14.5065 61.9878 14.327 62.0725 14.1016C62.1589 13.8746 62.2021 13.6222 62.2021 13.3444C62.2021 13.07 62.1598 12.8226 62.0751 12.6024C61.9921 12.3805 61.8659 12.2052 61.6965 12.0764C61.5288 11.946 61.3178 11.8807 61.0637 11.8807C60.8198 11.8807 60.6148 11.9426 60.4488 12.0662C60.2828 12.1882 60.1574 12.3593 60.0727 12.5795C59.988 12.7981 59.9457 13.053 59.9457 13.3444Z" fill="white"/>
<path d="M64.3189 10.0918V15.296H63.7192V10.0918H64.3189Z" fill="white"/>
<path d="M67.0537 15.3773C66.6776 15.3773 66.3532 15.2943 66.0805 15.1282C65.8094 14.9605 65.6002 14.7268 65.4528 14.4269C65.3071 14.1254 65.2343 13.7747 65.2343 13.3749C65.2343 12.9751 65.3071 12.6227 65.4528 12.3178C65.6002 12.0112 65.8052 11.7723 66.0678 11.6012C66.332 11.4284 66.6403 11.342 66.9927 11.342C67.196 11.342 67.3967 11.3759 67.5949 11.4437C67.7931 11.5114 67.9736 11.6216 68.1362 11.774C68.2988 11.9248 68.4284 12.1247 68.525 12.3737C68.6215 12.6227 68.6698 12.9294 68.6698 13.2936V13.5477H65.6612V13.0293H68.06C68.06 12.8091 68.0159 12.6126 67.9278 12.4398C67.8414 12.267 67.7178 12.1306 67.5568 12.0307C67.3976 11.9307 67.2095 11.8807 66.9927 11.8807C66.7538 11.8807 66.5472 11.94 66.3727 12.0586C66.1999 12.1755 66.0669 12.328 65.9737 12.516C65.8806 12.7041 65.834 12.9056 65.834 13.1208V13.4664C65.834 13.7611 65.8848 14.011 65.9864 14.216C66.0898 14.4193 66.2329 14.5743 66.4159 14.681C66.5988 14.786 66.8114 14.8386 67.0537 14.8386C67.2112 14.8386 67.3535 14.8165 67.4806 14.7725C67.6093 14.7268 67.7203 14.659 67.8135 14.5692C67.9066 14.4777 67.9786 14.3642 68.0295 14.2287L68.6088 14.3913C68.5478 14.5878 68.4454 14.7606 68.3014 14.9097C68.1574 15.0571 67.9795 15.1723 67.7677 15.2553C67.556 15.3366 67.318 15.3773 67.0537 15.3773Z" fill="white"/>
<path d="M73.1802 15.3773C72.8279 15.3773 72.5187 15.2934 72.2527 15.1257C71.9885 14.958 71.7818 14.7234 71.6327 14.4218C71.4853 14.1203 71.4116 13.7679 71.4116 13.3647C71.4116 12.9582 71.4853 12.6033 71.6327 12.3C71.7818 11.9968 71.9885 11.7613 72.2527 11.5936C72.5187 11.4259 72.8279 11.342 73.1802 11.342C73.5326 11.342 73.8409 11.4259 74.1052 11.5936C74.3711 11.7613 74.5778 11.9968 74.7252 12.3C74.8743 12.6033 74.9488 12.9582 74.9488 13.3647C74.9488 13.7679 74.8743 14.1203 74.7252 14.4218C74.5778 14.7234 74.3711 14.958 74.1052 15.1257C73.8409 15.2934 73.5326 15.3773 73.1802 15.3773ZM73.1802 14.8386C73.4479 14.8386 73.6681 14.77 73.8409 14.6327C74.0137 14.4955 74.1416 14.3151 74.2246 14.0915C74.3076 13.8679 74.3491 13.6256 74.3491 13.3647C74.3491 13.1039 74.3076 12.8608 74.2246 12.6354C74.1416 12.4101 74.0137 12.228 73.8409 12.0891C73.6681 11.9502 73.4479 11.8807 73.1802 11.8807C72.9126 11.8807 72.6923 11.9502 72.5196 12.0891C72.3468 12.228 72.2189 12.4101 72.1358 12.6354C72.0528 12.8608 72.0113 13.1039 72.0113 13.3647C72.0113 13.6256 72.0528 13.8679 72.1358 14.0915C72.2189 14.3151 72.3468 14.4955 72.5196 14.6327C72.6923 14.77 72.9126 14.8386 73.1802 14.8386Z" fill="white"/>
<path d="M76.4639 12.948V15.296H75.8642V11.3929H76.4436V12.0027H76.4944C76.5859 11.8045 76.7248 11.6453 76.9112 11.525C77.0975 11.403 77.3381 11.342 77.6328 11.342C77.8971 11.342 78.1283 11.3962 78.3265 11.5047C78.5247 11.6114 78.6789 11.774 78.789 11.9926C78.8991 12.2094 78.9542 12.4838 78.9542 12.8159V15.296H78.3545V12.8565C78.3545 12.5499 78.2749 12.311 78.1156 12.1399C77.9564 11.9671 77.7379 11.8807 77.46 11.8807C77.2686 11.8807 77.0975 11.9223 76.9467 12.0053C76.7977 12.0883 76.6799 12.2094 76.5935 12.3686C76.5071 12.5279 76.4639 12.721 76.4639 12.948Z" fill="white"/>
<path d="M83.76 11.3929V11.9011H81.7373V11.3929H83.76ZM82.3268 10.4577H82.9265V14.1779C82.9265 14.3473 82.9511 14.4743 83.0002 14.559C83.051 14.6421 83.1154 14.698 83.1933 14.7268C83.273 14.7539 83.3568 14.7674 83.4449 14.7674C83.511 14.7674 83.5652 14.764 83.6075 14.7572C83.6499 14.7488 83.6838 14.742 83.7092 14.7369L83.8312 15.2756C83.7905 15.2909 83.7337 15.3061 83.6609 15.3214C83.5881 15.3383 83.4957 15.3468 83.3839 15.3468C83.2145 15.3468 83.0485 15.3104 82.8859 15.2375C82.7249 15.1647 82.5911 15.0537 82.4844 14.9046C82.3794 14.7556 82.3268 14.5675 82.3268 14.3405V10.4577Z" fill="white"/>
<path d="M85.3456 12.948V15.296H84.7459V10.0918H85.3456V12.0027H85.3965C85.4879 11.8011 85.6252 11.641 85.8081 11.5225C85.9928 11.4022 86.2384 11.342 86.545 11.342C86.811 11.342 87.0439 11.3954 87.2438 11.5021C87.4437 11.6072 87.5987 11.7689 87.7088 11.9875C87.8206 12.2043 87.8766 12.4804 87.8766 12.8159V15.296H87.2769V12.8565C87.2769 12.5465 87.1964 12.3068 87.0355 12.1374C86.8762 11.9663 86.6551 11.8807 86.3722 11.8807C86.1757 11.8807 85.9995 11.9223 85.8437 12.0053C85.6895 12.0883 85.5676 12.2094 85.4778 12.3686C85.3897 12.5279 85.3456 12.721 85.3456 12.948Z" fill="white"/>
<path d="M90.6101 15.3773C90.234 15.3773 89.9096 15.2943 89.6369 15.1282C89.3658 14.9605 89.1566 14.7268 89.0092 14.4269C88.8635 14.1254 88.7907 13.7747 88.7907 13.3749C88.7907 12.9751 88.8635 12.6227 89.0092 12.3178C89.1566 12.0112 89.3616 11.7723 89.6242 11.6012C89.8884 11.4284 90.1968 11.342 90.5491 11.342C90.7524 11.342 90.9532 11.3759 91.1514 11.4437C91.3496 11.5114 91.53 11.6216 91.6926 11.774C91.8552 11.9248 91.9848 12.1247 92.0814 12.3737C92.178 12.6227 92.2262 12.9294 92.2262 13.2936V13.5477H89.2176V13.0293H91.6164C91.6164 12.8091 91.5723 12.6126 91.4842 12.4398C91.3978 12.267 91.2742 12.1306 91.1132 12.0307C90.954 11.9307 90.766 11.8807 90.5491 11.8807C90.3103 11.8807 90.1036 11.94 89.9291 12.0586C89.7563 12.1755 89.6233 12.328 89.5302 12.516C89.437 12.7041 89.3904 12.9056 89.3904 13.1208V13.4664C89.3904 13.7611 89.4412 14.011 89.5429 14.216C89.6462 14.4193 89.7893 14.5743 89.9723 14.681C90.1553 14.786 90.3679 14.8386 90.6101 14.8386C90.7677 14.8386 90.91 14.8165 91.037 14.7725C91.1658 14.7268 91.2767 14.659 91.3699 14.5692C91.4631 14.4777 91.5351 14.3642 91.5859 14.2287L92.1653 14.3913C92.1043 14.5878 92.0018 14.7606 91.8578 14.9097C91.7138 15.0571 91.5359 15.1723 91.3242 15.2553C91.1124 15.3366 90.8744 15.3773 90.6101 15.3773Z" fill="white"/>
<path d="M45.0542 23.3527C44.9907 23.1469 44.903 22.9626 44.7912 22.8C44.6819 22.6348 44.5498 22.4938 44.3948 22.3769C44.2423 22.26 44.067 22.1724 43.8688 22.1139C43.6706 22.0529 43.4546 22.0224 43.2208 22.0224C42.8015 22.0224 42.428 22.1279 42.1002 22.3388C41.7724 22.5497 41.5145 22.8597 41.3264 23.2688C41.1409 23.6754 41.0482 24.1709 41.0482 24.7554C41.0482 25.3449 41.1409 25.8442 41.3264 26.2533C41.5119 26.6624 41.7699 26.9737 42.1002 27.1872C42.4305 27.3981 42.8142 27.5035 43.2513 27.5035C43.6477 27.5035 43.9908 27.4273 44.2804 27.2748C44.5727 27.1224 44.7976 26.9064 44.9551 26.6269C45.1127 26.3448 45.1914 26.0145 45.1914 25.6359L45.5116 25.6854H43.3923V24.58H46.5598V25.5177C46.5598 26.186 46.4175 26.7641 46.1329 27.252C45.8483 27.7399 45.457 28.1159 44.9589 28.3802C44.4609 28.6419 43.8891 28.7728 43.2437 28.7728C42.5246 28.7728 41.8931 28.6115 41.3493 28.2887C40.8081 27.9635 40.385 27.5023 40.08 26.9051C39.7777 26.3054 39.6265 25.5939 39.6265 24.7706C39.6265 24.1404 39.7154 23.5776 39.8933 23.0821C40.0737 22.5866 40.3253 22.166 40.648 21.8204C40.9707 21.4723 41.3493 21.208 41.7838 21.0276C42.2184 20.8447 42.691 20.7532 43.2018 20.7532C43.6337 20.7532 44.0365 20.8167 44.41 20.9438C44.7836 21.0683 45.1152 21.2461 45.4049 21.4774C45.6971 21.7086 45.9372 21.9831 46.1253 22.3007C46.3133 22.6183 46.4366 22.969 46.495 23.3527H45.0542Z" fill="white"/>
<path d="M50.42 28.7804C49.8483 28.7804 49.3528 28.6547 48.9335 28.4031C48.5142 28.1515 48.1889 27.7996 47.9577 27.3473C47.729 26.895 47.6147 26.3664 47.6147 25.7616C47.6147 25.1569 47.729 24.627 47.9577 24.1722C48.1889 23.7173 48.5142 23.3641 48.9335 23.1126C49.3528 22.861 49.8483 22.7352 50.42 22.7352C50.9917 22.7352 51.4873 22.861 51.9065 23.1126C52.3258 23.3641 52.6498 23.7173 52.8785 24.1722C53.1097 24.627 53.2254 25.1569 53.2254 25.7616C53.2254 26.3664 53.1097 26.895 52.8785 27.3473C52.6498 27.7996 52.3258 28.1515 51.9065 28.4031C51.4873 28.6547 50.9917 28.7804 50.42 28.7804ZM50.4276 27.6751C50.7376 27.6751 50.9968 27.5899 51.2052 27.4197C51.4136 27.2469 51.5686 27.0157 51.6702 26.726C51.7744 26.4363 51.8265 26.1136 51.8265 25.7578C51.8265 25.3995 51.7744 25.0755 51.6702 24.7859C51.5686 24.4936 51.4136 24.2611 51.2052 24.0883C50.9968 23.9155 50.7376 23.8291 50.4276 23.8291C50.11 23.8291 49.8457 23.9155 49.6348 24.0883C49.4264 24.2611 49.2702 24.4936 49.166 24.7859C49.0643 25.0755 49.0135 25.3995 49.0135 25.7578C49.0135 26.1136 49.0643 26.4363 49.166 26.726C49.2702 27.0157 49.4264 27.2469 49.6348 27.4197C49.8457 27.5899 50.11 27.6751 50.4276 27.6751Z" fill="white"/>
<path d="M56.9503 28.7804C56.3785 28.7804 55.883 28.6547 55.4637 28.4031C55.0444 28.1515 54.7192 27.7996 54.488 27.3473C54.2593 26.895 54.1449 26.3664 54.1449 25.7616C54.1449 25.1569 54.2593 24.627 54.488 24.1722C54.7192 23.7173 55.0444 23.3641 55.4637 23.1126C55.883 22.861 56.3785 22.7352 56.9503 22.7352C57.522 22.7352 58.0175 22.861 58.4368 23.1126C58.8561 23.3641 59.1801 23.7173 59.4087 24.1722C59.64 24.627 59.7556 25.1569 59.7556 25.7616C59.7556 26.3664 59.64 26.895 59.4087 27.3473C59.1801 27.7996 58.8561 28.1515 58.4368 28.4031C58.0175 28.6547 57.522 28.7804 56.9503 28.7804ZM56.9579 27.6751C57.2679 27.6751 57.5271 27.5899 57.7354 27.4197C57.9438 27.2469 58.0988 27.0157 58.2005 26.726C58.3046 26.4363 58.3567 26.1136 58.3567 25.7578C58.3567 25.3995 58.3046 25.0755 58.2005 24.7859C58.0988 24.4936 57.9438 24.2611 57.7354 24.0883C57.5271 23.9155 57.2679 23.8291 56.9579 23.8291C56.6402 23.8291 56.376 23.9155 56.1651 24.0883C55.9567 24.2611 55.8004 24.4936 55.6962 24.7859C55.5946 25.0755 55.5438 25.3995 55.5438 25.7578C55.5438 26.1136 55.5946 26.4363 55.6962 26.726C55.8004 27.0157 55.9567 27.2469 56.1651 27.4197C56.376 27.5899 56.6402 27.6751 56.9579 27.6751Z" fill="white"/>
<path d="M63.4729 30.9836C62.9774 30.9836 62.5517 30.9162 62.196 30.7815C61.8402 30.6494 61.5544 30.4715 61.3384 30.2479C61.1224 30.0243 60.9725 29.7765 60.8886 29.5046L62.1312 29.2035C62.1871 29.3179 62.2684 29.431 62.3751 29.5428C62.4819 29.6571 62.6254 29.7511 62.8059 29.8248C62.9888 29.9011 63.2188 29.9392 63.4958 29.9392C63.8871 29.9392 64.2111 29.8439 64.4677 29.6533C64.7244 29.4653 64.8527 29.1552 64.8527 28.7233V27.6141H64.7841C64.7129 27.7564 64.6087 27.9025 64.4715 28.0524C64.3368 28.2023 64.1577 28.3281 63.9341 28.4298C63.713 28.5314 63.4348 28.5822 63.0993 28.5822C62.6496 28.5822 62.2417 28.4768 61.8758 28.2659C61.5124 28.0524 61.2228 27.7348 61.0068 27.313C60.7933 26.8886 60.6866 26.3575 60.6866 25.7197C60.6866 25.0768 60.7933 24.5343 61.0068 24.0921C61.2228 23.6475 61.5137 23.3108 61.8796 23.0821C62.2455 22.8508 62.6534 22.7352 63.1032 22.7352C63.4462 22.7352 63.7283 22.7937 63.9493 22.9105C64.173 23.0249 64.3508 23.1634 64.483 23.326C64.6151 23.4861 64.7155 23.6373 64.7841 23.7796H64.8603V22.8114H66.2211V28.7614C66.2211 29.262 66.1016 29.6762 65.8628 30.004C65.6239 30.3318 65.2974 30.577 64.8832 30.7396C64.469 30.9022 63.9989 30.9836 63.4729 30.9836ZM63.4843 27.4997C63.7765 27.4997 64.0256 27.4286 64.2314 27.2863C64.4372 27.144 64.5935 26.9394 64.7002 26.6726C64.8069 26.4058 64.8603 26.0856 64.8603 25.7121C64.8603 25.3436 64.8069 25.0209 64.7002 24.7439C64.596 24.467 64.441 24.2522 64.2352 24.0998C64.0319 23.9448 63.7816 23.8673 63.4843 23.8673C63.1768 23.8673 62.9202 23.9473 62.7144 24.1074C62.5085 24.2675 62.3535 24.4873 62.2494 24.7668C62.1452 25.0438 62.0931 25.3589 62.0931 25.7121C62.0931 26.0704 62.1452 26.3842 62.2494 26.6536C62.3561 26.9204 62.5124 27.1287 62.7182 27.2787C62.9266 27.426 63.1819 27.4997 63.4843 27.4997Z" fill="white"/>
<path d="M69.015 20.8599V28.6661H67.6352V20.8599H69.015Z" fill="white"/>
<path d="M73.0257 28.7804C72.4388 28.7804 71.9318 28.6585 71.5049 28.4145C71.0805 28.168 70.754 27.8199 70.5253 27.3701C70.2966 26.9178 70.1823 26.3855 70.1823 25.7731C70.1823 25.1708 70.2966 24.6423 70.5253 24.1874C70.7566 23.73 71.0793 23.3743 71.4935 23.1202C71.9077 22.8635 72.3943 22.7352 72.9533 22.7352C73.3142 22.7352 73.6547 22.7937 73.9748 22.9105C74.2976 23.0249 74.5822 23.2028 74.8286 23.4442C75.0777 23.6856 75.2733 23.993 75.4156 24.3666C75.5579 24.7376 75.6291 25.1797 75.6291 25.693V26.1161H70.8303V25.1861H74.3064C74.3039 24.9218 74.2467 24.6868 74.1349 24.4809C74.0231 24.2726 73.8668 24.1087 73.6661 23.9892C73.4679 23.8698 73.2367 23.8101 72.9724 23.8101C72.6903 23.8101 72.4426 23.8787 72.2291 24.0159C72.0157 24.1506 71.8492 24.3285 71.7298 24.5495C71.6129 24.7681 71.5532 25.0082 71.5507 25.2699V26.0818C71.5507 26.4223 71.6129 26.7145 71.7374 26.9585C71.8619 27.1999 72.036 27.3854 72.2596 27.515C72.4832 27.642 72.745 27.7056 73.0448 27.7056C73.2455 27.7056 73.4272 27.6776 73.5899 27.6217C73.7525 27.5633 73.8935 27.4781 74.013 27.3663C74.1324 27.2545 74.2226 27.116 74.2836 26.9509L75.5719 27.0957C75.4906 27.4362 75.3356 27.7335 75.1069 27.9876C74.8807 28.2392 74.591 28.4349 74.2378 28.5746C73.8846 28.7118 73.4806 28.7804 73.0257 28.7804Z" fill="white"/>
<path d="M79.5198 28.6661V20.8599H82.4471C83.0468 20.8599 83.5499 20.9717 83.9565 21.1953C84.3656 21.4189 84.6744 21.7264 84.8827 22.1177C85.0936 22.5065 85.1991 22.9487 85.1991 23.4442C85.1991 23.9448 85.0936 24.3895 84.8827 24.7782C84.6718 25.167 84.3605 25.4732 83.9489 25.6968C83.5372 25.9179 83.0303 26.0285 82.428 26.0285H80.4879V24.8659H82.2375C82.5881 24.8659 82.8753 24.8049 83.0989 24.6829C83.3225 24.561 83.4877 24.3933 83.5944 24.1798C83.7037 23.9664 83.7583 23.7212 83.7583 23.4442C83.7583 23.1672 83.7037 22.9233 83.5944 22.7123C83.4877 22.5014 83.3212 22.3375 83.0951 22.2206C82.8715 22.1012 82.5831 22.0415 82.2298 22.0415H80.9339V28.6661H79.5198Z" fill="white"/>
<path d="M87.7462 20.8599V28.6661H86.3664V20.8599H87.7462Z" fill="white"/>
<path d="M90.8498 28.7842C90.4788 28.7842 90.1447 28.7182 89.8474 28.586C89.5526 28.4514 89.3188 28.2532 89.146 27.9914C88.9758 27.7297 88.8906 27.407 88.8906 27.0233C88.8906 26.6929 88.9516 26.4198 89.0736 26.2038C89.1956 25.9878 89.362 25.815 89.5729 25.6854C89.7838 25.5558 90.0214 25.458 90.2857 25.3919C90.5525 25.3233 90.8282 25.2737 91.1128 25.2433C91.4559 25.2077 91.7341 25.1759 91.9476 25.148C92.161 25.1175 92.316 25.0717 92.4126 25.0107C92.5117 24.9472 92.5612 24.8494 92.5612 24.7173V24.6944C92.5612 24.4072 92.4761 24.1849 92.3058 24.0274C92.1356 23.8698 91.8904 23.791 91.5702 23.791C91.2322 23.791 90.9642 23.8647 90.766 24.0121C90.5703 24.1595 90.4382 24.3336 90.3695 24.5343L89.0812 24.3513C89.1829 23.9956 89.3506 23.6983 89.5844 23.4594C89.8181 23.218 90.104 23.0376 90.442 22.9182C90.7799 22.7962 91.1535 22.7352 91.5626 22.7352C91.8446 22.7352 92.1254 22.7682 92.4049 22.8343C92.6845 22.9004 92.9398 23.0097 93.1711 23.1621C93.4023 23.312 93.5878 23.5166 93.7276 23.7758C93.8699 24.035 93.941 24.359 93.941 24.7477V28.6661H92.6146V27.8618H92.5688C92.485 28.0245 92.3668 28.1769 92.2144 28.3192C92.0644 28.459 91.8751 28.5721 91.6464 28.6585C91.4203 28.7423 91.1547 28.7842 90.8498 28.7842ZM91.2081 27.7704C91.4851 27.7704 91.7252 27.7157 91.9285 27.6065C92.1318 27.4947 92.2881 27.3473 92.3973 27.1643C92.5091 26.9814 92.565 26.7819 92.565 26.5659V25.876C92.5218 25.9116 92.4481 25.9446 92.344 25.9751C92.2423 26.0056 92.128 26.0323 92.0009 26.0551C91.8739 26.078 91.7481 26.0983 91.6236 26.1161C91.4991 26.1339 91.3911 26.1492 91.2996 26.1619C91.0938 26.1898 90.9095 26.2355 90.7469 26.2991C90.5843 26.3626 90.4559 26.4515 90.3619 26.5659C90.2679 26.6777 90.2209 26.8225 90.2209 27.0004C90.2209 27.2545 90.3136 27.4464 90.4991 27.576C90.6846 27.7056 90.921 27.7704 91.2081 27.7704Z" fill="white"/>
<path d="M95.9764 30.8616C95.7884 30.8616 95.6143 30.8463 95.4542 30.8158C95.2967 30.7879 95.1709 30.7549 95.0769 30.7167L95.3971 29.6419C95.5978 29.7003 95.777 29.7283 95.9345 29.7257C96.0921 29.7232 96.2305 29.6736 96.35 29.5771C96.4719 29.483 96.5749 29.3255 96.6587 29.1044L96.7769 28.7881L94.6538 22.8114H96.1175L97.4668 27.2329H97.5278L98.8809 22.8114H100.348L98.0042 29.375C97.8949 29.6851 97.7501 29.9506 97.5697 30.1717C97.3893 30.3953 97.1682 30.5655 96.9065 30.6824C96.6473 30.8019 96.3373 30.8616 95.9764 30.8616Z" fill="white"/>
<defs>
<radialGradient id="paint0_radial_702_976" cx="0" cy="0" r="1" gradientUnits="userSpaceOnUse" gradientTransform="translate(56.5 20) rotate(76.9341) scale(39.2208 105.846)">
<stop stop-color="#C1C1C1"/>
<stop offset="1" stop-color="#EDEDED"/>
</radialGradient>
</defs>
</svg>
